<?xml version="1.0" standalone="no"?>
 <!DOCTYPE svg PUBLIC "-//W3C//DTD SVG 1.1//EN" 
 "http://www.w3.org/Graphics/SVG/1.1/DTD/svg11.dtd"> 
<svg
  xmlns:svg="http://www.w3.org/2000/svg"
  xmlns="http://www.w3.org/2000/svg"
  xmlns:xlink="http://www.w3.org/1999/xlink"
  version="1.1"
  width="139.9794mm" height="64.9986mm" viewBox="0.0000 0.0000 139.9794 64.9986">
<title>SVG Image created as UpperPOGO-B_Cu.svg date 2024/05/21 13:30:23 </title>
  <desc>Image generated by PCBNEW </desc>
<g style="fill:#000000; fill-opacity:1.0000;stroke:#000000; stroke-opacity:1.0000;
stroke-linecap:round; stroke-linejoin:round;"
 transform="translate(0 0) scale(1 1)">
</g>
<g style="fill:#4D7FC4; fill-opacity:1.0000; stroke:none;">
<circle cx="114.0000" cy="22.5000" r="1.7500" /> 
</g>
<g style="fill:#4D7FC4; fill-opacity:1.0000; stroke:none;">
<circle cx="47.5000" cy="22.5000" r="1.7500" /> 
</g>
<g style="fill:#4D7FC4; fill-opacity:1.0000; stroke:none;">
<circle cx="37.5000" cy="22.5000" r="1.7500" /> 
</g>
<g style="fill:#4D7FC4; fill-opacity:1.0000; stroke:none;">
<circle cx="21.0000" cy="22.5000" r="1.7500" /> 
</g>
<g style="fill:#4D7FC4; fill-opacity:1.0000; stroke:none;">
<circle cx="75.5000" cy="22.5000" r="1.7500" /> 
</g>
<g style="fill:#4D7FC4; fill-opacity:1.0000; stroke:none;">
<circle cx="69.0000" cy="22.5000" r="1.7500" /> 
</g>
<g style="fill:#4D7FC4; fill-opacity:1.0000; stroke:none;">
<circle cx="59.0000" cy="58.0000" r="1.7500" /> 
</g>
<g style="fill:#4D7FC4; fill-opacity:1.0000; stroke:none;">
<circle cx="47.5000" cy="58.0000" r="1.7500" /> 
</g>
<g style="fill:#4D7FC4; fill-opacity:1.0000; stroke:none;">
<circle cx="11.5000" cy="21.0000" r="1.8000" /> 
</g>
<g style="fill:#4D7FC4; fill-opacity:1.0000; stroke:none;">
<circle cx="11.5000" cy="21.0000" r="2.8000" /> 
</g>
<g style="fill:#4D7FC4; fill-opacity:1.0000; stroke:none;">
<circle cx="11.5000" cy="56.5000" r="1.8000" /> 
</g>
<g style="fill:#4D7FC4; fill-opacity:1.0000; stroke:none;">
<circle cx="11.5000" cy="56.5000" r="2.8000" /> 
</g>
<g style="fill:#4D7FC4; fill-opacity:1.0000; stroke:none;">
<circle cx="107.0000" cy="58.0000" r="1.7500" /> 
</g>
<g style="fill:#4D7FC4; fill-opacity:1.0000; stroke:none;">
<circle cx="130.5000" cy="56.5000" r="1.8000" /> 
</g>
<g style="fill:#4D7FC4; fill-opacity:1.0000; stroke:none;">
<circle cx="130.5000" cy="56.5000" r="2.8000" /> 
</g>
<g style="fill:#4D7FC4; fill-opacity:1.0000; stroke:none;">
<circle cx="114.0000" cy="58.0000" r="1.7500" /> 
</g>
<g style="fill:#4D7FC4; fill-opacity:1.0000; stroke:none;">
<circle cx="97.0000" cy="58.0000" r="1.7500" /> 
</g>
<g style="fill:#4D7FC4; fill-opacity:1.0000; stroke:none;">
<circle cx="130.5000" cy="21.0000" r="1.8000" /> 
</g>
<g style="fill:#4D7FC4; fill-opacity:1.0000; stroke:none;">
<circle cx="130.5000" cy="21.0000" r="2.8000" /> 
</g>
<g style="fill:#4D7FC4; fill-opacity:1.0000; stroke:none;">
<circle cx="21.0000" cy="58.0000" r="1.7500" /> 
</g>
<g style="fill:#4D7FC4; fill-opacity:1.0000; stroke:none;">
<circle cx="59.0000" cy="22.5000" r="1.7500" /> 
</g>
<g style="fill:#4D7FC4; fill-opacity:1.0000; stroke:none;">
<circle cx="124.0000" cy="22.5000" r="1.7500" /> 
</g>
<g style="fill:#4D7FC4; fill-opacity:1.0000; stroke:none;">
<circle cx="107.0000" cy="22.5000" r="1.7500" /> 
</g>
<g style="fill:#4D7FC4; fill-opacity:1.0000; stroke:none;">
<circle cx="31.0000" cy="58.0000" r="1.7500" /> 
</g>
<g style="fill:#4D7FC4; fill-opacity:1.0000; stroke:none;">
<circle cx="124.0000" cy="58.0000" r="1.7500" /> 
</g>
<g style="fill:#4D7FC4; fill-opacity:1.0000; stroke:none;">
<circle cx="85.5000" cy="22.5000" r="1.7500" /> 
</g>
<g style="fill:#4D7FC4; fill-opacity:1.0000; stroke:none;">
<circle cx="85.5000" cy="58.0000" r="1.7500" /> 
</g>
<g style="fill:#4D7FC4; fill-opacity:1.0000; stroke:none;">
<circle cx="69.0000" cy="58.0000" r="1.7500" /> 
</g>
<g style="fill:#4D7FC4; fill-opacity:1.0000; stroke:none;">
<circle cx="75.5000" cy="58.0000" r="1.7500" /> 
</g>
<g style="fill:#4D7FC4; fill-opacity:1.0000; stroke:none;">
<circle cx="97.0000" cy="22.5000" r="1.7500" /> 
</g>
<g style="fill:#4D7FC4; fill-opacity:1.0000; stroke:none;">
<circle cx="37.5000" cy="58.0000" r="1.7500" /> 
</g>
<g style="fill:#4D7FC4; fill-opacity:1.0000; stroke:none;">
<circle cx="31.0000" cy="22.5000" r="1.7500" /> 
</g>
<g style="fill:#4D7FC4; fill-opacity:1.0000; stroke:none;">
<circle cx="58.5000" cy="13.2500" r="0.8500" /> 
<circle cx="61.0400" cy="13.2500" r="0.8500" /> 
<circle cx="63.5800" cy="13.2500" r="0.8500" /> 
<circle cx="66.1200" cy="13.2500" r="0.8500" /> 
<circle cx="68.6600" cy="13.2500" r="0.8500" /> 
<circle cx="71.2000" cy="13.2500" r="0.8500" /> 
<circle cx="73.7400" cy="13.2500" r="0.8500" /> 
<circle cx="76.2800" cy="13.2500" r="0.8500" /> 
<circle cx="78.8200" cy="13.2500" r="0.8500" /> 
<circle cx="81.3600" cy="13.2500" r="0.8500" /> 
<circle cx="83.9000" cy="13.2500" r="0.8500" /> 
<circle cx="86.4400" cy="13.2500" r="0.8500" /> 
<path style="fill:#4D7FC4; fill-opacity:1.0000; stroke:none;fill-rule:evenodd;"
d="M 57.6500,14.9400
59.3500,14.9400
59.3500,16.6400
57.6500,16.6400
Z" /> 
<circle cx="61.0400" cy="15.7900" r="0.8500" /> 
<circle cx="63.5800" cy="15.7900" r="0.8500" /> 
<circle cx="66.1200" cy="15.7900" r="0.8500" /> 
<circle cx="68.6600" cy="15.7900" r="0.8500" /> 
<circle cx="71.2000" cy="15.7900" r="0.8500" /> 
<circle cx="73.7400" cy="15.7900" r="0.8500" /> 
<circle cx="76.2800" cy="15.7900" r="0.8500" /> 
<circle cx="78.8200" cy="15.7900" r="0.8500" /> 
<circle cx="81.3600" cy="15.7900" r="0.8500" /> 
<circle cx="83.9000" cy="15.7900" r="0.8500" /> 
<circle cx="86.4400" cy="15.7900" r="0.8500" /> 
</g>
<g style="fill:none; 
stroke:#4D7FC4; stroke-width:0.4000; stroke-opacity:1; 
stroke-linecap:round; stroke-linejoin:round;">
<path d="M21.0000 58.0000
L18.8000 55.8000
" />
<path d="M57.1000 16.7899
L57.1000 14.6500
" />
<path d="M56.0899 17.8000
L57.1000 16.7899
" />
<path d="M22.2000 17.8000
L56.0899 17.8000
" />
<path d="M57.1000 14.6500
L58.5000 13.2500
" />
<path d="M18.8000 21.2000
L22.2000 17.8000
" />
<path d="M18.8000 55.8000
L18.8000 21.2000
" />
<path d="M21.0000 22.5000
L21.0000 21.0000
" />
<path d="M59.7500 14.5400
L61.0400 13.2500
" />
<path d="M58.2000 18.4000
L59.7500 16.8500
" />
<path d="M59.7500 16.8500
L59.7500 14.5400
" />
<path d="M21.0000 21.0000
L23.6000 18.4000
" />
<path d="M23.6000 18.4000
L58.2000 18.4000
" />
<path d="M37.5000 58.0000
L36.0000 58.0000
" />
<path d="M36.7500 19.0000
L59.5978 19.0000
" />
<path d="M59.5978 19.0000
L62.2900 16.3078
" />
<path d="M34.2500 56.2500
L34.2500 21.5000
" />
<path d="M34.2500 21.5000
L36.7500 19.0000
" />
<path d="M36.0000 58.0000
L34.2500 56.2500
" />
<path d="M62.2900 16.3078
L62.2900 14.5400
" />
<path d="M62.2900 14.5400
L63.5800 13.2500
" />
<path d="M37.5000 21.0000
L38.9000 19.6000
" />
<path d="M64.8300 14.5400
L66.1200 13.2500
" />
<path d="M37.5000 22.5000
L37.5000 21.0000
" />
<path d="M64.8300 16.3078
L64.8300 14.5400
" />
<path d="M61.5378 19.6000
L64.8300 16.3078
" />
<path d="M38.9000 19.6000
L61.5378 19.6000
" />
<path d="M67.4100 17.5900
L67.4100 14.5000
" />
<path d="M61.2000 20.3000
L64.7000 20.3000
" />
<path d="M67.4100 14.5000
L68.6600 13.2500
" />
<path d="M64.7000 20.3000
L67.4100 17.5900
" />
<path d="M59.0000 22.5000
L61.2000 20.3000
" />
<path d="M59.0000 58.0000
L59.0000 59.5000
" />
<path d="M70.0000 60.3000
L71.2000 59.1000
" />
<path d="M59.8000 60.3000
L70.0000 60.3000
" />
<path d="M69.9500 16.9500
L69.9500 14.5000
" />
<path d="M71.2000 18.2000
L69.9500 16.9500
" />
<path d="M69.9500 14.5000
L71.2000 13.2500
" />
<path d="M59.0000 59.5000
L59.8000 60.3000
" />
<path d="M71.2000 59.1000
L71.2000 18.2000
" />
<path d="M73.3000 17.5500
L72.4900 16.7400
" />
<path d="M73.3000 55.8000
L73.3000 17.5500
" />
<path d="M75.5000 58.0000
L73.3000 55.8000
" />
<path d="M72.4900 15.0100
L72.5000 15.0000
" />
<path d="M72.4900 16.7400
L72.4900 15.0100
" />
<path d="M72.5000 14.4900
L73.7400 13.2500
" />
<path d="M72.5000 15.0000
L72.5000 14.4900
" />
<path d="M75.5000 58.0000
L74.0000 58.0000
" />
<path d="M76.2800 13.2500
L75.0300 14.5000
" />
<path d="M75.0300 14.5000
L75.0300 22.0300
" />
<path d="M75.0300 22.0300
L75.5000 22.5000
" />
<path d="M78.8200 13.2500
L80.0700 14.5000
" />
<path d="M80.0700 16.2678
L83.8022 20.0000
" />
<path d="M94.5000 20.0000
L97.0000 22.5000
" />
<path d="M83.8022 20.0000
L94.5000 20.0000
" />
<path d="M80.0700 14.5000
L80.0700 16.2678
" />
<path d="M97.8000 60.3000
L108.2000 60.3000
" />
<path d="M97.0000 58.0000
L97.0000 59.5000
" />
<path d="M85.3422 19.0000
L82.6500 16.3078
" />
<path d="M107.5000 19.0000
L85.3422 19.0000
" />
<path d="M82.6500 16.3078
L82.6500 14.5400
" />
<path d="M108.2000 60.3000
L109.2000 59.3000
" />
<path d="M97.0000 59.5000
L97.8000 60.3000
" />
<path d="M109.2000 20.7000
L107.5000 19.0000
" />
<path d="M109.2000 59.3000
L109.2000 20.7000
" />
<path d="M82.6500 14.5400
L81.3600 13.2500
" />
<path d="M112.5000 58.0000
L111.7500 57.2500
" />
<path d="M85.1900 14.5400
L83.9000 13.2500
" />
<path d="M85.1900 17.0400
L85.1900 14.5400
" />
<path d="M85.9500 17.8000
L85.1900 17.0400
" />
<path d="M111.7500 57.2500
L111.7500 21.7500
" />
<path d="M107.8000 17.8000
L85.9500 17.8000
" />
<path d="M111.7500 21.7500
L107.8000 17.8000
" />
<path d="M114.0000 58.0000
L112.5000 58.0000
" />
<path d="M87.6900 14.5000
L86.4400 13.2500
" />
<path d="M108.7000 17.2000
L88.2050 17.2000
" />
<path d="M87.6900 16.6850
L87.6900 14.5000
" />
<path d="M114.0000 22.5000
L108.7000 17.2000
" />
<path d="M88.2050 17.2000
L87.6900 16.6850
" />
<path style="fill:#4D7FC4; fill-opacity:1.0000; stroke:none;fill-rule:evenodd;"
d="M 56.1967,17.0222
56.2184,17.0745
56.1967,17.1268
55.9457,17.3778
55.8934,17.3995
22.2527,17.3995
22.1473,17.3995
22.0963,17.4131
22.0454,17.4268
22.0454,17.4268
21.9541,17.4795
18.4795,20.9541
18.4268,21.0454
18.4268,21.0454
18.4268,21.0454
18.3995,21.1473
18.3995,55.7473
18.3995,55.8527
18.4135,55.9050
18.4268,55.9546
18.4268,55.9546
18.4795,56.0459
18.4795,56.0459
18.4795,56.0459
18.9295,56.4959
19.3233,56.8897
19.3450,56.9421
19.3360,56.9775
19.2212,57.1877
19.1237,57.4491
19.1237,57.4491
19.0644,57.7217
19.0445,58.0000
19.0445,58.0000
19.0644,58.2783
19.1237,58.5509
19.1237,58.5509
19.2212,58.8123
19.3549,59.0572
19.3614,59.0659
19.5221,59.2806
19.7194,59.4779
19.8708,59.5912
19.9428,59.6451
20.1877,59.7788
20.4491,59.8763
20.4491,59.8763
20.4491,59.8763
20.7217,59.9356
20.7835,59.9400
21.0000,59.9555
21.0000,59.9555
21.0000,59.9555
21.1948,59.9415
21.2783,59.9356
21.5509,59.8763
21.5509,59.8763
21.5509,59.8763
21.8123,59.7788
21.8336,59.7672
22.0572,59.6451
22.2806,59.4779
22.4779,59.2806
22.6451,59.0572
22.7788,58.8123
22.7788,58.8123
22.7788,58.8123
22.8562,58.6048
22.8948,58.5634
22.9514,58.5614
22.9928,58.5999
22.9995,58.6307
22.9995,59.0659
23.0336,59.1932
23.0336,59.1932
23.0691,59.2546
23.0995,59.3073
23.1927,59.4005
23.3068,59.4664
23.4341,59.5005
23.4341,59.5005
23.4341,59.5005
28.5659,59.5005
28.5659,59.5005
28.6932,59.4664
28.8073,59.4005
28.9005,59.3073
28.9664,59.1932
29.0005,59.0659
29.0005,59.0659
29.0005,58.6307
29.0222,58.5784
29.0745,58.5567
29.1268,58.5784
29.1438,58.6048
29.2212,58.8123
29.3549,59.0572
29.3614,59.0659
29.5221,59.2806
29.7194,59.4779
29.8708,59.5912
29.9428,59.6451
30.1877,59.7788
30.4491,59.8763
30.4491,59.8763
30.4491,59.8763
30.7217,59.9356
30.7835,59.9400
31.0000,59.9555
31.0000,59.9555
31.0000,59.9555
31.1948,59.9415
31.2783,59.9356
31.5509,59.8763
31.5509,59.8763
31.5509,59.8763
31.8123,59.7788
31.8336,59.7672
32.0572,59.6451
32.2806,59.4779
32.4779,59.2806
32.6451,59.0572
32.7788,58.8123
32.7788,58.8123
32.7788,58.8123
32.8763,58.5509
32.8763,58.5509
32.8763,58.5509
32.9356,58.2783
32.9422,58.1855
32.9555,58.0000
32.9555,58.0000
32.9356,57.7217
32.9356,57.7217
32.8763,57.4491
32.8763,57.4491
32.8763,57.4491
32.7788,57.1877
32.6451,56.9428
32.5822,56.8589
32.4779,56.7194
32.2806,56.5221
32.0695,56.3641
32.0572,56.3549
31.8123,56.2212
31.6048,56.1438
31.5634,56.1052
31.5614,56.0486
31.5999,56.0072
31.6307,56.0005
32.5659,56.0005
32.5659,56.0005
32.6932,55.9664
32.8073,55.9005
32.9005,55.8073
32.9664,55.6932
33.0005,55.5659
33.0005,55.5659
33.0005,43.9331
33.0000,43.9255
33.0000,41.5811
33.0002,41.5758
33.0056,41.5000
33.0056,41.5000
33.0002,41.4242
33.0000,41.4189
33.0000,39.0745
33.0005,39.0669
33.0005,24.9341
33.0005,24.9341
32.9740,24.8350
32.9664,24.8068
32.9005,24.6927
32.8073,24.5995
32.7385,24.5598
32.6932,24.5336
32.6932,24.5336
32.5659,24.4995
32.5659,24.4995
31.6307,24.4995
31.5784,24.4778
31.5567,24.4255
31.5784,24.3732
31.6048,24.3562
31.8123,24.2788
31.8851,24.2390
32.0572,24.1451
32.2806,23.9779
32.4779,23.7806
32.6451,23.5572
32.7788,23.3123
32.7788,23.3123
32.7788,23.3123
32.8763,23.0509
32.8763,23.0509
32.8763,23.0509
32.9356,22.7783
32.9555,22.5000
32.9555,22.5000
32.9395,22.2764
32.9356,22.2217
32.8763,21.9491
32.8763,21.9491
32.8763,21.9491
32.7788,21.6877
32.6451,21.4428
32.5822,21.3589
32.4779,21.2194
32.2806,21.0221
32.0828,20.8741
32.0572,20.8549
31.8123,20.7212
31.5509,20.6237
31.5509,20.6237
31.5509,20.6237
31.4960,20.6118
31.2783,20.5644
31.0000,20.5445
31.0000,20.5445
30.7217,20.5644
30.4491,20.6237
30.4491,20.6237
30.1877,20.7212
29.9428,20.8549
29.7194,21.0221
29.5221,21.2194
29.3549,21.4428
29.2212,21.6877
29.1438,21.8952
29.1052,21.9366
29.0486,21.9386
29.0072,21.9001
29.0005,21.8693
29.0005,20.9341
29.0005,20.9341
28.9937,20.9088
28.9664,20.8068
28.9005,20.6927
28.8073,20.5995
28.6932,20.5336
28.6932,20.5336
28.5659,20.4995
28.5659,20.4995
23.5659,20.4995
23.4341,20.4995
23.4341,20.4995
23.3068,20.5336
23.3068,20.5336
23.1927,20.5995
23.0995,20.6927
23.0336,20.8068
23.0336,20.8068
22.9995,20.9341
22.9995,21.8693
22.9778,21.9216
22.9255,21.9433
22.8732,21.9216
22.8562,21.8952
22.7788,21.6877
22.6451,21.4428
22.5822,21.3589
22.4779,21.2194
22.2806,21.0221
22.0828,20.8741
22.0572,20.8549
21.9203,20.7802
21.8848,20.7361
21.8908,20.6798
21.9035,20.6629
23.7442,18.8222
23.7965,18.8005
36.2045,18.8005
36.2568,18.8222
36.2785,18.8745
36.2568,18.9268
33.9295,21.2541
33.8768,21.3454
33.8693,21.3732
33.8693,21.3732
33.8495,21.4473
33.8495,21.4473
33.8495,56.1973
33.8495,56.3027
33.8666,56.3665
33.8768,56.4046
33.8768,56.4046
33.9295,56.4959
33.9295,56.4959
33.9295,56.4959
34.7722,57.3386
35.5335,58.0999
35.5550,58.1470
35.5644,58.2783
35.6237,58.5509
35.6237,58.5509
35.7212,58.8123
35.8549,59.0572
35.8614,59.0659
36.0221,59.2806
36.2194,59.4779
36.3708,59.5912
36.4428,59.6451
36.6877,59.7788
36.9491,59.8763
36.9491,59.8763
36.9491,59.8763
37.2217,59.9356
37.2835,59.9400
37.5000,59.9555
37.5000,59.9555
37.5000,59.9555
37.6948,59.9415
37.7783,59.9356
38.0509,59.8763
38.0509,59.8763
38.0509,59.8763
38.3123,59.7788
38.3336,59.7672
38.5572,59.6451
38.7806,59.4779
38.9779,59.2806
39.1451,59.0572
39.2788,58.8123
39.2788,58.8123
39.2788,58.8123
39.3562,58.6048
39.3948,58.5634
39.4514,58.5614
39.4928,58.5999
39.4995,58.6307
39.4995,59.0659
39.5336,59.1932
39.5336,59.1932
39.5691,59.2546
39.5995,59.3073
39.6927,59.4005
39.8068,59.4664
39.9341,59.5005
39.9341,59.5005
39.9341,59.5005
45.0659,59.5005
45.0659,59.5005
45.1932,59.4664
45.3073,59.4005
45.4005,59.3073
45.4664,59.1932
45.5005,59.0659
45.5005,59.0659
45.5005,58.6307
45.5222,58.5784
45.5745,58.5567
45.6268,58.5784
45.6438,58.6048
45.7212,58.8123
45.8549,59.0572
45.8614,59.0659
46.0221,59.2806
46.2194,59.4779
46.3708,59.5912
46.4428,59.6451
46.6877,59.7788
46.9491,59.8763
46.9491,59.8763
46.9491,59.8763
47.2217,59.9356
47.2835,59.9400
47.5000,59.9555
47.5000,59.9555
47.5000,59.9555
47.6948,59.9415
47.7783,59.9356
48.0509,59.8763
48.0509,59.8763
48.0509,59.8763
48.3123,59.7788
48.3336,59.7672
48.5572,59.6451
48.7806,59.4779
48.9779,59.2806
49.1451,59.0572
49.2788,58.8123
49.2788,58.8123
49.2788,58.8123
49.3763,58.5509
49.3763,58.5509
49.3763,58.5509
49.4352,58.2802
49.4675,58.2337
49.5232,58.2236
49.5697,58.2559
49.5716,58.2589
49.5827,58.2783
49.5995,58.3073
49.6927,58.4005
49.8068,58.4664
49.9341,58.5005
49.9341,58.5005
49.9341,58.5005
56.5659,58.5005
56.5659,58.5005
56.6932,58.4664
56.8073,58.4005
56.9005,58.3073
56.9284,58.2589
56.9734,58.2244
57.0295,58.2318
57.0640,58.2768
57.0648,58.2802
57.1237,58.5509
57.1237,58.5509
57.2212,58.8123
57.3549,59.0572
57.3614,59.0659
57.5221,59.2806
57.7194,59.4779
57.8708,59.5912
57.9428,59.6451
58.1877,59.7788
58.4491,59.8763
58.4491,59.8763
58.4491,59.8763
58.7217,59.9356
58.8530,59.9450
58.9001,59.9665
59.3068,60.3732
59.3285,60.4255
59.3068,60.4778
59.2545,60.4995
7.5745,60.4995
7.5222,60.4778
7.5005,60.4255
7.5005,56.5000
8.2950,56.5000
8.3151,56.8589
8.3151,56.8589
8.3753,57.2132
8.4748,57.5586
8.6124,57.8906
8.6124,57.8906
8.7862,58.2052
8.7862,58.2052
8.9942,58.4983
9.1002,58.6169
10.2355,57.4817
10.2796,57.5423
10.4577,57.7204
10.5183,57.7645
9.3831,58.8998
9.5017,59.0058
9.7948,59.2138
9.7948,59.2138
10.1094,59.3876
10.1094,59.3876
10.4414,59.5252
10.7868,59.6247
10.7868,59.6247
11.1411,59.6849
11.1411,59.6849
11.5000,59.7050
11.8589,59.6849
11.8589,59.6849
12.2132,59.6247
12.5586,59.5252
12.8906,59.3876
12.8906,59.3876
13.2052,59.2138
13.2052,59.2138
13.4983,59.0058
13.6169,58.8998
13.6169,58.8998
12.4817,57.7645
12.5423,57.7204
12.7204,57.5423
12.7645,57.4817
13.8998,58.6169
13.8998,58.6169
14.0058,58.4983
14.2138,58.2052
14.2138,58.2052
14.3876,57.8906
14.3876,57.8906
14.5252,57.5586
14.6247,57.2132
14.6849,56.8589
14.6849,56.8589
14.7050,56.5000
14.6849,56.1411
14.6849,56.1411
14.6247,55.7868
14.5252,55.4414
14.3876,55.1094
14.3876,55.1094
14.2138,54.7948
14.2138,54.7948
14.0058,54.5017
13.8998,54.3831
13.8998,54.3831
12.7645,55.5183
12.7204,55.4577
12.5423,55.2796
12.4817,55.2355
13.6169,54.1002
13.4983,53.9942
13.2052,53.7862
13.2052,53.7862
12.8906,53.6124
12.8906,53.6124
12.5586,53.4748
12.2132,53.3753
12.2132,53.3753
11.8589,53.3151
11.8589,53.3151
11.5000,53.2950
11.1411,53.3151
11.1411,53.3151
10.7868,53.3753
10.4414,53.4748
10.1094,53.6124
10.1094,53.6124
9.7948,53.7862
9.7948,53.7862
9.5017,53.9942
9.3831,54.1002
10.5183,55.2355
10.4577,55.2796
10.2796,55.4577
10.2355,55.5183
9.1002,54.3831
8.9942,54.5017
8.7862,54.7948
8.7862,54.7948
8.6124,55.1094
8.6124,55.1094
8.4748,55.4414
8.3753,55.7868
8.3151,56.1411
8.3151,56.1411
8.2950,56.5000
7.5005,56.5000
7.5005,21.0000
8.2950,21.0000
8.3151,21.3589
8.3151,21.3589
8.3753,21.7132
8.4748,22.0586
8.6124,22.3906
8.6124,22.3906
8.7862,22.7052
8.7862,22.7052
8.9942,22.9983
9.1002,23.1169
10.2355,21.9817
10.2796,22.0423
10.4577,22.2204
10.5183,22.2645
9.3831,23.3998
9.5017,23.5058
9.7948,23.7138
9.7948,23.7138
10.1094,23.8876
10.1094,23.8876
10.4414,24.0252
10.7868,24.1247
10.7868,24.1247
11.1411,24.1849
11.1411,24.1849
11.5000,24.2050
11.8589,24.1849
11.8589,24.1849
12.2132,24.1247
12.5586,24.0252
12.8906,23.8876
12.8906,23.8876
13.2052,23.7138
13.2052,23.7138
13.4983,23.5058
13.6169,23.3998
13.6169,23.3998
12.4817,22.2645
12.5423,22.2204
12.7204,22.0423
12.7645,21.9817
13.8998,23.1169
13.8998,23.1169
14.0058,22.9983
14.2138,22.7052
14.2138,22.7052
14.3876,22.3906
14.3876,22.3906
14.5252,22.0586
14.6247,21.7132
14.6849,21.3589
14.6849,21.3589
14.7050,21.0000
14.6849,20.6411
14.6849,20.6411
14.6247,20.2868
14.5252,19.9414
14.3876,19.6094
14.3876,19.6094
14.2138,19.2948
14.2138,19.2948
14.0058,19.0017
13.8998,18.8831
13.8998,18.8831
12.7645,20.0183
12.7204,19.9577
12.5423,19.7796
12.4817,19.7355
13.6169,18.6002
13.4983,18.4942
13.2052,18.2862
13.2052,18.2862
12.8906,18.1124
12.8906,18.1124
12.5586,17.9748
12.2132,17.8753
12.2132,17.8753
11.8589,17.8151
11.8589,17.8151
11.5000,17.7950
11.1411,17.8151
11.1411,17.8151
10.7868,17.8753
10.4414,17.9748
10.1094,18.1124
10.1094,18.1124
9.7948,18.2862
9.7948,18.2862
9.5017,18.4942
9.3831,18.6002
10.5183,19.7355
10.4577,19.7796
10.2796,19.9577
10.2355,20.0183
9.1002,18.8831
8.9942,19.0017
8.7862,19.2948
8.7862,19.2948
8.6124,19.6094
8.6124,19.6094
8.4748,19.9414
8.3753,20.2868
8.3151,20.6411
8.3151,20.6411
8.2950,21.0000
7.5005,21.0000
7.5005,17.0745
7.5222,17.0222
7.5745,17.0005
56.1444,17.0005
Z" /> 
<path style="fill:#4D7FC4; fill-opacity:1.0000; stroke:none;fill-rule:evenodd;"
d="M 84.7624,16.5117
84.7891,16.5616
84.7895,16.5689
84.7895,16.9873
84.7895,17.0927
84.7986,17.1268
84.8168,17.1946
84.8168,17.1946
84.8695,17.2859
84.8695,17.2859
84.8695,17.2859
85.6295,18.0459
85.6295,18.0459
85.7041,18.1205
85.7954,18.1732
85.8973,18.2005
85.8973,18.2005
85.8973,18.2005
107.6035,18.2005
107.6558,18.2222
111.3278,21.8942
111.3495,21.9465
111.3495,57.1973
111.3495,57.3027
111.3768,57.4046
111.3768,57.4046
111.4295,57.4959
111.4295,57.4959
111.4295,57.4959
111.7651,57.8315
112.0335,58.0999
112.0550,58.1470
112.0644,58.2783
112.1237,58.5509
112.1237,58.5509
112.2212,58.8123
112.3549,59.0572
112.3614,59.0659
112.5221,59.2806
112.7194,59.4779
112.8708,59.5912
112.9428,59.6451
113.1877,59.7788
113.4491,59.8763
113.4491,59.8763
113.4491,59.8763
113.7217,59.9356
113.7835,59.9400
114.0000,59.9555
114.0000,59.9555
114.0000,59.9555
114.1948,59.9415
114.2783,59.9356
114.5509,59.8763
114.5509,59.8763
114.5509,59.8763
114.8123,59.7788
114.8336,59.7672
115.0572,59.6451
115.2806,59.4779
115.4779,59.2806
115.6451,59.0572
115.7788,58.8123
115.7788,58.8123
115.7788,58.8123
115.8562,58.6048
115.8948,58.5634
115.9514,58.5614
115.9928,58.5999
115.9995,58.6307
115.9995,59.0659
116.0336,59.1932
116.0336,59.1932
116.0691,59.2546
116.0995,59.3073
116.1927,59.4005
116.3068,59.4664
116.4341,59.5005
116.4341,59.5005
116.4341,59.5005
121.5659,59.5005
121.5659,59.5005
121.6932,59.4664
121.8073,59.4005
121.9005,59.3073
121.9664,59.1932
122.0005,59.0659
122.0005,59.0659
122.0005,58.6307
122.0222,58.5784
122.0745,58.5567
122.1268,58.5784
122.1438,58.6048
122.2212,58.8123
122.3549,59.0572
122.3614,59.0659
122.5221,59.2806
122.7194,59.4779
122.8708,59.5912
122.9428,59.6451
123.1877,59.7788
123.4491,59.8763
123.4491,59.8763
123.4491,59.8763
123.7217,59.9356
123.7835,59.9400
124.0000,59.9555
124.0000,59.9555
124.0000,59.9555
124.1948,59.9415
124.2783,59.9356
124.5509,59.8763
124.5509,59.8763
124.5509,59.8763
124.8123,59.7788
124.8336,59.7672
125.0572,59.6451
125.2806,59.4779
125.4779,59.2806
125.6451,59.0572
125.7788,58.8123
125.7788,58.8123
125.7788,58.8123
125.8763,58.5509
125.8763,58.5509
125.8763,58.5509
125.9356,58.2783
125.9422,58.1855
125.9555,58.0000
125.9555,58.0000
125.9356,57.7217
125.9356,57.7217
125.8763,57.4491
125.8763,57.4491
125.8763,57.4491
125.7788,57.1877
125.6451,56.9428
125.5822,56.8589
125.4779,56.7194
125.2806,56.5221
125.2510,56.5000
127.2950,56.5000
127.3151,56.8589
127.3151,56.8589
127.3753,57.2132
127.4748,57.5586
127.6124,57.8906
127.6124,57.8906
127.7862,58.2052
127.7862,58.2052
127.9942,58.4983
128.1002,58.6169
129.2355,57.4817
129.2796,57.5423
129.4577,57.7204
129.5183,57.7645
128.3831,58.8998
128.5017,59.0058
128.7948,59.2138
128.7948,59.2138
129.1094,59.3876
129.1094,59.3876
129.4414,59.5252
129.7868,59.6247
129.7868,59.6247
130.1411,59.6849
130.1411,59.6849
130.5000,59.7050
130.8589,59.6849
130.8589,59.6849
131.2132,59.6247
131.5586,59.5252
131.8906,59.3876
131.8906,59.3876
132.2052,59.2138
132.2052,59.2138
132.4983,59.0058
132.6169,58.8998
132.6169,58.8998
131.4817,57.7645
131.5423,57.7204
131.7204,57.5423
131.7645,57.4817
132.8998,58.6169
132.8998,58.6169
133.0058,58.4983
133.2138,58.2052
133.2138,58.2052
133.3876,57.8906
133.3876,57.8906
133.5252,57.5586
133.6247,57.2132
133.6849,56.8589
133.6849,56.8589
133.7050,56.5000
133.6849,56.1411
133.6849,56.1411
133.6247,55.7868
133.5252,55.4414
133.3876,55.1094
133.3876,55.1094
133.2138,54.7948
133.2138,54.7948
133.0058,54.5017
132.8998,54.3831
132.8998,54.3831
131.7645,55.5183
131.7204,55.4577
131.5423,55.2796
131.4817,55.2355
132.6169,54.1002
132.4983,53.9942
132.2052,53.7862
132.2052,53.7862
131.8906,53.6124
131.8906,53.6124
131.5586,53.4748
131.2132,53.3753
131.2132,53.3753
130.8589,53.3151
130.8589,53.3151
130.5000,53.2950
130.1411,53.3151
130.1411,53.3151
129.7868,53.3753
129.4414,53.4748
129.1094,53.6124
129.1094,53.6124
128.7948,53.7862
128.7948,53.7862
128.5017,53.9942
128.3831,54.1002
129.5183,55.2355
129.4577,55.2796
129.2796,55.4577
129.2355,55.5183
128.1002,54.3831
127.9942,54.5017
127.7862,54.7948
127.7862,54.7948
127.6124,55.1094
127.6124,55.1094
127.4748,55.4414
127.3753,55.7868
127.3151,56.1411
127.3151,56.1411
127.2950,56.5000
125.2510,56.5000
125.0695,56.3641
125.0572,56.3549
124.8123,56.2212
124.6048,56.1438
124.5634,56.1052
124.5614,56.0486
124.5999,56.0072
124.6307,56.0005
125.5659,56.0005
125.5659,56.0005
125.6932,55.9664
125.8073,55.9005
125.9005,55.8073
125.9664,55.6932
126.0005,55.5659
126.0005,55.5659
126.0005,24.9341
126.0005,24.9341
125.9740,24.8350
125.9664,24.8068
125.9005,24.6927
125.8073,24.5995
125.7385,24.5598
125.6932,24.5336
125.6932,24.5336
125.5659,24.4995
125.5659,24.4995
124.6307,24.4995
124.5784,24.4778
124.5567,24.4255
124.5784,24.3732
124.6048,24.3562
124.8123,24.2788
124.8851,24.2390
125.0572,24.1451
125.2806,23.9779
125.4779,23.7806
125.6451,23.5572
125.7788,23.3123
125.7788,23.3123
125.7788,23.3123
125.8763,23.0509
125.8763,23.0509
125.8763,23.0509
125.9356,22.7783
125.9555,22.5000
125.9555,22.5000
125.9395,22.2764
125.9356,22.2217
125.8763,21.9491
125.8763,21.9491
125.8763,21.9491
125.7788,21.6877
125.6451,21.4428
125.5822,21.3589
125.4779,21.2194
125.2806,21.0221
125.2510,21.0000
127.2950,21.0000
127.3151,21.3589
127.3151,21.3589
127.3753,21.7132
127.4748,22.0586
127.6124,22.3906
127.6124,22.3906
127.7862,22.7052
127.7862,22.7052
127.9942,22.9983
128.1002,23.1169
129.2355,21.9817
129.2796,22.0423
129.4577,22.2204
129.5183,22.2645
128.3831,23.3998
128.5017,23.5058
128.7948,23.7138
128.7948,23.7138
129.1094,23.8876
129.1094,23.8876
129.4414,24.0252
129.7868,24.1247
129.7868,24.1247
130.1411,24.1849
130.1411,24.1849
130.5000,24.2050
130.8589,24.1849
130.8589,24.1849
131.2132,24.1247
131.5586,24.0252
131.8906,23.8876
131.8906,23.8876
132.2052,23.7138
132.2052,23.7138
132.4983,23.5058
132.6169,23.3998
132.6169,23.3998
131.4817,22.2645
131.5423,22.2204
131.7204,22.0423
131.7645,21.9817
132.8998,23.1169
132.8998,23.1169
133.0058,22.9983
133.2138,22.7052
133.2138,22.7052
133.3876,22.3906
133.3876,22.3906
133.5252,22.0586
133.6247,21.7132
133.6849,21.3589
133.6849,21.3589
133.7050,21.0000
133.6849,20.6411
133.6849,20.6411
133.6247,20.2868
133.5252,19.9414
133.3876,19.6094
133.3876,19.6094
133.2138,19.2948
133.2138,19.2948
133.0058,19.0017
132.8998,18.8831
132.8998,18.8831
131.7645,20.0183
131.7204,19.9577
131.5423,19.7796
131.4817,19.7355
132.6169,18.6002
132.4983,18.4942
132.2052,18.2862
132.2052,18.2862
131.8906,18.1124
131.8906,18.1124
131.5586,17.9748
131.2132,17.8753
131.2132,17.8753
130.8589,17.8151
130.8589,17.8151
130.5000,17.7950
130.1411,17.8151
130.1411,17.8151
129.7868,17.8753
129.4414,17.9748
129.1094,18.1124
129.1094,18.1124
128.7948,18.2862
128.7948,18.2862
128.5017,18.4942
128.3831,18.6002
129.5183,19.7355
129.4577,19.7796
129.2796,19.9577
129.2355,20.0183
128.1002,18.8831
127.9942,19.0017
127.7862,19.2948
127.7862,19.2948
127.6124,19.6094
127.6124,19.6094
127.4748,19.9414
127.3753,20.2868
127.3151,20.6411
127.3151,20.6411
127.2950,21.0000
125.2510,21.0000
125.0828,20.8741
125.0572,20.8549
124.8123,20.7212
124.5509,20.6237
124.5509,20.6237
124.5509,20.6237
124.4960,20.6118
124.2783,20.5644
124.0000,20.5445
124.0000,20.5445
123.7217,20.5644
123.4491,20.6237
123.4491,20.6237
123.1877,20.7212
122.9428,20.8549
122.7194,21.0221
122.5221,21.2194
122.3549,21.4428
122.2212,21.6877
122.1438,21.8952
122.1052,21.9366
122.0486,21.9386
122.0072,21.9001
122.0005,21.8693
122.0005,20.9341
122.0005,20.9341
121.9937,20.9088
121.9664,20.8068
121.9005,20.6927
121.8073,20.5995
121.6932,20.5336
121.6932,20.5336
121.5659,20.4995
121.5659,20.4995
116.5659,20.4995
116.4341,20.4995
116.4341,20.4995
116.3068,20.5336
116.3068,20.5336
116.1927,20.5995
116.0995,20.6927
116.0336,20.8068
116.0336,20.8068
115.9995,20.9341
115.9995,21.8693
115.9778,21.9216
115.9255,21.9433
115.8732,21.9216
115.8562,21.8952
115.7788,21.6877
115.6451,21.4428
115.5822,21.3589
115.4779,21.2194
115.2806,21.0221
115.0828,20.8741
115.0572,20.8549
114.8123,20.7212
114.5509,20.6237
114.5509,20.6237
114.5509,20.6237
114.4960,20.6118
114.2783,20.5644
114.0000,20.5445
114.0000,20.5445
113.7217,20.5644
113.4491,20.6237
113.4491,20.6237
113.1877,20.7212
112.9775,20.8360
112.9212,20.8420
112.8897,20.8233
109.1932,17.1268
109.1715,17.0745
109.1932,17.0222
109.2455,17.0005
134.4255,17.0005
134.4778,17.0222
134.4995,17.0745
134.4995,60.4255
134.4778,60.4778
134.4255,60.4995
108.7455,60.4995
108.6932,60.4778
108.6715,60.4255
108.6932,60.3732
108.8581,60.2083
109.4459,59.6205
109.4459,59.6205
109.5205,59.5459
109.5732,59.4546
109.5866,59.4045
109.6005,59.3527
109.6005,59.2473
109.6005,59.2427
109.6005,59.2427
109.6005,20.6473
109.5946,20.6253
109.5732,20.5454
109.5550,20.5139
109.5205,20.4541
109.5205,20.4541
109.5205,20.4541
107.7459,18.6795
107.7459,18.6795
107.7459,18.6795
107.6546,18.6268
107.6546,18.6268
107.5527,18.5995
107.5527,18.5995
85.5388,18.5995
85.4865,18.5778
83.8779,16.9693
83.8562,16.9170
83.8779,16.8646
83.9230,16.8433
84.1059,16.8253
84.3040,16.7652
84.4864,16.6677
84.6464,16.5364
84.6583,16.5219
84.7082,16.4952
Z" /> 
<path style="fill:#4D7FC4; fill-opacity:1.0000; stroke:none;fill-rule:evenodd;"
d="M 85.7114,16.5511
85.8535,16.6677
86.0360,16.7652
86.2341,16.8253
86.4400,16.8456
86.6459,16.8253
86.8440,16.7652
87.0264,16.6677
87.1686,16.5511
87.2228,16.5346
87.2727,16.5613
87.2895,16.6083
87.2895,16.6322
87.2895,16.7377
87.3042,16.7927
87.3168,16.8396
87.3168,16.8396
87.3695,16.9309
87.3695,16.9309
87.3695,16.9309
87.6332,17.1946
87.7118,17.2732
87.7335,17.3255
87.7118,17.3778
87.6595,17.3995
86.1465,17.3995
86.0942,17.3778
85.6122,16.8958
85.5905,16.8435
85.5905,16.6083
85.6122,16.5559
85.6645,16.5343
Z" /> 
<path style="fill:#4D7FC4; fill-opacity:1.0000; stroke:none;fill-rule:evenodd;"
d="M 57.6303,16.8405
59.0145,16.8405
59.0668,16.8622
59.0885,16.9145
59.0668,16.9668
58.0558,17.9778
58.0035,17.9995
56.6355,17.9995
56.5832,17.9778
56.5615,17.9255
56.5832,17.8732
56.9768,17.4795
57.4205,17.0359
57.4732,16.9445
57.4897,16.8831
57.5242,16.8381
57.5756,16.8296
Z" /> 
<path style="fill:#4D7FC4; fill-opacity:1.0000; stroke:none;fill-rule:evenodd;"
d="M 60.2768,16.5165
60.2817,16.5219
60.2936,16.5364
60.4535,16.6677
60.6360,16.7652
60.8341,16.8253
61.0170,16.8433
61.0670,16.8700
61.0834,16.9242
61.0621,16.9693
59.4535,18.5778
59.4012,18.5995
58.7455,18.5995
58.6932,18.5778
58.6715,18.5255
58.6932,18.4732
59.0191,18.1473
60.0705,17.0959
60.1232,17.0046
60.1505,16.9027
60.1505,16.7973
60.1505,16.5689
60.1722,16.5165
60.2245,16.4949
Z" /> 
<path style="fill:#4D7FC4; fill-opacity:1.0000; stroke:none;fill-rule:evenodd;"
d="M 62.7561,16.4495
62.7763,16.4666
62.8205,16.5204
62.8321,16.5346
62.8336,16.5364
62.9935,16.6677
63.1760,16.7652
63.3741,16.8253
63.5570,16.8433
63.6070,16.8700
63.6234,16.9242
63.6021,16.9693
61.3935,19.1778
61.3412,19.1995
60.1433,19.1995
60.0910,19.1778
60.0693,19.1255
60.0910,19.0732
61.3490,17.8151
62.6105,16.5537
62.6449,16.4941
62.6550,16.4765
62.6999,16.4421
Z" /> 
<path style="fill:#4D7FC4; fill-opacity:1.0000; stroke:none;fill-rule:evenodd;"
d="M 65.2961,16.4495
65.3163,16.4666
65.3736,16.5364
65.3736,16.5364
65.5335,16.6677
65.7160,16.7652
65.9141,16.8253
66.1200,16.8456
66.3259,16.8253
66.5240,16.7652
66.7065,16.6677
66.8664,16.5364
66.8783,16.5219
66.9282,16.4952
66.9824,16.5117
67.0091,16.5616
67.0095,16.5689
67.0095,17.3935
66.9878,17.4458
64.5558,19.8778
64.5035,19.8995
61.9833,19.8995
61.9310,19.8778
61.9093,19.8255
61.9310,19.7732
62.4093,19.2948
65.0759,16.6282
65.0759,16.6282
65.1505,16.5537
65.1950,16.4765
65.2399,16.4421
Z" /> 
<path style="fill:#4D7FC4; fill-opacity:1.0000; stroke:none;fill-rule:evenodd;"
d="M 23.1068,18.2222
23.1285,18.2745
23.1068,18.3268
20.9001,20.5335
20.8530,20.5550
20.7217,20.5644
20.7217,20.5644
20.4491,20.6237
20.4491,20.6237
20.1877,20.7212
19.9428,20.8549
19.8509,20.9237
19.7960,20.9377
19.7473,20.9088
19.7333,20.8540
19.7542,20.8122
22.3442,18.2222
22.3965,18.2005
23.0545,18.2005
Z" /> 
<path style="fill:#4D7FC4; fill-opacity:1.0000; stroke:none;fill-rule:evenodd;"
d="M 74.6024,16.5117
74.6291,16.5616
74.6295,16.5689
74.6295,20.7091
74.6078,20.7614
74.5910,20.7740
74.4428,20.8549
74.2194,21.0221
74.0221,21.2194
73.8549,21.4428
73.8394,21.4712
73.7953,21.5067
73.7390,21.5006
73.7035,21.4565
73.7005,21.4357
73.7005,17.4973
73.6732,17.3954
73.6732,17.3954
73.6205,17.3041
73.6205,17.3041
73.6205,17.3041
73.1422,16.8258
73.1206,16.7735
73.1422,16.7212
73.1946,16.6995
73.2294,16.7082
73.3360,16.7652
73.5341,16.8253
73.7400,16.8456
73.9459,16.8253
74.1440,16.7652
74.3264,16.6677
74.4864,16.5364
74.4983,16.5219
74.5482,16.4952
Z" /> 
<path style="fill:#4D7FC4; fill-opacity:1.0000; stroke:none;fill-rule:evenodd;"
d="M 108.5558,17.6222
112.3233,21.3897
112.3450,21.4421
112.3360,21.4775
112.2606,21.6155
112.2165,21.6510
112.1602,21.6450
112.1247,21.6009
112.1242,21.5992
112.1232,21.5954
112.1232,21.5954
112.0755,21.5127
112.0755,21.5127
112.0755,21.5127
112.0705,21.5041
111.9959,21.4295
111.9933,21.4269
111.9933,21.4269
108.2932,17.7268
108.2715,17.6745
108.2932,17.6222
108.3455,17.6005
108.5035,17.6005
Z" /> 
<path style="fill:#4D7FC4; fill-opacity:1.0000; stroke:none;fill-rule:evenodd;"
d="M 69.5224,16.5117
69.5491,16.5616
69.5495,16.5689
69.5495,16.8973
69.5495,17.0027
69.5500,17.0046
69.5768,17.1046
69.5768,17.1046
69.6295,17.1959
69.6295,17.1959
69.6295,17.1959
70.7778,18.3442
70.7995,18.3965
70.7995,21.4357
70.7778,21.4880
70.7255,21.5097
70.6732,21.4880
70.6606,21.4712
70.6451,21.4428
70.5822,21.3589
70.4779,21.2194
70.2806,21.0221
70.0828,20.8741
70.0572,20.8549
69.8123,20.7212
69.5509,20.6237
69.5509,20.6237
69.5509,20.6237
69.4960,20.6118
69.2783,20.5644
69.0000,20.5445
69.0000,20.5445
68.7217,20.5644
68.4491,20.6237
68.4491,20.6237
68.1877,20.7212
67.9428,20.8549
67.7194,21.0221
67.5221,21.2194
67.3549,21.4428
67.2212,21.6877
67.1438,21.8952
67.1052,21.9366
67.0486,21.9386
67.0072,21.9001
67.0005,21.8693
67.0005,20.9341
67.0005,20.9341
66.9937,20.9088
66.9664,20.8068
66.9005,20.6927
66.8073,20.5995
66.6932,20.5336
66.6932,20.5336
66.5659,20.4995
66.5659,20.4995
65.2455,20.4995
65.1932,20.4778
65.1715,20.4255
65.1932,20.3732
65.5659,20.0005
67.6559,17.9105
67.6559,17.9105
67.7305,17.8359
67.7568,17.7903
67.7832,17.7446
67.8105,17.6427
67.8105,17.6427
67.8105,17.5327
67.8105,17.5327
67.8105,16.6083
67.8322,16.5559
67.8845,16.5343
67.9314,16.5511
68.0735,16.6677
68.2560,16.7652
68.4541,16.8253
68.6600,16.8456
68.8659,16.8253
69.0640,16.7652
69.2464,16.6677
69.4064,16.5364
69.4183,16.5219
69.4682,16.4952
Z" /> 
<path style="fill:#4D7FC4; fill-opacity:1.0000; stroke:none;fill-rule:evenodd;"
d="M 82.2678,16.4563
82.2850,16.4765
82.3295,16.5537
82.3295,16.5537
82.3295,16.5537
85.0218,19.2459
85.0218,19.2459
85.0963,19.3205
85.1876,19.3732
85.2895,19.4005
85.2895,19.4005
85.2895,19.4005
107.3035,19.4005
107.3558,19.4222
108.7778,20.8442
108.7995,20.8965
108.7995,21.4357
108.7778,21.4880
108.7255,21.5097
108.6732,21.4880
108.6606,21.4712
108.6451,21.4428
108.5822,21.3589
108.4779,21.2194
108.2806,21.0221
108.0828,20.8741
108.0572,20.8549
107.8123,20.7212
107.5509,20.6237
107.5509,20.6237
107.5509,20.6237
107.4960,20.6118
107.2783,20.5644
107.0000,20.5445
107.0000,20.5445
106.7217,20.5644
106.4491,20.6237
106.4491,20.6237
106.1877,20.7212
105.9428,20.8549
105.7194,21.0221
105.5221,21.2194
105.3549,21.4428
105.2212,21.6877
105.1438,21.8952
105.1052,21.9366
105.0486,21.9386
105.0072,21.9001
105.0005,21.8693
105.0005,20.9341
105.0005,20.9341
104.9937,20.9088
104.9664,20.8068
104.9005,20.6927
104.8073,20.5995
104.6932,20.5336
104.6932,20.5336
104.5659,20.4995
104.5659,20.4995
99.5659,20.4995
99.4341,20.4995
99.4341,20.4995
99.3068,20.5336
99.3068,20.5336
99.1927,20.5995
99.0995,20.6927
99.0336,20.8068
99.0336,20.8068
98.9995,20.9341
98.9995,21.8693
98.9778,21.9216
98.9255,21.9433
98.8732,21.9216
98.8562,21.8952
98.7788,21.6877
98.6451,21.4428
98.5822,21.3589
98.4779,21.2194
98.2806,21.0221
98.0828,20.8741
98.0572,20.8549
97.8123,20.7212
97.5509,20.6237
97.5509,20.6237
97.5509,20.6237
97.4960,20.6118
97.2783,20.5644
97.0000,20.5445
97.0000,20.5445
96.7217,20.5644
96.4491,20.6237
96.4491,20.6237
96.1877,20.7212
95.9775,20.8360
95.9212,20.8420
95.8897,20.8233
95.3532,20.2868
94.7459,19.6795
94.7459,19.6795
94.7459,19.6795
94.6546,19.6268
94.6546,19.6268
94.5896,19.6094
94.5527,19.5995
94.5527,19.5995
83.9988,19.5995
83.9465,19.5778
81.3379,16.9693
81.3162,16.9170
81.3379,16.8646
81.3830,16.8433
81.5659,16.8253
81.7640,16.7652
81.9464,16.6677
82.1064,16.5364
82.1637,16.4666
82.2136,16.4399
Z" /> 
<path style="fill:#4D7FC4; fill-opacity:1.0000; stroke:none;fill-rule:evenodd;"
d="M 60.9778,21.1932
60.9995,21.2455
60.9995,21.8693
60.9778,21.9216
60.9255,21.9433
60.8732,21.9216
60.8562,21.8952
60.7788,21.6877
60.7788,21.6877
60.6640,21.4775
60.6580,21.4212
60.6766,21.3897
60.8732,21.1932
60.9255,21.1715
Z" /> 
<path style="fill:#4D7FC4; fill-opacity:1.0000; stroke:none;fill-rule:evenodd;"
d="M 87.9778,3.0222
87.9995,3.0745
87.9995,14.0645
87.9778,14.1168
87.9255,14.1385
87.8732,14.1168
87.4455,13.6891
87.4238,13.6367
87.4270,13.6153
87.4753,13.4559
87.4956,13.2500
87.4753,13.0441
87.4152,12.8460
87.3177,12.6635
87.1864,12.5036
87.0264,12.3723
86.8440,12.2748
86.7322,12.2409
86.6459,12.2147
86.4400,12.1944
86.2341,12.2147
86.0360,12.2748
85.8535,12.3723
85.6936,12.5036
85.6936,12.5036
85.5623,12.6635
85.4648,12.8460
85.4047,13.0441
85.4047,13.0441
85.3844,13.2500
85.4047,13.4559
85.4648,13.6540
85.5623,13.8364
85.6936,13.9964
85.8535,14.1277
86.0360,14.2252
86.2341,14.2853
86.4400,14.3056
86.6459,14.2853
86.8053,14.2370
86.8616,14.2425
86.8791,14.2555
87.2678,14.6442
87.2895,14.6965
87.2895,14.9717
87.2678,15.0241
87.2155,15.0457
87.1686,15.0289
87.0264,14.9123
86.8440,14.8148
86.8440,14.8148
86.8440,14.8148
86.6774,14.7642
86.6459,14.7547
86.4400,14.7344
86.2341,14.7547
86.0360,14.8148
85.8535,14.9123
85.7114,15.0289
85.6572,15.0454
85.6073,15.0187
85.5905,14.9717
85.5905,14.4873
85.5905,14.4873
85.5632,14.3854
85.5105,14.2941
85.4359,14.2195
84.9055,13.6891
84.8838,13.6367
84.8870,13.6153
84.9353,13.4559
84.9556,13.2500
84.9353,13.0441
84.8752,12.8460
84.7777,12.6635
84.6464,12.5036
84.4864,12.3723
84.3040,12.2748
84.1922,12.2409
84.1059,12.2147
83.9000,12.1944
83.6941,12.2147
83.4960,12.2748
83.3135,12.3723
83.1536,12.5036
83.1536,12.5036
83.0223,12.6635
82.9248,12.8460
82.8647,13.0441
82.8647,13.0441
82.8444,13.2500
82.8647,13.4559
82.9248,13.6540
83.0223,13.8364
83.1536,13.9964
83.3135,14.1277
83.4960,14.2252
83.6941,14.2853
83.9000,14.3056
84.1059,14.2853
84.2653,14.2370
84.3216,14.2425
84.3391,14.2555
84.7678,14.6842
84.7895,14.7365
84.7895,15.0111
84.7678,15.0635
84.7155,15.0851
84.6632,15.0635
84.6583,15.0581
84.6464,15.0436
84.6464,15.0436
84.4864,14.9123
84.3040,14.8148
84.3040,14.8148
84.3040,14.8148
84.1374,14.7642
84.1059,14.7547
83.9000,14.7344
83.6941,14.7547
83.4960,14.8148
83.3135,14.9123
83.1714,15.0289
83.1172,15.0454
83.0673,15.0187
83.0505,14.9717
83.0505,14.4873
83.0505,14.4873
83.0232,14.3854
82.9705,14.2941
82.8959,14.2195
82.3655,13.6891
82.3438,13.6367
82.3470,13.6153
82.3953,13.4559
82.4156,13.2500
82.3953,13.0441
82.3352,12.8460
82.2377,12.6635
82.1064,12.5036
81.9464,12.3723
81.7640,12.2748
81.6522,12.2409
81.5659,12.2147
81.3600,12.1944
81.1541,12.2147
80.9560,12.2748
80.7735,12.3723
80.6136,12.5036
80.6136,12.5036
80.4823,12.6635
80.3848,12.8460
80.3247,13.0441
80.3247,13.0441
80.3044,13.2500
80.3247,13.4559
80.3848,13.6540
80.4823,13.8364
80.6136,13.9964
80.7736,14.1277
80.9560,14.2252
81.1541,14.2853
81.3600,14.3056
81.5659,14.2853
81.7253,14.2370
81.7816,14.2425
81.7991,14.2555
82.2278,14.6842
82.2495,14.7365
82.2495,15.0111
82.2278,15.0635
82.1755,15.0851
82.1232,15.0635
82.1183,15.0581
82.1064,15.0436
82.1064,15.0436
81.9464,14.9123
81.7640,14.8148
81.7640,14.8148
81.7640,14.8148
81.5974,14.7642
81.5659,14.7547
81.3600,14.7344
81.1541,14.7547
80.9560,14.8148
80.7735,14.9123
80.6136,15.0436
80.6136,15.0436
80.6017,15.0581
80.5518,15.0848
80.4976,15.0683
80.4709,15.0184
80.4705,15.0111
80.4705,14.4473
80.4705,14.4473
80.4678,14.4373
80.4432,14.3454
80.4085,14.2853
80.3905,14.2541
80.3905,14.2541
80.3905,14.2541
79.8255,13.6891
79.8038,13.6367
79.8070,13.6153
79.8553,13.4559
79.8756,13.2500
79.8553,13.0441
79.7952,12.8460
79.6977,12.6635
79.5664,12.5036
79.4064,12.3723
79.2240,12.2748
79.1122,12.2409
79.0259,12.2147
78.8200,12.1944
78.6141,12.2147
78.4160,12.2748
78.2335,12.3723
78.0736,12.5036
78.0736,12.5036
77.9423,12.6635
77.8448,12.8460
77.7847,13.0441
77.7847,13.0441
77.7644,13.2500
77.7847,13.4559
77.8448,13.6540
77.9423,13.8364
78.0736,13.9964
78.2335,14.1277
78.4160,14.2252
78.6141,14.2853
78.8200,14.3056
79.0259,14.2853
79.1853,14.2370
79.2416,14.2425
79.2591,14.2555
79.6478,14.6442
79.6695,14.6965
79.6695,14.9717
79.6478,15.0241
79.5955,15.0457
79.5486,15.0289
79.4064,14.9123
79.2240,14.8148
79.2240,14.8148
79.2240,14.8148
79.0574,14.7642
79.0259,14.7547
78.8200,14.7344
78.6141,14.7547
78.4160,14.8148
78.2335,14.9123
78.0736,15.0436
78.0736,15.0436
77.9423,15.2035
77.8448,15.3860
77.7847,15.5841
77.7644,15.7900
77.7847,15.9959
77.7961,16.0336
77.8444,16.1927
77.8448,16.1940
77.9423,16.3764
78.0721,16.5346
78.0736,16.5364
78.2335,16.6677
78.4160,16.7652
78.6141,16.8253
78.8200,16.8456
79.0259,16.8253
79.2240,16.7652
79.4064,16.6677
79.5664,16.5364
79.6138,16.4787
79.6637,16.4520
79.7179,16.4684
79.7351,16.4886
79.7495,16.5137
79.7495,16.5137
79.7495,16.5137
81.6324,18.3965
83.4792,20.2433
83.4792,20.2433
83.4818,20.2459
83.5563,20.3205
83.6122,20.3527
83.6476,20.3732
83.6476,20.3732
83.6476,20.3732
83.6947,20.3858
83.7495,20.4005
83.7495,20.4005
83.7495,20.4005
83.8595,20.4005
83.8595,20.4005
85.4417,20.4005
85.4940,20.4222
85.5004,20.4375
85.5099,20.4186
85.5583,20.4005
94.3035,20.4005
94.3558,20.4222
95.3233,21.3897
95.3450,21.4421
95.3360,21.4775
95.2212,21.6877
95.1237,21.9491
95.1237,21.9491
95.0648,22.2198
95.0325,22.2663
94.9768,22.2764
94.9303,22.2441
94.9284,22.2411
94.9005,22.1927
94.8073,22.0995
94.7083,22.0423
94.6932,22.0336
94.6932,22.0336
94.5659,21.9995
94.5659,21.9995
88.0659,21.9995
87.9341,21.9995
87.9341,21.9995
87.8068,22.0336
87.8068,22.0336
87.6927,22.0995
87.5995,22.1927
87.5716,22.2411
87.5266,22.2756
87.4705,22.2682
87.4360,22.2232
87.4352,22.2198
87.4293,22.1927
87.3763,21.9491
87.3763,21.9491
87.3763,21.9491
87.2788,21.6877
87.1451,21.4428
87.0822,21.3589
86.9779,21.2194
86.7806,21.0221
86.5828,20.8741
86.5572,20.8549
86.3123,20.7212
86.0509,20.6237
86.0509,20.6237
86.0509,20.6237
85.9960,20.6118
85.7783,20.5644
85.5530,20.5483
85.5024,20.5230
85.4994,20.5139
85.4940,20.5268
85.4470,20.5483
85.2217,20.5644
84.9491,20.6237
84.9491,20.6237
84.6877,20.7212
84.4428,20.8549
84.2194,21.0221
84.0221,21.2194
83.8549,21.4428
83.7212,21.6877
83.6438,21.8952
83.6052,21.9366
83.5486,21.9386
83.5072,21.9001
83.5005,21.8693
83.5005,20.9341
83.5005,20.9341
83.4937,20.9088
83.4664,20.8068
83.4005,20.6927
83.3073,20.5995
83.1932,20.5336
83.1932,20.5336
83.0659,20.4995
83.0659,20.4995
78.0659,20.4995
77.9341,20.4995
77.9341,20.4995
77.8068,20.5336
77.8068,20.5336
77.6927,20.5995
77.5995,20.6927
77.5336,20.8068
77.5336,20.8068
77.4995,20.9341
77.4995,21.8693
77.4778,21.9216
77.4255,21.9433
77.3732,21.9216
77.3562,21.8952
77.2788,21.6877
77.1451,21.4428
77.0822,21.3589
76.9779,21.2194
76.7806,21.0221
76.5828,20.8741
76.5572,20.8549
76.3123,20.7212
76.0509,20.6237
76.0509,20.6237
76.0509,20.6237
75.9395,20.5995
75.7783,20.5644
75.4992,20.5445
75.4486,20.5191
75.4305,20.4706
75.4305,16.6083
75.4522,16.5559
75.5045,16.5343
75.5514,16.5511
75.6936,16.6677
75.8760,16.7652
76.0741,16.8253
76.2800,16.8456
76.4859,16.8253
76.6840,16.7652
76.8665,16.6677
77.0264,16.5364
77.1577,16.3764
77.2552,16.1940
77.3153,15.9959
77.3356,15.7900
77.3153,15.5841
77.2552,15.3860
77.1577,15.2035
77.0264,15.0436
77.0186,15.0372
76.8665,14.9123
76.6840,14.8148
76.6840,14.8148
76.6840,14.8148
76.5174,14.7642
76.4859,14.7547
76.2800,14.7344
76.0741,14.7547
75.8760,14.8148
75.6935,14.9123
75.5514,15.0289
75.4972,15.0454
75.4473,15.0187
75.4305,14.9717
75.4305,14.6965
75.4522,14.6442
75.8409,14.2555
75.8933,14.2338
75.9147,14.2370
76.0741,14.2853
76.2800,14.3056
76.4859,14.2853
76.6840,14.2252
76.8665,14.1277
77.0264,13.9964
77.1577,13.8364
77.2552,13.6540
77.3153,13.4559
77.3356,13.2500
77.3153,13.0441
77.2552,12.8460
77.1577,12.6635
77.0264,12.5036
76.8665,12.3723
76.6840,12.2748
76.5722,12.2409
76.4859,12.2147
76.2800,12.1944
76.0741,12.2147
75.8760,12.2748
75.6935,12.3723
75.5336,12.5036
75.5336,12.5036
75.4023,12.6635
75.3048,12.8460
75.2447,13.0441
75.2244,13.2500
75.2447,13.4559
75.2930,13.6153
75.2875,13.6716
75.2745,13.6891
74.7095,14.2541
74.6568,14.3454
74.6568,14.3454
74.6568,14.3454
74.6322,14.4373
74.6295,14.4473
74.6295,14.4473
74.6295,15.0111
74.6078,15.0635
74.5555,15.0851
74.5032,15.0635
74.4983,15.0581
74.4864,15.0436
74.4864,15.0436
74.3264,14.9123
74.1440,14.8148
74.1440,14.8148
74.1440,14.8148
73.9774,14.7642
73.9459,14.7547
73.7400,14.7344
73.5341,14.7547
73.3360,14.8148
73.1535,14.9123
73.0214,15.0207
72.9672,15.0372
72.9173,15.0105
72.9005,14.9635
72.9005,14.6865
72.9222,14.6342
73.3009,14.2555
73.3533,14.2338
73.3747,14.2370
73.5341,14.2853
73.7400,14.3056
73.9459,14.2853
74.1440,14.2252
74.3264,14.1277
74.4864,13.9964
74.6177,13.8364
74.7152,13.6540
74.7753,13.4559
74.7956,13.2500
74.7753,13.0441
74.7152,12.8460
74.6177,12.6635
74.4864,12.5036
74.3264,12.3723
74.1440,12.2748
74.0322,12.2409
73.9459,12.2147
73.7400,12.1944
73.5341,12.2147
73.3360,12.2748
73.1535,12.3723
72.9936,12.5036
72.9936,12.5036
72.8623,12.6635
72.7648,12.8460
72.7047,13.0441
72.6844,13.2500
72.7047,13.4559
72.7530,13.6153
72.7475,13.6716
72.7345,13.6891
72.1795,14.2441
72.1268,14.3354
72.1268,14.3354
72.1134,14.3854
72.1134,14.3854
72.0995,14.4373
72.0995,14.9102
72.0970,14.9294
72.0895,14.9573
72.0895,15.0111
72.0678,15.0635
72.0155,15.0851
71.9632,15.0635
71.9583,15.0581
71.9464,15.0436
71.9464,15.0436
71.7865,14.9123
71.6040,14.8148
71.6040,14.8148
71.6040,14.8148
71.4374,14.7642
71.4059,14.7547
71.2000,14.7344
70.9941,14.7547
70.7960,14.8148
70.6135,14.9123
70.4714,15.0289
70.4172,15.0454
70.3673,15.0187
70.3505,14.9717
70.3505,14.6965
70.3722,14.6442
70.7609,14.2555
70.8133,14.2338
70.8347,14.2370
70.9941,14.2853
71.2000,14.3056
71.4059,14.2853
71.6040,14.2252
71.7865,14.1277
71.9464,13.9964
72.0777,13.8364
72.1752,13.6540
72.2353,13.4559
72.2556,13.2500
72.2353,13.0441
72.1752,12.8460
72.0777,12.6635
71.9464,12.5036
71.7865,12.3723
71.6040,12.2748
71.4922,12.2409
71.4059,12.2147
71.2000,12.1944
70.9941,12.2147
70.7960,12.2748
70.6135,12.3723
70.4536,12.5036
70.4536,12.5036
70.3223,12.6635
70.2248,12.8460
70.1647,13.0441
70.1444,13.2500
70.1647,13.4559
70.2130,13.6153
70.2075,13.6716
70.1945,13.6891
69.6295,14.2541
69.5768,14.3454
69.5768,14.3454
69.5768,14.3454
69.5522,14.4373
69.5495,14.4473
69.5495,14.4473
69.5495,15.0111
69.5278,15.0635
69.4755,15.0851
69.4232,15.0635
69.4183,15.0581
69.4064,15.0436
69.4064,15.0436
69.2464,14.9123
69.0640,14.8148
69.0640,14.8148
69.0640,14.8148
68.8974,14.7642
68.8659,14.7547
68.6600,14.7344
68.4541,14.7547
68.2560,14.8148
68.0735,14.9123
67.9314,15.0289
67.8772,15.0454
67.8273,15.0187
67.8105,14.9717
67.8105,14.6965
67.8322,14.6442
68.2209,14.2555
68.2733,14.2338
68.2947,14.2370
68.4541,14.2853
68.6600,14.3056
68.8659,14.2853
69.0640,14.2252
69.2464,14.1277
69.4064,13.9964
69.5377,13.8364
69.6352,13.6540
69.6953,13.4559
69.7156,13.2500
69.6953,13.0441
69.6352,12.8460
69.5377,12.6635
69.4064,12.5036
69.2464,12.3723
69.0640,12.2748
68.9522,12.2409
68.8659,12.2147
68.6600,12.1944
68.4541,12.2147
68.2560,12.2748
68.0735,12.3723
67.9136,12.5036
67.9136,12.5036
67.7823,12.6635
67.6848,12.8460
67.6247,13.0441
67.6044,13.2500
67.6247,13.4559
67.6730,13.6153
67.6675,13.6716
67.6545,13.6891
67.0895,14.2541
67.0368,14.3454
67.0368,14.3454
67.0368,14.3454
67.0122,14.4373
67.0095,14.4473
67.0095,14.4473
67.0095,15.0111
66.9878,15.0635
66.9355,15.0851
66.8832,15.0635
66.8783,15.0581
66.8664,15.0436
66.8664,15.0436
66.7065,14.9123
66.5240,14.8148
66.5240,14.8148
66.5240,14.8148
66.3574,14.7642
66.3259,14.7547
66.1200,14.7344
65.9141,14.7547
65.7160,14.8148
65.5335,14.9123
65.3736,15.0436
65.3736,15.0436
65.3617,15.0581
65.3118,15.0848
65.2576,15.0683
65.2309,15.0184
65.2305,15.0111
65.2305,14.7365
65.2522,14.6842
65.6809,14.2555
65.7333,14.2338
65.7547,14.2370
65.9141,14.2853
66.1200,14.3056
66.3259,14.2853
66.5240,14.2252
66.7065,14.1277
66.8664,13.9964
66.9977,13.8364
67.0952,13.6540
67.1553,13.4559
67.1756,13.2500
67.1553,13.0441
67.0952,12.8460
66.9977,12.6635
66.8664,12.5036
66.7065,12.3723
66.5240,12.2748
66.4122,12.2409
66.3259,12.2147
66.1200,12.1944
65.9141,12.2147
65.7160,12.2748
65.5335,12.3723
65.3736,12.5036
65.3736,12.5036
65.2423,12.6635
65.1448,12.8460
65.0847,13.0441
65.0644,13.2500
65.0847,13.4559
65.1330,13.6153
65.1275,13.6716
65.1145,13.6891
64.5095,14.2941
64.4568,14.3854
64.4568,14.3854
64.4295,14.4873
64.4295,14.9717
64.4078,15.0241
64.3555,15.0457
64.3086,15.0289
64.1664,14.9123
63.9840,14.8148
63.9840,14.8148
63.9840,14.8148
63.8174,14.7642
63.7859,14.7547
63.5800,14.7344
63.3741,14.7547
63.1760,14.8148
62.9935,14.9123
62.8336,15.0436
62.8336,15.0436
62.8217,15.0581
62.7718,15.0848
62.7176,15.0683
62.6909,15.0184
62.6905,15.0111
62.6905,14.7365
62.7122,14.6842
63.1409,14.2555
63.1933,14.2338
63.2147,14.2370
63.3741,14.2853
63.5800,14.3056
63.7859,14.2853
63.9840,14.2252
64.1664,14.1277
64.3264,13.9964
64.4577,13.8364
64.5552,13.6540
64.6153,13.4559
64.6356,13.2500
64.6153,13.0441
64.5552,12.8460
64.4577,12.6635
64.3264,12.5036
64.1664,12.3723
63.9840,12.2748
63.8722,12.2409
63.7859,12.2147
63.5800,12.1944
63.3741,12.2147
63.1760,12.2748
62.9935,12.3723
62.8336,12.5036
62.8336,12.5036
62.7023,12.6635
62.6048,12.8460
62.5447,13.0441
62.5244,13.2500
62.5447,13.4559
62.5930,13.6153
62.5875,13.6716
62.5745,13.6891
61.9695,14.2941
61.9168,14.3854
61.9168,14.3854
61.8895,14.4873
61.8895,14.9717
61.8678,15.0241
61.8155,15.0457
61.7686,15.0289
61.6264,14.9123
61.4440,14.8148
61.4440,14.8148
61.4440,14.8148
61.2774,14.7642
61.2459,14.7547
61.0400,14.7344
60.8341,14.7547
60.6360,14.8148
60.4535,14.9123
60.2936,15.0436
60.2936,15.0436
60.2817,15.0581
60.2318,15.0848
60.1776,15.0683
60.1509,15.0184
60.1505,15.0111
60.1505,14.7365
60.1722,14.6842
60.6009,14.2555
60.6533,14.2338
60.6747,14.2370
60.8341,14.2853
61.0400,14.3056
61.2459,14.2853
61.4440,14.2252
61.6264,14.1277
61.7864,13.9964
61.9177,13.8364
62.0152,13.6540
62.0753,13.4559
62.0956,13.2500
62.0753,13.0441
62.0152,12.8460
61.9177,12.6635
61.7864,12.5036
61.6264,12.3723
61.4440,12.2748
61.3322,12.2409
61.2459,12.2147
61.0400,12.1944
60.8341,12.2147
60.6360,12.2748
60.4535,12.3723
60.2936,12.5036
60.2936,12.5036
60.1623,12.6635
60.0648,12.8460
60.0047,13.0441
59.9844,13.2500
60.0047,13.4559
60.0530,13.6153
60.0475,13.6716
60.0345,13.6891
59.4295,14.2941
59.3768,14.3854
59.3768,14.3854
59.3495,14.4873
59.3495,14.6655
59.3278,14.7178
59.2755,14.7395
57.7555,14.7395
57.7032,14.7178
57.6815,14.6655
57.7032,14.6132
57.8791,14.4373
58.0609,14.2555
58.1133,14.2338
58.1347,14.2370
58.2941,14.2853
58.5000,14.3056
58.7059,14.2853
58.9040,14.2252
59.0864,14.1277
59.2464,13.9964
59.3777,13.8364
59.4752,13.6540
59.5353,13.4559
59.5556,13.2500
59.5353,13.0441
59.4752,12.8460
59.3777,12.6635
59.2464,12.5036
59.0864,12.3723
58.9040,12.2748
58.7922,12.2409
58.7059,12.2147
58.5000,12.1944
58.2941,12.2147
58.0960,12.2748
57.9135,12.3723
57.7536,12.5036
57.7536,12.5036
57.6223,12.6635
57.5248,12.8460
57.4647,13.0441
57.4444,13.2500
57.4647,13.4559
57.5130,13.6153
57.5075,13.6716
57.4945,13.6891
57.0268,14.1568
56.9745,14.1785
56.9222,14.1568
56.9005,14.1045
56.9005,3.0745
56.9222,3.0222
56.9745,3.0005
87.9255,3.0005
Z" /> 
<path style="fill:#4D7FC4; fill-opacity:1.0000; stroke:none;fill-rule:evenodd;"
d="M 60.8068,20.0222
60.8285,20.0745
60.8068,20.1268
60.1103,20.8233
60.0579,20.8450
60.0225,20.8360
59.8123,20.7212
59.8123,20.7212
59.5509,20.6237
59.5509,20.6237
59.5509,20.6237
59.4960,20.6118
59.2783,20.5644
59.0000,20.5445
59.0000,20.5445
58.7217,20.5644
58.4491,20.6237
58.4491,20.6237
58.1877,20.7212
57.9428,20.8549
57.7194,21.0221
57.5221,21.2194
57.3549,21.4428
57.2212,21.6877
57.1237,21.9491
57.1237,21.9491
57.0648,22.2198
57.0325,22.2663
56.9768,22.2764
56.9303,22.2441
56.9284,22.2411
56.9005,22.1927
56.8073,22.0995
56.7083,22.0423
56.6932,22.0336
56.6932,22.0336
56.5659,21.9995
56.5659,21.9995
50.0659,21.9995
49.9341,21.9995
49.9341,21.9995
49.8068,22.0336
49.8068,22.0336
49.6927,22.0995
49.5995,22.1927
49.5716,22.2411
49.5266,22.2756
49.4705,22.2682
49.4360,22.2232
49.4352,22.2198
49.4293,22.1927
49.3763,21.9491
49.3763,21.9491
49.3763,21.9491
49.2788,21.6877
49.1451,21.4428
49.0822,21.3589
48.9779,21.2194
48.7806,21.0221
48.5828,20.8741
48.5572,20.8549
48.3123,20.7212
48.0509,20.6237
48.0509,20.6237
48.0509,20.6237
47.9960,20.6118
47.7783,20.5644
47.5000,20.5445
47.5000,20.5445
47.2217,20.5644
46.9491,20.6237
46.9491,20.6237
46.6877,20.7212
46.4428,20.8549
46.2194,21.0221
46.0221,21.2194
45.8549,21.4428
45.7212,21.6877
45.6438,21.8952
45.6052,21.9366
45.5486,21.9386
45.5072,21.9001
45.5005,21.8693
45.5005,20.9341
45.5005,20.9341
45.4937,20.9088
45.4664,20.8068
45.4005,20.6927
45.3073,20.5995
45.1932,20.5336
45.1932,20.5336
45.0659,20.4995
45.0659,20.4995
40.0659,20.4995
39.9341,20.4995
39.9341,20.4995
39.8068,20.5336
39.8068,20.5336
39.6927,20.5995
39.5995,20.6927
39.5336,20.8068
39.5336,20.8068
39.4995,20.9341
39.4995,21.8693
39.4778,21.9216
39.4255,21.9433
39.3732,21.9216
39.3562,21.8952
39.2788,21.6877
39.1451,21.4428
39.0822,21.3589
38.9779,21.2194
38.7806,21.0221
38.5828,20.8741
38.5572,20.8549
38.4203,20.7802
38.3848,20.7361
38.3908,20.6798
38.4035,20.6629
39.0442,20.0222
39.0965,20.0005
60.7545,20.0005
Z" /> 
<path style="fill:#4D7FC4; fill-opacity:1.0000; stroke:none;fill-rule:evenodd;"
d="M 73.8268,23.5120
73.8394,23.5288
73.8549,23.5572
74.0221,23.7806
74.2194,23.9779
74.3643,24.0863
74.4428,24.1451
74.6877,24.2788
74.8952,24.3562
74.9366,24.3948
74.9386,24.4514
74.9001,24.4928
74.8693,24.4995
73.9341,24.4995
73.8068,24.5336
73.8028,24.5353
73.7462,24.5353
73.7061,24.4952
73.7005,24.4669
73.7005,23.5643
73.7222,23.5120
73.7745,23.4903
Z" /> 
<path style="fill:#4D7FC4; fill-opacity:1.0000; stroke:none;fill-rule:evenodd;"
d="M 19.3268,23.5120
19.3394,23.5288
19.3549,23.5572
19.5221,23.7806
19.7194,23.9779
19.8643,24.0863
19.9428,24.1451
20.1877,24.2788
20.3952,24.3562
20.4366,24.3948
20.4386,24.4514
20.4001,24.4928
20.3693,24.4995
19.4341,24.4995
19.3068,24.5336
19.3028,24.5353
19.2462,24.5353
19.2061,24.4952
19.2005,24.4669
19.2005,23.5643
19.2222,23.5120
19.2745,23.4903
Z" /> 
<path style="fill:#4D7FC4; fill-opacity:1.0000; stroke:none;fill-rule:evenodd;"
d="M 108.7610,23.4993
108.7965,23.5434
108.7995,23.5643
108.7995,24.4669
108.7778,24.5192
108.7255,24.5409
108.6972,24.5353
108.6932,24.5336
108.5659,24.4995
108.5659,24.4995
107.6307,24.4995
107.5784,24.4778
107.5567,24.4255
107.5784,24.3732
107.6048,24.3562
107.8123,24.2788
107.8851,24.2390
108.0572,24.1451
108.2806,23.9779
108.4779,23.7806
108.6451,23.5572
108.6606,23.5288
108.7047,23.4933
Z" /> 
<path style="fill:#4D7FC4; fill-opacity:1.0000; stroke:none;fill-rule:evenodd;"
d="M 70.7610,23.4993
70.7965,23.5434
70.7995,23.5643
70.7995,24.4669
70.7778,24.5192
70.7255,24.5409
70.6972,24.5353
70.6932,24.5336
70.5659,24.4995
70.5659,24.4995
69.6307,24.4995
69.5784,24.4778
69.5567,24.4255
69.5784,24.3732
69.6048,24.3562
69.8123,24.2788
69.8851,24.2390
70.0572,24.1451
70.2806,23.9779
70.4779,23.7806
70.6451,23.5572
70.6606,23.5288
70.7047,23.4933
Z" /> 
<path style="fill:#4D7FC4; fill-opacity:1.0000; stroke:none;fill-rule:evenodd;"
d="M 112.2768,23.4204
112.2894,23.4373
112.3549,23.5572
112.3549,23.5572
112.5221,23.7806
112.7194,23.9779
112.8643,24.0863
112.9428,24.1451
113.1877,24.2788
113.3952,24.3562
113.4366,24.3948
113.4386,24.4514
113.4001,24.4928
113.3693,24.4995
112.4341,24.4995
112.3068,24.5336
112.3068,24.5336
112.2615,24.5598
112.2053,24.5672
112.1604,24.5327
112.1505,24.4957
112.1505,23.4727
112.1722,23.4204
112.2245,23.3987
Z" /> 
<path style="fill:#4D7FC4; fill-opacity:1.0000; stroke:none;fill-rule:evenodd;"
d="M 74.9216,56.0222
74.9433,56.0745
74.9216,56.1268
74.8952,56.1438
74.6877,56.2212
74.4775,56.3360
74.4212,56.3420
74.3897,56.3233
74.1932,56.1268
74.1715,56.0745
74.1932,56.0222
74.2455,56.0005
74.8693,56.0005
Z" /> 
<path style="fill:#4D7FC4; fill-opacity:1.0000; stroke:none;fill-rule:evenodd;"
d="M 20.4216,56.0222
20.4433,56.0745
20.4216,56.1268
20.3952,56.1438
20.1877,56.2212
19.9775,56.3360
19.9212,56.3420
19.8897,56.3233
19.6932,56.1268
19.6715,56.0745
19.6932,56.0222
19.7455,56.0005
20.3693,56.0005
Z" /> 
<path style="fill:#4D7FC4; fill-opacity:1.0000; stroke:none;fill-rule:evenodd;"
d="M 108.7939,56.0048
108.7995,56.0331
108.7995,56.9357
108.7778,56.9880
108.7255,57.0097
108.6732,56.9880
108.6606,56.9712
108.6451,56.9428
108.5822,56.8589
108.4779,56.7194
108.2806,56.5221
108.0695,56.3641
108.0572,56.3549
107.8123,56.2212
107.6048,56.1438
107.5634,56.1052
107.5614,56.0486
107.5999,56.0072
107.6307,56.0005
108.5659,56.0005
108.5659,56.0005
108.6932,55.9664
108.6932,55.9664
108.6972,55.9647
108.7538,55.9647
Z" /> 
<path style="fill:#4D7FC4; fill-opacity:1.0000; stroke:none;fill-rule:evenodd;"
d="M 70.7939,56.0048
70.7995,56.0331
70.7995,56.9357
70.7778,56.9880
70.7255,57.0097
70.6732,56.9880
70.6606,56.9712
70.6451,56.9428
70.5822,56.8589
70.4779,56.7194
70.2806,56.5221
70.0695,56.3641
70.0572,56.3549
69.8123,56.2212
69.6048,56.1438
69.5634,56.1052
69.5614,56.0486
69.5999,56.0072
69.6307,56.0005
70.5659,56.0005
70.5659,56.0005
70.6932,55.9664
70.6932,55.9664
70.6972,55.9647
70.7538,55.9647
Z" /> 
<path style="fill:#4D7FC4; fill-opacity:1.0000; stroke:none;fill-rule:evenodd;"
d="M 112.2615,55.9402
112.3068,55.9664
112.4341,56.0005
112.4341,56.0005
112.4341,56.0005
112.5659,56.0005
113.3693,56.0005
113.4216,56.0222
113.4433,56.0745
113.4216,56.1268
113.3952,56.1438
113.1877,56.2212
112.9428,56.3549
112.7194,56.5221
112.5221,56.7194
112.3549,56.9428
112.2894,57.0627
112.2453,57.0983
112.1890,57.0922
112.1535,57.0481
112.1505,57.0273
112.1505,56.0043
112.1722,55.9520
112.2245,55.9303
Z" /> 
<path style="fill:#4D7FC4; fill-opacity:1.0000; stroke:none;fill-rule:evenodd;"
d="M 38.4068,19.4222
38.4285,19.4745
38.4068,19.5268
37.4001,20.5335
37.3530,20.5550
37.2217,20.5644
37.2217,20.5644
36.9491,20.6237
36.9491,20.6237
36.6877,20.7212
36.4428,20.8549
36.2194,21.0221
36.0221,21.2194
35.8549,21.4428
35.7212,21.6877
35.6237,21.9491
35.6237,21.9491
35.5644,22.2217
35.5445,22.5000
35.5445,22.5000
35.5644,22.7783
35.6237,23.0509
35.6237,23.0509
35.7212,23.3123
35.8549,23.5572
35.9244,23.6501
36.0221,23.7806
36.2194,23.9779
36.3643,24.0863
36.4428,24.1451
36.6877,24.2788
36.8952,24.3562
36.9366,24.3948
36.9386,24.4514
36.9001,24.4928
36.8693,24.4995
35.9341,24.4995
35.8068,24.5336
35.8068,24.5336
35.6927,24.5995
35.5995,24.6927
35.5336,24.8068
35.5336,24.8068
35.4995,24.9341
35.4995,39.0669
35.5000,39.0745
35.5000,41.4189
35.4998,41.4242
35.4944,41.5000
35.4944,41.5000
35.4998,41.5758
35.5000,41.5811
35.5000,43.9255
35.4995,43.9331
35.4995,55.5659
35.5336,55.6932
35.5336,55.6932
35.5336,55.6932
35.5995,55.8073
35.6927,55.9005
35.8068,55.9664
35.9341,56.0005
35.9341,56.0005
35.9341,56.0005
36.8693,56.0005
36.9216,56.0222
36.9433,56.0745
36.9216,56.1268
36.8952,56.1438
36.6877,56.2212
36.4428,56.3549
36.2194,56.5221
36.0221,56.7194
35.8549,56.9428
35.7802,57.0797
35.7361,57.1152
35.6798,57.1092
35.6629,57.0965
34.6722,56.1058
34.6505,56.0535
34.6505,21.6965
34.6722,21.6442
36.8942,19.4222
36.9465,19.4005
38.3545,19.4005
Z" /> 
<path style="fill:#4D7FC4; fill-opacity:1.0000; stroke:none;fill-rule:evenodd;"
d="M 108.2527,59.5912
108.2667,59.6460
108.2458,59.6878
108.0558,59.8778
108.0035,59.8995
107.8812,59.8995
107.8288,59.8778
107.8072,59.8255
107.8288,59.7732
107.8457,59.7606
108.0572,59.6451
108.0572,59.6451
108.0572,59.6451
108.1491,59.5763
108.2040,59.5623
Z" /> 
<path style="fill:#4D7FC4; fill-opacity:1.0000; stroke:none;fill-rule:evenodd;"
d="M 105.1268,58.5784
105.1438,58.6048
105.2212,58.8123
105.3549,59.0572
105.3614,59.0659
105.5221,59.2806
105.7194,59.4779
105.8708,59.5912
105.9428,59.6451
106.1543,59.7606
106.1898,59.8047
106.1838,59.8610
106.1397,59.8965
106.1188,59.8995
97.9965,59.8995
97.9442,59.8778
97.9035,59.8371
97.8818,59.7847
97.9035,59.7324
97.9203,59.7198
97.9474,59.7050
98.0572,59.6451
98.2806,59.4779
98.4779,59.2806
98.6451,59.0572
98.7788,58.8123
98.7788,58.8123
98.7788,58.8123
98.8562,58.6048
98.8948,58.5634
98.9514,58.5614
98.9928,58.5999
98.9995,58.6307
98.9995,59.0659
99.0336,59.1932
99.0336,59.1932
99.0691,59.2546
99.0995,59.3073
99.1927,59.4005
99.3068,59.4664
99.4341,59.5005
99.4341,59.5005
99.4341,59.5005
104.5659,59.5005
104.5659,59.5005
104.6932,59.4664
104.8073,59.4005
104.9005,59.3073
104.9664,59.1932
105.0005,59.0659
105.0005,59.0659
105.0005,58.6307
105.0222,58.5784
105.0745,58.5567
Z" /> 
<path style="fill:#4D7FC4; fill-opacity:1.0000; stroke:none;fill-rule:evenodd;"
d="M 67.1268,58.5784
67.1438,58.6048
67.2212,58.8123
67.3549,59.0572
67.3614,59.0659
67.5221,59.2806
67.7194,59.4779
67.8708,59.5912
67.9428,59.6451
68.1543,59.7606
68.1898,59.8047
68.1838,59.8610
68.1397,59.8965
68.1188,59.8995
59.9965,59.8995
59.9442,59.8778
59.9035,59.8371
59.8818,59.7847
59.9035,59.7324
59.9203,59.7198
59.9474,59.7050
60.0572,59.6451
60.2806,59.4779
60.4779,59.2806
60.6451,59.0572
60.7788,58.8123
60.7788,58.8123
60.7788,58.8123
60.8562,58.6048
60.8948,58.5634
60.9514,58.5614
60.9928,58.5999
60.9995,58.6307
60.9995,59.0659
61.0336,59.1932
61.0336,59.1932
61.0691,59.2546
61.0995,59.3073
61.1927,59.4005
61.3068,59.4664
61.4341,59.5005
61.4341,59.5005
61.4341,59.5005
66.5659,59.5005
66.5659,59.5005
66.6932,59.4664
66.8073,59.4005
66.9005,59.3073
66.9664,59.1932
67.0005,59.0659
67.0005,59.0659
67.0005,58.6307
67.0222,58.5784
67.0745,58.5567
Z" /> 
<path style="fill:#4D7FC4; fill-opacity:1.0000; stroke:none;fill-rule:evenodd;"
d="M 72.0624,16.5117
72.0891,16.5616
72.0895,16.5689
72.0895,16.6873
72.0895,16.7927
72.1081,16.8622
72.1168,16.8946
72.1168,16.8946
72.1695,16.9859
72.1695,16.9859
72.1695,16.9859
72.8778,17.6942
72.8995,17.7465
72.8995,55.7473
72.8995,55.8527
72.9135,55.9050
72.9268,55.9546
72.9268,55.9546
72.9795,56.0459
72.9795,56.0459
72.9795,56.0459
73.4295,56.4959
73.8233,56.8897
73.8450,56.9421
73.8360,56.9775
73.7212,57.1877
73.6237,57.4491
73.6237,57.4491
73.5644,57.7217
73.5445,58.0000
73.5445,58.0000
73.5644,58.2783
73.6237,58.5509
73.6237,58.5509
73.7212,58.8123
73.8549,59.0572
73.8614,59.0659
74.0221,59.2806
74.2194,59.4779
74.3708,59.5912
74.4428,59.6451
74.6877,59.7788
74.9491,59.8763
74.9491,59.8763
74.9491,59.8763
75.2217,59.9356
75.2835,59.9400
75.5000,59.9555
75.5000,59.9555
75.5000,59.9555
75.6948,59.9415
75.7783,59.9356
76.0509,59.8763
76.0509,59.8763
76.0509,59.8763
76.3123,59.7788
76.3336,59.7672
76.5572,59.6451
76.7806,59.4779
76.9779,59.2806
77.1451,59.0572
77.2788,58.8123
77.2788,58.8123
77.2788,58.8123
77.3562,58.6048
77.3948,58.5634
77.4514,58.5614
77.4928,58.5999
77.4995,58.6307
77.4995,59.0659
77.5336,59.1932
77.5336,59.1932
77.5691,59.2546
77.5995,59.3073
77.6927,59.4005
77.8068,59.4664
77.9341,59.5005
77.9341,59.5005
77.9341,59.5005
83.0659,59.5005
83.0659,59.5005
83.1932,59.4664
83.3073,59.4005
83.4005,59.3073
83.4664,59.1932
83.5005,59.0659
83.5005,59.0659
83.5005,58.6307
83.5222,58.5784
83.5745,58.5567
83.6268,58.5784
83.6438,58.6048
83.7212,58.8123
83.8549,59.0572
83.8614,59.0659
84.0221,59.2806
84.2194,59.4779
84.3708,59.5912
84.4428,59.6451
84.6877,59.7788
84.9491,59.8763
84.9491,59.8763
84.9491,59.8763
85.2217,59.9356
85.2835,59.9400
85.5000,59.9555
85.5000,59.9555
85.5000,59.9555
85.6948,59.9415
85.7783,59.9356
86.0509,59.8763
86.0509,59.8763
86.0509,59.8763
86.3123,59.7788
86.3336,59.7672
86.5572,59.6451
86.7806,59.4779
86.9779,59.2806
87.1451,59.0572
87.2788,58.8123
87.2788,58.8123
87.2788,58.8123
87.3763,58.5509
87.3763,58.5509
87.3763,58.5509
87.4352,58.2802
87.4675,58.2337
87.5232,58.2236
87.5697,58.2559
87.5716,58.2589
87.5827,58.2783
87.5995,58.3073
87.6927,58.4005
87.8068,58.4664
87.9341,58.5005
87.9341,58.5005
87.9341,58.5005
94.5659,58.5005
94.5659,58.5005
94.6932,58.4664
94.8073,58.4005
94.9005,58.3073
94.9284,58.2589
94.9734,58.2244
95.0295,58.2318
95.0640,58.2768
95.0648,58.2802
95.1237,58.5509
95.1237,58.5509
95.2212,58.8123
95.3549,59.0572
95.3614,59.0659
95.5221,59.2806
95.7194,59.4779
95.8708,59.5912
95.9428,59.6451
96.1877,59.7788
96.4491,59.8763
96.4491,59.8763
96.4491,59.8763
96.7217,59.9356
96.8530,59.9450
96.9001,59.9665
97.3068,60.3732
97.3285,60.4255
97.3068,60.4778
97.2545,60.4995
70.5455,60.4995
70.4932,60.4778
70.4715,60.4255
70.4932,60.3732
71.5205,59.3459
71.5732,59.2546
71.6005,59.1527
71.6005,59.0473
71.6005,18.1473
71.5732,18.0454
71.5732,18.0454
71.5205,17.9541
71.5205,17.9541
71.5205,17.9541
70.3722,16.8058
70.3505,16.7535
70.3505,16.6083
70.3722,16.5559
70.4245,16.5343
70.4714,16.5511
70.6136,16.6677
70.7960,16.7652
70.9941,16.8253
71.2000,16.8456
71.4059,16.8253
71.6040,16.7652
71.7865,16.6677
71.9464,16.5364
71.9583,16.5219
72.0082,16.4952
Z" /> 
</g>
<g style="fill:#FFFFFF; fill-opacity:1.0000; stroke:none;">
<circle cx="114.0000" cy="22.5000" r="1.2650" /> 
</g>
<g style="fill:#FFFFFF; fill-opacity:1.0000; stroke:none;">
<circle cx="47.5000" cy="22.5000" r="1.2650" /> 
</g>
<g style="fill:#FFFFFF; fill-opacity:1.0000; stroke:none;">
<circle cx="37.5000" cy="22.5000" r="1.2650" /> 
</g>
<g style="fill:#FFFFFF; fill-opacity:1.0000; stroke:none;">
<circle cx="21.0000" cy="22.5000" r="1.2650" /> 
</g>
<g style="fill:#FFFFFF; fill-opacity:1.0000; stroke:none;">
<circle cx="75.5000" cy="22.5000" r="1.2650" /> 
</g>
<g style="fill:#FFFFFF; fill-opacity:1.0000; stroke:none;">
<circle cx="69.0000" cy="22.5000" r="1.2650" /> 
</g>
<g style="fill:#FFFFFF; fill-opacity:1.0000; stroke:none;">
<circle cx="59.0000" cy="58.0000" r="1.2650" /> 
</g>
<g style="fill:#FFFFFF; fill-opacity:1.0000; stroke:none;">
<circle cx="47.5000" cy="58.0000" r="1.2650" /> 
</g>
<g style="fill:#FFFFFF; fill-opacity:1.0000; stroke:none;">
<circle cx="11.5000" cy="21.0000" r="1.6000" /> 
</g>
<g style="fill:#FFFFFF; fill-opacity:1.0000; stroke:none;">
<circle cx="11.5000" cy="56.5000" r="1.6000" /> 
</g>
<g style="fill:#FFFFFF; fill-opacity:1.0000; stroke:none;">
<circle cx="107.0000" cy="58.0000" r="1.2650" /> 
</g>
<g style="fill:#FFFFFF; fill-opacity:1.0000; stroke:none;">
<circle cx="130.5000" cy="56.5000" r="1.6000" /> 
</g>
<g style="fill:#FFFFFF; fill-opacity:1.0000; stroke:none;">
<circle cx="114.0000" cy="58.0000" r="1.2650" /> 
</g>
<g style="fill:#FFFFFF; fill-opacity:1.0000; stroke:none;">
<circle cx="97.0000" cy="58.0000" r="1.2650" /> 
</g>
<g style="fill:#FFFFFF; fill-opacity:1.0000; stroke:none;">
<circle cx="130.5000" cy="21.0000" r="1.6000" /> 
</g>
<g style="fill:#FFFFFF; fill-opacity:1.0000; stroke:none;">
<circle cx="21.0000" cy="58.0000" r="1.2650" /> 
</g>
<g style="fill:#FFFFFF; fill-opacity:1.0000; stroke:none;">
<circle cx="59.0000" cy="22.5000" r="1.2650" /> 
</g>
<g style="fill:#FFFFFF; fill-opacity:1.0000; stroke:none;">
<circle cx="124.0000" cy="22.5000" r="1.2650" /> 
</g>
<g style="fill:#FFFFFF; fill-opacity:1.0000; stroke:none;">
<circle cx="107.0000" cy="22.5000" r="1.2650" /> 
</g>
<g style="fill:#FFFFFF; fill-opacity:1.0000; stroke:none;">
<circle cx="31.0000" cy="58.0000" r="1.2650" /> 
</g>
<g style="fill:#FFFFFF; fill-opacity:1.0000; stroke:none;">
<circle cx="124.0000" cy="58.0000" r="1.2650" /> 
</g>
<g style="fill:#FFFFFF; fill-opacity:1.0000; stroke:none;">
<circle cx="85.5000" cy="22.5000" r="1.2650" /> 
</g>
<g style="fill:#FFFFFF; fill-opacity:1.0000; stroke:none;">
<circle cx="85.5000" cy="58.0000" r="1.2650" /> 
</g>
<g style="fill:#FFFFFF; fill-opacity:1.0000; stroke:none;">
<circle cx="69.0000" cy="58.0000" r="1.2650" /> 
</g>
<g style="fill:#FFFFFF; fill-opacity:1.0000; stroke:none;">
<circle cx="75.5000" cy="58.0000" r="1.2650" /> 
</g>
<g style="fill:#FFFFFF; fill-opacity:1.0000; stroke:none;">
<circle cx="97.0000" cy="22.5000" r="1.2650" /> 
</g>
<g style="fill:#FFFFFF; fill-opacity:1.0000; stroke:none;">
<circle cx="37.5000" cy="58.0000" r="1.2650" /> 
</g>
<g style="fill:#FFFFFF; fill-opacity:1.0000; stroke:none;">
<circle cx="31.0000" cy="22.5000" r="1.2650" /> 
</g>
<g style="fill:#FFFFFF; fill-opacity:1.0000; stroke:none;">
<circle cx="58.5000" cy="13.2500" r="0.5000" /> 
</g>
<g style="fill:#FFFFFF; fill-opacity:1.0000; stroke:none;">
<circle cx="61.0400" cy="13.2500" r="0.5000" /> 
</g>
<g style="fill:#FFFFFF; fill-opacity:1.0000; stroke:none;">
<circle cx="63.5800" cy="13.2500" r="0.5000" /> 
</g>
<g style="fill:#FFFFFF; fill-opacity:1.0000; stroke:none;">
<circle cx="66.1200" cy="13.2500" r="0.5000" /> 
</g>
<g style="fill:#FFFFFF; fill-opacity:1.0000; stroke:none;">
<circle cx="68.6600" cy="13.2500" r="0.5000" /> 
</g>
<g style="fill:#FFFFFF; fill-opacity:1.0000; stroke:none;">
<circle cx="71.2000" cy="13.2500" r="0.5000" /> 
</g>
<g style="fill:#FFFFFF; fill-opacity:1.0000; stroke:none;">
<circle cx="73.7400" cy="13.2500" r="0.5000" /> 
</g>
<g style="fill:#FFFFFF; fill-opacity:1.0000; stroke:none;">
<circle cx="76.2800" cy="13.2500" r="0.5000" /> 
</g>
<g style="fill:#FFFFFF; fill-opacity:1.0000; stroke:none;">
<circle cx="78.8200" cy="13.2500" r="0.5000" /> 
</g>
<g style="fill:#FFFFFF; fill-opacity:1.0000; stroke:none;">
<circle cx="81.3600" cy="13.2500" r="0.5000" /> 
</g>
<g style="fill:#FFFFFF; fill-opacity:1.0000; stroke:none;">
<circle cx="83.9000" cy="13.2500" r="0.5000" /> 
</g>
<g style="fill:#FFFFFF; fill-opacity:1.0000; stroke:none;">
<circle cx="86.4400" cy="13.2500" r="0.5000" /> 
</g>
<g style="fill:#FFFFFF; fill-opacity:1.0000; stroke:none;">
<circle cx="58.5000" cy="15.7900" r="0.5000" /> 
</g>
<g style="fill:#FFFFFF; fill-opacity:1.0000; stroke:none;">
<circle cx="61.0400" cy="15.7900" r="0.5000" /> 
</g>
<g style="fill:#FFFFFF; fill-opacity:1.0000; stroke:none;">
<circle cx="63.5800" cy="15.7900" r="0.5000" /> 
</g>
<g style="fill:#FFFFFF; fill-opacity:1.0000; stroke:none;">
<circle cx="66.1200" cy="15.7900" r="0.5000" /> 
</g>
<g style="fill:#FFFFFF; fill-opacity:1.0000; stroke:none;">
<circle cx="68.6600" cy="15.7900" r="0.5000" /> 
</g>
<g style="fill:#FFFFFF; fill-opacity:1.0000; stroke:none;">
<circle cx="71.2000" cy="15.7900" r="0.5000" /> 
</g>
<g style="fill:#FFFFFF; fill-opacity:1.0000; stroke:none;">
<circle cx="73.7400" cy="15.7900" r="0.5000" /> 
</g>
<g style="fill:#FFFFFF; fill-opacity:1.0000; stroke:none;">
<circle cx="76.2800" cy="15.7900" r="0.5000" /> 
</g>
<g style="fill:#FFFFFF; fill-opacity:1.0000; stroke:none;">
<circle cx="78.8200" cy="15.7900" r="0.5000" /> 
</g>
<g style="fill:#FFFFFF; fill-opacity:1.0000; stroke:none;">
<circle cx="81.3600" cy="15.7900" r="0.5000" /> 
</g>
<g style="fill:#FFFFFF; fill-opacity:1.0000; stroke:none;">
<circle cx="83.9000" cy="15.7900" r="0.5000" /> 
</g>
<g style="fill:#FFFFFF; fill-opacity:1.0000; stroke:none;">
<circle cx="86.4400" cy="15.7900" r="0.5000" /> 
</g>
<g style="fill:none; 
stroke:#D0D2CD; stroke-width:0.0500; stroke-opacity:1; 
stroke-linecap:round; stroke-linejoin:round;">
<path d="M75.5000 25.0000
L74.0000 25.0000
" />
<path d="M78.0000 58.0000 A2.5000 2.5000 0.0 0 0 75.5000 55.5000" />
<path d="M45.0000 58.0000
L45.0000 59.0000
" />
<path d="M121.5000 59.0000
L121.5000 58.0000
" />
<path d="M121.5000 21.0000
L116.5000 21.0000
" />
<path d="M31.0000 55.5000
L32.5000 55.5000
" />
<path d="M104.5000 21.0000
L104.5000 22.5000
" />
<path d="M124.0000 25.0000
L125.5000 25.0000
" />
<path d="M69.0000 39.0000 A2.5000 2.5000 0.0 0 0 69.0000 44.0000" />
<path d="M37.5000 25.0000 A2.5000 2.5000 0.0 0 0 40.0000 22.5000" />
<path d="M56.5000 22.5000 A2.5000 2.5000 0.0 0 0 61.5000 22.5000" />
<path d="M108.5000 44.0000
L108.5000 55.5000
" />
<path d="M116.5000 58.0000 A2.5000 2.5000 0.0 0 0 114.0000 55.5000" />
<path d="M83.0000 21.0000
L78.0000 21.0000
" />
<path d="M28.5000 22.5000
L28.5000 21.0000
" />
<path d="M23.5000 59.0000
L23.5000 58.0000
" />
<path d="M31.0000 55.5000 A2.5000 2.5000 0.0 0 0 28.5000 58.0000" />
<path d="M32.5000 25.0000
L32.5000 39.0000
" />
<path d="M99.5000 58.0000
L99.5000 59.0000
" />
<path d="M37.5000 44.0000
L36.0000 44.0000
" />
<path d="M75.5000 39.0000
L74.0000 39.0000
" />
<path d="M74.0000 44.0000
L74.0000 55.5000
" />
<path d="M45.0000 22.5000 A2.5000 2.5000 0.0 0 0 50.0000 22.5000" />
<path d="M114.0000 44.0000
L112.5000 44.0000
" />
<path d="M40.0000 58.0000 A2.5000 2.5000 0.0 0 0 37.5000 55.5000" />
<path d="M75.5000 44.0000 A2.5000 2.5000 0.0 0 0 75.5000 39.0000" />
<path d="M104.5000 58.0000
L104.5000 59.0000
" />
<circle cx="31.0000" cy="41.5000" r="1.5000" /> 
<path d="M21.0000 25.0000
L19.5000 25.0000
" />
<path d="M107.0000 25.0000
L108.5000 25.0000
" />
<path d="M28.5000 58.0000
L28.5000 59.0000
" />
<path d="M36.0000 44.0000
L36.0000 55.5000
" />
<path d="M37.5000 44.0000 A2.5000 2.5000 0.0 0 0 37.5000 39.0000" />
<path d="M125.5000 25.0000
L125.5000 55.5000
" />
<path d="M108.5000 25.0000
L108.5000 39.0000
" />
<path d="M37.5000 55.5000
L36.0000 55.5000
" />
<path d="M61.5000 21.0000
L66.5000 21.0000
" />
<path d="M23.5000 58.0000 A2.5000 2.5000 0.0 0 0 21.0000 55.5000" />
<path d="M83.0000 59.0000
L78.0000 59.0000
" />
<path d="M114.0000 44.0000 A2.5000 2.5000 0.0 0 0 114.0000 39.0000" />
<path d="M88.0000 58.0000
L94.5000 58.0000
" />
<path d="M56.4000 2.5000
L88.5000 2.5000
" />
<path d="M74.0000 25.0000
L74.0000 39.0000
" />
<path d="M124.0000 55.5000
L125.5000 55.5000
" />
<path d="M23.5000 59.0000
L28.5000 59.0000
" />
<path d="M112.5000 25.0000
L112.5000 39.0000
" />
<path d="M66.5000 58.0000
L66.5000 59.0000
" />
<path d="M45.0000 21.0000
L40.0000 21.0000
" />
<path d="M19.5000 25.0000
L19.5000 55.5000
" />
<path d="M107.0000 55.5000 A2.5000 2.5000 0.0 0 0 104.5000 58.0000" />
<path d="M50.0000 58.0000 A2.5000 2.5000 0.0 0 0 45.0000 58.0000" />
<path d="M21.0000 25.0000 A2.5000 2.5000 0.0 0 0 23.5000 22.5000" />
<path d="M75.5000 25.0000 A2.5000 2.5000 0.0 0 0 78.0000 22.5000" />
<path d="M75.5000 55.5000
L74.0000 55.5000
" />
<path d="M70.5000 44.0000
L70.5000 55.5000
" />
<path d="M75.5000 44.0000
L74.0000 44.0000
" />
<path d="M66.5000 22.5000 A2.5000 2.5000 0.0 0 0 69.0000 25.0000" />
<path d="M61.5000 58.0000 A2.5000 2.5000 0.0 0 0 56.5000 58.0000" />
<path d="M31.0000 25.0000
L32.5000 25.0000
" />
<path d="M69.0000 55.5000
L70.5000 55.5000
" />
<path d="M88.0000 58.0000 A2.5000 2.5000 0.0 0 0 83.0000 58.0000" />
<path d="M107.0000 39.0000 A2.5000 2.5000 0.0 0 0 107.0000 44.0000" />
<path d="M121.5000 22.5000
L121.5000 21.0000
" />
<path d="M45.0000 21.0000
L45.0000 22.5000
" />
<circle cx="75.5000" cy="41.5000" r="1.5000" /> 
<circle cx="114.0000" cy="41.5000" r="1.5000" /> 
<path d="M70.5000 25.0000
L70.5000 39.0000
" />
<path d="M107.0000 55.5000
L108.5000 55.5000
" />
<path d="M78.0000 22.5000
L78.0000 21.0000
" />
<path d="M114.0000 39.0000
L112.5000 39.0000
" />
<path d="M114.0000 55.5000
L112.5000 55.5000
" />
<path d="M50.0000 58.0000
L56.5000 58.0000
" />
<path d="M99.5000 21.0000
L104.5000 21.0000
" />
<path d="M121.5000 59.0000
L116.5000 59.0000
" />
<path d="M83.0000 58.0000
L83.0000 59.0000
" />
<path d="M69.0000 25.0000
L70.5000 25.0000
" />
<path d="M112.5000 44.0000
L112.5000 55.5000
" />
<circle cx="107.0000" cy="41.5000" r="1.5000" /> 
<path d="M83.0000 21.0000
L83.0000 22.5000
" />
<path d="M83.0000 22.5000 A2.5000 2.5000 0.0 0 0 88.0000 22.5000" />
<path d="M7.0000 16.5000
L56.4000 16.5000
" />
<path d="M28.5000 22.5000 A2.5000 2.5000 0.0 0 0 31.0000 25.0000" />
<path d="M37.5000 39.0000
L36.0000 39.0000
" />
<path d="M78.0000 58.0000
L78.0000 59.0000
" />
<path d="M7.0000 61.0000
L7.0000 16.5000
" />
<path d="M99.5000 59.0000
L104.5000 59.0000
" />
<path d="M69.0000 39.0000
L70.5000 39.0000
" />
<path d="M121.5000 22.5000 A2.5000 2.5000 0.0 0 0 124.0000 25.0000" />
<path d="M66.5000 21.0000
L66.5000 22.5000
" />
<path d="M88.5000 16.5000
L135.0000 16.5000
" />
<path d="M23.5000 21.0000
L28.5000 21.0000
" />
<path d="M88.5000 2.5000
L88.5000 16.5000
" />
<path d="M114.0000 25.0000 A2.5000 2.5000 0.0 0 0 116.5000 22.5000" />
<path d="M21.0000 55.5000
L19.5000 55.5000
" />
<path d="M61.5000 58.0000
L61.5000 59.0000
" />
<path d="M104.5000 22.5000 A2.5000 2.5000 0.0 0 0 107.0000 25.0000" />
<path d="M31.0000 39.0000
L32.5000 39.0000
" />
<path d="M116.5000 58.0000
L116.5000 59.0000
" />
<path d="M135.0000 61.0000
L135.0000 16.5000
" />
<path d="M61.5000 21.0000
L61.5000 22.5000
" />
<path d="M99.5000 21.0000
L99.5000 22.5000
" />
<path d="M94.5000 22.5000 A2.5000 2.5000 0.0 0 0 99.5000 22.5000" />
<path d="M135.0000 61.0000
L7.0000 61.0000
" />
<path d="M114.0000 25.0000
L112.5000 25.0000
" />
<path d="M116.5000 21.0000
L116.5000 22.5000
" />
<path d="M31.0000 44.0000
L32.5000 44.0000
" />
<path d="M69.0000 44.0000
L70.5000 44.0000
" />
<path d="M61.5000 59.0000
L66.5000 59.0000
" />
<path d="M37.5000 25.0000
L36.0000 25.0000
" />
<path d="M50.0000 22.5000
L56.5000 22.5000
" />
<path d="M23.5000 22.5000
L23.5000 21.0000
" />
<path d="M45.0000 59.0000
L40.0000 59.0000
" />
<path d="M40.0000 22.5000
L40.0000 21.0000
" />
<circle cx="69.0000" cy="41.5000" r="1.5000" /> 
<path d="M99.5000 58.0000 A2.5000 2.5000 0.0 0 0 94.5000 58.0000" />
<path d="M31.0000 39.0000 A2.5000 2.5000 0.0 0 0 31.0000 44.0000" />
<path d="M107.0000 39.0000
L108.5000 39.0000
" />
<circle cx="37.5000" cy="41.5000" r="1.5000" /> 
<path d="M56.4000 16.5000
L56.4000 2.5000
" />
<path d="M32.5000 44.0000
L32.5000 55.5000
" />
<path d="M107.0000 44.0000
L108.5000 44.0000
" />
<path d="M88.0000 22.5000
L94.5000 22.5000
" />
<path d="M69.0000 55.5000 A2.5000 2.5000 0.0 0 0 66.5000 58.0000" />
<path d="M36.0000 25.0000
L36.0000 39.0000
" />
<path d="M40.0000 58.0000
L40.0000 59.0000
" />
<path d="M124.0000 55.5000 A2.5000 2.5000 0.0 0 0 121.5000 58.0000" />
</g> 
</svg>
