<?xml version="1.0" standalone="no"?>
 <!DOCTYPE svg PUBLIC "-//W3C//DTD SVG 1.1//EN" 
 "http://www.w3.org/Graphics/SVG/1.1/DTD/svg11.dtd"> 
<svg
  xmlns:svg="http://www.w3.org/2000/svg"
  xmlns="http://www.w3.org/2000/svg"
  xmlns:xlink="http://www.w3.org/1999/xlink"
  version="1.1"
  width="139.9794mm" height="64.9986mm" viewBox="0.0000 0.0000 139.9794 64.9986">
<title>SVG Image created as UpperPOGO-F_Cu.svg date 2024/05/21 13:30:23 </title>
  <desc>Image generated by PCBNEW </desc>
<g style="fill:#000000; fill-opacity:1.0000;stroke:#000000; stroke-opacity:1.0000;
stroke-linecap:round; stroke-linejoin:round;"
 transform="translate(0 0) scale(1 1)">
</g>
<g style="fill:#C83434; fill-opacity:1.0000; stroke:none;">
<circle cx="114.0000" cy="22.5000" r="1.7500" /> 
</g>
<g style="fill:#C83434; fill-opacity:1.0000; stroke:none;">
<circle cx="47.5000" cy="22.5000" r="1.7500" /> 
</g>
<g style="fill:#C83434; fill-opacity:1.0000; stroke:none;">
<circle cx="37.5000" cy="22.5000" r="1.7500" /> 
</g>
<g style="fill:#C83434; fill-opacity:1.0000; stroke:none;">
<circle cx="21.0000" cy="22.5000" r="1.7500" /> 
</g>
<g style="fill:#C83434; fill-opacity:1.0000; stroke:none;">
<circle cx="75.5000" cy="22.5000" r="1.7500" /> 
</g>
<g style="fill:#C83434; fill-opacity:1.0000; stroke:none;">
<circle cx="69.0000" cy="22.5000" r="1.7500" /> 
</g>
<g style="fill:#C83434; fill-opacity:1.0000; stroke:none;">
<circle cx="59.0000" cy="58.0000" r="1.7500" /> 
</g>
<g style="fill:#C83434; fill-opacity:1.0000; stroke:none;">
<circle cx="47.5000" cy="58.0000" r="1.7500" /> 
</g>
<g style="fill:#C83434; fill-opacity:1.0000; stroke:none;">
<circle cx="11.5000" cy="21.0000" r="1.8000" /> 
</g>
<g style="fill:#C83434; fill-opacity:1.0000; stroke:none;">
<circle cx="11.5000" cy="21.0000" r="2.8000" /> 
</g>
<g style="fill:#C83434; fill-opacity:1.0000; stroke:none;">
<circle cx="11.5000" cy="56.5000" r="1.8000" /> 
</g>
<g style="fill:#C83434; fill-opacity:1.0000; stroke:none;">
<circle cx="11.5000" cy="56.5000" r="2.8000" /> 
</g>
<g style="fill:#C83434; fill-opacity:1.0000; stroke:none;">
<circle cx="107.0000" cy="58.0000" r="1.7500" /> 
</g>
<g style="fill:#C83434; fill-opacity:1.0000; stroke:none;">
<circle cx="130.5000" cy="56.5000" r="1.8000" /> 
</g>
<g style="fill:#C83434; fill-opacity:1.0000; stroke:none;">
<circle cx="130.5000" cy="56.5000" r="2.8000" /> 
</g>
<g style="fill:#C83434; fill-opacity:1.0000; stroke:none;">
<circle cx="114.0000" cy="58.0000" r="1.7500" /> 
</g>
<g style="fill:#C83434; fill-opacity:1.0000; stroke:none;">
<circle cx="97.0000" cy="58.0000" r="1.7500" /> 
</g>
<g style="fill:#C83434; fill-opacity:1.0000; stroke:none;">
<circle cx="130.5000" cy="21.0000" r="1.8000" /> 
</g>
<g style="fill:#C83434; fill-opacity:1.0000; stroke:none;">
<circle cx="130.5000" cy="21.0000" r="2.8000" /> 
</g>
<g style="fill:#C83434; fill-opacity:1.0000; stroke:none;">
<circle cx="21.0000" cy="58.0000" r="1.7500" /> 
</g>
<g style="fill:#C83434; fill-opacity:1.0000; stroke:none;">
<circle cx="59.0000" cy="22.5000" r="1.7500" /> 
</g>
<g style="fill:#C83434; fill-opacity:1.0000; stroke:none;">
<circle cx="124.0000" cy="22.5000" r="1.7500" /> 
</g>
<g style="fill:#C83434; fill-opacity:1.0000; stroke:none;">
<circle cx="107.0000" cy="22.5000" r="1.7500" /> 
</g>
<g style="fill:#C83434; fill-opacity:1.0000; stroke:none;">
<circle cx="31.0000" cy="58.0000" r="1.7500" /> 
</g>
<g style="fill:#C83434; fill-opacity:1.0000; stroke:none;">
<circle cx="124.0000" cy="58.0000" r="1.7500" /> 
</g>
<g style="fill:#C83434; fill-opacity:1.0000; stroke:none;">
<circle cx="85.5000" cy="22.5000" r="1.7500" /> 
</g>
<g style="fill:#C83434; fill-opacity:1.0000; stroke:none;">
<circle cx="85.5000" cy="58.0000" r="1.7500" /> 
</g>
<g style="fill:#C83434; fill-opacity:1.0000; stroke:none;">
<circle cx="69.0000" cy="58.0000" r="1.7500" /> 
</g>
<g style="fill:#C83434; fill-opacity:1.0000; stroke:none;">
<circle cx="75.5000" cy="58.0000" r="1.7500" /> 
</g>
<g style="fill:#C83434; fill-opacity:1.0000; stroke:none;">
<circle cx="97.0000" cy="22.5000" r="1.7500" /> 
</g>
<g style="fill:#C83434; fill-opacity:1.0000; stroke:none;">
<circle cx="37.5000" cy="58.0000" r="1.7500" /> 
</g>
<g style="fill:#C83434; fill-opacity:1.0000; stroke:none;">
<circle cx="31.0000" cy="22.5000" r="1.7500" /> 
</g>
<g style="fill:#C83434; fill-opacity:1.0000; stroke:none;">
<circle cx="58.5000" cy="13.2500" r="0.8500" /> 
<circle cx="61.0400" cy="13.2500" r="0.8500" /> 
<circle cx="63.5800" cy="13.2500" r="0.8500" /> 
<circle cx="66.1200" cy="13.2500" r="0.8500" /> 
<circle cx="68.6600" cy="13.2500" r="0.8500" /> 
<circle cx="71.2000" cy="13.2500" r="0.8500" /> 
<circle cx="73.7400" cy="13.2500" r="0.8500" /> 
<circle cx="76.2800" cy="13.2500" r="0.8500" /> 
<circle cx="78.8200" cy="13.2500" r="0.8500" /> 
<circle cx="81.3600" cy="13.2500" r="0.8500" /> 
<circle cx="83.9000" cy="13.2500" r="0.8500" /> 
<circle cx="86.4400" cy="13.2500" r="0.8500" /> 
<path style="fill:#C83434; fill-opacity:1.0000; stroke:none;fill-rule:evenodd;"
d="M 57.6500,14.9400
59.3500,14.9400
59.3500,16.6400
57.6500,16.6400
Z" /> 
<circle cx="61.0400" cy="15.7900" r="0.8500" /> 
<circle cx="63.5800" cy="15.7900" r="0.8500" /> 
<circle cx="66.1200" cy="15.7900" r="0.8500" /> 
<circle cx="68.6600" cy="15.7900" r="0.8500" /> 
<circle cx="71.2000" cy="15.7900" r="0.8500" /> 
<circle cx="73.7400" cy="15.7900" r="0.8500" /> 
<circle cx="76.2800" cy="15.7900" r="0.8500" /> 
<circle cx="78.8200" cy="15.7900" r="0.8500" /> 
<circle cx="81.3600" cy="15.7900" r="0.8500" /> 
<circle cx="83.9000" cy="15.7900" r="0.8500" /> 
<circle cx="86.4400" cy="15.7900" r="0.8500" /> 
</g>
<g style="fill:none; 
stroke:#C83434; stroke-width:0.4000; stroke-opacity:1; 
stroke-linecap:round; stroke-linejoin:round;">
<path d="M56.3450 18.3000
L58.5000 16.1450
" />
<path d="M58.5000 16.1450
L58.5000 15.7900
" />
<path d="M31.0000 22.5000
L32.5000 22.5000
" />
<path d="M32.5000 22.5000
L36.7000 18.3000
" />
<path d="M36.7000 18.3000
L56.3450 18.3000
" />
<path d="M57.9300 18.9000
L61.0400 15.7900
" />
<path d="M32.5000 58.0000
L33.2000 57.3000
" />
<path d="M33.2000 57.3000
L33.2000 22.8000
" />
<path d="M31.0000 58.0000
L32.5000 58.0000
" />
<path d="M37.1000 18.9000
L57.9300 18.9000
" />
<path d="M33.2000 22.8000
L37.1000 18.9000
" />
<path d="M37.4594 19.5000
L59.8700 19.5000
" />
<path d="M47.5000 58.0000
L47.5000 59.5000
" />
<path d="M46.7000 60.3000
L36.5500 60.3000
" />
<path d="M35.3000 21.6594
L37.4594 19.5000
" />
<path d="M36.5500 60.3000
L35.3000 59.0500
" />
<path d="M35.3000 59.0500
L35.3000 21.6594
" />
<path d="M59.8700 19.5000
L63.5800 15.7900
" />
<path d="M47.5000 59.5000
L46.7000 60.3000
" />
<path d="M49.9000 20.1000
L61.8100 20.1000
" />
<path d="M61.8100 20.1000
L66.1200 15.7900
" />
<path d="M47.5000 22.5000
L49.9000 20.1000
" />
<path d="M69.0000 22.5000
L69.0000 16.1300
" />
<path d="M69.0000 16.1300
L68.6600 15.7900
" />
<path d="M70.5000 58.0000
L71.2000 57.3000
" />
<path d="M69.0000 58.0000
L70.5000 58.0000
" />
<path d="M71.2000 57.3000
L71.2000 15.7900
" />
<path d="M85.5000 59.5000
L84.7000 60.3000
" />
<path d="M73.2500 16.2800
L73.7400 15.7900
" />
<path d="M85.5000 58.0000
L85.5000 59.5000
" />
<path d="M74.0500 60.3000
L73.2500 59.5000
" />
<path d="M84.7000 60.3000
L74.0500 60.3000
" />
<path d="M73.2500 59.5000
L73.2500 16.2800
" />
<path d="M83.3000 20.3000
L80.7900 20.3000
" />
<path d="M80.7900 20.3000
L76.2800 15.7900
" />
<path d="M85.5000 22.5000
L83.3000 20.3000
" />
<path d="M107.0000 22.5000
L107.0000 21.0000
" />
<path d="M84.8000 19.8000
L82.0400 17.0400
" />
<path d="M82.0400 17.0400
L80.0700 17.0400
" />
<path d="M105.8000 19.8000
L84.8000 19.8000
" />
<path d="M107.0000 21.0000
L105.8000 19.8000
" />
<path d="M80.0700 17.0400
L78.8200 15.7900
" />
<path d="M108.2000 19.2000
L85.0485 19.2000
" />
<path d="M110.6000 55.9000
L110.6000 21.6000
" />
<path d="M85.0485 19.2000
L81.6385 15.7900
" />
<path d="M108.5000 58.0000
L110.6000 55.9000
" />
<path d="M110.6000 21.6000
L108.2000 19.2000
" />
<path d="M107.0000 58.0000
L108.5000 58.0000
" />
<path d="M81.6385 15.7900
L81.3600 15.7900
" />
<path d="M86.1000 18.6000
L83.9000 16.4000
" />
<path d="M83.9000 16.4000
L83.9000 15.7900
" />
<path d="M121.6000 18.6000
L86.1000 18.6000
" />
<path d="M124.0000 21.0000
L121.6000 18.6000
" />
<path d="M124.0000 22.5000
L124.0000 21.0000
" />
<path d="M88.0000 18.0000
L86.4400 16.4400
" />
<path d="M126.2000 55.8000
L126.2000 20.7000
" />
<path d="M86.4400 16.4400
L86.4400 15.7900
" />
<path d="M126.2000 20.7000
L123.5000 18.0000
" />
<path d="M123.5000 18.0000
L88.0000 18.0000
" />
<path d="M124.0000 58.0000
L126.2000 55.8000
" />
<path style="fill:#C83434; fill-opacity:1.0000; stroke:none;fill-rule:evenodd;"
d="M 87.9778,3.0222
87.9995,3.0745
87.9995,16.5659
88.0336,16.6932
88.0336,16.6932
88.0336,16.6932
88.0995,16.8073
88.1927,16.9005
88.3068,16.9664
88.4341,17.0005
88.4341,17.0005
88.4341,17.0005
88.5659,17.0005
134.4255,17.0005
134.4778,17.0222
134.4995,17.0745
134.4995,60.4255
134.4778,60.4778
134.4255,60.4995
85.2455,60.4995
85.1932,60.4778
85.1715,60.4255
85.1932,60.3732
85.2668,60.2996
85.5999,59.9665
85.6470,59.9450
85.7783,59.9356
86.0509,59.8763
86.0509,59.8763
86.0509,59.8763
86.3123,59.7788
86.3336,59.7672
86.5572,59.6451
86.7806,59.4779
86.9779,59.2806
87.1451,59.0572
87.2788,58.8123
87.2788,58.8123
87.2788,58.8123
87.3763,58.5509
87.3763,58.5509
87.3763,58.5509
87.4352,58.2802
87.4675,58.2337
87.5232,58.2236
87.5697,58.2559
87.5716,58.2589
87.5827,58.2783
87.5995,58.3073
87.6927,58.4005
87.8068,58.4664
87.9341,58.5005
87.9341,58.5005
87.9341,58.5005
94.5659,58.5005
94.5659,58.5005
94.6932,58.4664
94.8073,58.4005
94.9005,58.3073
94.9284,58.2589
94.9734,58.2244
95.0295,58.2318
95.0640,58.2768
95.0648,58.2802
95.1237,58.5509
95.1237,58.5509
95.2212,58.8123
95.3549,59.0572
95.3890,59.1027
95.5221,59.2806
95.7194,59.4779
95.8194,59.5527
95.9428,59.6451
96.1877,59.7788
96.4491,59.8763
96.4491,59.8763
96.4491,59.8763
96.7217,59.9356
96.7835,59.9400
97.0000,59.9555
97.0000,59.9555
97.0000,59.9555
97.1948,59.9415
97.2783,59.9356
97.5509,59.8763
97.5509,59.8763
97.5509,59.8763
97.8123,59.7788
97.8336,59.7672
98.0572,59.6451
98.2806,59.4779
98.4779,59.2806
98.6451,59.0572
98.7788,58.8123
98.7788,58.8123
98.7788,58.8123
98.8562,58.6048
98.8948,58.5634
98.9514,58.5614
98.9928,58.5999
98.9995,58.6307
98.9995,59.0659
99.0336,59.1932
99.0336,59.1932
99.0336,59.1932
99.0995,59.3073
99.1927,59.4005
99.3068,59.4664
99.4341,59.5005
99.4341,59.5005
99.4341,59.5005
104.5659,59.5005
104.5659,59.5005
104.6932,59.4664
104.8073,59.4005
104.9005,59.3073
104.9664,59.1932
105.0005,59.0659
105.0005,59.0659
105.0005,58.6307
105.0222,58.5784
105.0745,58.5567
105.1268,58.5784
105.1438,58.6048
105.2212,58.8123
105.3549,59.0572
105.3890,59.1027
105.5221,59.2806
105.7194,59.4779
105.8194,59.5527
105.9428,59.6451
106.1877,59.7788
106.4491,59.8763
106.4491,59.8763
106.4491,59.8763
106.7217,59.9356
106.7835,59.9400
107.0000,59.9555
107.0000,59.9555
107.0000,59.9555
107.1948,59.9415
107.2783,59.9356
107.5509,59.8763
107.5509,59.8763
107.5509,59.8763
107.8123,59.7788
107.8336,59.7672
108.0572,59.6451
108.2806,59.4779
108.4779,59.2806
108.6451,59.0572
108.7788,58.8123
108.7788,58.8123
108.7788,58.8123
108.8763,58.5509
108.8763,58.5509
108.8763,58.5509
108.9356,58.2783
108.9450,58.1470
108.9665,58.0999
110.9205,56.1459
110.9417,56.1091
110.9732,56.0546
111.0005,55.9527
111.0005,55.9527
111.0005,21.6587
111.0005,21.6587
111.0005,21.5473
111.0005,21.5473
110.9732,21.4454
110.9732,21.4454
110.9732,21.4454
110.9717,21.4428
110.9324,21.3747
110.9205,21.3541
110.8459,21.2795
110.8433,21.2769
110.8433,21.2769
108.6932,19.1268
108.6715,19.0745
108.6932,19.0222
108.7455,19.0005
121.4035,19.0005
121.4558,19.0222
123.0965,20.6629
123.1182,20.7152
123.0965,20.7676
123.0797,20.7802
122.9428,20.8549
122.7194,21.0221
122.5221,21.2194
122.3549,21.4428
122.2212,21.6877
122.1438,21.8952
122.1052,21.9366
122.0486,21.9386
122.0072,21.9001
122.0005,21.8693
122.0005,20.9341
122.0005,20.9341
121.9817,20.8641
121.9664,20.8068
121.9005,20.6927
121.8073,20.5995
121.7586,20.5714
121.6932,20.5336
121.6932,20.5336
121.5659,20.4995
121.5659,20.4995
116.5659,20.4995
116.4341,20.4995
116.4341,20.4995
116.3068,20.5336
116.3068,20.5336
116.1927,20.5995
116.0995,20.6927
116.0336,20.8068
116.0336,20.8068
115.9995,20.9341
115.9995,21.8693
115.9778,21.9216
115.9255,21.9433
115.8732,21.9216
115.8562,21.8952
115.7788,21.6877
115.6451,21.4428
115.5787,21.3541
115.4779,21.2194
115.2806,21.0221
115.1630,20.9341
115.0572,20.8549
114.8123,20.7212
114.5509,20.6237
114.5509,20.6237
114.5509,20.6237
114.4960,20.6118
114.2783,20.5644
114.0000,20.5445
114.0000,20.5445
113.7217,20.5644
113.4491,20.6237
113.4491,20.6237
113.1877,20.7212
112.9428,20.8549
112.7194,21.0221
112.5221,21.2194
112.3549,21.4428
112.2212,21.6877
112.1237,21.9491
112.1237,21.9491
112.0644,22.2217
112.0445,22.5000
112.0445,22.5000
112.0644,22.7783
112.1237,23.0509
112.1237,23.0509
112.2212,23.3123
112.3549,23.5572
112.4244,23.6501
112.5221,23.7806
112.7194,23.9779
112.8643,24.0863
112.9428,24.1451
113.1877,24.2788
113.3952,24.3562
113.4366,24.3948
113.4386,24.4514
113.4001,24.4928
113.3693,24.4995
112.4341,24.4995
112.3068,24.5336
112.3068,24.5336
112.1927,24.5995
112.0995,24.6927
112.0336,24.8068
112.0336,24.8068
111.9995,24.9341
111.9995,39.0669
112.0000,39.0745
112.0000,41.4189
111.9998,41.4242
111.9944,41.5000
111.9944,41.5000
111.9998,41.5758
112.0000,41.5811
112.0000,43.9255
111.9995,43.9331
111.9995,55.5659
112.0336,55.6932
112.0336,55.6932
112.0336,55.6932
112.0995,55.8073
112.1927,55.9005
112.3068,55.9664
112.4341,56.0005
112.4341,56.0005
112.4341,56.0005
112.5659,56.0005
113.3693,56.0005
113.4216,56.0222
113.4433,56.0745
113.4216,56.1268
113.3952,56.1438
113.1877,56.2212
112.9428,56.3549
112.7194,56.5221
112.5221,56.7194
112.3549,56.9428
112.2212,57.1877
112.1237,57.4491
112.1237,57.4491
112.0644,57.7217
112.0445,58.0000
112.0445,58.0000
112.0644,58.2783
112.1237,58.5509
112.1237,58.5509
112.2212,58.8123
112.3549,59.0572
112.3890,59.1027
112.5221,59.2806
112.7194,59.4779
112.8194,59.5527
112.9428,59.6451
113.1877,59.7788
113.4491,59.8763
113.4491,59.8763
113.4491,59.8763
113.7217,59.9356
113.7835,59.9400
114.0000,59.9555
114.0000,59.9555
114.0000,59.9555
114.1948,59.9415
114.2783,59.9356
114.5509,59.8763
114.5509,59.8763
114.5509,59.8763
114.8123,59.7788
114.8336,59.7672
115.0572,59.6451
115.2806,59.4779
115.4779,59.2806
115.6451,59.0572
115.7788,58.8123
115.7788,58.8123
115.7788,58.8123
115.8562,58.6048
115.8948,58.5634
115.9514,58.5614
115.9928,58.5999
115.9995,58.6307
115.9995,59.0659
116.0336,59.1932
116.0336,59.1932
116.0336,59.1932
116.0995,59.3073
116.1927,59.4005
116.3068,59.4664
116.4341,59.5005
116.4341,59.5005
116.4341,59.5005
121.5659,59.5005
121.5659,59.5005
121.6932,59.4664
121.8073,59.4005
121.9005,59.3073
121.9664,59.1932
122.0005,59.0659
122.0005,59.0659
122.0005,58.6307
122.0222,58.5784
122.0745,58.5567
122.1268,58.5784
122.1438,58.6048
122.2212,58.8123
122.3549,59.0572
122.3890,59.1027
122.5221,59.2806
122.7194,59.4779
122.8194,59.5527
122.9428,59.6451
123.1877,59.7788
123.4491,59.8763
123.4491,59.8763
123.4491,59.8763
123.7217,59.9356
123.7835,59.9400
124.0000,59.9555
124.0000,59.9555
124.0000,59.9555
124.1948,59.9415
124.2783,59.9356
124.5509,59.8763
124.5509,59.8763
124.5509,59.8763
124.8123,59.7788
124.8336,59.7672
125.0572,59.6451
125.2806,59.4779
125.4779,59.2806
125.6451,59.0572
125.7788,58.8123
125.7788,58.8123
125.7788,58.8123
125.8763,58.5509
125.8763,58.5509
125.8763,58.5509
125.9356,58.2783
125.9422,58.1855
125.9555,58.0000
125.9555,58.0000
125.9356,57.7217
125.9356,57.7217
125.8763,57.4491
125.8763,57.4491
125.8763,57.4491
125.7788,57.1877
125.7267,57.0922
125.6640,56.9775
125.6580,56.9212
125.6766,56.8897
126.0664,56.5000
127.2950,56.5000
127.3151,56.8589
127.3151,56.8589
127.3753,57.2132
127.4748,57.5586
127.6124,57.8906
127.6124,57.8906
127.7862,58.2052
127.7862,58.2052
127.9942,58.4983
128.1002,58.6169
129.2355,57.4817
129.2796,57.5423
129.4577,57.7204
129.5183,57.7645
128.3831,58.8998
128.5017,59.0058
128.7948,59.2138
128.7948,59.2138
129.1094,59.3876
129.1094,59.3876
129.4414,59.5252
129.7868,59.6247
129.7868,59.6247
130.1411,59.6849
130.1411,59.6849
130.5000,59.7050
130.8589,59.6849
130.8589,59.6849
131.2132,59.6247
131.5586,59.5252
131.8906,59.3876
131.8906,59.3876
132.2052,59.2138
132.2052,59.2138
132.4983,59.0058
132.6169,58.8998
132.6169,58.8998
131.4817,57.7645
131.5423,57.7204
131.7204,57.5423
131.7645,57.4817
132.8998,58.6169
132.8998,58.6169
133.0058,58.4983
133.2138,58.2052
133.2138,58.2052
133.3876,57.8906
133.3876,57.8906
133.5252,57.5586
133.6247,57.2132
133.6849,56.8589
133.6849,56.8589
133.7050,56.5000
133.6849,56.1411
133.6849,56.1411
133.6247,55.7868
133.5252,55.4414
133.3876,55.1094
133.3876,55.1094
133.2138,54.7948
133.2138,54.7948
133.0058,54.5017
132.8998,54.3831
132.8998,54.3831
131.7645,55.5183
131.7204,55.4577
131.5423,55.2796
131.4817,55.2355
132.6169,54.1002
132.4983,53.9942
132.2052,53.7862
132.2052,53.7862
131.8906,53.6124
131.8906,53.6124
131.5586,53.4748
131.2132,53.3753
131.2132,53.3753
130.8589,53.3151
130.8589,53.3151
130.5000,53.2950
130.1411,53.3151
130.1411,53.3151
129.7868,53.3753
129.4414,53.4748
129.1094,53.6124
129.1094,53.6124
128.7948,53.7862
128.7948,53.7862
128.5017,53.9942
128.3831,54.1002
129.5183,55.2355
129.4577,55.2796
129.2796,55.4577
129.2355,55.5183
128.1002,54.3831
127.9942,54.5017
127.7862,54.7948
127.7862,54.7948
127.6124,55.1094
127.6124,55.1094
127.4748,55.4414
127.3753,55.7868
127.3151,56.1411
127.3151,56.1411
127.2950,56.5000
126.0664,56.5000
126.5205,56.0459
126.5732,55.9546
126.6005,55.8527
126.6005,55.7473
126.6005,21.0000
127.2950,21.0000
127.3151,21.3589
127.3151,21.3589
127.3753,21.7132
127.4748,22.0586
127.6124,22.3906
127.6124,22.3906
127.7862,22.7052
127.7862,22.7052
127.9942,22.9983
128.1002,23.1169
129.2355,21.9817
129.2796,22.0423
129.4577,22.2204
129.5183,22.2645
128.3831,23.3998
128.5017,23.5058
128.7948,23.7138
128.7948,23.7138
129.1094,23.8876
129.1094,23.8876
129.4414,24.0252
129.7868,24.1247
129.7868,24.1247
130.1411,24.1849
130.1411,24.1849
130.5000,24.2050
130.8589,24.1849
130.8589,24.1849
131.2132,24.1247
131.5586,24.0252
131.8906,23.8876
131.8906,23.8876
132.2052,23.7138
132.2052,23.7138
132.4983,23.5058
132.6169,23.3998
132.6169,23.3998
131.4817,22.2645
131.5423,22.2204
131.7204,22.0423
131.7645,21.9817
132.8998,23.1169
132.8998,23.1169
133.0058,22.9983
133.2138,22.7052
133.2138,22.7052
133.3876,22.3906
133.3876,22.3906
133.5252,22.0586
133.6247,21.7132
133.6849,21.3589
133.6849,21.3589
133.7050,21.0000
133.6849,20.6411
133.6849,20.6411
133.6247,20.2868
133.5252,19.9414
133.3876,19.6094
133.3876,19.6094
133.2138,19.2948
133.2138,19.2948
133.0058,19.0017
132.8998,18.8831
132.8998,18.8831
131.7645,20.0183
131.7204,19.9577
131.5423,19.7796
131.4817,19.7355
132.6169,18.6002
132.4983,18.4942
132.2052,18.2862
132.2052,18.2862
131.8906,18.1124
131.8906,18.1124
131.5586,17.9748
131.2132,17.8753
131.2132,17.8753
130.8589,17.8151
130.8589,17.8151
130.5000,17.7950
130.1411,17.8151
130.1411,17.8151
129.7868,17.8753
129.4414,17.9748
129.1094,18.1124
129.1094,18.1124
128.7948,18.2862
128.7948,18.2862
128.5017,18.4942
128.3831,18.6002
129.5183,19.7355
129.4577,19.7796
129.2796,19.9577
129.2355,20.0183
128.1002,18.8831
127.9942,19.0017
127.7862,19.2948
127.7862,19.2948
127.6124,19.6094
127.6124,19.6094
127.4748,19.9414
127.3753,20.2868
127.3151,20.6411
127.3151,20.6411
127.2950,21.0000
126.6005,21.0000
126.6005,20.7587
126.6005,20.7587
126.6005,20.6473
126.6005,20.6473
126.5732,20.5454
126.5732,20.5454
126.5664,20.5336
126.5467,20.4995
126.5205,20.4541
126.4459,20.3795
126.4433,20.3769
126.4433,20.3769
125.1409,19.0745
123.7459,17.6795
123.7459,17.6795
123.7459,17.6795
123.6546,17.6268
123.6546,17.6268
123.5527,17.5995
123.5527,17.5995
88.1965,17.5995
88.1442,17.5778
87.1961,16.6298
87.1745,16.5774
87.1913,16.5305
87.3177,16.3764
87.4152,16.1940
87.4753,15.9959
87.4956,15.7900
87.4753,15.5841
87.4152,15.3860
87.3177,15.2035
87.1864,15.0436
87.0264,14.9123
86.8440,14.8148
86.7322,14.7809
86.6459,14.7547
86.4400,14.7344
86.2341,14.7547
86.0360,14.8148
85.8535,14.9123
85.6936,15.0436
85.6936,15.0436
85.5623,15.2035
85.4648,15.3860
85.4047,15.5841
85.3844,15.7900
85.4047,15.9959
85.4079,16.0065
85.4644,16.1927
85.4648,16.1940
85.5623,16.3764
85.6887,16.5305
85.6936,16.5364
85.8535,16.6677
86.0360,16.7652
86.2341,16.8253
86.2353,16.8254
86.2357,16.8256
86.2376,16.8260
86.2375,16.8265
86.2803,16.8467
87.5068,18.0732
87.5285,18.1255
87.5068,18.1778
87.4545,18.1995
86.2965,18.1995
86.2442,18.1778
84.6742,16.6078
84.6525,16.5555
84.6693,16.5085
84.7777,16.3764
84.8752,16.1940
84.9353,15.9959
84.9556,15.7900
84.9353,15.5841
84.8752,15.3860
84.7777,15.2035
84.6464,15.0436
84.4864,14.9123
84.3040,14.8148
84.1922,14.7809
84.1059,14.7547
83.9000,14.7344
83.6941,14.7547
83.4960,14.8148
83.3135,14.9123
83.1536,15.0436
83.1536,15.0436
83.0223,15.2035
82.9248,15.3860
82.8647,15.5841
82.8444,15.7900
82.8647,15.9959
82.8679,16.0065
82.9244,16.1927
82.9248,16.1940
83.0223,16.3764
83.1237,16.4999
83.1392,16.5512
83.1431,16.5495
83.1901,16.5663
83.3135,16.6677
83.4960,16.7652
83.6941,16.8253
83.7396,16.8298
83.7847,16.8511
85.6068,18.6732
85.6285,18.7255
85.6068,18.7778
85.5545,18.7995
85.2451,18.7995
85.1927,18.7778
83.0908,16.6759
83.0691,16.6235
83.0720,16.6166
83.0592,16.6205
83.0141,16.5992
82.4214,16.0065
82.3998,15.9542
82.4001,15.9470
82.4156,15.7900
82.3953,15.5841
82.3352,15.3860
82.2377,15.2035
82.1064,15.0436
81.9464,14.9123
81.7640,14.8148
81.6522,14.7809
81.5659,14.7547
81.3600,14.7344
81.1541,14.7547
80.9560,14.8148
80.7735,14.9123
80.6136,15.0436
80.6136,15.0436
80.4823,15.2035
80.3848,15.3860
80.3247,15.5841
80.3044,15.7900
80.3247,15.9959
80.3279,16.0065
80.3844,16.1927
80.3848,16.1940
80.4823,16.3764
80.5989,16.5186
80.6154,16.5728
80.5887,16.6227
80.5417,16.6395
80.2665,16.6395
80.2142,16.6178
79.8255,16.2291
79.8038,16.1767
79.8070,16.1553
79.8553,15.9959
79.8756,15.7900
79.8553,15.5841
79.7952,15.3860
79.6977,15.2035
79.5664,15.0436
79.4064,14.9123
79.2240,14.8148
79.1122,14.7809
79.0259,14.7547
78.8200,14.7344
78.6141,14.7547
78.4160,14.8148
78.2335,14.9123
78.0736,15.0436
78.0736,15.0436
77.9423,15.2035
77.8448,15.3860
77.7847,15.5841
77.7644,15.7900
77.7847,15.9959
77.7879,16.0065
77.8444,16.1927
77.8448,16.1940
77.9423,16.3764
78.0687,16.5305
78.0736,16.5364
78.2335,16.6677
78.4160,16.7652
78.6141,16.8253
78.8200,16.8456
79.0259,16.8253
79.1853,16.7770
79.2416,16.7825
79.2591,16.7955
79.8241,17.3605
79.9154,17.4132
80.0173,17.4405
80.1227,17.4405
81.8435,17.4405
81.8958,17.4622
84.4795,20.0459
84.4795,20.0459
84.5541,20.1205
84.6454,20.1732
84.7473,20.2005
84.7473,20.2005
84.7473,20.2005
105.6035,20.2005
105.6558,20.2222
106.0965,20.6629
106.1182,20.7152
106.0965,20.7676
106.0797,20.7802
105.9428,20.8549
105.7194,21.0221
105.5221,21.2194
105.3549,21.4428
105.2212,21.6877
105.1438,21.8952
105.1052,21.9366
105.0486,21.9386
105.0072,21.9001
105.0005,21.8693
105.0005,20.9341
105.0005,20.9341
104.9817,20.8641
104.9664,20.8068
104.9005,20.6927
104.8073,20.5995
104.7586,20.5714
104.6932,20.5336
104.6932,20.5336
104.5659,20.4995
104.5659,20.4995
99.5659,20.4995
99.4341,20.4995
99.4341,20.4995
99.3068,20.5336
99.3068,20.5336
99.1927,20.5995
99.0995,20.6927
99.0336,20.8068
99.0336,20.8068
98.9995,20.9341
98.9995,21.8693
98.9778,21.9216
98.9255,21.9433
98.8732,21.9216
98.8562,21.8952
98.7788,21.6877
98.6451,21.4428
98.5787,21.3541
98.4779,21.2194
98.2806,21.0221
98.1630,20.9341
98.0572,20.8549
97.8123,20.7212
97.5509,20.6237
97.5509,20.6237
97.5509,20.6237
97.4960,20.6118
97.2783,20.5644
97.0000,20.5445
97.0000,20.5445
96.7217,20.5644
96.4491,20.6237
96.4491,20.6237
96.1877,20.7212
95.9428,20.8549
95.7194,21.0221
95.5221,21.2194
95.3549,21.4428
95.2212,21.6877
95.1237,21.9491
95.1237,21.9491
95.0648,22.2198
95.0325,22.2663
94.9768,22.2764
94.9303,22.2441
94.9284,22.2411
94.9005,22.1927
94.8073,22.0995
94.7083,22.0423
94.6932,22.0336
94.6932,22.0336
94.5659,21.9995
94.5659,21.9995
88.0659,21.9995
87.9341,21.9995
87.9341,21.9995
87.8068,22.0336
87.8068,22.0336
87.6927,22.0995
87.5995,22.1927
87.5716,22.2411
87.5266,22.2756
87.4705,22.2682
87.4360,22.2232
87.4352,22.2198
87.4293,22.1927
87.3763,21.9491
87.3763,21.9491
87.3763,21.9491
87.2788,21.6877
87.1451,21.4428
87.0787,21.3541
86.9779,21.2194
86.7806,21.0221
86.6630,20.9341
86.5572,20.8549
86.3123,20.7212
86.0509,20.6237
86.0509,20.6237
86.0509,20.6237
85.9960,20.6118
85.7783,20.5644
85.5000,20.5445
85.5000,20.5445
85.2217,20.5644
84.9491,20.6237
84.9491,20.6237
84.6877,20.7212
84.4775,20.8360
84.4212,20.8420
84.3897,20.8233
83.9869,20.4205
83.5459,19.9795
83.5459,19.9795
83.5459,19.9795
83.4546,19.9268
83.4546,19.9268
83.4373,19.9222
83.3527,19.8995
83.3527,19.8995
80.9865,19.8995
80.9342,19.8778
77.2855,16.2291
77.2638,16.1767
77.2670,16.1553
77.3153,15.9959
77.3356,15.7900
77.3153,15.5841
77.2552,15.3860
77.1577,15.2035
77.0264,15.0436
76.8665,14.9123
76.6840,14.8148
76.5722,14.7809
76.4859,14.7547
76.2800,14.7344
76.0741,14.7547
75.8760,14.8148
75.6935,14.9123
75.5336,15.0436
75.5336,15.0436
75.4023,15.2035
75.3048,15.3860
75.2447,15.5841
75.2244,15.7900
75.2447,15.9959
75.2479,16.0065
75.3044,16.1927
75.3048,16.1940
75.4023,16.3764
75.5287,16.5305
75.5336,16.5364
75.6936,16.6677
75.8760,16.7652
76.0741,16.8253
76.2800,16.8456
76.4859,16.8253
76.6453,16.7770
76.7016,16.7825
76.7191,16.7955
80.2968,20.3732
80.3185,20.4255
80.2968,20.4778
80.2445,20.4995
77.9341,20.4995
77.8068,20.5336
77.8068,20.5336
77.6927,20.5995
77.5995,20.6927
77.5336,20.8068
77.5336,20.8068
77.4995,20.9341
77.4995,21.8693
77.4778,21.9216
77.4255,21.9433
77.3732,21.9216
77.3562,21.8952
77.2788,21.6877
77.1451,21.4428
77.0787,21.3541
76.9779,21.2194
76.7806,21.0221
76.6630,20.9341
76.5572,20.8549
76.3123,20.7212
76.0509,20.6237
76.0509,20.6237
76.0509,20.6237
75.9960,20.6118
75.7783,20.5644
75.5000,20.5445
75.5000,20.5445
75.2217,20.5644
74.9491,20.6237
74.9491,20.6237
74.6877,20.7212
74.4428,20.8549
74.2194,21.0221
74.0221,21.2194
73.8549,21.4428
73.7894,21.5627
73.7453,21.5983
73.6890,21.5922
73.6535,21.5481
73.6505,21.5273
73.6505,16.9184
73.6722,16.8661
73.7245,16.8444
73.7318,16.8448
73.7325,16.8448
73.7400,16.8456
73.9459,16.8253
74.1440,16.7652
74.3264,16.6677
74.4864,16.5364
74.6177,16.3764
74.7152,16.1940
74.7753,15.9959
74.7956,15.7900
74.7753,15.5841
74.7152,15.3860
74.6177,15.2035
74.4864,15.0436
74.3264,14.9123
74.1440,14.8148
74.0322,14.7809
73.9459,14.7547
73.7400,14.7344
73.5341,14.7547
73.3360,14.8148
73.1535,14.9123
72.9936,15.0436
72.9936,15.0436
72.8623,15.2035
72.7648,15.3860
72.7047,15.5841
72.6844,15.7900
72.7047,15.9959
72.7079,16.0065
72.7648,16.1940
72.8251,16.3068
72.8408,16.3361
72.8495,16.3710
72.8495,59.4473
72.8495,59.5527
72.8688,59.6247
72.8768,59.6546
72.8768,59.6546
72.9295,59.7459
72.9295,59.7459
72.9295,59.7459
73.5568,60.3732
73.5785,60.4255
73.5568,60.4778
73.5045,60.4995
47.2455,60.4995
47.1932,60.4778
47.1715,60.4255
47.1932,60.3732
47.2668,60.2996
47.5999,59.9665
47.6470,59.9450
47.7783,59.9356
48.0509,59.8763
48.0509,59.8763
48.0509,59.8763
48.3123,59.7788
48.3336,59.7672
48.5572,59.6451
48.7806,59.4779
48.9779,59.2806
49.1451,59.0572
49.2788,58.8123
49.2788,58.8123
49.2788,58.8123
49.3763,58.5509
49.3763,58.5509
49.3763,58.5509
49.4352,58.2802
49.4675,58.2337
49.5232,58.2236
49.5697,58.2559
49.5716,58.2589
49.5827,58.2783
49.5995,58.3073
49.6927,58.4005
49.8068,58.4664
49.9341,58.5005
49.9341,58.5005
49.9341,58.5005
56.5659,58.5005
56.5659,58.5005
56.6932,58.4664
56.8073,58.4005
56.9005,58.3073
56.9284,58.2589
56.9734,58.2244
57.0295,58.2318
57.0640,58.2768
57.0648,58.2802
57.1237,58.5509
57.1237,58.5509
57.2212,58.8123
57.3549,59.0572
57.3890,59.1027
57.5221,59.2806
57.7194,59.4779
57.8194,59.5527
57.9428,59.6451
58.1877,59.7788
58.4491,59.8763
58.4491,59.8763
58.4491,59.8763
58.7217,59.9356
58.7835,59.9400
59.0000,59.9555
59.0000,59.9555
59.0000,59.9555
59.1948,59.9415
59.2783,59.9356
59.5509,59.8763
59.5509,59.8763
59.5509,59.8763
59.8123,59.7788
59.8336,59.7672
60.0572,59.6451
60.2806,59.4779
60.4779,59.2806
60.6451,59.0572
60.7788,58.8123
60.7788,58.8123
60.7788,58.8123
60.8562,58.6048
60.8948,58.5634
60.9514,58.5614
60.9928,58.5999
60.9995,58.6307
60.9995,59.0659
61.0336,59.1932
61.0336,59.1932
61.0336,59.1932
61.0995,59.3073
61.1927,59.4005
61.3068,59.4664
61.4341,59.5005
61.4341,59.5005
61.4341,59.5005
66.5659,59.5005
66.5659,59.5005
66.6932,59.4664
66.8073,59.4005
66.9005,59.3073
66.9664,59.1932
67.0005,59.0659
67.0005,59.0659
67.0005,58.6307
67.0222,58.5784
67.0745,58.5567
67.1268,58.5784
67.1438,58.6048
67.2212,58.8123
67.3549,59.0572
67.3890,59.1027
67.5221,59.2806
67.7194,59.4779
67.8194,59.5527
67.9428,59.6451
68.1877,59.7788
68.4491,59.8763
68.4491,59.8763
68.4491,59.8763
68.7217,59.9356
68.7835,59.9400
69.0000,59.9555
69.0000,59.9555
69.0000,59.9555
69.1948,59.9415
69.2783,59.9356
69.5509,59.8763
69.5509,59.8763
69.5509,59.8763
69.8123,59.7788
69.8336,59.7672
70.0572,59.6451
70.2806,59.4779
70.4779,59.2806
70.6451,59.0572
70.7788,58.8123
70.7788,58.8123
70.7788,58.8123
70.8763,58.5509
70.8763,58.5509
70.8763,58.5509
70.9356,58.2783
70.9450,58.1470
70.9665,58.0999
71.5205,57.5459
71.5297,57.5300
71.5732,57.4546
71.6005,57.3527
71.6005,57.3527
71.6005,16.8114
71.6222,16.7591
71.6396,16.7462
71.6552,16.7378
71.7865,16.6677
71.9464,16.5364
72.0777,16.3764
72.1752,16.1940
72.2353,15.9959
72.2556,15.7900
72.2353,15.5841
72.1752,15.3860
72.0777,15.2035
71.9464,15.0436
71.7865,14.9123
71.6040,14.8148
71.4922,14.7809
71.4059,14.7547
71.2000,14.7344
70.9941,14.7547
70.7960,14.8148
70.6135,14.9123
70.4536,15.0436
70.4536,15.0436
70.3223,15.2035
70.2248,15.3860
70.1647,15.5841
70.1444,15.7900
70.1647,15.9959
70.1679,16.0065
70.2244,16.1927
70.2248,16.1940
70.3223,16.3764
70.4487,16.5305
70.4536,16.5364
70.6136,16.6677
70.7448,16.7378
70.7604,16.7462
70.7963,16.7900
70.7995,16.8114
70.7995,21.4357
70.7778,21.4880
70.7255,21.5097
70.6732,21.4880
70.6606,21.4712
70.6451,21.4428
70.5787,21.3541
70.4779,21.2194
70.2806,21.0221
70.1630,20.9341
70.0572,20.8549
69.8123,20.7212
69.5509,20.6237
69.5509,20.6237
69.5509,20.6237
69.4588,20.6037
69.4122,20.5714
69.4005,20.5314
69.4005,16.5701
69.4173,16.5231
69.5377,16.3764
69.6352,16.1940
69.6953,15.9959
69.7156,15.7900
69.6953,15.5841
69.6352,15.3860
69.5377,15.2035
69.4064,15.0436
69.2464,14.9123
69.0640,14.8148
68.9522,14.7809
68.8659,14.7547
68.6600,14.7344
68.4541,14.7547
68.2560,14.8148
68.0735,14.9123
67.9136,15.0436
67.9136,15.0436
67.7823,15.2035
67.6848,15.3860
67.6247,15.5841
67.6044,15.7900
67.6247,15.9959
67.6279,16.0065
67.6844,16.1927
67.6848,16.1940
67.7823,16.3764
67.9087,16.5305
67.9136,16.5364
68.0735,16.6677
68.2560,16.7652
68.4541,16.8253
68.5328,16.8331
68.5827,16.8597
68.5995,16.9067
68.5995,20.5314
68.5778,20.5837
68.5412,20.6037
68.4491,20.6237
68.4491,20.6237
68.1877,20.7212
67.9428,20.8549
67.7194,21.0221
67.5221,21.2194
67.3549,21.4428
67.2212,21.6877
67.1438,21.8952
67.1052,21.9366
67.0486,21.9386
67.0072,21.9001
67.0005,21.8693
67.0005,20.9341
67.0005,20.9341
66.9817,20.8641
66.9664,20.8068
66.9005,20.6927
66.8073,20.5995
66.7586,20.5714
66.6932,20.5336
66.6932,20.5336
66.5659,20.4995
66.5659,20.4995
62.1555,20.4995
62.1032,20.4778
62.0815,20.4255
62.1032,20.3732
65.6809,16.7955
65.7333,16.7738
65.7547,16.7770
65.9141,16.8253
66.1200,16.8456
66.3259,16.8253
66.5240,16.7652
66.7065,16.6677
66.8664,16.5364
66.9977,16.3764
67.0952,16.1940
67.1553,15.9959
67.1756,15.7900
67.1553,15.5841
67.0952,15.3860
66.9977,15.2035
66.8664,15.0436
66.7065,14.9123
66.5240,14.8148
66.4122,14.7809
66.3259,14.7547
66.1200,14.7344
65.9141,14.7547
65.7160,14.8148
65.5335,14.9123
65.3736,15.0436
65.3736,15.0436
65.2423,15.2035
65.1448,15.3860
65.0847,15.5841
65.0644,15.7900
65.0847,15.9959
65.1330,16.1553
65.1275,16.2116
65.1145,16.2291
61.6658,19.6778
61.6135,19.6995
60.4155,19.6995
60.3632,19.6778
60.3415,19.6255
60.3632,19.5732
61.0533,18.8831
63.1409,16.7955
63.1933,16.7738
63.2147,16.7770
63.3741,16.8253
63.5800,16.8456
63.7859,16.8253
63.9840,16.7652
64.1664,16.6677
64.3264,16.5364
64.4577,16.3764
64.5552,16.1940
64.6153,15.9959
64.6356,15.7900
64.6153,15.5841
64.5552,15.3860
64.4577,15.2035
64.3264,15.0436
64.1664,14.9123
63.9840,14.8148
63.8722,14.7809
63.7859,14.7547
63.5800,14.7344
63.3741,14.7547
63.1760,14.8148
62.9935,14.9123
62.8336,15.0436
62.8336,15.0436
62.7023,15.2035
62.6048,15.3860
62.5447,15.5841
62.5244,15.7900
62.5447,15.9959
62.5930,16.1553
62.5875,16.2116
62.5745,16.2291
59.7258,19.0778
59.6735,19.0995
58.4755,19.0995
58.4232,19.0778
58.4015,19.0255
58.4232,18.9732
58.9219,18.4745
60.6009,16.7955
60.6533,16.7738
60.6747,16.7770
60.8341,16.8253
61.0400,16.8456
61.2459,16.8253
61.4440,16.7652
61.6264,16.6677
61.7864,16.5364
61.9177,16.3764
62.0152,16.1940
62.0753,15.9959
62.0956,15.7900
62.0753,15.5841
62.0152,15.3860
61.9177,15.2035
61.7864,15.0436
61.6264,14.9123
61.4440,14.8148
61.3322,14.7809
61.2459,14.7547
61.0400,14.7344
60.8341,14.7547
60.6360,14.8148
60.4535,14.9123
60.2936,15.0436
60.2936,15.0436
60.1623,15.2035
60.0648,15.3860
60.0047,15.5841
59.9844,15.7900
60.0047,15.9959
60.0530,16.1553
60.0475,16.2116
60.0345,16.2291
59.6768,16.5868
59.6245,16.6085
59.5722,16.5868
59.5505,16.5345
59.5505,14.9203
59.5489,14.9123
59.5389,14.8618
59.4946,14.7954
59.4723,14.7806
59.4282,14.7511
59.4282,14.7511
59.3990,14.7453
59.3697,14.7395
57.6303,14.7395
57.6010,14.7453
57.5718,14.7511
57.5054,14.7954
57.5054,14.7954
57.4611,14.8618
57.4495,14.9203
57.4495,16.5985
57.4278,16.6508
56.2008,17.8778
56.1485,17.8995
36.7527,17.8995
36.6473,17.8995
36.5963,17.9131
36.5454,17.9268
36.5454,17.9268
36.4541,17.9795
32.8371,21.5965
32.7847,21.6182
32.7324,21.5965
32.7198,21.5797
32.6451,21.4428
32.5787,21.3541
32.4779,21.2194
32.2806,21.0221
32.1630,20.9341
32.0572,20.8549
31.8123,20.7212
31.5509,20.6237
31.5509,20.6237
31.5509,20.6237
31.4960,20.6118
31.2783,20.5644
31.0000,20.5445
31.0000,20.5445
30.7217,20.5644
30.4491,20.6237
30.4491,20.6237
30.1877,20.7212
29.9428,20.8549
29.7194,21.0221
29.5221,21.2194
29.3549,21.4428
29.2212,21.6877
29.1438,21.8952
29.1052,21.9366
29.0486,21.9386
29.0072,21.9001
29.0005,21.8693
29.0005,20.9341
29.0005,20.9341
28.9817,20.8641
28.9664,20.8068
28.9005,20.6927
28.8073,20.5995
28.7586,20.5714
28.6932,20.5336
28.6932,20.5336
28.5659,20.4995
28.5659,20.4995
23.5659,20.4995
23.4341,20.4995
23.4341,20.4995
23.3068,20.5336
23.3068,20.5336
23.1927,20.5995
23.0995,20.6927
23.0336,20.8068
23.0336,20.8068
22.9995,20.9341
22.9995,21.8693
22.9778,21.9216
22.9255,21.9433
22.8732,21.9216
22.8562,21.8952
22.7788,21.6877
22.6451,21.4428
22.5787,21.3541
22.4779,21.2194
22.2806,21.0221
22.1630,20.9341
22.0572,20.8549
21.8123,20.7212
21.5509,20.6237
21.5509,20.6237
21.5509,20.6237
21.4960,20.6118
21.2783,20.5644
21.0000,20.5445
21.0000,20.5445
20.7217,20.5644
20.4491,20.6237
20.4491,20.6237
20.1877,20.7212
19.9428,20.8549
19.7194,21.0221
19.5221,21.2194
19.3549,21.4428
19.2212,21.6877
19.1237,21.9491
19.1237,21.9491
19.0644,22.2217
19.0445,22.5000
19.0445,22.5000
19.0644,22.7783
19.1237,23.0509
19.1237,23.0509
19.2212,23.3123
19.3549,23.5572
19.4244,23.6501
19.5221,23.7806
19.7194,23.9779
19.8643,24.0863
19.9428,24.1451
20.1877,24.2788
20.3952,24.3562
20.4366,24.3948
20.4386,24.4514
20.4001,24.4928
20.3693,24.4995
19.4341,24.4995
19.3068,24.5336
19.3068,24.5336
19.1927,24.5995
19.0995,24.6927
19.0336,24.8068
19.0336,24.8068
18.9995,24.9341
18.9995,55.5659
19.0336,55.6932
19.0336,55.6932
19.0336,55.6932
19.0995,55.8073
19.1927,55.9005
19.3068,55.9664
19.4341,56.0005
19.4341,56.0005
19.4341,56.0005
20.3693,56.0005
20.4216,56.0222
20.4433,56.0745
20.4216,56.1268
20.3952,56.1438
20.1877,56.2212
19.9428,56.3549
19.7194,56.5221
19.5221,56.7194
19.3549,56.9428
19.2212,57.1877
19.1237,57.4491
19.1237,57.4491
19.0644,57.7217
19.0445,58.0000
19.0445,58.0000
19.0644,58.2783
19.1237,58.5509
19.1237,58.5509
19.2212,58.8123
19.3549,59.0572
19.3890,59.1027
19.5221,59.2806
19.7194,59.4779
19.8194,59.5527
19.9428,59.6451
20.1877,59.7788
20.4491,59.8763
20.4491,59.8763
20.4491,59.8763
20.7217,59.9356
20.7835,59.9400
21.0000,59.9555
21.0000,59.9555
21.0000,59.9555
21.1948,59.9415
21.2783,59.9356
21.5509,59.8763
21.5509,59.8763
21.5509,59.8763
21.8123,59.7788
21.8336,59.7672
22.0572,59.6451
22.2806,59.4779
22.4779,59.2806
22.6451,59.0572
22.7788,58.8123
22.7788,58.8123
22.7788,58.8123
22.8562,58.6048
22.8948,58.5634
22.9514,58.5614
22.9928,58.5999
22.9995,58.6307
22.9995,59.0659
23.0336,59.1932
23.0336,59.1932
23.0336,59.1932
23.0995,59.3073
23.1927,59.4005
23.3068,59.4664
23.4341,59.5005
23.4341,59.5005
23.4341,59.5005
28.5659,59.5005
28.5659,59.5005
28.6932,59.4664
28.8073,59.4005
28.9005,59.3073
28.9664,59.1932
29.0005,59.0659
29.0005,59.0659
29.0005,58.6307
29.0222,58.5784
29.0745,58.5567
29.1268,58.5784
29.1438,58.6048
29.2212,58.8123
29.3549,59.0572
29.3890,59.1027
29.5221,59.2806
29.7194,59.4779
29.8194,59.5527
29.9428,59.6451
30.1877,59.7788
30.4491,59.8763
30.4491,59.8763
30.4491,59.8763
30.7217,59.9356
30.7835,59.9400
31.0000,59.9555
31.0000,59.9555
31.0000,59.9555
31.1948,59.9415
31.2783,59.9356
31.5509,59.8763
31.5509,59.8763
31.5509,59.8763
31.8123,59.7788
31.8336,59.7672
32.0572,59.6451
32.2806,59.4779
32.4779,59.2806
32.6451,59.0572
32.7788,58.8123
32.7788,58.8123
32.7788,58.8123
32.8763,58.5509
32.8763,58.5509
32.8763,58.5509
32.9356,58.2783
32.9450,58.1470
32.9665,58.0999
33.5205,57.5459
33.5297,57.5300
33.5732,57.4546
33.6005,57.3527
33.6005,57.3527
33.6005,22.9965
33.6222,22.9442
34.7732,21.7932
34.8255,21.7715
34.8778,21.7932
34.8995,21.8455
34.8995,58.9973
34.8995,59.1027
34.9237,59.1932
34.9268,59.2046
34.9268,59.2046
34.9795,59.2959
34.9795,59.2959
34.9795,59.2959
35.5207,59.8371
36.0568,60.3732
36.0785,60.4255
36.0568,60.4778
36.0045,60.4995
7.5745,60.4995
7.5222,60.4778
7.5005,60.4255
7.5005,56.5000
8.2950,56.5000
8.3151,56.8589
8.3151,56.8589
8.3753,57.2132
8.4748,57.5586
8.6124,57.8906
8.6124,57.8906
8.7862,58.2052
8.7862,58.2052
8.9942,58.4983
9.1002,58.6169
10.2355,57.4817
10.2796,57.5423
10.4577,57.7204
10.5183,57.7645
9.3831,58.8998
9.5017,59.0058
9.7948,59.2138
9.7948,59.2138
10.1094,59.3876
10.1094,59.3876
10.4414,59.5252
10.7868,59.6247
10.7868,59.6247
11.1411,59.6849
11.1411,59.6849
11.5000,59.7050
11.8589,59.6849
11.8589,59.6849
12.2132,59.6247
12.5586,59.5252
12.8906,59.3876
12.8906,59.3876
13.2052,59.2138
13.2052,59.2138
13.4983,59.0058
13.6169,58.8998
13.6169,58.8998
12.4817,57.7645
12.5423,57.7204
12.7204,57.5423
12.7645,57.4817
13.8998,58.6169
13.8998,58.6169
14.0058,58.4983
14.2138,58.2052
14.2138,58.2052
14.3876,57.8906
14.3876,57.8906
14.5252,57.5586
14.6247,57.2132
14.6849,56.8589
14.6849,56.8589
14.7050,56.5000
14.6849,56.1411
14.6849,56.1411
14.6247,55.7868
14.5252,55.4414
14.3876,55.1094
14.3876,55.1094
14.2138,54.7948
14.2138,54.7948
14.0058,54.5017
13.8998,54.3831
13.8998,54.3831
12.7645,55.5183
12.7204,55.4577
12.5423,55.2796
12.4817,55.2355
13.6169,54.1002
13.4983,53.9942
13.2052,53.7862
13.2052,53.7862
12.8906,53.6124
12.8906,53.6124
12.5586,53.4748
12.2132,53.3753
12.2132,53.3753
11.8589,53.3151
11.8589,53.3151
11.5000,53.2950
11.1411,53.3151
11.1411,53.3151
10.7868,53.3753
10.4414,53.4748
10.1094,53.6124
10.1094,53.6124
9.7948,53.7862
9.7948,53.7862
9.5017,53.9942
9.3831,54.1002
10.5183,55.2355
10.4577,55.2796
10.2796,55.4577
10.2355,55.5183
9.1002,54.3831
8.9942,54.5017
8.7862,54.7948
8.7862,54.7948
8.6124,55.1094
8.6124,55.1094
8.4748,55.4414
8.3753,55.7868
8.3151,56.1411
8.3151,56.1411
8.2950,56.5000
7.5005,56.5000
7.5005,21.0000
8.2950,21.0000
8.3151,21.3589
8.3151,21.3589
8.3753,21.7132
8.4748,22.0586
8.6124,22.3906
8.6124,22.3906
8.7862,22.7052
8.7862,22.7052
8.9942,22.9983
9.1002,23.1169
10.2355,21.9817
10.2796,22.0423
10.4577,22.2204
10.5183,22.2645
9.3831,23.3998
9.5017,23.5058
9.7948,23.7138
9.7948,23.7138
10.1094,23.8876
10.1094,23.8876
10.4414,24.0252
10.7868,24.1247
10.7868,24.1247
11.1411,24.1849
11.1411,24.1849
11.5000,24.2050
11.8589,24.1849
11.8589,24.1849
12.2132,24.1247
12.5586,24.0252
12.8906,23.8876
12.8906,23.8876
13.2052,23.7138
13.2052,23.7138
13.4983,23.5058
13.6169,23.3998
13.6169,23.3998
12.4817,22.2645
12.5423,22.2204
12.7204,22.0423
12.7645,21.9817
13.8998,23.1169
13.8998,23.1169
14.0058,22.9983
14.2138,22.7052
14.2138,22.7052
14.3876,22.3906
14.3876,22.3906
14.5252,22.0586
14.6247,21.7132
14.6849,21.3589
14.6849,21.3589
14.7050,21.0000
14.6849,20.6411
14.6849,20.6411
14.6247,20.2868
14.5252,19.9414
14.3876,19.6094
14.3876,19.6094
14.2138,19.2948
14.2138,19.2948
14.0058,19.0017
13.8998,18.8831
13.8998,18.8831
12.7645,20.0183
12.7204,19.9577
12.5423,19.7796
12.4817,19.7355
13.6169,18.6002
13.4983,18.4942
13.2052,18.2862
13.2052,18.2862
12.8906,18.1124
12.8906,18.1124
12.5586,17.9748
12.2132,17.8753
12.2132,17.8753
11.8589,17.8151
11.8589,17.8151
11.5000,17.7950
11.1411,17.8151
11.1411,17.8151
10.7868,17.8753
10.4414,17.9748
10.1094,18.1124
10.1094,18.1124
9.7948,18.2862
9.7948,18.2862
9.5017,18.4942
9.3831,18.6002
10.5183,19.7355
10.4577,19.7796
10.2796,19.9577
10.2355,20.0183
9.1002,18.8831
8.9942,19.0017
8.7862,19.2948
8.7862,19.2948
8.6124,19.6094
8.6124,19.6094
8.4748,19.9414
8.3753,20.2868
8.3151,20.6411
8.3151,20.6411
8.2950,21.0000
7.5005,21.0000
7.5005,17.0745
7.5222,17.0222
7.5745,17.0005
56.4659,17.0005
56.4659,17.0005
56.5932,16.9664
56.7073,16.9005
56.8005,16.8073
56.8664,16.6932
56.9005,16.5659
56.9005,16.5659
56.9005,13.2500
57.4444,13.2500
57.4647,13.4559
57.5248,13.6540
57.6223,13.8364
57.7536,13.9964
57.9136,14.1277
58.0960,14.2252
58.2941,14.2853
58.5000,14.3056
58.7059,14.2853
58.9040,14.2252
59.0864,14.1277
59.2464,13.9964
59.3777,13.8364
59.4752,13.6540
59.5353,13.4559
59.5556,13.2500
59.9844,13.2500
60.0047,13.4559
60.0648,13.6540
60.1623,13.8364
60.2936,13.9964
60.4535,14.1277
60.6360,14.2252
60.8341,14.2853
61.0400,14.3056
61.2459,14.2853
61.4440,14.2252
61.6264,14.1277
61.7864,13.9964
61.9177,13.8364
62.0152,13.6540
62.0753,13.4559
62.0956,13.2500
62.5244,13.2500
62.5447,13.4559
62.6048,13.6540
62.7023,13.8364
62.8336,13.9964
62.9935,14.1277
63.1760,14.2252
63.3741,14.2853
63.5800,14.3056
63.7859,14.2853
63.9840,14.2252
64.1664,14.1277
64.3264,13.9964
64.4577,13.8364
64.5552,13.6540
64.6153,13.4559
64.6356,13.2500
65.0644,13.2500
65.0847,13.4559
65.1448,13.6540
65.2423,13.8364
65.3736,13.9964
65.5335,14.1277
65.7160,14.2252
65.9141,14.2853
66.1200,14.3056
66.3259,14.2853
66.5240,14.2252
66.7065,14.1277
66.8664,13.9964
66.9977,13.8364
67.0952,13.6540
67.1553,13.4559
67.1756,13.2500
67.6044,13.2500
67.6247,13.4559
67.6848,13.6540
67.7823,13.8364
67.9136,13.9964
68.0735,14.1277
68.2560,14.2252
68.4541,14.2853
68.6600,14.3056
68.8659,14.2853
69.0640,14.2252
69.2464,14.1277
69.4064,13.9964
69.5377,13.8364
69.6352,13.6540
69.6953,13.4559
69.7156,13.2500
70.1444,13.2500
70.1647,13.4559
70.2248,13.6540
70.3223,13.8364
70.4536,13.9964
70.6136,14.1277
70.7960,14.2252
70.9941,14.2853
71.2000,14.3056
71.4059,14.2853
71.6040,14.2252
71.7865,14.1277
71.9464,13.9964
72.0777,13.8364
72.1752,13.6540
72.2353,13.4559
72.2556,13.2500
72.6844,13.2500
72.7047,13.4559
72.7648,13.6540
72.8623,13.8364
72.9936,13.9964
73.1535,14.1277
73.3360,14.2252
73.5341,14.2853
73.7400,14.3056
73.9459,14.2853
74.1440,14.2252
74.3264,14.1277
74.4864,13.9964
74.6177,13.8364
74.7152,13.6540
74.7753,13.4559
74.7956,13.2500
75.2244,13.2500
75.2447,13.4559
75.3048,13.6540
75.4023,13.8364
75.5336,13.9964
75.6936,14.1277
75.8760,14.2252
76.0741,14.2853
76.2800,14.3056
76.4859,14.2853
76.6840,14.2252
76.8665,14.1277
77.0264,13.9964
77.1577,13.8364
77.2552,13.6540
77.3153,13.4559
77.3356,13.2500
77.7644,13.2500
77.7847,13.4559
77.8448,13.6540
77.9423,13.8364
78.0736,13.9964
78.2335,14.1277
78.4160,14.2252
78.6141,14.2853
78.8200,14.3056
79.0259,14.2853
79.2240,14.2252
79.4064,14.1277
79.5664,13.9964
79.6977,13.8364
79.7952,13.6540
79.8553,13.4559
79.8756,13.2500
80.3044,13.2500
80.3247,13.4559
80.3848,13.6540
80.4823,13.8364
80.6136,13.9964
80.7736,14.1277
80.9560,14.2252
81.1541,14.2853
81.3600,14.3056
81.5659,14.2853
81.7640,14.2252
81.9464,14.1277
82.1064,13.9964
82.2377,13.8364
82.3352,13.6540
82.3953,13.4559
82.4156,13.2500
82.8444,13.2500
82.8647,13.4559
82.9248,13.6540
83.0223,13.8364
83.1536,13.9964
83.3135,14.1277
83.4960,14.2252
83.6941,14.2853
83.9000,14.3056
84.1059,14.2853
84.3040,14.2252
84.4864,14.1277
84.6464,13.9964
84.7777,13.8364
84.8752,13.6540
84.9353,13.4559
84.9556,13.2500
85.3844,13.2500
85.4047,13.4559
85.4648,13.6540
85.5623,13.8364
85.6936,13.9964
85.8535,14.1277
86.0360,14.2252
86.2341,14.2853
86.4400,14.3056
86.6459,14.2853
86.8440,14.2252
87.0264,14.1277
87.1864,13.9964
87.3177,13.8364
87.4152,13.6540
87.4753,13.4559
87.4956,13.2500
87.4753,13.0441
87.4152,12.8460
87.3177,12.6635
87.1864,12.5036
87.0264,12.3723
86.8440,12.2748
86.7322,12.2409
86.6459,12.2147
86.4400,12.1944
86.2341,12.2147
86.0360,12.2748
85.8535,12.3723
85.6936,12.5036
85.6936,12.5036
85.5623,12.6635
85.4648,12.8460
85.4047,13.0441
85.4047,13.0441
85.3844,13.2500
84.9556,13.2500
84.9353,13.0441
84.8752,12.8460
84.7777,12.6635
84.6464,12.5036
84.4864,12.3723
84.3040,12.2748
84.1922,12.2409
84.1059,12.2147
83.9000,12.1944
83.6941,12.2147
83.4960,12.2748
83.3135,12.3723
83.1536,12.5036
83.1536,12.5036
83.0223,12.6635
82.9248,12.8460
82.8647,13.0441
82.8647,13.0441
82.8444,13.2500
82.4156,13.2500
82.3953,13.0441
82.3352,12.8460
82.2377,12.6635
82.1064,12.5036
81.9464,12.3723
81.7640,12.2748
81.6522,12.2409
81.5659,12.2147
81.3600,12.1944
81.1541,12.2147
80.9560,12.2748
80.7735,12.3723
80.6136,12.5036
80.6136,12.5036
80.4823,12.6635
80.3848,12.8460
80.3247,13.0441
80.3247,13.0441
80.3044,13.2500
79.8756,13.2500
79.8553,13.0441
79.7952,12.8460
79.6977,12.6635
79.5664,12.5036
79.4064,12.3723
79.2240,12.2748
79.1122,12.2409
79.0259,12.2147
78.8200,12.1944
78.6141,12.2147
78.4160,12.2748
78.2335,12.3723
78.0736,12.5036
78.0736,12.5036
77.9423,12.6635
77.8448,12.8460
77.7847,13.0441
77.7847,13.0441
77.7644,13.2500
77.3356,13.2500
77.3153,13.0441
77.2552,12.8460
77.1577,12.6635
77.0264,12.5036
76.8665,12.3723
76.6840,12.2748
76.5722,12.2409
76.4859,12.2147
76.2800,12.1944
76.0741,12.2147
75.8760,12.2748
75.6935,12.3723
75.5336,12.5036
75.5336,12.5036
75.4023,12.6635
75.3048,12.8460
75.2447,13.0441
75.2447,13.0441
75.2244,13.2500
74.7956,13.2500
74.7753,13.0441
74.7152,12.8460
74.6177,12.6635
74.4864,12.5036
74.3264,12.3723
74.1440,12.2748
74.0322,12.2409
73.9459,12.2147
73.7400,12.1944
73.5341,12.2147
73.3360,12.2748
73.1535,12.3723
72.9936,12.5036
72.9936,12.5036
72.8623,12.6635
72.7648,12.8460
72.7047,13.0441
72.7047,13.0441
72.6844,13.2500
72.2556,13.2500
72.2353,13.0441
72.1752,12.8460
72.0777,12.6635
71.9464,12.5036
71.7865,12.3723
71.6040,12.2748
71.4922,12.2409
71.4059,12.2147
71.2000,12.1944
70.9941,12.2147
70.7960,12.2748
70.6135,12.3723
70.4536,12.5036
70.4536,12.5036
70.3223,12.6635
70.2248,12.8460
70.1647,13.0441
70.1647,13.0441
70.1444,13.2500
69.7156,13.2500
69.6953,13.0441
69.6352,12.8460
69.5377,12.6635
69.4064,12.5036
69.2464,12.3723
69.0640,12.2748
68.9522,12.2409
68.8659,12.2147
68.6600,12.1944
68.4541,12.2147
68.2560,12.2748
68.0735,12.3723
67.9136,12.5036
67.9136,12.5036
67.7823,12.6635
67.6848,12.8460
67.6247,13.0441
67.6247,13.0441
67.6044,13.2500
67.1756,13.2500
67.1553,13.0441
67.0952,12.8460
66.9977,12.6635
66.8664,12.5036
66.7065,12.3723
66.5240,12.2748
66.4122,12.2409
66.3259,12.2147
66.1200,12.1944
65.9141,12.2147
65.7160,12.2748
65.5335,12.3723
65.3736,12.5036
65.3736,12.5036
65.2423,12.6635
65.1448,12.8460
65.0847,13.0441
65.0847,13.0441
65.0644,13.2500
64.6356,13.2500
64.6153,13.0441
64.5552,12.8460
64.4577,12.6635
64.3264,12.5036
64.1664,12.3723
63.9840,12.2748
63.8722,12.2409
63.7859,12.2147
63.5800,12.1944
63.3741,12.2147
63.1760,12.2748
62.9935,12.3723
62.8336,12.5036
62.8336,12.5036
62.7023,12.6635
62.6048,12.8460
62.5447,13.0441
62.5447,13.0441
62.5244,13.2500
62.0956,13.2500
62.0753,13.0441
62.0152,12.8460
61.9177,12.6635
61.7864,12.5036
61.6264,12.3723
61.4440,12.2748
61.3322,12.2409
61.2459,12.2147
61.0400,12.1944
60.8341,12.2147
60.6360,12.2748
60.4535,12.3723
60.2936,12.5036
60.2936,12.5036
60.1623,12.6635
60.0648,12.8460
60.0047,13.0441
60.0047,13.0441
59.9844,13.2500
59.5556,13.2500
59.5353,13.0441
59.4752,12.8460
59.3777,12.6635
59.2464,12.5036
59.0864,12.3723
58.9040,12.2748
58.7922,12.2409
58.7059,12.2147
58.5000,12.1944
58.2941,12.2147
58.0960,12.2748
57.9135,12.3723
57.7536,12.5036
57.7536,12.5036
57.6223,12.6635
57.5248,12.8460
57.4647,13.0441
57.4647,13.0441
57.4444,13.2500
56.9005,13.2500
56.9005,3.0745
56.9222,3.0222
56.9745,3.0005
87.9255,3.0005
Z" /> 
<path style="fill:#C83434; fill-opacity:1.0000; stroke:none;fill-rule:evenodd;"
d="M 59.2968,16.8622
59.3185,16.9145
59.2968,16.9668
57.7858,18.4778
57.7335,18.4995
56.8905,18.4995
56.8382,18.4778
56.8165,18.4255
56.8382,18.3732
58.3492,16.8622
58.4015,16.8405
59.2445,16.8405
Z" /> 
<path style="fill:#C83434; fill-opacity:1.0000; stroke:none;fill-rule:evenodd;"
d="M 123.3558,18.4222
125.7778,20.8442
125.7995,20.8965
125.7995,21.4357
125.7778,21.4880
125.7255,21.5097
125.6732,21.4880
125.6606,21.4712
125.6451,21.4428
125.5787,21.3541
125.4779,21.2194
125.2806,21.0221
125.1630,20.9341
125.0572,20.8549
124.8123,20.7212
124.5509,20.6237
124.5509,20.6237
124.5509,20.6237
124.4960,20.6118
124.2783,20.5644
124.1470,20.5550
124.0999,20.5335
122.0932,18.5268
122.0715,18.4745
122.0932,18.4222
122.1455,18.4005
123.3035,18.4005
Z" /> 
<path style="fill:#C83434; fill-opacity:1.0000; stroke:none;fill-rule:evenodd;"
d="M 83.6268,21.1932
83.8233,21.3897
83.8450,21.4421
83.8360,21.4775
83.7212,21.6877
83.6438,21.8952
83.6052,21.9366
83.5486,21.9386
83.5072,21.9001
83.5005,21.8693
83.5005,21.2455
83.5222,21.1932
83.5745,21.1715
Z" /> 
<path style="fill:#C83434; fill-opacity:1.0000; stroke:none;fill-rule:evenodd;"
d="M 61.1654,20.5222
61.1870,20.5745
61.1654,20.6268
61.0995,20.6927
61.0336,20.8068
61.0336,20.8068
60.9995,20.9341
60.9995,21.8693
60.9778,21.9216
60.9255,21.9433
60.8732,21.9216
60.8562,21.8952
60.7788,21.6877
60.6451,21.4428
60.5787,21.3541
60.4779,21.2194
60.2806,21.0221
60.1630,20.9341
60.0572,20.8549
59.8123,20.7212
59.6048,20.6438
59.5634,20.6052
59.5614,20.5486
59.5999,20.5072
59.6307,20.5005
61.1130,20.5005
Z" /> 
<path style="fill:#C83434; fill-opacity:1.0000; stroke:none;fill-rule:evenodd;"
d="M 49.4068,19.9222
49.4285,19.9745
49.4068,20.0268
48.6103,20.8233
48.5579,20.8450
48.5225,20.8360
48.3123,20.7212
48.3123,20.7212
48.0509,20.6237
48.0509,20.6237
48.0509,20.6237
47.9960,20.6118
47.7783,20.5644
47.5000,20.5445
47.5000,20.5445
47.2217,20.5644
46.9491,20.6237
46.9491,20.6237
46.6877,20.7212
46.4428,20.8549
46.2194,21.0221
46.0221,21.2194
45.8549,21.4428
45.7212,21.6877
45.6438,21.8952
45.6052,21.9366
45.5486,21.9386
45.5072,21.9001
45.5005,21.8693
45.5005,20.9341
45.5005,20.9341
45.4817,20.8641
45.4664,20.8068
45.4005,20.6927
45.3073,20.5995
45.2586,20.5714
45.1932,20.5336
45.1932,20.5336
45.0659,20.4995
45.0659,20.4995
40.0659,20.4995
39.9341,20.4995
39.9341,20.4995
39.8068,20.5336
39.8068,20.5336
39.6927,20.5995
39.5995,20.6927
39.5336,20.8068
39.5336,20.8068
39.4995,20.9341
39.4995,21.8693
39.4778,21.9216
39.4255,21.9433
39.3732,21.9216
39.3562,21.8952
39.2788,21.6877
39.1451,21.4428
39.0787,21.3541
38.9779,21.2194
38.7806,21.0221
38.6630,20.9341
38.5572,20.8549
38.3123,20.7212
38.0509,20.6237
38.0509,20.6237
38.0509,20.6237
37.9960,20.6118
37.7783,20.5644
37.5000,20.5445
37.5000,20.5445
37.2217,20.5644
37.1353,20.5832
37.0796,20.5732
37.0473,20.5266
37.0573,20.4709
37.0672,20.4586
37.6037,19.9222
37.6560,19.9005
49.3545,19.9005
Z" /> 
<path style="fill:#C83434; fill-opacity:1.0000; stroke:none;fill-rule:evenodd;"
d="M 58.4216,20.5222
58.4433,20.5745
58.4216,20.6268
58.3952,20.6438
58.1877,20.7212
57.9428,20.8549
57.7194,21.0221
57.5221,21.2194
57.3549,21.4428
57.2212,21.6877
57.1237,21.9491
57.1237,21.9491
57.0648,22.2198
57.0325,22.2663
56.9768,22.2764
56.9303,22.2441
56.9284,22.2411
56.9005,22.1927
56.8073,22.0995
56.7083,22.0423
56.6932,22.0336
56.6932,22.0336
56.5659,21.9995
56.5659,21.9995
50.0659,21.9995
49.9341,21.9995
49.9341,21.9995
49.8068,22.0336
49.8068,22.0336
49.6927,22.0995
49.5995,22.1927
49.5716,22.2411
49.5266,22.2756
49.4705,22.2682
49.4360,22.2232
49.4352,22.2198
49.4293,22.1927
49.3763,21.9491
49.3763,21.9491
49.3763,21.9491
49.2788,21.6877
49.2788,21.6877
49.1640,21.4775
49.1580,21.4212
49.1766,21.3897
50.0442,20.5222
50.0965,20.5005
58.3693,20.5005
Z" /> 
<path style="fill:#C83434; fill-opacity:1.0000; stroke:none;fill-rule:evenodd;"
d="M 35.8268,23.5120
35.8394,23.5288
35.8549,23.5572
36.0221,23.7806
36.2194,23.9779
36.3643,24.0863
36.4428,24.1451
36.6877,24.2788
36.8952,24.3562
36.9366,24.3948
36.9386,24.4514
36.9001,24.4928
36.8693,24.4995
35.9341,24.4995
35.8068,24.5336
35.8028,24.5353
35.7462,24.5353
35.7061,24.4952
35.7005,24.4669
35.7005,23.5643
35.7222,23.5120
35.7745,23.4903
Z" /> 
<path style="fill:#C83434; fill-opacity:1.0000; stroke:none;fill-rule:evenodd;"
d="M 125.7610,23.4993
125.7965,23.5434
125.7995,23.5643
125.7995,24.4669
125.7778,24.5192
125.7255,24.5409
125.6972,24.5353
125.6932,24.5336
125.5659,24.4995
125.5659,24.4995
124.6307,24.4995
124.5784,24.4778
124.5567,24.4255
124.5784,24.3732
124.6048,24.3562
124.8123,24.2788
124.8851,24.2390
125.0572,24.1451
125.2806,23.9779
125.4779,23.7806
125.6451,23.5572
125.6606,23.5288
125.7047,23.4933
Z" /> 
<path style="fill:#C83434; fill-opacity:1.0000; stroke:none;fill-rule:evenodd;"
d="M 70.7610,23.4993
70.7965,23.5434
70.7995,23.5643
70.7995,24.4669
70.7778,24.5192
70.7255,24.5409
70.6972,24.5353
70.6932,24.5336
70.5659,24.4995
70.5659,24.4995
69.6307,24.4995
69.5784,24.4778
69.5567,24.4255
69.5784,24.3732
69.6048,24.3562
69.8123,24.2788
69.8851,24.2390
70.0572,24.1451
70.2806,23.9779
70.4779,23.7806
70.6451,23.5572
70.6606,23.5288
70.7047,23.4933
Z" /> 
<path style="fill:#C83434; fill-opacity:1.0000; stroke:none;fill-rule:evenodd;"
d="M 32.7610,23.4993
32.7965,23.5434
32.7995,23.5643
32.7995,24.4669
32.7778,24.5192
32.7255,24.5409
32.6972,24.5353
32.6932,24.5336
32.5659,24.4995
32.5659,24.4995
31.6307,24.4995
31.5784,24.4778
31.5567,24.4255
31.5784,24.3732
31.6048,24.3562
31.8123,24.2788
31.8851,24.2390
32.0572,24.1451
32.2806,23.9779
32.4779,23.7806
32.6451,23.5572
32.6606,23.5288
32.7047,23.4933
Z" /> 
<path style="fill:#C83434; fill-opacity:1.0000; stroke:none;fill-rule:evenodd;"
d="M 73.7768,23.4204
73.7894,23.4373
73.8549,23.5572
73.8549,23.5572
74.0221,23.7806
74.2194,23.9779
74.3643,24.0863
74.4428,24.1451
74.6877,24.2788
74.8952,24.3562
74.9366,24.3948
74.9386,24.4514
74.9001,24.4928
74.8693,24.4995
73.9341,24.4995
73.8068,24.5336
73.8068,24.5336
73.7615,24.5598
73.7053,24.5672
73.6604,24.5327
73.6505,24.4957
73.6505,23.4727
73.6722,23.4204
73.7245,23.3987
Z" /> 
<path style="fill:#C83434; fill-opacity:1.0000; stroke:none;fill-rule:evenodd;"
d="M 125.3068,56.0222
125.3285,56.0745
125.3068,56.1268
125.1103,56.3233
125.0579,56.3450
125.0225,56.3360
124.8123,56.2212
124.8123,56.2212
124.6048,56.1438
124.5634,56.1052
124.5614,56.0486
124.5999,56.0072
124.6307,56.0005
125.2545,56.0005
Z" /> 
<path style="fill:#C83434; fill-opacity:1.0000; stroke:none;fill-rule:evenodd;"
d="M 35.8028,55.9647
35.8068,55.9664
35.8068,55.9664
35.8068,55.9664
35.9341,56.0005
36.8693,56.0005
36.9216,56.0222
36.9433,56.0745
36.9216,56.1268
36.8952,56.1438
36.6877,56.2212
36.4428,56.3549
36.2194,56.5221
36.0221,56.7194
35.8549,56.9428
35.8394,56.9712
35.7953,57.0067
35.7390,57.0006
35.7035,56.9565
35.7005,56.9357
35.7005,56.0331
35.7222,55.9808
35.7745,55.9591
Z" /> 
<path style="fill:#C83434; fill-opacity:1.0000; stroke:none;fill-rule:evenodd;"
d="M 70.7939,56.0048
70.7995,56.0331
70.7995,56.9357
70.7778,56.9880
70.7255,57.0097
70.6732,56.9880
70.6606,56.9712
70.6451,56.9428
70.5822,56.8589
70.4779,56.7194
70.2806,56.5221
70.0695,56.3641
70.0572,56.3549
69.8123,56.2212
69.6048,56.1438
69.5634,56.1052
69.5614,56.0486
69.5999,56.0072
69.6307,56.0005
70.5659,56.0005
70.5659,56.0005
70.6932,55.9664
70.6932,55.9664
70.6972,55.9647
70.7538,55.9647
Z" /> 
<path style="fill:#C83434; fill-opacity:1.0000; stroke:none;fill-rule:evenodd;"
d="M 32.7939,56.0048
32.7995,56.0331
32.7995,56.9357
32.7778,56.9880
32.7255,57.0097
32.6732,56.9880
32.6606,56.9712
32.6451,56.9428
32.5822,56.8589
32.4779,56.7194
32.2806,56.5221
32.0695,56.3641
32.0572,56.3549
31.8123,56.2212
31.6048,56.1438
31.5634,56.1052
31.5614,56.0486
31.5999,56.0072
31.6307,56.0005
32.5659,56.0005
32.5659,56.0005
32.6932,55.9664
32.6932,55.9664
32.6972,55.9647
32.7538,55.9647
Z" /> 
<path style="fill:#C83434; fill-opacity:1.0000; stroke:none;fill-rule:evenodd;"
d="M 73.7615,55.9402
73.8068,55.9664
73.9341,56.0005
73.9341,56.0005
73.9341,56.0005
74.8693,56.0005
74.9216,56.0222
74.9433,56.0745
74.9216,56.1268
74.8952,56.1438
74.6877,56.2212
74.4428,56.3549
74.2194,56.5221
74.0221,56.7194
73.8549,56.9428
73.7894,57.0627
73.7453,57.0983
73.6890,57.0922
73.6535,57.0481
73.6505,57.0273
73.6505,56.0043
73.6722,55.9520
73.7245,55.9303
Z" /> 
<path style="fill:#C83434; fill-opacity:1.0000; stroke:none;fill-rule:evenodd;"
d="M 108.0558,19.6222
110.1778,21.7442
110.1995,21.7965
110.1995,55.7035
110.1778,55.7558
108.8371,57.0965
108.7847,57.1182
108.7324,57.0965
108.7198,57.0797
108.6451,56.9428
108.5822,56.8589
108.4779,56.7194
108.2806,56.5221
108.0695,56.3641
108.0572,56.3549
107.8123,56.2212
107.6048,56.1438
107.5634,56.1052
107.5614,56.0486
107.5999,56.0072
107.6307,56.0005
108.5659,56.0005
108.5659,56.0005
108.6932,55.9664
108.8073,55.9005
108.9005,55.8073
108.9664,55.6932
109.0005,55.5659
109.0005,55.5659
109.0005,43.9331
109.0000,43.9255
109.0000,41.5811
109.0002,41.5758
109.0056,41.5000
109.0056,41.5000
109.0002,41.4242
109.0000,41.4189
109.0000,39.0745
109.0005,39.0669
109.0005,24.9341
109.0005,24.9341
108.9740,24.8350
108.9664,24.8068
108.9005,24.6927
108.8073,24.5995
108.7385,24.5598
108.6932,24.5336
108.6932,24.5336
108.5659,24.4995
108.5659,24.4995
107.6307,24.4995
107.5784,24.4778
107.5567,24.4255
107.5784,24.3732
107.6048,24.3562
107.8123,24.2788
107.8851,24.2390
108.0572,24.1451
108.2806,23.9779
108.4779,23.7806
108.6451,23.5572
108.7788,23.3123
108.7788,23.3123
108.7788,23.3123
108.8763,23.0509
108.8763,23.0509
108.8763,23.0509
108.9356,22.7783
108.9555,22.5000
108.9555,22.5000
108.9395,22.2764
108.9356,22.2217
108.8763,21.9491
108.8763,21.9491
108.8763,21.9491
108.7788,21.6877
108.6451,21.4428
108.5787,21.3541
108.4779,21.2194
108.2806,21.0221
108.1630,20.9341
108.0572,20.8549
107.8123,20.7212
107.5509,20.6237
107.5509,20.6237
107.5509,20.6237
107.4960,20.6118
107.2783,20.5644
107.1470,20.5550
107.0999,20.5335
106.2932,19.7268
106.2715,19.6745
106.2932,19.6222
106.3455,19.6005
108.0035,19.6005
Z" /> 
<path style="fill:#C83434; fill-opacity:1.0000; stroke:none;fill-rule:evenodd;"
d="M 83.6268,58.5784
83.6438,58.6048
83.7212,58.8123
83.8549,59.0572
83.8890,59.1027
84.0221,59.2806
84.2194,59.4779
84.3194,59.5527
84.4428,59.6451
84.5797,59.7198
84.6152,59.7639
84.6092,59.8202
84.5965,59.8371
84.5558,59.8778
84.5035,59.8995
76.3812,59.8995
76.3288,59.8778
76.3072,59.8255
76.3288,59.7732
76.3457,59.7606
76.4843,59.6849
76.5572,59.6451
76.7806,59.4779
76.9779,59.2806
77.1451,59.0572
77.2788,58.8123
77.2788,58.8123
77.2788,58.8123
77.3562,58.6048
77.3948,58.5634
77.4514,58.5614
77.4928,58.5999
77.4995,58.6307
77.4995,59.0659
77.5336,59.1932
77.5336,59.1932
77.5336,59.1932
77.5995,59.3073
77.6927,59.4005
77.8068,59.4664
77.9341,59.5005
77.9341,59.5005
77.9341,59.5005
83.0659,59.5005
83.0659,59.5005
83.1932,59.4664
83.3073,59.4005
83.4005,59.3073
83.4664,59.1932
83.5005,59.0659
83.5005,59.0659
83.5005,58.6307
83.5222,58.5784
83.5745,58.5567
Z" /> 
<path style="fill:#C83434; fill-opacity:1.0000; stroke:none;fill-rule:evenodd;"
d="M 73.7768,58.9204
73.7894,58.9373
73.8549,59.0572
73.8549,59.0572
74.0221,59.2806
74.2194,59.4779
74.3194,59.5527
74.4428,59.6451
74.6543,59.7606
74.6898,59.8047
74.6838,59.8610
74.6397,59.8965
74.6188,59.8995
74.2465,59.8995
74.1942,59.8778
73.6722,59.3558
73.6505,59.3035
73.6505,58.9727
73.6722,58.9204
73.7245,58.8987
Z" /> 
<path style="fill:#C83434; fill-opacity:1.0000; stroke:none;fill-rule:evenodd;"
d="M 45.6268,58.5784
45.6438,58.6048
45.7212,58.8123
45.8549,59.0572
45.8890,59.1027
46.0221,59.2806
46.2194,59.4779
46.3194,59.5527
46.4428,59.6451
46.5797,59.7198
46.6152,59.7639
46.6092,59.8202
46.5965,59.8371
46.5558,59.8778
46.5035,59.8995
38.3812,59.8995
38.3288,59.8778
38.3072,59.8255
38.3288,59.7732
38.3457,59.7606
38.4843,59.6849
38.5572,59.6451
38.7806,59.4779
38.9779,59.2806
39.1451,59.0572
39.2788,58.8123
39.2788,58.8123
39.2788,58.8123
39.3562,58.6048
39.3948,58.5634
39.4514,58.5614
39.4928,58.5999
39.4995,58.6307
39.4995,59.0659
39.5336,59.1932
39.5336,59.1932
39.5336,59.1932
39.5995,59.3073
39.6927,59.4005
39.8068,59.4664
39.9341,59.5005
39.9341,59.5005
39.9341,59.5005
45.0659,59.5005
45.0659,59.5005
45.1932,59.4664
45.3073,59.4005
45.4005,59.3073
45.4664,59.1932
45.5005,59.0659
45.5005,59.0659
45.5005,58.6307
45.5222,58.5784
45.5745,58.5567
Z" /> 
</g>
<g style="fill:#FFFFFF; fill-opacity:1.0000; stroke:none;">
<circle cx="114.0000" cy="22.5000" r="1.2650" /> 
</g>
<g style="fill:#FFFFFF; fill-opacity:1.0000; stroke:none;">
<circle cx="47.5000" cy="22.5000" r="1.2650" /> 
</g>
<g style="fill:#FFFFFF; fill-opacity:1.0000; stroke:none;">
<circle cx="37.5000" cy="22.5000" r="1.2650" /> 
</g>
<g style="fill:#FFFFFF; fill-opacity:1.0000; stroke:none;">
<circle cx="21.0000" cy="22.5000" r="1.2650" /> 
</g>
<g style="fill:#FFFFFF; fill-opacity:1.0000; stroke:none;">
<circle cx="75.5000" cy="22.5000" r="1.2650" /> 
</g>
<g style="fill:#FFFFFF; fill-opacity:1.0000; stroke:none;">
<circle cx="69.0000" cy="22.5000" r="1.2650" /> 
</g>
<g style="fill:#FFFFFF; fill-opacity:1.0000; stroke:none;">
<circle cx="59.0000" cy="58.0000" r="1.2650" /> 
</g>
<g style="fill:#FFFFFF; fill-opacity:1.0000; stroke:none;">
<circle cx="47.5000" cy="58.0000" r="1.2650" /> 
</g>
<g style="fill:#FFFFFF; fill-opacity:1.0000; stroke:none;">
<circle cx="11.5000" cy="21.0000" r="1.6000" /> 
</g>
<g style="fill:#FFFFFF; fill-opacity:1.0000; stroke:none;">
<circle cx="11.5000" cy="56.5000" r="1.6000" /> 
</g>
<g style="fill:#FFFFFF; fill-opacity:1.0000; stroke:none;">
<circle cx="107.0000" cy="58.0000" r="1.2650" /> 
</g>
<g style="fill:#FFFFFF; fill-opacity:1.0000; stroke:none;">
<circle cx="130.5000" cy="56.5000" r="1.6000" /> 
</g>
<g style="fill:#FFFFFF; fill-opacity:1.0000; stroke:none;">
<circle cx="114.0000" cy="58.0000" r="1.2650" /> 
</g>
<g style="fill:#FFFFFF; fill-opacity:1.0000; stroke:none;">
<circle cx="97.0000" cy="58.0000" r="1.2650" /> 
</g>
<g style="fill:#FFFFFF; fill-opacity:1.0000; stroke:none;">
<circle cx="130.5000" cy="21.0000" r="1.6000" /> 
</g>
<g style="fill:#FFFFFF; fill-opacity:1.0000; stroke:none;">
<circle cx="21.0000" cy="58.0000" r="1.2650" /> 
</g>
<g style="fill:#FFFFFF; fill-opacity:1.0000; stroke:none;">
<circle cx="59.0000" cy="22.5000" r="1.2650" /> 
</g>
<g style="fill:#FFFFFF; fill-opacity:1.0000; stroke:none;">
<circle cx="124.0000" cy="22.5000" r="1.2650" /> 
</g>
<g style="fill:#FFFFFF; fill-opacity:1.0000; stroke:none;">
<circle cx="107.0000" cy="22.5000" r="1.2650" /> 
</g>
<g style="fill:#FFFFFF; fill-opacity:1.0000; stroke:none;">
<circle cx="31.0000" cy="58.0000" r="1.2650" /> 
</g>
<g style="fill:#FFFFFF; fill-opacity:1.0000; stroke:none;">
<circle cx="124.0000" cy="58.0000" r="1.2650" /> 
</g>
<g style="fill:#FFFFFF; fill-opacity:1.0000; stroke:none;">
<circle cx="85.5000" cy="22.5000" r="1.2650" /> 
</g>
<g style="fill:#FFFFFF; fill-opacity:1.0000; stroke:none;">
<circle cx="85.5000" cy="58.0000" r="1.2650" /> 
</g>
<g style="fill:#FFFFFF; fill-opacity:1.0000; stroke:none;">
<circle cx="69.0000" cy="58.0000" r="1.2650" /> 
</g>
<g style="fill:#FFFFFF; fill-opacity:1.0000; stroke:none;">
<circle cx="75.5000" cy="58.0000" r="1.2650" /> 
</g>
<g style="fill:#FFFFFF; fill-opacity:1.0000; stroke:none;">
<circle cx="97.0000" cy="22.5000" r="1.2650" /> 
</g>
<g style="fill:#FFFFFF; fill-opacity:1.0000; stroke:none;">
<circle cx="37.5000" cy="58.0000" r="1.2650" /> 
</g>
<g style="fill:#FFFFFF; fill-opacity:1.0000; stroke:none;">
<circle cx="31.0000" cy="22.5000" r="1.2650" /> 
</g>
<g style="fill:#FFFFFF; fill-opacity:1.0000; stroke:none;">
<circle cx="58.5000" cy="13.2500" r="0.5000" /> 
</g>
<g style="fill:#FFFFFF; fill-opacity:1.0000; stroke:none;">
<circle cx="61.0400" cy="13.2500" r="0.5000" /> 
</g>
<g style="fill:#FFFFFF; fill-opacity:1.0000; stroke:none;">
<circle cx="63.5800" cy="13.2500" r="0.5000" /> 
</g>
<g style="fill:#FFFFFF; fill-opacity:1.0000; stroke:none;">
<circle cx="66.1200" cy="13.2500" r="0.5000" /> 
</g>
<g style="fill:#FFFFFF; fill-opacity:1.0000; stroke:none;">
<circle cx="68.6600" cy="13.2500" r="0.5000" /> 
</g>
<g style="fill:#FFFFFF; fill-opacity:1.0000; stroke:none;">
<circle cx="71.2000" cy="13.2500" r="0.5000" /> 
</g>
<g style="fill:#FFFFFF; fill-opacity:1.0000; stroke:none;">
<circle cx="73.7400" cy="13.2500" r="0.5000" /> 
</g>
<g style="fill:#FFFFFF; fill-opacity:1.0000; stroke:none;">
<circle cx="76.2800" cy="13.2500" r="0.5000" /> 
</g>
<g style="fill:#FFFFFF; fill-opacity:1.0000; stroke:none;">
<circle cx="78.8200" cy="13.2500" r="0.5000" /> 
</g>
<g style="fill:#FFFFFF; fill-opacity:1.0000; stroke:none;">
<circle cx="81.3600" cy="13.2500" r="0.5000" /> 
</g>
<g style="fill:#FFFFFF; fill-opacity:1.0000; stroke:none;">
<circle cx="83.9000" cy="13.2500" r="0.5000" /> 
</g>
<g style="fill:#FFFFFF; fill-opacity:1.0000; stroke:none;">
<circle cx="86.4400" cy="13.2500" r="0.5000" /> 
</g>
<g style="fill:#FFFFFF; fill-opacity:1.0000; stroke:none;">
<circle cx="58.5000" cy="15.7900" r="0.5000" /> 
</g>
<g style="fill:#FFFFFF; fill-opacity:1.0000; stroke:none;">
<circle cx="61.0400" cy="15.7900" r="0.5000" /> 
</g>
<g style="fill:#FFFFFF; fill-opacity:1.0000; stroke:none;">
<circle cx="63.5800" cy="15.7900" r="0.5000" /> 
</g>
<g style="fill:#FFFFFF; fill-opacity:1.0000; stroke:none;">
<circle cx="66.1200" cy="15.7900" r="0.5000" /> 
</g>
<g style="fill:#FFFFFF; fill-opacity:1.0000; stroke:none;">
<circle cx="68.6600" cy="15.7900" r="0.5000" /> 
</g>
<g style="fill:#FFFFFF; fill-opacity:1.0000; stroke:none;">
<circle cx="71.2000" cy="15.7900" r="0.5000" /> 
</g>
<g style="fill:#FFFFFF; fill-opacity:1.0000; stroke:none;">
<circle cx="73.7400" cy="15.7900" r="0.5000" /> 
</g>
<g style="fill:#FFFFFF; fill-opacity:1.0000; stroke:none;">
<circle cx="76.2800" cy="15.7900" r="0.5000" /> 
</g>
<g style="fill:#FFFFFF; fill-opacity:1.0000; stroke:none;">
<circle cx="78.8200" cy="15.7900" r="0.5000" /> 
</g>
<g style="fill:#FFFFFF; fill-opacity:1.0000; stroke:none;">
<circle cx="81.3600" cy="15.7900" r="0.5000" /> 
</g>
<g style="fill:#FFFFFF; fill-opacity:1.0000; stroke:none;">
<circle cx="83.9000" cy="15.7900" r="0.5000" /> 
</g>
<g style="fill:#FFFFFF; fill-opacity:1.0000; stroke:none;">
<circle cx="86.4400" cy="15.7900" r="0.5000" /> 
</g>
<g style="fill:none; 
stroke:#D0D2CD; stroke-width:0.0500; stroke-opacity:1; 
stroke-linecap:round; stroke-linejoin:round;">
<path d="M75.5000 25.0000
L74.0000 25.0000
" />
<path d="M78.0000 58.0000 A2.5000 2.5000 0.0 0 0 75.5000 55.5000" />
<path d="M45.0000 58.0000
L45.0000 59.0000
" />
<path d="M121.5000 59.0000
L121.5000 58.0000
" />
<path d="M121.5000 21.0000
L116.5000 21.0000
" />
<path d="M31.0000 55.5000
L32.5000 55.5000
" />
<path d="M104.5000 21.0000
L104.5000 22.5000
" />
<path d="M124.0000 25.0000
L125.5000 25.0000
" />
<path d="M69.0000 39.0000 A2.5000 2.5000 0.0 0 0 69.0000 44.0000" />
<path d="M37.5000 25.0000 A2.5000 2.5000 0.0 0 0 40.0000 22.5000" />
<path d="M56.5000 22.5000 A2.5000 2.5000 0.0 0 0 61.5000 22.5000" />
<path d="M108.5000 44.0000
L108.5000 55.5000
" />
<path d="M116.5000 58.0000 A2.5000 2.5000 0.0 0 0 114.0000 55.5000" />
<path d="M83.0000 21.0000
L78.0000 21.0000
" />
<path d="M28.5000 22.5000
L28.5000 21.0000
" />
<path d="M23.5000 59.0000
L23.5000 58.0000
" />
<path d="M31.0000 55.5000 A2.5000 2.5000 0.0 0 0 28.5000 58.0000" />
<path d="M32.5000 25.0000
L32.5000 39.0000
" />
<path d="M99.5000 58.0000
L99.5000 59.0000
" />
<path d="M37.5000 44.0000
L36.0000 44.0000
" />
<path d="M75.5000 39.0000
L74.0000 39.0000
" />
<path d="M74.0000 44.0000
L74.0000 55.5000
" />
<path d="M45.0000 22.5000 A2.5000 2.5000 0.0 0 0 50.0000 22.5000" />
<path d="M114.0000 44.0000
L112.5000 44.0000
" />
<path d="M40.0000 58.0000 A2.5000 2.5000 0.0 0 0 37.5000 55.5000" />
<path d="M75.5000 44.0000 A2.5000 2.5000 0.0 0 0 75.5000 39.0000" />
<path d="M104.5000 58.0000
L104.5000 59.0000
" />
<circle cx="31.0000" cy="41.5000" r="1.5000" /> 
<path d="M21.0000 25.0000
L19.5000 25.0000
" />
<path d="M107.0000 25.0000
L108.5000 25.0000
" />
<path d="M28.5000 58.0000
L28.5000 59.0000
" />
<path d="M36.0000 44.0000
L36.0000 55.5000
" />
<path d="M37.5000 44.0000 A2.5000 2.5000 0.0 0 0 37.5000 39.0000" />
<path d="M125.5000 25.0000
L125.5000 55.5000
" />
<path d="M108.5000 25.0000
L108.5000 39.0000
" />
<path d="M37.5000 55.5000
L36.0000 55.5000
" />
<path d="M61.5000 21.0000
L66.5000 21.0000
" />
<path d="M23.5000 58.0000 A2.5000 2.5000 0.0 0 0 21.0000 55.5000" />
<path d="M83.0000 59.0000
L78.0000 59.0000
" />
<path d="M114.0000 44.0000 A2.5000 2.5000 0.0 0 0 114.0000 39.0000" />
<path d="M88.0000 58.0000
L94.5000 58.0000
" />
<path d="M56.4000 2.5000
L88.5000 2.5000
" />
<path d="M74.0000 25.0000
L74.0000 39.0000
" />
<path d="M124.0000 55.5000
L125.5000 55.5000
" />
<path d="M23.5000 59.0000
L28.5000 59.0000
" />
<path d="M112.5000 25.0000
L112.5000 39.0000
" />
<path d="M66.5000 58.0000
L66.5000 59.0000
" />
<path d="M45.0000 21.0000
L40.0000 21.0000
" />
<path d="M19.5000 25.0000
L19.5000 55.5000
" />
<path d="M107.0000 55.5000 A2.5000 2.5000 0.0 0 0 104.5000 58.0000" />
<path d="M50.0000 58.0000 A2.5000 2.5000 0.0 0 0 45.0000 58.0000" />
<path d="M21.0000 25.0000 A2.5000 2.5000 0.0 0 0 23.5000 22.5000" />
<path d="M75.5000 25.0000 A2.5000 2.5000 0.0 0 0 78.0000 22.5000" />
<path d="M75.5000 55.5000
L74.0000 55.5000
" />
<path d="M70.5000 44.0000
L70.5000 55.5000
" />
<path d="M75.5000 44.0000
L74.0000 44.0000
" />
<path d="M66.5000 22.5000 A2.5000 2.5000 0.0 0 0 69.0000 25.0000" />
<path d="M61.5000 58.0000 A2.5000 2.5000 0.0 0 0 56.5000 58.0000" />
<path d="M31.0000 25.0000
L32.5000 25.0000
" />
<path d="M69.0000 55.5000
L70.5000 55.5000
" />
<path d="M88.0000 58.0000 A2.5000 2.5000 0.0 0 0 83.0000 58.0000" />
<path d="M107.0000 39.0000 A2.5000 2.5000 0.0 0 0 107.0000 44.0000" />
<path d="M121.5000 22.5000
L121.5000 21.0000
" />
<path d="M45.0000 21.0000
L45.0000 22.5000
" />
<circle cx="75.5000" cy="41.5000" r="1.5000" /> 
<circle cx="114.0000" cy="41.5000" r="1.5000" /> 
<path d="M70.5000 25.0000
L70.5000 39.0000
" />
<path d="M107.0000 55.5000
L108.5000 55.5000
" />
<path d="M78.0000 22.5000
L78.0000 21.0000
" />
<path d="M114.0000 39.0000
L112.5000 39.0000
" />
<path d="M114.0000 55.5000
L112.5000 55.5000
" />
<path d="M50.0000 58.0000
L56.5000 58.0000
" />
<path d="M99.5000 21.0000
L104.5000 21.0000
" />
<path d="M121.5000 59.0000
L116.5000 59.0000
" />
<path d="M83.0000 58.0000
L83.0000 59.0000
" />
<path d="M69.0000 25.0000
L70.5000 25.0000
" />
<path d="M112.5000 44.0000
L112.5000 55.5000
" />
<circle cx="107.0000" cy="41.5000" r="1.5000" /> 
<path d="M83.0000 21.0000
L83.0000 22.5000
" />
<path d="M83.0000 22.5000 A2.5000 2.5000 0.0 0 0 88.0000 22.5000" />
<path d="M7.0000 16.5000
L56.4000 16.5000
" />
<path d="M28.5000 22.5000 A2.5000 2.5000 0.0 0 0 31.0000 25.0000" />
<path d="M37.5000 39.0000
L36.0000 39.0000
" />
<path d="M78.0000 58.0000
L78.0000 59.0000
" />
<path d="M7.0000 61.0000
L7.0000 16.5000
" />
<path d="M99.5000 59.0000
L104.5000 59.0000
" />
<path d="M69.0000 39.0000
L70.5000 39.0000
" />
<path d="M121.5000 22.5000 A2.5000 2.5000 0.0 0 0 124.0000 25.0000" />
<path d="M66.5000 21.0000
L66.5000 22.5000
" />
<path d="M88.5000 16.5000
L135.0000 16.5000
" />
<path d="M23.5000 21.0000
L28.5000 21.0000
" />
<path d="M88.5000 2.5000
L88.5000 16.5000
" />
<path d="M114.0000 25.0000 A2.5000 2.5000 0.0 0 0 116.5000 22.5000" />
<path d="M21.0000 55.5000
L19.5000 55.5000
" />
<path d="M61.5000 58.0000
L61.5000 59.0000
" />
<path d="M104.5000 22.5000 A2.5000 2.5000 0.0 0 0 107.0000 25.0000" />
<path d="M31.0000 39.0000
L32.5000 39.0000
" />
<path d="M116.5000 58.0000
L116.5000 59.0000
" />
<path d="M135.0000 61.0000
L135.0000 16.5000
" />
<path d="M61.5000 21.0000
L61.5000 22.5000
" />
<path d="M99.5000 21.0000
L99.5000 22.5000
" />
<path d="M94.5000 22.5000 A2.5000 2.5000 0.0 0 0 99.5000 22.5000" />
<path d="M135.0000 61.0000
L7.0000 61.0000
" />
<path d="M114.0000 25.0000
L112.5000 25.0000
" />
<path d="M116.5000 21.0000
L116.5000 22.5000
" />
<path d="M31.0000 44.0000
L32.5000 44.0000
" />
<path d="M69.0000 44.0000
L70.5000 44.0000
" />
<path d="M61.5000 59.0000
L66.5000 59.0000
" />
<path d="M37.5000 25.0000
L36.0000 25.0000
" />
<path d="M50.0000 22.5000
L56.5000 22.5000
" />
<path d="M23.5000 22.5000
L23.5000 21.0000
" />
<path d="M45.0000 59.0000
L40.0000 59.0000
" />
<path d="M40.0000 22.5000
L40.0000 21.0000
" />
<circle cx="69.0000" cy="41.5000" r="1.5000" /> 
<path d="M99.5000 58.0000 A2.5000 2.5000 0.0 0 0 94.5000 58.0000" />
<path d="M31.0000 39.0000 A2.5000 2.5000 0.0 0 0 31.0000 44.0000" />
<path d="M107.0000 39.0000
L108.5000 39.0000
" />
<circle cx="37.5000" cy="41.5000" r="1.5000" /> 
<path d="M56.4000 16.5000
L56.4000 2.5000
" />
<path d="M32.5000 44.0000
L32.5000 55.5000
" />
<path d="M107.0000 44.0000
L108.5000 44.0000
" />
<path d="M88.0000 22.5000
L94.5000 22.5000
" />
<path d="M69.0000 55.5000 A2.5000 2.5000 0.0 0 0 66.5000 58.0000" />
<path d="M36.0000 25.0000
L36.0000 39.0000
" />
<path d="M40.0000 58.0000
L40.0000 59.0000
" />
<path d="M124.0000 55.5000 A2.5000 2.5000 0.0 0 0 121.5000 58.0000" />
</g> 
</svg>
