<?xml version="1.0" standalone="no"?>
 <!DOCTYPE svg PUBLIC "-//W3C//DTD SVG 1.1//EN" 
 "http://www.w3.org/Graphics/SVG/1.1/DTD/svg11.dtd"> 
<svg
  xmlns:svg="http://www.w3.org/2000/svg"
  xmlns="http://www.w3.org/2000/svg"
  xmlns:xlink="http://www.w3.org/1999/xlink"
  version="1.1"
  width="139.9794mm" height="64.9986mm" viewBox="0.0000 0.0000 139.9794 64.9986">
<title>SVG Image created as UpperPOGO-B_Cu.svg date 2024/08/29 12:13:11 </title>
  <desc>Image generated by PCBNEW </desc>
<g style="fill:#000000; fill-opacity:1.0000;stroke:#000000; stroke-opacity:1.0000;
stroke-linecap:round; stroke-linejoin:round;"
 transform="translate(0 0) scale(1 1)">
</g>
<g style="fill:none; 
stroke:#D0D2CD; stroke-width:0.0500; stroke-opacity:1; 
stroke-linecap:round; stroke-linejoin:round;">
<path d="M74.7500 25.0000
L73.2500 25.0000
" />
<path d="M77.2500 58.0000 A2.5000 2.5000 0.0 0 0 74.7500 55.5000" />
<path d="M44.5000 58.0000
L44.5000 59.0000
" />
<path d="M120.0000 59.0000
L120.0000 58.0000
" />
<path d="M120.0000 21.0000
L115.0000 21.0000
" />
<path d="M29.5000 55.5000
L31.0000 55.5000
" />
<path d="M55.7500 25.0000
L55.7500 55.5000
" />
<path d="M102.5000 21.0000
L102.5000 22.5000
" />
<path d="M122.5000 25.0000
L124.0000 25.0000
" />
<path d="M47.0000 55.5000
L48.5000 55.5000
" />
<path d="M67.2500 39.0000 A2.5000 2.5000 0.0 0 0 67.2500 44.0000" />
<path d="M37.0000 25.0000 A2.5000 2.5000 0.0 0 0 39.5000 22.5000" />
<path d="M93.5000 25.0000
L93.5000 55.5000
" />
<path d="M95.0000 55.5000
L93.5000 55.5000
" />
<path d="M106.5000 44.0000
L106.5000 55.5000
" />
<path d="M115.0000 58.0000 A2.5000 2.5000 0.0 0 0 112.5000 55.5000" />
<path d="M82.2500 21.0000
L77.2500 21.0000
" />
<path d="M27.0000 22.5000
L27.0000 21.0000
" />
<path d="M22.0000 59.0000
L22.0000 58.0000
" />
<path d="M29.5000 55.5000 A2.5000 2.5000 0.0 0 0 27.0000 58.0000" />
<path d="M31.0000 25.0000
L31.0000 39.0000
" />
<path d="M97.5000 58.0000
L97.5000 59.0000
" />
<path d="M37.0000 44.0000
L35.5000 44.0000
" />
<path d="M74.7500 39.0000
L73.2500 39.0000
" />
<path d="M73.2500 44.0000
L73.2500 55.5000
" />
<path d="M112.5000 44.0000
L111.0000 44.0000
" />
<path d="M57.2500 25.0000 A2.5000 2.5000 0.0 0 0 59.7500 22.5000" />
<path d="M57.2500 25.0000
L55.7500 25.0000
" />
<path d="M39.5000 58.0000 A2.5000 2.5000 0.0 0 0 37.0000 55.5000" />
<path d="M95.9750 12.7000
L98.9750 15.7000
" />
<path d="M48.5000 25.0000
L48.5000 55.5000
" />
<path d="M74.7500 44.0000 A2.5000 2.5000 0.0 0 0 74.7500 39.0000" />
<path d="M102.5000 58.0000
L102.5000 59.0000
" />
<circle cx="29.5000" cy="41.5000" r="1.5000" /> 
<path d="M19.5000 25.0000
L18.0000 25.0000
" />
<path d="M105.0000 25.0000
L106.5000 25.0000
" />
<path d="M95.0000 25.0000
L93.5000 25.0000
" />
<path d="M27.0000 58.0000
L27.0000 59.0000
" />
<path d="M35.5000 44.0000
L35.5000 55.5000
" />
<path d="M37.0000 44.0000 A2.5000 2.5000 0.0 0 0 37.0000 39.0000" />
<path d="M124.0000 25.0000
L124.0000 55.5000
" />
<path d="M106.5000 25.0000
L106.5000 39.0000
" />
<path d="M37.0000 55.5000
L35.5000 55.5000
" />
<path d="M59.7500 21.0000
L64.7500 21.0000
" />
<path d="M22.0000 58.0000 A2.5000 2.5000 0.0 0 0 19.5000 55.5000" />
<path d="M82.2500 59.0000
L77.2500 59.0000
" />
<path d="M97.5000 58.0000 A2.5000 2.5000 0.0 0 0 95.0000 55.5000" />
<path d="M112.5000 44.0000 A2.5000 2.5000 0.0 0 0 112.5000 39.0000" />
<path d="M45.9750 1.7000
L95.9750 1.7000
" />
<path d="M73.2500 25.0000
L73.2500 39.0000
" />
<path d="M122.5000 55.5000
L124.0000 55.5000
" />
<path d="M22.0000 59.0000
L27.0000 59.0000
" />
<path d="M111.0000 25.0000
L111.0000 39.0000
" />
<path d="M64.7500 58.0000
L64.7500 59.0000
" />
<path d="M44.5000 21.0000
L39.5000 21.0000
" />
<path d="M18.0000 25.0000
L18.0000 55.5000
" />
<path d="M105.0000 55.5000 A2.5000 2.5000 0.0 0 0 102.5000 58.0000" />
<path d="M19.5000 25.0000 A2.5000 2.5000 0.0 0 0 22.0000 22.5000" />
<path d="M74.7500 25.0000 A2.5000 2.5000 0.0 0 0 77.2500 22.5000" />
<path d="M47.0000 25.0000
L48.5000 25.0000
" />
<path d="M74.7500 55.5000
L73.2500 55.5000
" />
<path d="M68.7500 44.0000
L68.7500 55.5000
" />
<path d="M74.7500 44.0000
L73.2500 44.0000
" />
<path d="M64.7500 22.5000 A2.5000 2.5000 0.0 0 0 67.2500 25.0000" />
<path d="M29.5000 25.0000
L31.0000 25.0000
" />
<path d="M67.2500 55.5000
L68.7500 55.5000
" />
<path d="M82.2500 22.5000 A2.5000 2.5000 0.0 0 0 84.7500 25.0000" />
<path d="M57.2500 55.5000
L55.7500 55.5000
" />
<path d="M105.0000 39.0000 A2.5000 2.5000 0.0 0 0 105.0000 44.0000" />
<path d="M120.0000 22.5000
L120.0000 21.0000
" />
<path d="M44.5000 21.0000
L44.5000 22.5000
" />
<circle cx="74.7500" cy="41.5000" r="1.5000" /> 
<circle cx="112.5000" cy="41.5000" r="1.5000" /> 
<path d="M68.7500 25.0000
L68.7500 39.0000
" />
<path d="M105.0000 55.5000
L106.5000 55.5000
" />
<path d="M77.2500 22.5000
L77.2500 21.0000
" />
<path d="M112.5000 39.0000
L111.0000 39.0000
" />
<path d="M84.7500 55.5000 A2.5000 2.5000 0.0 0 0 82.2500 58.0000" />
<path d="M112.5000 55.5000
L111.0000 55.5000
" />
<path d="M97.5000 21.0000
L102.5000 21.0000
" />
<path d="M120.0000 59.0000
L115.0000 59.0000
" />
<path d="M82.2500 58.0000
L82.2500 59.0000
" />
<path d="M67.2500 25.0000
L68.7500 25.0000
" />
<path d="M111.0000 44.0000
L111.0000 55.5000
" />
<circle cx="105.0000" cy="41.5000" r="1.5000" /> 
<path d="M82.2500 21.0000
L82.2500 22.5000
" />
<path d="M7.0000 15.7500
L43.0000 15.7500
" />
<path d="M27.0000 22.5000 A2.5000 2.5000 0.0 0 0 29.5000 25.0000" />
<path d="M37.0000 39.0000
L35.5000 39.0000
" />
<path d="M77.2500 58.0000
L77.2500 59.0000
" />
<path d="M7.0000 61.0000
L7.0000 15.7500
" />
<path d="M97.5000 59.0000
L102.5000 59.0000
" />
<path d="M67.2500 39.0000
L68.7500 39.0000
" />
<path d="M120.0000 22.5000 A2.5000 2.5000 0.0 0 0 122.5000 25.0000" />
<path d="M95.0000 25.0000 A2.5000 2.5000 0.0 0 0 97.5000 22.5000" />
<path d="M47.0000 55.5000 A2.5000 2.5000 0.0 0 0 44.5000 58.0000" />
<path d="M64.7500 21.0000
L64.7500 22.5000
" />
<path d="M98.9750 15.7000
L134.9750 15.7000
" />
<path d="M22.0000 21.0000
L27.0000 21.0000
" />
<path d="M44.5000 22.5000 A2.5000 2.5000 0.0 0 0 47.0000 25.0000" />
<path d="M95.9750 1.7000
L95.9750 12.7000
" />
<path d="M112.5000 25.0000 A2.5000 2.5000 0.0 0 0 115.0000 22.5000" />
<path d="M19.5000 55.5000
L18.0000 55.5000
" />
<path d="M84.7500 55.5000
L86.2500 55.5000
" />
<path d="M59.7500 58.0000
L59.7500 59.0000
" />
<path d="M102.5000 22.5000 A2.5000 2.5000 0.0 0 0 105.0000 25.0000" />
<path d="M29.5000 39.0000
L31.0000 39.0000
" />
<path d="M115.0000 58.0000
L115.0000 59.0000
" />
<path d="M135.0000 61.0000
L134.9750 15.7000
" />
<path d="M59.7500 21.0000
L59.7500 22.5000
" />
<path d="M97.5000 21.0000
L97.5000 22.5000
" />
<path d="M86.2500 25.0000
L86.2500 55.5000
" />
<path d="M135.0000 61.0000
L7.0000 61.0000
" />
<path d="M59.7500 58.0000 A2.5000 2.5000 0.0 0 0 57.2500 55.5000" />
<path d="M112.5000 25.0000
L111.0000 25.0000
" />
<path d="M115.0000 21.0000
L115.0000 22.5000
" />
<path d="M29.5000 44.0000
L31.0000 44.0000
" />
<path d="M67.2500 44.0000
L68.7500 44.0000
" />
<path d="M59.7500 59.0000
L64.7500 59.0000
" />
<path d="M37.0000 25.0000
L35.5000 25.0000
" />
<path d="M22.0000 22.5000
L22.0000 21.0000
" />
<path d="M44.5000 59.0000
L39.5000 59.0000
" />
<path d="M39.5000 22.5000
L39.5000 21.0000
" />
<circle cx="67.2500" cy="41.5000" r="1.5000" /> 
<path d="M43.0000 15.7500
L45.9750 12.7000
" />
<path d="M29.5000 39.0000 A2.5000 2.5000 0.0 0 0 29.5000 44.0000" />
<path d="M105.0000 39.0000
L106.5000 39.0000
" />
<circle cx="37.0000" cy="41.5000" r="1.5000" /> 
<path d="M45.9750 12.7000
L45.9750 1.7000
" />
<path d="M31.0000 44.0000
L31.0000 55.5000
" />
<path d="M105.0000 44.0000
L106.5000 44.0000
" />
<path d="M67.2500 55.5000 A2.5000 2.5000 0.0 0 0 64.7500 58.0000" />
<path d="M35.5000 25.0000
L35.5000 39.0000
" />
<path d="M84.7500 25.0000
L86.2500 25.0000
" />
<path d="M39.5000 58.0000
L39.5000 59.0000
" />
<path d="M122.5000 55.5000 A2.5000 2.5000 0.0 0 0 120.0000 58.0000" />
</g>
<g style="fill:#D0D2CD; fill-opacity:1.0000; stroke:none;">
<circle cx="112.5000" cy="22.5000" r="1.2450" /> 
</g>
<g style="fill:#D0D2CD; fill-opacity:1.0000; stroke:none;">
<circle cx="47.0000" cy="22.5000" r="1.2450" /> 
</g>
<g style="fill:#D0D2CD; fill-opacity:1.0000; stroke:none;">
<circle cx="37.0000" cy="22.5000" r="1.2450" /> 
</g>
<g style="fill:#D0D2CD; fill-opacity:1.0000; stroke:none;">
<circle cx="19.5000" cy="22.5000" r="1.2450" /> 
</g>
<g style="fill:#D0D2CD; fill-opacity:1.0000; stroke:none;">
<circle cx="74.7500" cy="22.5000" r="1.2450" /> 
</g>
<g style="fill:#D0D2CD; fill-opacity:1.0000; stroke:none;">
<circle cx="67.2500" cy="22.5000" r="1.2450" /> 
</g>
<g style="fill:#D0D2CD; fill-opacity:1.0000; stroke:none;">
<circle cx="57.2500" cy="58.0000" r="1.2450" /> 
</g>
<g style="fill:#D0D2CD; fill-opacity:1.0000; stroke:none;">
<circle cx="47.0000" cy="58.0000" r="1.2450" /> 
</g>
<g style="fill:#D0D2CD; fill-opacity:1.0000; stroke:none;">
<circle cx="11.5000" cy="21.0000" r="1.6000" /> 
</g>
<g style="fill:#D0D2CD; fill-opacity:1.0000; stroke:none;">
<circle cx="11.5000" cy="56.5000" r="1.6000" /> 
</g>
<g style="fill:#D0D2CD; fill-opacity:1.0000; stroke:none;">
<circle cx="105.0000" cy="58.0000" r="1.2450" /> 
</g>
<g style="fill:#D0D2CD; fill-opacity:1.0000; stroke:none;">
<circle cx="130.5000" cy="56.5000" r="1.6000" /> 
</g>
<g style="fill:#D0D2CD; fill-opacity:1.0000; stroke:none;">
<circle cx="112.5000" cy="58.0000" r="1.2450" /> 
</g>
<g style="fill:#D0D2CD; fill-opacity:1.0000; stroke:none;">
<circle cx="95.0000" cy="58.0000" r="1.2450" /> 
</g>
<g style="fill:#D0D2CD; fill-opacity:1.0000; stroke:none;">
<circle cx="130.5000" cy="21.0000" r="1.6000" /> 
</g>
<g style="fill:#D0D2CD; fill-opacity:1.0000; stroke:none;">
<circle cx="19.5000" cy="58.0000" r="1.2450" /> 
</g>
<g style="fill:#D0D2CD; fill-opacity:1.0000; stroke:none;">
<circle cx="57.2500" cy="22.5000" r="1.2450" /> 
</g>
<g style="fill:#D0D2CD; fill-opacity:1.0000; stroke:none;">
<circle cx="122.5000" cy="22.5000" r="1.2450" /> 
</g>
<g style="fill:#D0D2CD; fill-opacity:1.0000; stroke:none;">
<circle cx="105.0000" cy="22.5000" r="1.2450" /> 
</g>
<g style="fill:#D0D2CD; fill-opacity:1.0000; stroke:none;">
<circle cx="29.5000" cy="58.0000" r="1.2450" /> 
</g>
<g style="fill:#D0D2CD; fill-opacity:1.0000; stroke:none;">
<circle cx="122.5000" cy="58.0000" r="1.2450" /> 
</g>
<g style="fill:#D0D2CD; fill-opacity:1.0000; stroke:none;">
<circle cx="84.7500" cy="22.5000" r="1.2450" /> 
</g>
<g style="fill:#D0D2CD; fill-opacity:1.0000; stroke:none;">
<circle cx="84.7500" cy="58.0000" r="1.2450" /> 
</g>
<g style="fill:#D0D2CD; fill-opacity:1.0000; stroke:none;">
<circle cx="67.2500" cy="58.0000" r="1.2450" /> 
</g>
<g style="fill:#D0D2CD; fill-opacity:1.0000; stroke:none;">
<circle cx="74.7500" cy="58.0000" r="1.2450" /> 
</g>
<g style="fill:#D0D2CD; fill-opacity:1.0000; stroke:none;">
<circle cx="95.0000" cy="22.5000" r="1.2450" /> 
</g>
<g style="fill:#D0D2CD; fill-opacity:1.0000; stroke:none;">
<circle cx="37.0000" cy="58.0000" r="1.2450" /> 
</g>
<g style="fill:#D0D2CD; fill-opacity:1.0000; stroke:none;">
<circle cx="29.5000" cy="22.5000" r="1.2450" /> 
</g>
<g style="fill:#D0D2CD; fill-opacity:1.0000; stroke:none;">
<circle cx="57.0500" cy="13.0000" r="0.5000" /> 
</g>
<g style="fill:#D0D2CD; fill-opacity:1.0000; stroke:none;">
<circle cx="59.5900" cy="13.0000" r="0.5000" /> 
</g>
<g style="fill:#D0D2CD; fill-opacity:1.0000; stroke:none;">
<circle cx="62.1300" cy="13.0000" r="0.5000" /> 
</g>
<g style="fill:#D0D2CD; fill-opacity:1.0000; stroke:none;">
<circle cx="64.6700" cy="13.0000" r="0.5000" /> 
</g>
<g style="fill:#D0D2CD; fill-opacity:1.0000; stroke:none;">
<circle cx="67.2100" cy="13.0000" r="0.5000" /> 
</g>
<g style="fill:#D0D2CD; fill-opacity:1.0000; stroke:none;">
<circle cx="69.7500" cy="13.0000" r="0.5000" /> 
</g>
<g style="fill:#D0D2CD; fill-opacity:1.0000; stroke:none;">
<circle cx="72.2900" cy="13.0000" r="0.5000" /> 
</g>
<g style="fill:#D0D2CD; fill-opacity:1.0000; stroke:none;">
<circle cx="74.8300" cy="13.0000" r="0.5000" /> 
</g>
<g style="fill:#D0D2CD; fill-opacity:1.0000; stroke:none;">
<circle cx="77.3700" cy="13.0000" r="0.5000" /> 
</g>
<g style="fill:#D0D2CD; fill-opacity:1.0000; stroke:none;">
<circle cx="79.9100" cy="13.0000" r="0.5000" /> 
</g>
<g style="fill:#D0D2CD; fill-opacity:1.0000; stroke:none;">
<circle cx="82.4500" cy="13.0000" r="0.5000" /> 
</g>
<g style="fill:#D0D2CD; fill-opacity:1.0000; stroke:none;">
<circle cx="84.9900" cy="13.0000" r="0.5000" /> 
</g>
<g style="fill:#D0D2CD; fill-opacity:1.0000; stroke:none;">
<circle cx="57.0500" cy="10.4600" r="0.5000" /> 
</g>
<g style="fill:#D0D2CD; fill-opacity:1.0000; stroke:none;">
<circle cx="59.5900" cy="10.4600" r="0.5000" /> 
</g>
<g style="fill:#D0D2CD; fill-opacity:1.0000; stroke:none;">
<circle cx="62.1300" cy="10.4600" r="0.5000" /> 
</g>
<g style="fill:#D0D2CD; fill-opacity:1.0000; stroke:none;">
<circle cx="64.6700" cy="10.4600" r="0.5000" /> 
</g>
<g style="fill:#D0D2CD; fill-opacity:1.0000; stroke:none;">
<circle cx="67.2100" cy="10.4600" r="0.5000" /> 
</g>
<g style="fill:#D0D2CD; fill-opacity:1.0000; stroke:none;">
<circle cx="69.7500" cy="10.4600" r="0.5000" /> 
</g>
<g style="fill:#D0D2CD; fill-opacity:1.0000; stroke:none;">
<circle cx="72.2900" cy="10.4600" r="0.5000" /> 
</g>
<g style="fill:#D0D2CD; fill-opacity:1.0000; stroke:none;">
<circle cx="74.8300" cy="10.4600" r="0.5000" /> 
</g>
<g style="fill:#D0D2CD; fill-opacity:1.0000; stroke:none;">
<circle cx="77.3700" cy="10.4600" r="0.5000" /> 
</g>
<g style="fill:#D0D2CD; fill-opacity:1.0000; stroke:none;">
<circle cx="79.9100" cy="10.4600" r="0.5000" /> 
</g>
<g style="fill:#D0D2CD; fill-opacity:1.0000; stroke:none;">
<circle cx="82.4500" cy="10.4600" r="0.5000" /> 
</g>
<g style="fill:#D0D2CD; fill-opacity:1.0000; stroke:none;">
<circle cx="84.9900" cy="10.4600" r="0.5000" /> 
</g>
<g style="fill:#4D7FC4; fill-opacity:1.0000; stroke:none;">
<circle cx="112.5000" cy="22.5000" r="1.6250" /> 
</g>
<g style="fill:#4D7FC4; fill-opacity:1.0000; stroke:none;">
<circle cx="47.0000" cy="22.5000" r="1.6250" /> 
</g>
<g style="fill:#4D7FC4; fill-opacity:1.0000; stroke:none;">
<circle cx="37.0000" cy="22.5000" r="1.6250" /> 
</g>
<g style="fill:#4D7FC4; fill-opacity:1.0000; stroke:none;">
<circle cx="19.5000" cy="22.5000" r="1.6250" /> 
</g>
<g style="fill:#4D7FC4; fill-opacity:1.0000; stroke:none;">
<circle cx="74.7500" cy="22.5000" r="1.6250" /> 
</g>
<g style="fill:#4D7FC4; fill-opacity:1.0000; stroke:none;">
<circle cx="67.2500" cy="22.5000" r="1.6250" /> 
</g>
<g style="fill:#4D7FC4; fill-opacity:1.0000; stroke:none;">
<circle cx="57.2500" cy="58.0000" r="1.6250" /> 
</g>
<g style="fill:#4D7FC4; fill-opacity:1.0000; stroke:none;">
<circle cx="47.0000" cy="58.0000" r="1.6250" /> 
</g>
<g style="fill:#4D7FC4; fill-opacity:1.0000; stroke:none;">
<circle cx="11.5000" cy="21.0000" r="1.8000" /> 
</g>
<g style="fill:#4D7FC4; fill-opacity:1.0000; stroke:none;">
<circle cx="11.5000" cy="21.0000" r="2.8000" /> 
</g>
<g style="fill:#4D7FC4; fill-opacity:1.0000; stroke:none;">
<circle cx="11.5000" cy="56.5000" r="1.8000" /> 
</g>
<g style="fill:#4D7FC4; fill-opacity:1.0000; stroke:none;">
<circle cx="11.5000" cy="56.5000" r="2.8000" /> 
</g>
<g style="fill:#4D7FC4; fill-opacity:1.0000; stroke:none;">
<circle cx="105.0000" cy="58.0000" r="1.6250" /> 
</g>
<g style="fill:#4D7FC4; fill-opacity:1.0000; stroke:none;">
<circle cx="130.5000" cy="56.5000" r="1.8000" /> 
</g>
<g style="fill:#4D7FC4; fill-opacity:1.0000; stroke:none;">
<circle cx="130.5000" cy="56.5000" r="2.8000" /> 
</g>
<g style="fill:#4D7FC4; fill-opacity:1.0000; stroke:none;">
<circle cx="112.5000" cy="58.0000" r="1.6250" /> 
</g>
<g style="fill:#4D7FC4; fill-opacity:1.0000; stroke:none;">
<circle cx="95.0000" cy="58.0000" r="1.6250" /> 
</g>
<g style="fill:#4D7FC4; fill-opacity:1.0000; stroke:none;">
<circle cx="130.5000" cy="21.0000" r="1.8000" /> 
</g>
<g style="fill:#4D7FC4; fill-opacity:1.0000; stroke:none;">
<circle cx="130.5000" cy="21.0000" r="2.8000" /> 
</g>
<g style="fill:#4D7FC4; fill-opacity:1.0000; stroke:none;">
<circle cx="19.5000" cy="58.0000" r="1.6250" /> 
</g>
<g style="fill:#4D7FC4; fill-opacity:1.0000; stroke:none;">
<circle cx="57.2500" cy="22.5000" r="1.6250" /> 
</g>
<g style="fill:#4D7FC4; fill-opacity:1.0000; stroke:none;">
<circle cx="122.5000" cy="22.5000" r="1.6250" /> 
</g>
<g style="fill:#4D7FC4; fill-opacity:1.0000; stroke:none;">
<circle cx="105.0000" cy="22.5000" r="1.6250" /> 
</g>
<g style="fill:#4D7FC4; fill-opacity:1.0000; stroke:none;">
<circle cx="29.5000" cy="58.0000" r="1.6250" /> 
</g>
<g style="fill:#4D7FC4; fill-opacity:1.0000; stroke:none;">
<circle cx="122.5000" cy="58.0000" r="1.6250" /> 
</g>
<g style="fill:#4D7FC4; fill-opacity:1.0000; stroke:none;">
<circle cx="84.7500" cy="22.5000" r="1.6250" /> 
</g>
<g style="fill:#4D7FC4; fill-opacity:1.0000; stroke:none;">
<circle cx="84.7500" cy="58.0000" r="1.6250" /> 
</g>
<g style="fill:#4D7FC4; fill-opacity:1.0000; stroke:none;">
<circle cx="67.2500" cy="58.0000" r="1.6250" /> 
</g>
<g style="fill:#4D7FC4; fill-opacity:1.0000; stroke:none;">
<circle cx="74.7500" cy="58.0000" r="1.6250" /> 
</g>
<g style="fill:#4D7FC4; fill-opacity:1.0000; stroke:none;">
<circle cx="95.0000" cy="22.5000" r="1.6250" /> 
</g>
<g style="fill:#4D7FC4; fill-opacity:1.0000; stroke:none;">
<circle cx="37.0000" cy="58.0000" r="1.6250" /> 
</g>
<g style="fill:#4D7FC4; fill-opacity:1.0000; stroke:none;">
<circle cx="29.5000" cy="22.5000" r="1.6250" /> 
<path style="fill:#4D7FC4; fill-opacity:1.0000; stroke:none;fill-rule:evenodd;"
d="M 56.2000,12.1500
57.9000,12.1500
57.9000,13.8500
56.2000,13.8500
Z" /> 
</g>
<g style="fill:#4D7FC4; fill-opacity:1.0000; stroke:none;">
<circle cx="59.5900" cy="13.0000" r="0.8500" /> 
<circle cx="62.1300" cy="13.0000" r="0.8500" /> 
<circle cx="64.6700" cy="13.0000" r="0.8500" /> 
<circle cx="67.2100" cy="13.0000" r="0.8500" /> 
<circle cx="69.7500" cy="13.0000" r="0.8500" /> 
<circle cx="72.2900" cy="13.0000" r="0.8500" /> 
<circle cx="74.8300" cy="13.0000" r="0.8500" /> 
<circle cx="77.3700" cy="13.0000" r="0.8500" /> 
<circle cx="79.9100" cy="13.0000" r="0.8500" /> 
<circle cx="82.4500" cy="13.0000" r="0.8500" /> 
<circle cx="84.9900" cy="13.0000" r="0.8500" /> 
<circle cx="57.0500" cy="10.4600" r="0.8500" /> 
<circle cx="59.5900" cy="10.4600" r="0.8500" /> 
<circle cx="62.1300" cy="10.4600" r="0.8500" /> 
<circle cx="64.6700" cy="10.4600" r="0.8500" /> 
<circle cx="67.2100" cy="10.4600" r="0.8500" /> 
<circle cx="69.7500" cy="10.4600" r="0.8500" /> 
<circle cx="72.2900" cy="10.4600" r="0.8500" /> 
<circle cx="74.8300" cy="10.4600" r="0.8500" /> 
<circle cx="77.3700" cy="10.4600" r="0.8500" /> 
<circle cx="79.9100" cy="10.4600" r="0.8500" /> 
<circle cx="82.4500" cy="10.4600" r="0.8500" /> 
<circle cx="84.9900" cy="10.4600" r="0.8500" /> 
</g>
<g style="fill:none; 
stroke:#4D7FC4; stroke-width:0.4000; stroke-opacity:1; 
stroke-linecap:round; stroke-linejoin:round;">
<path d="M52.8000 13.2500
L47.2400 13.2500
" />
<path d="M20.7000 16.4500
L16.6000 20.5500
" />
<path d="M16.6000 20.5500
L16.6000 55.1000
" />
<path d="M57.0500 13.2500
L52.8000 13.2500
" />
<path d="M16.6000 55.1000
L19.5000 58.0000
" />
<path d="M44.0399 16.4500
L20.7000 16.4500
" />
<path d="M54.8500 13.2500
L52.8000 13.2500
" />
<path d="M57.0500 13.2500
L54.8500 13.2500
" />
<path d="M47.2400 13.2500
L44.0399 16.4500
" />
<path d="M47.2198 15.2500
L44.6198 17.8500
" />
<path d="M47.2698 15.3000
L47.2198 15.2500
" />
<path d="M58.4000 15.3000
L47.2698 15.3000
" />
<path d="M59.5900 14.1100
L58.4000 15.3000
" />
<path d="M44.6198 17.8500
L34.4201 17.8500
" />
<path d="M32.4000 55.1000
L29.5000 58.0000
" />
<path d="M59.5900 13.0000
L59.5900 14.1100
" />
<path d="M32.4000 19.8701
L32.4000 55.1000
" />
<path d="M34.4201 17.8500
L32.4000 19.8701
" />
<path d="M33.8000 54.8000
L37.0000 58.0000
" />
<path d="M62.1300 13.3300
L62.1250 13.3250
" />
<path d="M33.8000 20.4500
L33.8000 54.8000
" />
<path d="M62.1250 15.9071
L61.2821 16.7500
" />
<path d="M34.9750 19.2750
L34.2500 20.0000
" />
<path d="M47.6997 16.7500
L45.1747 19.2750
" />
<path d="M34.2500 20.0000
L33.8000 20.4500
" />
<path d="M61.2821 16.7500
L47.6997 16.7500
" />
<path d="M62.1250 13.3250
L62.1250 15.9071
" />
<path d="M45.1747 19.2750
L34.9750 19.2750
" />
<path d="M51.4250 20.0250
L51.4250 23.0250
" />
<path d="M62.4221 18.1500
L53.3000 18.1500
" />
<path d="M64.6700 13.2500
L64.6700 15.9021
" />
<path d="M64.6700 15.9021
L62.4221 18.1500
" />
<path d="M53.3000 18.1500
L51.4250 20.0250
" />
<path d="M51.4250 53.5750
L47.0000 58.0000
" />
<path d="M51.4250 23.0250
L51.4250 53.5750
" />
<path d="M55.5000 19.6750
L52.8250 22.3500
" />
<path d="M67.2100 16.0900
L63.6250 19.6750
" />
<path d="M57.1000 58.0000
L57.2500 58.0000
" />
<path d="M52.8250 53.7250
L57.1000 58.0000
" />
<path d="M67.2100 13.2500
L67.2100 16.0900
" />
<path d="M52.8250 22.3500
L52.8250 53.7250
" />
<path d="M63.6250 19.6750
L55.5000 19.6750
" />
<path d="M69.7500 13.2500
L69.7500 21.0048
" />
<path d="M70.0750 21.3298
L70.0750 55.4500
" />
<path d="M67.5250 58.0000
L67.5000 58.0000
" />
<path d="M69.7500 21.0048
L70.0750 21.3298
" />
<path d="M70.0750 55.4500
L67.5250 58.0000
" />
<path d="M72.2900 13.2500
L72.2900 20.9648
" />
<path d="M72.1000 13.0600
L72.2900 13.2500
" />
<path d="M74.0000 57.6250
L74.0000 58.0000
" />
<path d="M71.9250 55.5500
L74.0000 57.6250
" />
<path d="M72.2900 20.9648
L71.9250 21.3298
" />
<path d="M71.9250 21.3298
L71.9250 55.5500
" />
<path d="M72.1000 12.7600
L72.1000 13.0600
" />
<path d="M74.8250 15.8971
L78.6029 19.6750
" />
<path d="M88.7500 22.5048
L88.7500 54.0500
" />
<path d="M74.8250 13.2750
L74.8250 15.8971
" />
<path d="M88.7500 54.0500
L84.8000 58.0000
" />
<path d="M78.6029 19.6750
L85.9202 19.6750
" />
<path d="M85.9202 19.6750
L88.7500 22.5048
" />
<path d="M90.6250 53.6250
L95.0000 58.0000
" />
<path d="M77.3750 13.4000
L77.4000 13.4000
" />
<path d="M77.4000 13.4000
L81.8591 17.8591
" />
<path d="M86.8091 17.8591
L90.6250 21.6750
" />
<path d="M81.8591 17.8591
L86.8091 17.8591
" />
<path d="M90.6250 21.6750
L90.6250 53.6250
" />
<path d="M82.9841 16.4591
L88.1091 16.4591
" />
<path d="M88.1091 16.4591
L90.8500 19.2000
" />
<path d="M107.8250 20.4250
L107.8250 55.6750
" />
<path d="M90.8500 19.2000
L106.6000 19.2000
" />
<path d="M106.6000 19.2000
L107.8250 20.4250
" />
<path d="M107.8250 55.6750
L105.5000 58.0000
" />
<path d="M79.9100 13.3850
L82.9841 16.4591
" />
<path d="M79.9100 13.2500
L79.9100 13.3850
" />
<path d="M84.1500 15.0591
L82.5909 13.5000
" />
<path d="M89.6341 15.0591
L84.1500 15.0591
" />
<path d="M112.5000 58.0000
L109.6750 55.1750
" />
<path d="M92.3750 17.8000
L89.6341 15.0591
" />
<path d="M109.6750 20.2951
L107.1799 17.8000
" />
<path d="M82.5909 13.5000
L82.4500 13.5000
" />
<path d="M109.6750 55.1750
L109.6750 20.2951
" />
<path d="M107.1799 17.8000
L92.3750 17.8000
" />
<path d="M120.4250 16.4000
L125.3250 21.3000
" />
<path d="M94.0750 16.4000
L120.4250 16.4000
" />
<path d="M125.3250 55.1750
L122.5000 58.0000
" />
<path d="M125.3250 21.3000
L125.3250 55.1750
" />
<path d="M85.1400 13.1000
L90.7750 13.1000
" />
<path d="M84.9900 13.2500
L85.1400 13.1000
" />
<path d="M90.7750 13.1000
L94.0750 16.4000
" />
<path style="fill:#4D7FC4; fill-opacity:1.0000; stroke:none;fill-rule:evenodd;"
d="M 20.2068,16.2722
20.2285,16.3245
20.2068,16.3768
18.1131,18.4705
16.2795,20.3041
16.2268,20.3954
16.2265,20.3967
16.2260,20.3982
16.1995,20.4973
16.1995,55.0473
16.1995,55.1527
16.1995,55.1527
16.2268,55.2546
16.2268,55.2546
16.2795,55.3459
16.2795,55.3459
16.2795,55.3459
16.8090,55.8754
17.3347,56.4011
17.3564,56.4534
17.3406,56.4990
17.3353,56.5058
17.3353,56.5058
17.1710,56.7776
17.1710,56.7776
17.0406,57.0673
16.9461,57.3705
16.8889,57.6830
16.8697,58.0000
16.8889,58.3170
16.9461,58.6295
17.0406,58.9327
17.0406,58.9327
17.0406,58.9327
17.1710,59.2224
17.3353,59.4942
17.5312,59.7442
17.7558,59.9688
18.0058,60.1647
18.2776,60.3290
18.3421,60.3580
18.3809,60.3993
18.3792,60.4559
18.3380,60.4947
18.3117,60.4995
7.5745,60.4995
7.5222,60.4778
7.5005,60.4255
7.5005,56.5000
8.2950,56.5000
8.3151,56.8589
8.3151,56.8589
8.3753,57.2132
8.4748,57.5586
8.6124,57.8906
8.6124,57.8906
8.7862,58.2052
8.7862,58.2052
8.9942,58.4983
9.1002,58.6169
10.2355,57.4817
10.2796,57.5423
10.4577,57.7204
10.5183,57.7645
9.3831,58.8998
9.5017,59.0058
9.7948,59.2138
9.7948,59.2138
10.1094,59.3876
10.1094,59.3876
10.4414,59.5252
10.7868,59.6247
10.7868,59.6247
11.1411,59.6849
11.1411,59.6849
11.5000,59.7050
11.8589,59.6849
11.8589,59.6849
12.2132,59.6247
12.5586,59.5252
12.8906,59.3876
12.8906,59.3876
13.2052,59.2138
13.2052,59.2138
13.4983,59.0058
13.6169,58.8998
13.6169,58.8998
12.4817,57.7645
12.5423,57.7204
12.7204,57.5423
12.7645,57.4817
13.8998,58.6169
13.8998,58.6169
14.0058,58.4983
14.2138,58.2052
14.2138,58.2052
14.3876,57.8906
14.3876,57.8906
14.5252,57.5586
14.6247,57.2132
14.6849,56.8589
14.6849,56.8589
14.7050,56.5000
14.6849,56.1411
14.6849,56.1411
14.6247,55.7868
14.5252,55.4414
14.3876,55.1094
14.3876,55.1094
14.2138,54.7948
14.2138,54.7948
14.0058,54.5017
13.8998,54.3831
13.8998,54.3831
12.7645,55.5183
12.7204,55.4577
12.5423,55.2796
12.4817,55.2355
13.6169,54.1002
13.4983,53.9942
13.2052,53.7862
13.2052,53.7862
12.8906,53.6124
12.8906,53.6124
12.5586,53.4748
12.2132,53.3753
12.2132,53.3753
11.8589,53.3151
11.8589,53.3151
11.5000,53.2950
11.1411,53.3151
11.1411,53.3151
10.7868,53.3753
10.4414,53.4748
10.1094,53.6124
10.1094,53.6124
9.7948,53.7862
9.7948,53.7862
9.5017,53.9942
9.3831,54.1002
10.5183,55.2355
10.4577,55.2796
10.2796,55.4577
10.2355,55.5183
9.1002,54.3831
8.9942,54.5017
8.7862,54.7948
8.7862,54.7948
8.6124,55.1094
8.6124,55.1094
8.4748,55.4414
8.3753,55.7868
8.3151,56.1411
8.3151,56.1411
8.2950,56.5000
7.5005,56.5000
7.5005,21.0000
8.2950,21.0000
8.3151,21.3589
8.3151,21.3589
8.3753,21.7132
8.4748,22.0586
8.6124,22.3906
8.6124,22.3906
8.7862,22.7052
8.7862,22.7052
8.9942,22.9983
9.1002,23.1169
10.2355,21.9817
10.2796,22.0423
10.4577,22.2204
10.5183,22.2645
9.3831,23.3998
9.5017,23.5058
9.7948,23.7138
9.7948,23.7138
10.1094,23.8876
10.1094,23.8876
10.4414,24.0252
10.7868,24.1247
10.7868,24.1247
11.1411,24.1849
11.1411,24.1849
11.5000,24.2050
11.8589,24.1849
11.8589,24.1849
12.2132,24.1247
12.5586,24.0252
12.8906,23.8876
12.8906,23.8876
13.2052,23.7138
13.2052,23.7138
13.4983,23.5058
13.6169,23.3998
13.6169,23.3998
12.4817,22.2645
12.5423,22.2204
12.7204,22.0423
12.7645,21.9817
13.8998,23.1169
13.8998,23.1169
14.0058,22.9983
14.2138,22.7052
14.2138,22.7052
14.3876,22.3906
14.3876,22.3906
14.5252,22.0586
14.6247,21.7132
14.6849,21.3589
14.6849,21.3589
14.7050,21.0000
14.6849,20.6411
14.6849,20.6411
14.6247,20.2868
14.5252,19.9414
14.3876,19.6094
14.3876,19.6094
14.2138,19.2948
14.2138,19.2948
14.0058,19.0017
13.8998,18.8831
13.8998,18.8831
12.7645,20.0183
12.7204,19.9577
12.5423,19.7796
12.4817,19.7355
13.6169,18.6002
13.4983,18.4942
13.2052,18.2862
13.2052,18.2862
12.8906,18.1124
12.8906,18.1124
12.5586,17.9748
12.2132,17.8753
12.2132,17.8753
11.8589,17.8151
11.8589,17.8151
11.5000,17.7950
11.1411,17.8151
11.1411,17.8151
10.7868,17.8753
10.4414,17.9748
10.1094,18.1124
10.1094,18.1124
9.7948,18.2862
9.7948,18.2862
9.5017,18.4942
9.3831,18.6002
10.5183,19.7355
10.4577,19.7796
10.2796,19.9577
10.2355,20.0183
9.1002,18.8831
8.9942,19.0017
8.7862,19.2948
8.7862,19.2948
8.6124,19.6094
8.6124,19.6094
8.4748,19.9414
8.3753,20.2868
8.3151,20.6411
8.3151,20.6411
8.2950,21.0000
7.5005,21.0000
7.5005,16.3245
7.5222,16.2722
7.5745,16.2505
20.1545,16.2505
Z" /> 
<path style="fill:#4D7FC4; fill-opacity:1.0000; stroke:none;fill-rule:evenodd;"
d="M 134.4531,16.2222
134.4748,16.2745
134.4799,25.4022
134.4992,60.4255
134.4775,60.4778
134.4252,60.4995
123.6883,60.4995
123.6360,60.4778
123.6143,60.4255
123.6360,60.3732
123.6579,60.3580
123.7224,60.3290
123.9942,60.1647
124.2442,59.9688
124.4688,59.7442
124.6647,59.4942
124.8290,59.2224
124.9594,58.9327
125.0539,58.6295
125.1111,58.3170
125.1303,58.0000
125.1111,57.6830
125.0539,57.3705
124.9594,57.0673
124.8290,56.7776
124.6647,56.5058
124.6601,56.5000
127.2950,56.5000
127.3151,56.8589
127.3151,56.8589
127.3753,57.2132
127.4748,57.5586
127.6124,57.8906
127.6124,57.8906
127.7862,58.2052
127.7862,58.2052
127.9942,58.4983
128.1002,58.6169
129.2355,57.4817
129.2796,57.5423
129.4577,57.7204
129.5183,57.7645
128.3831,58.8998
128.5017,59.0058
128.7948,59.2138
128.7948,59.2138
129.1094,59.3876
129.1094,59.3876
129.4414,59.5252
129.7868,59.6247
129.7868,59.6247
130.1411,59.6849
130.1411,59.6849
130.5000,59.7050
130.8589,59.6849
130.8589,59.6849
131.2132,59.6247
131.5586,59.5252
131.8906,59.3876
131.8906,59.3876
132.2052,59.2138
132.2052,59.2138
132.4983,59.0058
132.6169,58.8998
132.6169,58.8998
131.4817,57.7645
131.5423,57.7204
131.7204,57.5423
131.7645,57.4817
132.8998,58.6169
132.8998,58.6169
133.0058,58.4983
133.2138,58.2052
133.2138,58.2052
133.3876,57.8906
133.3876,57.8906
133.5252,57.5586
133.6247,57.2132
133.6849,56.8589
133.6849,56.8589
133.7050,56.5000
133.6849,56.1411
133.6849,56.1411
133.6247,55.7868
133.5252,55.4414
133.3876,55.1094
133.3876,55.1094
133.2138,54.7948
133.2138,54.7948
133.0058,54.5017
132.8998,54.3831
132.8998,54.3831
131.7645,55.5183
131.7204,55.4577
131.5423,55.2796
131.4817,55.2355
132.6169,54.1002
132.4983,53.9942
132.2052,53.7862
132.2052,53.7862
131.8906,53.6124
131.8906,53.6124
131.5586,53.4748
131.2132,53.3753
131.2132,53.3753
130.8589,53.3151
130.8589,53.3151
130.5000,53.2950
130.1411,53.3151
130.1411,53.3151
129.7868,53.3753
129.4414,53.4748
129.1094,53.6124
129.1094,53.6124
128.7948,53.7862
128.7948,53.7862
128.5017,53.9942
128.3831,54.1002
129.5183,55.2355
129.4577,55.2796
129.2796,55.4577
129.2355,55.5183
128.1002,54.3831
127.9942,54.5017
127.7862,54.7948
127.7862,54.7948
127.6124,55.1094
127.6124,55.1094
127.4748,55.4414
127.3753,55.7868
127.3151,56.1411
127.3151,56.1411
127.2950,56.5000
124.6601,56.5000
124.6594,56.4990
124.6442,56.4445
124.6653,56.4011
125.6455,55.4209
125.6457,55.4205
125.6982,55.3296
125.7255,55.2277
125.7255,55.2277
125.7255,21.2473
125.7255,21.2473
125.7247,21.2441
125.6982,21.1454
125.6455,21.0541
125.5914,21.0000
127.2950,21.0000
127.3151,21.3589
127.3151,21.3589
127.3753,21.7132
127.4748,22.0586
127.6124,22.3906
127.6124,22.3906
127.7862,22.7052
127.7862,22.7052
127.9942,22.9983
128.1002,23.1169
129.2355,21.9817
129.2796,22.0423
129.4577,22.2204
129.5183,22.2645
128.3831,23.3998
128.5017,23.5058
128.7948,23.7138
128.7948,23.7138
129.1094,23.8876
129.1094,23.8876
129.4414,24.0252
129.7868,24.1247
129.7868,24.1247
130.1411,24.1849
130.1411,24.1849
130.5000,24.2050
130.8589,24.1849
130.8589,24.1849
131.2132,24.1247
131.5586,24.0252
131.8906,23.8876
131.8906,23.8876
132.2052,23.7138
132.2052,23.7138
132.4983,23.5058
132.6169,23.3998
132.6169,23.3998
131.4817,22.2645
131.5423,22.2204
131.7204,22.0423
131.7645,21.9817
132.8998,23.1169
132.8998,23.1169
133.0058,22.9983
133.2138,22.7052
133.2138,22.7052
133.3876,22.3906
133.3876,22.3906
133.5252,22.0586
133.6247,21.7132
133.6849,21.3589
133.6849,21.3589
133.7050,21.0000
133.6849,20.6411
133.6849,20.6411
133.6247,20.2868
133.5252,19.9414
133.3876,19.6094
133.3876,19.6094
133.2138,19.2948
133.2138,19.2948
133.0058,19.0017
132.8998,18.8831
132.8998,18.8831
131.7645,20.0183
131.7204,19.9577
131.5423,19.7796
131.4817,19.7355
132.6169,18.6002
132.4983,18.4942
132.2052,18.2862
132.2052,18.2862
131.8906,18.1124
131.8906,18.1124
131.5586,17.9748
131.2132,17.8753
131.2132,17.8753
130.8589,17.8151
130.8589,17.8151
130.5000,17.7950
130.1411,17.8151
130.1411,17.8151
129.7868,17.8753
129.4414,17.9748
129.1094,18.1124
129.1094,18.1124
128.7948,18.2862
128.7948,18.2862
128.5017,18.4942
128.3831,18.6002
129.5183,19.7355
129.4577,19.7796
129.2796,19.9577
129.2355,20.0183
128.1002,18.8831
127.9942,19.0017
127.7862,19.2948
127.7862,19.2948
127.6124,19.6094
127.6124,19.6094
127.4748,19.9414
127.3753,20.2868
127.3151,20.6411
127.3151,20.6411
127.2950,21.0000
125.5914,21.0000
125.5709,20.9795
120.9182,16.3268
120.8965,16.2745
120.9182,16.2222
120.9705,16.2005
134.4008,16.2005
Z" /> 
<path style="fill:#4D7FC4; fill-opacity:1.0000; stroke:none;fill-rule:evenodd;"
d="M 95.4528,2.2222
95.4745,2.2745
95.4745,12.7659
95.5086,12.8932
95.5086,12.8932
95.5745,13.0073
98.4404,15.8732
98.4620,15.9255
98.4404,15.9778
98.3880,15.9995
94.2715,15.9995
94.2192,15.9778
92.6498,14.4084
91.0209,12.7795
91.0209,12.7795
91.0209,12.7795
90.9296,12.7268
90.9296,12.7268
90.8277,12.6995
90.8277,12.6995
86.7144,12.6995
86.6621,12.6778
86.6423,12.6420
86.6405,12.6341
86.6099,12.5003
86.5174,12.2645
86.3907,12.0450
86.2327,11.8469
86.1651,11.7842
86.1415,11.7328
86.1612,11.6797
86.1651,11.6758
86.2327,11.6131
86.3907,11.4150
86.5174,11.1955
86.6099,10.9597
86.6663,10.7127
86.6852,10.4600
86.6663,10.2073
86.6099,9.9603
86.5174,9.7245
86.3907,9.5050
86.2327,9.3069
86.2309,9.3053
86.1911,9.2683
86.0470,9.1346
85.8376,8.9919
85.7185,8.9345
85.6093,8.8819
85.6093,8.8819
85.6093,8.8819
85.6093,8.8819
85.6093,8.8819
85.3672,8.8073
85.3672,8.8073
85.1167,8.7695
85.1167,8.7695
84.8633,8.7695
84.8633,8.7695
84.6128,8.8073
84.3707,8.8819
84.3707,8.8819
84.1424,8.9919
84.1424,8.9919
83.9330,9.1346
83.9330,9.1346
83.7703,9.2856
83.7172,9.3053
83.6697,9.2856
83.6213,9.2407
83.5070,9.1346
83.2976,8.9919
83.1785,8.9345
83.0693,8.8819
83.0693,8.8819
83.0693,8.8819
83.0693,8.8819
83.0693,8.8819
82.8272,8.8073
82.8272,8.8073
82.5767,8.7695
82.5767,8.7695
82.3233,8.7695
82.3233,8.7695
82.0728,8.8073
81.8307,8.8819
81.8307,8.8819
81.6024,8.9919
81.6024,8.9919
81.3930,9.1346
81.3930,9.1346
81.2303,9.2856
81.1772,9.3053
81.1297,9.2856
81.0813,9.2407
80.9670,9.1346
80.7576,8.9919
80.6385,8.9345
80.5293,8.8819
80.5293,8.8819
80.5293,8.8819
80.5293,8.8819
80.5293,8.8819
80.2872,8.8073
80.2872,8.8073
80.0367,8.7695
80.0367,8.7695
79.7833,8.7695
79.7833,8.7695
79.5328,8.8073
79.2907,8.8819
79.2907,8.8819
79.0624,8.9919
79.0624,8.9919
78.8530,9.1346
78.8530,9.1346
78.6903,9.2856
78.6372,9.3053
78.5897,9.2856
78.5413,9.2407
78.4270,9.1346
78.2176,8.9919
78.0985,8.9345
77.9893,8.8819
77.9893,8.8819
77.9893,8.8819
77.9893,8.8819
77.9893,8.8819
77.7472,8.8073
77.7472,8.8073
77.4967,8.7695
77.4967,8.7695
77.2433,8.7695
77.2433,8.7695
76.9928,8.8073
76.7507,8.8819
76.7507,8.8819
76.5224,8.9919
76.5224,8.9919
76.3130,9.1346
76.3130,9.1346
76.1503,9.2856
76.0972,9.3053
76.0497,9.2856
76.0013,9.2407
75.8870,9.1346
75.6776,8.9919
75.5585,8.9345
75.4493,8.8819
75.4493,8.8819
75.4493,8.8819
75.4493,8.8819
75.4493,8.8819
75.2072,8.8073
75.2072,8.8073
74.9567,8.7695
74.9567,8.7695
74.7033,8.7695
74.7033,8.7695
74.4528,8.8073
74.2107,8.8819
74.2107,8.8819
73.9824,8.9919
73.9824,8.9919
73.7730,9.1346
73.7730,9.1346
73.6103,9.2856
73.5572,9.3053
73.5097,9.2856
73.4613,9.2407
73.3470,9.1346
73.1376,8.9919
73.0185,8.9345
72.9093,8.8819
72.9093,8.8819
72.9093,8.8819
72.9093,8.8819
72.9093,8.8819
72.6672,8.8073
72.6672,8.8073
72.4167,8.7695
72.4167,8.7695
72.1633,8.7695
72.1633,8.7695
71.9128,8.8073
71.6707,8.8819
71.6707,8.8819
71.4424,8.9919
71.4424,8.9919
71.2330,9.1346
71.2330,9.1346
71.0703,9.2856
71.0172,9.3053
70.9697,9.2856
70.9213,9.2407
70.8070,9.1346
70.5976,8.9919
70.4785,8.9345
70.3693,8.8819
70.3693,8.8819
70.3693,8.8819
70.3693,8.8819
70.3693,8.8819
70.1272,8.8073
70.1272,8.8073
69.8767,8.7695
69.8767,8.7695
69.6233,8.7695
69.6233,8.7695
69.3728,8.8073
69.1307,8.8819
69.1307,8.8819
68.9024,8.9919
68.9024,8.9919
68.6930,9.1346
68.6930,9.1346
68.5303,9.2856
68.4772,9.3053
68.4297,9.2856
68.3813,9.2407
68.2670,9.1346
68.0576,8.9919
67.9385,8.9345
67.8293,8.8819
67.8293,8.8819
67.8293,8.8819
67.8293,8.8819
67.8293,8.8819
67.5872,8.8073
67.5872,8.8073
67.3367,8.7695
67.3367,8.7695
67.0833,8.7695
67.0833,8.7695
66.8328,8.8073
66.5907,8.8819
66.5907,8.8819
66.3624,8.9919
66.3624,8.9919
66.1530,9.1346
66.1530,9.1346
65.9903,9.2856
65.9372,9.3053
65.8897,9.2856
65.8413,9.2407
65.7270,9.1346
65.5176,8.9919
65.3985,8.9345
65.2893,8.8819
65.2893,8.8819
65.2893,8.8819
65.2893,8.8819
65.2893,8.8819
65.0472,8.8073
65.0472,8.8073
64.7967,8.7695
64.7967,8.7695
64.5433,8.7695
64.5433,8.7695
64.2928,8.8073
64.0507,8.8819
64.0507,8.8819
63.8224,8.9919
63.8224,8.9919
63.6130,9.1346
63.6130,9.1346
63.4503,9.2856
63.3972,9.3053
63.3497,9.2856
63.3013,9.2407
63.1870,9.1346
62.9776,8.9919
62.8585,8.9345
62.7493,8.8819
62.7493,8.8819
62.7493,8.8819
62.7493,8.8819
62.7493,8.8819
62.5072,8.8073
62.5072,8.8073
62.2567,8.7695
62.2567,8.7695
62.0033,8.7695
62.0033,8.7695
61.7528,8.8073
61.5107,8.8819
61.5107,8.8819
61.2824,8.9919
61.2824,8.9919
61.0730,9.1346
61.0730,9.1346
60.9103,9.2856
60.8572,9.3053
60.8097,9.2856
60.7613,9.2407
60.6470,9.1346
60.4376,8.9919
60.3185,8.9345
60.2093,8.8819
60.2093,8.8819
60.2093,8.8819
60.2093,8.8819
60.2093,8.8819
59.9672,8.8073
59.9672,8.8073
59.7167,8.7695
59.7167,8.7695
59.4633,8.7695
59.4633,8.7695
59.2128,8.8073
58.9707,8.8819
58.9707,8.8819
58.7424,8.9919
58.7424,8.9919
58.5330,9.1346
58.5330,9.1346
58.3703,9.2856
58.3172,9.3053
58.2697,9.2856
58.2213,9.2407
58.1070,9.1346
57.8976,8.9919
57.7785,8.9345
57.6693,8.8819
57.6693,8.8819
57.6693,8.8819
57.6693,8.8819
57.6693,8.8819
57.4272,8.8073
57.4272,8.8073
57.1767,8.7695
57.1767,8.7695
56.9233,8.7695
56.9233,8.7695
56.6728,8.8073
56.4307,8.8819
56.4307,8.8819
56.2024,8.9919
56.2024,8.9919
55.9930,9.1346
55.9930,9.1346
55.8073,9.3069
55.6493,9.5050
55.6493,9.5050
55.5226,9.7245
55.4301,9.9603
55.4301,9.9603
55.4301,9.9603
55.3737,10.2073
55.3548,10.4600
55.3737,10.7127
55.4301,10.9597
55.5226,11.1955
55.6493,11.4150
55.6493,11.4150
55.6493,11.4150
55.6493,11.4150
55.6516,11.4178
55.6673,11.4723
55.6401,11.5217
55.6022,11.5522
55.4876,11.6947
55.4064,11.8584
55.3623,12.0359
55.3595,12.0769
55.3595,12.7755
55.3378,12.8278
55.2855,12.8495
47.1872,12.8495
47.0854,12.8768
47.0854,12.8768
47.0027,12.9245
46.9940,12.9295
43.8957,16.0278
43.8434,16.0495
43.5826,16.0495
43.5303,16.0278
43.5086,15.9755
43.5296,15.9238
44.5499,14.8778
46.3309,13.0519
46.3313,13.0515
46.3755,13.0073
46.3755,13.0073
46.3768,13.0056
46.3769,13.0055
46.3771,13.0053
46.3777,13.0045
46.3779,13.0042
46.3780,13.0041
46.3793,13.0023
46.3793,13.0023
46.4098,12.9479
46.4102,12.9472
46.4233,12.9245
46.4414,12.8932
46.4414,12.8932
46.4422,12.8911
46.4423,12.8910
46.4424,12.8908
46.4427,12.8899
46.4429,12.8896
46.4429,12.8894
46.4438,12.8874
46.4438,12.8874
46.4438,12.8874
46.4592,12.8268
46.4593,12.8263
46.4755,12.7659
46.4755,12.7659
46.4758,12.7637
46.4758,12.7635
46.4759,12.7633
46.4760,12.7623
46.4760,12.7620
46.4760,12.7619
46.4763,12.7597
46.4755,12.6974
46.4755,12.6965
46.4755,2.2745
46.4972,2.2222
46.5495,2.2005
95.4005,2.2005
Z" /> 
<path style="fill:#4D7FC4; fill-opacity:1.0000; stroke:none;fill-rule:evenodd;"
d="M 73.6103,14.1744
73.7730,14.3254
73.9824,14.4681
74.2107,14.5781
74.3723,14.6279
74.4159,14.6641
74.4245,14.6986
74.4245,15.8444
74.4245,15.9498
74.4467,16.0327
74.4518,16.0517
74.4518,16.0517
74.5045,16.1430
74.5045,16.1430
74.5045,16.1430
78.3570,19.9955
78.3570,19.9955
78.3570,19.9955
78.4212,20.0325
78.4483,20.0482
78.5502,20.0755
83.4201,20.0755
83.4725,20.0972
83.4941,20.1495
83.4725,20.2018
83.4584,20.2128
83.2558,20.3353
83.0058,20.5312
82.7896,20.7474
82.7373,20.7690
82.6850,20.7474
82.6732,20.7320
82.6514,20.6942
82.6505,20.6927
82.5573,20.5995
82.5049,20.5692
82.4432,20.5336
82.4432,20.5336
82.3159,20.4995
82.3159,20.4995
77.3159,20.4995
77.1841,20.4995
77.1841,20.4995
77.0568,20.5336
77.0568,20.5336
76.9427,20.5995
76.8495,20.6927
76.8268,20.7320
76.7819,20.7665
76.7257,20.7591
76.7104,20.7474
76.4942,20.5312
76.2442,20.3353
76.1368,20.2704
75.9724,20.1710
75.9724,20.1710
75.9724,20.1710
75.7650,20.0776
75.6827,20.0406
75.6827,20.0406
75.6827,20.0406
75.3795,19.9461
75.3795,19.9461
75.3430,19.9395
75.0670,19.8889
74.7500,19.8697
74.4330,19.8889
74.1205,19.9461
73.8173,20.0406
73.5276,20.1710
73.5276,20.1710
73.2558,20.3353
73.0058,20.5312
72.8168,20.7202
72.7645,20.7418
72.7122,20.7202
72.6905,20.6678
72.6905,14.7002
72.7122,14.6478
72.7427,14.6295
72.9093,14.5781
73.1376,14.4681
73.3470,14.3254
73.5097,14.1744
73.5628,14.1547
Z" /> 
<path style="fill:#4D7FC4; fill-opacity:1.0000; stroke:none;fill-rule:evenodd;"
d="M 68.5303,14.1744
68.6930,14.3254
68.9024,14.4681
69.1307,14.5781
69.2973,14.6295
69.3409,14.6656
69.3495,14.7002
69.3495,20.7082
69.3278,20.7605
69.2755,20.7822
69.2232,20.7605
69.2201,20.7573
69.2188,20.7558
68.9942,20.5312
68.7442,20.3353
68.6368,20.2704
68.4724,20.1710
68.4724,20.1710
68.4724,20.1710
68.2650,20.0776
68.1827,20.0406
68.1827,20.0406
68.1827,20.0406
67.8795,19.9461
67.8795,19.9461
67.8430,19.9395
67.5670,19.8889
67.2500,19.8697
66.9330,19.8889
66.6205,19.9461
66.3173,20.0406
66.0276,20.1710
66.0276,20.1710
65.7558,20.3353
65.5058,20.5312
65.2896,20.7474
65.2373,20.7690
65.1850,20.7474
65.1732,20.7320
65.1514,20.6942
65.1505,20.6927
65.0573,20.5995
65.0049,20.5692
64.9432,20.5336
64.9432,20.5336
64.8159,20.4995
64.8159,20.4995
59.8159,20.4995
59.6841,20.4995
59.6841,20.4995
59.5568,20.5336
59.5568,20.5336
59.4427,20.5995
59.3495,20.6927
59.3268,20.7320
59.2819,20.7665
59.2257,20.7591
59.2104,20.7474
58.9942,20.5312
58.7442,20.3353
58.6640,20.2868
58.5416,20.2128
58.5080,20.1672
58.5165,20.1112
58.5621,20.0776
58.5799,20.0755
63.6777,20.0755
63.6777,20.0755
63.7796,20.0482
63.8709,19.9955
67.4559,16.4105
67.4559,16.4105
67.5305,16.3359
67.5832,16.2446
67.5916,16.2132
67.6105,16.1427
67.6105,16.0373
67.6105,16.0327
67.6105,16.0327
67.6105,14.7002
67.6322,14.6478
67.6627,14.6295
67.8293,14.5781
68.0576,14.4681
68.2670,14.3254
68.4297,14.1744
68.4828,14.1547
Z" /> 
<path style="fill:#4D7FC4; fill-opacity:1.0000; stroke:none;fill-rule:evenodd;"
d="M 90.6308,13.5222
93.7519,16.6433
93.7519,16.6433
93.7545,16.6459
93.8291,16.7205
93.8747,16.7468
93.8747,16.7468
93.8747,16.7468
93.9045,16.7640
93.9204,16.7732
93.9204,16.7732
93.9204,16.7732
93.9204,16.7732
93.9204,16.7732
93.9713,16.7869
94.0223,16.8005
94.0223,16.8005
94.0223,16.8005
94.1323,16.8005
94.1323,16.8005
120.2285,16.8005
120.2808,16.8222
123.3170,19.8584
123.3387,19.9108
123.3170,19.9631
123.2647,19.9848
123.2427,19.9814
123.1295,19.9461
123.1295,19.9461
123.0930,19.9395
122.8170,19.8889
122.5000,19.8697
122.1830,19.8889
121.8705,19.9461
121.5673,20.0406
121.2776,20.1710
121.2776,20.1710
121.0058,20.3353
120.7558,20.5312
120.5396,20.7474
120.4873,20.7690
120.4350,20.7474
120.4232,20.7320
120.4014,20.6942
120.4005,20.6927
120.3073,20.5995
120.2549,20.5692
120.1932,20.5336
120.1932,20.5336
120.0659,20.4995
120.0659,20.4995
115.0659,20.4995
114.9341,20.4995
114.9341,20.4995
114.8068,20.5336
114.8068,20.5336
114.6927,20.5995
114.5995,20.6927
114.5768,20.7320
114.5319,20.7665
114.4757,20.7591
114.4604,20.7474
114.2442,20.5312
113.9942,20.3353
113.8868,20.2704
113.7224,20.1710
113.7224,20.1710
113.7224,20.1710
113.5150,20.0776
113.4327,20.0406
113.4327,20.0406
113.4327,20.0406
113.1295,19.9461
113.1295,19.9461
113.0930,19.9395
112.8170,19.8889
112.5000,19.8697
112.1830,19.8889
111.8705,19.9461
111.5673,20.0406
111.2776,20.1710
111.2776,20.1710
111.0058,20.3353
110.7558,20.5312
110.5312,20.7558
110.3353,21.0058
110.2128,21.2084
110.1672,21.2420
110.1112,21.2335
110.0776,21.1878
110.0755,21.1701
110.0755,20.3538
110.0755,20.3538
110.0755,20.2424
110.0755,20.2424
110.0482,20.1405
110.0482,20.1405
110.0120,20.0777
109.9955,20.0492
109.9183,19.9720
109.9183,19.9720
108.7241,18.7778
107.4258,17.4795
107.4258,17.4795
107.4258,17.4795
107.3345,17.4268
107.3345,17.4268
107.2326,17.3995
107.2326,17.3995
92.5715,17.3995
92.5192,17.3778
91.2000,16.0586
89.8801,14.7387
89.8800,14.7387
89.8800,14.7387
89.7887,14.6859
89.7887,14.6859
89.6869,14.6586
89.6869,14.6586
85.7662,14.6586
85.7139,14.6370
85.6922,14.5846
85.7139,14.5323
85.7341,14.5180
85.8376,14.4681
86.0470,14.3254
86.2327,14.1531
86.3907,13.9550
86.5174,13.7355
86.5912,13.5475
86.6305,13.5067
86.6601,13.5005
90.5785,13.5005
Z" /> 
<path style="fill:#4D7FC4; fill-opacity:1.0000; stroke:none;fill-rule:evenodd;"
d="M 55.3378,13.6722
55.3595,13.7245
55.3595,13.9231
55.3623,13.9641
55.4064,14.1416
55.4876,14.3053
55.6022,14.4478
55.7447,14.5624
55.9084,14.6436
56.0859,14.6877
56.1269,14.6905
57.9731,14.6905
58.0141,14.6877
58.1916,14.6436
58.3553,14.5624
58.3921,14.5328
58.4465,14.5169
58.4961,14.5441
58.5120,14.5985
58.4908,14.6428
58.2558,14.8778
58.2035,14.8995
47.4336,14.8995
47.3966,14.8896
47.3744,14.8768
47.3744,14.8768
47.2726,14.8495
47.1671,14.8495
47.1162,14.8631
47.0653,14.8768
47.0653,14.8768
46.9739,14.9295
44.4756,17.4278
44.4233,17.4495
34.4728,17.4495
34.3674,17.4495
34.3333,17.4586
34.2655,17.4768
34.2655,17.4768
34.1742,17.5295
32.0795,19.6242
32.0268,19.7155
32.0268,19.7155
32.0165,19.7541
32.0165,19.7541
32.0096,19.7796
31.9995,19.8174
31.9995,21.3117
31.9778,21.3640
31.9255,21.3857
31.8732,21.3640
31.8580,21.3421
31.8290,21.2776
31.8290,21.2776
31.6647,21.0058
31.4688,20.7558
31.2442,20.5312
30.9942,20.3353
30.7224,20.1710
30.7224,20.1710
30.7224,20.1710
30.5150,20.0776
30.4327,20.0406
30.4327,20.0406
30.4327,20.0406
30.1295,19.9461
30.1295,19.9461
30.0930,19.9395
29.8170,19.8889
29.5000,19.8697
29.1830,19.8889
28.8705,19.9461
28.5673,20.0406
28.2776,20.1710
28.2776,20.1710
28.0058,20.3353
27.7558,20.5312
27.5396,20.7474
27.4873,20.7690
27.4350,20.7474
27.4232,20.7320
27.4014,20.6942
27.4005,20.6927
27.3073,20.5995
27.2549,20.5692
27.1932,20.5336
27.1932,20.5336
27.0659,20.4995
27.0659,20.4995
22.0659,20.4995
21.9341,20.4995
21.9341,20.4995
21.8068,20.5336
21.8068,20.5336
21.6927,20.5995
21.5995,20.6927
21.5768,20.7320
21.5319,20.7665
21.4757,20.7591
21.4604,20.7474
21.2442,20.5312
20.9942,20.3353
20.8868,20.2704
20.7224,20.1710
20.7224,20.1710
20.7224,20.1710
20.5150,20.0776
20.4327,20.0406
20.4327,20.0406
20.4327,20.0406
20.1295,19.9461
20.1295,19.9461
20.0930,19.9395
19.8170,19.8889
19.5000,19.8697
19.1830,19.8889
18.8705,19.9461
18.5673,20.0406
18.2776,20.1710
18.2776,20.1710
18.0058,20.3353
17.7558,20.5312
17.5312,20.7558
17.3353,21.0058
17.1710,21.2776
17.1710,21.2776
17.1420,21.3421
17.1007,21.3809
17.0441,21.3792
17.0053,21.3380
17.0005,21.3117
17.0005,20.7465
17.0222,20.6942
20.8442,16.8722
20.8965,16.8505
44.0927,16.8505
44.0927,16.8505
44.1945,16.8232
44.2859,16.7705
47.3842,13.6722
47.4365,13.6505
52.7473,13.6505
54.7973,13.6505
55.2855,13.6505
Z" /> 
<path style="fill:#4D7FC4; fill-opacity:1.0000; stroke:none;fill-rule:evenodd;"
d="M 124.8888,23.7665
124.9223,23.8121
124.9245,23.8299
124.9245,54.9785
124.9028,55.0308
124.6268,55.3068
124.5745,55.3285
124.5222,55.3068
124.5005,55.2545
124.5005,24.9341
124.5005,24.9341
124.4740,24.8350
124.4664,24.8068
124.4005,24.6927
124.3073,24.5995
124.2680,24.5768
124.2335,24.5319
124.2409,24.4757
124.2526,24.4604
124.4688,24.2442
124.6647,23.9942
124.7872,23.7916
124.8328,23.7580
Z" /> 
<path style="fill:#4D7FC4; fill-opacity:1.0000; stroke:none;fill-rule:evenodd;"
d="M 110.2018,23.7775
110.2128,23.7916
110.3353,23.9942
110.5312,24.2442
110.7474,24.4604
110.7690,24.5127
110.7474,24.5650
110.7320,24.5768
110.6927,24.5995
110.5995,24.6927
110.5336,24.8068
110.5336,24.8068
110.4995,24.9341
110.4995,39.0669
110.5000,39.0745
110.5000,41.4189
110.4998,41.4242
110.4944,41.5000
110.4944,41.5000
110.4998,41.5758
110.5000,41.5811
110.5000,43.9255
110.4995,43.9331
110.4995,55.2545
110.4778,55.3068
110.4255,55.3285
110.3732,55.3068
110.0972,55.0308
110.0755,54.9785
110.0755,23.8299
110.0972,23.7775
110.1495,23.7559
Z" /> 
<path style="fill:#4D7FC4; fill-opacity:1.0000; stroke:none;fill-rule:evenodd;"
d="M 80.5487,14.5948
80.5665,14.6079
82.6611,16.7025
82.6611,16.7025
82.6637,16.7051
82.7382,16.7796
82.8296,16.8323
82.8296,16.8323
82.8296,16.8323
82.8805,16.8460
82.9314,16.8596
82.9314,16.8596
82.9314,16.8596
83.0414,16.8596
83.0414,16.8596
87.9126,16.8596
87.9649,16.8813
90.6041,19.5205
90.6954,19.5732
90.7973,19.6005
106.4035,19.6005
106.4558,19.6222
107.4028,20.5692
107.4245,20.6215
107.4245,21.1701
107.4028,21.2225
107.3505,21.2441
107.2982,21.2225
107.2872,21.2084
107.1939,21.0541
107.1647,21.0058
106.9688,20.7558
106.7442,20.5312
106.4942,20.3353
106.2224,20.1710
106.2224,20.1710
106.2224,20.1710
106.0150,20.0776
105.9327,20.0406
105.9327,20.0406
105.9327,20.0406
105.6295,19.9461
105.6295,19.9461
105.5930,19.9395
105.3170,19.8889
105.0000,19.8697
104.6830,19.8889
104.3705,19.9461
104.0673,20.0406
103.7776,20.1710
103.7776,20.1710
103.5058,20.3353
103.2558,20.5312
103.0396,20.7474
102.9873,20.7690
102.9350,20.7474
102.9232,20.7320
102.9014,20.6942
102.9005,20.6927
102.8073,20.5995
102.7549,20.5692
102.6932,20.5336
102.6932,20.5336
102.5659,20.4995
102.5659,20.4995
97.5659,20.4995
97.4341,20.4995
97.4341,20.4995
97.3068,20.5336
97.3068,20.5336
97.1927,20.5995
97.0995,20.6927
97.0768,20.7320
97.0319,20.7665
96.9757,20.7591
96.9604,20.7474
96.7442,20.5312
96.4942,20.3353
96.3868,20.2704
96.2224,20.1710
96.2224,20.1710
96.2224,20.1710
96.0150,20.0776
95.9327,20.0406
95.9327,20.0406
95.9327,20.0406
95.6295,19.9461
95.6295,19.9461
95.5930,19.9395
95.3170,19.8889
95.0000,19.8697
94.6830,19.8889
94.3705,19.9461
94.0673,20.0406
93.7776,20.1710
93.7776,20.1710
93.5058,20.3353
93.2558,20.5312
93.0312,20.7558
92.8353,21.0058
92.6710,21.2776
92.6710,21.2776
92.5406,21.5673
92.4461,21.8705
92.3889,22.1830
92.3697,22.5000
92.3889,22.8170
92.4461,23.1295
92.5406,23.4327
92.6710,23.7224
92.6710,23.7224
92.8353,23.9942
93.0312,24.2442
93.2474,24.4604
93.2690,24.5127
93.2474,24.5650
93.2320,24.5768
93.1927,24.5995
93.0995,24.6927
93.0336,24.8068
93.0336,24.8068
92.9995,24.9341
92.9995,55.2545
92.9778,55.3068
92.9255,55.3285
92.8732,55.3068
91.0472,53.4808
91.0255,53.4285
91.0255,21.6223
91.0130,21.5758
91.0130,21.5758
90.9982,21.5204
90.9982,21.5204
90.9602,21.4546
90.9455,21.4291
90.8709,21.3545
90.8683,21.3519
90.8683,21.3519
89.0336,19.5172
87.0551,17.5387
87.0550,17.5387
87.0550,17.5387
86.9637,17.4859
86.9637,17.4859
86.9296,17.4768
86.8619,17.4586
86.8619,17.4586
82.0557,17.4586
82.0034,17.4370
79.2902,14.7238
79.2685,14.6715
79.2902,14.6192
79.3425,14.5975
79.3644,14.6008
79.5328,14.6527
79.5328,14.6527
79.7648,14.6877
79.7833,14.6905
79.7833,14.6905
80.0367,14.6905
80.0367,14.6905
80.2872,14.6527
80.4923,14.5895
Z" /> 
<path style="fill:#4D7FC4; fill-opacity:1.0000; stroke:none;fill-rule:evenodd;"
d="M 63.4503,14.1744
63.6130,14.3254
63.8224,14.4681
64.0507,14.5781
64.2173,14.6295
64.2609,14.6656
64.2695,14.7002
64.2695,15.7055
64.2478,15.7579
62.2779,17.7278
62.2255,17.7495
53.2473,17.7495
53.1454,17.7768
53.1454,17.7768
53.1454,17.7768
53.1099,17.7973
53.0541,17.8295
51.1045,19.7791
51.0518,19.8704
51.0518,19.8704
51.0315,19.9461
51.0315,19.9461
51.0245,19.9723
51.0245,53.3785
51.0028,53.4308
49.1268,55.3068
49.0745,55.3285
49.0222,55.3068
49.0005,55.2545
49.0005,24.9341
49.0005,24.9341
48.9740,24.8350
48.9664,24.8068
48.9005,24.6927
48.8073,24.5995
48.7680,24.5768
48.7335,24.5319
48.7409,24.4757
48.7526,24.4604
48.9688,24.2442
49.1647,23.9942
49.3290,23.7224
49.4594,23.4327
49.5539,23.1295
49.6111,22.8170
49.6303,22.5000
49.6111,22.1830
49.5539,21.8705
49.4594,21.5673
49.3290,21.2776
49.1647,21.0058
48.9688,20.7558
48.7442,20.5312
48.4942,20.3353
48.2224,20.1710
48.2224,20.1710
48.2224,20.1710
48.0150,20.0776
47.9327,20.0406
47.9327,20.0406
47.9327,20.0406
47.6295,19.9461
47.6295,19.9461
47.5930,19.9395
47.3170,19.8889
47.0000,19.8697
46.6830,19.8889
46.3705,19.9461
46.0673,20.0406
45.7776,20.1710
45.7776,20.1710
45.5058,20.3353
45.2558,20.5312
45.0396,20.7474
44.9873,20.7690
44.9350,20.7474
44.9232,20.7320
44.9014,20.6942
44.9005,20.6927
44.8073,20.5995
44.7549,20.5692
44.6932,20.5336
44.6932,20.5336
44.5659,20.4995
44.5659,20.4995
39.5659,20.4995
39.4341,20.4995
39.4341,20.4995
39.3068,20.5336
39.3068,20.5336
39.1927,20.5995
39.0995,20.6927
39.0768,20.7320
39.0319,20.7665
38.9757,20.7591
38.9604,20.7474
38.7442,20.5312
38.4942,20.3353
38.3868,20.2704
38.2224,20.1710
38.2224,20.1710
38.2224,20.1710
38.0150,20.0776
37.9327,20.0406
37.9327,20.0406
37.9327,20.0406
37.6295,19.9461
37.6295,19.9461
37.5930,19.9395
37.3170,19.8889
37.0000,19.8697
36.6830,19.8889
36.3705,19.9461
36.0673,20.0406
35.7776,20.1710
35.7776,20.1710
35.5058,20.3353
35.2558,20.5312
35.0312,20.7558
34.8353,21.0058
34.6710,21.2776
34.6710,21.2776
34.5406,21.5673
34.4461,21.8705
34.3889,22.1830
34.3697,22.5000
34.3889,22.8170
34.4461,23.1295
34.5406,23.4327
34.6710,23.7224
34.6710,23.7224
34.8353,23.9942
35.0312,24.2442
35.2474,24.4604
35.2690,24.5127
35.2474,24.5650
35.2320,24.5768
35.1927,24.5995
35.0995,24.6927
35.0336,24.8068
35.0336,24.8068
34.9995,24.9341
34.9995,39.0669
35.0000,39.0745
35.0000,41.4189
34.9998,41.4242
34.9944,41.5000
34.9944,41.5000
34.9998,41.5758
35.0000,41.5811
35.0000,43.9255
34.9995,43.9331
34.9995,55.2545
34.9778,55.3068
34.9255,55.3285
34.8732,55.3068
34.2222,54.6558
34.2005,54.6035
34.2005,20.6465
34.2222,20.5942
34.3771,20.4393
34.5705,20.2459
34.5705,20.2459
35.1192,19.6972
35.1715,19.6755
45.2275,19.6755
45.2275,19.6755
45.3293,19.6482
45.4207,19.5955
47.8440,17.1722
47.8963,17.1505
61.3348,17.1505
61.3348,17.1505
61.4367,17.1232
61.5280,17.0705
62.4455,16.1530
62.4758,16.1005
62.4982,16.0617
62.5255,15.9598
62.5255,14.7017
62.5472,14.6494
62.5777,14.6310
62.7493,14.5781
62.9776,14.4681
63.1870,14.3254
63.3497,14.1744
63.4028,14.1547
Z" /> 
<path style="fill:#4D7FC4; fill-opacity:1.0000; stroke:none;fill-rule:evenodd;"
d="M 31.9559,23.6208
31.9947,23.6620
31.9995,23.6883
31.9995,54.9035
31.9778,54.9558
31.6268,55.3068
31.5745,55.3285
31.5222,55.3068
31.5005,55.2545
31.5005,43.9331
31.5000,43.9255
31.5000,41.5811
31.5002,41.5758
31.5056,41.5000
31.5056,41.5000
31.5002,41.4242
31.5000,41.4189
31.5000,39.0745
31.5005,39.0669
31.5005,24.9341
31.5005,24.9341
31.4740,24.8350
31.4664,24.8068
31.4005,24.6927
31.3073,24.5995
31.2680,24.5768
31.2335,24.5319
31.2409,24.4757
31.2526,24.4604
31.4688,24.2442
31.6647,23.9942
31.8290,23.7224
31.8580,23.6579
31.8993,23.6191
Z" /> 
<path style="fill:#4D7FC4; fill-opacity:1.0000; stroke:none;fill-rule:evenodd;"
d="M 17.1268,23.6360
17.1420,23.6579
17.1710,23.7224
17.1710,23.7224
17.3353,23.9942
17.5312,24.2442
17.7474,24.4604
17.7690,24.5127
17.7474,24.5650
17.7320,24.5768
17.6927,24.5995
17.5995,24.6927
17.5336,24.8068
17.5336,24.8068
17.4995,24.9341
17.4995,55.2545
17.4778,55.3068
17.4255,55.3285
17.3732,55.3068
17.0222,54.9558
17.0005,54.9035
17.0005,23.6883
17.0222,23.6360
17.0745,23.6143
Z" /> 
<path style="fill:#4D7FC4; fill-opacity:1.0000; stroke:none;fill-rule:evenodd;"
d="M 87.3871,21.7131
87.4051,21.7263
88.3278,22.6491
88.3495,22.7014
88.3495,53.8535
88.3278,53.9058
86.8768,55.3568
86.8245,55.3785
86.7722,55.3568
86.7505,55.3045
86.7505,24.9341
86.7505,24.9341
86.7240,24.8350
86.7164,24.8068
86.6505,24.6927
86.5573,24.5995
86.5180,24.5768
86.4835,24.5319
86.4909,24.4757
86.5026,24.4604
86.7188,24.2442
86.9147,23.9942
87.0790,23.7224
87.2094,23.4327
87.3039,23.1295
87.3611,22.8170
87.3803,22.5000
87.3611,22.1830
87.3039,21.8705
87.2821,21.8006
87.2872,21.7442
87.3307,21.7080
Z" /> 
<path style="fill:#4D7FC4; fill-opacity:1.0000; stroke:none;fill-rule:evenodd;"
d="M 55.9725,20.0972
55.9941,20.1495
55.9725,20.2018
55.9584,20.2128
55.7558,20.3353
55.5058,20.5312
55.2812,20.7558
55.0853,21.0058
54.9210,21.2776
54.9210,21.2776
54.7906,21.5673
54.6961,21.8705
54.6389,22.1830
54.6197,22.5000
54.6389,22.8170
54.6961,23.1295
54.7906,23.4327
54.9210,23.7224
54.9210,23.7224
55.0853,23.9942
55.2812,24.2442
55.4974,24.4604
55.5190,24.5127
55.4974,24.5650
55.4820,24.5768
55.4427,24.5995
55.3495,24.6927
55.2836,24.8068
55.2836,24.8068
55.2495,24.9341
55.2495,55.4045
55.2278,55.4568
55.1755,55.4785
55.1232,55.4568
53.2472,53.5808
53.2255,53.5285
53.2255,22.5465
53.2472,22.4942
55.6442,20.0972
55.6965,20.0755
55.9201,20.0755
Z" /> 
<path style="fill:#4D7FC4; fill-opacity:1.0000; stroke:none;fill-rule:evenodd;"
d="M 69.6388,23.7665
69.6723,23.8121
69.6745,23.8299
69.6745,55.2535
69.6528,55.3058
69.3768,55.5818
69.3245,55.6035
69.2722,55.5818
69.2505,55.5295
69.2505,43.9331
69.2500,43.9255
69.2500,41.5811
69.2502,41.5758
69.2556,41.5000
69.2556,41.5000
69.2502,41.4242
69.2500,41.4189
69.2500,39.0745
69.2505,39.0669
69.2505,24.9341
69.2505,24.9341
69.2240,24.8350
69.2164,24.8068
69.1505,24.6927
69.0573,24.5995
69.0180,24.5768
68.9835,24.5319
68.9909,24.4757
69.0026,24.4604
69.2188,24.2442
69.4147,23.9942
69.5372,23.7916
69.5828,23.7580
Z" /> 
<path style="fill:#4D7FC4; fill-opacity:1.0000; stroke:none;fill-rule:evenodd;"
d="M 72.4518,23.7775
72.4628,23.7916
72.5853,23.9942
72.7812,24.2442
72.9974,24.4604
73.0190,24.5127
72.9974,24.5650
72.9820,24.5768
72.9427,24.5995
72.8495,24.6927
72.7836,24.8068
72.7836,24.8068
72.7495,24.9341
72.7495,39.0669
72.7500,39.0745
72.7500,41.4189
72.7498,41.4242
72.7444,41.5000
72.7444,41.5000
72.7498,41.5758
72.7500,41.5811
72.7500,43.9255
72.7495,43.9331
72.7495,43.9341
72.7495,55.4341
72.7495,55.5659
72.7634,55.6177
72.7667,55.6300
72.7593,55.6862
72.7144,55.7206
72.6582,55.7132
72.6429,55.7015
72.3472,55.4058
72.3255,55.3535
72.3255,23.8299
72.3472,23.7775
72.3995,23.7559
Z" /> 
<path style="fill:#4D7FC4; fill-opacity:1.0000; stroke:none;fill-rule:evenodd;"
d="M 107.3888,23.7665
107.4223,23.8121
107.4245,23.8299
107.4245,55.4785
107.4028,55.5308
106.8756,56.0580
106.8233,56.0796
106.7710,56.0580
106.7526,56.0396
106.7310,55.9873
106.7526,55.9350
106.7680,55.9232
106.8073,55.9005
106.9005,55.8073
106.9664,55.6932
107.0005,55.5659
107.0005,55.5659
107.0005,43.9331
107.0000,43.9255
107.0000,41.5811
107.0002,41.5758
107.0056,41.5000
107.0056,41.5000
107.0002,41.4242
107.0000,41.4189
107.0000,39.0745
107.0005,39.0669
107.0005,24.9341
107.0005,24.9341
106.9740,24.8350
106.9664,24.8068
106.9005,24.6927
106.8073,24.5995
106.7680,24.5768
106.7335,24.5319
106.7409,24.4757
106.7526,24.4604
106.9688,24.2442
107.1647,23.9942
107.2872,23.7916
107.3328,23.7580
Z" /> 
<path style="fill:#4D7FC4; fill-opacity:1.0000; stroke:none;fill-rule:evenodd;"
d="M 114.7767,59.4490
114.8016,59.4634
114.8068,59.4664
114.9341,59.5005
114.9341,59.5005
114.9341,59.5005
120.0659,59.5005
120.0659,59.5005
120.1932,59.4664
120.2233,59.4490
120.2794,59.4416
120.3236,59.4748
120.3353,59.4942
120.3353,59.4942
120.5312,59.7442
120.7558,59.9688
121.0058,60.1647
121.2776,60.3290
121.3421,60.3580
121.3809,60.3993
121.3792,60.4559
121.3380,60.4947
121.3117,60.4995
113.6883,60.4995
113.6360,60.4778
113.6143,60.4255
113.6360,60.3732
113.6579,60.3580
113.7224,60.3290
113.9942,60.1647
114.2442,59.9688
114.4688,59.7442
114.6647,59.4942
114.6764,59.4748
114.7220,59.4413
Z" /> 
<path style="fill:#4D7FC4; fill-opacity:1.0000; stroke:none;fill-rule:evenodd;"
d="M 83.1085,14.5887
83.1262,14.6018
83.9041,15.3796
83.9954,15.4323
84.0973,15.4596
84.2027,15.4596
89.4376,15.4596
89.4899,15.4813
92.1291,18.1205
92.2204,18.1732
92.3223,18.2005
106.9834,18.2005
107.0357,18.2222
109.2528,20.4393
109.2745,20.4916
109.2745,55.1223
109.2745,55.2277
109.2884,55.2796
109.3018,55.3296
109.3018,55.3296
109.3545,55.4209
109.3545,55.4209
109.3545,55.4209
109.8545,55.9209
110.3347,56.4011
110.3564,56.4534
110.3406,56.4990
110.3353,56.5058
110.3353,56.5058
110.1710,56.7776
110.1710,56.7776
110.0406,57.0673
109.9461,57.3705
109.8889,57.6830
109.8697,58.0000
109.8889,58.3170
109.9461,58.6295
110.0406,58.9327
110.0406,58.9327
110.0406,58.9327
110.1710,59.2224
110.3353,59.4942
110.5312,59.7442
110.7558,59.9688
111.0058,60.1647
111.2776,60.3290
111.3421,60.3580
111.3809,60.3993
111.3792,60.4559
111.3380,60.4947
111.3117,60.4995
106.1883,60.4995
106.1360,60.4778
106.1143,60.4255
106.1360,60.3732
106.1579,60.3580
106.2224,60.3290
106.4942,60.1647
106.7442,59.9688
106.9688,59.7442
107.1647,59.4942
107.3290,59.2224
107.4594,58.9327
107.5539,58.6295
107.6111,58.3170
107.6303,58.0000
107.6111,57.6830
107.5539,57.3705
107.4594,57.0673
107.3375,56.7964
107.3358,56.7398
107.3526,56.7138
108.0709,55.9955
108.0709,55.9955
108.1455,55.9209
108.1982,55.8296
108.2255,55.7277
108.2255,55.7277
108.2255,55.6177
108.2255,55.6177
108.2255,20.4837
108.2255,20.4837
108.2255,20.3723
108.2255,20.3723
108.1982,20.2704
108.1982,20.2704
108.1982,20.2704
108.1746,20.2295
108.1455,20.1791
108.0709,20.1045
108.0683,20.1019
108.0683,20.1019
107.4836,19.5172
106.8459,18.8795
106.8459,18.8795
106.8459,18.8795
106.7546,18.8268
106.7546,18.8268
106.6527,18.7995
106.6527,18.7995
91.0465,18.7995
90.9942,18.7778
89.6750,17.4586
88.3551,16.1387
88.3550,16.1387
88.3550,16.1387
88.2637,16.0859
88.2637,16.0859
88.1619,16.0586
88.1619,16.0586
83.1807,16.0586
83.1284,16.0370
82.3249,15.2335
81.8085,14.7171
81.7869,14.6648
81.8085,14.6125
81.8609,14.5908
81.8827,14.5941
82.0728,14.6527
82.0728,14.6527
82.3048,14.6877
82.3233,14.6905
82.3233,14.6905
82.5767,14.6905
82.5767,14.6905
82.8272,14.6527
83.0521,14.5834
Z" /> 
<path style="fill:#4D7FC4; fill-opacity:1.0000; stroke:none;fill-rule:evenodd;"
d="M 97.2767,59.4490
97.3016,59.4634
97.3068,59.4664
97.4341,59.5005
97.4341,59.5005
97.4341,59.5005
102.5659,59.5005
102.5659,59.5005
102.6932,59.4664
102.7233,59.4490
102.7794,59.4416
102.8236,59.4748
102.8353,59.4942
102.8353,59.4942
103.0312,59.7442
103.2558,59.9688
103.5058,60.1647
103.7776,60.3290
103.8421,60.3580
103.8809,60.3993
103.8792,60.4559
103.8380,60.4947
103.8117,60.4995
96.1883,60.4995
96.1360,60.4778
96.1143,60.4255
96.1360,60.3732
96.1579,60.3580
96.2224,60.3290
96.4942,60.1647
96.7442,59.9688
96.9688,59.7442
97.1647,59.4942
97.1764,59.4748
97.2220,59.4413
Z" /> 
<path style="fill:#4D7FC4; fill-opacity:1.0000; stroke:none;fill-rule:evenodd;"
d="M 76.1503,14.1744
76.3130,14.3254
76.5224,14.4681
76.7507,14.5781
76.8840,14.6192
76.9928,14.6527
76.9928,14.6527
77.2248,14.6877
77.2433,14.6905
77.2433,14.6905
77.4967,14.6905
77.4967,14.6905
77.7472,14.6527
77.9638,14.5859
78.0202,14.5912
78.0379,14.6043
81.5387,18.1050
81.5387,18.1051
81.6132,18.1796
81.7046,18.2323
81.8064,18.2596
81.8064,18.2596
81.8064,18.2596
86.6126,18.2596
86.6649,18.2813
90.2028,21.8192
90.2245,21.8715
90.2245,53.5723
90.2245,53.6777
90.2384,53.7296
90.2518,53.7796
90.2518,53.7796
90.3045,53.8709
90.3045,53.8709
90.3045,53.8709
91.5863,55.1527
92.8347,56.4011
92.8564,56.4534
92.8406,56.4990
92.8353,56.5058
92.8353,56.5058
92.6710,56.7776
92.6710,56.7776
92.5406,57.0673
92.4461,57.3705
92.3889,57.6830
92.3697,58.0000
92.3889,58.3170
92.4461,58.6295
92.5406,58.9327
92.5406,58.9327
92.5406,58.9327
92.6710,59.2224
92.8353,59.4942
93.0312,59.7442
93.2558,59.9688
93.5058,60.1647
93.7776,60.3290
93.8421,60.3580
93.8809,60.3993
93.8792,60.4559
93.8380,60.4947
93.8117,60.4995
85.9383,60.4995
85.8860,60.4778
85.8643,60.4255
85.8860,60.3732
85.9079,60.3580
85.9724,60.3290
86.2442,60.1647
86.4942,59.9688
86.7188,59.7442
86.9147,59.4942
87.0790,59.2224
87.2094,58.9327
87.3039,58.6295
87.3611,58.3170
87.3803,58.0000
87.3611,57.6830
87.3039,57.3705
87.2094,57.0673
87.0790,56.7776
86.9243,56.5217
86.9158,56.4657
86.9353,56.4311
88.9959,54.3705
88.9959,54.3705
89.0705,54.2959
89.1232,54.2046
89.1505,54.1027
89.1505,54.1027
89.1505,53.9927
89.1505,53.9927
89.1505,22.5635
89.1505,22.5635
89.1505,22.4521
89.1505,22.4521
89.1232,22.3503
89.1232,22.3503
89.0981,22.3068
89.0705,22.2589
88.9959,22.1844
88.9933,22.1818
88.9933,22.1818
87.5937,20.7822
86.1661,19.3545
86.1661,19.3545
86.1661,19.3545
86.0747,19.3018
86.0747,19.3018
86.0487,19.2948
85.9729,19.2745
85.9729,19.2745
78.7995,19.2745
78.7471,19.2528
75.2472,15.7529
75.2255,15.7005
75.2255,14.7017
75.2472,14.6494
75.2777,14.6310
75.4493,14.5781
75.6776,14.4681
75.8870,14.3254
76.0497,14.1744
76.1028,14.1547
Z" /> 
<path style="fill:#4D7FC4; fill-opacity:1.0000; stroke:none;fill-rule:evenodd;"
d="M 77.0267,59.4490
77.0516,59.4634
77.0568,59.4664
77.1841,59.5005
77.1841,59.5005
77.1841,59.5005
82.3159,59.5005
82.3159,59.5005
82.4432,59.4664
82.4733,59.4490
82.5294,59.4416
82.5736,59.4748
82.5853,59.4942
82.5853,59.4942
82.7812,59.7442
83.0058,59.9688
83.2558,60.1647
83.5276,60.3290
83.5921,60.3580
83.6309,60.3993
83.6292,60.4559
83.5880,60.4947
83.5617,60.4995
75.9383,60.4995
75.8860,60.4778
75.8643,60.4255
75.8860,60.3732
75.9079,60.3580
75.9724,60.3290
76.2442,60.1647
76.4942,59.9688
76.7188,59.7442
76.9147,59.4942
76.9264,59.4748
76.9720,59.4413
Z" /> 
<path style="fill:#4D7FC4; fill-opacity:1.0000; stroke:none;fill-rule:evenodd;"
d="M 71.0703,14.1744
71.2330,14.3254
71.4424,14.4681
71.6707,14.5781
71.8373,14.6295
71.8809,14.6656
71.8895,14.7002
71.8895,20.7683
71.8678,20.8206
71.6045,21.0839
71.5518,21.1753
71.5518,21.1753
71.5423,21.2108
71.5423,21.2108
71.5423,21.2108
71.5245,21.2771
71.5245,55.4973
71.5245,55.6027
71.5469,55.6862
71.5518,55.7046
71.5518,55.7046
71.6045,55.7959
71.6045,55.7959
71.6045,55.7959
72.0258,56.2172
72.4423,56.6336
72.4639,56.6860
72.4533,56.7243
72.4210,56.7776
72.4210,56.7776
72.2906,57.0673
72.1961,57.3705
72.1389,57.6830
72.1197,58.0000
72.1389,58.3170
72.1961,58.6295
72.2906,58.9327
72.2906,58.9327
72.2906,58.9327
72.4210,59.2224
72.5853,59.4942
72.7812,59.7442
73.0058,59.9688
73.2558,60.1647
73.5276,60.3290
73.5921,60.3580
73.6309,60.3993
73.6292,60.4559
73.5880,60.4947
73.5617,60.4995
68.4383,60.4995
68.3860,60.4778
68.3643,60.4255
68.3860,60.3732
68.4079,60.3580
68.4724,60.3290
68.7442,60.1647
68.9942,59.9688
69.2188,59.7442
69.4147,59.4942
69.5790,59.2224
69.7094,58.9327
69.8039,58.6295
69.8611,58.3170
69.8803,58.0000
69.8611,57.6830
69.8039,57.3705
69.7094,57.0673
69.5790,56.7776
69.5790,56.7776
69.5168,56.6746
69.5091,56.6619
69.5005,56.6059
69.5201,56.5713
70.3209,55.7705
70.3209,55.7705
70.3955,55.6959
70.4482,55.6046
70.4560,55.5755
70.4683,55.5295
70.4755,55.5027
70.4755,55.3927
70.4755,55.3927
70.4755,21.2771
70.4755,21.2771
70.4577,21.2108
70.4482,21.1753
70.3955,21.0839
70.3209,21.0094
70.1722,20.8606
70.1505,20.8083
70.1505,14.7002
70.1722,14.6478
70.2027,14.6295
70.3693,14.5781
70.5976,14.4681
70.8070,14.3254
70.9697,14.1744
71.0228,14.1547
Z" /> 
<path style="fill:#4D7FC4; fill-opacity:1.0000; stroke:none;fill-rule:evenodd;"
d="M 59.5267,59.4490
59.5516,59.4634
59.5568,59.4664
59.6841,59.5005
59.6841,59.5005
59.6841,59.5005
64.8159,59.5005
64.8159,59.5005
64.9432,59.4664
64.9733,59.4490
65.0294,59.4416
65.0736,59.4748
65.0853,59.4942
65.0853,59.4942
65.2812,59.7442
65.5058,59.9688
65.7558,60.1647
66.0276,60.3290
66.0921,60.3580
66.1309,60.3993
66.1292,60.4559
66.0880,60.4947
66.0617,60.4995
58.4383,60.4995
58.3860,60.4778
58.3643,60.4255
58.3860,60.3732
58.4079,60.3580
58.4724,60.3290
58.7442,60.1647
58.9942,59.9688
59.2188,59.7442
59.4147,59.4942
59.4264,59.4748
59.4720,59.4413
Z" /> 
<path style="fill:#4D7FC4; fill-opacity:1.0000; stroke:none;fill-rule:evenodd;"
d="M 65.9903,14.1744
66.1530,14.3254
66.3624,14.4681
66.5907,14.5781
66.7573,14.6295
66.8009,14.6656
66.8095,14.7002
66.8095,15.8935
66.7878,15.9458
63.4808,19.2528
63.4285,19.2745
55.5527,19.2745
55.4473,19.2745
55.3963,19.2881
55.3454,19.3018
55.3454,19.3018
55.2541,19.3545
52.5045,22.1041
52.4518,22.1954
52.4518,22.1954
52.4245,22.2973
52.4245,53.6723
52.4245,53.7777
52.4448,53.8535
52.4518,53.8796
52.4518,53.8796
52.5045,53.9709
52.5045,53.9709
52.5045,53.9709
53.7871,55.2535
55.0270,56.4934
55.0487,56.5457
55.0380,56.5840
54.9210,56.7776
54.9210,56.7776
54.7906,57.0673
54.6961,57.3705
54.6389,57.6830
54.6197,58.0000
54.6389,58.3170
54.6961,58.6295
54.7906,58.9327
54.7906,58.9327
54.7906,58.9327
54.9210,59.2224
55.0853,59.4942
55.2812,59.7442
55.5058,59.9688
55.7558,60.1647
56.0276,60.3290
56.0921,60.3580
56.1309,60.3993
56.1292,60.4559
56.0880,60.4947
56.0617,60.4995
48.1883,60.4995
48.1360,60.4778
48.1143,60.4255
48.1360,60.3732
48.1579,60.3580
48.2224,60.3290
48.4942,60.1647
48.7442,59.9688
48.9688,59.7442
49.1647,59.4942
49.3290,59.2224
49.4594,58.9327
49.5539,58.6295
49.6111,58.3170
49.6303,58.0000
49.6111,57.6830
49.5539,57.3705
49.4594,57.0673
49.3290,56.7776
49.1647,56.5058
49.1594,56.4990
49.1442,56.4445
49.1653,56.4011
51.7455,53.8209
51.7982,53.7296
51.8255,53.6277
51.8255,53.5223
51.8255,22.9723
51.8255,20.2215
51.8472,20.1692
53.4442,18.5722
53.4965,18.5505
62.4748,18.5505
62.4748,18.5505
62.5767,18.5232
62.6680,18.4705
64.9159,16.2226
64.9159,16.2226
64.9905,16.1480
65.0432,16.0567
65.0705,15.9548
65.0705,15.9548
65.0705,15.8448
65.0705,15.8448
65.0705,14.7002
65.0922,14.6478
65.1227,14.6295
65.2893,14.5781
65.5176,14.4681
65.7270,14.3254
65.8897,14.1744
65.9428,14.1547
Z" /> 
<path style="fill:#4D7FC4; fill-opacity:1.0000; stroke:none;fill-rule:evenodd;"
d="M 39.2767,59.4490
39.3016,59.4634
39.3068,59.4664
39.4341,59.5005
39.4341,59.5005
39.4341,59.5005
44.5659,59.5005
44.5659,59.5005
44.6932,59.4664
44.7233,59.4490
44.7794,59.4416
44.8236,59.4748
44.8353,59.4942
44.8353,59.4942
45.0312,59.7442
45.2558,59.9688
45.5058,60.1647
45.7776,60.3290
45.8421,60.3580
45.8809,60.3993
45.8792,60.4559
45.8380,60.4947
45.8117,60.4995
38.1883,60.4995
38.1360,60.4778
38.1143,60.4255
38.1360,60.3732
38.1579,60.3580
38.2224,60.3290
38.4942,60.1647
38.7442,59.9688
38.9688,59.7442
39.1647,59.4942
39.1764,59.4748
39.2220,59.4413
Z" /> 
<path style="fill:#4D7FC4; fill-opacity:1.0000; stroke:none;fill-rule:evenodd;"
d="M 60.9103,14.1744
61.0730,14.3254
61.2824,14.4681
61.5107,14.5781
61.6723,14.6279
61.7159,14.6641
61.7245,14.6986
61.7245,15.7105
61.7028,15.7629
61.1379,16.3278
61.0855,16.3495
47.7525,16.3495
47.6470,16.3495
47.5961,16.3631
47.5452,16.3768
47.5452,16.3768
47.4538,16.4295
45.0305,18.8528
44.9782,18.8745
35.0277,18.8745
34.9223,18.8745
34.9035,18.8795
34.8204,18.9018
34.8204,18.9018
34.7291,18.9545
33.9999,19.6837
33.4795,20.2041
33.4268,20.2954
33.4268,20.2954
33.4070,20.3691
33.4070,20.3691
33.4000,20.3954
33.3995,20.3973
33.3995,54.7473
33.3995,54.8527
33.4213,54.9341
33.4268,54.9546
33.4268,54.9546
33.4795,55.0459
33.4795,55.0459
33.4795,55.0459
34.1613,55.7277
34.8347,56.4011
34.8564,56.4534
34.8406,56.4990
34.8353,56.5058
34.8353,56.5058
34.6710,56.7776
34.6710,56.7776
34.5406,57.0673
34.4461,57.3705
34.3889,57.6830
34.3697,58.0000
34.3889,58.3170
34.4461,58.6295
34.5406,58.9327
34.5406,58.9327
34.5406,58.9327
34.6710,59.2224
34.8353,59.4942
35.0312,59.7442
35.2558,59.9688
35.5058,60.1647
35.7776,60.3290
35.8421,60.3580
35.8809,60.3993
35.8792,60.4559
35.8380,60.4947
35.8117,60.4995
30.6883,60.4995
30.6360,60.4778
30.6143,60.4255
30.6360,60.3732
30.6579,60.3580
30.7224,60.3290
30.9942,60.1647
31.2442,59.9688
31.4688,59.7442
31.6647,59.4942
31.8290,59.2224
31.9594,58.9327
32.0539,58.6295
32.1111,58.3170
32.1303,58.0000
32.1111,57.6830
32.0539,57.3705
31.9594,57.0673
31.8290,56.7776
31.6647,56.5058
31.6594,56.4990
31.6442,56.4445
31.6653,56.4011
32.7205,55.3459
32.7446,55.3041
32.7732,55.2546
32.8005,55.1527
32.8005,55.1527
32.8005,20.0666
32.8222,20.0143
34.5643,18.2722
34.6166,18.2505
44.6726,18.2505
44.6726,18.2505
44.7744,18.2232
44.8658,18.1705
47.3141,15.7222
47.3664,15.7005
58.4527,15.7005
58.4527,15.7005
58.5546,15.6732
58.6459,15.6205
59.5542,14.7122
59.6065,14.6905
59.7167,14.6905
59.7167,14.6905
59.9672,14.6527
60.2093,14.5781
60.4376,14.4681
60.6470,14.3254
60.8097,14.1744
60.8628,14.1547
Z" /> 
<path style="fill:#4D7FC4; fill-opacity:1.0000; stroke:none;fill-rule:evenodd;"
d="M 21.7767,59.4490
21.8016,59.4634
21.8068,59.4664
21.9341,59.5005
21.9341,59.5005
21.9341,59.5005
27.0659,59.5005
27.0659,59.5005
27.1932,59.4664
27.2233,59.4490
27.2794,59.4416
27.3236,59.4748
27.3353,59.4942
27.3353,59.4942
27.5312,59.7442
27.7558,59.9688
28.0058,60.1647
28.2776,60.3290
28.3421,60.3580
28.3809,60.3993
28.3792,60.4559
28.3380,60.4947
28.3117,60.4995
20.6883,60.4995
20.6360,60.4778
20.6143,60.4255
20.6360,60.3732
20.6579,60.3580
20.7224,60.3290
20.9942,60.1647
21.2442,59.9688
21.4688,59.7442
21.6647,59.4942
21.6764,59.4748
21.7220,59.4413
Z" /> 
</g>
<g style="fill:#FFFFFF; fill-opacity:1.0000; stroke:none;">
<circle cx="112.5000" cy="22.5000" r="1.2450" /> 
</g>
<g style="fill:#FFFFFF; fill-opacity:1.0000; stroke:none;">
<circle cx="47.0000" cy="22.5000" r="1.2450" /> 
</g>
<g style="fill:#FFFFFF; fill-opacity:1.0000; stroke:none;">
<circle cx="37.0000" cy="22.5000" r="1.2450" /> 
</g>
<g style="fill:#FFFFFF; fill-opacity:1.0000; stroke:none;">
<circle cx="19.5000" cy="22.5000" r="1.2450" /> 
</g>
<g style="fill:#FFFFFF; fill-opacity:1.0000; stroke:none;">
<circle cx="74.7500" cy="22.5000" r="1.2450" /> 
</g>
<g style="fill:#FFFFFF; fill-opacity:1.0000; stroke:none;">
<circle cx="67.2500" cy="22.5000" r="1.2450" /> 
</g>
<g style="fill:#FFFFFF; fill-opacity:1.0000; stroke:none;">
<circle cx="57.2500" cy="58.0000" r="1.2450" /> 
</g>
<g style="fill:#FFFFFF; fill-opacity:1.0000; stroke:none;">
<circle cx="47.0000" cy="58.0000" r="1.2450" /> 
</g>
<g style="fill:#FFFFFF; fill-opacity:1.0000; stroke:none;">
<circle cx="11.5000" cy="21.0000" r="1.6000" /> 
</g>
<g style="fill:#FFFFFF; fill-opacity:1.0000; stroke:none;">
<circle cx="11.5000" cy="56.5000" r="1.6000" /> 
</g>
<g style="fill:#FFFFFF; fill-opacity:1.0000; stroke:none;">
<circle cx="105.0000" cy="58.0000" r="1.2450" /> 
</g>
<g style="fill:#FFFFFF; fill-opacity:1.0000; stroke:none;">
<circle cx="130.5000" cy="56.5000" r="1.6000" /> 
</g>
<g style="fill:#FFFFFF; fill-opacity:1.0000; stroke:none;">
<circle cx="112.5000" cy="58.0000" r="1.2450" /> 
</g>
<g style="fill:#FFFFFF; fill-opacity:1.0000; stroke:none;">
<circle cx="95.0000" cy="58.0000" r="1.2450" /> 
</g>
<g style="fill:#FFFFFF; fill-opacity:1.0000; stroke:none;">
<circle cx="130.5000" cy="21.0000" r="1.6000" /> 
</g>
<g style="fill:#FFFFFF; fill-opacity:1.0000; stroke:none;">
<circle cx="19.5000" cy="58.0000" r="1.2450" /> 
</g>
<g style="fill:#FFFFFF; fill-opacity:1.0000; stroke:none;">
<circle cx="57.2500" cy="22.5000" r="1.2450" /> 
</g>
<g style="fill:#FFFFFF; fill-opacity:1.0000; stroke:none;">
<circle cx="122.5000" cy="22.5000" r="1.2450" /> 
</g>
<g style="fill:#FFFFFF; fill-opacity:1.0000; stroke:none;">
<circle cx="105.0000" cy="22.5000" r="1.2450" /> 
</g>
<g style="fill:#FFFFFF; fill-opacity:1.0000; stroke:none;">
<circle cx="29.5000" cy="58.0000" r="1.2450" /> 
</g>
<g style="fill:#FFFFFF; fill-opacity:1.0000; stroke:none;">
<circle cx="122.5000" cy="58.0000" r="1.2450" /> 
</g>
<g style="fill:#FFFFFF; fill-opacity:1.0000; stroke:none;">
<circle cx="84.7500" cy="22.5000" r="1.2450" /> 
</g>
<g style="fill:#FFFFFF; fill-opacity:1.0000; stroke:none;">
<circle cx="84.7500" cy="58.0000" r="1.2450" /> 
</g>
<g style="fill:#FFFFFF; fill-opacity:1.0000; stroke:none;">
<circle cx="67.2500" cy="58.0000" r="1.2450" /> 
</g>
<g style="fill:#FFFFFF; fill-opacity:1.0000; stroke:none;">
<circle cx="74.7500" cy="58.0000" r="1.2450" /> 
</g>
<g style="fill:#FFFFFF; fill-opacity:1.0000; stroke:none;">
<circle cx="95.0000" cy="22.5000" r="1.2450" /> 
</g>
<g style="fill:#FFFFFF; fill-opacity:1.0000; stroke:none;">
<circle cx="37.0000" cy="58.0000" r="1.2450" /> 
</g>
<g style="fill:#FFFFFF; fill-opacity:1.0000; stroke:none;">
<circle cx="29.5000" cy="22.5000" r="1.2450" /> 
</g>
<g style="fill:#FFFFFF; fill-opacity:1.0000; stroke:none;">
<circle cx="57.0500" cy="13.0000" r="0.5000" /> 
</g>
<g style="fill:#FFFFFF; fill-opacity:1.0000; stroke:none;">
<circle cx="59.5900" cy="13.0000" r="0.5000" /> 
</g>
<g style="fill:#FFFFFF; fill-opacity:1.0000; stroke:none;">
<circle cx="62.1300" cy="13.0000" r="0.5000" /> 
</g>
<g style="fill:#FFFFFF; fill-opacity:1.0000; stroke:none;">
<circle cx="64.6700" cy="13.0000" r="0.5000" /> 
</g>
<g style="fill:#FFFFFF; fill-opacity:1.0000; stroke:none;">
<circle cx="67.2100" cy="13.0000" r="0.5000" /> 
</g>
<g style="fill:#FFFFFF; fill-opacity:1.0000; stroke:none;">
<circle cx="69.7500" cy="13.0000" r="0.5000" /> 
</g>
<g style="fill:#FFFFFF; fill-opacity:1.0000; stroke:none;">
<circle cx="72.2900" cy="13.0000" r="0.5000" /> 
</g>
<g style="fill:#FFFFFF; fill-opacity:1.0000; stroke:none;">
<circle cx="74.8300" cy="13.0000" r="0.5000" /> 
</g>
<g style="fill:#FFFFFF; fill-opacity:1.0000; stroke:none;">
<circle cx="77.3700" cy="13.0000" r="0.5000" /> 
</g>
<g style="fill:#FFFFFF; fill-opacity:1.0000; stroke:none;">
<circle cx="79.9100" cy="13.0000" r="0.5000" /> 
</g>
<g style="fill:#FFFFFF; fill-opacity:1.0000; stroke:none;">
<circle cx="82.4500" cy="13.0000" r="0.5000" /> 
</g>
<g style="fill:#FFFFFF; fill-opacity:1.0000; stroke:none;">
<circle cx="84.9900" cy="13.0000" r="0.5000" /> 
</g>
<g style="fill:#FFFFFF; fill-opacity:1.0000; stroke:none;">
<circle cx="57.0500" cy="10.4600" r="0.5000" /> 
</g>
<g style="fill:#FFFFFF; fill-opacity:1.0000; stroke:none;">
<circle cx="59.5900" cy="10.4600" r="0.5000" /> 
</g>
<g style="fill:#FFFFFF; fill-opacity:1.0000; stroke:none;">
<circle cx="62.1300" cy="10.4600" r="0.5000" /> 
</g>
<g style="fill:#FFFFFF; fill-opacity:1.0000; stroke:none;">
<circle cx="64.6700" cy="10.4600" r="0.5000" /> 
</g>
<g style="fill:#FFFFFF; fill-opacity:1.0000; stroke:none;">
<circle cx="67.2100" cy="10.4600" r="0.5000" /> 
</g>
<g style="fill:#FFFFFF; fill-opacity:1.0000; stroke:none;">
<circle cx="69.7500" cy="10.4600" r="0.5000" /> 
</g>
<g style="fill:#FFFFFF; fill-opacity:1.0000; stroke:none;">
<circle cx="72.2900" cy="10.4600" r="0.5000" /> 
</g>
<g style="fill:#FFFFFF; fill-opacity:1.0000; stroke:none;">
<circle cx="74.8300" cy="10.4600" r="0.5000" /> 
</g>
<g style="fill:#FFFFFF; fill-opacity:1.0000; stroke:none;">
<circle cx="77.3700" cy="10.4600" r="0.5000" /> 
</g>
<g style="fill:#FFFFFF; fill-opacity:1.0000; stroke:none;">
<circle cx="79.9100" cy="10.4600" r="0.5000" /> 
</g>
<g style="fill:#FFFFFF; fill-opacity:1.0000; stroke:none;">
<circle cx="82.4500" cy="10.4600" r="0.5000" /> 
</g>
<g style="fill:#FFFFFF; fill-opacity:1.0000; stroke:none;">
<circle cx="84.9900" cy="10.4600" r="0.5000" /> 
</g> 
</svg>
