M48
; DRILL file {KiCad 8.0.4} date 2024-09-10T22:05:55-0400
; FORMAT={-:-/ absolute / metric / decimal}
; #@! TF.CreationDate,2024-09-10T22:05:55-04:00
; #@! TF.GenerationSoftware,Kicad,Pcbnew,8.0.4
; #@! TF.FileFunction,Plated,1,2,PTH
FMAT,2
METRIC
; #@! TA.AperFunction,Plated,PTH,ComponentDrill
T1C1.000
; #@! TA.AperFunction,Plated,PTH,ComponentDrill
T2C2.490
; #@! TA.AperFunction,Plated,PTH,ComponentDrill
T3C3.200
%
G90
G05
T1
X132.05Y-55.46
X132.05Y-58.0
X134.59Y-55.46
X134.59Y-58.0
X137.13Y-55.46
X137.13Y-58.0
X139.67Y-55.46
X139.67Y-58.0
X142.21Y-55.46
X142.21Y-58.0
X144.75Y-55.46
X144.75Y-58.0
X147.29Y-55.46
X147.29Y-58.0
X149.83Y-55.46
X149.83Y-58.0
X152.37Y-55.46
X152.37Y-58.0
X154.91Y-55.46
X154.91Y-58.0
X157.45Y-55.46
X157.45Y-58.0
X159.99Y-55.46
X159.99Y-58.0
T2
X94.5Y-67.5
X94.5Y-103.0
X104.5Y-67.5
X104.5Y-103.0
X112.0Y-67.5
X112.0Y-103.0
X122.0Y-67.5
X122.0Y-103.0
X132.25Y-67.5
X132.25Y-103.0
X142.25Y-67.5
X142.25Y-103.0
X149.75Y-67.5
X149.75Y-103.0
X159.75Y-67.5
X159.75Y-103.0
X170.0Y-67.5
X170.0Y-103.0
X180.0Y-67.5
X180.0Y-103.0
X187.5Y-67.5
X187.5Y-103.0
X197.5Y-67.5
X197.5Y-103.0
T3
X86.5Y-66.0
X86.5Y-101.5
X205.5Y-66.0
X205.5Y-101.5
M30
