%TF.GenerationSoftware,KiCad,Pcbnew,8.0.5*%
%TF.CreationDate,2025-04-10T19:14:16-04:00*%
%TF.ProjectId,UpperPOGO,55707065-7250-44f4-974f-2e6b69636164,v4*%
%TF.SameCoordinates,Original*%
%TF.FileFunction,Legend,Top*%
%TF.FilePolarity,Positive*%
%FSLAX46Y46*%
G04 Gerber Fmt 4.6, Leading zero omitted, Abs format (unit mm)*
G04 Created by KiCad (PCBNEW 8.0.5) date 2025-04-10 19:14:16*
%MOMM*%
%LPD*%
G01*
G04 APERTURE LIST*
%ADD10C,0.150000*%
%ADD11C,0.120000*%
G04 APERTURE END LIST*
D10*
X105549819Y-58429523D02*
X106264104Y-58429523D01*
X106264104Y-58429523D02*
X106406961Y-58477142D01*
X106406961Y-58477142D02*
X106502200Y-58572380D01*
X106502200Y-58572380D02*
X106549819Y-58715237D01*
X106549819Y-58715237D02*
X106549819Y-58810475D01*
X105645057Y-58000951D02*
X105597438Y-57953332D01*
X105597438Y-57953332D02*
X105549819Y-57858094D01*
X105549819Y-57858094D02*
X105549819Y-57619999D01*
X105549819Y-57619999D02*
X105597438Y-57524761D01*
X105597438Y-57524761D02*
X105645057Y-57477142D01*
X105645057Y-57477142D02*
X105740295Y-57429523D01*
X105740295Y-57429523D02*
X105835533Y-57429523D01*
X105835533Y-57429523D02*
X105978390Y-57477142D01*
X105978390Y-57477142D02*
X106549819Y-58048570D01*
X106549819Y-58048570D02*
X106549819Y-57429523D01*
X105549819Y-56524761D02*
X105549819Y-57000951D01*
X105549819Y-57000951D02*
X106026009Y-57048570D01*
X106026009Y-57048570D02*
X105978390Y-57000951D01*
X105978390Y-57000951D02*
X105930771Y-56905713D01*
X105930771Y-56905713D02*
X105930771Y-56667618D01*
X105930771Y-56667618D02*
X105978390Y-56572380D01*
X105978390Y-56572380D02*
X106026009Y-56524761D01*
X106026009Y-56524761D02*
X106121247Y-56477142D01*
X106121247Y-56477142D02*
X106359342Y-56477142D01*
X106359342Y-56477142D02*
X106454580Y-56524761D01*
X106454580Y-56524761D02*
X106502200Y-56572380D01*
X106502200Y-56572380D02*
X106549819Y-56667618D01*
X106549819Y-56667618D02*
X106549819Y-56905713D01*
X106549819Y-56905713D02*
X106502200Y-57000951D01*
X106502200Y-57000951D02*
X106454580Y-57048570D01*
X186690476Y-64304819D02*
X186690476Y-65019104D01*
X186690476Y-65019104D02*
X186642857Y-65161961D01*
X186642857Y-65161961D02*
X186547619Y-65257200D01*
X186547619Y-65257200D02*
X186404762Y-65304819D01*
X186404762Y-65304819D02*
X186309524Y-65304819D01*
X187119048Y-64400057D02*
X187166667Y-64352438D01*
X187166667Y-64352438D02*
X187261905Y-64304819D01*
X187261905Y-64304819D02*
X187500000Y-64304819D01*
X187500000Y-64304819D02*
X187595238Y-64352438D01*
X187595238Y-64352438D02*
X187642857Y-64400057D01*
X187642857Y-64400057D02*
X187690476Y-64495295D01*
X187690476Y-64495295D02*
X187690476Y-64590533D01*
X187690476Y-64590533D02*
X187642857Y-64733390D01*
X187642857Y-64733390D02*
X187071429Y-65304819D01*
X187071429Y-65304819D02*
X187690476Y-65304819D01*
X188023810Y-64304819D02*
X188642857Y-64304819D01*
X188642857Y-64304819D02*
X188309524Y-64685771D01*
X188309524Y-64685771D02*
X188452381Y-64685771D01*
X188452381Y-64685771D02*
X188547619Y-64733390D01*
X188547619Y-64733390D02*
X188595238Y-64781009D01*
X188595238Y-64781009D02*
X188642857Y-64876247D01*
X188642857Y-64876247D02*
X188642857Y-65114342D01*
X188642857Y-65114342D02*
X188595238Y-65209580D01*
X188595238Y-65209580D02*
X188547619Y-65257200D01*
X188547619Y-65257200D02*
X188452381Y-65304819D01*
X188452381Y-65304819D02*
X188166667Y-65304819D01*
X188166667Y-65304819D02*
X188071429Y-65257200D01*
X188071429Y-65257200D02*
X188023810Y-65209580D01*
X123224819Y-58429523D02*
X123939104Y-58429523D01*
X123939104Y-58429523D02*
X124081961Y-58477142D01*
X124081961Y-58477142D02*
X124177200Y-58572380D01*
X124177200Y-58572380D02*
X124224819Y-58715237D01*
X124224819Y-58715237D02*
X124224819Y-58810475D01*
X123320057Y-58000951D02*
X123272438Y-57953332D01*
X123272438Y-57953332D02*
X123224819Y-57858094D01*
X123224819Y-57858094D02*
X123224819Y-57619999D01*
X123224819Y-57619999D02*
X123272438Y-57524761D01*
X123272438Y-57524761D02*
X123320057Y-57477142D01*
X123320057Y-57477142D02*
X123415295Y-57429523D01*
X123415295Y-57429523D02*
X123510533Y-57429523D01*
X123510533Y-57429523D02*
X123653390Y-57477142D01*
X123653390Y-57477142D02*
X124224819Y-58048570D01*
X124224819Y-58048570D02*
X124224819Y-57429523D01*
X123224819Y-56572380D02*
X123224819Y-56762856D01*
X123224819Y-56762856D02*
X123272438Y-56858094D01*
X123272438Y-56858094D02*
X123320057Y-56905713D01*
X123320057Y-56905713D02*
X123462914Y-57000951D01*
X123462914Y-57000951D02*
X123653390Y-57048570D01*
X123653390Y-57048570D02*
X124034342Y-57048570D01*
X124034342Y-57048570D02*
X124129580Y-57000951D01*
X124129580Y-57000951D02*
X124177200Y-56953332D01*
X124177200Y-56953332D02*
X124224819Y-56858094D01*
X124224819Y-56858094D02*
X124224819Y-56667618D01*
X124224819Y-56667618D02*
X124177200Y-56572380D01*
X124177200Y-56572380D02*
X124129580Y-56524761D01*
X124129580Y-56524761D02*
X124034342Y-56477142D01*
X124034342Y-56477142D02*
X123796247Y-56477142D01*
X123796247Y-56477142D02*
X123701009Y-56524761D01*
X123701009Y-56524761D02*
X123653390Y-56572380D01*
X123653390Y-56572380D02*
X123605771Y-56667618D01*
X123605771Y-56667618D02*
X123605771Y-56858094D01*
X123605771Y-56858094D02*
X123653390Y-56953332D01*
X123653390Y-56953332D02*
X123701009Y-57000951D01*
X123701009Y-57000951D02*
X123796247Y-57048570D01*
X121666666Y-64304819D02*
X121666666Y-65019104D01*
X121666666Y-65019104D02*
X121619047Y-65161961D01*
X121619047Y-65161961D02*
X121523809Y-65257200D01*
X121523809Y-65257200D02*
X121380952Y-65304819D01*
X121380952Y-65304819D02*
X121285714Y-65304819D01*
X122571428Y-64304819D02*
X122380952Y-64304819D01*
X122380952Y-64304819D02*
X122285714Y-64352438D01*
X122285714Y-64352438D02*
X122238095Y-64400057D01*
X122238095Y-64400057D02*
X122142857Y-64542914D01*
X122142857Y-64542914D02*
X122095238Y-64733390D01*
X122095238Y-64733390D02*
X122095238Y-65114342D01*
X122095238Y-65114342D02*
X122142857Y-65209580D01*
X122142857Y-65209580D02*
X122190476Y-65257200D01*
X122190476Y-65257200D02*
X122285714Y-65304819D01*
X122285714Y-65304819D02*
X122476190Y-65304819D01*
X122476190Y-65304819D02*
X122571428Y-65257200D01*
X122571428Y-65257200D02*
X122619047Y-65209580D01*
X122619047Y-65209580D02*
X122666666Y-65114342D01*
X122666666Y-65114342D02*
X122666666Y-64876247D01*
X122666666Y-64876247D02*
X122619047Y-64781009D01*
X122619047Y-64781009D02*
X122571428Y-64733390D01*
X122571428Y-64733390D02*
X122476190Y-64685771D01*
X122476190Y-64685771D02*
X122285714Y-64685771D01*
X122285714Y-64685771D02*
X122190476Y-64733390D01*
X122190476Y-64733390D02*
X122142857Y-64781009D01*
X122142857Y-64781009D02*
X122095238Y-64876247D01*
X111666666Y-64304819D02*
X111666666Y-65019104D01*
X111666666Y-65019104D02*
X111619047Y-65161961D01*
X111619047Y-65161961D02*
X111523809Y-65257200D01*
X111523809Y-65257200D02*
X111380952Y-65304819D01*
X111380952Y-65304819D02*
X111285714Y-65304819D01*
X112047619Y-64304819D02*
X112714285Y-64304819D01*
X112714285Y-64304819D02*
X112285714Y-65304819D01*
X94166666Y-64304819D02*
X94166666Y-65019104D01*
X94166666Y-65019104D02*
X94119047Y-65161961D01*
X94119047Y-65161961D02*
X94023809Y-65257200D01*
X94023809Y-65257200D02*
X93880952Y-65304819D01*
X93880952Y-65304819D02*
X93785714Y-65304819D01*
X94547619Y-64304819D02*
X95166666Y-64304819D01*
X95166666Y-64304819D02*
X94833333Y-64685771D01*
X94833333Y-64685771D02*
X94976190Y-64685771D01*
X94976190Y-64685771D02*
X95071428Y-64733390D01*
X95071428Y-64733390D02*
X95119047Y-64781009D01*
X95119047Y-64781009D02*
X95166666Y-64876247D01*
X95166666Y-64876247D02*
X95166666Y-65114342D01*
X95166666Y-65114342D02*
X95119047Y-65209580D01*
X95119047Y-65209580D02*
X95071428Y-65257200D01*
X95071428Y-65257200D02*
X94976190Y-65304819D01*
X94976190Y-65304819D02*
X94690476Y-65304819D01*
X94690476Y-65304819D02*
X94595238Y-65257200D01*
X94595238Y-65257200D02*
X94547619Y-65209580D01*
X148940476Y-64304819D02*
X148940476Y-65019104D01*
X148940476Y-65019104D02*
X148892857Y-65161961D01*
X148892857Y-65161961D02*
X148797619Y-65257200D01*
X148797619Y-65257200D02*
X148654762Y-65304819D01*
X148654762Y-65304819D02*
X148559524Y-65304819D01*
X149940476Y-65304819D02*
X149369048Y-65304819D01*
X149654762Y-65304819D02*
X149654762Y-64304819D01*
X149654762Y-64304819D02*
X149559524Y-64447676D01*
X149559524Y-64447676D02*
X149464286Y-64542914D01*
X149464286Y-64542914D02*
X149369048Y-64590533D01*
X150845238Y-64304819D02*
X150369048Y-64304819D01*
X150369048Y-64304819D02*
X150321429Y-64781009D01*
X150321429Y-64781009D02*
X150369048Y-64733390D01*
X150369048Y-64733390D02*
X150464286Y-64685771D01*
X150464286Y-64685771D02*
X150702381Y-64685771D01*
X150702381Y-64685771D02*
X150797619Y-64733390D01*
X150797619Y-64733390D02*
X150845238Y-64781009D01*
X150845238Y-64781009D02*
X150892857Y-64876247D01*
X150892857Y-64876247D02*
X150892857Y-65114342D01*
X150892857Y-65114342D02*
X150845238Y-65209580D01*
X150845238Y-65209580D02*
X150797619Y-65257200D01*
X150797619Y-65257200D02*
X150702381Y-65304819D01*
X150702381Y-65304819D02*
X150464286Y-65304819D01*
X150464286Y-65304819D02*
X150369048Y-65257200D01*
X150369048Y-65257200D02*
X150321429Y-65209580D01*
X141440476Y-64304819D02*
X141440476Y-65019104D01*
X141440476Y-65019104D02*
X141392857Y-65161961D01*
X141392857Y-65161961D02*
X141297619Y-65257200D01*
X141297619Y-65257200D02*
X141154762Y-65304819D01*
X141154762Y-65304819D02*
X141059524Y-65304819D01*
X142440476Y-65304819D02*
X141869048Y-65304819D01*
X142154762Y-65304819D02*
X142154762Y-64304819D01*
X142154762Y-64304819D02*
X142059524Y-64447676D01*
X142059524Y-64447676D02*
X141964286Y-64542914D01*
X141964286Y-64542914D02*
X141869048Y-64590533D01*
X143059524Y-64304819D02*
X143154762Y-64304819D01*
X143154762Y-64304819D02*
X143250000Y-64352438D01*
X143250000Y-64352438D02*
X143297619Y-64400057D01*
X143297619Y-64400057D02*
X143345238Y-64495295D01*
X143345238Y-64495295D02*
X143392857Y-64685771D01*
X143392857Y-64685771D02*
X143392857Y-64923866D01*
X143392857Y-64923866D02*
X143345238Y-65114342D01*
X143345238Y-65114342D02*
X143297619Y-65209580D01*
X143297619Y-65209580D02*
X143250000Y-65257200D01*
X143250000Y-65257200D02*
X143154762Y-65304819D01*
X143154762Y-65304819D02*
X143059524Y-65304819D01*
X143059524Y-65304819D02*
X142964286Y-65257200D01*
X142964286Y-65257200D02*
X142916667Y-65209580D01*
X142916667Y-65209580D02*
X142869048Y-65114342D01*
X142869048Y-65114342D02*
X142821429Y-64923866D01*
X142821429Y-64923866D02*
X142821429Y-64685771D01*
X142821429Y-64685771D02*
X142869048Y-64495295D01*
X142869048Y-64495295D02*
X142916667Y-64400057D01*
X142916667Y-64400057D02*
X142964286Y-64352438D01*
X142964286Y-64352438D02*
X143059524Y-64304819D01*
X128790476Y-104504819D02*
X128790476Y-105219104D01*
X128790476Y-105219104D02*
X128742857Y-105361961D01*
X128742857Y-105361961D02*
X128647619Y-105457200D01*
X128647619Y-105457200D02*
X128504762Y-105504819D01*
X128504762Y-105504819D02*
X128409524Y-105504819D01*
X129790476Y-105504819D02*
X129219048Y-105504819D01*
X129504762Y-105504819D02*
X129504762Y-104504819D01*
X129504762Y-104504819D02*
X129409524Y-104647676D01*
X129409524Y-104647676D02*
X129314286Y-104742914D01*
X129314286Y-104742914D02*
X129219048Y-104790533D01*
X130171429Y-104600057D02*
X130219048Y-104552438D01*
X130219048Y-104552438D02*
X130314286Y-104504819D01*
X130314286Y-104504819D02*
X130552381Y-104504819D01*
X130552381Y-104504819D02*
X130647619Y-104552438D01*
X130647619Y-104552438D02*
X130695238Y-104600057D01*
X130695238Y-104600057D02*
X130742857Y-104695295D01*
X130742857Y-104695295D02*
X130742857Y-104790533D01*
X130742857Y-104790533D02*
X130695238Y-104933390D01*
X130695238Y-104933390D02*
X130123810Y-105504819D01*
X130123810Y-105504819D02*
X130742857Y-105504819D01*
X119016666Y-104504819D02*
X119016666Y-105219104D01*
X119016666Y-105219104D02*
X118969047Y-105361961D01*
X118969047Y-105361961D02*
X118873809Y-105457200D01*
X118873809Y-105457200D02*
X118730952Y-105504819D01*
X118730952Y-105504819D02*
X118635714Y-105504819D01*
X119969047Y-104504819D02*
X119492857Y-104504819D01*
X119492857Y-104504819D02*
X119445238Y-104981009D01*
X119445238Y-104981009D02*
X119492857Y-104933390D01*
X119492857Y-104933390D02*
X119588095Y-104885771D01*
X119588095Y-104885771D02*
X119826190Y-104885771D01*
X119826190Y-104885771D02*
X119921428Y-104933390D01*
X119921428Y-104933390D02*
X119969047Y-104981009D01*
X119969047Y-104981009D02*
X120016666Y-105076247D01*
X120016666Y-105076247D02*
X120016666Y-105314342D01*
X120016666Y-105314342D02*
X119969047Y-105409580D01*
X119969047Y-105409580D02*
X119921428Y-105457200D01*
X119921428Y-105457200D02*
X119826190Y-105504819D01*
X119826190Y-105504819D02*
X119588095Y-105504819D01*
X119588095Y-105504819D02*
X119492857Y-105457200D01*
X119492857Y-105457200D02*
X119445238Y-105409580D01*
X85738095Y-70254819D02*
X85738095Y-69254819D01*
X85738095Y-69731009D02*
X86309523Y-69731009D01*
X86309523Y-70254819D02*
X86309523Y-69254819D01*
X87309523Y-70254819D02*
X86738095Y-70254819D01*
X87023809Y-70254819D02*
X87023809Y-69254819D01*
X87023809Y-69254819D02*
X86928571Y-69397676D01*
X86928571Y-69397676D02*
X86833333Y-69492914D01*
X86833333Y-69492914D02*
X86738095Y-69540533D01*
X85738095Y-98154819D02*
X85738095Y-97154819D01*
X85738095Y-97631009D02*
X86309523Y-97631009D01*
X86309523Y-98154819D02*
X86309523Y-97154819D01*
X86690476Y-97154819D02*
X87309523Y-97154819D01*
X87309523Y-97154819D02*
X86976190Y-97535771D01*
X86976190Y-97535771D02*
X87119047Y-97535771D01*
X87119047Y-97535771D02*
X87214285Y-97583390D01*
X87214285Y-97583390D02*
X87261904Y-97631009D01*
X87261904Y-97631009D02*
X87309523Y-97726247D01*
X87309523Y-97726247D02*
X87309523Y-97964342D01*
X87309523Y-97964342D02*
X87261904Y-98059580D01*
X87261904Y-98059580D02*
X87214285Y-98107200D01*
X87214285Y-98107200D02*
X87119047Y-98154819D01*
X87119047Y-98154819D02*
X86833333Y-98154819D01*
X86833333Y-98154819D02*
X86738095Y-98107200D01*
X86738095Y-98107200D02*
X86690476Y-98059580D01*
X176540476Y-104504819D02*
X176540476Y-105219104D01*
X176540476Y-105219104D02*
X176492857Y-105361961D01*
X176492857Y-105361961D02*
X176397619Y-105457200D01*
X176397619Y-105457200D02*
X176254762Y-105504819D01*
X176254762Y-105504819D02*
X176159524Y-105504819D01*
X177540476Y-105504819D02*
X176969048Y-105504819D01*
X177254762Y-105504819D02*
X177254762Y-104504819D01*
X177254762Y-104504819D02*
X177159524Y-104647676D01*
X177159524Y-104647676D02*
X177064286Y-104742914D01*
X177064286Y-104742914D02*
X176969048Y-104790533D01*
X177873810Y-104504819D02*
X178540476Y-104504819D01*
X178540476Y-104504819D02*
X178111905Y-105504819D01*
X204738095Y-98154819D02*
X204738095Y-97154819D01*
X204738095Y-97631009D02*
X205309523Y-97631009D01*
X205309523Y-98154819D02*
X205309523Y-97154819D01*
X206214285Y-97488152D02*
X206214285Y-98154819D01*
X205976190Y-97107200D02*
X205738095Y-97821485D01*
X205738095Y-97821485D02*
X206357142Y-97821485D01*
X184040476Y-104504819D02*
X184040476Y-105219104D01*
X184040476Y-105219104D02*
X183992857Y-105361961D01*
X183992857Y-105361961D02*
X183897619Y-105457200D01*
X183897619Y-105457200D02*
X183754762Y-105504819D01*
X183754762Y-105504819D02*
X183659524Y-105504819D01*
X184469048Y-104600057D02*
X184516667Y-104552438D01*
X184516667Y-104552438D02*
X184611905Y-104504819D01*
X184611905Y-104504819D02*
X184850000Y-104504819D01*
X184850000Y-104504819D02*
X184945238Y-104552438D01*
X184945238Y-104552438D02*
X184992857Y-104600057D01*
X184992857Y-104600057D02*
X185040476Y-104695295D01*
X185040476Y-104695295D02*
X185040476Y-104790533D01*
X185040476Y-104790533D02*
X184992857Y-104933390D01*
X184992857Y-104933390D02*
X184421429Y-105504819D01*
X184421429Y-105504819D02*
X185040476Y-105504819D01*
X185897619Y-104838152D02*
X185897619Y-105504819D01*
X185659524Y-104457200D02*
X185421429Y-105171485D01*
X185421429Y-105171485D02*
X186040476Y-105171485D01*
X166540476Y-104504819D02*
X166540476Y-105219104D01*
X166540476Y-105219104D02*
X166492857Y-105361961D01*
X166492857Y-105361961D02*
X166397619Y-105457200D01*
X166397619Y-105457200D02*
X166254762Y-105504819D01*
X166254762Y-105504819D02*
X166159524Y-105504819D01*
X166969048Y-104600057D02*
X167016667Y-104552438D01*
X167016667Y-104552438D02*
X167111905Y-104504819D01*
X167111905Y-104504819D02*
X167350000Y-104504819D01*
X167350000Y-104504819D02*
X167445238Y-104552438D01*
X167445238Y-104552438D02*
X167492857Y-104600057D01*
X167492857Y-104600057D02*
X167540476Y-104695295D01*
X167540476Y-104695295D02*
X167540476Y-104790533D01*
X167540476Y-104790533D02*
X167492857Y-104933390D01*
X167492857Y-104933390D02*
X166921429Y-105504819D01*
X166921429Y-105504819D02*
X167540476Y-105504819D01*
X168159524Y-104504819D02*
X168254762Y-104504819D01*
X168254762Y-104504819D02*
X168350000Y-104552438D01*
X168350000Y-104552438D02*
X168397619Y-104600057D01*
X168397619Y-104600057D02*
X168445238Y-104695295D01*
X168445238Y-104695295D02*
X168492857Y-104885771D01*
X168492857Y-104885771D02*
X168492857Y-105123866D01*
X168492857Y-105123866D02*
X168445238Y-105314342D01*
X168445238Y-105314342D02*
X168397619Y-105409580D01*
X168397619Y-105409580D02*
X168350000Y-105457200D01*
X168350000Y-105457200D02*
X168254762Y-105504819D01*
X168254762Y-105504819D02*
X168159524Y-105504819D01*
X168159524Y-105504819D02*
X168064286Y-105457200D01*
X168064286Y-105457200D02*
X168016667Y-105409580D01*
X168016667Y-105409580D02*
X167969048Y-105314342D01*
X167969048Y-105314342D02*
X167921429Y-105123866D01*
X167921429Y-105123866D02*
X167921429Y-104885771D01*
X167921429Y-104885771D02*
X167969048Y-104695295D01*
X167969048Y-104695295D02*
X168016667Y-104600057D01*
X168016667Y-104600057D02*
X168064286Y-104552438D01*
X168064286Y-104552438D02*
X168159524Y-104504819D01*
X204738095Y-70254819D02*
X204738095Y-69254819D01*
X204738095Y-69731009D02*
X205309523Y-69731009D01*
X205309523Y-70254819D02*
X205309523Y-69254819D01*
X205738095Y-69350057D02*
X205785714Y-69302438D01*
X205785714Y-69302438D02*
X205880952Y-69254819D01*
X205880952Y-69254819D02*
X206119047Y-69254819D01*
X206119047Y-69254819D02*
X206214285Y-69302438D01*
X206214285Y-69302438D02*
X206261904Y-69350057D01*
X206261904Y-69350057D02*
X206309523Y-69445295D01*
X206309523Y-69445295D02*
X206309523Y-69540533D01*
X206309523Y-69540533D02*
X206261904Y-69683390D01*
X206261904Y-69683390D02*
X205690476Y-70254819D01*
X205690476Y-70254819D02*
X206309523Y-70254819D01*
X91516666Y-104504819D02*
X91516666Y-105219104D01*
X91516666Y-105219104D02*
X91469047Y-105361961D01*
X91469047Y-105361961D02*
X91373809Y-105457200D01*
X91373809Y-105457200D02*
X91230952Y-105504819D01*
X91230952Y-105504819D02*
X91135714Y-105504819D01*
X92421428Y-104838152D02*
X92421428Y-105504819D01*
X92183333Y-104457200D02*
X91945238Y-105171485D01*
X91945238Y-105171485D02*
X92564285Y-105171485D01*
X131440476Y-64304819D02*
X131440476Y-65019104D01*
X131440476Y-65019104D02*
X131392857Y-65161961D01*
X131392857Y-65161961D02*
X131297619Y-65257200D01*
X131297619Y-65257200D02*
X131154762Y-65304819D01*
X131154762Y-65304819D02*
X131059524Y-65304819D01*
X132440476Y-65304819D02*
X131869048Y-65304819D01*
X132154762Y-65304819D02*
X132154762Y-64304819D01*
X132154762Y-64304819D02*
X132059524Y-64447676D01*
X132059524Y-64447676D02*
X131964286Y-64542914D01*
X131964286Y-64542914D02*
X131869048Y-64590533D01*
X133392857Y-65304819D02*
X132821429Y-65304819D01*
X133107143Y-65304819D02*
X133107143Y-64304819D01*
X133107143Y-64304819D02*
X133011905Y-64447676D01*
X133011905Y-64447676D02*
X132916667Y-64542914D01*
X132916667Y-64542914D02*
X132821429Y-64590533D01*
X181274819Y-58429523D02*
X181989104Y-58429523D01*
X181989104Y-58429523D02*
X182131961Y-58477142D01*
X182131961Y-58477142D02*
X182227200Y-58572380D01*
X182227200Y-58572380D02*
X182274819Y-58715237D01*
X182274819Y-58715237D02*
X182274819Y-58810475D01*
X181370057Y-58000951D02*
X181322438Y-57953332D01*
X181322438Y-57953332D02*
X181274819Y-57858094D01*
X181274819Y-57858094D02*
X181274819Y-57619999D01*
X181274819Y-57619999D02*
X181322438Y-57524761D01*
X181322438Y-57524761D02*
X181370057Y-57477142D01*
X181370057Y-57477142D02*
X181465295Y-57429523D01*
X181465295Y-57429523D02*
X181560533Y-57429523D01*
X181560533Y-57429523D02*
X181703390Y-57477142D01*
X181703390Y-57477142D02*
X182274819Y-58048570D01*
X182274819Y-58048570D02*
X182274819Y-57429523D01*
X182274819Y-56953332D02*
X182274819Y-56762856D01*
X182274819Y-56762856D02*
X182227200Y-56667618D01*
X182227200Y-56667618D02*
X182179580Y-56619999D01*
X182179580Y-56619999D02*
X182036723Y-56524761D01*
X182036723Y-56524761D02*
X181846247Y-56477142D01*
X181846247Y-56477142D02*
X181465295Y-56477142D01*
X181465295Y-56477142D02*
X181370057Y-56524761D01*
X181370057Y-56524761D02*
X181322438Y-56572380D01*
X181322438Y-56572380D02*
X181274819Y-56667618D01*
X181274819Y-56667618D02*
X181274819Y-56858094D01*
X181274819Y-56858094D02*
X181322438Y-56953332D01*
X181322438Y-56953332D02*
X181370057Y-57000951D01*
X181370057Y-57000951D02*
X181465295Y-57048570D01*
X181465295Y-57048570D02*
X181703390Y-57048570D01*
X181703390Y-57048570D02*
X181798628Y-57000951D01*
X181798628Y-57000951D02*
X181846247Y-56953332D01*
X181846247Y-56953332D02*
X181893866Y-56858094D01*
X181893866Y-56858094D02*
X181893866Y-56667618D01*
X181893866Y-56667618D02*
X181846247Y-56572380D01*
X181846247Y-56572380D02*
X181798628Y-56524761D01*
X181798628Y-56524761D02*
X181703390Y-56477142D01*
X196690476Y-64304819D02*
X196690476Y-65019104D01*
X196690476Y-65019104D02*
X196642857Y-65161961D01*
X196642857Y-65161961D02*
X196547619Y-65257200D01*
X196547619Y-65257200D02*
X196404762Y-65304819D01*
X196404762Y-65304819D02*
X196309524Y-65304819D01*
X197119048Y-64400057D02*
X197166667Y-64352438D01*
X197166667Y-64352438D02*
X197261905Y-64304819D01*
X197261905Y-64304819D02*
X197500000Y-64304819D01*
X197500000Y-64304819D02*
X197595238Y-64352438D01*
X197595238Y-64352438D02*
X197642857Y-64400057D01*
X197642857Y-64400057D02*
X197690476Y-64495295D01*
X197690476Y-64495295D02*
X197690476Y-64590533D01*
X197690476Y-64590533D02*
X197642857Y-64733390D01*
X197642857Y-64733390D02*
X197071429Y-65304819D01*
X197071429Y-65304819D02*
X197690476Y-65304819D01*
X198071429Y-64400057D02*
X198119048Y-64352438D01*
X198119048Y-64352438D02*
X198214286Y-64304819D01*
X198214286Y-64304819D02*
X198452381Y-64304819D01*
X198452381Y-64304819D02*
X198547619Y-64352438D01*
X198547619Y-64352438D02*
X198595238Y-64400057D01*
X198595238Y-64400057D02*
X198642857Y-64495295D01*
X198642857Y-64495295D02*
X198642857Y-64590533D01*
X198642857Y-64590533D02*
X198595238Y-64733390D01*
X198595238Y-64733390D02*
X198023810Y-65304819D01*
X198023810Y-65304819D02*
X198642857Y-65304819D01*
X179190476Y-64304819D02*
X179190476Y-65019104D01*
X179190476Y-65019104D02*
X179142857Y-65161961D01*
X179142857Y-65161961D02*
X179047619Y-65257200D01*
X179047619Y-65257200D02*
X178904762Y-65304819D01*
X178904762Y-65304819D02*
X178809524Y-65304819D01*
X180190476Y-65304819D02*
X179619048Y-65304819D01*
X179904762Y-65304819D02*
X179904762Y-64304819D01*
X179904762Y-64304819D02*
X179809524Y-64447676D01*
X179809524Y-64447676D02*
X179714286Y-64542914D01*
X179714286Y-64542914D02*
X179619048Y-64590533D01*
X180761905Y-64733390D02*
X180666667Y-64685771D01*
X180666667Y-64685771D02*
X180619048Y-64638152D01*
X180619048Y-64638152D02*
X180571429Y-64542914D01*
X180571429Y-64542914D02*
X180571429Y-64495295D01*
X180571429Y-64495295D02*
X180619048Y-64400057D01*
X180619048Y-64400057D02*
X180666667Y-64352438D01*
X180666667Y-64352438D02*
X180761905Y-64304819D01*
X180761905Y-64304819D02*
X180952381Y-64304819D01*
X180952381Y-64304819D02*
X181047619Y-64352438D01*
X181047619Y-64352438D02*
X181095238Y-64400057D01*
X181095238Y-64400057D02*
X181142857Y-64495295D01*
X181142857Y-64495295D02*
X181142857Y-64542914D01*
X181142857Y-64542914D02*
X181095238Y-64638152D01*
X181095238Y-64638152D02*
X181047619Y-64685771D01*
X181047619Y-64685771D02*
X180952381Y-64733390D01*
X180952381Y-64733390D02*
X180761905Y-64733390D01*
X180761905Y-64733390D02*
X180666667Y-64781009D01*
X180666667Y-64781009D02*
X180619048Y-64828628D01*
X180619048Y-64828628D02*
X180571429Y-64923866D01*
X180571429Y-64923866D02*
X180571429Y-65114342D01*
X180571429Y-65114342D02*
X180619048Y-65209580D01*
X180619048Y-65209580D02*
X180666667Y-65257200D01*
X180666667Y-65257200D02*
X180761905Y-65304819D01*
X180761905Y-65304819D02*
X180952381Y-65304819D01*
X180952381Y-65304819D02*
X181047619Y-65257200D01*
X181047619Y-65257200D02*
X181095238Y-65209580D01*
X181095238Y-65209580D02*
X181142857Y-65114342D01*
X181142857Y-65114342D02*
X181142857Y-64923866D01*
X181142857Y-64923866D02*
X181095238Y-64828628D01*
X181095238Y-64828628D02*
X181047619Y-64781009D01*
X181047619Y-64781009D02*
X180952381Y-64733390D01*
X101516666Y-104504819D02*
X101516666Y-105219104D01*
X101516666Y-105219104D02*
X101469047Y-105361961D01*
X101469047Y-105361961D02*
X101373809Y-105457200D01*
X101373809Y-105457200D02*
X101230952Y-105504819D01*
X101230952Y-105504819D02*
X101135714Y-105504819D01*
X102516666Y-105504819D02*
X101945238Y-105504819D01*
X102230952Y-105504819D02*
X102230952Y-104504819D01*
X102230952Y-104504819D02*
X102135714Y-104647676D01*
X102135714Y-104647676D02*
X102040476Y-104742914D01*
X102040476Y-104742914D02*
X101945238Y-104790533D01*
X194040476Y-104504819D02*
X194040476Y-105219104D01*
X194040476Y-105219104D02*
X193992857Y-105361961D01*
X193992857Y-105361961D02*
X193897619Y-105457200D01*
X193897619Y-105457200D02*
X193754762Y-105504819D01*
X193754762Y-105504819D02*
X193659524Y-105504819D01*
X194469048Y-104600057D02*
X194516667Y-104552438D01*
X194516667Y-104552438D02*
X194611905Y-104504819D01*
X194611905Y-104504819D02*
X194850000Y-104504819D01*
X194850000Y-104504819D02*
X194945238Y-104552438D01*
X194945238Y-104552438D02*
X194992857Y-104600057D01*
X194992857Y-104600057D02*
X195040476Y-104695295D01*
X195040476Y-104695295D02*
X195040476Y-104790533D01*
X195040476Y-104790533D02*
X194992857Y-104933390D01*
X194992857Y-104933390D02*
X194421429Y-105504819D01*
X194421429Y-105504819D02*
X195040476Y-105504819D01*
X195992857Y-105504819D02*
X195421429Y-105504819D01*
X195707143Y-105504819D02*
X195707143Y-104504819D01*
X195707143Y-104504819D02*
X195611905Y-104647676D01*
X195611905Y-104647676D02*
X195516667Y-104742914D01*
X195516667Y-104742914D02*
X195421429Y-104790533D01*
X158940476Y-64304819D02*
X158940476Y-65019104D01*
X158940476Y-65019104D02*
X158892857Y-65161961D01*
X158892857Y-65161961D02*
X158797619Y-65257200D01*
X158797619Y-65257200D02*
X158654762Y-65304819D01*
X158654762Y-65304819D02*
X158559524Y-65304819D01*
X159940476Y-65304819D02*
X159369048Y-65304819D01*
X159654762Y-65304819D02*
X159654762Y-64304819D01*
X159654762Y-64304819D02*
X159559524Y-64447676D01*
X159559524Y-64447676D02*
X159464286Y-64542914D01*
X159464286Y-64542914D02*
X159369048Y-64590533D01*
X160797619Y-64638152D02*
X160797619Y-65304819D01*
X160559524Y-64257200D02*
X160321429Y-64971485D01*
X160321429Y-64971485D02*
X160940476Y-64971485D01*
X156290476Y-104504819D02*
X156290476Y-105219104D01*
X156290476Y-105219104D02*
X156242857Y-105361961D01*
X156242857Y-105361961D02*
X156147619Y-105457200D01*
X156147619Y-105457200D02*
X156004762Y-105504819D01*
X156004762Y-105504819D02*
X155909524Y-105504819D01*
X157290476Y-105504819D02*
X156719048Y-105504819D01*
X157004762Y-105504819D02*
X157004762Y-104504819D01*
X157004762Y-104504819D02*
X156909524Y-104647676D01*
X156909524Y-104647676D02*
X156814286Y-104742914D01*
X156814286Y-104742914D02*
X156719048Y-104790533D01*
X157623810Y-104504819D02*
X158242857Y-104504819D01*
X158242857Y-104504819D02*
X157909524Y-104885771D01*
X157909524Y-104885771D02*
X158052381Y-104885771D01*
X158052381Y-104885771D02*
X158147619Y-104933390D01*
X158147619Y-104933390D02*
X158195238Y-104981009D01*
X158195238Y-104981009D02*
X158242857Y-105076247D01*
X158242857Y-105076247D02*
X158242857Y-105314342D01*
X158242857Y-105314342D02*
X158195238Y-105409580D01*
X158195238Y-105409580D02*
X158147619Y-105457200D01*
X158147619Y-105457200D02*
X158052381Y-105504819D01*
X158052381Y-105504819D02*
X157766667Y-105504819D01*
X157766667Y-105504819D02*
X157671429Y-105457200D01*
X157671429Y-105457200D02*
X157623810Y-105409580D01*
X139266666Y-104504819D02*
X139266666Y-105219104D01*
X139266666Y-105219104D02*
X139219047Y-105361961D01*
X139219047Y-105361961D02*
X139123809Y-105457200D01*
X139123809Y-105457200D02*
X138980952Y-105504819D01*
X138980952Y-105504819D02*
X138885714Y-105504819D01*
X139790476Y-105504819D02*
X139980952Y-105504819D01*
X139980952Y-105504819D02*
X140076190Y-105457200D01*
X140076190Y-105457200D02*
X140123809Y-105409580D01*
X140123809Y-105409580D02*
X140219047Y-105266723D01*
X140219047Y-105266723D02*
X140266666Y-105076247D01*
X140266666Y-105076247D02*
X140266666Y-104695295D01*
X140266666Y-104695295D02*
X140219047Y-104600057D01*
X140219047Y-104600057D02*
X140171428Y-104552438D01*
X140171428Y-104552438D02*
X140076190Y-104504819D01*
X140076190Y-104504819D02*
X139885714Y-104504819D01*
X139885714Y-104504819D02*
X139790476Y-104552438D01*
X139790476Y-104552438D02*
X139742857Y-104600057D01*
X139742857Y-104600057D02*
X139695238Y-104695295D01*
X139695238Y-104695295D02*
X139695238Y-104933390D01*
X139695238Y-104933390D02*
X139742857Y-105028628D01*
X139742857Y-105028628D02*
X139790476Y-105076247D01*
X139790476Y-105076247D02*
X139885714Y-105123866D01*
X139885714Y-105123866D02*
X140076190Y-105123866D01*
X140076190Y-105123866D02*
X140171428Y-105076247D01*
X140171428Y-105076247D02*
X140219047Y-105028628D01*
X140219047Y-105028628D02*
X140266666Y-104933390D01*
X143349819Y-58429523D02*
X144064104Y-58429523D01*
X144064104Y-58429523D02*
X144206961Y-58477142D01*
X144206961Y-58477142D02*
X144302200Y-58572380D01*
X144302200Y-58572380D02*
X144349819Y-58715237D01*
X144349819Y-58715237D02*
X144349819Y-58810475D01*
X143445057Y-58000951D02*
X143397438Y-57953332D01*
X143397438Y-57953332D02*
X143349819Y-57858094D01*
X143349819Y-57858094D02*
X143349819Y-57619999D01*
X143349819Y-57619999D02*
X143397438Y-57524761D01*
X143397438Y-57524761D02*
X143445057Y-57477142D01*
X143445057Y-57477142D02*
X143540295Y-57429523D01*
X143540295Y-57429523D02*
X143635533Y-57429523D01*
X143635533Y-57429523D02*
X143778390Y-57477142D01*
X143778390Y-57477142D02*
X144349819Y-58048570D01*
X144349819Y-58048570D02*
X144349819Y-57429523D01*
X143349819Y-57096189D02*
X143349819Y-56429523D01*
X143349819Y-56429523D02*
X144349819Y-56858094D01*
X146290476Y-104504819D02*
X146290476Y-105219104D01*
X146290476Y-105219104D02*
X146242857Y-105361961D01*
X146242857Y-105361961D02*
X146147619Y-105457200D01*
X146147619Y-105457200D02*
X146004762Y-105504819D01*
X146004762Y-105504819D02*
X145909524Y-105504819D01*
X147290476Y-105504819D02*
X146719048Y-105504819D01*
X147004762Y-105504819D02*
X147004762Y-104504819D01*
X147004762Y-104504819D02*
X146909524Y-104647676D01*
X146909524Y-104647676D02*
X146814286Y-104742914D01*
X146814286Y-104742914D02*
X146719048Y-104790533D01*
X148147619Y-104504819D02*
X147957143Y-104504819D01*
X147957143Y-104504819D02*
X147861905Y-104552438D01*
X147861905Y-104552438D02*
X147814286Y-104600057D01*
X147814286Y-104600057D02*
X147719048Y-104742914D01*
X147719048Y-104742914D02*
X147671429Y-104933390D01*
X147671429Y-104933390D02*
X147671429Y-105314342D01*
X147671429Y-105314342D02*
X147719048Y-105409580D01*
X147719048Y-105409580D02*
X147766667Y-105457200D01*
X147766667Y-105457200D02*
X147861905Y-105504819D01*
X147861905Y-105504819D02*
X148052381Y-105504819D01*
X148052381Y-105504819D02*
X148147619Y-105457200D01*
X148147619Y-105457200D02*
X148195238Y-105409580D01*
X148195238Y-105409580D02*
X148242857Y-105314342D01*
X148242857Y-105314342D02*
X148242857Y-105076247D01*
X148242857Y-105076247D02*
X148195238Y-104981009D01*
X148195238Y-104981009D02*
X148147619Y-104933390D01*
X148147619Y-104933390D02*
X148052381Y-104885771D01*
X148052381Y-104885771D02*
X147861905Y-104885771D01*
X147861905Y-104885771D02*
X147766667Y-104933390D01*
X147766667Y-104933390D02*
X147719048Y-104981009D01*
X147719048Y-104981009D02*
X147671429Y-105076247D01*
X169190476Y-64304819D02*
X169190476Y-65019104D01*
X169190476Y-65019104D02*
X169142857Y-65161961D01*
X169142857Y-65161961D02*
X169047619Y-65257200D01*
X169047619Y-65257200D02*
X168904762Y-65304819D01*
X168904762Y-65304819D02*
X168809524Y-65304819D01*
X170190476Y-65304819D02*
X169619048Y-65304819D01*
X169904762Y-65304819D02*
X169904762Y-64304819D01*
X169904762Y-64304819D02*
X169809524Y-64447676D01*
X169809524Y-64447676D02*
X169714286Y-64542914D01*
X169714286Y-64542914D02*
X169619048Y-64590533D01*
X170666667Y-65304819D02*
X170857143Y-65304819D01*
X170857143Y-65304819D02*
X170952381Y-65257200D01*
X170952381Y-65257200D02*
X171000000Y-65209580D01*
X171000000Y-65209580D02*
X171095238Y-65066723D01*
X171095238Y-65066723D02*
X171142857Y-64876247D01*
X171142857Y-64876247D02*
X171142857Y-64495295D01*
X171142857Y-64495295D02*
X171095238Y-64400057D01*
X171095238Y-64400057D02*
X171047619Y-64352438D01*
X171047619Y-64352438D02*
X170952381Y-64304819D01*
X170952381Y-64304819D02*
X170761905Y-64304819D01*
X170761905Y-64304819D02*
X170666667Y-64352438D01*
X170666667Y-64352438D02*
X170619048Y-64400057D01*
X170619048Y-64400057D02*
X170571429Y-64495295D01*
X170571429Y-64495295D02*
X170571429Y-64733390D01*
X170571429Y-64733390D02*
X170619048Y-64828628D01*
X170619048Y-64828628D02*
X170666667Y-64876247D01*
X170666667Y-64876247D02*
X170761905Y-64923866D01*
X170761905Y-64923866D02*
X170952381Y-64923866D01*
X170952381Y-64923866D02*
X171047619Y-64876247D01*
X171047619Y-64876247D02*
X171095238Y-64828628D01*
X171095238Y-64828628D02*
X171142857Y-64733390D01*
X109016666Y-104504819D02*
X109016666Y-105219104D01*
X109016666Y-105219104D02*
X108969047Y-105361961D01*
X108969047Y-105361961D02*
X108873809Y-105457200D01*
X108873809Y-105457200D02*
X108730952Y-105504819D01*
X108730952Y-105504819D02*
X108635714Y-105504819D01*
X109635714Y-104933390D02*
X109540476Y-104885771D01*
X109540476Y-104885771D02*
X109492857Y-104838152D01*
X109492857Y-104838152D02*
X109445238Y-104742914D01*
X109445238Y-104742914D02*
X109445238Y-104695295D01*
X109445238Y-104695295D02*
X109492857Y-104600057D01*
X109492857Y-104600057D02*
X109540476Y-104552438D01*
X109540476Y-104552438D02*
X109635714Y-104504819D01*
X109635714Y-104504819D02*
X109826190Y-104504819D01*
X109826190Y-104504819D02*
X109921428Y-104552438D01*
X109921428Y-104552438D02*
X109969047Y-104600057D01*
X109969047Y-104600057D02*
X110016666Y-104695295D01*
X110016666Y-104695295D02*
X110016666Y-104742914D01*
X110016666Y-104742914D02*
X109969047Y-104838152D01*
X109969047Y-104838152D02*
X109921428Y-104885771D01*
X109921428Y-104885771D02*
X109826190Y-104933390D01*
X109826190Y-104933390D02*
X109635714Y-104933390D01*
X109635714Y-104933390D02*
X109540476Y-104981009D01*
X109540476Y-104981009D02*
X109492857Y-105028628D01*
X109492857Y-105028628D02*
X109445238Y-105123866D01*
X109445238Y-105123866D02*
X109445238Y-105314342D01*
X109445238Y-105314342D02*
X109492857Y-105409580D01*
X109492857Y-105409580D02*
X109540476Y-105457200D01*
X109540476Y-105457200D02*
X109635714Y-105504819D01*
X109635714Y-105504819D02*
X109826190Y-105504819D01*
X109826190Y-105504819D02*
X109921428Y-105457200D01*
X109921428Y-105457200D02*
X109969047Y-105409580D01*
X109969047Y-105409580D02*
X110016666Y-105314342D01*
X110016666Y-105314342D02*
X110016666Y-105123866D01*
X110016666Y-105123866D02*
X109969047Y-105028628D01*
X109969047Y-105028628D02*
X109921428Y-104981009D01*
X109921428Y-104981009D02*
X109826190Y-104933390D01*
X104166666Y-64304819D02*
X104166666Y-65019104D01*
X104166666Y-65019104D02*
X104119047Y-65161961D01*
X104119047Y-65161961D02*
X104023809Y-65257200D01*
X104023809Y-65257200D02*
X103880952Y-65304819D01*
X103880952Y-65304819D02*
X103785714Y-65304819D01*
X104595238Y-64400057D02*
X104642857Y-64352438D01*
X104642857Y-64352438D02*
X104738095Y-64304819D01*
X104738095Y-64304819D02*
X104976190Y-64304819D01*
X104976190Y-64304819D02*
X105071428Y-64352438D01*
X105071428Y-64352438D02*
X105119047Y-64400057D01*
X105119047Y-64400057D02*
X105166666Y-64495295D01*
X105166666Y-64495295D02*
X105166666Y-64590533D01*
X105166666Y-64590533D02*
X105119047Y-64733390D01*
X105119047Y-64733390D02*
X104547619Y-65304819D01*
X104547619Y-65304819D02*
X105166666Y-65304819D01*
X160899819Y-58354523D02*
X161614104Y-58354523D01*
X161614104Y-58354523D02*
X161756961Y-58402142D01*
X161756961Y-58402142D02*
X161852200Y-58497380D01*
X161852200Y-58497380D02*
X161899819Y-58640237D01*
X161899819Y-58640237D02*
X161899819Y-58735475D01*
X160995057Y-57925951D02*
X160947438Y-57878332D01*
X160947438Y-57878332D02*
X160899819Y-57783094D01*
X160899819Y-57783094D02*
X160899819Y-57544999D01*
X160899819Y-57544999D02*
X160947438Y-57449761D01*
X160947438Y-57449761D02*
X160995057Y-57402142D01*
X160995057Y-57402142D02*
X161090295Y-57354523D01*
X161090295Y-57354523D02*
X161185533Y-57354523D01*
X161185533Y-57354523D02*
X161328390Y-57402142D01*
X161328390Y-57402142D02*
X161899819Y-57973570D01*
X161899819Y-57973570D02*
X161899819Y-57354523D01*
X161328390Y-56783094D02*
X161280771Y-56878332D01*
X161280771Y-56878332D02*
X161233152Y-56925951D01*
X161233152Y-56925951D02*
X161137914Y-56973570D01*
X161137914Y-56973570D02*
X161090295Y-56973570D01*
X161090295Y-56973570D02*
X160995057Y-56925951D01*
X160995057Y-56925951D02*
X160947438Y-56878332D01*
X160947438Y-56878332D02*
X160899819Y-56783094D01*
X160899819Y-56783094D02*
X160899819Y-56592618D01*
X160899819Y-56592618D02*
X160947438Y-56497380D01*
X160947438Y-56497380D02*
X160995057Y-56449761D01*
X160995057Y-56449761D02*
X161090295Y-56402142D01*
X161090295Y-56402142D02*
X161137914Y-56402142D01*
X161137914Y-56402142D02*
X161233152Y-56449761D01*
X161233152Y-56449761D02*
X161280771Y-56497380D01*
X161280771Y-56497380D02*
X161328390Y-56592618D01*
X161328390Y-56592618D02*
X161328390Y-56783094D01*
X161328390Y-56783094D02*
X161376009Y-56878332D01*
X161376009Y-56878332D02*
X161423628Y-56925951D01*
X161423628Y-56925951D02*
X161518866Y-56973570D01*
X161518866Y-56973570D02*
X161709342Y-56973570D01*
X161709342Y-56973570D02*
X161804580Y-56925951D01*
X161804580Y-56925951D02*
X161852200Y-56878332D01*
X161852200Y-56878332D02*
X161899819Y-56783094D01*
X161899819Y-56783094D02*
X161899819Y-56592618D01*
X161899819Y-56592618D02*
X161852200Y-56497380D01*
X161852200Y-56497380D02*
X161804580Y-56449761D01*
X161804580Y-56449761D02*
X161709342Y-56402142D01*
X161709342Y-56402142D02*
X161518866Y-56402142D01*
X161518866Y-56402142D02*
X161423628Y-56449761D01*
X161423628Y-56449761D02*
X161376009Y-56497380D01*
X161376009Y-56497380D02*
X161328390Y-56592618D01*
X198519819Y-58429523D02*
X199234104Y-58429523D01*
X199234104Y-58429523D02*
X199376961Y-58477142D01*
X199376961Y-58477142D02*
X199472200Y-58572380D01*
X199472200Y-58572380D02*
X199519819Y-58715237D01*
X199519819Y-58715237D02*
X199519819Y-58810475D01*
X198519819Y-58048570D02*
X198519819Y-57429523D01*
X198519819Y-57429523D02*
X198900771Y-57762856D01*
X198900771Y-57762856D02*
X198900771Y-57619999D01*
X198900771Y-57619999D02*
X198948390Y-57524761D01*
X198948390Y-57524761D02*
X198996009Y-57477142D01*
X198996009Y-57477142D02*
X199091247Y-57429523D01*
X199091247Y-57429523D02*
X199329342Y-57429523D01*
X199329342Y-57429523D02*
X199424580Y-57477142D01*
X199424580Y-57477142D02*
X199472200Y-57524761D01*
X199472200Y-57524761D02*
X199519819Y-57619999D01*
X199519819Y-57619999D02*
X199519819Y-57905713D01*
X199519819Y-57905713D02*
X199472200Y-58000951D01*
X199472200Y-58000951D02*
X199424580Y-58048570D01*
X198519819Y-56810475D02*
X198519819Y-56715237D01*
X198519819Y-56715237D02*
X198567438Y-56619999D01*
X198567438Y-56619999D02*
X198615057Y-56572380D01*
X198615057Y-56572380D02*
X198710295Y-56524761D01*
X198710295Y-56524761D02*
X198900771Y-56477142D01*
X198900771Y-56477142D02*
X199138866Y-56477142D01*
X199138866Y-56477142D02*
X199329342Y-56524761D01*
X199329342Y-56524761D02*
X199424580Y-56572380D01*
X199424580Y-56572380D02*
X199472200Y-56619999D01*
X199472200Y-56619999D02*
X199519819Y-56715237D01*
X199519819Y-56715237D02*
X199519819Y-56810475D01*
X199519819Y-56810475D02*
X199472200Y-56905713D01*
X199472200Y-56905713D02*
X199424580Y-56953332D01*
X199424580Y-56953332D02*
X199329342Y-57000951D01*
X199329342Y-57000951D02*
X199138866Y-57048570D01*
X199138866Y-57048570D02*
X198900771Y-57048570D01*
X198900771Y-57048570D02*
X198710295Y-57000951D01*
X198710295Y-57000951D02*
X198615057Y-56953332D01*
X198615057Y-56953332D02*
X198567438Y-56905713D01*
X198567438Y-56905713D02*
X198519819Y-56810475D01*
D11*
%TO.C,J25*%
X94375000Y-51910000D02*
X94375000Y-60540000D01*
X95345000Y-60540000D02*
X95345000Y-60950000D01*
X96065000Y-60540000D02*
X96065000Y-60950000D01*
X96975000Y-51910000D02*
X96975000Y-60540000D01*
X97885000Y-60540000D02*
X97885000Y-60950000D01*
X98605000Y-60540000D02*
X98605000Y-60950000D01*
X99515000Y-51910000D02*
X99515000Y-60540000D01*
X100425000Y-60540000D02*
X100425000Y-60950000D01*
X101145000Y-60540000D02*
X101145000Y-60950000D01*
X102055000Y-51910000D02*
X102055000Y-60540000D01*
X102173100Y-51910000D02*
X102173100Y-60540000D01*
X102291195Y-51910000D02*
X102291195Y-60540000D01*
X102409290Y-51910000D02*
X102409290Y-60540000D01*
X102527385Y-51910000D02*
X102527385Y-60540000D01*
X102645480Y-51910000D02*
X102645480Y-60540000D01*
X102763575Y-51910000D02*
X102763575Y-60540000D01*
X102881670Y-51910000D02*
X102881670Y-60540000D01*
X102965000Y-60540000D02*
X102965000Y-60890000D01*
X102999765Y-51910000D02*
X102999765Y-60540000D01*
X103117860Y-51910000D02*
X103117860Y-60540000D01*
X103235955Y-51910000D02*
X103235955Y-60540000D01*
X103354050Y-51910000D02*
X103354050Y-60540000D01*
X103472145Y-51910000D02*
X103472145Y-60540000D01*
X103590240Y-51910000D02*
X103590240Y-60540000D01*
X103685000Y-60540000D02*
X103685000Y-60890000D01*
X103708335Y-51910000D02*
X103708335Y-60540000D01*
X103826430Y-51910000D02*
X103826430Y-60540000D01*
X103944525Y-51910000D02*
X103944525Y-60540000D01*
X104062620Y-51910000D02*
X104062620Y-60540000D01*
X104180715Y-51910000D02*
X104180715Y-60540000D01*
X104298810Y-51910000D02*
X104298810Y-60540000D01*
X104416905Y-51910000D02*
X104416905Y-60540000D01*
X104535000Y-51910000D02*
X104535000Y-60540000D01*
X104655000Y-51910000D02*
X94375000Y-51910000D01*
X104655000Y-51910000D02*
X104655000Y-60540000D01*
X104655000Y-60540000D02*
X94375000Y-60540000D01*
X104655000Y-62000000D02*
X104655000Y-63110000D01*
X104655000Y-63110000D02*
X103325000Y-63110000D01*
%TO.C,J23*%
X185650000Y-65650000D02*
X186980000Y-65650000D01*
X185650000Y-66980000D02*
X185650000Y-65650000D01*
X186170000Y-69340000D02*
X186170000Y-69400000D01*
X186170000Y-69340000D02*
X188830000Y-69340000D01*
X186170000Y-69400000D02*
X188830000Y-69400000D01*
X188830000Y-69340000D02*
X188830000Y-69400000D01*
%TO.C,J26*%
X112050000Y-51910000D02*
X112050000Y-60540000D01*
X113020000Y-60540000D02*
X113020000Y-60950000D01*
X113740000Y-60540000D02*
X113740000Y-60950000D01*
X114650000Y-51910000D02*
X114650000Y-60540000D01*
X115560000Y-60540000D02*
X115560000Y-60950000D01*
X116280000Y-60540000D02*
X116280000Y-60950000D01*
X117190000Y-51910000D02*
X117190000Y-60540000D01*
X118100000Y-60540000D02*
X118100000Y-60950000D01*
X118820000Y-60540000D02*
X118820000Y-60950000D01*
X119730000Y-51910000D02*
X119730000Y-60540000D01*
X119848100Y-51910000D02*
X119848100Y-60540000D01*
X119966195Y-51910000D02*
X119966195Y-60540000D01*
X120084290Y-51910000D02*
X120084290Y-60540000D01*
X120202385Y-51910000D02*
X120202385Y-60540000D01*
X120320480Y-51910000D02*
X120320480Y-60540000D01*
X120438575Y-51910000D02*
X120438575Y-60540000D01*
X120556670Y-51910000D02*
X120556670Y-60540000D01*
X120640000Y-60540000D02*
X120640000Y-60890000D01*
X120674765Y-51910000D02*
X120674765Y-60540000D01*
X120792860Y-51910000D02*
X120792860Y-60540000D01*
X120910955Y-51910000D02*
X120910955Y-60540000D01*
X121029050Y-51910000D02*
X121029050Y-60540000D01*
X121147145Y-51910000D02*
X121147145Y-60540000D01*
X121265240Y-51910000D02*
X121265240Y-60540000D01*
X121360000Y-60540000D02*
X121360000Y-60890000D01*
X121383335Y-51910000D02*
X121383335Y-60540000D01*
X121501430Y-51910000D02*
X121501430Y-60540000D01*
X121619525Y-51910000D02*
X121619525Y-60540000D01*
X121737620Y-51910000D02*
X121737620Y-60540000D01*
X121855715Y-51910000D02*
X121855715Y-60540000D01*
X121973810Y-51910000D02*
X121973810Y-60540000D01*
X122091905Y-51910000D02*
X122091905Y-60540000D01*
X122210000Y-51910000D02*
X122210000Y-60540000D01*
X122330000Y-51910000D02*
X112050000Y-51910000D01*
X122330000Y-51910000D02*
X122330000Y-60540000D01*
X122330000Y-60540000D02*
X112050000Y-60540000D01*
X122330000Y-62000000D02*
X122330000Y-63110000D01*
X122330000Y-63110000D02*
X121000000Y-63110000D01*
%TO.C,J6*%
X120150000Y-65650000D02*
X121480000Y-65650000D01*
X120150000Y-66980000D02*
X120150000Y-65650000D01*
X120670000Y-69340000D02*
X120670000Y-69400000D01*
X120670000Y-69340000D02*
X123330000Y-69340000D01*
X120670000Y-69400000D02*
X123330000Y-69400000D01*
X123330000Y-69340000D02*
X123330000Y-69400000D01*
%TO.C,J7*%
X110150000Y-65650000D02*
X111480000Y-65650000D01*
X110150000Y-66980000D02*
X110150000Y-65650000D01*
X110670000Y-69340000D02*
X110670000Y-69400000D01*
X110670000Y-69340000D02*
X113330000Y-69340000D01*
X110670000Y-69400000D02*
X113330000Y-69400000D01*
X113330000Y-69340000D02*
X113330000Y-69400000D01*
%TO.C,J3*%
X92650000Y-65650000D02*
X93980000Y-65650000D01*
X92650000Y-66980000D02*
X92650000Y-65650000D01*
X93170000Y-69340000D02*
X93170000Y-69400000D01*
X93170000Y-69340000D02*
X95830000Y-69340000D01*
X93170000Y-69400000D02*
X95830000Y-69400000D01*
X95830000Y-69340000D02*
X95830000Y-69400000D01*
%TO.C,J15*%
X147900000Y-65650000D02*
X149230000Y-65650000D01*
X147900000Y-66980000D02*
X147900000Y-65650000D01*
X148420000Y-69340000D02*
X148420000Y-69400000D01*
X148420000Y-69340000D02*
X151080000Y-69340000D01*
X148420000Y-69400000D02*
X151080000Y-69400000D01*
X151080000Y-69340000D02*
X151080000Y-69400000D01*
%TO.C,J10*%
X140400000Y-65650000D02*
X141730000Y-65650000D01*
X140400000Y-66980000D02*
X140400000Y-65650000D01*
X140920000Y-69340000D02*
X140920000Y-69400000D01*
X140920000Y-69340000D02*
X143580000Y-69340000D01*
X140920000Y-69400000D02*
X143580000Y-69400000D01*
X143580000Y-69340000D02*
X143580000Y-69400000D01*
%TO.C,J12*%
X130400000Y-101150000D02*
X131730000Y-101150000D01*
X130400000Y-102480000D02*
X130400000Y-101150000D01*
X130920000Y-104840000D02*
X130920000Y-104900000D01*
X130920000Y-104840000D02*
X133580000Y-104840000D01*
X130920000Y-104900000D02*
X133580000Y-104900000D01*
X133580000Y-104840000D02*
X133580000Y-104900000D01*
%TO.C,J5*%
X120150000Y-101150000D02*
X121480000Y-101150000D01*
X120150000Y-102480000D02*
X120150000Y-101150000D01*
X120670000Y-104840000D02*
X120670000Y-104900000D01*
X120670000Y-104840000D02*
X123330000Y-104840000D01*
X120670000Y-104900000D02*
X123330000Y-104900000D01*
X123330000Y-104840000D02*
X123330000Y-104900000D01*
%TO.C,J17*%
X178150000Y-101150000D02*
X179480000Y-101150000D01*
X178150000Y-102480000D02*
X178150000Y-101150000D01*
X178670000Y-104840000D02*
X178670000Y-104900000D01*
X178670000Y-104840000D02*
X181330000Y-104840000D01*
X178670000Y-104900000D02*
X181330000Y-104900000D01*
X181330000Y-104840000D02*
X181330000Y-104900000D01*
%TO.C,J24*%
X185650000Y-101150000D02*
X186980000Y-101150000D01*
X185650000Y-102480000D02*
X185650000Y-101150000D01*
X186170000Y-104840000D02*
X186170000Y-104900000D01*
X186170000Y-104840000D02*
X188830000Y-104840000D01*
X186170000Y-104900000D02*
X188830000Y-104900000D01*
X188830000Y-104840000D02*
X188830000Y-104900000D01*
%TO.C,J20*%
X168150000Y-101150000D02*
X169480000Y-101150000D01*
X168150000Y-102480000D02*
X168150000Y-101150000D01*
X168670000Y-104840000D02*
X168670000Y-104900000D01*
X168670000Y-104840000D02*
X171330000Y-104840000D01*
X168670000Y-104900000D02*
X171330000Y-104900000D01*
X171330000Y-104840000D02*
X171330000Y-104900000D01*
%TO.C,J4*%
X92650000Y-101150000D02*
X93980000Y-101150000D01*
X92650000Y-102480000D02*
X92650000Y-101150000D01*
X93170000Y-104840000D02*
X93170000Y-104900000D01*
X93170000Y-104840000D02*
X95830000Y-104840000D01*
X93170000Y-104900000D02*
X95830000Y-104900000D01*
X95830000Y-104840000D02*
X95830000Y-104900000D01*
%TO.C,J11*%
X130400000Y-65650000D02*
X131730000Y-65650000D01*
X130400000Y-66980000D02*
X130400000Y-65650000D01*
X130920000Y-69340000D02*
X130920000Y-69400000D01*
X130920000Y-69340000D02*
X133580000Y-69340000D01*
X130920000Y-69400000D02*
X133580000Y-69400000D01*
X133580000Y-69340000D02*
X133580000Y-69400000D01*
%TO.C,J29*%
X170100000Y-51910000D02*
X170100000Y-60540000D01*
X171070000Y-60540000D02*
X171070000Y-60950000D01*
X171790000Y-60540000D02*
X171790000Y-60950000D01*
X172700000Y-51910000D02*
X172700000Y-60540000D01*
X173610000Y-60540000D02*
X173610000Y-60950000D01*
X174330000Y-60540000D02*
X174330000Y-60950000D01*
X175240000Y-51910000D02*
X175240000Y-60540000D01*
X176150000Y-60540000D02*
X176150000Y-60950000D01*
X176870000Y-60540000D02*
X176870000Y-60950000D01*
X177780000Y-51910000D02*
X177780000Y-60540000D01*
X177898100Y-51910000D02*
X177898100Y-60540000D01*
X178016195Y-51910000D02*
X178016195Y-60540000D01*
X178134290Y-51910000D02*
X178134290Y-60540000D01*
X178252385Y-51910000D02*
X178252385Y-60540000D01*
X178370480Y-51910000D02*
X178370480Y-60540000D01*
X178488575Y-51910000D02*
X178488575Y-60540000D01*
X178606670Y-51910000D02*
X178606670Y-60540000D01*
X178690000Y-60540000D02*
X178690000Y-60890000D01*
X178724765Y-51910000D02*
X178724765Y-60540000D01*
X178842860Y-51910000D02*
X178842860Y-60540000D01*
X178960955Y-51910000D02*
X178960955Y-60540000D01*
X179079050Y-51910000D02*
X179079050Y-60540000D01*
X179197145Y-51910000D02*
X179197145Y-60540000D01*
X179315240Y-51910000D02*
X179315240Y-60540000D01*
X179410000Y-60540000D02*
X179410000Y-60890000D01*
X179433335Y-51910000D02*
X179433335Y-60540000D01*
X179551430Y-51910000D02*
X179551430Y-60540000D01*
X179669525Y-51910000D02*
X179669525Y-60540000D01*
X179787620Y-51910000D02*
X179787620Y-60540000D01*
X179905715Y-51910000D02*
X179905715Y-60540000D01*
X180023810Y-51910000D02*
X180023810Y-60540000D01*
X180141905Y-51910000D02*
X180141905Y-60540000D01*
X180260000Y-51910000D02*
X180260000Y-60540000D01*
X180380000Y-51910000D02*
X170100000Y-51910000D01*
X180380000Y-51910000D02*
X180380000Y-60540000D01*
X180380000Y-60540000D02*
X170100000Y-60540000D01*
X180380000Y-62000000D02*
X180380000Y-63110000D01*
X180380000Y-63110000D02*
X179050000Y-63110000D01*
%TO.C,J22*%
X195650000Y-65650000D02*
X196980000Y-65650000D01*
X195650000Y-66980000D02*
X195650000Y-65650000D01*
X196170000Y-69340000D02*
X196170000Y-69400000D01*
X196170000Y-69340000D02*
X198830000Y-69340000D01*
X196170000Y-69400000D02*
X198830000Y-69400000D01*
X198830000Y-69340000D02*
X198830000Y-69400000D01*
%TO.C,J18*%
X178150000Y-65650000D02*
X179480000Y-65650000D01*
X178150000Y-66980000D02*
X178150000Y-65650000D01*
X178670000Y-69340000D02*
X178670000Y-69400000D01*
X178670000Y-69340000D02*
X181330000Y-69340000D01*
X178670000Y-69400000D02*
X181330000Y-69400000D01*
X181330000Y-69340000D02*
X181330000Y-69400000D01*
%TO.C,J1*%
X102650000Y-101150000D02*
X103980000Y-101150000D01*
X102650000Y-102480000D02*
X102650000Y-101150000D01*
X103170000Y-104840000D02*
X103170000Y-104900000D01*
X103170000Y-104840000D02*
X105830000Y-104840000D01*
X103170000Y-104900000D02*
X105830000Y-104900000D01*
X105830000Y-104840000D02*
X105830000Y-104900000D01*
%TO.C,J21*%
X195650000Y-101150000D02*
X196980000Y-101150000D01*
X195650000Y-102480000D02*
X195650000Y-101150000D01*
X196170000Y-104840000D02*
X196170000Y-104900000D01*
X196170000Y-104840000D02*
X198830000Y-104840000D01*
X196170000Y-104900000D02*
X198830000Y-104900000D01*
X198830000Y-104840000D02*
X198830000Y-104900000D01*
%TO.C,J14*%
X157900000Y-65650000D02*
X159230000Y-65650000D01*
X157900000Y-66980000D02*
X157900000Y-65650000D01*
X158420000Y-69340000D02*
X158420000Y-69400000D01*
X158420000Y-69340000D02*
X161080000Y-69340000D01*
X158420000Y-69400000D02*
X161080000Y-69400000D01*
X161080000Y-69340000D02*
X161080000Y-69400000D01*
%TO.C,J13*%
X157900000Y-101150000D02*
X159230000Y-101150000D01*
X157900000Y-102480000D02*
X157900000Y-101150000D01*
X158420000Y-104840000D02*
X158420000Y-104900000D01*
X158420000Y-104840000D02*
X161080000Y-104840000D01*
X158420000Y-104900000D02*
X161080000Y-104900000D01*
X161080000Y-104840000D02*
X161080000Y-104900000D01*
%TO.C,J9*%
X140400000Y-101150000D02*
X141730000Y-101150000D01*
X140400000Y-102480000D02*
X140400000Y-101150000D01*
X140920000Y-104840000D02*
X140920000Y-104900000D01*
X140920000Y-104840000D02*
X143580000Y-104840000D01*
X140920000Y-104900000D02*
X143580000Y-104900000D01*
X143580000Y-104840000D02*
X143580000Y-104900000D01*
%TO.C,J27*%
X132175000Y-51910000D02*
X132175000Y-60540000D01*
X133145000Y-60540000D02*
X133145000Y-60950000D01*
X133865000Y-60540000D02*
X133865000Y-60950000D01*
X134775000Y-51910000D02*
X134775000Y-60540000D01*
X135685000Y-60540000D02*
X135685000Y-60950000D01*
X136405000Y-60540000D02*
X136405000Y-60950000D01*
X137315000Y-51910000D02*
X137315000Y-60540000D01*
X138225000Y-60540000D02*
X138225000Y-60950000D01*
X138945000Y-60540000D02*
X138945000Y-60950000D01*
X139855000Y-51910000D02*
X139855000Y-60540000D01*
X139973100Y-51910000D02*
X139973100Y-60540000D01*
X140091195Y-51910000D02*
X140091195Y-60540000D01*
X140209290Y-51910000D02*
X140209290Y-60540000D01*
X140327385Y-51910000D02*
X140327385Y-60540000D01*
X140445480Y-51910000D02*
X140445480Y-60540000D01*
X140563575Y-51910000D02*
X140563575Y-60540000D01*
X140681670Y-51910000D02*
X140681670Y-60540000D01*
X140765000Y-60540000D02*
X140765000Y-60890000D01*
X140799765Y-51910000D02*
X140799765Y-60540000D01*
X140917860Y-51910000D02*
X140917860Y-60540000D01*
X141035955Y-51910000D02*
X141035955Y-60540000D01*
X141154050Y-51910000D02*
X141154050Y-60540000D01*
X141272145Y-51910000D02*
X141272145Y-60540000D01*
X141390240Y-51910000D02*
X141390240Y-60540000D01*
X141485000Y-60540000D02*
X141485000Y-60890000D01*
X141508335Y-51910000D02*
X141508335Y-60540000D01*
X141626430Y-51910000D02*
X141626430Y-60540000D01*
X141744525Y-51910000D02*
X141744525Y-60540000D01*
X141862620Y-51910000D02*
X141862620Y-60540000D01*
X141980715Y-51910000D02*
X141980715Y-60540000D01*
X142098810Y-51910000D02*
X142098810Y-60540000D01*
X142216905Y-51910000D02*
X142216905Y-60540000D01*
X142335000Y-51910000D02*
X142335000Y-60540000D01*
X142455000Y-51910000D02*
X132175000Y-51910000D01*
X142455000Y-51910000D02*
X142455000Y-60540000D01*
X142455000Y-60540000D02*
X132175000Y-60540000D01*
X142455000Y-62000000D02*
X142455000Y-63110000D01*
X142455000Y-63110000D02*
X141125000Y-63110000D01*
%TO.C,J16*%
X147900000Y-101150000D02*
X149230000Y-101150000D01*
X147900000Y-102480000D02*
X147900000Y-101150000D01*
X148420000Y-104840000D02*
X148420000Y-104900000D01*
X148420000Y-104840000D02*
X151080000Y-104840000D01*
X148420000Y-104900000D02*
X151080000Y-104900000D01*
X151080000Y-104840000D02*
X151080000Y-104900000D01*
%TO.C,J19*%
X168150000Y-65650000D02*
X169480000Y-65650000D01*
X168150000Y-66980000D02*
X168150000Y-65650000D01*
X168670000Y-69340000D02*
X168670000Y-69400000D01*
X168670000Y-69340000D02*
X171330000Y-69340000D01*
X168670000Y-69400000D02*
X171330000Y-69400000D01*
X171330000Y-69340000D02*
X171330000Y-69400000D01*
%TO.C,J8*%
X110150000Y-101150000D02*
X111480000Y-101150000D01*
X110150000Y-102480000D02*
X110150000Y-101150000D01*
X110670000Y-104840000D02*
X110670000Y-104900000D01*
X110670000Y-104840000D02*
X113330000Y-104840000D01*
X110670000Y-104900000D02*
X113330000Y-104900000D01*
X113330000Y-104840000D02*
X113330000Y-104900000D01*
%TO.C,J2*%
X102650000Y-65650000D02*
X103980000Y-65650000D01*
X102650000Y-66980000D02*
X102650000Y-65650000D01*
X103170000Y-69340000D02*
X103170000Y-69400000D01*
X103170000Y-69340000D02*
X105830000Y-69340000D01*
X103170000Y-69400000D02*
X105830000Y-69400000D01*
X105830000Y-69340000D02*
X105830000Y-69400000D01*
%TO.C,J28*%
X149725000Y-51835000D02*
X149725000Y-60465000D01*
X150695000Y-60465000D02*
X150695000Y-60875000D01*
X151415000Y-60465000D02*
X151415000Y-60875000D01*
X152325000Y-51835000D02*
X152325000Y-60465000D01*
X153235000Y-60465000D02*
X153235000Y-60875000D01*
X153955000Y-60465000D02*
X153955000Y-60875000D01*
X154865000Y-51835000D02*
X154865000Y-60465000D01*
X155775000Y-60465000D02*
X155775000Y-60875000D01*
X156495000Y-60465000D02*
X156495000Y-60875000D01*
X157405000Y-51835000D02*
X157405000Y-60465000D01*
X157523100Y-51835000D02*
X157523100Y-60465000D01*
X157641195Y-51835000D02*
X157641195Y-60465000D01*
X157759290Y-51835000D02*
X157759290Y-60465000D01*
X157877385Y-51835000D02*
X157877385Y-60465000D01*
X157995480Y-51835000D02*
X157995480Y-60465000D01*
X158113575Y-51835000D02*
X158113575Y-60465000D01*
X158231670Y-51835000D02*
X158231670Y-60465000D01*
X158315000Y-60465000D02*
X158315000Y-60815000D01*
X158349765Y-51835000D02*
X158349765Y-60465000D01*
X158467860Y-51835000D02*
X158467860Y-60465000D01*
X158585955Y-51835000D02*
X158585955Y-60465000D01*
X158704050Y-51835000D02*
X158704050Y-60465000D01*
X158822145Y-51835000D02*
X158822145Y-60465000D01*
X158940240Y-51835000D02*
X158940240Y-60465000D01*
X159035000Y-60465000D02*
X159035000Y-60815000D01*
X159058335Y-51835000D02*
X159058335Y-60465000D01*
X159176430Y-51835000D02*
X159176430Y-60465000D01*
X159294525Y-51835000D02*
X159294525Y-60465000D01*
X159412620Y-51835000D02*
X159412620Y-60465000D01*
X159530715Y-51835000D02*
X159530715Y-60465000D01*
X159648810Y-51835000D02*
X159648810Y-60465000D01*
X159766905Y-51835000D02*
X159766905Y-60465000D01*
X159885000Y-51835000D02*
X159885000Y-60465000D01*
X160005000Y-51835000D02*
X149725000Y-51835000D01*
X160005000Y-51835000D02*
X160005000Y-60465000D01*
X160005000Y-60465000D02*
X149725000Y-60465000D01*
X160005000Y-61925000D02*
X160005000Y-63035000D01*
X160005000Y-63035000D02*
X158675000Y-63035000D01*
%TO.C,J30*%
X187345000Y-51910000D02*
X187345000Y-60540000D01*
X188315000Y-60540000D02*
X188315000Y-60950000D01*
X189035000Y-60540000D02*
X189035000Y-60950000D01*
X189945000Y-51910000D02*
X189945000Y-60540000D01*
X190855000Y-60540000D02*
X190855000Y-60950000D01*
X191575000Y-60540000D02*
X191575000Y-60950000D01*
X192485000Y-51910000D02*
X192485000Y-60540000D01*
X193395000Y-60540000D02*
X193395000Y-60950000D01*
X194115000Y-60540000D02*
X194115000Y-60950000D01*
X195025000Y-51910000D02*
X195025000Y-60540000D01*
X195143100Y-51910000D02*
X195143100Y-60540000D01*
X195261195Y-51910000D02*
X195261195Y-60540000D01*
X195379290Y-51910000D02*
X195379290Y-60540000D01*
X195497385Y-51910000D02*
X195497385Y-60540000D01*
X195615480Y-51910000D02*
X195615480Y-60540000D01*
X195733575Y-51910000D02*
X195733575Y-60540000D01*
X195851670Y-51910000D02*
X195851670Y-60540000D01*
X195935000Y-60540000D02*
X195935000Y-60890000D01*
X195969765Y-51910000D02*
X195969765Y-60540000D01*
X196087860Y-51910000D02*
X196087860Y-60540000D01*
X196205955Y-51910000D02*
X196205955Y-60540000D01*
X196324050Y-51910000D02*
X196324050Y-60540000D01*
X196442145Y-51910000D02*
X196442145Y-60540000D01*
X196560240Y-51910000D02*
X196560240Y-60540000D01*
X196655000Y-60540000D02*
X196655000Y-60890000D01*
X196678335Y-51910000D02*
X196678335Y-60540000D01*
X196796430Y-51910000D02*
X196796430Y-60540000D01*
X196914525Y-51910000D02*
X196914525Y-60540000D01*
X197032620Y-51910000D02*
X197032620Y-60540000D01*
X197150715Y-51910000D02*
X197150715Y-60540000D01*
X197268810Y-51910000D02*
X197268810Y-60540000D01*
X197386905Y-51910000D02*
X197386905Y-60540000D01*
X197505000Y-51910000D02*
X197505000Y-60540000D01*
X197625000Y-51910000D02*
X187345000Y-51910000D01*
X197625000Y-51910000D02*
X197625000Y-60540000D01*
X197625000Y-60540000D02*
X187345000Y-60540000D01*
X197625000Y-62000000D02*
X197625000Y-63110000D01*
X197625000Y-63110000D02*
X196295000Y-63110000D01*
%TD*%
M02*
