<?xml version="1.0" encoding="utf-8"?>
<!-- Generator: Fusion 360, Shaper Origin Export Add-In, Version 1.7.0  -->
<svg xmlns="http://www.w3.org/2000/svg" xmlns:xlink="http://www.w3.org/1999/xlink" xmlns:shaper="http://www.shapertools.com/namespaces/shaper" shaper:fusionaddin="version:1.7.0" width="12.774276cm" height="4.3426808cm" version="1.1" x="0cm" y="0cm" viewBox="0 0 12.774276 4.3426808" enable-background="new 0 0 12.774276 4.3426808" xml:space="preserve"><path d="M-5.8929891,-2.1713404 L6.387138,-2.1713404 6.387138,2.1713404 -5.887138,2.1713404 -6.387138,2.1713404 -6.387138,-2.1713404 -5.8929891,-2.1713404z" transform="matrix(1,0,0,-1,6.387138,2.1713404)" fill="rgb(0,0,0)" stroke-linecap="round" stroke-linejoin="round" /><path d="M-5.8929891,-2.1713404 A0.3,0.3 348.6654221 0,1 -5.887138,-2.112379 A0.3,0.3 0 0,0 -5.8929891,-2.1713404z" transform="matrix(1,0,0,-1,6.387138,2.1713404)" fill="rgb(0,0,0)" stroke-linecap="round" stroke-linejoin="round" /><path d="M-1.4857616,-1.8800229 a0.15875,0.15875 0 1,1 0.3175,0 a0.15875,0.15875 0 1,1 -0.3175,0z" transform="matrix(1,0,0,-1,6.387138,2.1713404)" fill="rgb(255,255,255)" stroke="rgb(0,0,0)" stroke-width="0.0010cm" stroke-linecap="round" stroke-linejoin="round" /><path d="M2.3142384,-1.8800229 a0.15875,0.15875 0 1,1 0.3175,0 a0.15875,0.15875 0 1,1 -0.3175,0z" transform="matrix(1,0,0,-1,6.387138,2.1713404)" fill="rgb(255,255,255)" stroke="rgb(0,0,0)" stroke-width="0.0010cm" stroke-linecap="round" stroke-linejoin="round" /><path d="M4.1125116,-1.7247499 A0.15875,0.15875 102.0136509 1,0 4.0691725,-1.7408563 L4.1125116,-1.7408563 4.1125116,-1.7247499z" transform="matrix(1,0,0,-1,6.387138,2.1713404)" fill="rgb(255,255,255)" stroke="rgb(0,0,0)" stroke-width="0.0010cm" stroke-linecap="round" stroke-linejoin="round" /><path d="M4.9760449,-1.8800229 a0.15875,0.15875 0 1,1 0.3175,0 a0.15875,0.15875 0 1,1 -0.3175,0z" transform="matrix(1,0,0,-1,6.387138,2.1713404)" fill="rgb(255,255,255)" stroke="rgb(0,0,0)" stroke-width="0.0010cm" stroke-linecap="round" stroke-linejoin="round" /><path d="M4.0205545,1.6699771 a0.125,0.125 0 1,1 0.25,0 a0.125,0.125 0 1,1 -0.25,0z" transform="matrix(1,0,0,-1,6.387138,2.1713404)" fill="rgb(255,255,255)" stroke="rgb(0,0,0)" stroke-width="0.0010cm" stroke-linecap="round" stroke-linejoin="round" /><path d="M3.7910407,1.8566438 L3.8167427,1.8566438 3.8167427,1.8566438 3.8038917,1.8550824 3.8038917,1.8550824 3.7910407,1.8566438z" transform="matrix(1,0,0,-1,6.387138,2.1713404)" fill="rgb(255,255,255)" stroke="rgb(0,0,0)" stroke-width="0.0010cm" stroke-linecap="round" stroke-linejoin="round" /><path d="M3.3372288,1.6699771 a0.125,0.125 0 1,1 0.25,0 a0.125,0.125 0 1,1 -0.25,0z" transform="matrix(1,0,0,-1,6.387138,2.1713404)" fill="rgb(255,255,255)" stroke="rgb(0,0,0)" stroke-width="0.0010cm" stroke-linecap="round" stroke-linejoin="round" /><path d="M1.2097949,1.6699771 a0.125,0.125 0 1,1 0.25,0 a0.125,0.125 0 1,1 -0.25,0z" transform="matrix(1,0,0,-1,6.387138,2.1713404)" fill="rgb(255,255,255)" stroke="rgb(0,0,0)" stroke-width="0.0010cm" stroke-linecap="round" stroke-linejoin="round" /><path d="M0.2205545,1.6699771 a0.125,0.125 0 1,1 0.25,0 a0.125,0.125 0 1,1 -0.25,0z" transform="matrix(1,0,0,-1,6.387138,2.1713404)" fill="rgb(255,255,255)" stroke="rgb(0,0,0)" stroke-width="0.0010cm" stroke-linecap="round" stroke-linejoin="round" /><path d="M-0.0089593,1.8566438 L0.0167427,1.8566438 0.0167427,1.8566438 0.0038917,1.8550824 0.0038917,1.8550824 -0.0089593,1.8566438z" transform="matrix(1,0,0,-1,6.387138,2.1713404)" fill="rgb(255,255,255)" stroke="rgb(0,0,0)" stroke-width="0.0010cm" stroke-linecap="round" stroke-linejoin="round" /><path d="M-0.4627712,1.6699771 a0.125,0.125 0 1,1 0.25,0 a0.125,0.125 0 1,1 -0.25,0z" transform="matrix(1,0,0,-1,6.387138,2.1713404)" fill="rgb(255,255,255)" stroke="rgb(0,0,0)" stroke-width="0.0010cm" stroke-linecap="round" stroke-linejoin="round" /><path d="M-3.5794455,1.6699771 a0.125,0.125 0 1,1 0.25,0 a0.125,0.125 0 1,1 -0.25,0z" transform="matrix(1,0,0,-1,6.387138,2.1713404)" fill="rgb(255,255,255)" stroke="rgb(0,0,0)" stroke-width="0.0010cm" stroke-linecap="round" stroke-linejoin="round" /><path d="M-3.7832573,1.8566438 L-3.7832573,1.8566438 -3.7961083,1.8550824 -3.7961083,1.8550824 -3.8089593,1.8566438 -3.7832573,1.8566438z" transform="matrix(1,0,0,-1,6.387138,2.1713404)" fill="rgb(255,255,255)" stroke="rgb(0,0,0)" stroke-width="0.0010cm" stroke-linecap="round" stroke-linejoin="round" /><path d="M-2.6239551,1.6699771 a0.15875,0.15875 0 1,1 0.3175,0 a0.15875,0.15875 0 1,1 -0.3175,0z" transform="matrix(1,0,0,-1,6.387138,2.1713404)" fill="rgb(255,255,255)" stroke="rgb(0,0,0)" stroke-width="0.0010cm" stroke-linecap="round" stroke-linejoin="round" /><path d="M4.9760449,1.6699771 a0.15875,0.15875 0 1,1 0.3175,0 a0.15875,0.15875 0 1,1 -0.3175,0z" transform="matrix(1,0,0,-1,6.387138,2.1713404)" fill="rgb(255,255,255)" stroke="rgb(0,0,0)" stroke-width="0.0010cm" stroke-linecap="round" stroke-linejoin="round" /><path d="M-3.463166,-0.1933563 a0.14,0.14 0 1,1 0.28,0 a0.14,0.14 0 1,1 -0.28,0z" transform="matrix(1,0,0,-1,6.387138,2.1713404)" fill="rgb(255,255,255)" stroke="rgb(0,0,0)" stroke-width="0.0010cm" stroke-linecap="round" stroke-linejoin="round" /><path d="M-2.6239551,-1.8800229 a0.15875,0.15875 0 1,1 0.3175,0 a0.15875,0.15875 0 1,1 -0.3175,0z" transform="matrix(1,0,0,-1,6.387138,2.1713404)" fill="rgb(255,255,255)" stroke="rgb(0,0,0)" stroke-width="0.0010cm" stroke-linecap="round" stroke-linejoin="round" /><path d="M-4.1584023,-2.0374266 A0.15875,0.15875 262.5327471 0,0 -4.1377712,-1.7212729 A0.15875,0.15875 90 1,0 -4.1584023,-2.0374266z" transform="matrix(1,0,0,-1,6.387138,2.1713404)" fill="rgb(255,255,255)" stroke="rgb(0,0,0)" stroke-width="0.0010cm" stroke-linecap="round" stroke-linejoin="round" /><path d="M4.3296532,-0.3230102 L4.3296532,-0.3713736 3.6296532,-0.3713736 3.6296532,-0.0713736 4.20813,-0.0713736 A0.14,0.14 119.3894073 1,0 4.3296532,-0.3230102z" transform="matrix(1,0,0,-1,6.387138,2.1713404)" fill="rgb(255,255,255)" stroke="rgb(0,0,0)" stroke-width="0.0010cm" stroke-linecap="round" stroke-linejoin="round" /><path d="M3.2409494,-0.1933563 a0.14,0.14 0 1,1 0.28,0 a0.14,0.14 0 1,1 -0.28,0z" transform="matrix(1,0,0,-1,6.387138,2.1713404)" fill="rgb(255,255,255)" stroke="rgb(0,0,0)" stroke-width="0.0010cm" stroke-linecap="round" stroke-linejoin="round" /><path d="M-4.3590506,-0.1933563 a0.14,0.14 0 1,1 0.28,0 a0.14,0.14 0 1,1 -0.28,0z" transform="matrix(1,0,0,-1,6.387138,2.1713404)" fill="rgb(255,255,255)" stroke="rgb(0,0,0)" stroke-width="0.0010cm" stroke-linecap="round" stroke-linejoin="round" /><path d="M-0.5590506,-0.1933563 a0.14,0.14 0 1,1 0.28,0 a0.14,0.14 0 1,1 -0.28,0z" transform="matrix(1,0,0,-1,6.387138,2.1713404)" fill="rgb(255,255,255)" stroke="rgb(0,0,0)" stroke-width="0.0010cm" stroke-linecap="round" stroke-linejoin="round" /><path d="M0.336834,-0.1933563 a0.14,0.14 0 1,1 0.28,0 a0.14,0.14 0 1,1 -0.28,0z" transform="matrix(1,0,0,-1,6.387138,2.1713404)" fill="rgb(255,255,255)" stroke="rgb(0,0,0)" stroke-width="0.0010cm" stroke-linecap="round" stroke-linejoin="round" /><path d="M-5.2857616,-1.8800229 a0.15875,0.15875 0 1,1 0.3175,0 a0.15875,0.15875 0 1,1 -0.3175,0z" transform="matrix(1,0,0,-1,6.387138,2.1713404)" fill="rgb(255,255,255)" stroke="rgb(0,0,0)" stroke-width="0.0010cm" stroke-linecap="round" stroke-linejoin="round" /><path d="M2.3142384,1.6699771 a0.15875,0.15875 0 1,1 0.3175,0 a0.15875,0.15875 0 1,1 -0.3175,0z" transform="matrix(1,0,0,-1,6.387138,2.1713404)" fill="rgb(255,255,255)" stroke="rgb(0,0,0)" stroke-width="0.0010cm" stroke-linecap="round" stroke-linejoin="round" /><path d="M-1.4857616,1.6699771 a0.15875,0.15875 0 1,1 0.3175,0 a0.15875,0.15875 0 1,1 -0.3175,0z" transform="matrix(1,0,0,-1,6.387138,2.1713404)" fill="rgb(255,255,255)" stroke="rgb(0,0,0)" stroke-width="0.0010cm" stroke-linecap="round" stroke-linejoin="round" /><path d="M-5.2857616,1.6699771 a0.15875,0.15875 0 1,1 0.3175,0 a0.15875,0.15875 0 1,1 -0.3175,0z" transform="matrix(1,0,0,-1,6.387138,2.1713404)" fill="rgb(255,255,255)" stroke="rgb(0,0,0)" stroke-width="0.0010cm" stroke-linecap="round" stroke-linejoin="round" /><path d="M-4.2627712,1.6699771 a0.125,0.125 0 1,1 0.25,0 a0.125,0.125 0 1,1 -0.25,0z" transform="matrix(1,0,0,-1,6.387138,2.1713404)" fill="rgb(255,255,255)" stroke="rgb(0,0,0)" stroke-width="0.0010cm" stroke-linecap="round" stroke-linejoin="round" /><path d="M4.3584684,-2.0779343 L4.3584684,-1.7951563 A0.15,0.15 0 0,1 4.2084684,-1.6451563 L4.1125116,-1.6451563 4.1125116,-0.5408563 4.2023941,-0.5408563 A0.3,0.3 270 0,1 4.5023941,-0.2408563 L4.5023941,-0.1808563 A0.3,0.3 0 0,1 4.2023941,0.1191437 L4.0489866,0.1191437 4.0489866,1.4207427 A0.205,0.205 257.0687008 0,1 4.094862,1.4155437 L4.107579,1.4155437 4.107579,1.4155437 4.1175396,1.4170345 A0.3,0.3 275.7144411 0,1 4.3463232,1.5635645 L4.3463232,1.8566438 4.8311232,1.8566438 4.8311232,1.55627 A0.3,0.3 211.223622 0,1 5.290321,1.4905782 A0.2,0.2 300 0,1 5.387138,1.6282438 L5.387138,-1.7628871 A0.2,0.2 10.235676 0,1 5.0386778,-1.6680259 A0.79,0.79 139.3071733 0,1 4.8547007,-2.0779343 L4.3584684,-2.0779343z" transform="matrix(1,0,0,-1,6.387138,2.1713404)" fill="rgb(255,255,255)" stroke="rgb(0,0,0)" stroke-width="0.0010cm" stroke-linecap="round" stroke-linejoin="round" /><path d="M3.3034788,-1.8800229 a0.15875,0.15875 0 1,1 0.3175,0 a0.15875,0.15875 0 1,1 -0.3175,0z" transform="matrix(1,0,0,-1,6.387138,2.1713404)" fill="rgb(255,255,255)" stroke="rgb(0,0,0)" stroke-width="0.0010cm" stroke-linecap="round" stroke-linejoin="round" /><path d="M1.1760449,-1.8800229 a0.15875,0.15875 0 1,1 0.3175,0 a0.15875,0.15875 0 1,1 -0.3175,0z" transform="matrix(1,0,0,-1,6.387138,2.1713404)" fill="rgb(255,255,255)" stroke="rgb(0,0,0)" stroke-width="0.0010cm" stroke-linecap="round" stroke-linejoin="round" /><path d="M-4.350685,-2.0779343 L-4.8469174,-2.0779343 A0.79,0.79 7.6506177 0,1 -4.9255635,-1.8252942 A0.79,0.79 26.9318015 0,1 -4.9845281,-1.7274614 A0.79,0.79 35.2235833 0,1 -5.0308944,-1.6680259 A0.2,0.2 40.6928267 0,1 -5.3825376,-1.7984266 L-5.387138,-1.7984266 -5.387138,1.8566438 -5.3825376,1.8566438 -5.3825376,1.6637833 A0.2,0.2 180 0,1 -5.2825376,1.4905782 A0.3,0.3 227.5063421 0,1 -4.8233399,1.55627 L-4.8233399,1.8566438 -4.3385399,1.8566438 -4.3385399,1.7452054 -4.3385399,1.5947488 -4.3385399,1.5635645 A0.3,0.3 210.4374488 0,1 -4.1097562,1.4170345 L-4.1097562,1.4170345 -4.0997956,1.4155437 -4.0870786,1.4155437 A0.205,0.205 270 0,1 -4.0510134,1.4187411 L-4.0510134,0.1191437 -4.1446108,0.1191437 A0.3,0.3 90 0,1 -4.4446108,-0.1808563 L-4.4446108,-0.2408563 A0.3,0.3 180 0,1 -4.1446108,-0.5408563 L-3.9874884,-0.5408563 -3.9874884,-1.6451563 -4.200685,-1.6451563 A0.15,0.15 90 0,1 -4.350685,-1.7951563 L-4.350685,-2.0779343z" transform="matrix(1,0,0,-1,6.387138,2.1713404)" fill="rgb(255,255,255)" stroke="rgb(0,0,0)" stroke-width="0.0010cm" stroke-linecap="round" stroke-linejoin="round" /><path d="M-3.5298672,-1.7408563 A0.16715,0.16715 116.8221142 0,0 -3.4874884,-1.7261715 L-3.4874884,-1.7247499 A0.15875,0.15875 102.0136509 0,0 -3.3660726,-1.7481449 A0.16715,0.16715 58.0820899 1,0 -3.5428183,-1.7481449 A0.15875,0.15875 123.8264514 0,0 -3.5308275,-1.7408563 L-3.5298672,-1.7408563z" transform="matrix(1,0,0,-1,6.387138,2.1713404)" fill="rgb(255,255,255)" stroke="rgb(0,0,0)" stroke-width="0.0010cm" stroke-linecap="round" stroke-linejoin="round" /><path d="M1.0547007,-2.0779343 L0.5584684,-2.0779343 0.5584684,-1.7951563 A0.15,0.15 0 0,1 0.4084684,-1.6451563 L0.3125116,-1.6451563 0.3125116,-0.5408563 0.4023941,-0.5408563 A0.3,0.3 270 0,1 0.7023941,-0.2408563 L0.7023941,-0.1808563 A0.3,0.3 0 0,1 0.4023941,0.1191437 L0.2489866,0.1191437 0.2489866,1.4207427 A0.205,0.205 257.0687008 0,1 0.294862,1.4155437 L0.307579,1.4155437 0.307579,1.4155437 0.3175396,1.4170345 A0.3,0.3 275.7144411 0,1 0.5463232,1.5635645 L0.5463232,1.8566438 1.0311232,1.8566438 1.0311232,1.55627 A0.3,0.3 211.223622 0,1 1.490321,1.4905782 A0.2,0.2 300 0,1 1.590321,1.6637833 L2.2174624,1.6637833 A0.2,0.2 180 0,1 2.3174624,1.4905782 A0.3,0.3 227.5063421 0,1 2.7766601,1.55627 L2.7766601,1.8566438 3.2614601,1.8566438 3.2614601,1.7452054 3.2614601,1.5947488 3.2614601,1.5635645 A0.3,0.3 210.4374488 0,1 3.4902438,1.4170345 L3.4902438,1.4170345 3.5002044,1.4155437 3.5129214,1.4155437 A0.205,0.205 270 0,1 3.5489866,1.4187411 L3.5489866,0.1191437 3.4553892,0.1191437 A0.3,0.3 90 0,1 3.1553892,-0.1808563 L3.1553892,-0.2408563 A0.3,0.3 180 0,1 3.4553892,-0.5408563 L3.6125116,-0.5408563 3.6125116,-1.6451563 3.399315,-1.6451563 A0.15,0.15 90 0,1 3.249315,-1.7951563 L3.249315,-2.0779343 2.7530826,-2.0779343 A0.79,0.79 7.6506177 0,1 2.5691056,-1.6680259 A0.2,0.2 40.6928267 0,1 2.2174624,-1.7984266 L1.590321,-1.7984266 A0.2,0.2 0 0,1 1.2386778,-1.6680259 A0.79,0.79 139.3071733 0,1 1.0547007,-2.0779343z" transform="matrix(1,0,0,-1,6.387138,2.1713404)" fill="rgb(255,255,255)" stroke="rgb(0,0,0)" stroke-width="0.0010cm" stroke-linecap="round" stroke-linejoin="round" /><path d="M0.2137699,-1.7915109 A0.15875,0.15875 146.1130441 0,0 0.2691725,-1.7408563 L0.3125116,-1.7408563 0.3125116,-1.7247499 A0.15875,0.15875 102.0136509 0,0 0.5006057,-1.914092 A0.80385,0.80385 55.672594 0,1 0.4801418,-1.9005712 A0.135,0.135 355.518605 0,1 0.4625075,-1.8225915 A0.125,0.125 20.6708449 1,0 0.241247,-1.7978327 A0.80385,0.80385 76.0381644 0,1 0.2137699,-1.7915109z" transform="matrix(1,0,0,-1,6.387138,2.1713404)" fill="rgb(255,255,255)" stroke="rgb(0,0,0)" stroke-width="0.0010cm" stroke-linecap="round" stroke-linejoin="round" /><path d="M-0.5821265,-2.0779343 L-1.0469174,-2.0779343 A0.79,0.79 7.6506177 0,1 -1.2308944,-1.6680259 A0.2,0.2 40.6928267 0,1 -1.5825376,-1.7984266 L-2.209679,-1.7984266 A0.2,0.2 0 0,1 -2.5613222,-1.6680259 A0.79,0.79 139.3071733 0,1 -2.6076886,-1.7274614 A0.79,0.79 144.7764167 0,1 -2.6666532,-1.8252942 A0.79,0.79 153.0681985 0,1 -2.7452993,-2.0779343 L-3.2415316,-2.0779343 -3.2415316,-1.7951563 A0.15,0.15 0 0,1 -3.3915316,-1.6451563 L-3.4874884,-1.6451563 -3.4874884,-0.5408563 -3.3976059,-0.5408563 A0.3,0.3 270 0,1 -3.0976059,-0.2408563 L-3.0976059,-0.1808563 A0.3,0.3 0 0,1 -3.3976059,0.1191437 L-3.5510134,0.1191437 -3.5510134,1.4207427 A0.205,0.205 257.0687008 0,1 -3.505138,1.4155437 L-3.492421,1.4155437 -3.492421,1.4155437 -3.4824604,1.4170345 A0.3,0.3 275.7144411 0,1 -3.2536768,1.5635645 L-3.2536768,1.5947488 A0.2144,0.2144 339.4589501 0,0 -3.5740461,1.4920359 L-3.5740461,1.4973164 -3.5740461,1.4973164 -3.5923192,1.5057876 A0.2144,0.2144 229.9790246 0,0 -3.619641,1.8066438 L-3.6018334,1.8066438 A0.201,0.201 137.1615352 1,1 -3.3799032,1.8566438 L-3.3489803,1.8566438 A0.2144,0.2144 60.5338924 0,0 -3.2536768,1.7452054 L-3.2536768,1.8566438 -2.7688768,1.8566438 -2.7688768,1.55627 A0.3,0.3 211.223622 0,1 -2.309679,1.4905782 A0.2,0.2 300 0,1 -2.209679,1.6637833 L-1.5825376,1.6637833 A0.2,0.2 180 0,1 -1.4825376,1.4905782 A0.3,0.3 227.5063421 0,1 -1.0233399,1.55627 L-1.0233399,1.8566438 -0.5385399,1.8566438 -0.5385399,1.7452054 -0.5385399,1.5947488 -0.5385399,1.5635645 A0.3,0.3 210.4374488 0,1 -0.3097562,1.4170345 L-0.3097562,1.4170345 -0.2997956,1.4155437 -0.2870786,1.4155437 A0.205,0.205 270 0,1 -0.2510134,1.4187411 L-0.2510134,0.1191437 -0.3446108,0.1191437 A0.3,0.3 90 0,1 -0.6446108,-0.1808563 L-0.6446108,-0.2408563 A0.3,0.3 180 0,1 -0.3446108,-0.5408563 L-0.1874884,-0.5408563 -0.1874884,-1.6451563 -0.400685,-1.6451563 A0.15,0.15 90 0,1 -0.550685,-1.7951563 L-0.550685,-2.0779343 -0.5821265,-2.0779343z" transform="matrix(1,0,0,-1,6.387138,2.1713404)" fill="rgb(255,255,255)" stroke="rgb(0,0,0)" stroke-width="0.0010cm" stroke-linecap="round" stroke-linejoin="round" /><path d="M-0.2823389,-1.7669284 A0.125,0.125 56.6744155 1,0 -0.4722579,-1.9017835 A0.135,0.135 184.9976712 0,1 -0.4575152,-1.9523636 A0.80385,0.80385 128.9022747 0,1 -0.472184,-1.9644903 A0.15875,0.15875 212.1459756 0,0 -0.3377712,-1.7212729 A0.15875,0.15875 90 0,0 -0.19464,-1.8113569 A0.80385,0.80385 107.5160942 0,1 -0.2220232,-1.8205434 A0.135,0.135 30.974959 0,1 -0.2823389,-1.7669284z" transform="matrix(1,0,0,-1,6.387138,2.1713404)" fill="rgb(255,255,255)" stroke="rgb(0,0,0)" stroke-width="0.0010cm" stroke-linecap="round" stroke-linejoin="round" /></svg>