<?xml version="1.0" standalone="no"?>
 <!DOCTYPE svg PUBLIC "-//W3C//DTD SVG 1.1//EN" 
 "http://www.w3.org/Graphics/SVG/1.1/DTD/svg11.dtd"> 
<svg
  xmlns:svg="http://www.w3.org/2000/svg"
  xmlns="http://www.w3.org/2000/svg"
  xmlns:xlink="http://www.w3.org/1999/xlink"
  version="1.1"
  width="139.9794mm" height="64.9986mm" viewBox="0.0000 0.0000 139.9794 64.9986">
<title>SVG Image created as UpperPOGO-Edge_Cuts.svg date 2024/09/11 12:46:26 </title>
  <desc>Image generated by PCBNEW </desc>
<g style="fill:#000000; fill-opacity:1.0000;stroke:#000000; stroke-opacity:1.0000;
stroke-linecap:round; stroke-linejoin:round;"
 transform="translate(0 0) scale(1 1)">
</g>
<g style="fill:none; 
stroke:#D0D2CD; stroke-width:0.0500; stroke-opacity:1; 
stroke-linecap:round; stroke-linejoin:round;">
<path d="M74.7500 25.0000
L73.2500 25.0000
" />
<path d="M77.2500 58.0000 A2.5000 2.5000 0.0 0 0 74.7500 55.5000" />
<path d="M44.5000 58.0000
L44.5000 59.0000
" />
<path d="M120.0000 59.0000
L120.0000 58.0000
" />
<path d="M120.0000 21.0000
L115.0000 21.0000
" />
<path d="M29.5000 55.5000
L31.0000 55.5000
" />
<path d="M55.7500 25.0000
L55.7500 55.5000
" />
<path d="M102.5000 21.0000
L102.5000 22.5000
" />
<path d="M122.5000 25.0000
L124.0000 25.0000
" />
<path d="M47.0000 55.5000
L48.5000 55.5000
" />
<path d="M67.2500 39.0000 A2.5000 2.5000 0.0 0 0 67.2500 44.0000" />
<path d="M37.0000 25.0000 A2.5000 2.5000 0.0 0 0 39.5000 22.5000" />
<path d="M93.5000 25.0000
L93.5000 55.5000
" />
<path d="M95.0000 55.5000
L93.5000 55.5000
" />
<path d="M106.5000 44.0000
L106.5000 55.5000
" />
<path d="M115.0000 58.0000 A2.5000 2.5000 0.0 0 0 112.5000 55.5000" />
<path d="M82.2500 21.0000
L77.2500 21.0000
" />
<path d="M27.0000 22.5000
L27.0000 21.0000
" />
<path d="M22.0000 59.0000
L22.0000 58.0000
" />
<path d="M29.5000 55.5000 A2.5000 2.5000 0.0 0 0 27.0000 58.0000" />
<path d="M31.0000 25.0000
L31.0000 39.0000
" />
<path d="M97.5000 58.0000
L97.5000 59.0000
" />
<path d="M37.0000 44.0000
L35.5000 44.0000
" />
<path d="M74.7500 39.0000
L73.2500 39.0000
" />
<path d="M73.2500 44.0000
L73.2500 55.5000
" />
<path d="M112.5000 44.0000
L111.0000 44.0000
" />
<path d="M57.2500 25.0000 A2.5000 2.5000 0.0 0 0 59.7500 22.5000" />
<path d="M57.2500 25.0000
L55.7500 25.0000
" />
<path d="M39.5000 58.0000 A2.5000 2.5000 0.0 0 0 37.0000 55.5000" />
<path d="M95.9750 12.7000
L98.9750 15.7000
" />
<path d="M48.5000 25.0000
L48.5000 55.5000
" />
<path d="M74.7500 44.0000 A2.5000 2.5000 0.0 0 0 74.7500 39.0000" />
<path d="M102.5000 58.0000
L102.5000 59.0000
" />
<circle cx="29.5000" cy="41.5000" r="1.5000" /> 
<path d="M19.5000 25.0000
L18.0000 25.0000
" />
<path d="M105.0000 25.0000
L106.5000 25.0000
" />
<path d="M95.0000 25.0000
L93.5000 25.0000
" />
<path d="M27.0000 58.0000
L27.0000 59.0000
" />
<path d="M35.5000 44.0000
L35.5000 55.5000
" />
<path d="M37.0000 44.0000 A2.5000 2.5000 0.0 0 0 37.0000 39.0000" />
<path d="M124.0000 25.0000
L124.0000 55.5000
" />
<path d="M106.5000 25.0000
L106.5000 39.0000
" />
<path d="M37.0000 55.5000
L35.5000 55.5000
" />
<path d="M59.7500 21.0000
L64.7500 21.0000
" />
<path d="M22.0000 58.0000 A2.5000 2.5000 0.0 0 0 19.5000 55.5000" />
<path d="M82.2500 59.0000
L77.2500 59.0000
" />
<path d="M97.5000 58.0000 A2.5000 2.5000 0.0 0 0 95.0000 55.5000" />
<path d="M112.5000 44.0000 A2.5000 2.5000 0.0 0 0 112.5000 39.0000" />
<path d="M45.9750 1.7000
L95.9750 1.7000
" />
<path d="M73.2500 25.0000
L73.2500 39.0000
" />
<path d="M122.5000 55.5000
L124.0000 55.5000
" />
<path d="M22.0000 59.0000
L27.0000 59.0000
" />
<path d="M111.0000 25.0000
L111.0000 39.0000
" />
<path d="M64.7500 58.0000
L64.7500 59.0000
" />
<path d="M44.5000 21.0000
L39.5000 21.0000
" />
<path d="M18.0000 25.0000
L18.0000 55.5000
" />
<path d="M105.0000 55.5000 A2.5000 2.5000 0.0 0 0 102.5000 58.0000" />
<path d="M19.5000 25.0000 A2.5000 2.5000 0.0 0 0 22.0000 22.5000" />
<path d="M74.7500 25.0000 A2.5000 2.5000 0.0 0 0 77.2500 22.5000" />
<path d="M47.0000 25.0000
L48.5000 25.0000
" />
<path d="M74.7500 55.5000
L73.2500 55.5000
" />
<path d="M68.7500 44.0000
L68.7500 55.5000
" />
<path d="M74.7500 44.0000
L73.2500 44.0000
" />
<path d="M64.7500 22.5000 A2.5000 2.5000 0.0 0 0 67.2500 25.0000" />
<path d="M29.5000 25.0000
L31.0000 25.0000
" />
<path d="M67.2500 55.5000
L68.7500 55.5000
" />
<path d="M82.2500 22.5000 A2.5000 2.5000 0.0 0 0 84.7500 25.0000" />
<path d="M57.2500 55.5000
L55.7500 55.5000
" />
<path d="M105.0000 39.0000 A2.5000 2.5000 0.0 0 0 105.0000 44.0000" />
<path d="M120.0000 22.5000
L120.0000 21.0000
" />
<path d="M44.5000 21.0000
L44.5000 22.5000
" />
<circle cx="74.7500" cy="41.5000" r="1.5000" /> 
<circle cx="112.5000" cy="41.5000" r="1.5000" /> 
<path d="M68.7500 25.0000
L68.7500 39.0000
" />
<path d="M105.0000 55.5000
L106.5000 55.5000
" />
<path d="M77.2500 22.5000
L77.2500 21.0000
" />
<path d="M112.5000 39.0000
L111.0000 39.0000
" />
<path d="M84.7500 55.5000 A2.5000 2.5000 0.0 0 0 82.2500 58.0000" />
<path d="M112.5000 55.5000
L111.0000 55.5000
" />
<path d="M97.5000 21.0000
L102.5000 21.0000
" />
<path d="M120.0000 59.0000
L115.0000 59.0000
" />
<path d="M82.2500 58.0000
L82.2500 59.0000
" />
<path d="M67.2500 25.0000
L68.7500 25.0000
" />
<path d="M111.0000 44.0000
L111.0000 55.5000
" />
<circle cx="105.0000" cy="41.5000" r="1.5000" /> 
<path d="M82.2500 21.0000
L82.2500 22.5000
" />
<path d="M7.0000 15.7500
L43.0000 15.7500
" />
<path d="M27.0000 22.5000 A2.5000 2.5000 0.0 0 0 29.5000 25.0000" />
<path d="M37.0000 39.0000
L35.5000 39.0000
" />
<path d="M77.2500 58.0000
L77.2500 59.0000
" />
<path d="M7.0000 61.0000
L7.0000 15.7500
" />
<path d="M97.5000 59.0000
L102.5000 59.0000
" />
<path d="M67.2500 39.0000
L68.7500 39.0000
" />
<path d="M120.0000 22.5000 A2.5000 2.5000 0.0 0 0 122.5000 25.0000" />
<path d="M95.0000 25.0000 A2.5000 2.5000 0.0 0 0 97.5000 22.5000" />
<path d="M47.0000 55.5000 A2.5000 2.5000 0.0 0 0 44.5000 58.0000" />
<path d="M64.7500 21.0000
L64.7500 22.5000
" />
<path d="M98.9750 15.7000
L134.9750 15.7000
" />
<path d="M22.0000 21.0000
L27.0000 21.0000
" />
<path d="M44.5000 22.5000 A2.5000 2.5000 0.0 0 0 47.0000 25.0000" />
<path d="M95.9750 1.7000
L95.9750 12.7000
" />
<path d="M112.5000 25.0000 A2.5000 2.5000 0.0 0 0 115.0000 22.5000" />
<path d="M19.5000 55.5000
L18.0000 55.5000
" />
<path d="M84.7500 55.5000
L86.2500 55.5000
" />
<path d="M59.7500 58.0000
L59.7500 59.0000
" />
<path d="M102.5000 22.5000 A2.5000 2.5000 0.0 0 0 105.0000 25.0000" />
<path d="M29.5000 39.0000
L31.0000 39.0000
" />
<path d="M115.0000 58.0000
L115.0000 59.0000
" />
<path d="M135.0000 61.0000
L134.9750 15.7000
" />
<path d="M59.7500 21.0000
L59.7500 22.5000
" />
<path d="M97.5000 21.0000
L97.5000 22.5000
" />
<path d="M86.2500 25.0000
L86.2500 55.5000
" />
<path d="M135.0000 61.0000
L7.0000 61.0000
" />
<path d="M59.7500 58.0000 A2.5000 2.5000 0.0 0 0 57.2500 55.5000" />
<path d="M112.5000 25.0000
L111.0000 25.0000
" />
<path d="M115.0000 21.0000
L115.0000 22.5000
" />
<path d="M29.5000 44.0000
L31.0000 44.0000
" />
<path d="M67.2500 44.0000
L68.7500 44.0000
" />
<path d="M59.7500 59.0000
L64.7500 59.0000
" />
<path d="M37.0000 25.0000
L35.5000 25.0000
" />
<path d="M22.0000 22.5000
L22.0000 21.0000
" />
<path d="M44.5000 59.0000
L39.5000 59.0000
" />
<path d="M39.5000 22.5000
L39.5000 21.0000
" />
<circle cx="67.2500" cy="41.5000" r="1.5000" /> 
<path d="M43.0000 15.7500
L45.9750 12.7000
" />
<path d="M29.5000 39.0000 A2.5000 2.5000 0.0 0 0 29.5000 44.0000" />
<path d="M105.0000 39.0000
L106.5000 39.0000
" />
<circle cx="37.0000" cy="41.5000" r="1.5000" /> 
<path d="M45.9750 12.7000
L45.9750 1.7000
" />
<path d="M31.0000 44.0000
L31.0000 55.5000
" />
<path d="M105.0000 44.0000
L106.5000 44.0000
" />
<path d="M67.2500 55.5000 A2.5000 2.5000 0.0 0 0 64.7500 58.0000" />
<path d="M35.5000 25.0000
L35.5000 39.0000
" />
<path d="M84.7500 25.0000
L86.2500 25.0000
" />
<path d="M39.5000 58.0000
L39.5000 59.0000
" />
<path d="M122.5000 55.5000 A2.5000 2.5000 0.0 0 0 120.0000 58.0000" />
</g>
<g style="fill:none; 
stroke:#D0D2CD; stroke-width:0.0500; stroke-opacity:1; 
stroke-linecap:round; stroke-linejoin:round;">
<path d="M74.7500 25.0000
L73.2500 25.0000
" />
<path d="M77.2500 58.0000 A2.5000 2.5000 0.0 0 0 74.7500 55.5000" />
<path d="M44.5000 58.0000
L44.5000 59.0000
" />
<path d="M120.0000 59.0000
L120.0000 58.0000
" />
<path d="M120.0000 21.0000
L115.0000 21.0000
" />
<path d="M29.5000 55.5000
L31.0000 55.5000
" />
<path d="M55.7500 25.0000
L55.7500 55.5000
" />
<path d="M102.5000 21.0000
L102.5000 22.5000
" />
<path d="M122.5000 25.0000
L124.0000 25.0000
" />
<path d="M47.0000 55.5000
L48.5000 55.5000
" />
<path d="M67.2500 39.0000 A2.5000 2.5000 0.0 0 0 67.2500 44.0000" />
<path d="M37.0000 25.0000 A2.5000 2.5000 0.0 0 0 39.5000 22.5000" />
<path d="M93.5000 25.0000
L93.5000 55.5000
" />
<path d="M95.0000 55.5000
L93.5000 55.5000
" />
<path d="M106.5000 44.0000
L106.5000 55.5000
" />
<path d="M115.0000 58.0000 A2.5000 2.5000 0.0 0 0 112.5000 55.5000" />
<path d="M82.2500 21.0000
L77.2500 21.0000
" />
<path d="M27.0000 22.5000
L27.0000 21.0000
" />
<path d="M22.0000 59.0000
L22.0000 58.0000
" />
<path d="M29.5000 55.5000 A2.5000 2.5000 0.0 0 0 27.0000 58.0000" />
<path d="M31.0000 25.0000
L31.0000 39.0000
" />
<path d="M97.5000 58.0000
L97.5000 59.0000
" />
<path d="M37.0000 44.0000
L35.5000 44.0000
" />
<path d="M74.7500 39.0000
L73.2500 39.0000
" />
<path d="M73.2500 44.0000
L73.2500 55.5000
" />
<path d="M112.5000 44.0000
L111.0000 44.0000
" />
<path d="M57.2500 25.0000 A2.5000 2.5000 0.0 0 0 59.7500 22.5000" />
<path d="M57.2500 25.0000
L55.7500 25.0000
" />
<path d="M39.5000 58.0000 A2.5000 2.5000 0.0 0 0 37.0000 55.5000" />
<path d="M95.9750 12.7000
L98.9750 15.7000
" />
<path d="M48.5000 25.0000
L48.5000 55.5000
" />
<path d="M74.7500 44.0000 A2.5000 2.5000 0.0 0 0 74.7500 39.0000" />
<path d="M102.5000 58.0000
L102.5000 59.0000
" />
<circle cx="29.5000" cy="41.5000" r="1.5000" /> 
<path d="M19.5000 25.0000
L18.0000 25.0000
" />
<path d="M105.0000 25.0000
L106.5000 25.0000
" />
<path d="M95.0000 25.0000
L93.5000 25.0000
" />
<path d="M27.0000 58.0000
L27.0000 59.0000
" />
<path d="M35.5000 44.0000
L35.5000 55.5000
" />
<path d="M37.0000 44.0000 A2.5000 2.5000 0.0 0 0 37.0000 39.0000" />
<path d="M124.0000 25.0000
L124.0000 55.5000
" />
<path d="M106.5000 25.0000
L106.5000 39.0000
" />
<path d="M37.0000 55.5000
L35.5000 55.5000
" />
<path d="M59.7500 21.0000
L64.7500 21.0000
" />
<path d="M22.0000 58.0000 A2.5000 2.5000 0.0 0 0 19.5000 55.5000" />
<path d="M82.2500 59.0000
L77.2500 59.0000
" />
<path d="M97.5000 58.0000 A2.5000 2.5000 0.0 0 0 95.0000 55.5000" />
<path d="M112.5000 44.0000 A2.5000 2.5000 0.0 0 0 112.5000 39.0000" />
<path d="M45.9750 1.7000
L95.9750 1.7000
" />
<path d="M73.2500 25.0000
L73.2500 39.0000
" />
<path d="M122.5000 55.5000
L124.0000 55.5000
" />
<path d="M22.0000 59.0000
L27.0000 59.0000
" />
<path d="M111.0000 25.0000
L111.0000 39.0000
" />
<path d="M64.7500 58.0000
L64.7500 59.0000
" />
<path d="M44.5000 21.0000
L39.5000 21.0000
" />
<path d="M18.0000 25.0000
L18.0000 55.5000
" />
<path d="M105.0000 55.5000 A2.5000 2.5000 0.0 0 0 102.5000 58.0000" />
<path d="M19.5000 25.0000 A2.5000 2.5000 0.0 0 0 22.0000 22.5000" />
<path d="M74.7500 25.0000 A2.5000 2.5000 0.0 0 0 77.2500 22.5000" />
<path d="M47.0000 25.0000
L48.5000 25.0000
" />
<path d="M74.7500 55.5000
L73.2500 55.5000
" />
<path d="M68.7500 44.0000
L68.7500 55.5000
" />
<path d="M74.7500 44.0000
L73.2500 44.0000
" />
<path d="M64.7500 22.5000 A2.5000 2.5000 0.0 0 0 67.2500 25.0000" />
<path d="M29.5000 25.0000
L31.0000 25.0000
" />
<path d="M67.2500 55.5000
L68.7500 55.5000
" />
<path d="M82.2500 22.5000 A2.5000 2.5000 0.0 0 0 84.7500 25.0000" />
<path d="M57.2500 55.5000
L55.7500 55.5000
" />
<path d="M105.0000 39.0000 A2.5000 2.5000 0.0 0 0 105.0000 44.0000" />
<path d="M120.0000 22.5000
L120.0000 21.0000
" />
<path d="M44.5000 21.0000
L44.5000 22.5000
" />
<circle cx="74.7500" cy="41.5000" r="1.5000" /> 
<circle cx="112.5000" cy="41.5000" r="1.5000" /> 
<path d="M68.7500 25.0000
L68.7500 39.0000
" />
<path d="M105.0000 55.5000
L106.5000 55.5000
" />
<path d="M77.2500 22.5000
L77.2500 21.0000
" />
<path d="M112.5000 39.0000
L111.0000 39.0000
" />
<path d="M84.7500 55.5000 A2.5000 2.5000 0.0 0 0 82.2500 58.0000" />
<path d="M112.5000 55.5000
L111.0000 55.5000
" />
<path d="M97.5000 21.0000
L102.5000 21.0000
" />
<path d="M120.0000 59.0000
L115.0000 59.0000
" />
<path d="M82.2500 58.0000
L82.2500 59.0000
" />
<path d="M67.2500 25.0000
L68.7500 25.0000
" />
<path d="M111.0000 44.0000
L111.0000 55.5000
" />
<circle cx="105.0000" cy="41.5000" r="1.5000" /> 
<path d="M82.2500 21.0000
L82.2500 22.5000
" />
<path d="M7.0000 15.7500
L43.0000 15.7500
" />
<path d="M27.0000 22.5000 A2.5000 2.5000 0.0 0 0 29.5000 25.0000" />
<path d="M37.0000 39.0000
L35.5000 39.0000
" />
<path d="M77.2500 58.0000
L77.2500 59.0000
" />
<path d="M7.0000 61.0000
L7.0000 15.7500
" />
<path d="M97.5000 59.0000
L102.5000 59.0000
" />
<path d="M67.2500 39.0000
L68.7500 39.0000
" />
<path d="M120.0000 22.5000 A2.5000 2.5000 0.0 0 0 122.5000 25.0000" />
<path d="M95.0000 25.0000 A2.5000 2.5000 0.0 0 0 97.5000 22.5000" />
<path d="M47.0000 55.5000 A2.5000 2.5000 0.0 0 0 44.5000 58.0000" />
<path d="M64.7500 21.0000
L64.7500 22.5000
" />
<path d="M98.9750 15.7000
L134.9750 15.7000
" />
<path d="M22.0000 21.0000
L27.0000 21.0000
" />
<path d="M44.5000 22.5000 A2.5000 2.5000 0.0 0 0 47.0000 25.0000" />
<path d="M95.9750 1.7000
L95.9750 12.7000
" />
<path d="M112.5000 25.0000 A2.5000 2.5000 0.0 0 0 115.0000 22.5000" />
<path d="M19.5000 55.5000
L18.0000 55.5000
" />
<path d="M84.7500 55.5000
L86.2500 55.5000
" />
<path d="M59.7500 58.0000
L59.7500 59.0000
" />
<path d="M102.5000 22.5000 A2.5000 2.5000 0.0 0 0 105.0000 25.0000" />
<path d="M29.5000 39.0000
L31.0000 39.0000
" />
<path d="M115.0000 58.0000
L115.0000 59.0000
" />
<path d="M135.0000 61.0000
L134.9750 15.7000
" />
<path d="M59.7500 21.0000
L59.7500 22.5000
" />
<path d="M97.5000 21.0000
L97.5000 22.5000
" />
<path d="M86.2500 25.0000
L86.2500 55.5000
" />
<path d="M135.0000 61.0000
L7.0000 61.0000
" />
<path d="M59.7500 58.0000 A2.5000 2.5000 0.0 0 0 57.2500 55.5000" />
<path d="M112.5000 25.0000
L111.0000 25.0000
" />
<path d="M115.0000 21.0000
L115.0000 22.5000
" />
<path d="M29.5000 44.0000
L31.0000 44.0000
" />
<path d="M67.2500 44.0000
L68.7500 44.0000
" />
<path d="M59.7500 59.0000
L64.7500 59.0000
" />
<path d="M37.0000 25.0000
L35.5000 25.0000
" />
<path d="M22.0000 22.5000
L22.0000 21.0000
" />
<path d="M44.5000 59.0000
L39.5000 59.0000
" />
<path d="M39.5000 22.5000
L39.5000 21.0000
" />
<circle cx="67.2500" cy="41.5000" r="1.5000" /> 
<path d="M43.0000 15.7500
L45.9750 12.7000
" />
<path d="M29.5000 39.0000 A2.5000 2.5000 0.0 0 0 29.5000 44.0000" />
<path d="M105.0000 39.0000
L106.5000 39.0000
" />
<circle cx="37.0000" cy="41.5000" r="1.5000" /> 
<path d="M45.9750 12.7000
L45.9750 1.7000
" />
<path d="M31.0000 44.0000
L31.0000 55.5000
" />
<path d="M105.0000 44.0000
L106.5000 44.0000
" />
<path d="M67.2500 55.5000 A2.5000 2.5000 0.0 0 0 64.7500 58.0000" />
<path d="M35.5000 25.0000
L35.5000 39.0000
" />
<path d="M84.7500 25.0000
L86.2500 25.0000
" />
<path d="M39.5000 58.0000
L39.5000 59.0000
" />
<path d="M122.5000 55.5000 A2.5000 2.5000 0.0 0 0 120.0000 58.0000" />
</g> 
</svg>
