%TF.GenerationSoftware,KiCad,Pcbnew,8.0.5*%
%TF.CreationDate,2025-07-31T10:09:27-04:00*%
%TF.ProjectId,UpperPOGO,55707065-7250-44f4-974f-2e6b69636164,v4*%
%TF.SameCoordinates,Original*%
%TF.FileFunction,Soldermask,Top*%
%TF.FilePolarity,Negative*%
%FSLAX46Y46*%
G04 Gerber Fmt 4.6, Leading zero omitted, Abs format (unit mm)*
G04 Created by KiCad (PCBNEW 8.0.5) date 2025-07-31 10:09:27*
%MOMM*%
%LPD*%
G01*
G04 APERTURE LIST*
%ADD10R,1.700000X1.700000*%
%ADD11O,1.700000X1.700000*%
%ADD12C,3.250000*%
%ADD13C,3.600000*%
%ADD14C,5.600000*%
G04 APERTURE END LIST*
D10*
%TO.C,J25*%
X103325000Y-62000000D03*
D11*
X100785000Y-62000000D03*
X98245000Y-62000000D03*
X95705000Y-62000000D03*
%TD*%
D12*
%TO.C,J23*%
X187500000Y-67500000D03*
%TD*%
D10*
%TO.C,J26*%
X121000000Y-62000000D03*
D11*
X118460000Y-62000000D03*
X115920000Y-62000000D03*
X113380000Y-62000000D03*
%TD*%
D12*
%TO.C,J6*%
X122000000Y-67500000D03*
%TD*%
%TO.C,J7*%
X112000000Y-67500000D03*
%TD*%
%TO.C,J3*%
X94500000Y-67500000D03*
%TD*%
%TO.C,J15*%
X149750000Y-67500000D03*
%TD*%
%TO.C,J10*%
X142250000Y-67500000D03*
%TD*%
%TO.C,J12*%
X132250000Y-103000000D03*
%TD*%
%TO.C,J5*%
X122000000Y-103000000D03*
%TD*%
D13*
%TO.C,H1*%
X86500000Y-66000000D03*
D14*
X86500000Y-66000000D03*
%TD*%
D13*
%TO.C,H3*%
X86500000Y-101500000D03*
D14*
X86500000Y-101500000D03*
%TD*%
D12*
%TO.C,J17*%
X180000000Y-103000000D03*
%TD*%
D13*
%TO.C,H4*%
X205500000Y-101500000D03*
D14*
X205500000Y-101500000D03*
%TD*%
D12*
%TO.C,J24*%
X187500000Y-103000000D03*
%TD*%
%TO.C,J20*%
X170000000Y-103000000D03*
%TD*%
D13*
%TO.C,H2*%
X205500000Y-66000000D03*
D14*
X205500000Y-66000000D03*
%TD*%
D12*
%TO.C,J4*%
X94500000Y-103000000D03*
%TD*%
%TO.C,J11*%
X132250000Y-67500000D03*
%TD*%
D10*
%TO.C,J29*%
X179050000Y-62000000D03*
D11*
X176510000Y-62000000D03*
X173970000Y-62000000D03*
X171430000Y-62000000D03*
%TD*%
D12*
%TO.C,J22*%
X197500000Y-67500000D03*
%TD*%
%TO.C,J18*%
X180000000Y-67500000D03*
%TD*%
%TO.C,J1*%
X104500000Y-103000000D03*
%TD*%
%TO.C,J21*%
X197500000Y-103000000D03*
%TD*%
%TO.C,J14*%
X159750000Y-67500000D03*
%TD*%
%TO.C,J13*%
X159750000Y-103000000D03*
%TD*%
%TO.C,J9*%
X142250000Y-103000000D03*
%TD*%
D10*
%TO.C,J27*%
X141125000Y-62000000D03*
D11*
X138585000Y-62000000D03*
X136045000Y-62000000D03*
X133505000Y-62000000D03*
%TD*%
D12*
%TO.C,J16*%
X149750000Y-103000000D03*
%TD*%
%TO.C,J19*%
X170000000Y-67500000D03*
%TD*%
%TO.C,J8*%
X112000000Y-103000000D03*
%TD*%
%TO.C,J2*%
X104500000Y-67500000D03*
%TD*%
D10*
%TO.C,J28*%
X158675000Y-61925000D03*
D11*
X156135000Y-61925000D03*
X153595000Y-61925000D03*
X151055000Y-61925000D03*
%TD*%
D10*
%TO.C,J30*%
X196295000Y-62000000D03*
D11*
X193755000Y-62000000D03*
X191215000Y-62000000D03*
X188675000Y-62000000D03*
%TD*%
M02*
