%TF.GenerationSoftware,KiCad,Pcbnew,8.0.1*%
%TF.CreationDate,2024-05-16T15:44:09-04:00*%
%TF.ProjectId,UpperPOGO,55707065-7250-44f4-974f-2e6b69636164,rev?*%
%TF.SameCoordinates,Original*%
%TF.FileFunction,Soldermask,Bot*%
%TF.FilePolarity,Negative*%
%FSLAX46Y46*%
G04 Gerber Fmt 4.6, Leading zero omitted, Abs format (unit mm)*
G04 Created by KiCad (PCBNEW 8.0.1) date 2024-05-16 15:44:09*
%MOMM*%
%LPD*%
G01*
G04 APERTURE LIST*
%ADD10O,1.700000X1.700000*%
%ADD11R,1.700000X1.700000*%
%ADD12C,3.500000*%
%ADD13C,3.600000*%
%ADD14C,5.600000*%
G04 APERTURE END LIST*
D10*
%TO.C,J25*%
X133500000Y-58250000D03*
X136040000Y-58250000D03*
X138580000Y-58250000D03*
X141120000Y-58250000D03*
X143660000Y-58250000D03*
X146200000Y-58250000D03*
X148740000Y-58250000D03*
X151280000Y-58250000D03*
X153820000Y-58250000D03*
X156360000Y-58250000D03*
X158900000Y-58250000D03*
X161440000Y-58250000D03*
X133500000Y-60790000D03*
X136040000Y-60790000D03*
X138580000Y-60790000D03*
X141120000Y-60790000D03*
X143660000Y-60790000D03*
X146200000Y-60790000D03*
X148740000Y-60790000D03*
X151280000Y-60790000D03*
X153820000Y-60790000D03*
X156360000Y-60790000D03*
X158900000Y-60790000D03*
D11*
X161440000Y-60790000D03*
%TD*%
D12*
%TO.C,J12*%
X189000000Y-67500000D03*
%TD*%
%TO.C,J16*%
X122500000Y-67500000D03*
%TD*%
%TO.C,J4*%
X112500000Y-67500000D03*
%TD*%
%TO.C,J2*%
X96000000Y-67500000D03*
%TD*%
%TO.C,J8*%
X150500000Y-67500000D03*
%TD*%
%TO.C,J17*%
X144000000Y-67500000D03*
%TD*%
%TO.C,J6*%
X134000000Y-103000000D03*
%TD*%
%TO.C,J15*%
X122500000Y-103000000D03*
%TD*%
D13*
%TO.C,H1*%
X86500000Y-66000000D03*
D14*
X86500000Y-66000000D03*
%TD*%
D13*
%TO.C,H3*%
X86500000Y-101500000D03*
D14*
X86500000Y-101500000D03*
%TD*%
D12*
%TO.C,J22*%
X182000000Y-103000000D03*
%TD*%
D13*
%TO.C,H4*%
X205500000Y-101500000D03*
D14*
X205500000Y-101500000D03*
%TD*%
D12*
%TO.C,J11*%
X189000000Y-103000000D03*
%TD*%
%TO.C,J10*%
X172000000Y-103000000D03*
%TD*%
D13*
%TO.C,H2*%
X205500000Y-66000000D03*
D14*
X205500000Y-66000000D03*
%TD*%
D12*
%TO.C,J1*%
X96000000Y-103000000D03*
%TD*%
%TO.C,J5*%
X134000000Y-67500000D03*
%TD*%
%TO.C,J23*%
X199000000Y-67500000D03*
%TD*%
%TO.C,J21*%
X182000000Y-67500000D03*
%TD*%
%TO.C,J14*%
X106000000Y-103000000D03*
%TD*%
%TO.C,J24*%
X199000000Y-103000000D03*
%TD*%
%TO.C,J20*%
X160500000Y-67500000D03*
%TD*%
%TO.C,J19*%
X160500000Y-103000000D03*
%TD*%
%TO.C,J18*%
X144000000Y-103000000D03*
%TD*%
%TO.C,J7*%
X150500000Y-103000000D03*
%TD*%
%TO.C,J9*%
X172000000Y-67500000D03*
%TD*%
%TO.C,J3*%
X112500000Y-103000000D03*
%TD*%
%TO.C,J13*%
X106000000Y-67500000D03*
%TD*%
M02*
