%TF.GenerationSoftware,KiCad,Pcbnew,8.0.2*%
%TF.CreationDate,2024-05-23T18:59:23-04:00*%
%TF.ProjectId,UpperPOGO,55707065-7250-44f4-974f-2e6b69636164,rev?*%
%TF.SameCoordinates,Original*%
%TF.FileFunction,Copper,L1,Top*%
%TF.FilePolarity,Positive*%
%FSLAX46Y46*%
G04 Gerber Fmt 4.6, Leading zero omitted, Abs format (unit mm)*
G04 Created by KiCad (PCBNEW 8.0.2) date 2024-05-23 18:59:23*
%MOMM*%
%LPD*%
G01*
G04 APERTURE LIST*
%TA.AperFunction,ComponentPad*%
%ADD10O,1.700000X1.700000*%
%TD*%
%TA.AperFunction,ComponentPad*%
%ADD11R,1.700000X1.700000*%
%TD*%
%TA.AperFunction,ComponentPad*%
%ADD12C,3.500000*%
%TD*%
%TA.AperFunction,ComponentPad*%
%ADD13C,3.600000*%
%TD*%
%TA.AperFunction,ConnectorPad*%
%ADD14C,5.600000*%
%TD*%
%TA.AperFunction,Conductor*%
%ADD15C,0.400000*%
%TD*%
G04 APERTURE END LIST*
D10*
%TO.P,J25,12,Pin_12*%
%TO.N,Net-(J12-Pin_1)*%
X161440000Y-58250000D03*
%TO.P,J25,24,Pin_24*%
%TO.N,Net-(J24-Pin_1)*%
X161440000Y-60790000D03*
%TO.P,J25,11,Pin_11*%
%TO.N,Net-(J11-Pin_1)*%
X158900000Y-58250000D03*
%TO.P,J25,23,Pin_23*%
%TO.N,Net-(J23-Pin_1)*%
X158900000Y-60790000D03*
%TO.P,J25,10,Pin_10*%
%TO.N,Net-(J10-Pin_1)*%
X156360000Y-58250000D03*
%TO.P,J25,22,Pin_22*%
%TO.N,Net-(J22-Pin_1)*%
X156360000Y-60790000D03*
%TO.P,J25,9,Pin_9*%
%TO.N,Net-(J25-Pin_9)*%
X153820000Y-58250000D03*
%TO.P,J25,21,Pin_21*%
%TO.N,Net-(J21-Pin_1)*%
X153820000Y-60790000D03*
%TO.P,J25,8,Pin_8*%
%TO.N,Net-(J25-Pin_8)*%
X151280000Y-58250000D03*
%TO.P,J25,20,Pin_20*%
%TO.N,Net-(J20-Pin_1)*%
X151280000Y-60790000D03*
%TO.P,J25,7,Pin_7*%
%TO.N,Net-(J25-Pin_7)*%
X148740000Y-58250000D03*
%TO.P,J25,19,Pin_19*%
%TO.N,Net-(J19-Pin_1)*%
X148740000Y-60790000D03*
%TO.P,J25,6,Pin_6*%
%TO.N,Net-(J25-Pin_6)*%
X146200000Y-58250000D03*
%TO.P,J25,18,Pin_18*%
%TO.N,Net-(J18-Pin_1)*%
X146200000Y-60790000D03*
%TO.P,J25,5,Pin_5*%
%TO.N,Net-(J25-Pin_5)*%
X143660000Y-58250000D03*
%TO.P,J25,17,Pin_17*%
%TO.N,Net-(J17-Pin_1)*%
X143660000Y-60790000D03*
%TO.P,J25,4,Pin_4*%
%TO.N,Net-(J25-Pin_4)*%
X141120000Y-58250000D03*
%TO.P,J25,16,Pin_16*%
%TO.N,Net-(J16-Pin_1)*%
X141120000Y-60790000D03*
%TO.P,J25,3,Pin_3*%
%TO.N,Net-(J25-Pin_3)*%
X138580000Y-58250000D03*
%TO.P,J25,15,Pin_15*%
%TO.N,Net-(J15-Pin_1)*%
X138580000Y-60790000D03*
%TO.P,J25,2,Pin_2*%
%TO.N,Net-(J2-Pin_1)*%
X136040000Y-58250000D03*
%TO.P,J25,14,Pin_14*%
%TO.N,Net-(J14-Pin_1)*%
X136040000Y-60790000D03*
%TO.P,J25,1,Pin_1*%
%TO.N,Net-(J1-Pin_1)*%
X133500000Y-58250000D03*
D11*
%TO.P,J25,13,Pin_13*%
%TO.N,Net-(J13-Pin_1)*%
X133500000Y-60790000D03*
%TD*%
D12*
%TO.P,J12,1,Pin_1*%
%TO.N,Net-(J12-Pin_1)*%
X189000000Y-67500000D03*
%TD*%
%TO.P,J16,1,Pin_1*%
%TO.N,Net-(J16-Pin_1)*%
X122500000Y-67500000D03*
%TD*%
%TO.P,J4,1,Pin_1*%
%TO.N,Net-(J25-Pin_4)*%
X112500000Y-67500000D03*
%TD*%
%TO.P,J2,1,Pin_1*%
%TO.N,Net-(J2-Pin_1)*%
X96000000Y-67500000D03*
%TD*%
%TO.P,J8,1,Pin_1*%
%TO.N,Net-(J25-Pin_8)*%
X150500000Y-67500000D03*
%TD*%
%TO.P,J17,1,Pin_1*%
%TO.N,Net-(J17-Pin_1)*%
X144000000Y-67500000D03*
%TD*%
%TO.P,J6,1,Pin_1*%
%TO.N,Net-(J25-Pin_6)*%
X134000000Y-103000000D03*
%TD*%
%TO.P,J15,1,Pin_1*%
%TO.N,Net-(J15-Pin_1)*%
X122500000Y-103000000D03*
%TD*%
D13*
%TO.P,H1,1,1*%
%TO.N,Earth*%
X86500000Y-66000000D03*
D14*
X86500000Y-66000000D03*
%TD*%
D13*
%TO.P,H3,1,1*%
%TO.N,Earth*%
X86500000Y-101500000D03*
D14*
X86500000Y-101500000D03*
%TD*%
D12*
%TO.P,J22,1,Pin_1*%
%TO.N,Net-(J22-Pin_1)*%
X182000000Y-103000000D03*
%TD*%
D13*
%TO.P,H4,1,1*%
%TO.N,Earth*%
X205500000Y-101500000D03*
D14*
X205500000Y-101500000D03*
%TD*%
D12*
%TO.P,J11,1,Pin_1*%
%TO.N,Net-(J11-Pin_1)*%
X189000000Y-103000000D03*
%TD*%
%TO.P,J10,1,Pin_1*%
%TO.N,Net-(J10-Pin_1)*%
X172000000Y-103000000D03*
%TD*%
D13*
%TO.P,H2,1,1*%
%TO.N,Earth*%
X205500000Y-66000000D03*
D14*
X205500000Y-66000000D03*
%TD*%
D12*
%TO.P,J1,1,Pin_1*%
%TO.N,Net-(J1-Pin_1)*%
X96000000Y-103000000D03*
%TD*%
%TO.P,J5,1,Pin_1*%
%TO.N,Net-(J25-Pin_5)*%
X134000000Y-67500000D03*
%TD*%
%TO.P,J23,1,Pin_1*%
%TO.N,Net-(J23-Pin_1)*%
X199000000Y-67500000D03*
%TD*%
%TO.P,J21,1,Pin_1*%
%TO.N,Net-(J21-Pin_1)*%
X182000000Y-67500000D03*
%TD*%
%TO.P,J14,1,Pin_1*%
%TO.N,Net-(J14-Pin_1)*%
X106000000Y-103000000D03*
%TD*%
%TO.P,J24,1,Pin_1*%
%TO.N,Net-(J24-Pin_1)*%
X199000000Y-103000000D03*
%TD*%
%TO.P,J20,1,Pin_1*%
%TO.N,Net-(J20-Pin_1)*%
X160500000Y-67500000D03*
%TD*%
%TO.P,J19,1,Pin_1*%
%TO.N,Net-(J19-Pin_1)*%
X160500000Y-103000000D03*
%TD*%
%TO.P,J18,1,Pin_1*%
%TO.N,Net-(J18-Pin_1)*%
X144000000Y-103000000D03*
%TD*%
%TO.P,J7,1,Pin_1*%
%TO.N,Net-(J25-Pin_7)*%
X150500000Y-103000000D03*
%TD*%
%TO.P,J9,1,Pin_1*%
%TO.N,Net-(J25-Pin_9)*%
X172000000Y-67500000D03*
%TD*%
%TO.P,J3,1,Pin_1*%
%TO.N,Net-(J25-Pin_3)*%
X112500000Y-103000000D03*
%TD*%
%TO.P,J13,1,Pin_1*%
%TO.N,Net-(J13-Pin_1)*%
X106000000Y-67500000D03*
%TD*%
D15*
%TO.N,Net-(J13-Pin_1)*%
X131345000Y-63300000D02*
X133500000Y-61145000D01*
X133500000Y-61145000D02*
X133500000Y-60790000D01*
X106000000Y-67500000D02*
X107500000Y-67500000D01*
X107500000Y-67500000D02*
X111700000Y-63300000D01*
X111700000Y-63300000D02*
X131345000Y-63300000D01*
%TO.N,Net-(J14-Pin_1)*%
X132930000Y-63900000D02*
X136040000Y-60790000D01*
X107500000Y-103000000D02*
X108200000Y-102300000D01*
X108200000Y-102300000D02*
X108200000Y-67800000D01*
X106000000Y-103000000D02*
X107500000Y-103000000D01*
X112100000Y-63900000D02*
X132930000Y-63900000D01*
X108200000Y-67800000D02*
X112100000Y-63900000D01*
%TO.N,Net-(J15-Pin_1)*%
X112459440Y-64500000D02*
X134870000Y-64500000D01*
X122500000Y-103000000D02*
X122500000Y-104500000D01*
X121700000Y-105300000D02*
X111550000Y-105300000D01*
X110300000Y-66659440D02*
X112459440Y-64500000D01*
X111550000Y-105300000D02*
X110300000Y-104050000D01*
X110300000Y-104050000D02*
X110300000Y-66659440D01*
X134870000Y-64500000D02*
X138580000Y-60790000D01*
X122500000Y-104500000D02*
X121700000Y-105300000D01*
%TO.N,Net-(J16-Pin_1)*%
X124900000Y-65100000D02*
X136810000Y-65100000D01*
X136810000Y-65100000D02*
X141120000Y-60790000D01*
X122500000Y-67500000D02*
X124900000Y-65100000D01*
%TO.N,Net-(J17-Pin_1)*%
X144000000Y-67500000D02*
X144000000Y-61130000D01*
X144000000Y-61130000D02*
X143660000Y-60790000D01*
%TO.N,Net-(J18-Pin_1)*%
X145500000Y-103000000D02*
X146200000Y-102300000D01*
X144000000Y-103000000D02*
X145500000Y-103000000D01*
X146200000Y-102300000D02*
X146200000Y-60790000D01*
%TO.N,Net-(J19-Pin_1)*%
X160500000Y-104500000D02*
X159700000Y-105300000D01*
X148250000Y-61280000D02*
X148740000Y-60790000D01*
X160500000Y-103000000D02*
X160500000Y-104500000D01*
X149050000Y-105300000D02*
X148250000Y-104500000D01*
X159700000Y-105300000D02*
X149050000Y-105300000D01*
X148250000Y-104500000D02*
X148250000Y-61280000D01*
%TO.N,Net-(J20-Pin_1)*%
X158300000Y-65300000D02*
X155790000Y-65300000D01*
X155790000Y-65300000D02*
X151280000Y-60790000D01*
X160500000Y-67500000D02*
X158300000Y-65300000D01*
%TO.N,Net-(J21-Pin_1)*%
X182000000Y-67500000D02*
X182000000Y-66000000D01*
X159800000Y-64800000D02*
X157040000Y-62040000D01*
X157040000Y-62040000D02*
X155070000Y-62040000D01*
X180800000Y-64800000D02*
X159800000Y-64800000D01*
X182000000Y-66000000D02*
X180800000Y-64800000D01*
X155070000Y-62040000D02*
X153820000Y-60790000D01*
%TO.N,Net-(J22-Pin_1)*%
X183200000Y-64200000D02*
X160048528Y-64200000D01*
X185600000Y-100900000D02*
X185600000Y-66600000D01*
X160048528Y-64200000D02*
X156638528Y-60790000D01*
X183500000Y-103000000D02*
X185600000Y-100900000D01*
X185600000Y-66600000D02*
X183200000Y-64200000D01*
X182000000Y-103000000D02*
X183500000Y-103000000D01*
X156638528Y-60790000D02*
X156360000Y-60790000D01*
%TO.N,Net-(J23-Pin_1)*%
X161100000Y-63600000D02*
X158900000Y-61400000D01*
X158900000Y-61400000D02*
X158900000Y-60790000D01*
X196600000Y-63600000D02*
X161100000Y-63600000D01*
X199000000Y-66000000D02*
X196600000Y-63600000D01*
X199000000Y-67500000D02*
X199000000Y-66000000D01*
%TO.N,Net-(J24-Pin_1)*%
X163000000Y-63000000D02*
X161440000Y-61440000D01*
X201200000Y-100800000D02*
X201200000Y-65700000D01*
X161440000Y-61440000D02*
X161440000Y-60790000D01*
X201200000Y-65700000D02*
X198500000Y-63000000D01*
X198500000Y-63000000D02*
X163000000Y-63000000D01*
X199000000Y-103000000D02*
X201200000Y-100800000D01*
%TD*%
%TA.AperFunction,Conductor*%
%TO.N,Earth*%
G36*
X162977826Y-56672174D02*
G01*
X162999500Y-56724500D01*
X162999500Y-61565894D01*
X163033606Y-61693181D01*
X163033607Y-61693184D01*
X163033608Y-61693186D01*
X163099500Y-61807314D01*
X163192686Y-61900500D01*
X163306814Y-61966392D01*
X163434105Y-62000499D01*
X163434106Y-62000500D01*
X163434108Y-62000500D01*
X163565892Y-62000500D01*
X209425500Y-62000500D01*
X209477826Y-62022174D01*
X209499500Y-62074500D01*
X209499500Y-105425500D01*
X209477826Y-105477826D01*
X209425500Y-105499500D01*
X160245545Y-105499500D01*
X160193219Y-105477826D01*
X160171545Y-105425500D01*
X160193219Y-105373174D01*
X160266785Y-105299607D01*
X160599938Y-104966453D01*
X160646983Y-104944969D01*
X160778294Y-104935578D01*
X161050923Y-104876271D01*
X161050934Y-104876266D01*
X161050937Y-104876266D01*
X161312333Y-104778771D01*
X161333570Y-104767175D01*
X161557213Y-104645056D01*
X161780568Y-104477855D01*
X161977855Y-104280568D01*
X162145056Y-104057213D01*
X162278769Y-103812337D01*
X162278769Y-103812335D01*
X162278771Y-103812333D01*
X162376266Y-103550937D01*
X162376266Y-103550934D01*
X162376271Y-103550923D01*
X162435165Y-103280190D01*
X162467467Y-103233668D01*
X162523204Y-103223612D01*
X162569727Y-103255914D01*
X162571560Y-103258921D01*
X162582745Y-103278294D01*
X162599500Y-103307314D01*
X162692686Y-103400500D01*
X162806814Y-103466392D01*
X162934105Y-103500499D01*
X162934106Y-103500500D01*
X162934108Y-103500500D01*
X169565894Y-103500500D01*
X169565894Y-103500499D01*
X169693186Y-103466392D01*
X169807314Y-103400500D01*
X169900500Y-103307314D01*
X169928439Y-103258921D01*
X169973372Y-103224443D01*
X170029524Y-103231835D01*
X170064003Y-103276768D01*
X170064834Y-103280191D01*
X170123728Y-103550918D01*
X170123733Y-103550937D01*
X170221228Y-103812333D01*
X170354942Y-104057211D01*
X170389015Y-104102727D01*
X170522145Y-104280568D01*
X170719432Y-104477855D01*
X170819447Y-104552725D01*
X170942788Y-104645057D01*
X171187666Y-104778771D01*
X171449062Y-104876266D01*
X171449067Y-104876267D01*
X171449077Y-104876271D01*
X171721706Y-104935578D01*
X171783549Y-104940001D01*
X171999993Y-104955482D01*
X172000000Y-104955482D01*
X172000007Y-104955482D01*
X172194805Y-104941549D01*
X172278294Y-104935578D01*
X172550923Y-104876271D01*
X172550934Y-104876266D01*
X172550937Y-104876266D01*
X172812333Y-104778771D01*
X172833570Y-104767175D01*
X173057213Y-104645056D01*
X173280568Y-104477855D01*
X173477855Y-104280568D01*
X173645056Y-104057213D01*
X173778769Y-103812337D01*
X173778769Y-103812335D01*
X173778771Y-103812333D01*
X173856166Y-103604828D01*
X173894759Y-103563375D01*
X173951360Y-103561354D01*
X173992813Y-103599947D01*
X173999500Y-103630688D01*
X173999500Y-104065894D01*
X174033606Y-104193181D01*
X174033607Y-104193184D01*
X174033608Y-104193186D01*
X174099500Y-104307314D01*
X174192686Y-104400500D01*
X174306814Y-104466392D01*
X174434105Y-104500499D01*
X174434106Y-104500500D01*
X174434108Y-104500500D01*
X179565894Y-104500500D01*
X179565894Y-104500499D01*
X179693186Y-104466392D01*
X179807314Y-104400500D01*
X179900500Y-104307314D01*
X179966392Y-104193186D01*
X180000499Y-104065894D01*
X180000500Y-104065894D01*
X180000500Y-103630688D01*
X180022174Y-103578362D01*
X180074500Y-103556688D01*
X180126826Y-103578362D01*
X180143834Y-103604828D01*
X180221228Y-103812333D01*
X180354942Y-104057211D01*
X180389015Y-104102727D01*
X180522145Y-104280568D01*
X180719432Y-104477855D01*
X180819447Y-104552725D01*
X180942788Y-104645057D01*
X181187666Y-104778771D01*
X181449062Y-104876266D01*
X181449067Y-104876267D01*
X181449077Y-104876271D01*
X181721706Y-104935578D01*
X181783549Y-104940001D01*
X181999993Y-104955482D01*
X182000000Y-104955482D01*
X182000007Y-104955482D01*
X182194805Y-104941549D01*
X182278294Y-104935578D01*
X182550923Y-104876271D01*
X182550934Y-104876266D01*
X182550937Y-104876266D01*
X182812333Y-104778771D01*
X182833570Y-104767175D01*
X183057213Y-104645056D01*
X183280568Y-104477855D01*
X183477855Y-104280568D01*
X183645056Y-104057213D01*
X183778769Y-103812337D01*
X183778769Y-103812335D01*
X183778771Y-103812333D01*
X183876266Y-103550937D01*
X183876266Y-103550934D01*
X183876271Y-103550923D01*
X183935578Y-103278294D01*
X183944969Y-103146983D01*
X183966453Y-103099938D01*
X185920480Y-101145913D01*
X185941715Y-101109133D01*
X185973207Y-101054587D01*
X186000499Y-100952729D01*
X186000500Y-100952729D01*
X186000500Y-66658698D01*
X186000501Y-66658685D01*
X186000501Y-66547271D01*
X186000500Y-66547270D01*
X185973207Y-66445413D01*
X185973206Y-66445411D01*
X185973205Y-66445408D01*
X185971692Y-66442788D01*
X185932362Y-66374668D01*
X185920480Y-66354087D01*
X185845913Y-66279520D01*
X185843334Y-66276941D01*
X185843323Y-66276931D01*
X183693219Y-64126826D01*
X183671545Y-64074500D01*
X183693219Y-64022174D01*
X183745545Y-64000500D01*
X196403455Y-64000500D01*
X196455781Y-64022174D01*
X198096531Y-65662924D01*
X198118205Y-65715250D01*
X198096531Y-65767576D01*
X198079670Y-65780198D01*
X197942788Y-65854942D01*
X197719429Y-66022147D01*
X197522147Y-66219429D01*
X197354942Y-66442788D01*
X197221228Y-66687666D01*
X197143834Y-66895171D01*
X197105241Y-66936624D01*
X197048640Y-66938645D01*
X197007187Y-66900052D01*
X197000500Y-66869311D01*
X197000500Y-65934106D01*
X197000499Y-65934105D01*
X196981748Y-65864126D01*
X196966392Y-65806814D01*
X196900500Y-65692686D01*
X196807314Y-65599500D01*
X196758609Y-65571380D01*
X196693190Y-65533610D01*
X196693181Y-65533606D01*
X196565894Y-65499500D01*
X196565892Y-65499500D01*
X191565892Y-65499500D01*
X191434108Y-65499500D01*
X191434106Y-65499500D01*
X191306818Y-65533606D01*
X191306809Y-65533610D01*
X191192685Y-65599500D01*
X191099500Y-65692685D01*
X191033610Y-65806809D01*
X191033606Y-65806818D01*
X190999500Y-65934105D01*
X190999500Y-66869311D01*
X190977826Y-66921637D01*
X190925500Y-66943311D01*
X190873174Y-66921637D01*
X190856166Y-66895171D01*
X190778771Y-66687666D01*
X190645057Y-66442788D01*
X190578655Y-66354086D01*
X190477855Y-66219432D01*
X190280568Y-66022145D01*
X190162960Y-65934105D01*
X190057211Y-65854942D01*
X189812333Y-65721228D01*
X189550937Y-65623733D01*
X189550925Y-65623730D01*
X189550923Y-65623729D01*
X189495971Y-65611775D01*
X189278291Y-65564421D01*
X189000007Y-65544518D01*
X188999993Y-65544518D01*
X188721708Y-65564421D01*
X188449081Y-65623728D01*
X188449062Y-65623733D01*
X188187666Y-65721228D01*
X187942788Y-65854942D01*
X187719429Y-66022147D01*
X187522147Y-66219429D01*
X187354942Y-66442788D01*
X187221228Y-66687666D01*
X187123733Y-66949062D01*
X187123728Y-66949081D01*
X187064421Y-67221708D01*
X187044518Y-67499993D01*
X187044518Y-67500006D01*
X187064421Y-67778291D01*
X187123728Y-68050918D01*
X187123733Y-68050937D01*
X187221228Y-68312333D01*
X187354942Y-68557211D01*
X187424441Y-68650051D01*
X187522145Y-68780568D01*
X187719432Y-68977855D01*
X187864311Y-69086310D01*
X187942788Y-69145057D01*
X188187666Y-69278771D01*
X188395172Y-69356166D01*
X188436625Y-69394759D01*
X188438646Y-69451360D01*
X188400053Y-69492813D01*
X188369312Y-69499500D01*
X187434106Y-69499500D01*
X187306818Y-69533606D01*
X187306809Y-69533610D01*
X187192685Y-69599500D01*
X187099500Y-69692685D01*
X187033610Y-69806809D01*
X187033606Y-69806818D01*
X186999500Y-69934105D01*
X186999500Y-84066910D01*
X187000000Y-84074540D01*
X187000000Y-86418924D01*
X186999811Y-86424203D01*
X186994390Y-86499993D01*
X186994390Y-86500005D01*
X186999811Y-86575794D01*
X187000000Y-86581074D01*
X187000000Y-88925460D01*
X186999500Y-88933097D01*
X186999500Y-100565894D01*
X187033606Y-100693181D01*
X187033607Y-100693184D01*
X187033608Y-100693186D01*
X187099500Y-100807314D01*
X187192686Y-100900500D01*
X187306814Y-100966392D01*
X187434105Y-101000499D01*
X187434106Y-101000500D01*
X187434108Y-101000500D01*
X187565892Y-101000500D01*
X188369312Y-101000500D01*
X188421638Y-101022174D01*
X188443312Y-101074500D01*
X188421638Y-101126826D01*
X188395172Y-101143834D01*
X188187666Y-101221228D01*
X187942788Y-101354942D01*
X187719429Y-101522147D01*
X187522147Y-101719429D01*
X187354942Y-101942788D01*
X187221228Y-102187666D01*
X187123733Y-102449062D01*
X187123728Y-102449081D01*
X187064421Y-102721708D01*
X187044518Y-102999993D01*
X187044518Y-103000006D01*
X187064421Y-103278291D01*
X187123728Y-103550918D01*
X187123733Y-103550937D01*
X187221228Y-103812333D01*
X187354942Y-104057211D01*
X187389015Y-104102727D01*
X187522145Y-104280568D01*
X187719432Y-104477855D01*
X187819447Y-104552725D01*
X187942788Y-104645057D01*
X188187666Y-104778771D01*
X188449062Y-104876266D01*
X188449067Y-104876267D01*
X188449077Y-104876271D01*
X188721706Y-104935578D01*
X188783549Y-104940001D01*
X188999993Y-104955482D01*
X189000000Y-104955482D01*
X189000007Y-104955482D01*
X189194805Y-104941549D01*
X189278294Y-104935578D01*
X189550923Y-104876271D01*
X189550934Y-104876266D01*
X189550937Y-104876266D01*
X189812333Y-104778771D01*
X189833570Y-104767175D01*
X190057213Y-104645056D01*
X190280568Y-104477855D01*
X190477855Y-104280568D01*
X190645056Y-104057213D01*
X190778769Y-103812337D01*
X190778769Y-103812335D01*
X190778771Y-103812333D01*
X190856166Y-103604828D01*
X190894759Y-103563375D01*
X190951360Y-103561354D01*
X190992813Y-103599947D01*
X190999500Y-103630688D01*
X190999500Y-104065894D01*
X191033606Y-104193181D01*
X191033607Y-104193184D01*
X191033608Y-104193186D01*
X191099500Y-104307314D01*
X191192686Y-104400500D01*
X191306814Y-104466392D01*
X191434105Y-104500499D01*
X191434106Y-104500500D01*
X191434108Y-104500500D01*
X196565894Y-104500500D01*
X196565894Y-104500499D01*
X196693186Y-104466392D01*
X196807314Y-104400500D01*
X196900500Y-104307314D01*
X196966392Y-104193186D01*
X197000499Y-104065894D01*
X197000500Y-104065894D01*
X197000500Y-103630688D01*
X197022174Y-103578362D01*
X197074500Y-103556688D01*
X197126826Y-103578362D01*
X197143834Y-103604828D01*
X197221228Y-103812333D01*
X197354942Y-104057211D01*
X197389015Y-104102727D01*
X197522145Y-104280568D01*
X197719432Y-104477855D01*
X197819447Y-104552725D01*
X197942788Y-104645057D01*
X198187666Y-104778771D01*
X198449062Y-104876266D01*
X198449067Y-104876267D01*
X198449077Y-104876271D01*
X198721706Y-104935578D01*
X198783549Y-104940001D01*
X198999993Y-104955482D01*
X199000000Y-104955482D01*
X199000007Y-104955482D01*
X199194805Y-104941549D01*
X199278294Y-104935578D01*
X199550923Y-104876271D01*
X199550934Y-104876266D01*
X199550937Y-104876266D01*
X199812333Y-104778771D01*
X199833570Y-104767175D01*
X200057213Y-104645056D01*
X200280568Y-104477855D01*
X200477855Y-104280568D01*
X200645056Y-104057213D01*
X200778769Y-103812337D01*
X200778769Y-103812335D01*
X200778771Y-103812333D01*
X200876266Y-103550937D01*
X200876266Y-103550934D01*
X200876271Y-103550923D01*
X200935578Y-103278294D01*
X200942212Y-103185529D01*
X200955482Y-103000006D01*
X200955482Y-102999993D01*
X200935578Y-102721708D01*
X200935578Y-102721706D01*
X200876271Y-102449077D01*
X200876267Y-102449067D01*
X200876266Y-102449062D01*
X200778771Y-102187667D01*
X200726651Y-102092216D01*
X200664027Y-101977531D01*
X200657973Y-101921219D01*
X200676648Y-101889743D01*
X201066392Y-101500000D01*
X202294958Y-101500000D01*
X202315111Y-101858853D01*
X202315113Y-101858865D01*
X202375313Y-102213184D01*
X202474815Y-102558560D01*
X202612352Y-102890607D01*
X202612363Y-102890628D01*
X202786206Y-103205173D01*
X202786210Y-103205180D01*
X202994199Y-103498313D01*
X203100213Y-103616942D01*
X204235502Y-102481652D01*
X204279588Y-102542330D01*
X204457670Y-102720412D01*
X204518346Y-102764495D01*
X203383055Y-103899786D01*
X203501681Y-104005796D01*
X203794819Y-104213789D01*
X203794826Y-104213793D01*
X204109371Y-104387636D01*
X204109392Y-104387647D01*
X204441439Y-104525184D01*
X204786816Y-104624686D01*
X204786814Y-104624686D01*
X205141134Y-104684886D01*
X205141146Y-104684888D01*
X205500000Y-104705041D01*
X205858853Y-104684888D01*
X205858865Y-104684886D01*
X206213184Y-104624686D01*
X206558560Y-104525184D01*
X206890607Y-104387647D01*
X206890628Y-104387636D01*
X207205173Y-104213793D01*
X207205180Y-104213789D01*
X207498318Y-104005796D01*
X207616942Y-103899786D01*
X207616943Y-103899786D01*
X206481653Y-102764496D01*
X206542330Y-102720412D01*
X206720412Y-102542330D01*
X206764496Y-102481653D01*
X207899786Y-103616943D01*
X207899786Y-103616942D01*
X208005796Y-103498318D01*
X208213789Y-103205180D01*
X208213793Y-103205173D01*
X208387636Y-102890628D01*
X208387647Y-102890607D01*
X208525184Y-102558560D01*
X208624686Y-102213184D01*
X208684886Y-101858865D01*
X208684888Y-101858853D01*
X208705041Y-101500000D01*
X208684888Y-101141146D01*
X208684886Y-101141134D01*
X208624686Y-100786815D01*
X208525184Y-100441439D01*
X208387647Y-100109392D01*
X208387636Y-100109371D01*
X208213793Y-99794826D01*
X208213789Y-99794819D01*
X208005796Y-99501681D01*
X207899786Y-99383056D01*
X207899786Y-99383055D01*
X206764495Y-100518345D01*
X206720412Y-100457670D01*
X206542330Y-100279588D01*
X206481652Y-100235502D01*
X207616942Y-99100213D01*
X207498313Y-98994199D01*
X207205180Y-98786210D01*
X207205173Y-98786206D01*
X206890628Y-98612363D01*
X206890607Y-98612352D01*
X206558560Y-98474815D01*
X206213183Y-98375313D01*
X206213185Y-98375313D01*
X205858865Y-98315113D01*
X205858853Y-98315111D01*
X205500000Y-98294958D01*
X205141146Y-98315111D01*
X205141134Y-98315113D01*
X204786815Y-98375313D01*
X204441439Y-98474815D01*
X204109392Y-98612352D01*
X204109371Y-98612363D01*
X203794826Y-98786206D01*
X203794819Y-98786210D01*
X203501686Y-98994199D01*
X203383055Y-99100212D01*
X204518346Y-100235503D01*
X204457670Y-100279588D01*
X204279588Y-100457670D01*
X204235503Y-100518346D01*
X203100212Y-99383055D01*
X202994199Y-99501686D01*
X202786210Y-99794819D01*
X202786206Y-99794826D01*
X202612363Y-100109371D01*
X202612352Y-100109392D01*
X202474815Y-100441439D01*
X202375313Y-100786815D01*
X202315113Y-101141134D01*
X202315111Y-101141146D01*
X202294958Y-101500000D01*
X201066392Y-101500000D01*
X201520480Y-101045913D01*
X201573207Y-100954588D01*
X201600500Y-100852727D01*
X201600500Y-100747273D01*
X201600500Y-66000000D01*
X202294958Y-66000000D01*
X202315111Y-66358853D01*
X202315113Y-66358865D01*
X202375313Y-66713184D01*
X202474815Y-67058560D01*
X202612352Y-67390607D01*
X202612363Y-67390628D01*
X202786206Y-67705173D01*
X202786210Y-67705180D01*
X202994199Y-67998313D01*
X203100213Y-68116942D01*
X204235502Y-66981652D01*
X204279588Y-67042330D01*
X204457670Y-67220412D01*
X204518346Y-67264495D01*
X203383055Y-68399786D01*
X203501681Y-68505796D01*
X203794819Y-68713789D01*
X203794826Y-68713793D01*
X204109371Y-68887636D01*
X204109392Y-68887647D01*
X204441439Y-69025184D01*
X204786816Y-69124686D01*
X204786814Y-69124686D01*
X205141134Y-69184886D01*
X205141146Y-69184888D01*
X205500000Y-69205041D01*
X205858853Y-69184888D01*
X205858865Y-69184886D01*
X206213184Y-69124686D01*
X206558560Y-69025184D01*
X206890607Y-68887647D01*
X206890628Y-68887636D01*
X207205173Y-68713793D01*
X207205180Y-68713789D01*
X207498318Y-68505796D01*
X207616942Y-68399786D01*
X207616943Y-68399786D01*
X206481653Y-67264496D01*
X206542330Y-67220412D01*
X206720412Y-67042330D01*
X206764496Y-66981653D01*
X207899786Y-68116943D01*
X207899786Y-68116942D01*
X208005796Y-67998318D01*
X208213789Y-67705180D01*
X208213793Y-67705173D01*
X208387636Y-67390628D01*
X208387647Y-67390607D01*
X208525184Y-67058560D01*
X208624686Y-66713184D01*
X208684886Y-66358865D01*
X208684888Y-66358853D01*
X208705041Y-66000000D01*
X208684888Y-65641146D01*
X208684886Y-65641134D01*
X208624686Y-65286815D01*
X208525184Y-64941439D01*
X208387647Y-64609392D01*
X208387636Y-64609371D01*
X208213793Y-64294826D01*
X208213789Y-64294819D01*
X208005796Y-64001681D01*
X207899786Y-63883056D01*
X207899786Y-63883055D01*
X206764495Y-65018345D01*
X206720412Y-64957670D01*
X206542330Y-64779588D01*
X206481652Y-64735502D01*
X207616942Y-63600213D01*
X207498313Y-63494199D01*
X207205180Y-63286210D01*
X207205173Y-63286206D01*
X206890628Y-63112363D01*
X206890607Y-63112352D01*
X206558560Y-62974815D01*
X206213183Y-62875313D01*
X206213185Y-62875313D01*
X205858865Y-62815113D01*
X205858853Y-62815111D01*
X205500000Y-62794958D01*
X205141146Y-62815111D01*
X205141134Y-62815113D01*
X204786815Y-62875313D01*
X204441439Y-62974815D01*
X204109392Y-63112352D01*
X204109371Y-63112363D01*
X203794826Y-63286206D01*
X203794819Y-63286210D01*
X203501686Y-63494199D01*
X203383055Y-63600212D01*
X204518346Y-64735503D01*
X204457670Y-64779588D01*
X204279588Y-64957670D01*
X204235503Y-65018346D01*
X203100212Y-63883055D01*
X202994199Y-64001686D01*
X202786210Y-64294819D01*
X202786206Y-64294826D01*
X202612363Y-64609371D01*
X202612352Y-64609392D01*
X202474815Y-64941439D01*
X202375313Y-65286815D01*
X202315113Y-65641134D01*
X202315111Y-65641146D01*
X202294958Y-66000000D01*
X201600500Y-66000000D01*
X201600500Y-65758698D01*
X201600501Y-65758685D01*
X201600501Y-65647271D01*
X201600500Y-65647270D01*
X201573208Y-65545416D01*
X201573207Y-65545413D01*
X201566390Y-65533606D01*
X201546699Y-65499500D01*
X201520480Y-65454087D01*
X201445913Y-65379520D01*
X201443334Y-65376941D01*
X201443323Y-65376931D01*
X200140892Y-64074500D01*
X198745913Y-62679520D01*
X198745910Y-62679518D01*
X198745909Y-62679517D01*
X198654592Y-62626795D01*
X198654588Y-62626793D01*
X198552727Y-62599500D01*
X198552726Y-62599500D01*
X163196545Y-62599500D01*
X163144219Y-62577826D01*
X162196149Y-61629756D01*
X162174475Y-61577430D01*
X162191272Y-61530485D01*
X162317685Y-61376450D01*
X162415232Y-61193954D01*
X162475300Y-60995934D01*
X162495583Y-60790000D01*
X162475300Y-60584066D01*
X162415232Y-60386046D01*
X162317685Y-60203550D01*
X162186410Y-60043590D01*
X162026450Y-59912315D01*
X161843954Y-59814768D01*
X161732158Y-59780855D01*
X161645935Y-59754700D01*
X161440000Y-59734417D01*
X161234064Y-59754700D01*
X161036043Y-59814769D01*
X160853549Y-59912315D01*
X160693590Y-60043589D01*
X160693589Y-60043590D01*
X160562315Y-60203549D01*
X160464769Y-60386043D01*
X160404700Y-60584064D01*
X160384417Y-60790000D01*
X160404700Y-60995935D01*
X160407911Y-61006521D01*
X160464383Y-61192686D01*
X160464769Y-61193956D01*
X160562315Y-61376450D01*
X160688727Y-61530485D01*
X160693590Y-61536410D01*
X160853550Y-61667685D01*
X161036046Y-61765232D01*
X161234066Y-61825300D01*
X161235260Y-61825417D01*
X161235698Y-61825624D01*
X161237635Y-61826010D01*
X161237538Y-61826494D01*
X161280343Y-61846736D01*
X162506781Y-63073174D01*
X162528455Y-63125500D01*
X162506781Y-63177826D01*
X162454455Y-63199500D01*
X161296545Y-63199500D01*
X161244219Y-63177826D01*
X159674179Y-61607786D01*
X159652505Y-61555460D01*
X159669301Y-61508516D01*
X159777685Y-61376450D01*
X159875232Y-61193954D01*
X159935300Y-60995934D01*
X159955583Y-60790000D01*
X159935300Y-60584066D01*
X159875232Y-60386046D01*
X159777685Y-60203550D01*
X159646410Y-60043590D01*
X159486450Y-59912315D01*
X159303954Y-59814768D01*
X159192158Y-59780855D01*
X159105935Y-59754700D01*
X158900000Y-59734417D01*
X158694064Y-59754700D01*
X158496043Y-59814769D01*
X158313549Y-59912315D01*
X158153590Y-60043589D01*
X158153589Y-60043590D01*
X158022315Y-60203549D01*
X157924769Y-60386043D01*
X157864700Y-60584064D01*
X157844417Y-60790000D01*
X157864700Y-60995935D01*
X157867911Y-61006521D01*
X157924383Y-61192686D01*
X157924769Y-61193956D01*
X158022315Y-61376450D01*
X158123655Y-61499934D01*
X158139197Y-61551171D01*
X158143120Y-61549547D01*
X158190064Y-61566343D01*
X158313550Y-61667685D01*
X158496046Y-61765232D01*
X158694066Y-61825300D01*
X158739641Y-61829788D01*
X158784713Y-61851106D01*
X160606781Y-63673174D01*
X160628455Y-63725500D01*
X160606781Y-63777826D01*
X160554455Y-63799500D01*
X160245073Y-63799500D01*
X160192747Y-63777826D01*
X158090794Y-61675873D01*
X158069120Y-61623547D01*
X158071978Y-61616646D01*
X158059198Y-61620523D01*
X158014126Y-61599205D01*
X157421442Y-61006521D01*
X157399768Y-60954195D01*
X157400123Y-60946957D01*
X157415583Y-60790000D01*
X157395300Y-60584066D01*
X157335232Y-60386046D01*
X157237685Y-60203550D01*
X157106410Y-60043590D01*
X156946450Y-59912315D01*
X156763954Y-59814768D01*
X156652158Y-59780855D01*
X156565935Y-59754700D01*
X156360000Y-59734417D01*
X156154064Y-59754700D01*
X155956043Y-59814769D01*
X155773549Y-59912315D01*
X155613590Y-60043589D01*
X155613589Y-60043590D01*
X155482315Y-60203549D01*
X155384769Y-60386043D01*
X155324700Y-60584064D01*
X155304417Y-60790000D01*
X155324700Y-60995935D01*
X155327911Y-61006521D01*
X155384383Y-61192686D01*
X155384769Y-61193956D01*
X155482315Y-61376450D01*
X155598937Y-61518555D01*
X155615378Y-61572753D01*
X155588679Y-61622703D01*
X155541734Y-61639500D01*
X155266545Y-61639500D01*
X155214219Y-61617826D01*
X154825457Y-61229064D01*
X154803783Y-61176738D01*
X154806967Y-61155266D01*
X154855300Y-60995934D01*
X154875583Y-60790000D01*
X154855300Y-60584066D01*
X154795232Y-60386046D01*
X154697685Y-60203550D01*
X154566410Y-60043590D01*
X154406450Y-59912315D01*
X154223954Y-59814768D01*
X154112158Y-59780855D01*
X154025935Y-59754700D01*
X153820000Y-59734417D01*
X153614064Y-59754700D01*
X153416043Y-59814769D01*
X153233549Y-59912315D01*
X153073590Y-60043589D01*
X153073589Y-60043590D01*
X152942315Y-60203549D01*
X152844769Y-60386043D01*
X152784700Y-60584064D01*
X152764417Y-60790000D01*
X152784700Y-60995935D01*
X152787911Y-61006521D01*
X152844383Y-61192686D01*
X152844769Y-61193956D01*
X152942315Y-61376450D01*
X153068727Y-61530485D01*
X153073590Y-61536410D01*
X153233550Y-61667685D01*
X153416046Y-61765232D01*
X153614066Y-61825300D01*
X153820000Y-61845583D01*
X154025934Y-61825300D01*
X154185260Y-61776969D01*
X154241621Y-61782521D01*
X154259064Y-61795457D01*
X154824087Y-62360480D01*
X154915412Y-62413207D01*
X155017273Y-62440500D01*
X155122727Y-62440500D01*
X156843455Y-62440500D01*
X156895781Y-62462174D01*
X159479519Y-65045912D01*
X159479520Y-65045913D01*
X159554087Y-65120480D01*
X159645413Y-65173207D01*
X159747270Y-65200499D01*
X159747271Y-65200500D01*
X159747273Y-65200500D01*
X180603455Y-65200500D01*
X180655781Y-65222174D01*
X181096531Y-65662924D01*
X181118205Y-65715250D01*
X181096531Y-65767576D01*
X181079670Y-65780198D01*
X180942788Y-65854942D01*
X180719429Y-66022147D01*
X180522147Y-66219429D01*
X180354942Y-66442788D01*
X180221228Y-66687666D01*
X180143834Y-66895171D01*
X180105241Y-66936624D01*
X180048640Y-66938645D01*
X180007187Y-66900052D01*
X180000500Y-66869311D01*
X180000500Y-65934106D01*
X180000499Y-65934105D01*
X179981748Y-65864126D01*
X179966392Y-65806814D01*
X179900500Y-65692686D01*
X179807314Y-65599500D01*
X179758609Y-65571380D01*
X179693190Y-65533610D01*
X179693181Y-65533606D01*
X179565894Y-65499500D01*
X179565892Y-65499500D01*
X174565892Y-65499500D01*
X174434108Y-65499500D01*
X174434106Y-65499500D01*
X174306818Y-65533606D01*
X174306809Y-65533610D01*
X174192685Y-65599500D01*
X174099500Y-65692685D01*
X174033610Y-65806809D01*
X174033606Y-65806818D01*
X173999500Y-65934105D01*
X173999500Y-66869311D01*
X173977826Y-66921637D01*
X173925500Y-66943311D01*
X173873174Y-66921637D01*
X173856166Y-66895171D01*
X173778771Y-66687666D01*
X173645057Y-66442788D01*
X173578655Y-66354086D01*
X173477855Y-66219432D01*
X173280568Y-66022145D01*
X173162960Y-65934105D01*
X173057211Y-65854942D01*
X172812333Y-65721228D01*
X172550937Y-65623733D01*
X172550925Y-65623730D01*
X172550923Y-65623729D01*
X172495971Y-65611775D01*
X172278291Y-65564421D01*
X172000007Y-65544518D01*
X171999993Y-65544518D01*
X171721708Y-65564421D01*
X171449081Y-65623728D01*
X171449062Y-65623733D01*
X171187666Y-65721228D01*
X170942788Y-65854942D01*
X170719429Y-66022147D01*
X170522147Y-66219429D01*
X170354942Y-66442788D01*
X170221228Y-66687666D01*
X170123733Y-66949062D01*
X170123728Y-66949081D01*
X170064834Y-67219808D01*
X170032532Y-67266331D01*
X169976795Y-67276387D01*
X169930272Y-67244085D01*
X169928439Y-67241078D01*
X169900500Y-67192686D01*
X169807314Y-67099500D01*
X169708293Y-67042330D01*
X169693190Y-67033610D01*
X169693181Y-67033606D01*
X169565894Y-66999500D01*
X169565892Y-66999500D01*
X163065892Y-66999500D01*
X162934108Y-66999500D01*
X162934106Y-66999500D01*
X162806818Y-67033606D01*
X162806809Y-67033610D01*
X162692685Y-67099500D01*
X162599499Y-67192686D01*
X162571559Y-67241079D01*
X162526626Y-67275557D01*
X162470473Y-67268163D01*
X162435995Y-67223230D01*
X162435165Y-67219808D01*
X162429265Y-67192685D01*
X162376271Y-66949077D01*
X162376267Y-66949068D01*
X162376266Y-66949062D01*
X162278771Y-66687666D01*
X162145057Y-66442788D01*
X162078655Y-66354086D01*
X161977855Y-66219432D01*
X161780568Y-66022145D01*
X161662960Y-65934105D01*
X161557211Y-65854942D01*
X161312333Y-65721228D01*
X161050937Y-65623733D01*
X161050925Y-65623730D01*
X161050923Y-65623729D01*
X160995971Y-65611775D01*
X160778291Y-65564421D01*
X160500007Y-65544518D01*
X160499993Y-65544518D01*
X160221708Y-65564421D01*
X159949081Y-65623728D01*
X159949062Y-65623733D01*
X159687666Y-65721228D01*
X159477533Y-65835971D01*
X159421220Y-65842026D01*
X159389742Y-65823349D01*
X158986873Y-65420480D01*
X158545913Y-64979520D01*
X158545910Y-64979518D01*
X158545909Y-64979517D01*
X158454592Y-64926795D01*
X158454588Y-64926793D01*
X158437349Y-64922174D01*
X158352727Y-64899500D01*
X158352726Y-64899500D01*
X155986545Y-64899500D01*
X155934219Y-64877826D01*
X152285457Y-61229064D01*
X152263783Y-61176738D01*
X152266967Y-61155266D01*
X152315300Y-60995934D01*
X152335583Y-60790000D01*
X152315300Y-60584066D01*
X152255232Y-60386046D01*
X152157685Y-60203550D01*
X152026410Y-60043590D01*
X151866450Y-59912315D01*
X151683954Y-59814768D01*
X151572158Y-59780855D01*
X151485935Y-59754700D01*
X151280000Y-59734417D01*
X151074064Y-59754700D01*
X150876043Y-59814769D01*
X150693549Y-59912315D01*
X150533590Y-60043589D01*
X150533589Y-60043590D01*
X150402315Y-60203549D01*
X150304769Y-60386043D01*
X150244700Y-60584064D01*
X150224417Y-60790000D01*
X150244700Y-60995935D01*
X150247911Y-61006521D01*
X150304383Y-61192686D01*
X150304769Y-61193956D01*
X150402315Y-61376450D01*
X150528727Y-61530485D01*
X150533590Y-61536410D01*
X150693550Y-61667685D01*
X150876046Y-61765232D01*
X151074066Y-61825300D01*
X151280000Y-61845583D01*
X151485934Y-61825300D01*
X151645260Y-61776969D01*
X151701621Y-61782521D01*
X151719064Y-61795457D01*
X155296781Y-65373174D01*
X155318455Y-65425500D01*
X155296781Y-65477826D01*
X155244455Y-65499500D01*
X152934106Y-65499500D01*
X152806818Y-65533606D01*
X152806809Y-65533610D01*
X152692685Y-65599500D01*
X152599500Y-65692685D01*
X152533610Y-65806809D01*
X152533606Y-65806818D01*
X152499500Y-65934105D01*
X152499500Y-66869311D01*
X152477826Y-66921637D01*
X152425500Y-66943311D01*
X152373174Y-66921637D01*
X152356166Y-66895171D01*
X152278771Y-66687666D01*
X152145057Y-66442788D01*
X152078655Y-66354086D01*
X151977855Y-66219432D01*
X151780568Y-66022145D01*
X151662960Y-65934105D01*
X151557211Y-65854942D01*
X151312333Y-65721228D01*
X151050937Y-65623733D01*
X151050925Y-65623730D01*
X151050923Y-65623729D01*
X150995971Y-65611775D01*
X150778291Y-65564421D01*
X150500007Y-65544518D01*
X150499993Y-65544518D01*
X150221708Y-65564421D01*
X149949081Y-65623728D01*
X149949062Y-65623733D01*
X149687666Y-65721228D01*
X149442788Y-65854942D01*
X149219429Y-66022147D01*
X149022147Y-66219429D01*
X148854942Y-66442788D01*
X148789448Y-66562733D01*
X148745348Y-66598271D01*
X148689035Y-66592216D01*
X148653497Y-66548116D01*
X148650500Y-66527268D01*
X148650500Y-61918414D01*
X148672174Y-61866088D01*
X148724500Y-61844414D01*
X148731756Y-61844771D01*
X148732464Y-61844840D01*
X148740000Y-61845583D01*
X148945934Y-61825300D01*
X149143954Y-61765232D01*
X149326450Y-61667685D01*
X149486410Y-61536410D01*
X149617685Y-61376450D01*
X149715232Y-61193954D01*
X149775300Y-60995934D01*
X149795583Y-60790000D01*
X149775300Y-60584066D01*
X149715232Y-60386046D01*
X149617685Y-60203550D01*
X149486410Y-60043590D01*
X149326450Y-59912315D01*
X149143954Y-59814768D01*
X149032158Y-59780855D01*
X148945935Y-59754700D01*
X148740000Y-59734417D01*
X148534064Y-59754700D01*
X148336043Y-59814769D01*
X148153549Y-59912315D01*
X147993590Y-60043589D01*
X147993589Y-60043590D01*
X147862315Y-60203549D01*
X147764769Y-60386043D01*
X147704700Y-60584064D01*
X147684417Y-60790000D01*
X147704700Y-60995935D01*
X147707911Y-61006521D01*
X147764768Y-61193954D01*
X147825093Y-61306814D01*
X147840762Y-61336127D01*
X147849500Y-61371011D01*
X147849500Y-104447273D01*
X147849500Y-104552727D01*
X147868781Y-104624686D01*
X147876793Y-104654588D01*
X147876795Y-104654592D01*
X147929517Y-104745909D01*
X147929518Y-104745910D01*
X147929520Y-104745913D01*
X148556781Y-105373174D01*
X148578455Y-105425500D01*
X148556781Y-105477826D01*
X148504455Y-105499500D01*
X122245545Y-105499500D01*
X122193219Y-105477826D01*
X122171545Y-105425500D01*
X122193219Y-105373174D01*
X122266785Y-105299607D01*
X122599938Y-104966453D01*
X122646983Y-104944969D01*
X122778294Y-104935578D01*
X123050923Y-104876271D01*
X123050934Y-104876266D01*
X123050937Y-104876266D01*
X123312333Y-104778771D01*
X123333570Y-104767175D01*
X123557213Y-104645056D01*
X123780568Y-104477855D01*
X123977855Y-104280568D01*
X124145056Y-104057213D01*
X124278769Y-103812337D01*
X124278769Y-103812335D01*
X124278771Y-103812333D01*
X124376266Y-103550937D01*
X124376266Y-103550934D01*
X124376271Y-103550923D01*
X124435165Y-103280190D01*
X124467467Y-103233668D01*
X124523204Y-103223612D01*
X124569727Y-103255914D01*
X124571560Y-103258921D01*
X124582745Y-103278294D01*
X124599500Y-103307314D01*
X124692686Y-103400500D01*
X124806814Y-103466392D01*
X124934105Y-103500499D01*
X124934106Y-103500500D01*
X124934108Y-103500500D01*
X131565894Y-103500500D01*
X131565894Y-103500499D01*
X131693186Y-103466392D01*
X131807314Y-103400500D01*
X131900500Y-103307314D01*
X131928439Y-103258921D01*
X131973372Y-103224443D01*
X132029524Y-103231835D01*
X132064003Y-103276768D01*
X132064834Y-103280191D01*
X132123728Y-103550918D01*
X132123733Y-103550937D01*
X132221228Y-103812333D01*
X132354942Y-104057211D01*
X132389015Y-104102727D01*
X132522145Y-104280568D01*
X132719432Y-104477855D01*
X132819447Y-104552725D01*
X132942788Y-104645057D01*
X133187666Y-104778771D01*
X133449062Y-104876266D01*
X133449067Y-104876267D01*
X133449077Y-104876271D01*
X133721706Y-104935578D01*
X133783549Y-104940001D01*
X133999993Y-104955482D01*
X134000000Y-104955482D01*
X134000007Y-104955482D01*
X134194805Y-104941549D01*
X134278294Y-104935578D01*
X134550923Y-104876271D01*
X134550934Y-104876266D01*
X134550937Y-104876266D01*
X134812333Y-104778771D01*
X134833570Y-104767175D01*
X135057213Y-104645056D01*
X135280568Y-104477855D01*
X135477855Y-104280568D01*
X135645056Y-104057213D01*
X135778769Y-103812337D01*
X135778769Y-103812335D01*
X135778771Y-103812333D01*
X135856166Y-103604828D01*
X135894759Y-103563375D01*
X135951360Y-103561354D01*
X135992813Y-103599947D01*
X135999500Y-103630688D01*
X135999500Y-104065894D01*
X136033606Y-104193181D01*
X136033607Y-104193184D01*
X136033608Y-104193186D01*
X136099500Y-104307314D01*
X136192686Y-104400500D01*
X136306814Y-104466392D01*
X136434105Y-104500499D01*
X136434106Y-104500500D01*
X136434108Y-104500500D01*
X141565894Y-104500500D01*
X141565894Y-104500499D01*
X141693186Y-104466392D01*
X141807314Y-104400500D01*
X141900500Y-104307314D01*
X141966392Y-104193186D01*
X142000499Y-104065894D01*
X142000500Y-104065894D01*
X142000500Y-103630688D01*
X142022174Y-103578362D01*
X142074500Y-103556688D01*
X142126826Y-103578362D01*
X142143834Y-103604828D01*
X142221228Y-103812333D01*
X142354942Y-104057211D01*
X142389015Y-104102727D01*
X142522145Y-104280568D01*
X142719432Y-104477855D01*
X142819447Y-104552725D01*
X142942788Y-104645057D01*
X143187666Y-104778771D01*
X143449062Y-104876266D01*
X143449067Y-104876267D01*
X143449077Y-104876271D01*
X143721706Y-104935578D01*
X143783549Y-104940001D01*
X143999993Y-104955482D01*
X144000000Y-104955482D01*
X144000007Y-104955482D01*
X144194805Y-104941549D01*
X144278294Y-104935578D01*
X144550923Y-104876271D01*
X144550934Y-104876266D01*
X144550937Y-104876266D01*
X144812333Y-104778771D01*
X144833570Y-104767175D01*
X145057213Y-104645056D01*
X145280568Y-104477855D01*
X145477855Y-104280568D01*
X145645056Y-104057213D01*
X145778769Y-103812337D01*
X145778769Y-103812335D01*
X145778771Y-103812333D01*
X145876266Y-103550937D01*
X145876266Y-103550934D01*
X145876271Y-103550923D01*
X145935578Y-103278294D01*
X145944969Y-103146983D01*
X145966453Y-103099938D01*
X146520480Y-102545913D01*
X146529682Y-102529974D01*
X146573207Y-102454587D01*
X146600499Y-102352729D01*
X146600500Y-102352729D01*
X146600500Y-61811432D01*
X146622174Y-61759106D01*
X146639616Y-61746170D01*
X146655187Y-61737847D01*
X146786450Y-61667685D01*
X146946410Y-61536410D01*
X147077685Y-61376450D01*
X147175232Y-61193954D01*
X147235300Y-60995934D01*
X147255583Y-60790000D01*
X147235300Y-60584066D01*
X147175232Y-60386046D01*
X147077685Y-60203550D01*
X146946410Y-60043590D01*
X146786450Y-59912315D01*
X146603954Y-59814768D01*
X146492158Y-59780855D01*
X146405935Y-59754700D01*
X146200000Y-59734417D01*
X145994064Y-59754700D01*
X145796043Y-59814769D01*
X145613549Y-59912315D01*
X145453590Y-60043589D01*
X145453589Y-60043590D01*
X145322315Y-60203549D01*
X145224769Y-60386043D01*
X145164700Y-60584064D01*
X145144417Y-60790000D01*
X145164700Y-60995935D01*
X145167911Y-61006521D01*
X145224383Y-61192686D01*
X145224769Y-61193956D01*
X145322315Y-61376450D01*
X145448727Y-61530485D01*
X145453590Y-61536410D01*
X145613550Y-61667685D01*
X145744813Y-61737847D01*
X145760384Y-61746170D01*
X145796314Y-61789951D01*
X145799500Y-61811432D01*
X145799500Y-66435700D01*
X145777826Y-66488026D01*
X145725500Y-66509700D01*
X145673174Y-66488026D01*
X145660552Y-66471165D01*
X145645057Y-66442788D01*
X145578655Y-66354086D01*
X145477855Y-66219432D01*
X145280568Y-66022145D01*
X145162960Y-65934105D01*
X145057211Y-65854942D01*
X144812333Y-65721228D01*
X144550937Y-65623733D01*
X144550925Y-65623730D01*
X144550923Y-65623729D01*
X144458770Y-65603682D01*
X144412247Y-65571380D01*
X144400500Y-65531373D01*
X144400500Y-61570088D01*
X144417296Y-61523144D01*
X144537685Y-61376450D01*
X144635232Y-61193954D01*
X144695300Y-60995934D01*
X144715583Y-60790000D01*
X144695300Y-60584066D01*
X144635232Y-60386046D01*
X144537685Y-60203550D01*
X144406410Y-60043590D01*
X144246450Y-59912315D01*
X144063954Y-59814768D01*
X143952158Y-59780855D01*
X143865935Y-59754700D01*
X143660000Y-59734417D01*
X143454064Y-59754700D01*
X143256043Y-59814769D01*
X143073549Y-59912315D01*
X142913590Y-60043589D01*
X142913589Y-60043590D01*
X142782315Y-60203549D01*
X142684769Y-60386043D01*
X142624700Y-60584064D01*
X142604417Y-60790000D01*
X142624700Y-60995935D01*
X142627911Y-61006521D01*
X142684383Y-61192686D01*
X142684769Y-61193956D01*
X142782315Y-61376450D01*
X142908727Y-61530485D01*
X142913590Y-61536410D01*
X143073550Y-61667685D01*
X143256046Y-61765232D01*
X143454066Y-61825300D01*
X143532755Y-61833050D01*
X143582703Y-61859748D01*
X143599500Y-61906693D01*
X143599500Y-65531373D01*
X143577826Y-65583699D01*
X143541230Y-65603682D01*
X143449081Y-65623728D01*
X143449062Y-65623733D01*
X143187666Y-65721228D01*
X142942788Y-65854942D01*
X142719429Y-66022147D01*
X142522147Y-66219429D01*
X142354942Y-66442788D01*
X142221228Y-66687666D01*
X142143834Y-66895171D01*
X142105241Y-66936624D01*
X142048640Y-66938645D01*
X142007187Y-66900052D01*
X142000500Y-66869311D01*
X142000500Y-65934106D01*
X142000499Y-65934105D01*
X141981748Y-65864126D01*
X141966392Y-65806814D01*
X141900500Y-65692686D01*
X141807314Y-65599500D01*
X141758609Y-65571380D01*
X141693190Y-65533610D01*
X141693181Y-65533606D01*
X141565894Y-65499500D01*
X141565892Y-65499500D01*
X137155544Y-65499500D01*
X137103218Y-65477826D01*
X137081544Y-65425500D01*
X137103217Y-65373175D01*
X140680935Y-61795456D01*
X140733260Y-61773783D01*
X140754735Y-61776968D01*
X140914066Y-61825300D01*
X141120000Y-61845583D01*
X141325934Y-61825300D01*
X141523954Y-61765232D01*
X141706450Y-61667685D01*
X141866410Y-61536410D01*
X141997685Y-61376450D01*
X142095232Y-61193954D01*
X142155300Y-60995934D01*
X142175583Y-60790000D01*
X142155300Y-60584066D01*
X142095232Y-60386046D01*
X141997685Y-60203550D01*
X141866410Y-60043590D01*
X141706450Y-59912315D01*
X141523954Y-59814768D01*
X141412158Y-59780855D01*
X141325935Y-59754700D01*
X141120000Y-59734417D01*
X140914064Y-59754700D01*
X140716043Y-59814769D01*
X140533549Y-59912315D01*
X140373590Y-60043589D01*
X140373589Y-60043590D01*
X140242315Y-60203549D01*
X140144769Y-60386043D01*
X140084700Y-60584064D01*
X140064417Y-60790000D01*
X140084700Y-60995937D01*
X140133029Y-61155258D01*
X140127477Y-61211622D01*
X140114541Y-61229064D01*
X136665781Y-64677826D01*
X136613455Y-64699500D01*
X135415545Y-64699500D01*
X135363219Y-64677826D01*
X135341545Y-64625500D01*
X135363219Y-64573174D01*
X136053338Y-63883055D01*
X138140935Y-61795456D01*
X138193260Y-61773783D01*
X138214735Y-61776968D01*
X138374066Y-61825300D01*
X138580000Y-61845583D01*
X138785934Y-61825300D01*
X138983954Y-61765232D01*
X139166450Y-61667685D01*
X139326410Y-61536410D01*
X139457685Y-61376450D01*
X139555232Y-61193954D01*
X139615300Y-60995934D01*
X139635583Y-60790000D01*
X139615300Y-60584066D01*
X139555232Y-60386046D01*
X139457685Y-60203550D01*
X139326410Y-60043590D01*
X139166450Y-59912315D01*
X138983954Y-59814768D01*
X138872158Y-59780855D01*
X138785935Y-59754700D01*
X138580000Y-59734417D01*
X138374064Y-59754700D01*
X138176043Y-59814769D01*
X137993549Y-59912315D01*
X137833590Y-60043589D01*
X137833589Y-60043590D01*
X137702315Y-60203549D01*
X137604769Y-60386043D01*
X137544700Y-60584064D01*
X137524417Y-60790000D01*
X137544700Y-60995937D01*
X137593029Y-61155258D01*
X137587477Y-61211622D01*
X137574541Y-61229064D01*
X134725781Y-64077826D01*
X134673455Y-64099500D01*
X133475545Y-64099500D01*
X133423219Y-64077826D01*
X133401545Y-64025500D01*
X133423219Y-63973174D01*
X133921893Y-63474500D01*
X135600935Y-61795456D01*
X135653260Y-61773783D01*
X135674735Y-61776968D01*
X135834066Y-61825300D01*
X136040000Y-61845583D01*
X136245934Y-61825300D01*
X136443954Y-61765232D01*
X136626450Y-61667685D01*
X136786410Y-61536410D01*
X136917685Y-61376450D01*
X137015232Y-61193954D01*
X137075300Y-60995934D01*
X137095583Y-60790000D01*
X137075300Y-60584066D01*
X137015232Y-60386046D01*
X136917685Y-60203550D01*
X136786410Y-60043590D01*
X136626450Y-59912315D01*
X136443954Y-59814768D01*
X136332158Y-59780855D01*
X136245935Y-59754700D01*
X136040000Y-59734417D01*
X135834064Y-59754700D01*
X135636043Y-59814769D01*
X135453549Y-59912315D01*
X135293590Y-60043589D01*
X135293589Y-60043590D01*
X135162315Y-60203549D01*
X135064769Y-60386043D01*
X135004700Y-60584064D01*
X134984417Y-60790000D01*
X135004700Y-60995937D01*
X135053029Y-61155258D01*
X135047477Y-61211622D01*
X135034541Y-61229064D01*
X134676826Y-61586780D01*
X134624500Y-61608454D01*
X134572174Y-61586780D01*
X134550500Y-61534454D01*
X134550500Y-59920253D01*
X134548921Y-59912315D01*
X134538867Y-59861769D01*
X134494552Y-59795448D01*
X134472343Y-59780608D01*
X134428232Y-59751133D01*
X134428233Y-59751133D01*
X134398989Y-59745316D01*
X134369748Y-59739500D01*
X132630252Y-59739500D01*
X132601010Y-59745316D01*
X132571767Y-59751133D01*
X132505449Y-59795447D01*
X132505447Y-59795449D01*
X132461133Y-59861767D01*
X132449500Y-59920253D01*
X132449500Y-61598455D01*
X132427826Y-61650781D01*
X131200781Y-62877826D01*
X131148455Y-62899500D01*
X111752727Y-62899500D01*
X111647273Y-62899500D01*
X111596342Y-62913146D01*
X111545411Y-62926793D01*
X111545407Y-62926795D01*
X111454090Y-62979517D01*
X107837074Y-66596531D01*
X107784748Y-66618205D01*
X107732422Y-66596531D01*
X107719800Y-66579669D01*
X107645057Y-66442788D01*
X107578655Y-66354086D01*
X107477855Y-66219432D01*
X107280568Y-66022145D01*
X107162960Y-65934105D01*
X107057211Y-65854942D01*
X106812333Y-65721228D01*
X106550937Y-65623733D01*
X106550925Y-65623730D01*
X106550923Y-65623729D01*
X106495971Y-65611775D01*
X106278291Y-65564421D01*
X106000007Y-65544518D01*
X105999993Y-65544518D01*
X105721708Y-65564421D01*
X105449081Y-65623728D01*
X105449062Y-65623733D01*
X105187666Y-65721228D01*
X104942788Y-65854942D01*
X104719429Y-66022147D01*
X104522147Y-66219429D01*
X104354942Y-66442788D01*
X104221228Y-66687666D01*
X104143834Y-66895171D01*
X104105241Y-66936624D01*
X104048640Y-66938645D01*
X104007187Y-66900052D01*
X104000500Y-66869311D01*
X104000500Y-65934106D01*
X104000499Y-65934105D01*
X103981748Y-65864126D01*
X103966392Y-65806814D01*
X103900500Y-65692686D01*
X103807314Y-65599500D01*
X103758609Y-65571380D01*
X103693190Y-65533610D01*
X103693181Y-65533606D01*
X103565894Y-65499500D01*
X103565892Y-65499500D01*
X98565892Y-65499500D01*
X98434108Y-65499500D01*
X98434106Y-65499500D01*
X98306818Y-65533606D01*
X98306809Y-65533610D01*
X98192685Y-65599500D01*
X98099500Y-65692685D01*
X98033610Y-65806809D01*
X98033606Y-65806818D01*
X97999500Y-65934105D01*
X97999500Y-66869311D01*
X97977826Y-66921637D01*
X97925500Y-66943311D01*
X97873174Y-66921637D01*
X97856166Y-66895171D01*
X97778771Y-66687666D01*
X97645057Y-66442788D01*
X97578655Y-66354086D01*
X97477855Y-66219432D01*
X97280568Y-66022145D01*
X97162960Y-65934105D01*
X97057211Y-65854942D01*
X96812333Y-65721228D01*
X96550937Y-65623733D01*
X96550925Y-65623730D01*
X96550923Y-65623729D01*
X96495971Y-65611775D01*
X96278291Y-65564421D01*
X96000007Y-65544518D01*
X95999993Y-65544518D01*
X95721708Y-65564421D01*
X95449081Y-65623728D01*
X95449062Y-65623733D01*
X95187666Y-65721228D01*
X94942788Y-65854942D01*
X94719429Y-66022147D01*
X94522147Y-66219429D01*
X94354942Y-66442788D01*
X94221228Y-66687666D01*
X94123733Y-66949062D01*
X94123728Y-66949081D01*
X94064421Y-67221708D01*
X94044518Y-67499993D01*
X94044518Y-67500006D01*
X94064421Y-67778291D01*
X94123728Y-68050918D01*
X94123733Y-68050937D01*
X94221228Y-68312333D01*
X94354942Y-68557211D01*
X94424441Y-68650051D01*
X94522145Y-68780568D01*
X94719432Y-68977855D01*
X94864311Y-69086310D01*
X94942788Y-69145057D01*
X95187666Y-69278771D01*
X95395172Y-69356166D01*
X95436625Y-69394759D01*
X95438646Y-69451360D01*
X95400053Y-69492813D01*
X95369312Y-69499500D01*
X94434106Y-69499500D01*
X94306818Y-69533606D01*
X94306809Y-69533610D01*
X94192685Y-69599500D01*
X94099500Y-69692685D01*
X94033610Y-69806809D01*
X94033606Y-69806818D01*
X93999500Y-69934105D01*
X93999500Y-100565894D01*
X94033606Y-100693181D01*
X94033607Y-100693184D01*
X94033608Y-100693186D01*
X94099500Y-100807314D01*
X94192686Y-100900500D01*
X94306814Y-100966392D01*
X94434105Y-101000499D01*
X94434106Y-101000500D01*
X94434108Y-101000500D01*
X95369312Y-101000500D01*
X95421638Y-101022174D01*
X95443312Y-101074500D01*
X95421638Y-101126826D01*
X95395172Y-101143834D01*
X95187666Y-101221228D01*
X94942788Y-101354942D01*
X94719429Y-101522147D01*
X94522147Y-101719429D01*
X94354942Y-101942788D01*
X94221228Y-102187666D01*
X94123733Y-102449062D01*
X94123728Y-102449081D01*
X94064421Y-102721708D01*
X94044518Y-102999993D01*
X94044518Y-103000006D01*
X94064421Y-103278291D01*
X94123728Y-103550918D01*
X94123733Y-103550937D01*
X94221228Y-103812333D01*
X94354942Y-104057211D01*
X94389015Y-104102727D01*
X94522145Y-104280568D01*
X94719432Y-104477855D01*
X94819447Y-104552725D01*
X94942788Y-104645057D01*
X95187666Y-104778771D01*
X95449062Y-104876266D01*
X95449067Y-104876267D01*
X95449077Y-104876271D01*
X95721706Y-104935578D01*
X95783549Y-104940001D01*
X95999993Y-104955482D01*
X96000000Y-104955482D01*
X96000007Y-104955482D01*
X96194805Y-104941549D01*
X96278294Y-104935578D01*
X96550923Y-104876271D01*
X96550934Y-104876266D01*
X96550937Y-104876266D01*
X96812333Y-104778771D01*
X96833570Y-104767175D01*
X97057213Y-104645056D01*
X97280568Y-104477855D01*
X97477855Y-104280568D01*
X97645056Y-104057213D01*
X97778769Y-103812337D01*
X97778769Y-103812335D01*
X97778771Y-103812333D01*
X97856166Y-103604828D01*
X97894759Y-103563375D01*
X97951360Y-103561354D01*
X97992813Y-103599947D01*
X97999500Y-103630688D01*
X97999500Y-104065894D01*
X98033606Y-104193181D01*
X98033607Y-104193184D01*
X98033608Y-104193186D01*
X98099500Y-104307314D01*
X98192686Y-104400500D01*
X98306814Y-104466392D01*
X98434105Y-104500499D01*
X98434106Y-104500500D01*
X98434108Y-104500500D01*
X103565894Y-104500500D01*
X103565894Y-104500499D01*
X103693186Y-104466392D01*
X103807314Y-104400500D01*
X103900500Y-104307314D01*
X103966392Y-104193186D01*
X104000499Y-104065894D01*
X104000500Y-104065894D01*
X104000500Y-103630688D01*
X104022174Y-103578362D01*
X104074500Y-103556688D01*
X104126826Y-103578362D01*
X104143834Y-103604828D01*
X104221228Y-103812333D01*
X104354942Y-104057211D01*
X104389015Y-104102727D01*
X104522145Y-104280568D01*
X104719432Y-104477855D01*
X104819447Y-104552725D01*
X104942788Y-104645057D01*
X105187666Y-104778771D01*
X105449062Y-104876266D01*
X105449067Y-104876267D01*
X105449077Y-104876271D01*
X105721706Y-104935578D01*
X105783549Y-104940001D01*
X105999993Y-104955482D01*
X106000000Y-104955482D01*
X106000007Y-104955482D01*
X106194805Y-104941549D01*
X106278294Y-104935578D01*
X106550923Y-104876271D01*
X106550934Y-104876266D01*
X106550937Y-104876266D01*
X106812333Y-104778771D01*
X106833570Y-104767175D01*
X107057213Y-104645056D01*
X107280568Y-104477855D01*
X107477855Y-104280568D01*
X107645056Y-104057213D01*
X107778769Y-103812337D01*
X107778769Y-103812335D01*
X107778771Y-103812333D01*
X107876266Y-103550937D01*
X107876266Y-103550934D01*
X107876271Y-103550923D01*
X107935578Y-103278294D01*
X107944969Y-103146983D01*
X107966453Y-103099938D01*
X108520480Y-102545913D01*
X108529682Y-102529974D01*
X108573207Y-102454587D01*
X108600499Y-102352729D01*
X108600500Y-102352729D01*
X108600500Y-67996545D01*
X108622174Y-67944219D01*
X109773174Y-66793219D01*
X109825500Y-66771545D01*
X109877826Y-66793219D01*
X109899500Y-66845545D01*
X109899500Y-103997273D01*
X109899500Y-104102727D01*
X109923737Y-104193181D01*
X109926793Y-104204588D01*
X109926795Y-104204592D01*
X109979517Y-104295909D01*
X109979518Y-104295910D01*
X109979520Y-104295913D01*
X110520680Y-104837073D01*
X111056781Y-105373174D01*
X111078455Y-105425500D01*
X111056781Y-105477826D01*
X111004455Y-105499500D01*
X82574500Y-105499500D01*
X82522174Y-105477826D01*
X82500500Y-105425500D01*
X82500500Y-101500000D01*
X83294958Y-101500000D01*
X83315111Y-101858853D01*
X83315113Y-101858865D01*
X83375313Y-102213184D01*
X83474815Y-102558560D01*
X83612352Y-102890607D01*
X83612363Y-102890628D01*
X83786206Y-103205173D01*
X83786210Y-103205180D01*
X83994199Y-103498313D01*
X84100213Y-103616942D01*
X85235502Y-102481652D01*
X85279588Y-102542330D01*
X85457670Y-102720412D01*
X85518346Y-102764495D01*
X84383055Y-103899786D01*
X84501681Y-104005796D01*
X84794819Y-104213789D01*
X84794826Y-104213793D01*
X85109371Y-104387636D01*
X85109392Y-104387647D01*
X85441439Y-104525184D01*
X85786816Y-104624686D01*
X85786814Y-104624686D01*
X86141134Y-104684886D01*
X86141146Y-104684888D01*
X86500000Y-104705041D01*
X86858853Y-104684888D01*
X86858865Y-104684886D01*
X87213184Y-104624686D01*
X87558560Y-104525184D01*
X87890607Y-104387647D01*
X87890628Y-104387636D01*
X88205173Y-104213793D01*
X88205180Y-104213789D01*
X88498318Y-104005796D01*
X88616942Y-103899786D01*
X88616943Y-103899786D01*
X87481653Y-102764496D01*
X87542330Y-102720412D01*
X87720412Y-102542330D01*
X87764496Y-102481653D01*
X88899786Y-103616943D01*
X88899786Y-103616942D01*
X89005796Y-103498318D01*
X89213789Y-103205180D01*
X89213793Y-103205173D01*
X89387636Y-102890628D01*
X89387647Y-102890607D01*
X89525184Y-102558560D01*
X89624686Y-102213184D01*
X89684886Y-101858865D01*
X89684888Y-101858853D01*
X89705041Y-101500000D01*
X89684888Y-101141146D01*
X89684886Y-101141134D01*
X89624686Y-100786815D01*
X89525184Y-100441439D01*
X89387647Y-100109392D01*
X89387636Y-100109371D01*
X89213793Y-99794826D01*
X89213789Y-99794819D01*
X89005796Y-99501681D01*
X88899786Y-99383056D01*
X88899786Y-99383055D01*
X87764495Y-100518345D01*
X87720412Y-100457670D01*
X87542330Y-100279588D01*
X87481652Y-100235502D01*
X88616942Y-99100213D01*
X88498313Y-98994199D01*
X88205180Y-98786210D01*
X88205173Y-98786206D01*
X87890628Y-98612363D01*
X87890607Y-98612352D01*
X87558560Y-98474815D01*
X87213183Y-98375313D01*
X87213185Y-98375313D01*
X86858865Y-98315113D01*
X86858853Y-98315111D01*
X86500000Y-98294958D01*
X86141146Y-98315111D01*
X86141134Y-98315113D01*
X85786815Y-98375313D01*
X85441439Y-98474815D01*
X85109392Y-98612352D01*
X85109371Y-98612363D01*
X84794826Y-98786206D01*
X84794819Y-98786210D01*
X84501686Y-98994199D01*
X84383055Y-99100212D01*
X85518346Y-100235503D01*
X85457670Y-100279588D01*
X85279588Y-100457670D01*
X85235503Y-100518346D01*
X84100212Y-99383055D01*
X83994199Y-99501686D01*
X83786210Y-99794819D01*
X83786206Y-99794826D01*
X83612363Y-100109371D01*
X83612352Y-100109392D01*
X83474815Y-100441439D01*
X83375313Y-100786815D01*
X83315113Y-101141134D01*
X83315111Y-101141146D01*
X83294958Y-101500000D01*
X82500500Y-101500000D01*
X82500500Y-66000000D01*
X83294958Y-66000000D01*
X83315111Y-66358853D01*
X83315113Y-66358865D01*
X83375313Y-66713184D01*
X83474815Y-67058560D01*
X83612352Y-67390607D01*
X83612363Y-67390628D01*
X83786206Y-67705173D01*
X83786210Y-67705180D01*
X83994199Y-67998313D01*
X84100213Y-68116942D01*
X85235502Y-66981652D01*
X85279588Y-67042330D01*
X85457670Y-67220412D01*
X85518346Y-67264495D01*
X84383055Y-68399786D01*
X84501681Y-68505796D01*
X84794819Y-68713789D01*
X84794826Y-68713793D01*
X85109371Y-68887636D01*
X85109392Y-68887647D01*
X85441439Y-69025184D01*
X85786816Y-69124686D01*
X85786814Y-69124686D01*
X86141134Y-69184886D01*
X86141146Y-69184888D01*
X86500000Y-69205041D01*
X86858853Y-69184888D01*
X86858865Y-69184886D01*
X87213184Y-69124686D01*
X87558560Y-69025184D01*
X87890607Y-68887647D01*
X87890628Y-68887636D01*
X88205173Y-68713793D01*
X88205180Y-68713789D01*
X88498318Y-68505796D01*
X88616942Y-68399786D01*
X88616943Y-68399786D01*
X87481653Y-67264496D01*
X87542330Y-67220412D01*
X87720412Y-67042330D01*
X87764496Y-66981653D01*
X88899786Y-68116943D01*
X88899786Y-68116942D01*
X89005796Y-67998318D01*
X89213789Y-67705180D01*
X89213793Y-67705173D01*
X89387636Y-67390628D01*
X89387647Y-67390607D01*
X89525184Y-67058560D01*
X89624686Y-66713184D01*
X89684886Y-66358865D01*
X89684888Y-66358853D01*
X89705041Y-66000000D01*
X89684888Y-65641146D01*
X89684886Y-65641134D01*
X89624686Y-65286815D01*
X89525184Y-64941439D01*
X89387647Y-64609392D01*
X89387636Y-64609371D01*
X89213793Y-64294826D01*
X89213789Y-64294819D01*
X89005796Y-64001681D01*
X88899786Y-63883056D01*
X88899786Y-63883055D01*
X87764495Y-65018345D01*
X87720412Y-64957670D01*
X87542330Y-64779588D01*
X87481652Y-64735502D01*
X88616942Y-63600213D01*
X88498313Y-63494199D01*
X88205180Y-63286210D01*
X88205173Y-63286206D01*
X87890628Y-63112363D01*
X87890607Y-63112352D01*
X87558560Y-62974815D01*
X87213183Y-62875313D01*
X87213185Y-62875313D01*
X86858865Y-62815113D01*
X86858853Y-62815111D01*
X86500000Y-62794958D01*
X86141146Y-62815111D01*
X86141134Y-62815113D01*
X85786815Y-62875313D01*
X85441439Y-62974815D01*
X85109392Y-63112352D01*
X85109371Y-63112363D01*
X84794826Y-63286206D01*
X84794819Y-63286210D01*
X84501686Y-63494199D01*
X84383055Y-63600212D01*
X85518346Y-64735503D01*
X85457670Y-64779588D01*
X85279588Y-64957670D01*
X85235503Y-65018346D01*
X84100212Y-63883055D01*
X83994199Y-64001686D01*
X83786210Y-64294819D01*
X83786206Y-64294826D01*
X83612363Y-64609371D01*
X83612352Y-64609392D01*
X83474815Y-64941439D01*
X83375313Y-65286815D01*
X83315113Y-65641134D01*
X83315111Y-65641146D01*
X83294958Y-66000000D01*
X82500500Y-66000000D01*
X82500500Y-62074500D01*
X82522174Y-62022174D01*
X82574500Y-62000500D01*
X131465894Y-62000500D01*
X131465894Y-62000499D01*
X131593186Y-61966392D01*
X131707314Y-61900500D01*
X131800500Y-61807314D01*
X131866392Y-61693186D01*
X131900499Y-61565894D01*
X131900500Y-61565894D01*
X131900500Y-58250000D01*
X132444417Y-58250000D01*
X132464700Y-58455934D01*
X132524768Y-58653954D01*
X132622315Y-58836450D01*
X132753590Y-58996410D01*
X132913550Y-59127685D01*
X133096046Y-59225232D01*
X133294066Y-59285300D01*
X133500000Y-59305583D01*
X133705934Y-59285300D01*
X133903954Y-59225232D01*
X134086450Y-59127685D01*
X134246410Y-58996410D01*
X134377685Y-58836450D01*
X134475232Y-58653954D01*
X134535300Y-58455934D01*
X134555583Y-58250000D01*
X134984417Y-58250000D01*
X135004700Y-58455934D01*
X135064768Y-58653954D01*
X135162315Y-58836450D01*
X135293590Y-58996410D01*
X135453550Y-59127685D01*
X135636046Y-59225232D01*
X135834066Y-59285300D01*
X136040000Y-59305583D01*
X136245934Y-59285300D01*
X136443954Y-59225232D01*
X136626450Y-59127685D01*
X136786410Y-58996410D01*
X136917685Y-58836450D01*
X137015232Y-58653954D01*
X137075300Y-58455934D01*
X137095583Y-58250000D01*
X137524417Y-58250000D01*
X137544700Y-58455934D01*
X137604768Y-58653954D01*
X137702315Y-58836450D01*
X137833590Y-58996410D01*
X137993550Y-59127685D01*
X138176046Y-59225232D01*
X138374066Y-59285300D01*
X138580000Y-59305583D01*
X138785934Y-59285300D01*
X138983954Y-59225232D01*
X139166450Y-59127685D01*
X139326410Y-58996410D01*
X139457685Y-58836450D01*
X139555232Y-58653954D01*
X139615300Y-58455934D01*
X139635583Y-58250000D01*
X140064417Y-58250000D01*
X140084700Y-58455934D01*
X140144768Y-58653954D01*
X140242315Y-58836450D01*
X140373590Y-58996410D01*
X140533550Y-59127685D01*
X140716046Y-59225232D01*
X140914066Y-59285300D01*
X141120000Y-59305583D01*
X141325934Y-59285300D01*
X141523954Y-59225232D01*
X141706450Y-59127685D01*
X141866410Y-58996410D01*
X141997685Y-58836450D01*
X142095232Y-58653954D01*
X142155300Y-58455934D01*
X142175583Y-58250000D01*
X142604417Y-58250000D01*
X142624700Y-58455934D01*
X142684768Y-58653954D01*
X142782315Y-58836450D01*
X142913590Y-58996410D01*
X143073550Y-59127685D01*
X143256046Y-59225232D01*
X143454066Y-59285300D01*
X143660000Y-59305583D01*
X143865934Y-59285300D01*
X144063954Y-59225232D01*
X144246450Y-59127685D01*
X144406410Y-58996410D01*
X144537685Y-58836450D01*
X144635232Y-58653954D01*
X144695300Y-58455934D01*
X144715583Y-58250000D01*
X145144417Y-58250000D01*
X145164700Y-58455934D01*
X145224768Y-58653954D01*
X145322315Y-58836450D01*
X145453590Y-58996410D01*
X145613550Y-59127685D01*
X145796046Y-59225232D01*
X145994066Y-59285300D01*
X146200000Y-59305583D01*
X146405934Y-59285300D01*
X146603954Y-59225232D01*
X146786450Y-59127685D01*
X146946410Y-58996410D01*
X147077685Y-58836450D01*
X147175232Y-58653954D01*
X147235300Y-58455934D01*
X147255583Y-58250000D01*
X147684417Y-58250000D01*
X147704700Y-58455934D01*
X147764768Y-58653954D01*
X147862315Y-58836450D01*
X147993590Y-58996410D01*
X148153550Y-59127685D01*
X148336046Y-59225232D01*
X148534066Y-59285300D01*
X148740000Y-59305583D01*
X148945934Y-59285300D01*
X149143954Y-59225232D01*
X149326450Y-59127685D01*
X149486410Y-58996410D01*
X149617685Y-58836450D01*
X149715232Y-58653954D01*
X149775300Y-58455934D01*
X149795583Y-58250000D01*
X150224417Y-58250000D01*
X150244700Y-58455934D01*
X150304768Y-58653954D01*
X150402315Y-58836450D01*
X150533590Y-58996410D01*
X150693550Y-59127685D01*
X150876046Y-59225232D01*
X151074066Y-59285300D01*
X151280000Y-59305583D01*
X151485934Y-59285300D01*
X151683954Y-59225232D01*
X151866450Y-59127685D01*
X152026410Y-58996410D01*
X152157685Y-58836450D01*
X152255232Y-58653954D01*
X152315300Y-58455934D01*
X152335583Y-58250000D01*
X152764417Y-58250000D01*
X152784700Y-58455934D01*
X152844768Y-58653954D01*
X152942315Y-58836450D01*
X153073590Y-58996410D01*
X153233550Y-59127685D01*
X153416046Y-59225232D01*
X153614066Y-59285300D01*
X153820000Y-59305583D01*
X154025934Y-59285300D01*
X154223954Y-59225232D01*
X154406450Y-59127685D01*
X154566410Y-58996410D01*
X154697685Y-58836450D01*
X154795232Y-58653954D01*
X154855300Y-58455934D01*
X154875583Y-58250000D01*
X155304417Y-58250000D01*
X155324700Y-58455934D01*
X155384768Y-58653954D01*
X155482315Y-58836450D01*
X155613590Y-58996410D01*
X155773550Y-59127685D01*
X155956046Y-59225232D01*
X156154066Y-59285300D01*
X156360000Y-59305583D01*
X156565934Y-59285300D01*
X156763954Y-59225232D01*
X156946450Y-59127685D01*
X157106410Y-58996410D01*
X157237685Y-58836450D01*
X157335232Y-58653954D01*
X157395300Y-58455934D01*
X157415583Y-58250000D01*
X157844417Y-58250000D01*
X157864700Y-58455934D01*
X157924768Y-58653954D01*
X158022315Y-58836450D01*
X158153590Y-58996410D01*
X158313550Y-59127685D01*
X158496046Y-59225232D01*
X158694066Y-59285300D01*
X158900000Y-59305583D01*
X159105934Y-59285300D01*
X159303954Y-59225232D01*
X159486450Y-59127685D01*
X159646410Y-58996410D01*
X159777685Y-58836450D01*
X159875232Y-58653954D01*
X159935300Y-58455934D01*
X159955583Y-58250000D01*
X160384417Y-58250000D01*
X160404700Y-58455934D01*
X160464768Y-58653954D01*
X160562315Y-58836450D01*
X160693590Y-58996410D01*
X160853550Y-59127685D01*
X161036046Y-59225232D01*
X161234066Y-59285300D01*
X161440000Y-59305583D01*
X161645934Y-59285300D01*
X161843954Y-59225232D01*
X162026450Y-59127685D01*
X162186410Y-58996410D01*
X162317685Y-58836450D01*
X162415232Y-58653954D01*
X162475300Y-58455934D01*
X162495583Y-58250000D01*
X162475300Y-58044066D01*
X162415232Y-57846046D01*
X162317685Y-57663550D01*
X162186410Y-57503590D01*
X162026450Y-57372315D01*
X161843954Y-57274768D01*
X161732158Y-57240855D01*
X161645935Y-57214700D01*
X161440000Y-57194417D01*
X161234064Y-57214700D01*
X161036043Y-57274769D01*
X160853549Y-57372315D01*
X160693590Y-57503589D01*
X160693589Y-57503590D01*
X160562315Y-57663549D01*
X160464769Y-57846043D01*
X160404700Y-58044064D01*
X160404700Y-58044066D01*
X160384417Y-58250000D01*
X159955583Y-58250000D01*
X159935300Y-58044066D01*
X159875232Y-57846046D01*
X159777685Y-57663550D01*
X159646410Y-57503590D01*
X159486450Y-57372315D01*
X159303954Y-57274768D01*
X159192158Y-57240855D01*
X159105935Y-57214700D01*
X158900000Y-57194417D01*
X158694064Y-57214700D01*
X158496043Y-57274769D01*
X158313549Y-57372315D01*
X158153590Y-57503589D01*
X158153589Y-57503590D01*
X158022315Y-57663549D01*
X157924769Y-57846043D01*
X157864700Y-58044064D01*
X157864700Y-58044066D01*
X157844417Y-58250000D01*
X157415583Y-58250000D01*
X157395300Y-58044066D01*
X157335232Y-57846046D01*
X157237685Y-57663550D01*
X157106410Y-57503590D01*
X156946450Y-57372315D01*
X156763954Y-57274768D01*
X156652158Y-57240855D01*
X156565935Y-57214700D01*
X156360000Y-57194417D01*
X156154064Y-57214700D01*
X155956043Y-57274769D01*
X155773549Y-57372315D01*
X155613590Y-57503589D01*
X155613589Y-57503590D01*
X155482315Y-57663549D01*
X155384769Y-57846043D01*
X155324700Y-58044064D01*
X155324700Y-58044066D01*
X155304417Y-58250000D01*
X154875583Y-58250000D01*
X154855300Y-58044066D01*
X154795232Y-57846046D01*
X154697685Y-57663550D01*
X154566410Y-57503590D01*
X154406450Y-57372315D01*
X154223954Y-57274768D01*
X154112158Y-57240855D01*
X154025935Y-57214700D01*
X153820000Y-57194417D01*
X153614064Y-57214700D01*
X153416043Y-57274769D01*
X153233549Y-57372315D01*
X153073590Y-57503589D01*
X153073589Y-57503590D01*
X152942315Y-57663549D01*
X152844769Y-57846043D01*
X152784700Y-58044064D01*
X152784700Y-58044066D01*
X152764417Y-58250000D01*
X152335583Y-58250000D01*
X152315300Y-58044066D01*
X152255232Y-57846046D01*
X152157685Y-57663550D01*
X152026410Y-57503590D01*
X151866450Y-57372315D01*
X151683954Y-57274768D01*
X151572158Y-57240855D01*
X151485935Y-57214700D01*
X151280000Y-57194417D01*
X151074064Y-57214700D01*
X150876043Y-57274769D01*
X150693549Y-57372315D01*
X150533590Y-57503589D01*
X150533589Y-57503590D01*
X150402315Y-57663549D01*
X150304769Y-57846043D01*
X150244700Y-58044064D01*
X150244700Y-58044066D01*
X150224417Y-58250000D01*
X149795583Y-58250000D01*
X149775300Y-58044066D01*
X149715232Y-57846046D01*
X149617685Y-57663550D01*
X149486410Y-57503590D01*
X149326450Y-57372315D01*
X149143954Y-57274768D01*
X149032158Y-57240855D01*
X148945935Y-57214700D01*
X148740000Y-57194417D01*
X148534064Y-57214700D01*
X148336043Y-57274769D01*
X148153549Y-57372315D01*
X147993590Y-57503589D01*
X147993589Y-57503590D01*
X147862315Y-57663549D01*
X147764769Y-57846043D01*
X147704700Y-58044064D01*
X147704700Y-58044066D01*
X147684417Y-58250000D01*
X147255583Y-58250000D01*
X147235300Y-58044066D01*
X147175232Y-57846046D01*
X147077685Y-57663550D01*
X146946410Y-57503590D01*
X146786450Y-57372315D01*
X146603954Y-57274768D01*
X146492158Y-57240855D01*
X146405935Y-57214700D01*
X146200000Y-57194417D01*
X145994064Y-57214700D01*
X145796043Y-57274769D01*
X145613549Y-57372315D01*
X145453590Y-57503589D01*
X145453589Y-57503590D01*
X145322315Y-57663549D01*
X145224769Y-57846043D01*
X145164700Y-58044064D01*
X145164700Y-58044066D01*
X145144417Y-58250000D01*
X144715583Y-58250000D01*
X144695300Y-58044066D01*
X144635232Y-57846046D01*
X144537685Y-57663550D01*
X144406410Y-57503590D01*
X144246450Y-57372315D01*
X144063954Y-57274768D01*
X143952158Y-57240855D01*
X143865935Y-57214700D01*
X143660000Y-57194417D01*
X143454064Y-57214700D01*
X143256043Y-57274769D01*
X143073549Y-57372315D01*
X142913590Y-57503589D01*
X142913589Y-57503590D01*
X142782315Y-57663549D01*
X142684769Y-57846043D01*
X142624700Y-58044064D01*
X142624700Y-58044066D01*
X142604417Y-58250000D01*
X142175583Y-58250000D01*
X142155300Y-58044066D01*
X142095232Y-57846046D01*
X141997685Y-57663550D01*
X141866410Y-57503590D01*
X141706450Y-57372315D01*
X141523954Y-57274768D01*
X141412158Y-57240855D01*
X141325935Y-57214700D01*
X141120000Y-57194417D01*
X140914064Y-57214700D01*
X140716043Y-57274769D01*
X140533549Y-57372315D01*
X140373590Y-57503589D01*
X140373589Y-57503590D01*
X140242315Y-57663549D01*
X140144769Y-57846043D01*
X140084700Y-58044064D01*
X140084700Y-58044066D01*
X140064417Y-58250000D01*
X139635583Y-58250000D01*
X139615300Y-58044066D01*
X139555232Y-57846046D01*
X139457685Y-57663550D01*
X139326410Y-57503590D01*
X139166450Y-57372315D01*
X138983954Y-57274768D01*
X138872158Y-57240855D01*
X138785935Y-57214700D01*
X138580000Y-57194417D01*
X138374064Y-57214700D01*
X138176043Y-57274769D01*
X137993549Y-57372315D01*
X137833590Y-57503589D01*
X137833589Y-57503590D01*
X137702315Y-57663549D01*
X137604769Y-57846043D01*
X137544700Y-58044064D01*
X137544700Y-58044066D01*
X137524417Y-58250000D01*
X137095583Y-58250000D01*
X137075300Y-58044066D01*
X137015232Y-57846046D01*
X136917685Y-57663550D01*
X136786410Y-57503590D01*
X136626450Y-57372315D01*
X136443954Y-57274768D01*
X136332158Y-57240855D01*
X136245935Y-57214700D01*
X136040000Y-57194417D01*
X135834064Y-57214700D01*
X135636043Y-57274769D01*
X135453549Y-57372315D01*
X135293590Y-57503589D01*
X135293589Y-57503590D01*
X135162315Y-57663549D01*
X135064769Y-57846043D01*
X135004700Y-58044064D01*
X135004700Y-58044066D01*
X134984417Y-58250000D01*
X134555583Y-58250000D01*
X134535300Y-58044066D01*
X134475232Y-57846046D01*
X134377685Y-57663550D01*
X134246410Y-57503590D01*
X134086450Y-57372315D01*
X133903954Y-57274768D01*
X133792158Y-57240855D01*
X133705935Y-57214700D01*
X133500000Y-57194417D01*
X133294064Y-57214700D01*
X133096043Y-57274769D01*
X132913549Y-57372315D01*
X132753590Y-57503589D01*
X132753589Y-57503590D01*
X132622315Y-57663549D01*
X132524769Y-57846043D01*
X132464700Y-58044064D01*
X132464700Y-58044066D01*
X132444417Y-58250000D01*
X131900500Y-58250000D01*
X131900500Y-56724500D01*
X131922174Y-56672174D01*
X131974500Y-56650500D01*
X162925500Y-56650500D01*
X162977826Y-56672174D01*
G37*
%TD.AperFunction*%
%TD*%
%TA.AperFunction,NonConductor*%
G36*
X134296780Y-61862174D02*
G01*
X134318454Y-61914500D01*
X134296780Y-61966826D01*
X132785781Y-63477826D01*
X132733455Y-63499500D01*
X131890545Y-63499500D01*
X131838219Y-63477826D01*
X131816545Y-63425500D01*
X131838219Y-63373174D01*
X133349219Y-61862174D01*
X133401545Y-61840500D01*
X134244454Y-61840500D01*
X134296780Y-61862174D01*
G37*
%TD.AperFunction*%
%TA.AperFunction,NonConductor*%
G36*
X198355781Y-63422174D02*
G01*
X200777826Y-65844218D01*
X200799500Y-65896544D01*
X200799500Y-66435700D01*
X200777826Y-66488026D01*
X200725500Y-66509700D01*
X200673174Y-66488026D01*
X200660552Y-66471165D01*
X200645057Y-66442788D01*
X200578655Y-66354086D01*
X200477855Y-66219432D01*
X200280568Y-66022145D01*
X200162960Y-65934105D01*
X200057211Y-65854942D01*
X199812333Y-65721228D01*
X199550937Y-65623733D01*
X199550925Y-65623730D01*
X199550923Y-65623729D01*
X199495971Y-65611775D01*
X199278291Y-65564421D01*
X199146984Y-65555030D01*
X199099937Y-65533545D01*
X197093219Y-63526826D01*
X197071545Y-63474500D01*
X197093219Y-63422174D01*
X197145545Y-63400500D01*
X198303455Y-63400500D01*
X198355781Y-63422174D01*
G37*
%TD.AperFunction*%
%TA.AperFunction,NonConductor*%
G36*
X158626826Y-66193219D02*
G01*
X158823349Y-66389742D01*
X158845023Y-66442068D01*
X158835971Y-66477533D01*
X158721228Y-66687666D01*
X158643834Y-66895171D01*
X158605241Y-66936624D01*
X158548640Y-66938645D01*
X158507187Y-66900052D01*
X158500500Y-66869311D01*
X158500500Y-66245545D01*
X158522174Y-66193219D01*
X158574500Y-66171545D01*
X158626826Y-66193219D01*
G37*
%TD.AperFunction*%
%TA.AperFunction,NonConductor*%
G36*
X136165360Y-65522174D02*
G01*
X136187034Y-65574500D01*
X136165360Y-65626826D01*
X136099500Y-65692685D01*
X136033610Y-65806809D01*
X136033606Y-65806818D01*
X135999500Y-65934105D01*
X135999500Y-66869311D01*
X135977826Y-66921637D01*
X135925500Y-66943311D01*
X135873174Y-66921637D01*
X135856166Y-66895171D01*
X135778771Y-66687666D01*
X135645057Y-66442788D01*
X135578655Y-66354086D01*
X135477855Y-66219432D01*
X135280568Y-66022145D01*
X135162960Y-65934105D01*
X135057211Y-65854942D01*
X134812333Y-65721228D01*
X134604828Y-65643834D01*
X134563375Y-65605241D01*
X134561354Y-65548640D01*
X134599947Y-65507187D01*
X134630688Y-65500500D01*
X136113034Y-65500500D01*
X136165360Y-65522174D01*
G37*
%TD.AperFunction*%
%TA.AperFunction,NonConductor*%
G36*
X124406782Y-64922174D02*
G01*
X124428456Y-64974500D01*
X124406782Y-65026826D01*
X123610258Y-65823348D01*
X123557932Y-65845022D01*
X123522468Y-65835970D01*
X123312338Y-65721230D01*
X123312334Y-65721229D01*
X123050937Y-65623733D01*
X123050925Y-65623730D01*
X123050923Y-65623729D01*
X122995971Y-65611775D01*
X122778291Y-65564421D01*
X122500007Y-65544518D01*
X122499993Y-65544518D01*
X122221708Y-65564421D01*
X121949081Y-65623728D01*
X121949062Y-65623733D01*
X121687666Y-65721228D01*
X121442788Y-65854942D01*
X121219429Y-66022147D01*
X121022147Y-66219429D01*
X120854942Y-66442788D01*
X120721228Y-66687666D01*
X120643834Y-66895171D01*
X120605241Y-66936624D01*
X120548640Y-66938645D01*
X120507187Y-66900052D01*
X120500500Y-66869311D01*
X120500500Y-65934106D01*
X120500499Y-65934105D01*
X120481748Y-65864126D01*
X120466392Y-65806814D01*
X120400500Y-65692686D01*
X120307314Y-65599500D01*
X120258609Y-65571380D01*
X120193190Y-65533610D01*
X120193181Y-65533606D01*
X120065894Y-65499500D01*
X120065892Y-65499500D01*
X115065892Y-65499500D01*
X114934108Y-65499500D01*
X114934106Y-65499500D01*
X114806818Y-65533606D01*
X114806809Y-65533610D01*
X114692685Y-65599500D01*
X114599500Y-65692685D01*
X114533610Y-65806809D01*
X114533606Y-65806818D01*
X114499500Y-65934105D01*
X114499500Y-66869311D01*
X114477826Y-66921637D01*
X114425500Y-66943311D01*
X114373174Y-66921637D01*
X114356166Y-66895171D01*
X114278771Y-66687666D01*
X114145057Y-66442788D01*
X114078655Y-66354086D01*
X113977855Y-66219432D01*
X113780568Y-66022145D01*
X113662960Y-65934105D01*
X113557211Y-65854942D01*
X113312333Y-65721228D01*
X113050937Y-65623733D01*
X113050925Y-65623730D01*
X113050923Y-65623729D01*
X112995971Y-65611775D01*
X112778291Y-65564421D01*
X112500007Y-65544518D01*
X112499993Y-65544518D01*
X112221708Y-65564421D01*
X112135305Y-65583217D01*
X112079567Y-65573161D01*
X112047266Y-65526638D01*
X112057322Y-65470900D01*
X112067243Y-65458588D01*
X112603659Y-64922174D01*
X112655985Y-64900500D01*
X124354456Y-64900500D01*
X124406782Y-64922174D01*
G37*
%TD.AperFunction*%
%TA.AperFunction,NonConductor*%
G36*
X133421638Y-65522174D02*
G01*
X133443312Y-65574500D01*
X133421638Y-65626826D01*
X133395172Y-65643834D01*
X133187666Y-65721228D01*
X132942788Y-65854942D01*
X132719429Y-66022147D01*
X132522147Y-66219429D01*
X132354942Y-66442788D01*
X132221228Y-66687666D01*
X132123733Y-66949062D01*
X132123728Y-66949081D01*
X132064834Y-67219808D01*
X132032532Y-67266331D01*
X131976795Y-67276387D01*
X131930272Y-67244085D01*
X131928439Y-67241078D01*
X131900500Y-67192686D01*
X131807314Y-67099500D01*
X131708293Y-67042330D01*
X131693190Y-67033610D01*
X131693181Y-67033606D01*
X131565894Y-66999500D01*
X131565892Y-66999500D01*
X125065892Y-66999500D01*
X124934108Y-66999500D01*
X124934106Y-66999500D01*
X124806818Y-67033606D01*
X124806809Y-67033610D01*
X124692685Y-67099500D01*
X124599499Y-67192686D01*
X124571559Y-67241079D01*
X124526626Y-67275557D01*
X124470473Y-67268163D01*
X124435995Y-67223230D01*
X124435165Y-67219808D01*
X124429265Y-67192685D01*
X124376271Y-66949077D01*
X124376267Y-66949068D01*
X124376266Y-66949062D01*
X124278771Y-66687667D01*
X124278769Y-66687663D01*
X124164026Y-66477529D01*
X124157972Y-66421219D01*
X124176647Y-66389743D01*
X125044218Y-65522174D01*
X125096544Y-65500500D01*
X133369312Y-65500500D01*
X133421638Y-65522174D01*
G37*
%TD.AperFunction*%
%TA.AperFunction,NonConductor*%
G36*
X110826826Y-68511973D02*
G01*
X110839446Y-68528831D01*
X110854944Y-68557213D01*
X111022145Y-68780568D01*
X111219432Y-68977855D01*
X111364311Y-69086310D01*
X111442788Y-69145057D01*
X111687666Y-69278771D01*
X111895172Y-69356166D01*
X111936625Y-69394759D01*
X111938646Y-69451360D01*
X111900053Y-69492813D01*
X111869312Y-69499500D01*
X110934106Y-69499500D01*
X110806818Y-69533606D01*
X110802817Y-69535264D01*
X110746179Y-69535262D01*
X110706132Y-69495213D01*
X110700500Y-69466896D01*
X110700500Y-68564299D01*
X110722174Y-68511973D01*
X110774500Y-68490299D01*
X110826826Y-68511973D01*
G37*
%TD.AperFunction*%
%TA.AperFunction,NonConductor*%
G36*
X200760964Y-68499350D02*
G01*
X200796502Y-68543450D01*
X200799500Y-68564299D01*
X200799500Y-69466896D01*
X200777826Y-69519222D01*
X200725500Y-69540896D01*
X200697183Y-69535264D01*
X200693181Y-69533606D01*
X200565894Y-69499500D01*
X200565892Y-69499500D01*
X199630688Y-69499500D01*
X199578362Y-69477826D01*
X199556688Y-69425500D01*
X199578362Y-69373174D01*
X199604828Y-69356166D01*
X199812333Y-69278771D01*
X199885097Y-69239039D01*
X200057213Y-69145056D01*
X200280568Y-68977855D01*
X200477855Y-68780568D01*
X200645056Y-68557213D01*
X200660552Y-68528834D01*
X200704651Y-68493297D01*
X200760964Y-68499350D01*
G37*
%TD.AperFunction*%
%TA.AperFunction,NonConductor*%
G36*
X145760964Y-68499350D02*
G01*
X145796502Y-68543450D01*
X145799500Y-68564299D01*
X145799500Y-69466896D01*
X145777826Y-69519222D01*
X145725500Y-69540896D01*
X145697183Y-69535264D01*
X145693181Y-69533606D01*
X145565894Y-69499500D01*
X145565892Y-69499500D01*
X144630688Y-69499500D01*
X144578362Y-69477826D01*
X144556688Y-69425500D01*
X144578362Y-69373174D01*
X144604828Y-69356166D01*
X144812333Y-69278771D01*
X144885097Y-69239039D01*
X145057213Y-69145056D01*
X145280568Y-68977855D01*
X145477855Y-68780568D01*
X145645056Y-68557213D01*
X145660552Y-68528834D01*
X145704651Y-68493297D01*
X145760964Y-68499350D01*
G37*
%TD.AperFunction*%
%TA.AperFunction,NonConductor*%
G36*
X107760964Y-68499350D02*
G01*
X107796502Y-68543450D01*
X107799500Y-68564299D01*
X107799500Y-69466896D01*
X107777826Y-69519222D01*
X107725500Y-69540896D01*
X107697183Y-69535264D01*
X107693181Y-69533606D01*
X107565894Y-69499500D01*
X107565892Y-69499500D01*
X106630688Y-69499500D01*
X106578362Y-69477826D01*
X106556688Y-69425500D01*
X106578362Y-69373174D01*
X106604828Y-69356166D01*
X106812333Y-69278771D01*
X106885097Y-69239039D01*
X107057213Y-69145056D01*
X107280568Y-68977855D01*
X107477855Y-68780568D01*
X107645056Y-68557213D01*
X107660552Y-68528834D01*
X107704651Y-68493297D01*
X107760964Y-68499350D01*
G37*
%TD.AperFunction*%
%TA.AperFunction,NonConductor*%
G36*
X148776826Y-68420405D02*
G01*
X148789448Y-68437267D01*
X148854940Y-68557208D01*
X148854944Y-68557213D01*
X149022145Y-68780568D01*
X149219432Y-68977855D01*
X149364311Y-69086310D01*
X149442788Y-69145057D01*
X149687666Y-69278771D01*
X149895172Y-69356166D01*
X149936625Y-69394759D01*
X149938646Y-69451360D01*
X149900053Y-69492813D01*
X149869312Y-69499500D01*
X148934106Y-69499500D01*
X148806818Y-69533606D01*
X148806809Y-69533610D01*
X148761500Y-69559770D01*
X148705347Y-69567163D01*
X148660414Y-69532684D01*
X148650500Y-69495684D01*
X148650500Y-68472731D01*
X148672174Y-68420405D01*
X148724500Y-68398731D01*
X148776826Y-68420405D01*
G37*
%TD.AperFunction*%
%TA.AperFunction,NonConductor*%
G36*
X200306781Y-101022174D02*
G01*
X200328455Y-101074500D01*
X200306781Y-101126826D01*
X200110257Y-101323348D01*
X200057931Y-101345022D01*
X200022467Y-101335970D01*
X199812338Y-101221230D01*
X199812334Y-101221229D01*
X199604828Y-101143834D01*
X199563375Y-101105241D01*
X199561354Y-101048640D01*
X199599947Y-101007187D01*
X199630688Y-101000500D01*
X200254455Y-101000500D01*
X200306781Y-101022174D01*
G37*
%TD.AperFunction*%
%TA.AperFunction,NonConductor*%
G36*
X110802819Y-100964737D02*
G01*
X110806810Y-100966390D01*
X110806811Y-100966390D01*
X110806814Y-100966392D01*
X110934108Y-101000500D01*
X111869312Y-101000500D01*
X111921638Y-101022174D01*
X111943312Y-101074500D01*
X111921638Y-101126826D01*
X111895172Y-101143834D01*
X111687666Y-101221228D01*
X111442788Y-101354942D01*
X111219429Y-101522147D01*
X111022147Y-101719429D01*
X110854942Y-101942788D01*
X110839448Y-101971165D01*
X110795348Y-102006703D01*
X110739035Y-102000648D01*
X110703497Y-101956548D01*
X110700500Y-101935700D01*
X110700500Y-101033104D01*
X110722174Y-100980778D01*
X110774500Y-100959104D01*
X110802819Y-100964737D01*
G37*
%TD.AperFunction*%
%TA.AperFunction,NonConductor*%
G36*
X145793867Y-101004785D02*
G01*
X145799500Y-101033104D01*
X145799500Y-101935700D01*
X145777826Y-101988026D01*
X145725500Y-102009700D01*
X145673174Y-101988026D01*
X145660552Y-101971165D01*
X145645057Y-101942788D01*
X145582224Y-101858853D01*
X145477855Y-101719432D01*
X145280568Y-101522145D01*
X145069479Y-101364126D01*
X145057211Y-101354942D01*
X144812333Y-101221228D01*
X144604828Y-101143834D01*
X144563375Y-101105241D01*
X144561354Y-101048640D01*
X144599947Y-101007187D01*
X144630688Y-101000500D01*
X145565891Y-101000500D01*
X145565892Y-101000500D01*
X145693186Y-100966392D01*
X145693190Y-100966389D01*
X145697181Y-100964737D01*
X145753818Y-100964737D01*
X145793867Y-101004785D01*
G37*
%TD.AperFunction*%
%TA.AperFunction,NonConductor*%
G36*
X107793867Y-101004785D02*
G01*
X107799500Y-101033104D01*
X107799500Y-101935700D01*
X107777826Y-101988026D01*
X107725500Y-102009700D01*
X107673174Y-101988026D01*
X107660552Y-101971165D01*
X107645057Y-101942788D01*
X107582224Y-101858853D01*
X107477855Y-101719432D01*
X107280568Y-101522145D01*
X107069479Y-101364126D01*
X107057211Y-101354942D01*
X106812333Y-101221228D01*
X106604828Y-101143834D01*
X106563375Y-101105241D01*
X106561354Y-101048640D01*
X106599947Y-101007187D01*
X106630688Y-101000500D01*
X107565891Y-101000500D01*
X107565892Y-101000500D01*
X107693186Y-100966392D01*
X107693190Y-100966389D01*
X107697181Y-100964737D01*
X107753818Y-100964737D01*
X107793867Y-101004785D01*
G37*
%TD.AperFunction*%
%TA.AperFunction,NonConductor*%
G36*
X148761499Y-100940229D02*
G01*
X148806814Y-100966392D01*
X148934105Y-101000499D01*
X148934106Y-101000500D01*
X148934108Y-101000500D01*
X149869312Y-101000500D01*
X149921638Y-101022174D01*
X149943312Y-101074500D01*
X149921638Y-101126826D01*
X149895172Y-101143834D01*
X149687666Y-101221228D01*
X149442788Y-101354942D01*
X149219429Y-101522147D01*
X149022147Y-101719429D01*
X148854942Y-101942788D01*
X148789448Y-102062733D01*
X148745348Y-102098271D01*
X148689035Y-102092216D01*
X148653497Y-102048116D01*
X148650500Y-102027268D01*
X148650500Y-101004315D01*
X148672174Y-100951989D01*
X148724500Y-100930315D01*
X148761499Y-100940229D01*
G37*
%TD.AperFunction*%
%TA.AperFunction,NonConductor*%
G36*
X183055781Y-64622174D02*
G01*
X185177826Y-66744218D01*
X185199500Y-66796544D01*
X185199500Y-100703454D01*
X185177826Y-100755780D01*
X183837074Y-102096531D01*
X183784748Y-102118205D01*
X183732422Y-102096531D01*
X183719800Y-102079669D01*
X183645059Y-101942791D01*
X183582224Y-101858853D01*
X183477855Y-101719432D01*
X183280568Y-101522145D01*
X183069479Y-101364126D01*
X183057211Y-101354942D01*
X182812333Y-101221228D01*
X182604828Y-101143834D01*
X182563375Y-101105241D01*
X182561354Y-101048640D01*
X182599947Y-101007187D01*
X182630688Y-101000500D01*
X183565894Y-101000500D01*
X183565894Y-101000499D01*
X183693186Y-100966392D01*
X183807314Y-100900500D01*
X183900500Y-100807314D01*
X183966392Y-100693186D01*
X184000499Y-100565894D01*
X184000500Y-100565894D01*
X184000500Y-88933097D01*
X184000000Y-88925460D01*
X184000000Y-86581074D01*
X184000189Y-86575794D01*
X184005610Y-86500005D01*
X184005610Y-86499993D01*
X184000189Y-86424203D01*
X184000000Y-86418924D01*
X184000000Y-84074540D01*
X184000500Y-84066910D01*
X184000500Y-69934106D01*
X184000499Y-69934105D01*
X183973951Y-69835027D01*
X183966392Y-69806814D01*
X183900500Y-69692686D01*
X183807314Y-69599500D01*
X183738500Y-69559770D01*
X183693190Y-69533610D01*
X183693181Y-69533606D01*
X183565894Y-69499500D01*
X183565892Y-69499500D01*
X182630688Y-69499500D01*
X182578362Y-69477826D01*
X182556688Y-69425500D01*
X182578362Y-69373174D01*
X182604828Y-69356166D01*
X182812333Y-69278771D01*
X182885097Y-69239039D01*
X183057213Y-69145056D01*
X183280568Y-68977855D01*
X183477855Y-68780568D01*
X183645056Y-68557213D01*
X183778769Y-68312337D01*
X183778769Y-68312335D01*
X183778771Y-68312333D01*
X183876266Y-68050937D01*
X183876266Y-68050934D01*
X183876271Y-68050923D01*
X183935578Y-67778294D01*
X183955482Y-67500000D01*
X183955482Y-67499993D01*
X183939489Y-67276387D01*
X183935578Y-67221706D01*
X183876271Y-66949077D01*
X183876267Y-66949067D01*
X183876266Y-66949062D01*
X183778771Y-66687666D01*
X183645057Y-66442788D01*
X183578655Y-66354086D01*
X183477855Y-66219432D01*
X183280568Y-66022145D01*
X183162960Y-65934105D01*
X183057211Y-65854942D01*
X182812333Y-65721228D01*
X182550937Y-65623733D01*
X182550925Y-65623730D01*
X182550923Y-65623729D01*
X182495971Y-65611775D01*
X182278291Y-65564421D01*
X182146985Y-65555030D01*
X182099938Y-65533545D01*
X181293219Y-64726826D01*
X181271545Y-64674500D01*
X181293219Y-64622174D01*
X181345545Y-64600500D01*
X183003455Y-64600500D01*
X183055781Y-64622174D01*
G37*
%TD.AperFunction*%
%TA.AperFunction,NonConductor*%
G36*
X158626826Y-103578362D02*
G01*
X158643834Y-103604828D01*
X158721228Y-103812333D01*
X158854942Y-104057211D01*
X158889015Y-104102727D01*
X159022145Y-104280568D01*
X159219432Y-104477855D01*
X159319447Y-104552725D01*
X159442791Y-104645059D01*
X159579670Y-104719800D01*
X159615208Y-104763900D01*
X159609154Y-104820212D01*
X159596533Y-104837073D01*
X159555782Y-104877825D01*
X159503456Y-104899500D01*
X151381164Y-104899500D01*
X151328838Y-104877826D01*
X151307164Y-104825500D01*
X151328838Y-104773174D01*
X151345699Y-104760552D01*
X151484270Y-104684886D01*
X151557213Y-104645056D01*
X151780568Y-104477855D01*
X151977855Y-104280568D01*
X152145056Y-104057213D01*
X152278769Y-103812337D01*
X152278769Y-103812335D01*
X152278771Y-103812333D01*
X152356166Y-103604828D01*
X152394759Y-103563375D01*
X152451360Y-103561354D01*
X152492813Y-103599947D01*
X152499500Y-103630688D01*
X152499500Y-104065894D01*
X152533606Y-104193181D01*
X152533607Y-104193184D01*
X152533608Y-104193186D01*
X152599500Y-104307314D01*
X152692686Y-104400500D01*
X152806814Y-104466392D01*
X152934105Y-104500499D01*
X152934106Y-104500500D01*
X152934108Y-104500500D01*
X158065894Y-104500500D01*
X158065894Y-104500499D01*
X158193186Y-104466392D01*
X158307314Y-104400500D01*
X158400500Y-104307314D01*
X158466392Y-104193186D01*
X158500499Y-104065894D01*
X158500500Y-104065894D01*
X158500500Y-103630688D01*
X158522174Y-103578362D01*
X158574500Y-103556688D01*
X158626826Y-103578362D01*
G37*
%TD.AperFunction*%
%TA.AperFunction,NonConductor*%
G36*
X148776826Y-103920405D02*
G01*
X148789448Y-103937267D01*
X148854940Y-104057208D01*
X148854944Y-104057213D01*
X149022145Y-104280568D01*
X149219432Y-104477855D01*
X149319447Y-104552725D01*
X149442788Y-104645057D01*
X149654301Y-104760552D01*
X149689839Y-104804652D01*
X149683784Y-104860965D01*
X149639684Y-104896503D01*
X149618836Y-104899500D01*
X149246545Y-104899500D01*
X149194219Y-104877826D01*
X148672174Y-104355781D01*
X148650500Y-104303455D01*
X148650500Y-103972731D01*
X148672174Y-103920405D01*
X148724500Y-103898731D01*
X148776826Y-103920405D01*
G37*
%TD.AperFunction*%
%TA.AperFunction,NonConductor*%
G36*
X120626826Y-103578362D02*
G01*
X120643834Y-103604828D01*
X120721228Y-103812333D01*
X120854942Y-104057211D01*
X120889015Y-104102727D01*
X121022145Y-104280568D01*
X121219432Y-104477855D01*
X121319447Y-104552725D01*
X121442791Y-104645059D01*
X121579670Y-104719800D01*
X121615208Y-104763900D01*
X121609154Y-104820212D01*
X121596533Y-104837073D01*
X121555782Y-104877825D01*
X121503456Y-104899500D01*
X113381164Y-104899500D01*
X113328838Y-104877826D01*
X113307164Y-104825500D01*
X113328838Y-104773174D01*
X113345699Y-104760552D01*
X113484270Y-104684886D01*
X113557213Y-104645056D01*
X113780568Y-104477855D01*
X113977855Y-104280568D01*
X114145056Y-104057213D01*
X114278769Y-103812337D01*
X114278769Y-103812335D01*
X114278771Y-103812333D01*
X114356166Y-103604828D01*
X114394759Y-103563375D01*
X114451360Y-103561354D01*
X114492813Y-103599947D01*
X114499500Y-103630688D01*
X114499500Y-104065894D01*
X114533606Y-104193181D01*
X114533607Y-104193184D01*
X114533608Y-104193186D01*
X114599500Y-104307314D01*
X114692686Y-104400500D01*
X114806814Y-104466392D01*
X114934105Y-104500499D01*
X114934106Y-104500500D01*
X114934108Y-104500500D01*
X120065894Y-104500500D01*
X120065894Y-104500499D01*
X120193186Y-104466392D01*
X120307314Y-104400500D01*
X120400500Y-104307314D01*
X120466392Y-104193186D01*
X120500499Y-104065894D01*
X120500500Y-104065894D01*
X120500500Y-103630688D01*
X120522174Y-103578362D01*
X120574500Y-103556688D01*
X120626826Y-103578362D01*
G37*
%TD.AperFunction*%
M02*
