%TF.GenerationSoftware,KiCad,Pcbnew,8.0.2*%
%TF.CreationDate,2024-05-21T13:10:46-04:00*%
%TF.ProjectId,UpperPOGO,55707065-7250-44f4-974f-2e6b69636164,rev?*%
%TF.SameCoordinates,Original*%
%TF.FileFunction,Legend,Top*%
%TF.FilePolarity,Positive*%
%FSLAX46Y46*%
G04 Gerber Fmt 4.6, Leading zero omitted, Abs format (unit mm)*
G04 Created by KiCad (PCBNEW 8.0.2) date 2024-05-21 13:10:46*
%MOMM*%
%LPD*%
G01*
G04 APERTURE LIST*
%ADD10C,0.150000*%
%ADD11C,0.120000*%
G04 APERTURE END LIST*
D10*
X138449873Y-51509875D02*
X138449873Y-52319398D01*
X138449873Y-52319398D02*
X138497492Y-52414636D01*
X138497492Y-52414636D02*
X138545111Y-52462256D01*
X138545111Y-52462256D02*
X138640349Y-52509875D01*
X138640349Y-52509875D02*
X138830825Y-52509875D01*
X138830825Y-52509875D02*
X138926063Y-52462256D01*
X138926063Y-52462256D02*
X138973682Y-52414636D01*
X138973682Y-52414636D02*
X139021301Y-52319398D01*
X139021301Y-52319398D02*
X139021301Y-51509875D01*
X139497492Y-51843208D02*
X139497492Y-52843208D01*
X139497492Y-51890827D02*
X139592730Y-51843208D01*
X139592730Y-51843208D02*
X139783206Y-51843208D01*
X139783206Y-51843208D02*
X139878444Y-51890827D01*
X139878444Y-51890827D02*
X139926063Y-51938446D01*
X139926063Y-51938446D02*
X139973682Y-52033684D01*
X139973682Y-52033684D02*
X139973682Y-52319398D01*
X139973682Y-52319398D02*
X139926063Y-52414636D01*
X139926063Y-52414636D02*
X139878444Y-52462256D01*
X139878444Y-52462256D02*
X139783206Y-52509875D01*
X139783206Y-52509875D02*
X139592730Y-52509875D01*
X139592730Y-52509875D02*
X139497492Y-52462256D01*
X140402254Y-51843208D02*
X140402254Y-52843208D01*
X140402254Y-51890827D02*
X140497492Y-51843208D01*
X140497492Y-51843208D02*
X140687968Y-51843208D01*
X140687968Y-51843208D02*
X140783206Y-51890827D01*
X140783206Y-51890827D02*
X140830825Y-51938446D01*
X140830825Y-51938446D02*
X140878444Y-52033684D01*
X140878444Y-52033684D02*
X140878444Y-52319398D01*
X140878444Y-52319398D02*
X140830825Y-52414636D01*
X140830825Y-52414636D02*
X140783206Y-52462256D01*
X140783206Y-52462256D02*
X140687968Y-52509875D01*
X140687968Y-52509875D02*
X140497492Y-52509875D01*
X140497492Y-52509875D02*
X140402254Y-52462256D01*
X141687968Y-52462256D02*
X141592730Y-52509875D01*
X141592730Y-52509875D02*
X141402254Y-52509875D01*
X141402254Y-52509875D02*
X141307016Y-52462256D01*
X141307016Y-52462256D02*
X141259397Y-52367017D01*
X141259397Y-52367017D02*
X141259397Y-51986065D01*
X141259397Y-51986065D02*
X141307016Y-51890827D01*
X141307016Y-51890827D02*
X141402254Y-51843208D01*
X141402254Y-51843208D02*
X141592730Y-51843208D01*
X141592730Y-51843208D02*
X141687968Y-51890827D01*
X141687968Y-51890827D02*
X141735587Y-51986065D01*
X141735587Y-51986065D02*
X141735587Y-52081303D01*
X141735587Y-52081303D02*
X141259397Y-52176541D01*
X142164159Y-52509875D02*
X142164159Y-51843208D01*
X142164159Y-52033684D02*
X142211778Y-51938446D01*
X142211778Y-51938446D02*
X142259397Y-51890827D01*
X142259397Y-51890827D02*
X142354635Y-51843208D01*
X142354635Y-51843208D02*
X142449873Y-51843208D01*
X143545112Y-52509875D02*
X143545112Y-51509875D01*
X143545112Y-51509875D02*
X143926064Y-51509875D01*
X143926064Y-51509875D02*
X144021302Y-51557494D01*
X144021302Y-51557494D02*
X144068921Y-51605113D01*
X144068921Y-51605113D02*
X144116540Y-51700351D01*
X144116540Y-51700351D02*
X144116540Y-51843208D01*
X144116540Y-51843208D02*
X144068921Y-51938446D01*
X144068921Y-51938446D02*
X144021302Y-51986065D01*
X144021302Y-51986065D02*
X143926064Y-52033684D01*
X143926064Y-52033684D02*
X143545112Y-52033684D01*
X144735588Y-51509875D02*
X144926064Y-51509875D01*
X144926064Y-51509875D02*
X145021302Y-51557494D01*
X145021302Y-51557494D02*
X145116540Y-51652732D01*
X145116540Y-51652732D02*
X145164159Y-51843208D01*
X145164159Y-51843208D02*
X145164159Y-52176541D01*
X145164159Y-52176541D02*
X145116540Y-52367017D01*
X145116540Y-52367017D02*
X145021302Y-52462256D01*
X145021302Y-52462256D02*
X144926064Y-52509875D01*
X144926064Y-52509875D02*
X144735588Y-52509875D01*
X144735588Y-52509875D02*
X144640350Y-52462256D01*
X144640350Y-52462256D02*
X144545112Y-52367017D01*
X144545112Y-52367017D02*
X144497493Y-52176541D01*
X144497493Y-52176541D02*
X144497493Y-51843208D01*
X144497493Y-51843208D02*
X144545112Y-51652732D01*
X144545112Y-51652732D02*
X144640350Y-51557494D01*
X144640350Y-51557494D02*
X144735588Y-51509875D01*
X146116540Y-51557494D02*
X146021302Y-51509875D01*
X146021302Y-51509875D02*
X145878445Y-51509875D01*
X145878445Y-51509875D02*
X145735588Y-51557494D01*
X145735588Y-51557494D02*
X145640350Y-51652732D01*
X145640350Y-51652732D02*
X145592731Y-51747970D01*
X145592731Y-51747970D02*
X145545112Y-51938446D01*
X145545112Y-51938446D02*
X145545112Y-52081303D01*
X145545112Y-52081303D02*
X145592731Y-52271779D01*
X145592731Y-52271779D02*
X145640350Y-52367017D01*
X145640350Y-52367017D02*
X145735588Y-52462256D01*
X145735588Y-52462256D02*
X145878445Y-52509875D01*
X145878445Y-52509875D02*
X145973683Y-52509875D01*
X145973683Y-52509875D02*
X146116540Y-52462256D01*
X146116540Y-52462256D02*
X146164159Y-52414636D01*
X146164159Y-52414636D02*
X146164159Y-52081303D01*
X146164159Y-52081303D02*
X145973683Y-52081303D01*
X146783207Y-51509875D02*
X146973683Y-51509875D01*
X146973683Y-51509875D02*
X147068921Y-51557494D01*
X147068921Y-51557494D02*
X147164159Y-51652732D01*
X147164159Y-51652732D02*
X147211778Y-51843208D01*
X147211778Y-51843208D02*
X147211778Y-52176541D01*
X147211778Y-52176541D02*
X147164159Y-52367017D01*
X147164159Y-52367017D02*
X147068921Y-52462256D01*
X147068921Y-52462256D02*
X146973683Y-52509875D01*
X146973683Y-52509875D02*
X146783207Y-52509875D01*
X146783207Y-52509875D02*
X146687969Y-52462256D01*
X146687969Y-52462256D02*
X146592731Y-52367017D01*
X146592731Y-52367017D02*
X146545112Y-52176541D01*
X146545112Y-52176541D02*
X146545112Y-51843208D01*
X146545112Y-51843208D02*
X146592731Y-51652732D01*
X146592731Y-51652732D02*
X146687969Y-51557494D01*
X146687969Y-51557494D02*
X146783207Y-51509875D01*
X148402255Y-52509875D02*
X148402255Y-51509875D01*
X148402255Y-51509875D02*
X148640350Y-51509875D01*
X148640350Y-51509875D02*
X148783207Y-51557494D01*
X148783207Y-51557494D02*
X148878445Y-51652732D01*
X148878445Y-51652732D02*
X148926064Y-51747970D01*
X148926064Y-51747970D02*
X148973683Y-51938446D01*
X148973683Y-51938446D02*
X148973683Y-52081303D01*
X148973683Y-52081303D02*
X148926064Y-52271779D01*
X148926064Y-52271779D02*
X148878445Y-52367017D01*
X148878445Y-52367017D02*
X148783207Y-52462256D01*
X148783207Y-52462256D02*
X148640350Y-52509875D01*
X148640350Y-52509875D02*
X148402255Y-52509875D01*
X149783207Y-52462256D02*
X149687969Y-52509875D01*
X149687969Y-52509875D02*
X149497493Y-52509875D01*
X149497493Y-52509875D02*
X149402255Y-52462256D01*
X149402255Y-52462256D02*
X149354636Y-52367017D01*
X149354636Y-52367017D02*
X149354636Y-51986065D01*
X149354636Y-51986065D02*
X149402255Y-51890827D01*
X149402255Y-51890827D02*
X149497493Y-51843208D01*
X149497493Y-51843208D02*
X149687969Y-51843208D01*
X149687969Y-51843208D02*
X149783207Y-51890827D01*
X149783207Y-51890827D02*
X149830826Y-51986065D01*
X149830826Y-51986065D02*
X149830826Y-52081303D01*
X149830826Y-52081303D02*
X149354636Y-52176541D01*
X150211779Y-52462256D02*
X150307017Y-52509875D01*
X150307017Y-52509875D02*
X150497493Y-52509875D01*
X150497493Y-52509875D02*
X150592731Y-52462256D01*
X150592731Y-52462256D02*
X150640350Y-52367017D01*
X150640350Y-52367017D02*
X150640350Y-52319398D01*
X150640350Y-52319398D02*
X150592731Y-52224160D01*
X150592731Y-52224160D02*
X150497493Y-52176541D01*
X150497493Y-52176541D02*
X150354636Y-52176541D01*
X150354636Y-52176541D02*
X150259398Y-52128922D01*
X150259398Y-52128922D02*
X150211779Y-52033684D01*
X150211779Y-52033684D02*
X150211779Y-51986065D01*
X150211779Y-51986065D02*
X150259398Y-51890827D01*
X150259398Y-51890827D02*
X150354636Y-51843208D01*
X150354636Y-51843208D02*
X150497493Y-51843208D01*
X150497493Y-51843208D02*
X150592731Y-51890827D01*
X151068922Y-52509875D02*
X151068922Y-51843208D01*
X151068922Y-51509875D02*
X151021303Y-51557494D01*
X151021303Y-51557494D02*
X151068922Y-51605113D01*
X151068922Y-51605113D02*
X151116541Y-51557494D01*
X151116541Y-51557494D02*
X151068922Y-51509875D01*
X151068922Y-51509875D02*
X151068922Y-51605113D01*
X151973683Y-51843208D02*
X151973683Y-52652732D01*
X151973683Y-52652732D02*
X151926064Y-52747970D01*
X151926064Y-52747970D02*
X151878445Y-52795589D01*
X151878445Y-52795589D02*
X151783207Y-52843208D01*
X151783207Y-52843208D02*
X151640350Y-52843208D01*
X151640350Y-52843208D02*
X151545112Y-52795589D01*
X151973683Y-52462256D02*
X151878445Y-52509875D01*
X151878445Y-52509875D02*
X151687969Y-52509875D01*
X151687969Y-52509875D02*
X151592731Y-52462256D01*
X151592731Y-52462256D02*
X151545112Y-52414636D01*
X151545112Y-52414636D02*
X151497493Y-52319398D01*
X151497493Y-52319398D02*
X151497493Y-52033684D01*
X151497493Y-52033684D02*
X151545112Y-51938446D01*
X151545112Y-51938446D02*
X151592731Y-51890827D01*
X151592731Y-51890827D02*
X151687969Y-51843208D01*
X151687969Y-51843208D02*
X151878445Y-51843208D01*
X151878445Y-51843208D02*
X151973683Y-51890827D01*
X152449874Y-51843208D02*
X152449874Y-52509875D01*
X152449874Y-51938446D02*
X152497493Y-51890827D01*
X152497493Y-51890827D02*
X152592731Y-51843208D01*
X152592731Y-51843208D02*
X152735588Y-51843208D01*
X152735588Y-51843208D02*
X152830826Y-51890827D01*
X152830826Y-51890827D02*
X152878445Y-51986065D01*
X152878445Y-51986065D02*
X152878445Y-52509875D01*
X154021303Y-51843208D02*
X154259398Y-52509875D01*
X154259398Y-52509875D02*
X154497493Y-51843208D01*
X154783208Y-51509875D02*
X155402255Y-51509875D01*
X155402255Y-51509875D02*
X155068922Y-51890827D01*
X155068922Y-51890827D02*
X155211779Y-51890827D01*
X155211779Y-51890827D02*
X155307017Y-51938446D01*
X155307017Y-51938446D02*
X155354636Y-51986065D01*
X155354636Y-51986065D02*
X155402255Y-52081303D01*
X155402255Y-52081303D02*
X155402255Y-52319398D01*
X155402255Y-52319398D02*
X155354636Y-52414636D01*
X155354636Y-52414636D02*
X155307017Y-52462256D01*
X155307017Y-52462256D02*
X155211779Y-52509875D01*
X155211779Y-52509875D02*
X154926065Y-52509875D01*
X154926065Y-52509875D02*
X154830827Y-52462256D01*
X154830827Y-52462256D02*
X154783208Y-52414636D01*
X139116539Y-54215057D02*
X139021301Y-54167438D01*
X139021301Y-54167438D02*
X138926063Y-54072200D01*
X138926063Y-54072200D02*
X138783206Y-53929342D01*
X138783206Y-53929342D02*
X138687968Y-53881723D01*
X138687968Y-53881723D02*
X138592730Y-53881723D01*
X138640349Y-54119819D02*
X138545111Y-54072200D01*
X138545111Y-54072200D02*
X138449873Y-53976961D01*
X138449873Y-53976961D02*
X138402254Y-53786485D01*
X138402254Y-53786485D02*
X138402254Y-53453152D01*
X138402254Y-53453152D02*
X138449873Y-53262676D01*
X138449873Y-53262676D02*
X138545111Y-53167438D01*
X138545111Y-53167438D02*
X138640349Y-53119819D01*
X138640349Y-53119819D02*
X138830825Y-53119819D01*
X138830825Y-53119819D02*
X138926063Y-53167438D01*
X138926063Y-53167438D02*
X139021301Y-53262676D01*
X139021301Y-53262676D02*
X139068920Y-53453152D01*
X139068920Y-53453152D02*
X139068920Y-53786485D01*
X139068920Y-53786485D02*
X139021301Y-53976961D01*
X139021301Y-53976961D02*
X138926063Y-54072200D01*
X138926063Y-54072200D02*
X138830825Y-54119819D01*
X138830825Y-54119819D02*
X138640349Y-54119819D01*
X139449873Y-53834104D02*
X139926063Y-53834104D01*
X139354635Y-54119819D02*
X139687968Y-53119819D01*
X139687968Y-53119819D02*
X140021301Y-54119819D01*
X140211778Y-53119819D02*
X140783206Y-53119819D01*
X140497492Y-54119819D02*
X140497492Y-53119819D01*
X141687968Y-54024580D02*
X141640349Y-54072200D01*
X141640349Y-54072200D02*
X141497492Y-54119819D01*
X141497492Y-54119819D02*
X141402254Y-54119819D01*
X141402254Y-54119819D02*
X141259397Y-54072200D01*
X141259397Y-54072200D02*
X141164159Y-53976961D01*
X141164159Y-53976961D02*
X141116540Y-53881723D01*
X141116540Y-53881723D02*
X141068921Y-53691247D01*
X141068921Y-53691247D02*
X141068921Y-53548390D01*
X141068921Y-53548390D02*
X141116540Y-53357914D01*
X141116540Y-53357914D02*
X141164159Y-53262676D01*
X141164159Y-53262676D02*
X141259397Y-53167438D01*
X141259397Y-53167438D02*
X141402254Y-53119819D01*
X141402254Y-53119819D02*
X141497492Y-53119819D01*
X141497492Y-53119819D02*
X141640349Y-53167438D01*
X141640349Y-53167438D02*
X141687968Y-53215057D01*
X142116540Y-54119819D02*
X142116540Y-53119819D01*
X142116540Y-53596009D02*
X142687968Y-53596009D01*
X142687968Y-54119819D02*
X142687968Y-53119819D01*
X143783207Y-53119819D02*
X144354635Y-53119819D01*
X144068921Y-54119819D02*
X144068921Y-53119819D01*
X145068921Y-54072200D02*
X144973683Y-54119819D01*
X144973683Y-54119819D02*
X144783207Y-54119819D01*
X144783207Y-54119819D02*
X144687969Y-54072200D01*
X144687969Y-54072200D02*
X144640350Y-53976961D01*
X144640350Y-53976961D02*
X144640350Y-53596009D01*
X144640350Y-53596009D02*
X144687969Y-53500771D01*
X144687969Y-53500771D02*
X144783207Y-53453152D01*
X144783207Y-53453152D02*
X144973683Y-53453152D01*
X144973683Y-53453152D02*
X145068921Y-53500771D01*
X145068921Y-53500771D02*
X145116540Y-53596009D01*
X145116540Y-53596009D02*
X145116540Y-53691247D01*
X145116540Y-53691247D02*
X144640350Y-53786485D01*
X145973683Y-54072200D02*
X145878445Y-54119819D01*
X145878445Y-54119819D02*
X145687969Y-54119819D01*
X145687969Y-54119819D02*
X145592731Y-54072200D01*
X145592731Y-54072200D02*
X145545112Y-54024580D01*
X145545112Y-54024580D02*
X145497493Y-53929342D01*
X145497493Y-53929342D02*
X145497493Y-53643628D01*
X145497493Y-53643628D02*
X145545112Y-53548390D01*
X145545112Y-53548390D02*
X145592731Y-53500771D01*
X145592731Y-53500771D02*
X145687969Y-53453152D01*
X145687969Y-53453152D02*
X145878445Y-53453152D01*
X145878445Y-53453152D02*
X145973683Y-53500771D01*
X146402255Y-54119819D02*
X146402255Y-53119819D01*
X146830826Y-54119819D02*
X146830826Y-53596009D01*
X146830826Y-53596009D02*
X146783207Y-53500771D01*
X146783207Y-53500771D02*
X146687969Y-53453152D01*
X146687969Y-53453152D02*
X146545112Y-53453152D01*
X146545112Y-53453152D02*
X146449874Y-53500771D01*
X146449874Y-53500771D02*
X146402255Y-53548390D01*
X147307017Y-53453152D02*
X147307017Y-54119819D01*
X147307017Y-53548390D02*
X147354636Y-53500771D01*
X147354636Y-53500771D02*
X147449874Y-53453152D01*
X147449874Y-53453152D02*
X147592731Y-53453152D01*
X147592731Y-53453152D02*
X147687969Y-53500771D01*
X147687969Y-53500771D02*
X147735588Y-53596009D01*
X147735588Y-53596009D02*
X147735588Y-54119819D01*
X148354636Y-54119819D02*
X148259398Y-54072200D01*
X148259398Y-54072200D02*
X148211779Y-54024580D01*
X148211779Y-54024580D02*
X148164160Y-53929342D01*
X148164160Y-53929342D02*
X148164160Y-53643628D01*
X148164160Y-53643628D02*
X148211779Y-53548390D01*
X148211779Y-53548390D02*
X148259398Y-53500771D01*
X148259398Y-53500771D02*
X148354636Y-53453152D01*
X148354636Y-53453152D02*
X148497493Y-53453152D01*
X148497493Y-53453152D02*
X148592731Y-53500771D01*
X148592731Y-53500771D02*
X148640350Y-53548390D01*
X148640350Y-53548390D02*
X148687969Y-53643628D01*
X148687969Y-53643628D02*
X148687969Y-53929342D01*
X148687969Y-53929342D02*
X148640350Y-54024580D01*
X148640350Y-54024580D02*
X148592731Y-54072200D01*
X148592731Y-54072200D02*
X148497493Y-54119819D01*
X148497493Y-54119819D02*
X148354636Y-54119819D01*
X149259398Y-54119819D02*
X149164160Y-54072200D01*
X149164160Y-54072200D02*
X149116541Y-53976961D01*
X149116541Y-53976961D02*
X149116541Y-53119819D01*
X149783208Y-54119819D02*
X149687970Y-54072200D01*
X149687970Y-54072200D02*
X149640351Y-54024580D01*
X149640351Y-54024580D02*
X149592732Y-53929342D01*
X149592732Y-53929342D02*
X149592732Y-53643628D01*
X149592732Y-53643628D02*
X149640351Y-53548390D01*
X149640351Y-53548390D02*
X149687970Y-53500771D01*
X149687970Y-53500771D02*
X149783208Y-53453152D01*
X149783208Y-53453152D02*
X149926065Y-53453152D01*
X149926065Y-53453152D02*
X150021303Y-53500771D01*
X150021303Y-53500771D02*
X150068922Y-53548390D01*
X150068922Y-53548390D02*
X150116541Y-53643628D01*
X150116541Y-53643628D02*
X150116541Y-53929342D01*
X150116541Y-53929342D02*
X150068922Y-54024580D01*
X150068922Y-54024580D02*
X150021303Y-54072200D01*
X150021303Y-54072200D02*
X149926065Y-54119819D01*
X149926065Y-54119819D02*
X149783208Y-54119819D01*
X150973684Y-53453152D02*
X150973684Y-54262676D01*
X150973684Y-54262676D02*
X150926065Y-54357914D01*
X150926065Y-54357914D02*
X150878446Y-54405533D01*
X150878446Y-54405533D02*
X150783208Y-54453152D01*
X150783208Y-54453152D02*
X150640351Y-54453152D01*
X150640351Y-54453152D02*
X150545113Y-54405533D01*
X150973684Y-54072200D02*
X150878446Y-54119819D01*
X150878446Y-54119819D02*
X150687970Y-54119819D01*
X150687970Y-54119819D02*
X150592732Y-54072200D01*
X150592732Y-54072200D02*
X150545113Y-54024580D01*
X150545113Y-54024580D02*
X150497494Y-53929342D01*
X150497494Y-53929342D02*
X150497494Y-53643628D01*
X150497494Y-53643628D02*
X150545113Y-53548390D01*
X150545113Y-53548390D02*
X150592732Y-53500771D01*
X150592732Y-53500771D02*
X150687970Y-53453152D01*
X150687970Y-53453152D02*
X150878446Y-53453152D01*
X150878446Y-53453152D02*
X150973684Y-53500771D01*
X151449875Y-54119819D02*
X151449875Y-53453152D01*
X151449875Y-53119819D02*
X151402256Y-53167438D01*
X151402256Y-53167438D02*
X151449875Y-53215057D01*
X151449875Y-53215057D02*
X151497494Y-53167438D01*
X151497494Y-53167438D02*
X151449875Y-53119819D01*
X151449875Y-53119819D02*
X151449875Y-53215057D01*
X152307017Y-54072200D02*
X152211779Y-54119819D01*
X152211779Y-54119819D02*
X152021303Y-54119819D01*
X152021303Y-54119819D02*
X151926065Y-54072200D01*
X151926065Y-54072200D02*
X151878446Y-53976961D01*
X151878446Y-53976961D02*
X151878446Y-53596009D01*
X151878446Y-53596009D02*
X151926065Y-53500771D01*
X151926065Y-53500771D02*
X152021303Y-53453152D01*
X152021303Y-53453152D02*
X152211779Y-53453152D01*
X152211779Y-53453152D02*
X152307017Y-53500771D01*
X152307017Y-53500771D02*
X152354636Y-53596009D01*
X152354636Y-53596009D02*
X152354636Y-53691247D01*
X152354636Y-53691247D02*
X151878446Y-53786485D01*
X152735589Y-54072200D02*
X152830827Y-54119819D01*
X152830827Y-54119819D02*
X153021303Y-54119819D01*
X153021303Y-54119819D02*
X153116541Y-54072200D01*
X153116541Y-54072200D02*
X153164160Y-53976961D01*
X153164160Y-53976961D02*
X153164160Y-53929342D01*
X153164160Y-53929342D02*
X153116541Y-53834104D01*
X153116541Y-53834104D02*
X153021303Y-53786485D01*
X153021303Y-53786485D02*
X152878446Y-53786485D01*
X152878446Y-53786485D02*
X152783208Y-53738866D01*
X152783208Y-53738866D02*
X152735589Y-53643628D01*
X152735589Y-53643628D02*
X152735589Y-53596009D01*
X152735589Y-53596009D02*
X152783208Y-53500771D01*
X152783208Y-53500771D02*
X152878446Y-53453152D01*
X152878446Y-53453152D02*
X153021303Y-53453152D01*
X153021303Y-53453152D02*
X153116541Y-53500771D01*
X154830827Y-54119819D02*
X154354637Y-54119819D01*
X154354637Y-54119819D02*
X154354637Y-53119819D01*
X155640351Y-54119819D02*
X155164161Y-54119819D01*
X155164161Y-54119819D02*
X155164161Y-53119819D01*
X156545113Y-54024580D02*
X156497494Y-54072200D01*
X156497494Y-54072200D02*
X156354637Y-54119819D01*
X156354637Y-54119819D02*
X156259399Y-54119819D01*
X156259399Y-54119819D02*
X156116542Y-54072200D01*
X156116542Y-54072200D02*
X156021304Y-53976961D01*
X156021304Y-53976961D02*
X155973685Y-53881723D01*
X155973685Y-53881723D02*
X155926066Y-53691247D01*
X155926066Y-53691247D02*
X155926066Y-53548390D01*
X155926066Y-53548390D02*
X155973685Y-53357914D01*
X155973685Y-53357914D02*
X156021304Y-53262676D01*
X156021304Y-53262676D02*
X156116542Y-53167438D01*
X156116542Y-53167438D02*
X156259399Y-53119819D01*
X156259399Y-53119819D02*
X156354637Y-53119819D01*
X156354637Y-53119819D02*
X156497494Y-53167438D01*
X156497494Y-53167438D02*
X156545113Y-53215057D01*
X188190476Y-64304819D02*
X188190476Y-65019104D01*
X188190476Y-65019104D02*
X188142857Y-65161961D01*
X188142857Y-65161961D02*
X188047619Y-65257200D01*
X188047619Y-65257200D02*
X187904762Y-65304819D01*
X187904762Y-65304819D02*
X187809524Y-65304819D01*
X189190476Y-65304819D02*
X188619048Y-65304819D01*
X188904762Y-65304819D02*
X188904762Y-64304819D01*
X188904762Y-64304819D02*
X188809524Y-64447676D01*
X188809524Y-64447676D02*
X188714286Y-64542914D01*
X188714286Y-64542914D02*
X188619048Y-64590533D01*
X189571429Y-64400057D02*
X189619048Y-64352438D01*
X189619048Y-64352438D02*
X189714286Y-64304819D01*
X189714286Y-64304819D02*
X189952381Y-64304819D01*
X189952381Y-64304819D02*
X190047619Y-64352438D01*
X190047619Y-64352438D02*
X190095238Y-64400057D01*
X190095238Y-64400057D02*
X190142857Y-64495295D01*
X190142857Y-64495295D02*
X190142857Y-64590533D01*
X190142857Y-64590533D02*
X190095238Y-64733390D01*
X190095238Y-64733390D02*
X189523810Y-65304819D01*
X189523810Y-65304819D02*
X190142857Y-65304819D01*
X121690476Y-64304819D02*
X121690476Y-65019104D01*
X121690476Y-65019104D02*
X121642857Y-65161961D01*
X121642857Y-65161961D02*
X121547619Y-65257200D01*
X121547619Y-65257200D02*
X121404762Y-65304819D01*
X121404762Y-65304819D02*
X121309524Y-65304819D01*
X122690476Y-65304819D02*
X122119048Y-65304819D01*
X122404762Y-65304819D02*
X122404762Y-64304819D01*
X122404762Y-64304819D02*
X122309524Y-64447676D01*
X122309524Y-64447676D02*
X122214286Y-64542914D01*
X122214286Y-64542914D02*
X122119048Y-64590533D01*
X123547619Y-64304819D02*
X123357143Y-64304819D01*
X123357143Y-64304819D02*
X123261905Y-64352438D01*
X123261905Y-64352438D02*
X123214286Y-64400057D01*
X123214286Y-64400057D02*
X123119048Y-64542914D01*
X123119048Y-64542914D02*
X123071429Y-64733390D01*
X123071429Y-64733390D02*
X123071429Y-65114342D01*
X123071429Y-65114342D02*
X123119048Y-65209580D01*
X123119048Y-65209580D02*
X123166667Y-65257200D01*
X123166667Y-65257200D02*
X123261905Y-65304819D01*
X123261905Y-65304819D02*
X123452381Y-65304819D01*
X123452381Y-65304819D02*
X123547619Y-65257200D01*
X123547619Y-65257200D02*
X123595238Y-65209580D01*
X123595238Y-65209580D02*
X123642857Y-65114342D01*
X123642857Y-65114342D02*
X123642857Y-64876247D01*
X123642857Y-64876247D02*
X123595238Y-64781009D01*
X123595238Y-64781009D02*
X123547619Y-64733390D01*
X123547619Y-64733390D02*
X123452381Y-64685771D01*
X123452381Y-64685771D02*
X123261905Y-64685771D01*
X123261905Y-64685771D02*
X123166667Y-64733390D01*
X123166667Y-64733390D02*
X123119048Y-64781009D01*
X123119048Y-64781009D02*
X123071429Y-64876247D01*
X112166666Y-64304819D02*
X112166666Y-65019104D01*
X112166666Y-65019104D02*
X112119047Y-65161961D01*
X112119047Y-65161961D02*
X112023809Y-65257200D01*
X112023809Y-65257200D02*
X111880952Y-65304819D01*
X111880952Y-65304819D02*
X111785714Y-65304819D01*
X113071428Y-64638152D02*
X113071428Y-65304819D01*
X112833333Y-64257200D02*
X112595238Y-64971485D01*
X112595238Y-64971485D02*
X113214285Y-64971485D01*
X95666666Y-64304819D02*
X95666666Y-65019104D01*
X95666666Y-65019104D02*
X95619047Y-65161961D01*
X95619047Y-65161961D02*
X95523809Y-65257200D01*
X95523809Y-65257200D02*
X95380952Y-65304819D01*
X95380952Y-65304819D02*
X95285714Y-65304819D01*
X96095238Y-64400057D02*
X96142857Y-64352438D01*
X96142857Y-64352438D02*
X96238095Y-64304819D01*
X96238095Y-64304819D02*
X96476190Y-64304819D01*
X96476190Y-64304819D02*
X96571428Y-64352438D01*
X96571428Y-64352438D02*
X96619047Y-64400057D01*
X96619047Y-64400057D02*
X96666666Y-64495295D01*
X96666666Y-64495295D02*
X96666666Y-64590533D01*
X96666666Y-64590533D02*
X96619047Y-64733390D01*
X96619047Y-64733390D02*
X96047619Y-65304819D01*
X96047619Y-65304819D02*
X96666666Y-65304819D01*
X150166666Y-64304819D02*
X150166666Y-65019104D01*
X150166666Y-65019104D02*
X150119047Y-65161961D01*
X150119047Y-65161961D02*
X150023809Y-65257200D01*
X150023809Y-65257200D02*
X149880952Y-65304819D01*
X149880952Y-65304819D02*
X149785714Y-65304819D01*
X150785714Y-64733390D02*
X150690476Y-64685771D01*
X150690476Y-64685771D02*
X150642857Y-64638152D01*
X150642857Y-64638152D02*
X150595238Y-64542914D01*
X150595238Y-64542914D02*
X150595238Y-64495295D01*
X150595238Y-64495295D02*
X150642857Y-64400057D01*
X150642857Y-64400057D02*
X150690476Y-64352438D01*
X150690476Y-64352438D02*
X150785714Y-64304819D01*
X150785714Y-64304819D02*
X150976190Y-64304819D01*
X150976190Y-64304819D02*
X151071428Y-64352438D01*
X151071428Y-64352438D02*
X151119047Y-64400057D01*
X151119047Y-64400057D02*
X151166666Y-64495295D01*
X151166666Y-64495295D02*
X151166666Y-64542914D01*
X151166666Y-64542914D02*
X151119047Y-64638152D01*
X151119047Y-64638152D02*
X151071428Y-64685771D01*
X151071428Y-64685771D02*
X150976190Y-64733390D01*
X150976190Y-64733390D02*
X150785714Y-64733390D01*
X150785714Y-64733390D02*
X150690476Y-64781009D01*
X150690476Y-64781009D02*
X150642857Y-64828628D01*
X150642857Y-64828628D02*
X150595238Y-64923866D01*
X150595238Y-64923866D02*
X150595238Y-65114342D01*
X150595238Y-65114342D02*
X150642857Y-65209580D01*
X150642857Y-65209580D02*
X150690476Y-65257200D01*
X150690476Y-65257200D02*
X150785714Y-65304819D01*
X150785714Y-65304819D02*
X150976190Y-65304819D01*
X150976190Y-65304819D02*
X151071428Y-65257200D01*
X151071428Y-65257200D02*
X151119047Y-65209580D01*
X151119047Y-65209580D02*
X151166666Y-65114342D01*
X151166666Y-65114342D02*
X151166666Y-64923866D01*
X151166666Y-64923866D02*
X151119047Y-64828628D01*
X151119047Y-64828628D02*
X151071428Y-64781009D01*
X151071428Y-64781009D02*
X150976190Y-64733390D01*
X143190476Y-64304819D02*
X143190476Y-65019104D01*
X143190476Y-65019104D02*
X143142857Y-65161961D01*
X143142857Y-65161961D02*
X143047619Y-65257200D01*
X143047619Y-65257200D02*
X142904762Y-65304819D01*
X142904762Y-65304819D02*
X142809524Y-65304819D01*
X144190476Y-65304819D02*
X143619048Y-65304819D01*
X143904762Y-65304819D02*
X143904762Y-64304819D01*
X143904762Y-64304819D02*
X143809524Y-64447676D01*
X143809524Y-64447676D02*
X143714286Y-64542914D01*
X143714286Y-64542914D02*
X143619048Y-64590533D01*
X144523810Y-64304819D02*
X145190476Y-64304819D01*
X145190476Y-64304819D02*
X144761905Y-65304819D01*
X130916666Y-104454819D02*
X130916666Y-105169104D01*
X130916666Y-105169104D02*
X130869047Y-105311961D01*
X130869047Y-105311961D02*
X130773809Y-105407200D01*
X130773809Y-105407200D02*
X130630952Y-105454819D01*
X130630952Y-105454819D02*
X130535714Y-105454819D01*
X131821428Y-104454819D02*
X131630952Y-104454819D01*
X131630952Y-104454819D02*
X131535714Y-104502438D01*
X131535714Y-104502438D02*
X131488095Y-104550057D01*
X131488095Y-104550057D02*
X131392857Y-104692914D01*
X131392857Y-104692914D02*
X131345238Y-104883390D01*
X131345238Y-104883390D02*
X131345238Y-105264342D01*
X131345238Y-105264342D02*
X131392857Y-105359580D01*
X131392857Y-105359580D02*
X131440476Y-105407200D01*
X131440476Y-105407200D02*
X131535714Y-105454819D01*
X131535714Y-105454819D02*
X131726190Y-105454819D01*
X131726190Y-105454819D02*
X131821428Y-105407200D01*
X131821428Y-105407200D02*
X131869047Y-105359580D01*
X131869047Y-105359580D02*
X131916666Y-105264342D01*
X131916666Y-105264342D02*
X131916666Y-105026247D01*
X131916666Y-105026247D02*
X131869047Y-104931009D01*
X131869047Y-104931009D02*
X131821428Y-104883390D01*
X131821428Y-104883390D02*
X131726190Y-104835771D01*
X131726190Y-104835771D02*
X131535714Y-104835771D01*
X131535714Y-104835771D02*
X131440476Y-104883390D01*
X131440476Y-104883390D02*
X131392857Y-104931009D01*
X131392857Y-104931009D02*
X131345238Y-105026247D01*
X118440476Y-104454819D02*
X118440476Y-105169104D01*
X118440476Y-105169104D02*
X118392857Y-105311961D01*
X118392857Y-105311961D02*
X118297619Y-105407200D01*
X118297619Y-105407200D02*
X118154762Y-105454819D01*
X118154762Y-105454819D02*
X118059524Y-105454819D01*
X119440476Y-105454819D02*
X118869048Y-105454819D01*
X119154762Y-105454819D02*
X119154762Y-104454819D01*
X119154762Y-104454819D02*
X119059524Y-104597676D01*
X119059524Y-104597676D02*
X118964286Y-104692914D01*
X118964286Y-104692914D02*
X118869048Y-104740533D01*
X120345238Y-104454819D02*
X119869048Y-104454819D01*
X119869048Y-104454819D02*
X119821429Y-104931009D01*
X119821429Y-104931009D02*
X119869048Y-104883390D01*
X119869048Y-104883390D02*
X119964286Y-104835771D01*
X119964286Y-104835771D02*
X120202381Y-104835771D01*
X120202381Y-104835771D02*
X120297619Y-104883390D01*
X120297619Y-104883390D02*
X120345238Y-104931009D01*
X120345238Y-104931009D02*
X120392857Y-105026247D01*
X120392857Y-105026247D02*
X120392857Y-105264342D01*
X120392857Y-105264342D02*
X120345238Y-105359580D01*
X120345238Y-105359580D02*
X120297619Y-105407200D01*
X120297619Y-105407200D02*
X120202381Y-105454819D01*
X120202381Y-105454819D02*
X119964286Y-105454819D01*
X119964286Y-105454819D02*
X119869048Y-105407200D01*
X119869048Y-105407200D02*
X119821429Y-105359580D01*
X85738095Y-62654819D02*
X85738095Y-61654819D01*
X85738095Y-62131009D02*
X86309523Y-62131009D01*
X86309523Y-62654819D02*
X86309523Y-61654819D01*
X87309523Y-62654819D02*
X86738095Y-62654819D01*
X87023809Y-62654819D02*
X87023809Y-61654819D01*
X87023809Y-61654819D02*
X86928571Y-61797676D01*
X86928571Y-61797676D02*
X86833333Y-61892914D01*
X86833333Y-61892914D02*
X86738095Y-61940533D01*
X85738095Y-98154819D02*
X85738095Y-97154819D01*
X85738095Y-97631009D02*
X86309523Y-97631009D01*
X86309523Y-98154819D02*
X86309523Y-97154819D01*
X86690476Y-97154819D02*
X87309523Y-97154819D01*
X87309523Y-97154819D02*
X86976190Y-97535771D01*
X86976190Y-97535771D02*
X87119047Y-97535771D01*
X87119047Y-97535771D02*
X87214285Y-97583390D01*
X87214285Y-97583390D02*
X87261904Y-97631009D01*
X87261904Y-97631009D02*
X87309523Y-97726247D01*
X87309523Y-97726247D02*
X87309523Y-97964342D01*
X87309523Y-97964342D02*
X87261904Y-98059580D01*
X87261904Y-98059580D02*
X87214285Y-98107200D01*
X87214285Y-98107200D02*
X87119047Y-98154819D01*
X87119047Y-98154819D02*
X86833333Y-98154819D01*
X86833333Y-98154819D02*
X86738095Y-98107200D01*
X86738095Y-98107200D02*
X86690476Y-98059580D01*
X177940476Y-104454819D02*
X177940476Y-105169104D01*
X177940476Y-105169104D02*
X177892857Y-105311961D01*
X177892857Y-105311961D02*
X177797619Y-105407200D01*
X177797619Y-105407200D02*
X177654762Y-105454819D01*
X177654762Y-105454819D02*
X177559524Y-105454819D01*
X178369048Y-104550057D02*
X178416667Y-104502438D01*
X178416667Y-104502438D02*
X178511905Y-104454819D01*
X178511905Y-104454819D02*
X178750000Y-104454819D01*
X178750000Y-104454819D02*
X178845238Y-104502438D01*
X178845238Y-104502438D02*
X178892857Y-104550057D01*
X178892857Y-104550057D02*
X178940476Y-104645295D01*
X178940476Y-104645295D02*
X178940476Y-104740533D01*
X178940476Y-104740533D02*
X178892857Y-104883390D01*
X178892857Y-104883390D02*
X178321429Y-105454819D01*
X178321429Y-105454819D02*
X178940476Y-105454819D01*
X179321429Y-104550057D02*
X179369048Y-104502438D01*
X179369048Y-104502438D02*
X179464286Y-104454819D01*
X179464286Y-104454819D02*
X179702381Y-104454819D01*
X179702381Y-104454819D02*
X179797619Y-104502438D01*
X179797619Y-104502438D02*
X179845238Y-104550057D01*
X179845238Y-104550057D02*
X179892857Y-104645295D01*
X179892857Y-104645295D02*
X179892857Y-104740533D01*
X179892857Y-104740533D02*
X179845238Y-104883390D01*
X179845238Y-104883390D02*
X179273810Y-105454819D01*
X179273810Y-105454819D02*
X179892857Y-105454819D01*
X204738095Y-98154819D02*
X204738095Y-97154819D01*
X204738095Y-97631009D02*
X205309523Y-97631009D01*
X205309523Y-98154819D02*
X205309523Y-97154819D01*
X206214285Y-97488152D02*
X206214285Y-98154819D01*
X205976190Y-97107200D02*
X205738095Y-97821485D01*
X205738095Y-97821485D02*
X206357142Y-97821485D01*
X185190476Y-104454819D02*
X185190476Y-105169104D01*
X185190476Y-105169104D02*
X185142857Y-105311961D01*
X185142857Y-105311961D02*
X185047619Y-105407200D01*
X185047619Y-105407200D02*
X184904762Y-105454819D01*
X184904762Y-105454819D02*
X184809524Y-105454819D01*
X186190476Y-105454819D02*
X185619048Y-105454819D01*
X185904762Y-105454819D02*
X185904762Y-104454819D01*
X185904762Y-104454819D02*
X185809524Y-104597676D01*
X185809524Y-104597676D02*
X185714286Y-104692914D01*
X185714286Y-104692914D02*
X185619048Y-104740533D01*
X187142857Y-105454819D02*
X186571429Y-105454819D01*
X186857143Y-105454819D02*
X186857143Y-104454819D01*
X186857143Y-104454819D02*
X186761905Y-104597676D01*
X186761905Y-104597676D02*
X186666667Y-104692914D01*
X186666667Y-104692914D02*
X186571429Y-104740533D01*
X167940476Y-104454819D02*
X167940476Y-105169104D01*
X167940476Y-105169104D02*
X167892857Y-105311961D01*
X167892857Y-105311961D02*
X167797619Y-105407200D01*
X167797619Y-105407200D02*
X167654762Y-105454819D01*
X167654762Y-105454819D02*
X167559524Y-105454819D01*
X168940476Y-105454819D02*
X168369048Y-105454819D01*
X168654762Y-105454819D02*
X168654762Y-104454819D01*
X168654762Y-104454819D02*
X168559524Y-104597676D01*
X168559524Y-104597676D02*
X168464286Y-104692914D01*
X168464286Y-104692914D02*
X168369048Y-104740533D01*
X169559524Y-104454819D02*
X169654762Y-104454819D01*
X169654762Y-104454819D02*
X169750000Y-104502438D01*
X169750000Y-104502438D02*
X169797619Y-104550057D01*
X169797619Y-104550057D02*
X169845238Y-104645295D01*
X169845238Y-104645295D02*
X169892857Y-104835771D01*
X169892857Y-104835771D02*
X169892857Y-105073866D01*
X169892857Y-105073866D02*
X169845238Y-105264342D01*
X169845238Y-105264342D02*
X169797619Y-105359580D01*
X169797619Y-105359580D02*
X169750000Y-105407200D01*
X169750000Y-105407200D02*
X169654762Y-105454819D01*
X169654762Y-105454819D02*
X169559524Y-105454819D01*
X169559524Y-105454819D02*
X169464286Y-105407200D01*
X169464286Y-105407200D02*
X169416667Y-105359580D01*
X169416667Y-105359580D02*
X169369048Y-105264342D01*
X169369048Y-105264342D02*
X169321429Y-105073866D01*
X169321429Y-105073866D02*
X169321429Y-104835771D01*
X169321429Y-104835771D02*
X169369048Y-104645295D01*
X169369048Y-104645295D02*
X169416667Y-104550057D01*
X169416667Y-104550057D02*
X169464286Y-104502438D01*
X169464286Y-104502438D02*
X169559524Y-104454819D01*
X204738095Y-62654819D02*
X204738095Y-61654819D01*
X204738095Y-62131009D02*
X205309523Y-62131009D01*
X205309523Y-62654819D02*
X205309523Y-61654819D01*
X205738095Y-61750057D02*
X205785714Y-61702438D01*
X205785714Y-61702438D02*
X205880952Y-61654819D01*
X205880952Y-61654819D02*
X206119047Y-61654819D01*
X206119047Y-61654819D02*
X206214285Y-61702438D01*
X206214285Y-61702438D02*
X206261904Y-61750057D01*
X206261904Y-61750057D02*
X206309523Y-61845295D01*
X206309523Y-61845295D02*
X206309523Y-61940533D01*
X206309523Y-61940533D02*
X206261904Y-62083390D01*
X206261904Y-62083390D02*
X205690476Y-62654819D01*
X205690476Y-62654819D02*
X206309523Y-62654819D01*
X92916666Y-104454819D02*
X92916666Y-105169104D01*
X92916666Y-105169104D02*
X92869047Y-105311961D01*
X92869047Y-105311961D02*
X92773809Y-105407200D01*
X92773809Y-105407200D02*
X92630952Y-105454819D01*
X92630952Y-105454819D02*
X92535714Y-105454819D01*
X93916666Y-105454819D02*
X93345238Y-105454819D01*
X93630952Y-105454819D02*
X93630952Y-104454819D01*
X93630952Y-104454819D02*
X93535714Y-104597676D01*
X93535714Y-104597676D02*
X93440476Y-104692914D01*
X93440476Y-104692914D02*
X93345238Y-104740533D01*
X133666666Y-64304819D02*
X133666666Y-65019104D01*
X133666666Y-65019104D02*
X133619047Y-65161961D01*
X133619047Y-65161961D02*
X133523809Y-65257200D01*
X133523809Y-65257200D02*
X133380952Y-65304819D01*
X133380952Y-65304819D02*
X133285714Y-65304819D01*
X134619047Y-64304819D02*
X134142857Y-64304819D01*
X134142857Y-64304819D02*
X134095238Y-64781009D01*
X134095238Y-64781009D02*
X134142857Y-64733390D01*
X134142857Y-64733390D02*
X134238095Y-64685771D01*
X134238095Y-64685771D02*
X134476190Y-64685771D01*
X134476190Y-64685771D02*
X134571428Y-64733390D01*
X134571428Y-64733390D02*
X134619047Y-64781009D01*
X134619047Y-64781009D02*
X134666666Y-64876247D01*
X134666666Y-64876247D02*
X134666666Y-65114342D01*
X134666666Y-65114342D02*
X134619047Y-65209580D01*
X134619047Y-65209580D02*
X134571428Y-65257200D01*
X134571428Y-65257200D02*
X134476190Y-65304819D01*
X134476190Y-65304819D02*
X134238095Y-65304819D01*
X134238095Y-65304819D02*
X134142857Y-65257200D01*
X134142857Y-65257200D02*
X134095238Y-65209580D01*
X198190476Y-64304819D02*
X198190476Y-65019104D01*
X198190476Y-65019104D02*
X198142857Y-65161961D01*
X198142857Y-65161961D02*
X198047619Y-65257200D01*
X198047619Y-65257200D02*
X197904762Y-65304819D01*
X197904762Y-65304819D02*
X197809524Y-65304819D01*
X198619048Y-64400057D02*
X198666667Y-64352438D01*
X198666667Y-64352438D02*
X198761905Y-64304819D01*
X198761905Y-64304819D02*
X199000000Y-64304819D01*
X199000000Y-64304819D02*
X199095238Y-64352438D01*
X199095238Y-64352438D02*
X199142857Y-64400057D01*
X199142857Y-64400057D02*
X199190476Y-64495295D01*
X199190476Y-64495295D02*
X199190476Y-64590533D01*
X199190476Y-64590533D02*
X199142857Y-64733390D01*
X199142857Y-64733390D02*
X198571429Y-65304819D01*
X198571429Y-65304819D02*
X199190476Y-65304819D01*
X199523810Y-64304819D02*
X200142857Y-64304819D01*
X200142857Y-64304819D02*
X199809524Y-64685771D01*
X199809524Y-64685771D02*
X199952381Y-64685771D01*
X199952381Y-64685771D02*
X200047619Y-64733390D01*
X200047619Y-64733390D02*
X200095238Y-64781009D01*
X200095238Y-64781009D02*
X200142857Y-64876247D01*
X200142857Y-64876247D02*
X200142857Y-65114342D01*
X200142857Y-65114342D02*
X200095238Y-65209580D01*
X200095238Y-65209580D02*
X200047619Y-65257200D01*
X200047619Y-65257200D02*
X199952381Y-65304819D01*
X199952381Y-65304819D02*
X199666667Y-65304819D01*
X199666667Y-65304819D02*
X199571429Y-65257200D01*
X199571429Y-65257200D02*
X199523810Y-65209580D01*
X181190476Y-64304819D02*
X181190476Y-65019104D01*
X181190476Y-65019104D02*
X181142857Y-65161961D01*
X181142857Y-65161961D02*
X181047619Y-65257200D01*
X181047619Y-65257200D02*
X180904762Y-65304819D01*
X180904762Y-65304819D02*
X180809524Y-65304819D01*
X181619048Y-64400057D02*
X181666667Y-64352438D01*
X181666667Y-64352438D02*
X181761905Y-64304819D01*
X181761905Y-64304819D02*
X182000000Y-64304819D01*
X182000000Y-64304819D02*
X182095238Y-64352438D01*
X182095238Y-64352438D02*
X182142857Y-64400057D01*
X182142857Y-64400057D02*
X182190476Y-64495295D01*
X182190476Y-64495295D02*
X182190476Y-64590533D01*
X182190476Y-64590533D02*
X182142857Y-64733390D01*
X182142857Y-64733390D02*
X181571429Y-65304819D01*
X181571429Y-65304819D02*
X182190476Y-65304819D01*
X183142857Y-65304819D02*
X182571429Y-65304819D01*
X182857143Y-65304819D02*
X182857143Y-64304819D01*
X182857143Y-64304819D02*
X182761905Y-64447676D01*
X182761905Y-64447676D02*
X182666667Y-64542914D01*
X182666667Y-64542914D02*
X182571429Y-64590533D01*
X101690476Y-104454819D02*
X101690476Y-105169104D01*
X101690476Y-105169104D02*
X101642857Y-105311961D01*
X101642857Y-105311961D02*
X101547619Y-105407200D01*
X101547619Y-105407200D02*
X101404762Y-105454819D01*
X101404762Y-105454819D02*
X101309524Y-105454819D01*
X102690476Y-105454819D02*
X102119048Y-105454819D01*
X102404762Y-105454819D02*
X102404762Y-104454819D01*
X102404762Y-104454819D02*
X102309524Y-104597676D01*
X102309524Y-104597676D02*
X102214286Y-104692914D01*
X102214286Y-104692914D02*
X102119048Y-104740533D01*
X103547619Y-104788152D02*
X103547619Y-105454819D01*
X103309524Y-104407200D02*
X103071429Y-105121485D01*
X103071429Y-105121485D02*
X103690476Y-105121485D01*
X194940476Y-104454819D02*
X194940476Y-105169104D01*
X194940476Y-105169104D02*
X194892857Y-105311961D01*
X194892857Y-105311961D02*
X194797619Y-105407200D01*
X194797619Y-105407200D02*
X194654762Y-105454819D01*
X194654762Y-105454819D02*
X194559524Y-105454819D01*
X195369048Y-104550057D02*
X195416667Y-104502438D01*
X195416667Y-104502438D02*
X195511905Y-104454819D01*
X195511905Y-104454819D02*
X195750000Y-104454819D01*
X195750000Y-104454819D02*
X195845238Y-104502438D01*
X195845238Y-104502438D02*
X195892857Y-104550057D01*
X195892857Y-104550057D02*
X195940476Y-104645295D01*
X195940476Y-104645295D02*
X195940476Y-104740533D01*
X195940476Y-104740533D02*
X195892857Y-104883390D01*
X195892857Y-104883390D02*
X195321429Y-105454819D01*
X195321429Y-105454819D02*
X195940476Y-105454819D01*
X196797619Y-104788152D02*
X196797619Y-105454819D01*
X196559524Y-104407200D02*
X196321429Y-105121485D01*
X196321429Y-105121485D02*
X196940476Y-105121485D01*
X159690476Y-64304819D02*
X159690476Y-65019104D01*
X159690476Y-65019104D02*
X159642857Y-65161961D01*
X159642857Y-65161961D02*
X159547619Y-65257200D01*
X159547619Y-65257200D02*
X159404762Y-65304819D01*
X159404762Y-65304819D02*
X159309524Y-65304819D01*
X160119048Y-64400057D02*
X160166667Y-64352438D01*
X160166667Y-64352438D02*
X160261905Y-64304819D01*
X160261905Y-64304819D02*
X160500000Y-64304819D01*
X160500000Y-64304819D02*
X160595238Y-64352438D01*
X160595238Y-64352438D02*
X160642857Y-64400057D01*
X160642857Y-64400057D02*
X160690476Y-64495295D01*
X160690476Y-64495295D02*
X160690476Y-64590533D01*
X160690476Y-64590533D02*
X160642857Y-64733390D01*
X160642857Y-64733390D02*
X160071429Y-65304819D01*
X160071429Y-65304819D02*
X160690476Y-65304819D01*
X161309524Y-64304819D02*
X161404762Y-64304819D01*
X161404762Y-64304819D02*
X161500000Y-64352438D01*
X161500000Y-64352438D02*
X161547619Y-64400057D01*
X161547619Y-64400057D02*
X161595238Y-64495295D01*
X161595238Y-64495295D02*
X161642857Y-64685771D01*
X161642857Y-64685771D02*
X161642857Y-64923866D01*
X161642857Y-64923866D02*
X161595238Y-65114342D01*
X161595238Y-65114342D02*
X161547619Y-65209580D01*
X161547619Y-65209580D02*
X161500000Y-65257200D01*
X161500000Y-65257200D02*
X161404762Y-65304819D01*
X161404762Y-65304819D02*
X161309524Y-65304819D01*
X161309524Y-65304819D02*
X161214286Y-65257200D01*
X161214286Y-65257200D02*
X161166667Y-65209580D01*
X161166667Y-65209580D02*
X161119048Y-65114342D01*
X161119048Y-65114342D02*
X161071429Y-64923866D01*
X161071429Y-64923866D02*
X161071429Y-64685771D01*
X161071429Y-64685771D02*
X161119048Y-64495295D01*
X161119048Y-64495295D02*
X161166667Y-64400057D01*
X161166667Y-64400057D02*
X161214286Y-64352438D01*
X161214286Y-64352438D02*
X161309524Y-64304819D01*
X156440476Y-104454819D02*
X156440476Y-105169104D01*
X156440476Y-105169104D02*
X156392857Y-105311961D01*
X156392857Y-105311961D02*
X156297619Y-105407200D01*
X156297619Y-105407200D02*
X156154762Y-105454819D01*
X156154762Y-105454819D02*
X156059524Y-105454819D01*
X157440476Y-105454819D02*
X156869048Y-105454819D01*
X157154762Y-105454819D02*
X157154762Y-104454819D01*
X157154762Y-104454819D02*
X157059524Y-104597676D01*
X157059524Y-104597676D02*
X156964286Y-104692914D01*
X156964286Y-104692914D02*
X156869048Y-104740533D01*
X157916667Y-105454819D02*
X158107143Y-105454819D01*
X158107143Y-105454819D02*
X158202381Y-105407200D01*
X158202381Y-105407200D02*
X158250000Y-105359580D01*
X158250000Y-105359580D02*
X158345238Y-105216723D01*
X158345238Y-105216723D02*
X158392857Y-105026247D01*
X158392857Y-105026247D02*
X158392857Y-104645295D01*
X158392857Y-104645295D02*
X158345238Y-104550057D01*
X158345238Y-104550057D02*
X158297619Y-104502438D01*
X158297619Y-104502438D02*
X158202381Y-104454819D01*
X158202381Y-104454819D02*
X158011905Y-104454819D01*
X158011905Y-104454819D02*
X157916667Y-104502438D01*
X157916667Y-104502438D02*
X157869048Y-104550057D01*
X157869048Y-104550057D02*
X157821429Y-104645295D01*
X157821429Y-104645295D02*
X157821429Y-104883390D01*
X157821429Y-104883390D02*
X157869048Y-104978628D01*
X157869048Y-104978628D02*
X157916667Y-105026247D01*
X157916667Y-105026247D02*
X158011905Y-105073866D01*
X158011905Y-105073866D02*
X158202381Y-105073866D01*
X158202381Y-105073866D02*
X158297619Y-105026247D01*
X158297619Y-105026247D02*
X158345238Y-104978628D01*
X158345238Y-104978628D02*
X158392857Y-104883390D01*
X139940476Y-104454819D02*
X139940476Y-105169104D01*
X139940476Y-105169104D02*
X139892857Y-105311961D01*
X139892857Y-105311961D02*
X139797619Y-105407200D01*
X139797619Y-105407200D02*
X139654762Y-105454819D01*
X139654762Y-105454819D02*
X139559524Y-105454819D01*
X140940476Y-105454819D02*
X140369048Y-105454819D01*
X140654762Y-105454819D02*
X140654762Y-104454819D01*
X140654762Y-104454819D02*
X140559524Y-104597676D01*
X140559524Y-104597676D02*
X140464286Y-104692914D01*
X140464286Y-104692914D02*
X140369048Y-104740533D01*
X141511905Y-104883390D02*
X141416667Y-104835771D01*
X141416667Y-104835771D02*
X141369048Y-104788152D01*
X141369048Y-104788152D02*
X141321429Y-104692914D01*
X141321429Y-104692914D02*
X141321429Y-104645295D01*
X141321429Y-104645295D02*
X141369048Y-104550057D01*
X141369048Y-104550057D02*
X141416667Y-104502438D01*
X141416667Y-104502438D02*
X141511905Y-104454819D01*
X141511905Y-104454819D02*
X141702381Y-104454819D01*
X141702381Y-104454819D02*
X141797619Y-104502438D01*
X141797619Y-104502438D02*
X141845238Y-104550057D01*
X141845238Y-104550057D02*
X141892857Y-104645295D01*
X141892857Y-104645295D02*
X141892857Y-104692914D01*
X141892857Y-104692914D02*
X141845238Y-104788152D01*
X141845238Y-104788152D02*
X141797619Y-104835771D01*
X141797619Y-104835771D02*
X141702381Y-104883390D01*
X141702381Y-104883390D02*
X141511905Y-104883390D01*
X141511905Y-104883390D02*
X141416667Y-104931009D01*
X141416667Y-104931009D02*
X141369048Y-104978628D01*
X141369048Y-104978628D02*
X141321429Y-105073866D01*
X141321429Y-105073866D02*
X141321429Y-105264342D01*
X141321429Y-105264342D02*
X141369048Y-105359580D01*
X141369048Y-105359580D02*
X141416667Y-105407200D01*
X141416667Y-105407200D02*
X141511905Y-105454819D01*
X141511905Y-105454819D02*
X141702381Y-105454819D01*
X141702381Y-105454819D02*
X141797619Y-105407200D01*
X141797619Y-105407200D02*
X141845238Y-105359580D01*
X141845238Y-105359580D02*
X141892857Y-105264342D01*
X141892857Y-105264342D02*
X141892857Y-105073866D01*
X141892857Y-105073866D02*
X141845238Y-104978628D01*
X141845238Y-104978628D02*
X141797619Y-104931009D01*
X141797619Y-104931009D02*
X141702381Y-104883390D01*
X147416666Y-104454819D02*
X147416666Y-105169104D01*
X147416666Y-105169104D02*
X147369047Y-105311961D01*
X147369047Y-105311961D02*
X147273809Y-105407200D01*
X147273809Y-105407200D02*
X147130952Y-105454819D01*
X147130952Y-105454819D02*
X147035714Y-105454819D01*
X147797619Y-104454819D02*
X148464285Y-104454819D01*
X148464285Y-104454819D02*
X148035714Y-105454819D01*
X171666666Y-64304819D02*
X171666666Y-65019104D01*
X171666666Y-65019104D02*
X171619047Y-65161961D01*
X171619047Y-65161961D02*
X171523809Y-65257200D01*
X171523809Y-65257200D02*
X171380952Y-65304819D01*
X171380952Y-65304819D02*
X171285714Y-65304819D01*
X172190476Y-65304819D02*
X172380952Y-65304819D01*
X172380952Y-65304819D02*
X172476190Y-65257200D01*
X172476190Y-65257200D02*
X172523809Y-65209580D01*
X172523809Y-65209580D02*
X172619047Y-65066723D01*
X172619047Y-65066723D02*
X172666666Y-64876247D01*
X172666666Y-64876247D02*
X172666666Y-64495295D01*
X172666666Y-64495295D02*
X172619047Y-64400057D01*
X172619047Y-64400057D02*
X172571428Y-64352438D01*
X172571428Y-64352438D02*
X172476190Y-64304819D01*
X172476190Y-64304819D02*
X172285714Y-64304819D01*
X172285714Y-64304819D02*
X172190476Y-64352438D01*
X172190476Y-64352438D02*
X172142857Y-64400057D01*
X172142857Y-64400057D02*
X172095238Y-64495295D01*
X172095238Y-64495295D02*
X172095238Y-64733390D01*
X172095238Y-64733390D02*
X172142857Y-64828628D01*
X172142857Y-64828628D02*
X172190476Y-64876247D01*
X172190476Y-64876247D02*
X172285714Y-64923866D01*
X172285714Y-64923866D02*
X172476190Y-64923866D01*
X172476190Y-64923866D02*
X172571428Y-64876247D01*
X172571428Y-64876247D02*
X172619047Y-64828628D01*
X172619047Y-64828628D02*
X172666666Y-64733390D01*
X109416666Y-104454819D02*
X109416666Y-105169104D01*
X109416666Y-105169104D02*
X109369047Y-105311961D01*
X109369047Y-105311961D02*
X109273809Y-105407200D01*
X109273809Y-105407200D02*
X109130952Y-105454819D01*
X109130952Y-105454819D02*
X109035714Y-105454819D01*
X109797619Y-104454819D02*
X110416666Y-104454819D01*
X110416666Y-104454819D02*
X110083333Y-104835771D01*
X110083333Y-104835771D02*
X110226190Y-104835771D01*
X110226190Y-104835771D02*
X110321428Y-104883390D01*
X110321428Y-104883390D02*
X110369047Y-104931009D01*
X110369047Y-104931009D02*
X110416666Y-105026247D01*
X110416666Y-105026247D02*
X110416666Y-105264342D01*
X110416666Y-105264342D02*
X110369047Y-105359580D01*
X110369047Y-105359580D02*
X110321428Y-105407200D01*
X110321428Y-105407200D02*
X110226190Y-105454819D01*
X110226190Y-105454819D02*
X109940476Y-105454819D01*
X109940476Y-105454819D02*
X109845238Y-105407200D01*
X109845238Y-105407200D02*
X109797619Y-105359580D01*
X105190476Y-64304819D02*
X105190476Y-65019104D01*
X105190476Y-65019104D02*
X105142857Y-65161961D01*
X105142857Y-65161961D02*
X105047619Y-65257200D01*
X105047619Y-65257200D02*
X104904762Y-65304819D01*
X104904762Y-65304819D02*
X104809524Y-65304819D01*
X106190476Y-65304819D02*
X105619048Y-65304819D01*
X105904762Y-65304819D02*
X105904762Y-64304819D01*
X105904762Y-64304819D02*
X105809524Y-64447676D01*
X105809524Y-64447676D02*
X105714286Y-64542914D01*
X105714286Y-64542914D02*
X105619048Y-64590533D01*
X106523810Y-64304819D02*
X107142857Y-64304819D01*
X107142857Y-64304819D02*
X106809524Y-64685771D01*
X106809524Y-64685771D02*
X106952381Y-64685771D01*
X106952381Y-64685771D02*
X107047619Y-64733390D01*
X107047619Y-64733390D02*
X107095238Y-64781009D01*
X107095238Y-64781009D02*
X107142857Y-64876247D01*
X107142857Y-64876247D02*
X107142857Y-65114342D01*
X107142857Y-65114342D02*
X107095238Y-65209580D01*
X107095238Y-65209580D02*
X107047619Y-65257200D01*
X107047619Y-65257200D02*
X106952381Y-65304819D01*
X106952381Y-65304819D02*
X106666667Y-65304819D01*
X106666667Y-65304819D02*
X106571429Y-65257200D01*
X106571429Y-65257200D02*
X106523810Y-65209580D01*
D11*
%TO.C,J12*%
X187150000Y-65650000D02*
X188480000Y-65650000D01*
X187150000Y-66980000D02*
X187150000Y-65650000D01*
X187670000Y-69340000D02*
X187670000Y-69400000D01*
X187670000Y-69340000D02*
X190330000Y-69340000D01*
X187670000Y-69400000D02*
X190330000Y-69400000D01*
X190330000Y-69340000D02*
X190330000Y-69400000D01*
%TO.C,J16*%
X120650000Y-65650000D02*
X121980000Y-65650000D01*
X120650000Y-66980000D02*
X120650000Y-65650000D01*
X121170000Y-69340000D02*
X121170000Y-69400000D01*
X121170000Y-69340000D02*
X123830000Y-69340000D01*
X121170000Y-69400000D02*
X123830000Y-69400000D01*
X123830000Y-69340000D02*
X123830000Y-69400000D01*
%TO.C,J4*%
X110650000Y-65650000D02*
X111980000Y-65650000D01*
X110650000Y-66980000D02*
X110650000Y-65650000D01*
X111170000Y-69340000D02*
X111170000Y-69400000D01*
X111170000Y-69340000D02*
X113830000Y-69340000D01*
X111170000Y-69400000D02*
X113830000Y-69400000D01*
X113830000Y-69340000D02*
X113830000Y-69400000D01*
%TO.C,J2*%
X94150000Y-65650000D02*
X95480000Y-65650000D01*
X94150000Y-66980000D02*
X94150000Y-65650000D01*
X94670000Y-69340000D02*
X94670000Y-69400000D01*
X94670000Y-69340000D02*
X97330000Y-69340000D01*
X94670000Y-69400000D02*
X97330000Y-69400000D01*
X97330000Y-69340000D02*
X97330000Y-69400000D01*
%TO.C,J8*%
X148650000Y-65650000D02*
X149980000Y-65650000D01*
X148650000Y-66980000D02*
X148650000Y-65650000D01*
X149170000Y-69340000D02*
X149170000Y-69400000D01*
X149170000Y-69340000D02*
X151830000Y-69340000D01*
X149170000Y-69400000D02*
X151830000Y-69400000D01*
X151830000Y-69340000D02*
X151830000Y-69400000D01*
%TO.C,J17*%
X142150000Y-65650000D02*
X143480000Y-65650000D01*
X142150000Y-66980000D02*
X142150000Y-65650000D01*
X142670000Y-69340000D02*
X142670000Y-69400000D01*
X142670000Y-69340000D02*
X145330000Y-69340000D01*
X142670000Y-69400000D02*
X145330000Y-69400000D01*
X145330000Y-69340000D02*
X145330000Y-69400000D01*
%TO.C,J6*%
X132150000Y-101150000D02*
X133480000Y-101150000D01*
X132150000Y-102480000D02*
X132150000Y-101150000D01*
X132670000Y-104840000D02*
X132670000Y-104900000D01*
X132670000Y-104840000D02*
X135330000Y-104840000D01*
X132670000Y-104900000D02*
X135330000Y-104900000D01*
X135330000Y-104840000D02*
X135330000Y-104900000D01*
%TO.C,J15*%
X120650000Y-101150000D02*
X121980000Y-101150000D01*
X120650000Y-102480000D02*
X120650000Y-101150000D01*
X121170000Y-104840000D02*
X121170000Y-104900000D01*
X121170000Y-104840000D02*
X123830000Y-104840000D01*
X121170000Y-104900000D02*
X123830000Y-104900000D01*
X123830000Y-104840000D02*
X123830000Y-104900000D01*
%TO.C,J22*%
X180150000Y-101150000D02*
X181480000Y-101150000D01*
X180150000Y-102480000D02*
X180150000Y-101150000D01*
X180670000Y-104840000D02*
X180670000Y-104900000D01*
X180670000Y-104840000D02*
X183330000Y-104840000D01*
X180670000Y-104900000D02*
X183330000Y-104900000D01*
X183330000Y-104840000D02*
X183330000Y-104900000D01*
%TO.C,J11*%
X187150000Y-101150000D02*
X188480000Y-101150000D01*
X187150000Y-102480000D02*
X187150000Y-101150000D01*
X187670000Y-104840000D02*
X187670000Y-104900000D01*
X187670000Y-104840000D02*
X190330000Y-104840000D01*
X187670000Y-104900000D02*
X190330000Y-104900000D01*
X190330000Y-104840000D02*
X190330000Y-104900000D01*
%TO.C,J10*%
X170150000Y-101150000D02*
X171480000Y-101150000D01*
X170150000Y-102480000D02*
X170150000Y-101150000D01*
X170670000Y-104840000D02*
X170670000Y-104900000D01*
X170670000Y-104840000D02*
X173330000Y-104840000D01*
X170670000Y-104900000D02*
X173330000Y-104900000D01*
X173330000Y-104840000D02*
X173330000Y-104900000D01*
%TO.C,J1*%
X94150000Y-101150000D02*
X95480000Y-101150000D01*
X94150000Y-102480000D02*
X94150000Y-101150000D01*
X94670000Y-104840000D02*
X94670000Y-104900000D01*
X94670000Y-104840000D02*
X97330000Y-104840000D01*
X94670000Y-104900000D02*
X97330000Y-104900000D01*
X97330000Y-104840000D02*
X97330000Y-104900000D01*
%TO.C,J5*%
X132150000Y-65650000D02*
X133480000Y-65650000D01*
X132150000Y-66980000D02*
X132150000Y-65650000D01*
X132670000Y-69340000D02*
X132670000Y-69400000D01*
X132670000Y-69340000D02*
X135330000Y-69340000D01*
X132670000Y-69400000D02*
X135330000Y-69400000D01*
X135330000Y-69340000D02*
X135330000Y-69400000D01*
%TO.C,J23*%
X197150000Y-65650000D02*
X198480000Y-65650000D01*
X197150000Y-66980000D02*
X197150000Y-65650000D01*
X197670000Y-69340000D02*
X197670000Y-69400000D01*
X197670000Y-69340000D02*
X200330000Y-69340000D01*
X197670000Y-69400000D02*
X200330000Y-69400000D01*
X200330000Y-69340000D02*
X200330000Y-69400000D01*
%TO.C,J21*%
X180150000Y-65650000D02*
X181480000Y-65650000D01*
X180150000Y-66980000D02*
X180150000Y-65650000D01*
X180670000Y-69340000D02*
X180670000Y-69400000D01*
X180670000Y-69340000D02*
X183330000Y-69340000D01*
X180670000Y-69400000D02*
X183330000Y-69400000D01*
X183330000Y-69340000D02*
X183330000Y-69400000D01*
%TO.C,J14*%
X104150000Y-101150000D02*
X105480000Y-101150000D01*
X104150000Y-102480000D02*
X104150000Y-101150000D01*
X104670000Y-104840000D02*
X104670000Y-104900000D01*
X104670000Y-104840000D02*
X107330000Y-104840000D01*
X104670000Y-104900000D02*
X107330000Y-104900000D01*
X107330000Y-104840000D02*
X107330000Y-104900000D01*
%TO.C,J24*%
X197150000Y-101150000D02*
X198480000Y-101150000D01*
X197150000Y-102480000D02*
X197150000Y-101150000D01*
X197670000Y-104840000D02*
X197670000Y-104900000D01*
X197670000Y-104840000D02*
X200330000Y-104840000D01*
X197670000Y-104900000D02*
X200330000Y-104900000D01*
X200330000Y-104840000D02*
X200330000Y-104900000D01*
%TO.C,J20*%
X158650000Y-65650000D02*
X159980000Y-65650000D01*
X158650000Y-66980000D02*
X158650000Y-65650000D01*
X159170000Y-69340000D02*
X159170000Y-69400000D01*
X159170000Y-69340000D02*
X161830000Y-69340000D01*
X159170000Y-69400000D02*
X161830000Y-69400000D01*
X161830000Y-69340000D02*
X161830000Y-69400000D01*
%TO.C,J19*%
X158650000Y-101150000D02*
X159980000Y-101150000D01*
X158650000Y-102480000D02*
X158650000Y-101150000D01*
X159170000Y-104840000D02*
X159170000Y-104900000D01*
X159170000Y-104840000D02*
X161830000Y-104840000D01*
X159170000Y-104900000D02*
X161830000Y-104900000D01*
X161830000Y-104840000D02*
X161830000Y-104900000D01*
%TO.C,J18*%
X142150000Y-101150000D02*
X143480000Y-101150000D01*
X142150000Y-102480000D02*
X142150000Y-101150000D01*
X142670000Y-104840000D02*
X142670000Y-104900000D01*
X142670000Y-104840000D02*
X145330000Y-104840000D01*
X142670000Y-104900000D02*
X145330000Y-104900000D01*
X145330000Y-104840000D02*
X145330000Y-104900000D01*
%TO.C,J7*%
X148650000Y-101150000D02*
X149980000Y-101150000D01*
X148650000Y-102480000D02*
X148650000Y-101150000D01*
X149170000Y-104840000D02*
X149170000Y-104900000D01*
X149170000Y-104840000D02*
X151830000Y-104840000D01*
X149170000Y-104900000D02*
X151830000Y-104900000D01*
X151830000Y-104840000D02*
X151830000Y-104900000D01*
%TO.C,J9*%
X170150000Y-65650000D02*
X171480000Y-65650000D01*
X170150000Y-66980000D02*
X170150000Y-65650000D01*
X170670000Y-69340000D02*
X170670000Y-69400000D01*
X170670000Y-69340000D02*
X173330000Y-69340000D01*
X170670000Y-69400000D02*
X173330000Y-69400000D01*
X173330000Y-69340000D02*
X173330000Y-69400000D01*
%TO.C,J3*%
X110650000Y-101150000D02*
X111980000Y-101150000D01*
X110650000Y-102480000D02*
X110650000Y-101150000D01*
X111170000Y-104840000D02*
X111170000Y-104900000D01*
X111170000Y-104840000D02*
X113830000Y-104840000D01*
X111170000Y-104900000D02*
X113830000Y-104900000D01*
X113830000Y-104840000D02*
X113830000Y-104900000D01*
%TO.C,J13*%
X104150000Y-65650000D02*
X105480000Y-65650000D01*
X104150000Y-66980000D02*
X104150000Y-65650000D01*
X104670000Y-69340000D02*
X104670000Y-69400000D01*
X104670000Y-69340000D02*
X107330000Y-69340000D01*
X104670000Y-69400000D02*
X107330000Y-69400000D01*
X107330000Y-69340000D02*
X107330000Y-69400000D01*
%TD*%
M02*
