%TF.GenerationSoftware,KiCad,Pcbnew,8.0.2*%
%TF.CreationDate,2024-05-23T18:59:23-04:00*%
%TF.ProjectId,UpperPOGO,55707065-7250-44f4-974f-2e6b69636164,rev?*%
%TF.SameCoordinates,Original*%
%TF.FileFunction,Legend,Bot*%
%TF.FilePolarity,Positive*%
%FSLAX46Y46*%
G04 Gerber Fmt 4.6, Leading zero omitted, Abs format (unit mm)*
G04 Created by KiCad (PCBNEW 8.0.2) date 2024-05-23 18:59:23*
%MOMM*%
%LPD*%
G01*
G04 APERTURE LIST*
%ADD10C,0.150000*%
%ADD11C,0.120000*%
G04 APERTURE END LIST*
D10*
X130184819Y-58710476D02*
X130899104Y-58710476D01*
X130899104Y-58710476D02*
X131041961Y-58662857D01*
X131041961Y-58662857D02*
X131137200Y-58567619D01*
X131137200Y-58567619D02*
X131184819Y-58424762D01*
X131184819Y-58424762D02*
X131184819Y-58329524D01*
X130280057Y-59139048D02*
X130232438Y-59186667D01*
X130232438Y-59186667D02*
X130184819Y-59281905D01*
X130184819Y-59281905D02*
X130184819Y-59520000D01*
X130184819Y-59520000D02*
X130232438Y-59615238D01*
X130232438Y-59615238D02*
X130280057Y-59662857D01*
X130280057Y-59662857D02*
X130375295Y-59710476D01*
X130375295Y-59710476D02*
X130470533Y-59710476D01*
X130470533Y-59710476D02*
X130613390Y-59662857D01*
X130613390Y-59662857D02*
X131184819Y-59091429D01*
X131184819Y-59091429D02*
X131184819Y-59710476D01*
X130184819Y-60615238D02*
X130184819Y-60139048D01*
X130184819Y-60139048D02*
X130661009Y-60091429D01*
X130661009Y-60091429D02*
X130613390Y-60139048D01*
X130613390Y-60139048D02*
X130565771Y-60234286D01*
X130565771Y-60234286D02*
X130565771Y-60472381D01*
X130565771Y-60472381D02*
X130613390Y-60567619D01*
X130613390Y-60567619D02*
X130661009Y-60615238D01*
X130661009Y-60615238D02*
X130756247Y-60662857D01*
X130756247Y-60662857D02*
X130994342Y-60662857D01*
X130994342Y-60662857D02*
X131089580Y-60615238D01*
X131089580Y-60615238D02*
X131137200Y-60567619D01*
X131137200Y-60567619D02*
X131184819Y-60472381D01*
X131184819Y-60472381D02*
X131184819Y-60234286D01*
X131184819Y-60234286D02*
X131137200Y-60139048D01*
X131137200Y-60139048D02*
X131089580Y-60091429D01*
D11*
%TO.C,J25*%
X162770000Y-62120000D02*
X134770000Y-62120000D01*
X133500000Y-62120000D02*
X132170000Y-62120000D01*
X132170000Y-62120000D02*
X132170000Y-60790000D01*
X134770000Y-62120000D02*
X134770000Y-59520000D01*
X134770000Y-59520000D02*
X132170000Y-59520000D01*
X162770000Y-62120000D02*
X162770000Y-56920000D01*
X132170000Y-59520000D02*
X132170000Y-56920000D01*
X162770000Y-56920000D02*
X132170000Y-56920000D01*
%TD*%
M02*
