%TF.GenerationSoftware,KiCad,Pcbnew,8.0.1*%
%TF.CreationDate,2024-05-16T15:44:09-04:00*%
%TF.ProjectId,UpperPOGO,55707065-7250-44f4-974f-2e6b69636164,rev?*%
%TF.SameCoordinates,Original*%
%TF.FileFunction,Copper,L2,Bot*%
%TF.FilePolarity,Positive*%
%FSLAX46Y46*%
G04 Gerber Fmt 4.6, Leading zero omitted, Abs format (unit mm)*
G04 Created by KiCad (PCBNEW 8.0.1) date 2024-05-16 15:44:09*
%MOMM*%
%LPD*%
G01*
G04 APERTURE LIST*
%TA.AperFunction,ComponentPad*%
%ADD10O,1.700000X1.700000*%
%TD*%
%TA.AperFunction,ComponentPad*%
%ADD11R,1.700000X1.700000*%
%TD*%
%TA.AperFunction,ComponentPad*%
%ADD12C,3.500000*%
%TD*%
%TA.AperFunction,ComponentPad*%
%ADD13C,3.600000*%
%TD*%
%TA.AperFunction,ConnectorPad*%
%ADD14C,5.600000*%
%TD*%
%TA.AperFunction,Conductor*%
%ADD15C,0.400000*%
%TD*%
G04 APERTURE END LIST*
D10*
%TO.P,J25,1,Pin_1*%
%TO.N,Net-(J1-Pin_1)*%
X133500000Y-58250000D03*
%TO.P,J25,2,Pin_2*%
%TO.N,Net-(J2-Pin_1)*%
X136040000Y-58250000D03*
%TO.P,J25,3,Pin_3*%
%TO.N,Net-(J25-Pin_3)*%
X138580000Y-58250000D03*
%TO.P,J25,4,Pin_4*%
%TO.N,Net-(J25-Pin_4)*%
X141120000Y-58250000D03*
%TO.P,J25,5,Pin_5*%
%TO.N,Net-(J25-Pin_5)*%
X143660000Y-58250000D03*
%TO.P,J25,6,Pin_6*%
%TO.N,Net-(J25-Pin_6)*%
X146200000Y-58250000D03*
%TO.P,J25,7,Pin_7*%
%TO.N,Net-(J25-Pin_7)*%
X148740000Y-58250000D03*
%TO.P,J25,8,Pin_8*%
%TO.N,Net-(J25-Pin_8)*%
X151280000Y-58250000D03*
%TO.P,J25,9,Pin_9*%
%TO.N,Net-(J25-Pin_9)*%
X153820000Y-58250000D03*
%TO.P,J25,10,Pin_10*%
%TO.N,Net-(J10-Pin_1)*%
X156360000Y-58250000D03*
%TO.P,J25,11,Pin_11*%
%TO.N,Net-(J11-Pin_1)*%
X158900000Y-58250000D03*
%TO.P,J25,12,Pin_12*%
%TO.N,Net-(J12-Pin_1)*%
X161440000Y-58250000D03*
%TO.P,J25,13,Pin_13*%
%TO.N,Net-(J13-Pin_1)*%
X133500000Y-60790000D03*
%TO.P,J25,14,Pin_14*%
%TO.N,Net-(J14-Pin_1)*%
X136040000Y-60790000D03*
%TO.P,J25,15,Pin_15*%
%TO.N,Net-(J15-Pin_1)*%
X138580000Y-60790000D03*
%TO.P,J25,16,Pin_16*%
%TO.N,Net-(J16-Pin_1)*%
X141120000Y-60790000D03*
%TO.P,J25,17,Pin_17*%
%TO.N,Net-(J17-Pin_1)*%
X143660000Y-60790000D03*
%TO.P,J25,18,Pin_18*%
%TO.N,Net-(J18-Pin_1)*%
X146200000Y-60790000D03*
%TO.P,J25,19,Pin_19*%
%TO.N,Net-(J19-Pin_1)*%
X148740000Y-60790000D03*
%TO.P,J25,20,Pin_20*%
%TO.N,Net-(J20-Pin_1)*%
X151280000Y-60790000D03*
%TO.P,J25,21,Pin_21*%
%TO.N,Net-(J21-Pin_1)*%
X153820000Y-60790000D03*
%TO.P,J25,22,Pin_22*%
%TO.N,Net-(J22-Pin_1)*%
X156360000Y-60790000D03*
%TO.P,J25,23,Pin_23*%
%TO.N,Net-(J23-Pin_1)*%
X158900000Y-60790000D03*
D11*
%TO.P,J25,24,Pin_24*%
%TO.N,Net-(J24-Pin_1)*%
X161440000Y-60790000D03*
%TD*%
D12*
%TO.P,J12,1,Pin_1*%
%TO.N,Net-(J12-Pin_1)*%
X189000000Y-67500000D03*
%TD*%
%TO.P,J16,1,Pin_1*%
%TO.N,Net-(J16-Pin_1)*%
X122500000Y-67500000D03*
%TD*%
%TO.P,J4,1,Pin_1*%
%TO.N,Net-(J25-Pin_4)*%
X112500000Y-67500000D03*
%TD*%
%TO.P,J2,1,Pin_1*%
%TO.N,Net-(J2-Pin_1)*%
X96000000Y-67500000D03*
%TD*%
%TO.P,J8,1,Pin_1*%
%TO.N,Net-(J25-Pin_8)*%
X150500000Y-67500000D03*
%TD*%
%TO.P,J17,1,Pin_1*%
%TO.N,Net-(J17-Pin_1)*%
X144000000Y-67500000D03*
%TD*%
%TO.P,J6,1,Pin_1*%
%TO.N,Net-(J25-Pin_6)*%
X134000000Y-103000000D03*
%TD*%
%TO.P,J15,1,Pin_1*%
%TO.N,Net-(J15-Pin_1)*%
X122500000Y-103000000D03*
%TD*%
D13*
%TO.P,H1,1,1*%
%TO.N,Earth*%
X86500000Y-66000000D03*
D14*
X86500000Y-66000000D03*
%TD*%
D13*
%TO.P,H3,1,1*%
%TO.N,Earth*%
X86500000Y-101500000D03*
D14*
X86500000Y-101500000D03*
%TD*%
D12*
%TO.P,J22,1,Pin_1*%
%TO.N,Net-(J22-Pin_1)*%
X182000000Y-103000000D03*
%TD*%
D13*
%TO.P,H4,1,1*%
%TO.N,Earth*%
X205500000Y-101500000D03*
D14*
X205500000Y-101500000D03*
%TD*%
D12*
%TO.P,J11,1,Pin_1*%
%TO.N,Net-(J11-Pin_1)*%
X189000000Y-103000000D03*
%TD*%
%TO.P,J10,1,Pin_1*%
%TO.N,Net-(J10-Pin_1)*%
X172000000Y-103000000D03*
%TD*%
D13*
%TO.P,H2,1,1*%
%TO.N,Earth*%
X205500000Y-66000000D03*
D14*
X205500000Y-66000000D03*
%TD*%
D12*
%TO.P,J1,1,Pin_1*%
%TO.N,Net-(J1-Pin_1)*%
X96000000Y-103000000D03*
%TD*%
%TO.P,J5,1,Pin_1*%
%TO.N,Net-(J25-Pin_5)*%
X134000000Y-67500000D03*
%TD*%
%TO.P,J23,1,Pin_1*%
%TO.N,Net-(J23-Pin_1)*%
X199000000Y-67500000D03*
%TD*%
%TO.P,J21,1,Pin_1*%
%TO.N,Net-(J21-Pin_1)*%
X182000000Y-67500000D03*
%TD*%
%TO.P,J14,1,Pin_1*%
%TO.N,Net-(J14-Pin_1)*%
X106000000Y-103000000D03*
%TD*%
%TO.P,J24,1,Pin_1*%
%TO.N,Net-(J24-Pin_1)*%
X199000000Y-103000000D03*
%TD*%
%TO.P,J20,1,Pin_1*%
%TO.N,Net-(J20-Pin_1)*%
X160500000Y-67500000D03*
%TD*%
%TO.P,J19,1,Pin_1*%
%TO.N,Net-(J19-Pin_1)*%
X160500000Y-103000000D03*
%TD*%
%TO.P,J18,1,Pin_1*%
%TO.N,Net-(J18-Pin_1)*%
X144000000Y-103000000D03*
%TD*%
%TO.P,J7,1,Pin_1*%
%TO.N,Net-(J25-Pin_7)*%
X150500000Y-103000000D03*
%TD*%
%TO.P,J9,1,Pin_1*%
%TO.N,Net-(J25-Pin_9)*%
X172000000Y-67500000D03*
%TD*%
%TO.P,J3,1,Pin_1*%
%TO.N,Net-(J25-Pin_3)*%
X112500000Y-103000000D03*
%TD*%
%TO.P,J13,1,Pin_1*%
%TO.N,Net-(J13-Pin_1)*%
X106000000Y-67500000D03*
%TD*%
D15*
%TO.N,Net-(J1-Pin_1)*%
X96000000Y-103000000D02*
X93800000Y-100800000D01*
X132100000Y-61789950D02*
X132100000Y-59650000D01*
X131089950Y-62800000D02*
X132100000Y-61789950D01*
X97200000Y-62800000D02*
X131089950Y-62800000D01*
X132100000Y-59650000D02*
X133500000Y-58250000D01*
X93800000Y-66200000D02*
X97200000Y-62800000D01*
X93800000Y-100800000D02*
X93800000Y-66200000D01*
%TO.N,Net-(J2-Pin_1)*%
X134750000Y-59540000D02*
X136040000Y-58250000D01*
X98600000Y-63400000D02*
X132657767Y-63400000D01*
X132657767Y-63400000D02*
X134750000Y-61307767D01*
X96000000Y-66000000D02*
X98600000Y-63400000D01*
X96000000Y-67500000D02*
X96000000Y-66000000D01*
X134750000Y-61307767D02*
X134750000Y-59540000D01*
%TO.N,Net-(J25-Pin_3)*%
X112500000Y-103000000D02*
X111000000Y-103000000D01*
X111750000Y-64000000D02*
X134597767Y-64000000D01*
X134597767Y-64000000D02*
X137290000Y-61307767D01*
X109250000Y-101250000D02*
X109250000Y-66500000D01*
X109250000Y-66500000D02*
X111750000Y-64000000D01*
X111000000Y-103000000D02*
X109250000Y-101250000D01*
X137290000Y-61307767D02*
X137290000Y-59540000D01*
X137290000Y-59540000D02*
X138580000Y-58250000D01*
%TO.N,Net-(J25-Pin_4)*%
X112500000Y-66000000D02*
X113900000Y-64600000D01*
X139830000Y-59540000D02*
X141120000Y-58250000D01*
X112500000Y-67500000D02*
X112500000Y-66000000D01*
X139830000Y-61307767D02*
X139830000Y-59540000D01*
X136537767Y-64600000D02*
X139830000Y-61307767D01*
X113900000Y-64600000D02*
X136537767Y-64600000D01*
%TO.N,Net-(J25-Pin_5)*%
X142410000Y-62590000D02*
X142410000Y-59500000D01*
X136200000Y-65300000D02*
X139700000Y-65300000D01*
X142410000Y-59500000D02*
X143660000Y-58250000D01*
X139700000Y-65300000D02*
X142410000Y-62590000D01*
X134000000Y-67500000D02*
X136200000Y-65300000D01*
%TO.N,Net-(J25-Pin_6)*%
X134000000Y-103000000D02*
X134000000Y-104500000D01*
X145000000Y-105300000D02*
X146200000Y-104100000D01*
X134800000Y-105300000D02*
X145000000Y-105300000D01*
X144950000Y-61950000D02*
X144950000Y-59500000D01*
X146200000Y-63200000D02*
X144950000Y-61950000D01*
X144950000Y-59500000D02*
X146200000Y-58250000D01*
X134000000Y-104500000D02*
X134800000Y-105300000D01*
X146200000Y-104100000D02*
X146200000Y-63200000D01*
%TO.N,Net-(J25-Pin_7)*%
X148300000Y-62550000D02*
X147490000Y-61740000D01*
X148300000Y-100800000D02*
X148300000Y-62550000D01*
X150500000Y-103000000D02*
X148300000Y-100800000D01*
X147490000Y-60010000D02*
X147500000Y-60000000D01*
X147490000Y-61740000D02*
X147490000Y-60010000D01*
X147500000Y-59490000D02*
X148740000Y-58250000D01*
X147500000Y-60000000D02*
X147500000Y-59490000D01*
X150500000Y-103000000D02*
X149000000Y-103000000D01*
%TO.N,Net-(J25-Pin_8)*%
X151280000Y-58250000D02*
X150030000Y-59500000D01*
X150030000Y-59500000D02*
X150030000Y-67030000D01*
X150030000Y-67030000D02*
X150500000Y-67500000D01*
%TO.N,Net-(J25-Pin_9)*%
X153820000Y-58250000D02*
X155070000Y-59500000D01*
X155070000Y-61267767D02*
X158802233Y-65000000D01*
X169500000Y-65000000D02*
X172000000Y-67500000D01*
X158802233Y-65000000D02*
X169500000Y-65000000D01*
X155070000Y-59500000D02*
X155070000Y-61267767D01*
%TO.N,Net-(J10-Pin_1)*%
X172800000Y-105300000D02*
X183200000Y-105300000D01*
X172000000Y-103000000D02*
X172000000Y-104500000D01*
X160342233Y-64000000D02*
X157650000Y-61307767D01*
X182500000Y-64000000D02*
X160342233Y-64000000D01*
X157650000Y-61307767D02*
X157650000Y-59540000D01*
X183200000Y-105300000D02*
X184200000Y-104300000D01*
X172000000Y-104500000D02*
X172800000Y-105300000D01*
X184200000Y-65700000D02*
X182500000Y-64000000D01*
X184200000Y-104300000D02*
X184200000Y-65700000D01*
X157650000Y-59540000D02*
X156360000Y-58250000D01*
%TO.N,Net-(J11-Pin_1)*%
X187500000Y-103000000D02*
X186750000Y-102250000D01*
X160190000Y-59540000D02*
X158900000Y-58250000D01*
X160190000Y-62040000D02*
X160190000Y-59540000D01*
X160950000Y-62800000D02*
X160190000Y-62040000D01*
X186750000Y-102250000D02*
X186750000Y-66750000D01*
X182800000Y-62800000D02*
X160950000Y-62800000D01*
X186750000Y-66750000D02*
X182800000Y-62800000D01*
X189000000Y-103000000D02*
X187500000Y-103000000D01*
%TO.N,Net-(J12-Pin_1)*%
X162690000Y-59500000D02*
X161440000Y-58250000D01*
X183700000Y-62200000D02*
X163205026Y-62200000D01*
X162690000Y-61684974D02*
X162690000Y-59500000D01*
X189000000Y-67500000D02*
X183700000Y-62200000D01*
X163205026Y-62200000D02*
X162690000Y-61684974D01*
%TD*%
%TA.AperFunction,Conductor*%
%TO.N,Earth*%
G36*
X131196731Y-62022174D02*
G01*
X131218405Y-62074500D01*
X131196731Y-62126826D01*
X130945731Y-62377826D01*
X130893405Y-62399500D01*
X97252727Y-62399500D01*
X97147273Y-62399500D01*
X97096342Y-62413146D01*
X97045411Y-62426793D01*
X97045407Y-62426795D01*
X96954090Y-62479517D01*
X93479517Y-65954090D01*
X93426795Y-66045407D01*
X93426793Y-66045411D01*
X93426793Y-66045412D01*
X93399500Y-66147273D01*
X93399500Y-100747273D01*
X93399500Y-100852727D01*
X93413509Y-100905011D01*
X93426793Y-100954588D01*
X93426795Y-100954592D01*
X93479517Y-101045909D01*
X93479518Y-101045910D01*
X93479520Y-101045913D01*
X93929516Y-101495909D01*
X94323349Y-101889742D01*
X94345023Y-101942068D01*
X94335971Y-101977533D01*
X94221228Y-102187666D01*
X94123733Y-102449062D01*
X94123728Y-102449081D01*
X94064421Y-102721708D01*
X94044518Y-102999993D01*
X94044518Y-103000006D01*
X94064421Y-103278291D01*
X94123728Y-103550918D01*
X94123733Y-103550937D01*
X94221228Y-103812333D01*
X94354942Y-104057211D01*
X94361441Y-104065892D01*
X94522145Y-104280568D01*
X94719432Y-104477855D01*
X94870802Y-104591169D01*
X94942788Y-104645057D01*
X95187666Y-104778771D01*
X95449062Y-104876266D01*
X95449067Y-104876267D01*
X95449077Y-104876271D01*
X95721706Y-104935578D01*
X95783549Y-104940001D01*
X95999993Y-104955482D01*
X96000000Y-104955482D01*
X96000007Y-104955482D01*
X96194805Y-104941549D01*
X96278294Y-104935578D01*
X96550923Y-104876271D01*
X96550934Y-104876266D01*
X96550937Y-104876266D01*
X96812333Y-104778771D01*
X96833570Y-104767175D01*
X97057213Y-104645056D01*
X97280568Y-104477855D01*
X97477855Y-104280568D01*
X97645056Y-104057213D01*
X97778769Y-103812337D01*
X97778769Y-103812335D01*
X97778771Y-103812333D01*
X97856166Y-103604828D01*
X97894759Y-103563375D01*
X97951360Y-103561354D01*
X97992813Y-103599947D01*
X97999500Y-103630688D01*
X97999500Y-104065894D01*
X98033606Y-104193181D01*
X98033610Y-104193190D01*
X98069061Y-104254592D01*
X98099500Y-104307314D01*
X98192686Y-104400500D01*
X98306814Y-104466392D01*
X98434105Y-104500499D01*
X98434106Y-104500500D01*
X98434108Y-104500500D01*
X103565894Y-104500500D01*
X103565894Y-104500499D01*
X103693186Y-104466392D01*
X103807314Y-104400500D01*
X103900500Y-104307314D01*
X103966392Y-104193186D01*
X104000499Y-104065894D01*
X104000500Y-104065894D01*
X104000500Y-103630688D01*
X104022174Y-103578362D01*
X104074500Y-103556688D01*
X104126826Y-103578362D01*
X104143834Y-103604828D01*
X104221228Y-103812333D01*
X104354942Y-104057211D01*
X104361441Y-104065892D01*
X104522145Y-104280568D01*
X104719432Y-104477855D01*
X104870802Y-104591169D01*
X104942788Y-104645057D01*
X105187666Y-104778771D01*
X105449062Y-104876266D01*
X105449067Y-104876267D01*
X105449077Y-104876271D01*
X105721706Y-104935578D01*
X105783549Y-104940001D01*
X105999993Y-104955482D01*
X106000000Y-104955482D01*
X106000007Y-104955482D01*
X106194805Y-104941549D01*
X106278294Y-104935578D01*
X106550923Y-104876271D01*
X106550934Y-104876266D01*
X106550937Y-104876266D01*
X106812333Y-104778771D01*
X106833570Y-104767175D01*
X107057213Y-104645056D01*
X107280568Y-104477855D01*
X107477855Y-104280568D01*
X107645056Y-104057213D01*
X107778769Y-103812337D01*
X107778769Y-103812335D01*
X107778771Y-103812333D01*
X107876266Y-103550937D01*
X107876266Y-103550934D01*
X107876271Y-103550923D01*
X107935578Y-103278294D01*
X107942212Y-103185529D01*
X107955482Y-103000006D01*
X107955482Y-102999993D01*
X107935578Y-102721708D01*
X107935578Y-102721706D01*
X107876271Y-102449077D01*
X107876267Y-102449067D01*
X107876266Y-102449062D01*
X107778771Y-102187666D01*
X107645057Y-101942788D01*
X107582224Y-101858853D01*
X107477855Y-101719432D01*
X107280568Y-101522145D01*
X107069479Y-101364126D01*
X107057211Y-101354942D01*
X106812333Y-101221228D01*
X106604828Y-101143834D01*
X106563375Y-101105241D01*
X106561354Y-101048640D01*
X106599947Y-101007187D01*
X106630688Y-101000500D01*
X107565894Y-101000500D01*
X107565894Y-101000499D01*
X107693186Y-100966392D01*
X107807314Y-100900500D01*
X107900500Y-100807314D01*
X107966392Y-100693186D01*
X108000499Y-100565894D01*
X108000500Y-100565894D01*
X108000500Y-88933097D01*
X108000000Y-88925460D01*
X108000000Y-86581074D01*
X108000189Y-86575794D01*
X108005610Y-86500005D01*
X108005610Y-86499993D01*
X108000189Y-86424203D01*
X108000000Y-86418924D01*
X108000000Y-84074540D01*
X108000500Y-84066910D01*
X108000500Y-69934106D01*
X108000499Y-69934105D01*
X107973951Y-69835027D01*
X107966392Y-69806814D01*
X107900500Y-69692686D01*
X107807314Y-69599500D01*
X107738500Y-69559770D01*
X107693190Y-69533610D01*
X107693181Y-69533606D01*
X107565894Y-69499500D01*
X107565892Y-69499500D01*
X106630688Y-69499500D01*
X106578362Y-69477826D01*
X106556688Y-69425500D01*
X106578362Y-69373174D01*
X106604828Y-69356166D01*
X106812333Y-69278771D01*
X106885097Y-69239039D01*
X107057213Y-69145056D01*
X107280568Y-68977855D01*
X107477855Y-68780568D01*
X107645056Y-68557213D01*
X107778769Y-68312337D01*
X107778769Y-68312335D01*
X107778771Y-68312333D01*
X107876266Y-68050937D01*
X107876266Y-68050934D01*
X107876271Y-68050923D01*
X107935578Y-67778294D01*
X107955482Y-67500000D01*
X107955482Y-67499993D01*
X107939489Y-67276387D01*
X107935578Y-67221706D01*
X107876271Y-66949077D01*
X107876267Y-66949067D01*
X107876266Y-66949062D01*
X107778771Y-66687666D01*
X107645057Y-66442788D01*
X107582224Y-66358853D01*
X107477855Y-66219432D01*
X107280568Y-66022145D01*
X107082772Y-65874077D01*
X107057211Y-65854942D01*
X106812333Y-65721228D01*
X106550937Y-65623733D01*
X106550925Y-65623730D01*
X106550923Y-65623729D01*
X106495971Y-65611775D01*
X106278291Y-65564421D01*
X106000007Y-65544518D01*
X105999993Y-65544518D01*
X105721708Y-65564421D01*
X105449081Y-65623728D01*
X105449062Y-65623733D01*
X105187666Y-65721228D01*
X104942788Y-65854942D01*
X104719429Y-66022147D01*
X104522147Y-66219429D01*
X104354942Y-66442788D01*
X104221228Y-66687666D01*
X104143834Y-66895171D01*
X104105241Y-66936624D01*
X104048640Y-66938645D01*
X104007187Y-66900052D01*
X104000500Y-66869311D01*
X104000500Y-65934106D01*
X104000499Y-65934105D01*
X103993726Y-65908829D01*
X103966392Y-65806814D01*
X103900500Y-65692686D01*
X103807314Y-65599500D01*
X103693190Y-65533610D01*
X103693181Y-65533606D01*
X103565894Y-65499500D01*
X103565892Y-65499500D01*
X98565892Y-65499500D01*
X98434108Y-65499500D01*
X98434106Y-65499500D01*
X98306818Y-65533606D01*
X98306809Y-65533610D01*
X98192685Y-65599500D01*
X98099500Y-65692685D01*
X98033610Y-65806809D01*
X98033606Y-65806818D01*
X97999500Y-65934105D01*
X97999500Y-66869311D01*
X97977826Y-66921637D01*
X97925500Y-66943311D01*
X97873174Y-66921637D01*
X97856166Y-66895171D01*
X97778771Y-66687666D01*
X97645057Y-66442788D01*
X97582224Y-66358853D01*
X97477855Y-66219432D01*
X97280568Y-66022145D01*
X97082772Y-65874077D01*
X97057211Y-65854942D01*
X96920328Y-65780198D01*
X96884790Y-65736098D01*
X96890845Y-65679785D01*
X96903463Y-65662928D01*
X98744219Y-63822174D01*
X98796545Y-63800500D01*
X111204455Y-63800500D01*
X111256781Y-63822174D01*
X111278455Y-63874500D01*
X111256781Y-63926826D01*
X108929517Y-66254090D01*
X108876791Y-66345414D01*
X108869347Y-66373204D01*
X108869346Y-66373207D01*
X108849500Y-66447270D01*
X108849500Y-66447273D01*
X108849500Y-101197273D01*
X108849500Y-101302727D01*
X108866579Y-101366469D01*
X108876793Y-101404588D01*
X108876795Y-101404592D01*
X108929517Y-101495909D01*
X108929518Y-101495910D01*
X108929520Y-101495913D01*
X109772191Y-102338583D01*
X110533545Y-103099937D01*
X110555030Y-103146984D01*
X110564421Y-103278291D01*
X110623728Y-103550918D01*
X110623733Y-103550937D01*
X110721228Y-103812333D01*
X110854942Y-104057211D01*
X110861441Y-104065892D01*
X111022145Y-104280568D01*
X111219432Y-104477855D01*
X111370802Y-104591169D01*
X111442788Y-104645057D01*
X111687666Y-104778771D01*
X111949062Y-104876266D01*
X111949067Y-104876267D01*
X111949077Y-104876271D01*
X112221706Y-104935578D01*
X112283549Y-104940001D01*
X112499993Y-104955482D01*
X112500000Y-104955482D01*
X112500007Y-104955482D01*
X112694805Y-104941549D01*
X112778294Y-104935578D01*
X113050923Y-104876271D01*
X113050934Y-104876266D01*
X113050937Y-104876266D01*
X113312333Y-104778771D01*
X113333570Y-104767175D01*
X113557213Y-104645056D01*
X113780568Y-104477855D01*
X113977855Y-104280568D01*
X114145056Y-104057213D01*
X114278769Y-103812337D01*
X114278769Y-103812335D01*
X114278771Y-103812333D01*
X114356166Y-103604828D01*
X114394759Y-103563375D01*
X114451360Y-103561354D01*
X114492813Y-103599947D01*
X114499500Y-103630688D01*
X114499500Y-104065894D01*
X114533606Y-104193181D01*
X114533610Y-104193190D01*
X114569061Y-104254592D01*
X114599500Y-104307314D01*
X114692686Y-104400500D01*
X114806814Y-104466392D01*
X114934105Y-104500499D01*
X114934106Y-104500500D01*
X114934108Y-104500500D01*
X120065894Y-104500500D01*
X120065894Y-104500499D01*
X120193186Y-104466392D01*
X120307314Y-104400500D01*
X120400500Y-104307314D01*
X120466392Y-104193186D01*
X120500499Y-104065894D01*
X120500500Y-104065894D01*
X120500500Y-103630688D01*
X120522174Y-103578362D01*
X120574500Y-103556688D01*
X120626826Y-103578362D01*
X120643834Y-103604828D01*
X120721228Y-103812333D01*
X120854942Y-104057211D01*
X120861441Y-104065892D01*
X121022145Y-104280568D01*
X121219432Y-104477855D01*
X121370802Y-104591169D01*
X121442788Y-104645057D01*
X121687666Y-104778771D01*
X121949062Y-104876266D01*
X121949067Y-104876267D01*
X121949077Y-104876271D01*
X122221706Y-104935578D01*
X122283549Y-104940001D01*
X122499993Y-104955482D01*
X122500000Y-104955482D01*
X122500007Y-104955482D01*
X122694805Y-104941549D01*
X122778294Y-104935578D01*
X123050923Y-104876271D01*
X123050934Y-104876266D01*
X123050937Y-104876266D01*
X123312333Y-104778771D01*
X123333570Y-104767175D01*
X123557213Y-104645056D01*
X123780568Y-104477855D01*
X123977855Y-104280568D01*
X124145056Y-104057213D01*
X124278769Y-103812337D01*
X124278769Y-103812335D01*
X124278771Y-103812333D01*
X124376266Y-103550937D01*
X124376266Y-103550934D01*
X124376271Y-103550923D01*
X124435165Y-103280190D01*
X124467467Y-103233668D01*
X124523204Y-103223612D01*
X124569727Y-103255914D01*
X124571560Y-103258921D01*
X124582745Y-103278294D01*
X124599500Y-103307314D01*
X124692686Y-103400500D01*
X124806814Y-103466392D01*
X124934105Y-103500499D01*
X124934106Y-103500500D01*
X124934108Y-103500500D01*
X131565894Y-103500500D01*
X131565894Y-103500499D01*
X131693186Y-103466392D01*
X131807314Y-103400500D01*
X131900500Y-103307314D01*
X131928439Y-103258921D01*
X131973372Y-103224443D01*
X132029524Y-103231835D01*
X132064003Y-103276768D01*
X132064834Y-103280191D01*
X132123728Y-103550918D01*
X132123733Y-103550937D01*
X132221228Y-103812333D01*
X132354942Y-104057211D01*
X132361441Y-104065892D01*
X132522145Y-104280568D01*
X132719432Y-104477855D01*
X132870802Y-104591169D01*
X132942788Y-104645057D01*
X133187666Y-104778771D01*
X133449062Y-104876266D01*
X133449067Y-104876267D01*
X133449077Y-104876271D01*
X133721706Y-104935578D01*
X133853014Y-104944969D01*
X133900061Y-104966454D01*
X134306781Y-105373174D01*
X134328455Y-105425500D01*
X134306781Y-105477826D01*
X134254455Y-105499500D01*
X82574500Y-105499500D01*
X82522174Y-105477826D01*
X82500500Y-105425500D01*
X82500500Y-101500000D01*
X83294958Y-101500000D01*
X83315111Y-101858853D01*
X83315113Y-101858865D01*
X83375313Y-102213184D01*
X83474815Y-102558560D01*
X83612352Y-102890607D01*
X83612363Y-102890628D01*
X83786206Y-103205173D01*
X83786210Y-103205180D01*
X83994199Y-103498313D01*
X84100213Y-103616942D01*
X85235502Y-102481652D01*
X85279588Y-102542330D01*
X85457670Y-102720412D01*
X85518346Y-102764495D01*
X84383055Y-103899786D01*
X84501681Y-104005796D01*
X84794819Y-104213789D01*
X84794826Y-104213793D01*
X85109371Y-104387636D01*
X85109392Y-104387647D01*
X85441439Y-104525184D01*
X85786816Y-104624686D01*
X85786814Y-104624686D01*
X86141134Y-104684886D01*
X86141146Y-104684888D01*
X86500000Y-104705041D01*
X86858853Y-104684888D01*
X86858865Y-104684886D01*
X87213184Y-104624686D01*
X87558560Y-104525184D01*
X87890607Y-104387647D01*
X87890628Y-104387636D01*
X88205173Y-104213793D01*
X88205180Y-104213789D01*
X88498318Y-104005796D01*
X88616942Y-103899786D01*
X88616943Y-103899786D01*
X87481653Y-102764496D01*
X87542330Y-102720412D01*
X87720412Y-102542330D01*
X87764496Y-102481653D01*
X88899786Y-103616943D01*
X88899786Y-103616942D01*
X89005796Y-103498318D01*
X89213789Y-103205180D01*
X89213793Y-103205173D01*
X89387636Y-102890628D01*
X89387647Y-102890607D01*
X89525184Y-102558560D01*
X89624686Y-102213184D01*
X89684886Y-101858865D01*
X89684888Y-101858853D01*
X89705041Y-101500000D01*
X89684888Y-101141146D01*
X89684886Y-101141134D01*
X89624686Y-100786815D01*
X89525184Y-100441439D01*
X89387647Y-100109392D01*
X89387636Y-100109371D01*
X89213793Y-99794826D01*
X89213789Y-99794819D01*
X89005796Y-99501681D01*
X88899786Y-99383056D01*
X88899786Y-99383055D01*
X87764495Y-100518345D01*
X87720412Y-100457670D01*
X87542330Y-100279588D01*
X87481652Y-100235502D01*
X88616942Y-99100213D01*
X88498313Y-98994199D01*
X88205180Y-98786210D01*
X88205173Y-98786206D01*
X87890628Y-98612363D01*
X87890607Y-98612352D01*
X87558560Y-98474815D01*
X87213183Y-98375313D01*
X87213185Y-98375313D01*
X86858865Y-98315113D01*
X86858853Y-98315111D01*
X86500000Y-98294958D01*
X86141146Y-98315111D01*
X86141134Y-98315113D01*
X85786815Y-98375313D01*
X85441439Y-98474815D01*
X85109392Y-98612352D01*
X85109371Y-98612363D01*
X84794826Y-98786206D01*
X84794819Y-98786210D01*
X84501686Y-98994199D01*
X84383055Y-99100212D01*
X85518346Y-100235503D01*
X85457670Y-100279588D01*
X85279588Y-100457670D01*
X85235503Y-100518346D01*
X84100212Y-99383055D01*
X83994199Y-99501686D01*
X83786210Y-99794819D01*
X83786206Y-99794826D01*
X83612363Y-100109371D01*
X83612352Y-100109392D01*
X83474815Y-100441439D01*
X83375313Y-100786815D01*
X83315113Y-101141134D01*
X83315111Y-101141146D01*
X83294958Y-101500000D01*
X82500500Y-101500000D01*
X82500500Y-66000000D01*
X83294958Y-66000000D01*
X83315111Y-66358853D01*
X83315113Y-66358865D01*
X83375313Y-66713184D01*
X83474815Y-67058560D01*
X83612352Y-67390607D01*
X83612363Y-67390628D01*
X83786206Y-67705173D01*
X83786210Y-67705180D01*
X83994199Y-67998313D01*
X84100213Y-68116942D01*
X85235502Y-66981652D01*
X85279588Y-67042330D01*
X85457670Y-67220412D01*
X85518346Y-67264495D01*
X84383055Y-68399786D01*
X84501681Y-68505796D01*
X84794819Y-68713789D01*
X84794826Y-68713793D01*
X85109371Y-68887636D01*
X85109392Y-68887647D01*
X85441439Y-69025184D01*
X85786816Y-69124686D01*
X85786814Y-69124686D01*
X86141134Y-69184886D01*
X86141146Y-69184888D01*
X86500000Y-69205041D01*
X86858853Y-69184888D01*
X86858865Y-69184886D01*
X87213184Y-69124686D01*
X87558560Y-69025184D01*
X87890607Y-68887647D01*
X87890628Y-68887636D01*
X88205173Y-68713793D01*
X88205180Y-68713789D01*
X88498318Y-68505796D01*
X88616942Y-68399786D01*
X88616943Y-68399786D01*
X87481653Y-67264496D01*
X87542330Y-67220412D01*
X87720412Y-67042330D01*
X87764496Y-66981653D01*
X88899786Y-68116943D01*
X88899786Y-68116942D01*
X89005796Y-67998318D01*
X89213789Y-67705180D01*
X89213793Y-67705173D01*
X89387636Y-67390628D01*
X89387647Y-67390607D01*
X89525184Y-67058560D01*
X89624686Y-66713184D01*
X89684886Y-66358865D01*
X89684888Y-66358853D01*
X89705041Y-66000000D01*
X89684888Y-65641146D01*
X89684886Y-65641134D01*
X89624686Y-65286815D01*
X89525184Y-64941439D01*
X89387647Y-64609392D01*
X89387636Y-64609371D01*
X89213793Y-64294826D01*
X89213789Y-64294819D01*
X89005796Y-64001681D01*
X88899786Y-63883056D01*
X88899786Y-63883055D01*
X87764495Y-65018345D01*
X87720412Y-64957670D01*
X87542330Y-64779588D01*
X87481652Y-64735502D01*
X88616942Y-63600213D01*
X88498313Y-63494199D01*
X88205180Y-63286210D01*
X88205173Y-63286206D01*
X87890628Y-63112363D01*
X87890607Y-63112352D01*
X87558560Y-62974815D01*
X87213183Y-62875313D01*
X87213185Y-62875313D01*
X86858865Y-62815113D01*
X86858853Y-62815111D01*
X86500000Y-62794958D01*
X86141146Y-62815111D01*
X86141134Y-62815113D01*
X85786815Y-62875313D01*
X85441439Y-62974815D01*
X85109392Y-63112352D01*
X85109371Y-63112363D01*
X84794826Y-63286206D01*
X84794819Y-63286210D01*
X84501686Y-63494199D01*
X84383055Y-63600212D01*
X85518346Y-64735503D01*
X85457670Y-64779588D01*
X85279588Y-64957670D01*
X85235503Y-65018346D01*
X84100212Y-63883055D01*
X83994199Y-64001686D01*
X83786210Y-64294819D01*
X83786206Y-64294826D01*
X83612363Y-64609371D01*
X83612352Y-64609392D01*
X83474815Y-64941439D01*
X83375313Y-65286815D01*
X83315113Y-65641134D01*
X83315111Y-65641146D01*
X83294958Y-66000000D01*
X82500500Y-66000000D01*
X82500500Y-62074500D01*
X82522174Y-62022174D01*
X82574500Y-62000500D01*
X131144405Y-62000500D01*
X131196731Y-62022174D01*
G37*
%TD.AperFunction*%
%TA.AperFunction,Conductor*%
G36*
X159762444Y-61511666D02*
G01*
X159789144Y-61561615D01*
X159789500Y-61568870D01*
X159789500Y-61987273D01*
X159789500Y-62092727D01*
X159798637Y-62126826D01*
X159816793Y-62194588D01*
X159816795Y-62194592D01*
X159869517Y-62285909D01*
X159869518Y-62285910D01*
X159869520Y-62285913D01*
X160629519Y-63045912D01*
X160629520Y-63045913D01*
X160704087Y-63120480D01*
X160795413Y-63173207D01*
X160897270Y-63200499D01*
X160897271Y-63200500D01*
X160897273Y-63200500D01*
X182603455Y-63200500D01*
X182655781Y-63222174D01*
X186327826Y-66894218D01*
X186349500Y-66946544D01*
X186349500Y-102197273D01*
X186349500Y-102302727D01*
X186376793Y-102404588D01*
X186376795Y-102404592D01*
X186429517Y-102495909D01*
X186429518Y-102495910D01*
X186429520Y-102495913D01*
X186765103Y-102831496D01*
X187033545Y-103099938D01*
X187055030Y-103146985D01*
X187064421Y-103278291D01*
X187123728Y-103550918D01*
X187123733Y-103550937D01*
X187221228Y-103812333D01*
X187354942Y-104057211D01*
X187361441Y-104065892D01*
X187522145Y-104280568D01*
X187719432Y-104477855D01*
X187870802Y-104591169D01*
X187942788Y-104645057D01*
X188187666Y-104778771D01*
X188449062Y-104876266D01*
X188449067Y-104876267D01*
X188449077Y-104876271D01*
X188721706Y-104935578D01*
X188783549Y-104940001D01*
X188999993Y-104955482D01*
X189000000Y-104955482D01*
X189000007Y-104955482D01*
X189194805Y-104941549D01*
X189278294Y-104935578D01*
X189550923Y-104876271D01*
X189550934Y-104876266D01*
X189550937Y-104876266D01*
X189812333Y-104778771D01*
X189833570Y-104767175D01*
X190057213Y-104645056D01*
X190280568Y-104477855D01*
X190477855Y-104280568D01*
X190645056Y-104057213D01*
X190778769Y-103812337D01*
X190778769Y-103812335D01*
X190778771Y-103812333D01*
X190856166Y-103604828D01*
X190894759Y-103563375D01*
X190951360Y-103561354D01*
X190992813Y-103599947D01*
X190999500Y-103630688D01*
X190999500Y-104065894D01*
X191033606Y-104193181D01*
X191033610Y-104193190D01*
X191069061Y-104254592D01*
X191099500Y-104307314D01*
X191192686Y-104400500D01*
X191306814Y-104466392D01*
X191434105Y-104500499D01*
X191434106Y-104500500D01*
X191434108Y-104500500D01*
X196565894Y-104500500D01*
X196565894Y-104500499D01*
X196693186Y-104466392D01*
X196807314Y-104400500D01*
X196900500Y-104307314D01*
X196966392Y-104193186D01*
X197000499Y-104065894D01*
X197000500Y-104065894D01*
X197000500Y-103630688D01*
X197022174Y-103578362D01*
X197074500Y-103556688D01*
X197126826Y-103578362D01*
X197143834Y-103604828D01*
X197221228Y-103812333D01*
X197354942Y-104057211D01*
X197361441Y-104065892D01*
X197522145Y-104280568D01*
X197719432Y-104477855D01*
X197870802Y-104591169D01*
X197942788Y-104645057D01*
X198187666Y-104778771D01*
X198449062Y-104876266D01*
X198449067Y-104876267D01*
X198449077Y-104876271D01*
X198721706Y-104935578D01*
X198783549Y-104940001D01*
X198999993Y-104955482D01*
X199000000Y-104955482D01*
X199000007Y-104955482D01*
X199194805Y-104941549D01*
X199278294Y-104935578D01*
X199550923Y-104876271D01*
X199550934Y-104876266D01*
X199550937Y-104876266D01*
X199812333Y-104778771D01*
X199833570Y-104767175D01*
X200057213Y-104645056D01*
X200280568Y-104477855D01*
X200477855Y-104280568D01*
X200645056Y-104057213D01*
X200778769Y-103812337D01*
X200778769Y-103812335D01*
X200778771Y-103812333D01*
X200876266Y-103550937D01*
X200876266Y-103550934D01*
X200876271Y-103550923D01*
X200935578Y-103278294D01*
X200942212Y-103185529D01*
X200955482Y-103000006D01*
X200955482Y-102999993D01*
X200935578Y-102721708D01*
X200935578Y-102721706D01*
X200876271Y-102449077D01*
X200876267Y-102449067D01*
X200876266Y-102449062D01*
X200778771Y-102187666D01*
X200645057Y-101942788D01*
X200582224Y-101858853D01*
X200477855Y-101719432D01*
X200280568Y-101522145D01*
X200250986Y-101500000D01*
X202294958Y-101500000D01*
X202315111Y-101858853D01*
X202315113Y-101858865D01*
X202375313Y-102213184D01*
X202474815Y-102558560D01*
X202612352Y-102890607D01*
X202612363Y-102890628D01*
X202786206Y-103205173D01*
X202786210Y-103205180D01*
X202994199Y-103498313D01*
X203100213Y-103616942D01*
X204235502Y-102481652D01*
X204279588Y-102542330D01*
X204457670Y-102720412D01*
X204518346Y-102764495D01*
X203383055Y-103899786D01*
X203501681Y-104005796D01*
X203794819Y-104213789D01*
X203794826Y-104213793D01*
X204109371Y-104387636D01*
X204109392Y-104387647D01*
X204441439Y-104525184D01*
X204786816Y-104624686D01*
X204786814Y-104624686D01*
X205141134Y-104684886D01*
X205141146Y-104684888D01*
X205500000Y-104705041D01*
X205858853Y-104684888D01*
X205858865Y-104684886D01*
X206213184Y-104624686D01*
X206558560Y-104525184D01*
X206890607Y-104387647D01*
X206890628Y-104387636D01*
X207205173Y-104213793D01*
X207205180Y-104213789D01*
X207498318Y-104005796D01*
X207616942Y-103899786D01*
X207616943Y-103899786D01*
X206481653Y-102764496D01*
X206542330Y-102720412D01*
X206720412Y-102542330D01*
X206764496Y-102481653D01*
X207899786Y-103616943D01*
X207899786Y-103616942D01*
X208005796Y-103498318D01*
X208213789Y-103205180D01*
X208213793Y-103205173D01*
X208387636Y-102890628D01*
X208387647Y-102890607D01*
X208525184Y-102558560D01*
X208624686Y-102213184D01*
X208684886Y-101858865D01*
X208684888Y-101858853D01*
X208705041Y-101500000D01*
X208684888Y-101141146D01*
X208684886Y-101141134D01*
X208624686Y-100786815D01*
X208525184Y-100441439D01*
X208387647Y-100109392D01*
X208387636Y-100109371D01*
X208213793Y-99794826D01*
X208213789Y-99794819D01*
X208005796Y-99501681D01*
X207899786Y-99383056D01*
X207899786Y-99383055D01*
X206764495Y-100518345D01*
X206720412Y-100457670D01*
X206542330Y-100279588D01*
X206481652Y-100235502D01*
X207616942Y-99100213D01*
X207498313Y-98994199D01*
X207205180Y-98786210D01*
X207205173Y-98786206D01*
X206890628Y-98612363D01*
X206890607Y-98612352D01*
X206558560Y-98474815D01*
X206213183Y-98375313D01*
X206213185Y-98375313D01*
X205858865Y-98315113D01*
X205858853Y-98315111D01*
X205500000Y-98294958D01*
X205141146Y-98315111D01*
X205141134Y-98315113D01*
X204786815Y-98375313D01*
X204441439Y-98474815D01*
X204109392Y-98612352D01*
X204109371Y-98612363D01*
X203794826Y-98786206D01*
X203794819Y-98786210D01*
X203501686Y-98994199D01*
X203383055Y-99100212D01*
X204518346Y-100235503D01*
X204457670Y-100279588D01*
X204279588Y-100457670D01*
X204235503Y-100518346D01*
X203100212Y-99383055D01*
X202994199Y-99501686D01*
X202786210Y-99794819D01*
X202786206Y-99794826D01*
X202612363Y-100109371D01*
X202612352Y-100109392D01*
X202474815Y-100441439D01*
X202375313Y-100786815D01*
X202315113Y-101141134D01*
X202315111Y-101141146D01*
X202294958Y-101500000D01*
X200250986Y-101500000D01*
X200069479Y-101364126D01*
X200057211Y-101354942D01*
X199812333Y-101221228D01*
X199604828Y-101143834D01*
X199563375Y-101105241D01*
X199561354Y-101048640D01*
X199599947Y-101007187D01*
X199630688Y-101000500D01*
X200565894Y-101000500D01*
X200565894Y-101000499D01*
X200693186Y-100966392D01*
X200807314Y-100900500D01*
X200900500Y-100807314D01*
X200966392Y-100693186D01*
X201000499Y-100565894D01*
X201000500Y-100565894D01*
X201000500Y-69934106D01*
X201000499Y-69934105D01*
X200973951Y-69835027D01*
X200966392Y-69806814D01*
X200900500Y-69692686D01*
X200807314Y-69599500D01*
X200738500Y-69559770D01*
X200693190Y-69533610D01*
X200693181Y-69533606D01*
X200565894Y-69499500D01*
X200565892Y-69499500D01*
X199630688Y-69499500D01*
X199578362Y-69477826D01*
X199556688Y-69425500D01*
X199578362Y-69373174D01*
X199604828Y-69356166D01*
X199812333Y-69278771D01*
X199885097Y-69239039D01*
X200057213Y-69145056D01*
X200280568Y-68977855D01*
X200477855Y-68780568D01*
X200645056Y-68557213D01*
X200778769Y-68312337D01*
X200778769Y-68312335D01*
X200778771Y-68312333D01*
X200876266Y-68050937D01*
X200876266Y-68050934D01*
X200876271Y-68050923D01*
X200935578Y-67778294D01*
X200955482Y-67500000D01*
X200955482Y-67499993D01*
X200939489Y-67276387D01*
X200935578Y-67221706D01*
X200876271Y-66949077D01*
X200876267Y-66949067D01*
X200876266Y-66949062D01*
X200778771Y-66687666D01*
X200645057Y-66442788D01*
X200582224Y-66358853D01*
X200477855Y-66219432D01*
X200280568Y-66022145D01*
X200250986Y-66000000D01*
X202294958Y-66000000D01*
X202315111Y-66358853D01*
X202315113Y-66358865D01*
X202375313Y-66713184D01*
X202474815Y-67058560D01*
X202612352Y-67390607D01*
X202612363Y-67390628D01*
X202786206Y-67705173D01*
X202786210Y-67705180D01*
X202994199Y-67998313D01*
X203100213Y-68116942D01*
X204235502Y-66981652D01*
X204279588Y-67042330D01*
X204457670Y-67220412D01*
X204518346Y-67264495D01*
X203383055Y-68399786D01*
X203501681Y-68505796D01*
X203794819Y-68713789D01*
X203794826Y-68713793D01*
X204109371Y-68887636D01*
X204109392Y-68887647D01*
X204441439Y-69025184D01*
X204786816Y-69124686D01*
X204786814Y-69124686D01*
X205141134Y-69184886D01*
X205141146Y-69184888D01*
X205500000Y-69205041D01*
X205858853Y-69184888D01*
X205858865Y-69184886D01*
X206213184Y-69124686D01*
X206558560Y-69025184D01*
X206890607Y-68887647D01*
X206890628Y-68887636D01*
X207205173Y-68713793D01*
X207205180Y-68713789D01*
X207498318Y-68505796D01*
X207616942Y-68399786D01*
X207616943Y-68399786D01*
X206481653Y-67264496D01*
X206542330Y-67220412D01*
X206720412Y-67042330D01*
X206764496Y-66981653D01*
X207899786Y-68116943D01*
X207899786Y-68116942D01*
X208005796Y-67998318D01*
X208213789Y-67705180D01*
X208213793Y-67705173D01*
X208387636Y-67390628D01*
X208387647Y-67390607D01*
X208525184Y-67058560D01*
X208624686Y-66713184D01*
X208684886Y-66358865D01*
X208684888Y-66358853D01*
X208705041Y-66000000D01*
X208684888Y-65641146D01*
X208684886Y-65641134D01*
X208624686Y-65286815D01*
X208525184Y-64941439D01*
X208387647Y-64609392D01*
X208387636Y-64609371D01*
X208213793Y-64294826D01*
X208213789Y-64294819D01*
X208005796Y-64001681D01*
X207899786Y-63883056D01*
X207899786Y-63883055D01*
X206764495Y-65018345D01*
X206720412Y-64957670D01*
X206542330Y-64779588D01*
X206481652Y-64735502D01*
X207616942Y-63600213D01*
X207498313Y-63494199D01*
X207205180Y-63286210D01*
X207205173Y-63286206D01*
X206890628Y-63112363D01*
X206890607Y-63112352D01*
X206558560Y-62974815D01*
X206213183Y-62875313D01*
X206213185Y-62875313D01*
X205858865Y-62815113D01*
X205858853Y-62815111D01*
X205500000Y-62794958D01*
X205141146Y-62815111D01*
X205141134Y-62815113D01*
X204786815Y-62875313D01*
X204441439Y-62974815D01*
X204109392Y-63112352D01*
X204109371Y-63112363D01*
X203794826Y-63286206D01*
X203794819Y-63286210D01*
X203501686Y-63494199D01*
X203383055Y-63600212D01*
X204518346Y-64735503D01*
X204457670Y-64779588D01*
X204279588Y-64957670D01*
X204235503Y-65018346D01*
X203100212Y-63883055D01*
X202994199Y-64001686D01*
X202786210Y-64294819D01*
X202786206Y-64294826D01*
X202612363Y-64609371D01*
X202612352Y-64609392D01*
X202474815Y-64941439D01*
X202375313Y-65286815D01*
X202315113Y-65641134D01*
X202315111Y-65641146D01*
X202294958Y-66000000D01*
X200250986Y-66000000D01*
X200082772Y-65874077D01*
X200057211Y-65854942D01*
X199812333Y-65721228D01*
X199550937Y-65623733D01*
X199550925Y-65623730D01*
X199550923Y-65623729D01*
X199495971Y-65611775D01*
X199278291Y-65564421D01*
X199000007Y-65544518D01*
X198999993Y-65544518D01*
X198721708Y-65564421D01*
X198449081Y-65623728D01*
X198449062Y-65623733D01*
X198187666Y-65721228D01*
X197942788Y-65854942D01*
X197719429Y-66022147D01*
X197522147Y-66219429D01*
X197354942Y-66442788D01*
X197221228Y-66687666D01*
X197143834Y-66895171D01*
X197105241Y-66936624D01*
X197048640Y-66938645D01*
X197007187Y-66900052D01*
X197000500Y-66869311D01*
X197000500Y-65934106D01*
X197000499Y-65934105D01*
X196993726Y-65908829D01*
X196966392Y-65806814D01*
X196900500Y-65692686D01*
X196807314Y-65599500D01*
X196693190Y-65533610D01*
X196693181Y-65533606D01*
X196565894Y-65499500D01*
X196565892Y-65499500D01*
X191565892Y-65499500D01*
X191434108Y-65499500D01*
X191434106Y-65499500D01*
X191306818Y-65533606D01*
X191306809Y-65533610D01*
X191192685Y-65599500D01*
X191099500Y-65692685D01*
X191033610Y-65806809D01*
X191033606Y-65806818D01*
X190999500Y-65934105D01*
X190999500Y-66869311D01*
X190977826Y-66921637D01*
X190925500Y-66943311D01*
X190873174Y-66921637D01*
X190856166Y-66895171D01*
X190778771Y-66687666D01*
X190645057Y-66442788D01*
X190582224Y-66358853D01*
X190477855Y-66219432D01*
X190280568Y-66022145D01*
X190082772Y-65874077D01*
X190057211Y-65854942D01*
X189812333Y-65721228D01*
X189550937Y-65623733D01*
X189550925Y-65623730D01*
X189550923Y-65623729D01*
X189495971Y-65611775D01*
X189278291Y-65564421D01*
X189000007Y-65544518D01*
X188999993Y-65544518D01*
X188721708Y-65564421D01*
X188449081Y-65623728D01*
X188449062Y-65623733D01*
X188187666Y-65721228D01*
X187977533Y-65835971D01*
X187921220Y-65842026D01*
X187889742Y-65823349D01*
X184193219Y-62126826D01*
X184171545Y-62074500D01*
X184193219Y-62022174D01*
X184245545Y-62000500D01*
X209425500Y-62000500D01*
X209477826Y-62022174D01*
X209499500Y-62074500D01*
X209499500Y-105425500D01*
X209477826Y-105477826D01*
X209425500Y-105499500D01*
X183745545Y-105499500D01*
X183693219Y-105477826D01*
X183671545Y-105425500D01*
X183693219Y-105373174D01*
X183858125Y-105208266D01*
X184445910Y-104620481D01*
X184445913Y-104620480D01*
X184520480Y-104545913D01*
X184573207Y-104454587D01*
X184586636Y-104404469D01*
X184600501Y-104352727D01*
X184600501Y-104247273D01*
X184600501Y-104242744D01*
X184600500Y-104242726D01*
X184600500Y-65647274D01*
X184594621Y-65625332D01*
X184573207Y-65545412D01*
X184555000Y-65513876D01*
X184520482Y-65454090D01*
X184520481Y-65454089D01*
X184520480Y-65454087D01*
X182745913Y-63679520D01*
X182745910Y-63679518D01*
X182745909Y-63679517D01*
X182654592Y-63626795D01*
X182654588Y-63626793D01*
X182552727Y-63599500D01*
X182552726Y-63599500D01*
X160538778Y-63599500D01*
X160486452Y-63577826D01*
X158877914Y-61969288D01*
X158856240Y-61916962D01*
X158877914Y-61864636D01*
X158922984Y-61843319D01*
X159105934Y-61825300D01*
X159303954Y-61765232D01*
X159486450Y-61667685D01*
X159646410Y-61536410D01*
X159658297Y-61521925D01*
X159708245Y-61495226D01*
X159762444Y-61511666D01*
G37*
%TD.AperFunction*%
%TD*%
%TA.AperFunction,NonConductor*%
G36*
X162326937Y-61862174D02*
G01*
X162338697Y-61877500D01*
X162369517Y-61930883D01*
X162369518Y-61930884D01*
X162369520Y-61930887D01*
X162633222Y-62194588D01*
X162711808Y-62273174D01*
X162733482Y-62325500D01*
X162711808Y-62377826D01*
X162659482Y-62399500D01*
X161146545Y-62399500D01*
X161094219Y-62377826D01*
X160683219Y-61966826D01*
X160661545Y-61914500D01*
X160683219Y-61862174D01*
X160735545Y-61840500D01*
X162274611Y-61840500D01*
X162326937Y-61862174D01*
G37*
%TD.AperFunction*%
%TA.AperFunction,NonConductor*%
G36*
X132626826Y-61382508D02*
G01*
X132631699Y-61387885D01*
X132753590Y-61536410D01*
X132913550Y-61667685D01*
X133096046Y-61765232D01*
X133294066Y-61825300D01*
X133477012Y-61843318D01*
X133526961Y-61870017D01*
X133543402Y-61924215D01*
X133522084Y-61969288D01*
X132513548Y-62977826D01*
X132461222Y-62999500D01*
X131635495Y-62999500D01*
X131583169Y-62977826D01*
X131561495Y-62925500D01*
X131583169Y-62873174D01*
X131976826Y-62479517D01*
X132420480Y-62035863D01*
X132473207Y-61944537D01*
X132500499Y-61842679D01*
X132500500Y-61842679D01*
X132500500Y-61434834D01*
X132522174Y-61382508D01*
X132574500Y-61360834D01*
X132626826Y-61382508D01*
G37*
%TD.AperFunction*%
%TA.AperFunction,NonConductor*%
G36*
X135216098Y-61449462D02*
G01*
X135236301Y-61466603D01*
X135259791Y-61495226D01*
X135293590Y-61536410D01*
X135453550Y-61667685D01*
X135636046Y-61765232D01*
X135834066Y-61825300D01*
X136017012Y-61843318D01*
X136066961Y-61870017D01*
X136083402Y-61924215D01*
X136062084Y-61969288D01*
X134453548Y-63577826D01*
X134401222Y-63599500D01*
X133203312Y-63599500D01*
X133150986Y-63577826D01*
X133129312Y-63525500D01*
X133150986Y-63473174D01*
X133624660Y-62999500D01*
X135070480Y-61553680D01*
X135115013Y-61476547D01*
X135159945Y-61442070D01*
X135216098Y-61449462D01*
G37*
%TD.AperFunction*%
%TA.AperFunction,NonConductor*%
G36*
X137756096Y-61449460D02*
G01*
X137776299Y-61466600D01*
X137833590Y-61536410D01*
X137993550Y-61667685D01*
X138176046Y-61765232D01*
X138374066Y-61825300D01*
X138557012Y-61843318D01*
X138606961Y-61870017D01*
X138623402Y-61924215D01*
X138602084Y-61969288D01*
X136393548Y-64177826D01*
X136341222Y-64199500D01*
X135143312Y-64199500D01*
X135090986Y-64177826D01*
X135069312Y-64125500D01*
X135090986Y-64073174D01*
X136349049Y-62815111D01*
X137610480Y-61553680D01*
X137644886Y-61494087D01*
X137655011Y-61476548D01*
X137699943Y-61442069D01*
X137756096Y-61449460D01*
G37*
%TD.AperFunction*%
%TA.AperFunction,NonConductor*%
G36*
X140296096Y-61449461D02*
G01*
X140316300Y-61466602D01*
X140339791Y-61495226D01*
X140373590Y-61536410D01*
X140533550Y-61667685D01*
X140716046Y-61765232D01*
X140914066Y-61825300D01*
X141120000Y-61845583D01*
X141325934Y-61825300D01*
X141523954Y-61765232D01*
X141706450Y-61667685D01*
X141866410Y-61536410D01*
X141878297Y-61521925D01*
X141928245Y-61495226D01*
X141982444Y-61511666D01*
X142009144Y-61561615D01*
X142009500Y-61568870D01*
X142009500Y-62393455D01*
X141987826Y-62445781D01*
X139555781Y-64877826D01*
X139503455Y-64899500D01*
X136983312Y-64899500D01*
X136930986Y-64877826D01*
X136909312Y-64825500D01*
X136930986Y-64773174D01*
X137409341Y-64294819D01*
X140075910Y-61628248D01*
X140075913Y-61628247D01*
X140150480Y-61553680D01*
X140195012Y-61476546D01*
X140239943Y-61442069D01*
X140296096Y-61449461D01*
G37*
%TD.AperFunction*%
%TA.AperFunction,NonConductor*%
G36*
X98106781Y-63222174D02*
G01*
X98128455Y-63274500D01*
X98106781Y-63326826D01*
X95900060Y-65533545D01*
X95853013Y-65555030D01*
X95721711Y-65564421D01*
X95721707Y-65564421D01*
X95449081Y-65623728D01*
X95449062Y-65623733D01*
X95187666Y-65721228D01*
X94942784Y-65854945D01*
X94850907Y-65923723D01*
X94796029Y-65937730D01*
X94747321Y-65908829D01*
X94733314Y-65853951D01*
X94754233Y-65812159D01*
X97344219Y-63222174D01*
X97396545Y-63200500D01*
X98054455Y-63200500D01*
X98106781Y-63222174D01*
G37*
%TD.AperFunction*%
%TA.AperFunction,NonConductor*%
G36*
X149602444Y-61511666D02*
G01*
X149629144Y-61561615D01*
X149629500Y-61568870D01*
X149629500Y-65709083D01*
X149607826Y-65761409D01*
X149590965Y-65774031D01*
X149442788Y-65854942D01*
X149219429Y-66022147D01*
X149022147Y-66219429D01*
X148854942Y-66442788D01*
X148839448Y-66471165D01*
X148795348Y-66506703D01*
X148739035Y-66500648D01*
X148703497Y-66456548D01*
X148700500Y-66435700D01*
X148700500Y-62497273D01*
X148673207Y-62395413D01*
X148673207Y-62395412D01*
X148620482Y-62304090D01*
X148620481Y-62304089D01*
X148620480Y-62304087D01*
X148142229Y-61825836D01*
X148120555Y-61773510D01*
X148142229Y-61721184D01*
X148194555Y-61699510D01*
X148229435Y-61708247D01*
X148336046Y-61765232D01*
X148534066Y-61825300D01*
X148740000Y-61845583D01*
X148945934Y-61825300D01*
X149143954Y-61765232D01*
X149326450Y-61667685D01*
X149486410Y-61536410D01*
X149498297Y-61521925D01*
X149548245Y-61495226D01*
X149602444Y-61511666D01*
G37*
%TD.AperFunction*%
%TA.AperFunction,NonConductor*%
G36*
X183555781Y-62622174D02*
G01*
X187323349Y-66389742D01*
X187345023Y-66442068D01*
X187335971Y-66477533D01*
X187260641Y-66615487D01*
X187216541Y-66651025D01*
X187160228Y-66644970D01*
X187124690Y-66600870D01*
X187124214Y-66599172D01*
X187123207Y-66595413D01*
X187123206Y-66595411D01*
X187075463Y-66512718D01*
X187075463Y-66512717D01*
X187075461Y-66512715D01*
X187070480Y-66504087D01*
X186995913Y-66429520D01*
X186993334Y-66426941D01*
X186993323Y-66426931D01*
X183293219Y-62726826D01*
X183271545Y-62674500D01*
X183293219Y-62622174D01*
X183345545Y-62600500D01*
X183503455Y-62600500D01*
X183555781Y-62622174D01*
G37*
%TD.AperFunction*%
%TA.AperFunction,NonConductor*%
G36*
X144522444Y-61511666D02*
G01*
X144549144Y-61561615D01*
X144549500Y-61568870D01*
X144549500Y-61897273D01*
X144549500Y-62002727D01*
X144554711Y-62022174D01*
X144576793Y-62104588D01*
X144576795Y-62104592D01*
X144629517Y-62195909D01*
X144629518Y-62195910D01*
X144629520Y-62195913D01*
X145777826Y-63344219D01*
X145799500Y-63396544D01*
X145799500Y-66435700D01*
X145777826Y-66488026D01*
X145725500Y-66509700D01*
X145673174Y-66488026D01*
X145660552Y-66471165D01*
X145645057Y-66442788D01*
X145582224Y-66358853D01*
X145477855Y-66219432D01*
X145280568Y-66022145D01*
X145082772Y-65874077D01*
X145057211Y-65854942D01*
X144812333Y-65721228D01*
X144550937Y-65623733D01*
X144550925Y-65623730D01*
X144550923Y-65623729D01*
X144495971Y-65611775D01*
X144278291Y-65564421D01*
X144000007Y-65544518D01*
X143999993Y-65544518D01*
X143721708Y-65564421D01*
X143449081Y-65623728D01*
X143449062Y-65623733D01*
X143187666Y-65721228D01*
X142942788Y-65854942D01*
X142719429Y-66022147D01*
X142522147Y-66219429D01*
X142354942Y-66442788D01*
X142221228Y-66687666D01*
X142143834Y-66895171D01*
X142105241Y-66936624D01*
X142048640Y-66938645D01*
X142007187Y-66900052D01*
X142000500Y-66869311D01*
X142000500Y-65934106D01*
X142000499Y-65934105D01*
X141993726Y-65908829D01*
X141966392Y-65806814D01*
X141900500Y-65692686D01*
X141807314Y-65599500D01*
X141693190Y-65533610D01*
X141693181Y-65533606D01*
X141565894Y-65499500D01*
X141565892Y-65499500D01*
X140245545Y-65499500D01*
X140193219Y-65477826D01*
X140171545Y-65425500D01*
X140193219Y-65373174D01*
X140565893Y-65000500D01*
X142655910Y-62910481D01*
X142655913Y-62910480D01*
X142730480Y-62835913D01*
X142756843Y-62790250D01*
X142783207Y-62744588D01*
X142810500Y-62642729D01*
X142810501Y-62642729D01*
X142810501Y-62532744D01*
X142810500Y-62532726D01*
X142810500Y-61608266D01*
X142832174Y-61555940D01*
X142884500Y-61534266D01*
X142931444Y-61551062D01*
X143073550Y-61667685D01*
X143256046Y-61765232D01*
X143454066Y-61825300D01*
X143660000Y-61845583D01*
X143865934Y-61825300D01*
X144063954Y-61765232D01*
X144246450Y-61667685D01*
X144406410Y-61536410D01*
X144418297Y-61521925D01*
X144468245Y-61495226D01*
X144522444Y-61511666D01*
G37*
%TD.AperFunction*%
%TA.AperFunction,NonConductor*%
G36*
X157267846Y-61456345D02*
G01*
X157284987Y-61476548D01*
X157329517Y-61553676D01*
X157329518Y-61553677D01*
X157329520Y-61553680D01*
X160021752Y-64245912D01*
X160021753Y-64245913D01*
X160096320Y-64320480D01*
X160187646Y-64373207D01*
X160289503Y-64400499D01*
X160289504Y-64400500D01*
X160289506Y-64400500D01*
X182303455Y-64400500D01*
X182355781Y-64422174D01*
X183777826Y-65844219D01*
X183799500Y-65896545D01*
X183799500Y-66435700D01*
X183777826Y-66488026D01*
X183725500Y-66509700D01*
X183673174Y-66488026D01*
X183660552Y-66471165D01*
X183645057Y-66442788D01*
X183582224Y-66358853D01*
X183477855Y-66219432D01*
X183280568Y-66022145D01*
X183082772Y-65874077D01*
X183057211Y-65854942D01*
X182812333Y-65721228D01*
X182550937Y-65623733D01*
X182550925Y-65623730D01*
X182550923Y-65623729D01*
X182495971Y-65611775D01*
X182278291Y-65564421D01*
X182000007Y-65544518D01*
X181999993Y-65544518D01*
X181721708Y-65564421D01*
X181449081Y-65623728D01*
X181449062Y-65623733D01*
X181187666Y-65721228D01*
X180942788Y-65854942D01*
X180719429Y-66022147D01*
X180522147Y-66219429D01*
X180354942Y-66442788D01*
X180221228Y-66687666D01*
X180143834Y-66895171D01*
X180105241Y-66936624D01*
X180048640Y-66938645D01*
X180007187Y-66900052D01*
X180000500Y-66869311D01*
X180000500Y-65934106D01*
X180000499Y-65934105D01*
X179993726Y-65908829D01*
X179966392Y-65806814D01*
X179900500Y-65692686D01*
X179807314Y-65599500D01*
X179693190Y-65533610D01*
X179693181Y-65533606D01*
X179565894Y-65499500D01*
X179565892Y-65499500D01*
X174565892Y-65499500D01*
X174434108Y-65499500D01*
X174434106Y-65499500D01*
X174306818Y-65533606D01*
X174306809Y-65533610D01*
X174192685Y-65599500D01*
X174099500Y-65692685D01*
X174033610Y-65806809D01*
X174033606Y-65806818D01*
X173999500Y-65934105D01*
X173999500Y-66869311D01*
X173977826Y-66921637D01*
X173925500Y-66943311D01*
X173873174Y-66921637D01*
X173856166Y-66895171D01*
X173778771Y-66687666D01*
X173645057Y-66442788D01*
X173582224Y-66358853D01*
X173477855Y-66219432D01*
X173280568Y-66022145D01*
X173082772Y-65874077D01*
X173057211Y-65854942D01*
X172812333Y-65721228D01*
X172550937Y-65623733D01*
X172550925Y-65623730D01*
X172550923Y-65623729D01*
X172495971Y-65611775D01*
X172278291Y-65564421D01*
X172000007Y-65544518D01*
X171999993Y-65544518D01*
X171721708Y-65564421D01*
X171449081Y-65623728D01*
X171449062Y-65623733D01*
X171187666Y-65721228D01*
X170977533Y-65835971D01*
X170921220Y-65842026D01*
X170889742Y-65823349D01*
X170353208Y-65286815D01*
X169745913Y-64679520D01*
X169745910Y-64679518D01*
X169745909Y-64679517D01*
X169654592Y-64626795D01*
X169654588Y-64626793D01*
X169589645Y-64609392D01*
X169552727Y-64599500D01*
X169552726Y-64599500D01*
X158998777Y-64599500D01*
X158946451Y-64577826D01*
X156337914Y-61969288D01*
X156316240Y-61916962D01*
X156337914Y-61864636D01*
X156382984Y-61843319D01*
X156565934Y-61825300D01*
X156763954Y-61765232D01*
X156946450Y-61667685D01*
X157106410Y-61536410D01*
X157163699Y-61466602D01*
X157213647Y-61439904D01*
X157267846Y-61456345D01*
G37*
%TD.AperFunction*%
%TA.AperFunction,NonConductor*%
G36*
X135977826Y-66193218D02*
G01*
X135999500Y-66245544D01*
X135999500Y-66869311D01*
X135977826Y-66921637D01*
X135925500Y-66943311D01*
X135873174Y-66921637D01*
X135856166Y-66895171D01*
X135778771Y-66687667D01*
X135778769Y-66687663D01*
X135664027Y-66477531D01*
X135657973Y-66421219D01*
X135676648Y-66389743D01*
X135873175Y-66193217D01*
X135925500Y-66171544D01*
X135977826Y-66193218D01*
G37*
%TD.AperFunction*%
%TA.AperFunction,NonConductor*%
G36*
X162977826Y-48022174D02*
G01*
X162999500Y-48074500D01*
X162999500Y-59064455D01*
X162977826Y-59116781D01*
X162925500Y-59138455D01*
X162873174Y-59116781D01*
X162445457Y-58689064D01*
X162423783Y-58636738D01*
X162426967Y-58615266D01*
X162475300Y-58455934D01*
X162495583Y-58250000D01*
X162475300Y-58044066D01*
X162415232Y-57846046D01*
X162317685Y-57663550D01*
X162186410Y-57503590D01*
X162026450Y-57372315D01*
X161843954Y-57274768D01*
X161732158Y-57240855D01*
X161645935Y-57214700D01*
X161440000Y-57194417D01*
X161234064Y-57214700D01*
X161036043Y-57274769D01*
X160853549Y-57372315D01*
X160693590Y-57503589D01*
X160693589Y-57503590D01*
X160562315Y-57663549D01*
X160464769Y-57846043D01*
X160404700Y-58044064D01*
X160404700Y-58044066D01*
X160384417Y-58250000D01*
X160404700Y-58455934D01*
X160464768Y-58653954D01*
X160562315Y-58836450D01*
X160693590Y-58996410D01*
X160853550Y-59127685D01*
X161036046Y-59225232D01*
X161234066Y-59285300D01*
X161440000Y-59305583D01*
X161645934Y-59285300D01*
X161805260Y-59236969D01*
X161861621Y-59242521D01*
X161879064Y-59255457D01*
X162236781Y-59613174D01*
X162258455Y-59665500D01*
X162236781Y-59717826D01*
X162184455Y-59739500D01*
X160664500Y-59739500D01*
X160612174Y-59717826D01*
X160590500Y-59665500D01*
X160590500Y-59487271D01*
X160590499Y-59487270D01*
X160563207Y-59385413D01*
X160510480Y-59294087D01*
X160435913Y-59219520D01*
X159905457Y-58689064D01*
X159883783Y-58636738D01*
X159886967Y-58615266D01*
X159935300Y-58455934D01*
X159955583Y-58250000D01*
X159935300Y-58044066D01*
X159875232Y-57846046D01*
X159777685Y-57663550D01*
X159646410Y-57503590D01*
X159486450Y-57372315D01*
X159303954Y-57274768D01*
X159192158Y-57240855D01*
X159105935Y-57214700D01*
X158900000Y-57194417D01*
X158694064Y-57214700D01*
X158496043Y-57274769D01*
X158313549Y-57372315D01*
X158153590Y-57503589D01*
X158153589Y-57503590D01*
X158022315Y-57663549D01*
X157924769Y-57846043D01*
X157864700Y-58044064D01*
X157864700Y-58044066D01*
X157844417Y-58250000D01*
X157864700Y-58455934D01*
X157924768Y-58653954D01*
X158022315Y-58836450D01*
X158153590Y-58996410D01*
X158313550Y-59127685D01*
X158496046Y-59225232D01*
X158694066Y-59285300D01*
X158900000Y-59305583D01*
X159105934Y-59285300D01*
X159265260Y-59236969D01*
X159321621Y-59242521D01*
X159339064Y-59255457D01*
X159767826Y-59684219D01*
X159789500Y-59736545D01*
X159789500Y-60011129D01*
X159767826Y-60063455D01*
X159715500Y-60085129D01*
X159663174Y-60063455D01*
X159658298Y-60058074D01*
X159646416Y-60043596D01*
X159646409Y-60043589D01*
X159486450Y-59912315D01*
X159303956Y-59814769D01*
X159303955Y-59814768D01*
X159303954Y-59814768D01*
X159192158Y-59780855D01*
X159105935Y-59754700D01*
X158900000Y-59734417D01*
X158694064Y-59754700D01*
X158496043Y-59814769D01*
X158313549Y-59912315D01*
X158171445Y-60028936D01*
X158117246Y-60045377D01*
X158067297Y-60018678D01*
X158050500Y-59971733D01*
X158050500Y-59487271D01*
X158050499Y-59487270D01*
X158023207Y-59385413D01*
X157970480Y-59294087D01*
X157895913Y-59219520D01*
X157365457Y-58689064D01*
X157343783Y-58636738D01*
X157346967Y-58615266D01*
X157395300Y-58455934D01*
X157415583Y-58250000D01*
X157395300Y-58044066D01*
X157335232Y-57846046D01*
X157237685Y-57663550D01*
X157106410Y-57503590D01*
X156946450Y-57372315D01*
X156763954Y-57274768D01*
X156652158Y-57240855D01*
X156565935Y-57214700D01*
X156360000Y-57194417D01*
X156154064Y-57214700D01*
X155956043Y-57274769D01*
X155773549Y-57372315D01*
X155613590Y-57503589D01*
X155613589Y-57503590D01*
X155482315Y-57663549D01*
X155384769Y-57846043D01*
X155324700Y-58044064D01*
X155324700Y-58044066D01*
X155304417Y-58250000D01*
X155324700Y-58455934D01*
X155384768Y-58653954D01*
X155482315Y-58836450D01*
X155613590Y-58996410D01*
X155773550Y-59127685D01*
X155956046Y-59225232D01*
X156154066Y-59285300D01*
X156360000Y-59305583D01*
X156565934Y-59285300D01*
X156725260Y-59236969D01*
X156781621Y-59242521D01*
X156799064Y-59255457D01*
X157227826Y-59684219D01*
X157249500Y-59736545D01*
X157249500Y-60011129D01*
X157227826Y-60063455D01*
X157175500Y-60085129D01*
X157123174Y-60063455D01*
X157118298Y-60058074D01*
X157106416Y-60043596D01*
X157106409Y-60043589D01*
X156946450Y-59912315D01*
X156763956Y-59814769D01*
X156763955Y-59814768D01*
X156763954Y-59814768D01*
X156652158Y-59780855D01*
X156565935Y-59754700D01*
X156360000Y-59734417D01*
X156154064Y-59754700D01*
X155956043Y-59814769D01*
X155773549Y-59912315D01*
X155613590Y-60043589D01*
X155613583Y-60043596D01*
X155601702Y-60058074D01*
X155551753Y-60084773D01*
X155497555Y-60068331D01*
X155470856Y-60018382D01*
X155470500Y-60011129D01*
X155470500Y-59447275D01*
X155470500Y-59447273D01*
X155467821Y-59437273D01*
X155443207Y-59345412D01*
X155408501Y-59285300D01*
X155390482Y-59254090D01*
X155390481Y-59254089D01*
X155390480Y-59254087D01*
X154825457Y-58689064D01*
X154803783Y-58636738D01*
X154806967Y-58615266D01*
X154855300Y-58455934D01*
X154875583Y-58250000D01*
X154855300Y-58044066D01*
X154795232Y-57846046D01*
X154697685Y-57663550D01*
X154566410Y-57503590D01*
X154406450Y-57372315D01*
X154223954Y-57274768D01*
X154112158Y-57240855D01*
X154025935Y-57214700D01*
X153820000Y-57194417D01*
X153614064Y-57214700D01*
X153416043Y-57274769D01*
X153233549Y-57372315D01*
X153073590Y-57503589D01*
X153073589Y-57503590D01*
X152942315Y-57663549D01*
X152844769Y-57846043D01*
X152784700Y-58044064D01*
X152784700Y-58044066D01*
X152764417Y-58250000D01*
X152784700Y-58455934D01*
X152844768Y-58653954D01*
X152942315Y-58836450D01*
X153073590Y-58996410D01*
X153233550Y-59127685D01*
X153416046Y-59225232D01*
X153614066Y-59285300D01*
X153820000Y-59305583D01*
X154025934Y-59285300D01*
X154185260Y-59236969D01*
X154241621Y-59242521D01*
X154259064Y-59255457D01*
X154647826Y-59644219D01*
X154669500Y-59696545D01*
X154669500Y-59971733D01*
X154647826Y-60024059D01*
X154595500Y-60045733D01*
X154548555Y-60028936D01*
X154406450Y-59912315D01*
X154223956Y-59814769D01*
X154223955Y-59814768D01*
X154223954Y-59814768D01*
X154112158Y-59780855D01*
X154025935Y-59754700D01*
X153820000Y-59734417D01*
X153614064Y-59754700D01*
X153416043Y-59814769D01*
X153233549Y-59912315D01*
X153073590Y-60043589D01*
X153073589Y-60043590D01*
X152942315Y-60203549D01*
X152844769Y-60386043D01*
X152784700Y-60584064D01*
X152764417Y-60790000D01*
X152784700Y-60995935D01*
X152796128Y-61033608D01*
X152844383Y-61192686D01*
X152844769Y-61193956D01*
X152942315Y-61376450D01*
X153038856Y-61494087D01*
X153073590Y-61536410D01*
X153233550Y-61667685D01*
X153416046Y-61765232D01*
X153614066Y-61825300D01*
X153820000Y-61845583D01*
X154025934Y-61825300D01*
X154223954Y-61765232D01*
X154406450Y-61667685D01*
X154566410Y-61536410D01*
X154613774Y-61478695D01*
X154663723Y-61451997D01*
X154717922Y-61468438D01*
X154735063Y-61488641D01*
X154749517Y-61513676D01*
X154749518Y-61513677D01*
X154749520Y-61513680D01*
X156632385Y-63396544D01*
X158479164Y-65243323D01*
X158479169Y-65243329D01*
X158481753Y-65245913D01*
X158556320Y-65320480D01*
X158612174Y-65352727D01*
X158647646Y-65373207D01*
X158647647Y-65373207D01*
X158647649Y-65373208D01*
X158694691Y-65385813D01*
X158749504Y-65400500D01*
X158749505Y-65400501D01*
X158749507Y-65400501D01*
X158859490Y-65400501D01*
X158859506Y-65400500D01*
X160441681Y-65400500D01*
X160494007Y-65422174D01*
X160500369Y-65437533D01*
X160509859Y-65418575D01*
X160558319Y-65400500D01*
X169303455Y-65400500D01*
X169355781Y-65422174D01*
X170323349Y-66389742D01*
X170345023Y-66442068D01*
X170335971Y-66477533D01*
X170221228Y-66687666D01*
X170123733Y-66949062D01*
X170123728Y-66949081D01*
X170064834Y-67219808D01*
X170032532Y-67266331D01*
X169976795Y-67276387D01*
X169930272Y-67244085D01*
X169928439Y-67241078D01*
X169900500Y-67192686D01*
X169807314Y-67099500D01*
X169708293Y-67042330D01*
X169693190Y-67033610D01*
X169693181Y-67033606D01*
X169565894Y-66999500D01*
X169565892Y-66999500D01*
X163065892Y-66999500D01*
X162934108Y-66999500D01*
X162934106Y-66999500D01*
X162806818Y-67033606D01*
X162806809Y-67033610D01*
X162692685Y-67099500D01*
X162599499Y-67192686D01*
X162571559Y-67241079D01*
X162526626Y-67275557D01*
X162470473Y-67268163D01*
X162435995Y-67223230D01*
X162435165Y-67219808D01*
X162429265Y-67192685D01*
X162376271Y-66949077D01*
X162376267Y-66949068D01*
X162376266Y-66949062D01*
X162278771Y-66687666D01*
X162145057Y-66442788D01*
X162082224Y-66358853D01*
X161977855Y-66219432D01*
X161780568Y-66022145D01*
X161582772Y-65874077D01*
X161557211Y-65854942D01*
X161312333Y-65721228D01*
X161050937Y-65623733D01*
X161050925Y-65623730D01*
X161050923Y-65623729D01*
X160995971Y-65611775D01*
X160778291Y-65564421D01*
X160553040Y-65548311D01*
X160502394Y-65522960D01*
X160499370Y-65513876D01*
X160494007Y-65526826D01*
X160446960Y-65548311D01*
X160221708Y-65564421D01*
X159949081Y-65623728D01*
X159949062Y-65623733D01*
X159687666Y-65721228D01*
X159442788Y-65854942D01*
X159219429Y-66022147D01*
X159022147Y-66219429D01*
X158854942Y-66442788D01*
X158721228Y-66687666D01*
X158643834Y-66895171D01*
X158605241Y-66936624D01*
X158548640Y-66938645D01*
X158507187Y-66900052D01*
X158500500Y-66869311D01*
X158500500Y-65934106D01*
X158500499Y-65934105D01*
X158493726Y-65908829D01*
X158466392Y-65806814D01*
X158400500Y-65692686D01*
X158307314Y-65599500D01*
X158193190Y-65533610D01*
X158193181Y-65533606D01*
X158065894Y-65499500D01*
X158065892Y-65499500D01*
X153065892Y-65499500D01*
X152934108Y-65499500D01*
X152934106Y-65499500D01*
X152806818Y-65533606D01*
X152806809Y-65533610D01*
X152692685Y-65599500D01*
X152599500Y-65692685D01*
X152533610Y-65806809D01*
X152533606Y-65806818D01*
X152499500Y-65934105D01*
X152499500Y-66869311D01*
X152477826Y-66921637D01*
X152425500Y-66943311D01*
X152373174Y-66921637D01*
X152356166Y-66895171D01*
X152278771Y-66687666D01*
X152145057Y-66442788D01*
X152082224Y-66358853D01*
X151977855Y-66219432D01*
X151780568Y-66022145D01*
X151582772Y-65874077D01*
X151557211Y-65854942D01*
X151312333Y-65721228D01*
X151050937Y-65623733D01*
X151050925Y-65623730D01*
X151050923Y-65623729D01*
X150939544Y-65599500D01*
X150778290Y-65564421D01*
X150499221Y-65544461D01*
X150448574Y-65519110D01*
X150430500Y-65470650D01*
X150430500Y-61608266D01*
X150452174Y-61555940D01*
X150504500Y-61534266D01*
X150551444Y-61551062D01*
X150693550Y-61667685D01*
X150876046Y-61765232D01*
X151074066Y-61825300D01*
X151280000Y-61845583D01*
X151485934Y-61825300D01*
X151683954Y-61765232D01*
X151866450Y-61667685D01*
X152026410Y-61536410D01*
X152157685Y-61376450D01*
X152255232Y-61193954D01*
X152315300Y-60995934D01*
X152335583Y-60790000D01*
X152315300Y-60584066D01*
X152255232Y-60386046D01*
X152157685Y-60203550D01*
X152026410Y-60043590D01*
X152018588Y-60037171D01*
X151866450Y-59912315D01*
X151683956Y-59814769D01*
X151683955Y-59814768D01*
X151683954Y-59814768D01*
X151572158Y-59780855D01*
X151485935Y-59754700D01*
X151280000Y-59734417D01*
X151074064Y-59754700D01*
X150876043Y-59814769D01*
X150693549Y-59912315D01*
X150551445Y-60028936D01*
X150497246Y-60045377D01*
X150447297Y-60018678D01*
X150430500Y-59971733D01*
X150430500Y-59696544D01*
X150452173Y-59644219D01*
X150840935Y-59255456D01*
X150893260Y-59233783D01*
X150914735Y-59236968D01*
X151074066Y-59285300D01*
X151280000Y-59305583D01*
X151485934Y-59285300D01*
X151683954Y-59225232D01*
X151866450Y-59127685D01*
X152026410Y-58996410D01*
X152157685Y-58836450D01*
X152255232Y-58653954D01*
X152315300Y-58455934D01*
X152335583Y-58250000D01*
X152315300Y-58044066D01*
X152255232Y-57846046D01*
X152157685Y-57663550D01*
X152026410Y-57503590D01*
X151866450Y-57372315D01*
X151683954Y-57274768D01*
X151572158Y-57240855D01*
X151485935Y-57214700D01*
X151280000Y-57194417D01*
X151074064Y-57214700D01*
X150876043Y-57274769D01*
X150693549Y-57372315D01*
X150533590Y-57503589D01*
X150533589Y-57503590D01*
X150402315Y-57663549D01*
X150304769Y-57846043D01*
X150244700Y-58044064D01*
X150224417Y-58250000D01*
X150244700Y-58455937D01*
X150293029Y-58615258D01*
X150287477Y-58671622D01*
X150274541Y-58689064D01*
X149709518Y-59254088D01*
X149656794Y-59345409D01*
X149656793Y-59345411D01*
X149656793Y-59345412D01*
X149632179Y-59437273D01*
X149629500Y-59447273D01*
X149629500Y-59447274D01*
X149629500Y-60011129D01*
X149607826Y-60063455D01*
X149555500Y-60085129D01*
X149503174Y-60063455D01*
X149498298Y-60058074D01*
X149486416Y-60043596D01*
X149486409Y-60043589D01*
X149326450Y-59912315D01*
X149143956Y-59814769D01*
X149143955Y-59814768D01*
X149143954Y-59814768D01*
X149032158Y-59780855D01*
X148945935Y-59754700D01*
X148740000Y-59734417D01*
X148534064Y-59754700D01*
X148336043Y-59814769D01*
X148153549Y-59912315D01*
X148021445Y-60020730D01*
X147967246Y-60037171D01*
X147917297Y-60010472D01*
X147900500Y-59963527D01*
X147900500Y-59686544D01*
X147922173Y-59634219D01*
X148300935Y-59255456D01*
X148353260Y-59233783D01*
X148374735Y-59236968D01*
X148534066Y-59285300D01*
X148740000Y-59305583D01*
X148945934Y-59285300D01*
X149143954Y-59225232D01*
X149326450Y-59127685D01*
X149486410Y-58996410D01*
X149617685Y-58836450D01*
X149715232Y-58653954D01*
X149775300Y-58455934D01*
X149795583Y-58250000D01*
X149775300Y-58044066D01*
X149715232Y-57846046D01*
X149617685Y-57663550D01*
X149486410Y-57503590D01*
X149326450Y-57372315D01*
X149143954Y-57274768D01*
X149032158Y-57240855D01*
X148945935Y-57214700D01*
X148740000Y-57194417D01*
X148534064Y-57214700D01*
X148336043Y-57274769D01*
X148153549Y-57372315D01*
X147993590Y-57503589D01*
X147993589Y-57503590D01*
X147862315Y-57663549D01*
X147764769Y-57846043D01*
X147704700Y-58044064D01*
X147684417Y-58250000D01*
X147704700Y-58455937D01*
X147753029Y-58615258D01*
X147747477Y-58671622D01*
X147734541Y-58689064D01*
X147179518Y-59244088D01*
X147126795Y-59335407D01*
X147126791Y-59335416D01*
X147113395Y-59385411D01*
X147113396Y-59385412D01*
X147099500Y-59437273D01*
X147099500Y-59910208D01*
X147096979Y-59929359D01*
X147089500Y-59957272D01*
X147089500Y-60011129D01*
X147067826Y-60063455D01*
X147015500Y-60085129D01*
X146963174Y-60063455D01*
X146958298Y-60058074D01*
X146946416Y-60043596D01*
X146946409Y-60043589D01*
X146786450Y-59912315D01*
X146603956Y-59814769D01*
X146603955Y-59814768D01*
X146603954Y-59814768D01*
X146492158Y-59780855D01*
X146405935Y-59754700D01*
X146200000Y-59734417D01*
X145994064Y-59754700D01*
X145796043Y-59814769D01*
X145613549Y-59912315D01*
X145471445Y-60028936D01*
X145417246Y-60045377D01*
X145367297Y-60018678D01*
X145350500Y-59971733D01*
X145350500Y-59696544D01*
X145372173Y-59644219D01*
X145760935Y-59255456D01*
X145813260Y-59233783D01*
X145834735Y-59236968D01*
X145994066Y-59285300D01*
X146200000Y-59305583D01*
X146405934Y-59285300D01*
X146603954Y-59225232D01*
X146786450Y-59127685D01*
X146946410Y-58996410D01*
X147077685Y-58836450D01*
X147175232Y-58653954D01*
X147235300Y-58455934D01*
X147255583Y-58250000D01*
X147235300Y-58044066D01*
X147175232Y-57846046D01*
X147077685Y-57663550D01*
X146946410Y-57503590D01*
X146786450Y-57372315D01*
X146603954Y-57274768D01*
X146492158Y-57240855D01*
X146405935Y-57214700D01*
X146200000Y-57194417D01*
X145994064Y-57214700D01*
X145796043Y-57274769D01*
X145613549Y-57372315D01*
X145453590Y-57503589D01*
X145453589Y-57503590D01*
X145322315Y-57663549D01*
X145224769Y-57846043D01*
X145164700Y-58044064D01*
X145144417Y-58250000D01*
X145164700Y-58455937D01*
X145213029Y-58615258D01*
X145207477Y-58671622D01*
X145194541Y-58689064D01*
X144629518Y-59254088D01*
X144576794Y-59345409D01*
X144576793Y-59345411D01*
X144576793Y-59345412D01*
X144552179Y-59437273D01*
X144549500Y-59447273D01*
X144549500Y-59447274D01*
X144549500Y-60011129D01*
X144527826Y-60063455D01*
X144475500Y-60085129D01*
X144423174Y-60063455D01*
X144418298Y-60058074D01*
X144406416Y-60043596D01*
X144406409Y-60043589D01*
X144246450Y-59912315D01*
X144063956Y-59814769D01*
X144063955Y-59814768D01*
X144063954Y-59814768D01*
X143952158Y-59780855D01*
X143865935Y-59754700D01*
X143660000Y-59734417D01*
X143454064Y-59754700D01*
X143256043Y-59814769D01*
X143073549Y-59912315D01*
X142931445Y-60028936D01*
X142877246Y-60045377D01*
X142827297Y-60018678D01*
X142810500Y-59971733D01*
X142810500Y-59696544D01*
X142832173Y-59644219D01*
X143220935Y-59255456D01*
X143273260Y-59233783D01*
X143294735Y-59236968D01*
X143454066Y-59285300D01*
X143660000Y-59305583D01*
X143865934Y-59285300D01*
X144063954Y-59225232D01*
X144246450Y-59127685D01*
X144406410Y-58996410D01*
X144537685Y-58836450D01*
X144635232Y-58653954D01*
X144695300Y-58455934D01*
X144715583Y-58250000D01*
X144695300Y-58044066D01*
X144635232Y-57846046D01*
X144537685Y-57663550D01*
X144406410Y-57503590D01*
X144246450Y-57372315D01*
X144063954Y-57274768D01*
X143952158Y-57240855D01*
X143865935Y-57214700D01*
X143660000Y-57194417D01*
X143454064Y-57214700D01*
X143256043Y-57274769D01*
X143073549Y-57372315D01*
X142913590Y-57503589D01*
X142913589Y-57503590D01*
X142782315Y-57663549D01*
X142684769Y-57846043D01*
X142624700Y-58044064D01*
X142604417Y-58250000D01*
X142624700Y-58455937D01*
X142673029Y-58615258D01*
X142667477Y-58671622D01*
X142654541Y-58689064D01*
X142089518Y-59254088D01*
X142036794Y-59345409D01*
X142036793Y-59345411D01*
X142036793Y-59345412D01*
X142012179Y-59437273D01*
X142009500Y-59447273D01*
X142009500Y-59447274D01*
X142009500Y-60011129D01*
X141987826Y-60063455D01*
X141935500Y-60085129D01*
X141883174Y-60063455D01*
X141878298Y-60058074D01*
X141866416Y-60043596D01*
X141866409Y-60043589D01*
X141706450Y-59912315D01*
X141523956Y-59814769D01*
X141523955Y-59814768D01*
X141523954Y-59814768D01*
X141412158Y-59780855D01*
X141325935Y-59754700D01*
X141120000Y-59734417D01*
X140914064Y-59754700D01*
X140716043Y-59814769D01*
X140533549Y-59912315D01*
X140373590Y-60043589D01*
X140373583Y-60043596D01*
X140361702Y-60058074D01*
X140311753Y-60084773D01*
X140257555Y-60068331D01*
X140230856Y-60018382D01*
X140230500Y-60011129D01*
X140230500Y-59736544D01*
X140252173Y-59684219D01*
X140680935Y-59255456D01*
X140733260Y-59233783D01*
X140754735Y-59236968D01*
X140914066Y-59285300D01*
X141120000Y-59305583D01*
X141325934Y-59285300D01*
X141523954Y-59225232D01*
X141706450Y-59127685D01*
X141866410Y-58996410D01*
X141997685Y-58836450D01*
X142095232Y-58653954D01*
X142155300Y-58455934D01*
X142175583Y-58250000D01*
X142155300Y-58044066D01*
X142095232Y-57846046D01*
X141997685Y-57663550D01*
X141866410Y-57503590D01*
X141706450Y-57372315D01*
X141523954Y-57274768D01*
X141412158Y-57240855D01*
X141325935Y-57214700D01*
X141120000Y-57194417D01*
X140914064Y-57214700D01*
X140716043Y-57274769D01*
X140533549Y-57372315D01*
X140373590Y-57503589D01*
X140373589Y-57503590D01*
X140242315Y-57663549D01*
X140144769Y-57846043D01*
X140084700Y-58044064D01*
X140064417Y-58250000D01*
X140084700Y-58455937D01*
X140133029Y-58615258D01*
X140127477Y-58671622D01*
X140114541Y-58689064D01*
X139509517Y-59294090D01*
X139456792Y-59385412D01*
X139456793Y-59385413D01*
X139429500Y-59487273D01*
X139429500Y-59971733D01*
X139407826Y-60024059D01*
X139355500Y-60045733D01*
X139308555Y-60028936D01*
X139166450Y-59912315D01*
X138983956Y-59814769D01*
X138983955Y-59814768D01*
X138983954Y-59814768D01*
X138872158Y-59780855D01*
X138785935Y-59754700D01*
X138580000Y-59734417D01*
X138374064Y-59754700D01*
X138176043Y-59814769D01*
X137993549Y-59912315D01*
X137833590Y-60043589D01*
X137833583Y-60043596D01*
X137821702Y-60058074D01*
X137771753Y-60084773D01*
X137717555Y-60068331D01*
X137690856Y-60018382D01*
X137690500Y-60011129D01*
X137690500Y-59736544D01*
X137712173Y-59684219D01*
X138140935Y-59255456D01*
X138193260Y-59233783D01*
X138214735Y-59236968D01*
X138374066Y-59285300D01*
X138580000Y-59305583D01*
X138785934Y-59285300D01*
X138983954Y-59225232D01*
X139166450Y-59127685D01*
X139326410Y-58996410D01*
X139457685Y-58836450D01*
X139555232Y-58653954D01*
X139615300Y-58455934D01*
X139635583Y-58250000D01*
X139615300Y-58044066D01*
X139555232Y-57846046D01*
X139457685Y-57663550D01*
X139326410Y-57503590D01*
X139166450Y-57372315D01*
X138983954Y-57274768D01*
X138872158Y-57240855D01*
X138785935Y-57214700D01*
X138580000Y-57194417D01*
X138374064Y-57214700D01*
X138176043Y-57274769D01*
X137993549Y-57372315D01*
X137833590Y-57503589D01*
X137833589Y-57503590D01*
X137702315Y-57663549D01*
X137604769Y-57846043D01*
X137544700Y-58044064D01*
X137524417Y-58250000D01*
X137544700Y-58455937D01*
X137593029Y-58615258D01*
X137587477Y-58671622D01*
X137574541Y-58689064D01*
X136969517Y-59294090D01*
X136916792Y-59385412D01*
X136916793Y-59385413D01*
X136889500Y-59487273D01*
X136889500Y-59971733D01*
X136867826Y-60024059D01*
X136815500Y-60045733D01*
X136768555Y-60028936D01*
X136626450Y-59912315D01*
X136443956Y-59814769D01*
X136443955Y-59814768D01*
X136443954Y-59814768D01*
X136332158Y-59780855D01*
X136245935Y-59754700D01*
X136040000Y-59734417D01*
X135834064Y-59754700D01*
X135636043Y-59814769D01*
X135453549Y-59912315D01*
X135293590Y-60043589D01*
X135293583Y-60043596D01*
X135281702Y-60058074D01*
X135231753Y-60084773D01*
X135177555Y-60068331D01*
X135150856Y-60018382D01*
X135150500Y-60011129D01*
X135150500Y-59736544D01*
X135172173Y-59684219D01*
X135600935Y-59255456D01*
X135653260Y-59233783D01*
X135674735Y-59236968D01*
X135834066Y-59285300D01*
X136040000Y-59305583D01*
X136245934Y-59285300D01*
X136443954Y-59225232D01*
X136626450Y-59127685D01*
X136786410Y-58996410D01*
X136917685Y-58836450D01*
X137015232Y-58653954D01*
X137075300Y-58455934D01*
X137095583Y-58250000D01*
X137075300Y-58044066D01*
X137015232Y-57846046D01*
X136917685Y-57663550D01*
X136786410Y-57503590D01*
X136626450Y-57372315D01*
X136443954Y-57274768D01*
X136332158Y-57240855D01*
X136245935Y-57214700D01*
X136040000Y-57194417D01*
X135834064Y-57214700D01*
X135636043Y-57274769D01*
X135453549Y-57372315D01*
X135293590Y-57503589D01*
X135293589Y-57503590D01*
X135162315Y-57663549D01*
X135064769Y-57846043D01*
X135004700Y-58044064D01*
X134984417Y-58250000D01*
X135004700Y-58455937D01*
X135053029Y-58615258D01*
X135047477Y-58671622D01*
X135034541Y-58689064D01*
X134429517Y-59294090D01*
X134376792Y-59385412D01*
X134376793Y-59385413D01*
X134349500Y-59487273D01*
X134349500Y-59971733D01*
X134327826Y-60024059D01*
X134275500Y-60045733D01*
X134228555Y-60028936D01*
X134086450Y-59912315D01*
X133903956Y-59814769D01*
X133903955Y-59814768D01*
X133903954Y-59814768D01*
X133792158Y-59780855D01*
X133705935Y-59754700D01*
X133500000Y-59734417D01*
X133294064Y-59754700D01*
X133096043Y-59814769D01*
X132913549Y-59912315D01*
X132753590Y-60043589D01*
X132753589Y-60043590D01*
X132631703Y-60192110D01*
X132581753Y-60218809D01*
X132527555Y-60202368D01*
X132500856Y-60152418D01*
X132500500Y-60145165D01*
X132500500Y-59846544D01*
X132522173Y-59794219D01*
X133060935Y-59255456D01*
X133113260Y-59233783D01*
X133134735Y-59236968D01*
X133294066Y-59285300D01*
X133500000Y-59305583D01*
X133705934Y-59285300D01*
X133903954Y-59225232D01*
X134086450Y-59127685D01*
X134246410Y-58996410D01*
X134377685Y-58836450D01*
X134475232Y-58653954D01*
X134535300Y-58455934D01*
X134555583Y-58250000D01*
X134535300Y-58044066D01*
X134475232Y-57846046D01*
X134377685Y-57663550D01*
X134246410Y-57503590D01*
X134086450Y-57372315D01*
X133903954Y-57274768D01*
X133792158Y-57240855D01*
X133705935Y-57214700D01*
X133500000Y-57194417D01*
X133294064Y-57214700D01*
X133096043Y-57274769D01*
X132913549Y-57372315D01*
X132753590Y-57503589D01*
X132753589Y-57503590D01*
X132622315Y-57663549D01*
X132524769Y-57846043D01*
X132464700Y-58044064D01*
X132444417Y-58250000D01*
X132464700Y-58455937D01*
X132513029Y-58615258D01*
X132507477Y-58671622D01*
X132494541Y-58689064D01*
X132026826Y-59156780D01*
X131974500Y-59178454D01*
X131922174Y-59156780D01*
X131900500Y-59104454D01*
X131900500Y-48074500D01*
X131922174Y-48022174D01*
X131974500Y-48000500D01*
X162925500Y-48000500D01*
X162977826Y-48022174D01*
G37*
%TD.AperFunction*%
%TA.AperFunction,NonConductor*%
G36*
X135806781Y-65022174D02*
G01*
X135828455Y-65074500D01*
X135806781Y-65126826D01*
X135110257Y-65823348D01*
X135057931Y-65845022D01*
X135022467Y-65835970D01*
X134812338Y-65721230D01*
X134812334Y-65721229D01*
X134550937Y-65623733D01*
X134550925Y-65623730D01*
X134550923Y-65623729D01*
X134495971Y-65611775D01*
X134278291Y-65564421D01*
X134000007Y-65544518D01*
X133999993Y-65544518D01*
X133721708Y-65564421D01*
X133449081Y-65623728D01*
X133449062Y-65623733D01*
X133187666Y-65721228D01*
X132942788Y-65854942D01*
X132719429Y-66022147D01*
X132522147Y-66219429D01*
X132354942Y-66442788D01*
X132221228Y-66687666D01*
X132123733Y-66949062D01*
X132123728Y-66949081D01*
X132064834Y-67219808D01*
X132032532Y-67266331D01*
X131976795Y-67276387D01*
X131930272Y-67244085D01*
X131928439Y-67241078D01*
X131900500Y-67192686D01*
X131807314Y-67099500D01*
X131708293Y-67042330D01*
X131693190Y-67033610D01*
X131693181Y-67033606D01*
X131565894Y-66999500D01*
X131565892Y-66999500D01*
X125065892Y-66999500D01*
X124934108Y-66999500D01*
X124934106Y-66999500D01*
X124806818Y-67033606D01*
X124806809Y-67033610D01*
X124692685Y-67099500D01*
X124599499Y-67192686D01*
X124571559Y-67241079D01*
X124526626Y-67275557D01*
X124470473Y-67268163D01*
X124435995Y-67223230D01*
X124435165Y-67219808D01*
X124429265Y-67192685D01*
X124376271Y-66949077D01*
X124376267Y-66949068D01*
X124376266Y-66949062D01*
X124278771Y-66687666D01*
X124145057Y-66442788D01*
X124082224Y-66358853D01*
X123977855Y-66219432D01*
X123780568Y-66022145D01*
X123582772Y-65874077D01*
X123557211Y-65854942D01*
X123312333Y-65721228D01*
X123050937Y-65623733D01*
X123050925Y-65623730D01*
X123050923Y-65623729D01*
X122995971Y-65611775D01*
X122778291Y-65564421D01*
X122500007Y-65544518D01*
X122499993Y-65544518D01*
X122221708Y-65564421D01*
X121949081Y-65623728D01*
X121949062Y-65623733D01*
X121687666Y-65721228D01*
X121442788Y-65854942D01*
X121219429Y-66022147D01*
X121022147Y-66219429D01*
X120854942Y-66442788D01*
X120721228Y-66687666D01*
X120643834Y-66895171D01*
X120605241Y-66936624D01*
X120548640Y-66938645D01*
X120507187Y-66900052D01*
X120500500Y-66869311D01*
X120500500Y-65934106D01*
X120500499Y-65934105D01*
X120493726Y-65908829D01*
X120466392Y-65806814D01*
X120400500Y-65692686D01*
X120307314Y-65599500D01*
X120193190Y-65533610D01*
X120193181Y-65533606D01*
X120065894Y-65499500D01*
X120065892Y-65499500D01*
X115065892Y-65499500D01*
X114934108Y-65499500D01*
X114934106Y-65499500D01*
X114806818Y-65533606D01*
X114806809Y-65533610D01*
X114692685Y-65599500D01*
X114599500Y-65692685D01*
X114533610Y-65806809D01*
X114533606Y-65806818D01*
X114499500Y-65934105D01*
X114499500Y-66869311D01*
X114477826Y-66921637D01*
X114425500Y-66943311D01*
X114373174Y-66921637D01*
X114356166Y-66895171D01*
X114278771Y-66687666D01*
X114145057Y-66442788D01*
X114082224Y-66358853D01*
X113977855Y-66219432D01*
X113780568Y-66022145D01*
X113582772Y-65874077D01*
X113557211Y-65854942D01*
X113420328Y-65780198D01*
X113384790Y-65736098D01*
X113390845Y-65679785D01*
X113403463Y-65662928D01*
X114044219Y-65022174D01*
X114096545Y-65000500D01*
X135754455Y-65000500D01*
X135806781Y-65022174D01*
G37*
%TD.AperFunction*%
%TA.AperFunction,NonConductor*%
G36*
X148826826Y-68511973D02*
G01*
X148839446Y-68528831D01*
X148854944Y-68557213D01*
X149022145Y-68780568D01*
X149219432Y-68977855D01*
X149364311Y-69086310D01*
X149442788Y-69145057D01*
X149687666Y-69278771D01*
X149895172Y-69356166D01*
X149936625Y-69394759D01*
X149938646Y-69451360D01*
X149900053Y-69492813D01*
X149869312Y-69499500D01*
X148934106Y-69499500D01*
X148806818Y-69533606D01*
X148802817Y-69535264D01*
X148746179Y-69535262D01*
X148706132Y-69495213D01*
X148700500Y-69466896D01*
X148700500Y-68564299D01*
X148722174Y-68511973D01*
X148774500Y-68490299D01*
X148826826Y-68511973D01*
G37*
%TD.AperFunction*%
%TA.AperFunction,NonConductor*%
G36*
X94326826Y-68511973D02*
G01*
X94339446Y-68528831D01*
X94354944Y-68557213D01*
X94522145Y-68780568D01*
X94719432Y-68977855D01*
X94864311Y-69086310D01*
X94942788Y-69145057D01*
X95187666Y-69278771D01*
X95395172Y-69356166D01*
X95436625Y-69394759D01*
X95438646Y-69451360D01*
X95400053Y-69492813D01*
X95369312Y-69499500D01*
X94434106Y-69499500D01*
X94306818Y-69533606D01*
X94302817Y-69535264D01*
X94246179Y-69535262D01*
X94206132Y-69495213D01*
X94200500Y-69466896D01*
X94200500Y-68564299D01*
X94222174Y-68511973D01*
X94274500Y-68490299D01*
X94326826Y-68511973D01*
G37*
%TD.AperFunction*%
%TA.AperFunction,NonConductor*%
G36*
X183760964Y-68499350D02*
G01*
X183796502Y-68543450D01*
X183799500Y-68564299D01*
X183799500Y-69466896D01*
X183777826Y-69519222D01*
X183725500Y-69540896D01*
X183697183Y-69535264D01*
X183693181Y-69533606D01*
X183565894Y-69499500D01*
X183565892Y-69499500D01*
X182630688Y-69499500D01*
X182578362Y-69477826D01*
X182556688Y-69425500D01*
X182578362Y-69373174D01*
X182604828Y-69356166D01*
X182812333Y-69278771D01*
X182885097Y-69239039D01*
X183057213Y-69145056D01*
X183280568Y-68977855D01*
X183477855Y-68780568D01*
X183645056Y-68557213D01*
X183660552Y-68528834D01*
X183704651Y-68493297D01*
X183760964Y-68499350D01*
G37*
%TD.AperFunction*%
%TA.AperFunction,NonConductor*%
G36*
X145760964Y-68499350D02*
G01*
X145796502Y-68543450D01*
X145799500Y-68564299D01*
X145799500Y-69466896D01*
X145777826Y-69519222D01*
X145725500Y-69540896D01*
X145697183Y-69535264D01*
X145693181Y-69533606D01*
X145565894Y-69499500D01*
X145565892Y-69499500D01*
X144630688Y-69499500D01*
X144578362Y-69477826D01*
X144556688Y-69425500D01*
X144578362Y-69373174D01*
X144604828Y-69356166D01*
X144812333Y-69278771D01*
X144885097Y-69239039D01*
X145057213Y-69145056D01*
X145280568Y-68977855D01*
X145477855Y-68780568D01*
X145645056Y-68557213D01*
X145660552Y-68528834D01*
X145704651Y-68493297D01*
X145760964Y-68499350D01*
G37*
%TD.AperFunction*%
%TA.AperFunction,NonConductor*%
G36*
X187276826Y-68420405D02*
G01*
X187289448Y-68437267D01*
X187354940Y-68557208D01*
X187354944Y-68557213D01*
X187522145Y-68780568D01*
X187719432Y-68977855D01*
X187864311Y-69086310D01*
X187942788Y-69145057D01*
X188187666Y-69278771D01*
X188395172Y-69356166D01*
X188436625Y-69394759D01*
X188438646Y-69451360D01*
X188400053Y-69492813D01*
X188369312Y-69499500D01*
X187434106Y-69499500D01*
X187306818Y-69533606D01*
X187306809Y-69533610D01*
X187261500Y-69559770D01*
X187205347Y-69567163D01*
X187160414Y-69532684D01*
X187150500Y-69495684D01*
X187150500Y-68472731D01*
X187172174Y-68420405D01*
X187224500Y-68398731D01*
X187276826Y-68420405D01*
G37*
%TD.AperFunction*%
%TA.AperFunction,NonConductor*%
G36*
X149921638Y-101022174D02*
G01*
X149943312Y-101074500D01*
X149921638Y-101126826D01*
X149895172Y-101143834D01*
X149687666Y-101221228D01*
X149477533Y-101335971D01*
X149421220Y-101342026D01*
X149389742Y-101323349D01*
X149193219Y-101126826D01*
X149171545Y-101074500D01*
X149193219Y-101022174D01*
X149245545Y-101000500D01*
X149869312Y-101000500D01*
X149921638Y-101022174D01*
G37*
%TD.AperFunction*%
%TA.AperFunction,NonConductor*%
G36*
X95421638Y-101022174D02*
G01*
X95443312Y-101074500D01*
X95421638Y-101126826D01*
X95395172Y-101143834D01*
X95187666Y-101221228D01*
X94977533Y-101335971D01*
X94921220Y-101342026D01*
X94889742Y-101323349D01*
X94693219Y-101126826D01*
X94671545Y-101074500D01*
X94693219Y-101022174D01*
X94745545Y-101000500D01*
X95369312Y-101000500D01*
X95421638Y-101022174D01*
G37*
%TD.AperFunction*%
%TA.AperFunction,NonConductor*%
G36*
X183793867Y-101004785D02*
G01*
X183799500Y-101033104D01*
X183799500Y-101935700D01*
X183777826Y-101988026D01*
X183725500Y-102009700D01*
X183673174Y-101988026D01*
X183660552Y-101971165D01*
X183645057Y-101942788D01*
X183582224Y-101858853D01*
X183477855Y-101719432D01*
X183280568Y-101522145D01*
X183069479Y-101364126D01*
X183057211Y-101354942D01*
X182812333Y-101221228D01*
X182604828Y-101143834D01*
X182563375Y-101105241D01*
X182561354Y-101048640D01*
X182599947Y-101007187D01*
X182630688Y-101000500D01*
X183565891Y-101000500D01*
X183565892Y-101000500D01*
X183693186Y-100966392D01*
X183693190Y-100966389D01*
X183697181Y-100964737D01*
X183753818Y-100964737D01*
X183793867Y-101004785D01*
G37*
%TD.AperFunction*%
%TA.AperFunction,NonConductor*%
G36*
X145793867Y-101004785D02*
G01*
X145799500Y-101033104D01*
X145799500Y-101935700D01*
X145777826Y-101988026D01*
X145725500Y-102009700D01*
X145673174Y-101988026D01*
X145660552Y-101971165D01*
X145645057Y-101942788D01*
X145582224Y-101858853D01*
X145477855Y-101719432D01*
X145280568Y-101522145D01*
X145069479Y-101364126D01*
X145057211Y-101354942D01*
X144812333Y-101221228D01*
X144604828Y-101143834D01*
X144563375Y-101105241D01*
X144561354Y-101048640D01*
X144599947Y-101007187D01*
X144630688Y-101000500D01*
X145565891Y-101000500D01*
X145565892Y-101000500D01*
X145693186Y-100966392D01*
X145693190Y-100966389D01*
X145697181Y-100964737D01*
X145753818Y-100964737D01*
X145793867Y-101004785D01*
G37*
%TD.AperFunction*%
%TA.AperFunction,NonConductor*%
G36*
X187261499Y-100940229D02*
G01*
X187306814Y-100966392D01*
X187434105Y-101000499D01*
X187434106Y-101000500D01*
X187434108Y-101000500D01*
X187565892Y-101000500D01*
X188369312Y-101000500D01*
X188421638Y-101022174D01*
X188443312Y-101074500D01*
X188421638Y-101126826D01*
X188395172Y-101143834D01*
X188187666Y-101221228D01*
X187942788Y-101354942D01*
X187719429Y-101522147D01*
X187522147Y-101719429D01*
X187354942Y-101942788D01*
X187289448Y-102062732D01*
X187245348Y-102098270D01*
X187189035Y-102092215D01*
X187153497Y-102048115D01*
X187150500Y-102027267D01*
X187150500Y-101004315D01*
X187172174Y-100951989D01*
X187224500Y-100930315D01*
X187261499Y-100940229D01*
G37*
%TD.AperFunction*%
%TA.AperFunction,NonConductor*%
G36*
X113406781Y-64422174D02*
G01*
X113428455Y-64474500D01*
X113406781Y-64526826D01*
X112400060Y-65533545D01*
X112353013Y-65555030D01*
X112221711Y-65564421D01*
X112221707Y-65564421D01*
X111949081Y-65623728D01*
X111949062Y-65623733D01*
X111687666Y-65721228D01*
X111442788Y-65854942D01*
X111219429Y-66022147D01*
X111022147Y-66219429D01*
X110854942Y-66442788D01*
X110721228Y-66687666D01*
X110623733Y-66949062D01*
X110623728Y-66949081D01*
X110564421Y-67221708D01*
X110544518Y-67499993D01*
X110544518Y-67500006D01*
X110564421Y-67778291D01*
X110623728Y-68050918D01*
X110623733Y-68050937D01*
X110721228Y-68312333D01*
X110854942Y-68557211D01*
X110924441Y-68650051D01*
X111022145Y-68780568D01*
X111219432Y-68977855D01*
X111364311Y-69086310D01*
X111442788Y-69145057D01*
X111687666Y-69278771D01*
X111895172Y-69356166D01*
X111936625Y-69394759D01*
X111938646Y-69451360D01*
X111900053Y-69492813D01*
X111869312Y-69499500D01*
X110934106Y-69499500D01*
X110806818Y-69533606D01*
X110806809Y-69533610D01*
X110692685Y-69599500D01*
X110599500Y-69692685D01*
X110533610Y-69806809D01*
X110533606Y-69806818D01*
X110499500Y-69934105D01*
X110499500Y-84066910D01*
X110500000Y-84074540D01*
X110500000Y-86418924D01*
X110499811Y-86424203D01*
X110494390Y-86499993D01*
X110494390Y-86500005D01*
X110499811Y-86575794D01*
X110500000Y-86581074D01*
X110500000Y-88925460D01*
X110499500Y-88933097D01*
X110499500Y-100565894D01*
X110533606Y-100693181D01*
X110533607Y-100693184D01*
X110533608Y-100693186D01*
X110599500Y-100807314D01*
X110692686Y-100900500D01*
X110806814Y-100966392D01*
X110934105Y-101000499D01*
X110934106Y-101000500D01*
X110934108Y-101000500D01*
X111869312Y-101000500D01*
X111921638Y-101022174D01*
X111943312Y-101074500D01*
X111921638Y-101126826D01*
X111895172Y-101143834D01*
X111687666Y-101221228D01*
X111442788Y-101354942D01*
X111219429Y-101522147D01*
X111022147Y-101719429D01*
X110854942Y-101942788D01*
X110780198Y-102079670D01*
X110736097Y-102115208D01*
X110679785Y-102109153D01*
X110662924Y-102096531D01*
X109672174Y-101105781D01*
X109650500Y-101053455D01*
X109650500Y-66696545D01*
X109672174Y-66644219D01*
X111894219Y-64422174D01*
X111946545Y-64400500D01*
X113354455Y-64400500D01*
X113406781Y-64422174D01*
G37*
%TD.AperFunction*%
%TA.AperFunction,NonConductor*%
G36*
X183252678Y-104591169D02*
G01*
X183266685Y-104646047D01*
X183245764Y-104687842D01*
X183055781Y-104877826D01*
X183003455Y-104899500D01*
X182881164Y-104899500D01*
X182828838Y-104877826D01*
X182807164Y-104825500D01*
X182828838Y-104773174D01*
X182845699Y-104760552D01*
X183057211Y-104645057D01*
X183057210Y-104645057D01*
X183057213Y-104645056D01*
X183149093Y-104576275D01*
X183203969Y-104562269D01*
X183252678Y-104591169D01*
G37*
%TD.AperFunction*%
%TA.AperFunction,NonConductor*%
G36*
X180126826Y-103578362D02*
G01*
X180143834Y-103604828D01*
X180221228Y-103812333D01*
X180354942Y-104057211D01*
X180361441Y-104065892D01*
X180522145Y-104280568D01*
X180719432Y-104477855D01*
X180870802Y-104591169D01*
X180942788Y-104645057D01*
X181154301Y-104760552D01*
X181189839Y-104804652D01*
X181183784Y-104860965D01*
X181139684Y-104896503D01*
X181118836Y-104899500D01*
X172996545Y-104899500D01*
X172944219Y-104877826D01*
X172903467Y-104837074D01*
X172881793Y-104784748D01*
X172903467Y-104732422D01*
X172920329Y-104719800D01*
X172947358Y-104705041D01*
X173057213Y-104645056D01*
X173280568Y-104477855D01*
X173477855Y-104280568D01*
X173645056Y-104057213D01*
X173778769Y-103812337D01*
X173778769Y-103812335D01*
X173778771Y-103812333D01*
X173856166Y-103604828D01*
X173894759Y-103563375D01*
X173951360Y-103561354D01*
X173992813Y-103599947D01*
X173999500Y-103630688D01*
X173999500Y-104065894D01*
X174033606Y-104193181D01*
X174033610Y-104193190D01*
X174069061Y-104254592D01*
X174099500Y-104307314D01*
X174192686Y-104400500D01*
X174306814Y-104466392D01*
X174434105Y-104500499D01*
X174434106Y-104500500D01*
X174434108Y-104500500D01*
X179565894Y-104500500D01*
X179565894Y-104500499D01*
X179693186Y-104466392D01*
X179807314Y-104400500D01*
X179900500Y-104307314D01*
X179966392Y-104193186D01*
X180000499Y-104065894D01*
X180000500Y-104065894D01*
X180000500Y-103630688D01*
X180022174Y-103578362D01*
X180074500Y-103556688D01*
X180126826Y-103578362D01*
G37*
%TD.AperFunction*%
%TA.AperFunction,NonConductor*%
G36*
X142126826Y-103578362D02*
G01*
X142143834Y-103604828D01*
X142221228Y-103812333D01*
X142354942Y-104057211D01*
X142361441Y-104065892D01*
X142522145Y-104280568D01*
X142719432Y-104477855D01*
X142870802Y-104591169D01*
X142942788Y-104645057D01*
X143154301Y-104760552D01*
X143189839Y-104804652D01*
X143183784Y-104860965D01*
X143139684Y-104896503D01*
X143118836Y-104899500D01*
X134996545Y-104899500D01*
X134944219Y-104877826D01*
X134903467Y-104837074D01*
X134881793Y-104784748D01*
X134903467Y-104732422D01*
X134920329Y-104719800D01*
X134947358Y-104705041D01*
X135057213Y-104645056D01*
X135280568Y-104477855D01*
X135477855Y-104280568D01*
X135645056Y-104057213D01*
X135778769Y-103812337D01*
X135778769Y-103812335D01*
X135778771Y-103812333D01*
X135856166Y-103604828D01*
X135894759Y-103563375D01*
X135951360Y-103561354D01*
X135992813Y-103599947D01*
X135999500Y-103630688D01*
X135999500Y-104065894D01*
X136033606Y-104193181D01*
X136033610Y-104193190D01*
X136069061Y-104254592D01*
X136099500Y-104307314D01*
X136192686Y-104400500D01*
X136306814Y-104466392D01*
X136434105Y-104500499D01*
X136434106Y-104500500D01*
X136434108Y-104500500D01*
X141565894Y-104500500D01*
X141565894Y-104500499D01*
X141693186Y-104466392D01*
X141807314Y-104400500D01*
X141900500Y-104307314D01*
X141966392Y-104193186D01*
X142000499Y-104065894D01*
X142000500Y-104065894D01*
X142000500Y-103630688D01*
X142022174Y-103578362D01*
X142074500Y-103556688D01*
X142126826Y-103578362D01*
G37*
%TD.AperFunction*%
%TA.AperFunction,NonConductor*%
G36*
X147062444Y-61511666D02*
G01*
X147089144Y-61561615D01*
X147089500Y-61568870D01*
X147089500Y-61687273D01*
X147089500Y-61792727D01*
X147108108Y-61862174D01*
X147116793Y-61894588D01*
X147116795Y-61894592D01*
X147169517Y-61985909D01*
X147169518Y-61985910D01*
X147169520Y-61985913D01*
X147877826Y-62694219D01*
X147899500Y-62746544D01*
X147899500Y-100747273D01*
X147899500Y-100852727D01*
X147913509Y-100905011D01*
X147926793Y-100954588D01*
X147926795Y-100954592D01*
X147979517Y-101045909D01*
X147979518Y-101045910D01*
X147979520Y-101045913D01*
X148429516Y-101495909D01*
X148823349Y-101889742D01*
X148845023Y-101942068D01*
X148835971Y-101977533D01*
X148721228Y-102187666D01*
X148623733Y-102449062D01*
X148623728Y-102449081D01*
X148564421Y-102721708D01*
X148544518Y-102999993D01*
X148544518Y-103000006D01*
X148564421Y-103278291D01*
X148623728Y-103550918D01*
X148623733Y-103550937D01*
X148721228Y-103812333D01*
X148854942Y-104057211D01*
X148861441Y-104065892D01*
X149022145Y-104280568D01*
X149219432Y-104477855D01*
X149370802Y-104591169D01*
X149442788Y-104645057D01*
X149687666Y-104778771D01*
X149949062Y-104876266D01*
X149949067Y-104876267D01*
X149949077Y-104876271D01*
X150221706Y-104935578D01*
X150283549Y-104940001D01*
X150499993Y-104955482D01*
X150500000Y-104955482D01*
X150500007Y-104955482D01*
X150694805Y-104941549D01*
X150778294Y-104935578D01*
X151050923Y-104876271D01*
X151050934Y-104876266D01*
X151050937Y-104876266D01*
X151312333Y-104778771D01*
X151333570Y-104767175D01*
X151557213Y-104645056D01*
X151780568Y-104477855D01*
X151977855Y-104280568D01*
X152145056Y-104057213D01*
X152278769Y-103812337D01*
X152278769Y-103812335D01*
X152278771Y-103812333D01*
X152356166Y-103604828D01*
X152394759Y-103563375D01*
X152451360Y-103561354D01*
X152492813Y-103599947D01*
X152499500Y-103630688D01*
X152499500Y-104065894D01*
X152533606Y-104193181D01*
X152533610Y-104193190D01*
X152569061Y-104254592D01*
X152599500Y-104307314D01*
X152692686Y-104400500D01*
X152806814Y-104466392D01*
X152934105Y-104500499D01*
X152934106Y-104500500D01*
X152934108Y-104500500D01*
X158065894Y-104500500D01*
X158065894Y-104500499D01*
X158193186Y-104466392D01*
X158307314Y-104400500D01*
X158400500Y-104307314D01*
X158466392Y-104193186D01*
X158500499Y-104065894D01*
X158500500Y-104065894D01*
X158500500Y-103630688D01*
X158522174Y-103578362D01*
X158574500Y-103556688D01*
X158626826Y-103578362D01*
X158643834Y-103604828D01*
X158721228Y-103812333D01*
X158854942Y-104057211D01*
X158861441Y-104065892D01*
X159022145Y-104280568D01*
X159219432Y-104477855D01*
X159370802Y-104591169D01*
X159442788Y-104645057D01*
X159687666Y-104778771D01*
X159949062Y-104876266D01*
X159949067Y-104876267D01*
X159949077Y-104876271D01*
X160221706Y-104935578D01*
X160283549Y-104940001D01*
X160499993Y-104955482D01*
X160500000Y-104955482D01*
X160500007Y-104955482D01*
X160694805Y-104941549D01*
X160778294Y-104935578D01*
X161050923Y-104876271D01*
X161050934Y-104876266D01*
X161050937Y-104876266D01*
X161312333Y-104778771D01*
X161333570Y-104767175D01*
X161557213Y-104645056D01*
X161780568Y-104477855D01*
X161977855Y-104280568D01*
X162145056Y-104057213D01*
X162278769Y-103812337D01*
X162278769Y-103812335D01*
X162278771Y-103812333D01*
X162376266Y-103550937D01*
X162376266Y-103550934D01*
X162376271Y-103550923D01*
X162435165Y-103280190D01*
X162467467Y-103233668D01*
X162523204Y-103223612D01*
X162569727Y-103255914D01*
X162571560Y-103258921D01*
X162582745Y-103278294D01*
X162599500Y-103307314D01*
X162692686Y-103400500D01*
X162806814Y-103466392D01*
X162934105Y-103500499D01*
X162934106Y-103500500D01*
X162934108Y-103500500D01*
X169565894Y-103500500D01*
X169565894Y-103500499D01*
X169693186Y-103466392D01*
X169807314Y-103400500D01*
X169900500Y-103307314D01*
X169928439Y-103258921D01*
X169973372Y-103224443D01*
X170029524Y-103231835D01*
X170064003Y-103276768D01*
X170064834Y-103280191D01*
X170123728Y-103550918D01*
X170123733Y-103550937D01*
X170221228Y-103812333D01*
X170354942Y-104057211D01*
X170361441Y-104065892D01*
X170522145Y-104280568D01*
X170719432Y-104477855D01*
X170870802Y-104591169D01*
X170942788Y-104645057D01*
X171187666Y-104778771D01*
X171449062Y-104876266D01*
X171449067Y-104876267D01*
X171449077Y-104876271D01*
X171721706Y-104935578D01*
X171853014Y-104944969D01*
X171900061Y-104966454D01*
X172306781Y-105373174D01*
X172328455Y-105425500D01*
X172306781Y-105477826D01*
X172254455Y-105499500D01*
X145545545Y-105499500D01*
X145493219Y-105477826D01*
X145471545Y-105425500D01*
X145493219Y-105373174D01*
X146520480Y-104345913D01*
X146573207Y-104254588D01*
X146600500Y-104152727D01*
X146600500Y-104047273D01*
X146600500Y-63147273D01*
X146573207Y-63045413D01*
X146573207Y-63045412D01*
X146520482Y-62954090D01*
X146520481Y-62954089D01*
X146520480Y-62954087D01*
X145372174Y-61805781D01*
X145350500Y-61753455D01*
X145350500Y-61608266D01*
X145372174Y-61555940D01*
X145424500Y-61534266D01*
X145471444Y-61551062D01*
X145613550Y-61667685D01*
X145796046Y-61765232D01*
X145994066Y-61825300D01*
X146200000Y-61845583D01*
X146405934Y-61825300D01*
X146603954Y-61765232D01*
X146786450Y-61667685D01*
X146946410Y-61536410D01*
X146958297Y-61521925D01*
X147008245Y-61495226D01*
X147062444Y-61511666D01*
G37*
%TD.AperFunction*%
M02*
