%TF.GenerationSoftware,KiCad,Pcbnew,8.0.1*%
%TF.CreationDate,2024-05-16T15:44:09-04:00*%
%TF.ProjectId,UpperPOGO,55707065-7250-44f4-974f-2e6b69636164,rev?*%
%TF.SameCoordinates,Original*%
%TF.FileFunction,Legend,Bot*%
%TF.FilePolarity,Positive*%
%FSLAX46Y46*%
G04 Gerber Fmt 4.6, Leading zero omitted, Abs format (unit mm)*
G04 Created by KiCad (PCBNEW 8.0.1) date 2024-05-16 15:44:09*
%MOMM*%
%LPD*%
G01*
G04 APERTURE LIST*
%ADD10C,0.150000*%
G04 APERTURE END LIST*
D10*
X156413220Y-51509875D02*
X156413220Y-52319398D01*
X156413220Y-52319398D02*
X156365601Y-52414636D01*
X156365601Y-52414636D02*
X156317982Y-52462256D01*
X156317982Y-52462256D02*
X156222744Y-52509875D01*
X156222744Y-52509875D02*
X156032268Y-52509875D01*
X156032268Y-52509875D02*
X155937030Y-52462256D01*
X155937030Y-52462256D02*
X155889411Y-52414636D01*
X155889411Y-52414636D02*
X155841792Y-52319398D01*
X155841792Y-52319398D02*
X155841792Y-51509875D01*
X155365601Y-51843208D02*
X155365601Y-52843208D01*
X155365601Y-51890827D02*
X155270363Y-51843208D01*
X155270363Y-51843208D02*
X155079887Y-51843208D01*
X155079887Y-51843208D02*
X154984649Y-51890827D01*
X154984649Y-51890827D02*
X154937030Y-51938446D01*
X154937030Y-51938446D02*
X154889411Y-52033684D01*
X154889411Y-52033684D02*
X154889411Y-52319398D01*
X154889411Y-52319398D02*
X154937030Y-52414636D01*
X154937030Y-52414636D02*
X154984649Y-52462256D01*
X154984649Y-52462256D02*
X155079887Y-52509875D01*
X155079887Y-52509875D02*
X155270363Y-52509875D01*
X155270363Y-52509875D02*
X155365601Y-52462256D01*
X154460839Y-51843208D02*
X154460839Y-52843208D01*
X154460839Y-51890827D02*
X154365601Y-51843208D01*
X154365601Y-51843208D02*
X154175125Y-51843208D01*
X154175125Y-51843208D02*
X154079887Y-51890827D01*
X154079887Y-51890827D02*
X154032268Y-51938446D01*
X154032268Y-51938446D02*
X153984649Y-52033684D01*
X153984649Y-52033684D02*
X153984649Y-52319398D01*
X153984649Y-52319398D02*
X154032268Y-52414636D01*
X154032268Y-52414636D02*
X154079887Y-52462256D01*
X154079887Y-52462256D02*
X154175125Y-52509875D01*
X154175125Y-52509875D02*
X154365601Y-52509875D01*
X154365601Y-52509875D02*
X154460839Y-52462256D01*
X153175125Y-52462256D02*
X153270363Y-52509875D01*
X153270363Y-52509875D02*
X153460839Y-52509875D01*
X153460839Y-52509875D02*
X153556077Y-52462256D01*
X153556077Y-52462256D02*
X153603696Y-52367017D01*
X153603696Y-52367017D02*
X153603696Y-51986065D01*
X153603696Y-51986065D02*
X153556077Y-51890827D01*
X153556077Y-51890827D02*
X153460839Y-51843208D01*
X153460839Y-51843208D02*
X153270363Y-51843208D01*
X153270363Y-51843208D02*
X153175125Y-51890827D01*
X153175125Y-51890827D02*
X153127506Y-51986065D01*
X153127506Y-51986065D02*
X153127506Y-52081303D01*
X153127506Y-52081303D02*
X153603696Y-52176541D01*
X152698934Y-52509875D02*
X152698934Y-51843208D01*
X152698934Y-52033684D02*
X152651315Y-51938446D01*
X152651315Y-51938446D02*
X152603696Y-51890827D01*
X152603696Y-51890827D02*
X152508458Y-51843208D01*
X152508458Y-51843208D02*
X152413220Y-51843208D01*
X151317981Y-52509875D02*
X151317981Y-51509875D01*
X151317981Y-51509875D02*
X150937029Y-51509875D01*
X150937029Y-51509875D02*
X150841791Y-51557494D01*
X150841791Y-51557494D02*
X150794172Y-51605113D01*
X150794172Y-51605113D02*
X150746553Y-51700351D01*
X150746553Y-51700351D02*
X150746553Y-51843208D01*
X150746553Y-51843208D02*
X150794172Y-51938446D01*
X150794172Y-51938446D02*
X150841791Y-51986065D01*
X150841791Y-51986065D02*
X150937029Y-52033684D01*
X150937029Y-52033684D02*
X151317981Y-52033684D01*
X150127505Y-51509875D02*
X149937029Y-51509875D01*
X149937029Y-51509875D02*
X149841791Y-51557494D01*
X149841791Y-51557494D02*
X149746553Y-51652732D01*
X149746553Y-51652732D02*
X149698934Y-51843208D01*
X149698934Y-51843208D02*
X149698934Y-52176541D01*
X149698934Y-52176541D02*
X149746553Y-52367017D01*
X149746553Y-52367017D02*
X149841791Y-52462256D01*
X149841791Y-52462256D02*
X149937029Y-52509875D01*
X149937029Y-52509875D02*
X150127505Y-52509875D01*
X150127505Y-52509875D02*
X150222743Y-52462256D01*
X150222743Y-52462256D02*
X150317981Y-52367017D01*
X150317981Y-52367017D02*
X150365600Y-52176541D01*
X150365600Y-52176541D02*
X150365600Y-51843208D01*
X150365600Y-51843208D02*
X150317981Y-51652732D01*
X150317981Y-51652732D02*
X150222743Y-51557494D01*
X150222743Y-51557494D02*
X150127505Y-51509875D01*
X148746553Y-51557494D02*
X148841791Y-51509875D01*
X148841791Y-51509875D02*
X148984648Y-51509875D01*
X148984648Y-51509875D02*
X149127505Y-51557494D01*
X149127505Y-51557494D02*
X149222743Y-51652732D01*
X149222743Y-51652732D02*
X149270362Y-51747970D01*
X149270362Y-51747970D02*
X149317981Y-51938446D01*
X149317981Y-51938446D02*
X149317981Y-52081303D01*
X149317981Y-52081303D02*
X149270362Y-52271779D01*
X149270362Y-52271779D02*
X149222743Y-52367017D01*
X149222743Y-52367017D02*
X149127505Y-52462256D01*
X149127505Y-52462256D02*
X148984648Y-52509875D01*
X148984648Y-52509875D02*
X148889410Y-52509875D01*
X148889410Y-52509875D02*
X148746553Y-52462256D01*
X148746553Y-52462256D02*
X148698934Y-52414636D01*
X148698934Y-52414636D02*
X148698934Y-52081303D01*
X148698934Y-52081303D02*
X148889410Y-52081303D01*
X148079886Y-51509875D02*
X147889410Y-51509875D01*
X147889410Y-51509875D02*
X147794172Y-51557494D01*
X147794172Y-51557494D02*
X147698934Y-51652732D01*
X147698934Y-51652732D02*
X147651315Y-51843208D01*
X147651315Y-51843208D02*
X147651315Y-52176541D01*
X147651315Y-52176541D02*
X147698934Y-52367017D01*
X147698934Y-52367017D02*
X147794172Y-52462256D01*
X147794172Y-52462256D02*
X147889410Y-52509875D01*
X147889410Y-52509875D02*
X148079886Y-52509875D01*
X148079886Y-52509875D02*
X148175124Y-52462256D01*
X148175124Y-52462256D02*
X148270362Y-52367017D01*
X148270362Y-52367017D02*
X148317981Y-52176541D01*
X148317981Y-52176541D02*
X148317981Y-51843208D01*
X148317981Y-51843208D02*
X148270362Y-51652732D01*
X148270362Y-51652732D02*
X148175124Y-51557494D01*
X148175124Y-51557494D02*
X148079886Y-51509875D01*
X146460838Y-52509875D02*
X146460838Y-51509875D01*
X146460838Y-51509875D02*
X146222743Y-51509875D01*
X146222743Y-51509875D02*
X146079886Y-51557494D01*
X146079886Y-51557494D02*
X145984648Y-51652732D01*
X145984648Y-51652732D02*
X145937029Y-51747970D01*
X145937029Y-51747970D02*
X145889410Y-51938446D01*
X145889410Y-51938446D02*
X145889410Y-52081303D01*
X145889410Y-52081303D02*
X145937029Y-52271779D01*
X145937029Y-52271779D02*
X145984648Y-52367017D01*
X145984648Y-52367017D02*
X146079886Y-52462256D01*
X146079886Y-52462256D02*
X146222743Y-52509875D01*
X146222743Y-52509875D02*
X146460838Y-52509875D01*
X145079886Y-52462256D02*
X145175124Y-52509875D01*
X145175124Y-52509875D02*
X145365600Y-52509875D01*
X145365600Y-52509875D02*
X145460838Y-52462256D01*
X145460838Y-52462256D02*
X145508457Y-52367017D01*
X145508457Y-52367017D02*
X145508457Y-51986065D01*
X145508457Y-51986065D02*
X145460838Y-51890827D01*
X145460838Y-51890827D02*
X145365600Y-51843208D01*
X145365600Y-51843208D02*
X145175124Y-51843208D01*
X145175124Y-51843208D02*
X145079886Y-51890827D01*
X145079886Y-51890827D02*
X145032267Y-51986065D01*
X145032267Y-51986065D02*
X145032267Y-52081303D01*
X145032267Y-52081303D02*
X145508457Y-52176541D01*
X144651314Y-52462256D02*
X144556076Y-52509875D01*
X144556076Y-52509875D02*
X144365600Y-52509875D01*
X144365600Y-52509875D02*
X144270362Y-52462256D01*
X144270362Y-52462256D02*
X144222743Y-52367017D01*
X144222743Y-52367017D02*
X144222743Y-52319398D01*
X144222743Y-52319398D02*
X144270362Y-52224160D01*
X144270362Y-52224160D02*
X144365600Y-52176541D01*
X144365600Y-52176541D02*
X144508457Y-52176541D01*
X144508457Y-52176541D02*
X144603695Y-52128922D01*
X144603695Y-52128922D02*
X144651314Y-52033684D01*
X144651314Y-52033684D02*
X144651314Y-51986065D01*
X144651314Y-51986065D02*
X144603695Y-51890827D01*
X144603695Y-51890827D02*
X144508457Y-51843208D01*
X144508457Y-51843208D02*
X144365600Y-51843208D01*
X144365600Y-51843208D02*
X144270362Y-51890827D01*
X143794171Y-52509875D02*
X143794171Y-51843208D01*
X143794171Y-51509875D02*
X143841790Y-51557494D01*
X143841790Y-51557494D02*
X143794171Y-51605113D01*
X143794171Y-51605113D02*
X143746552Y-51557494D01*
X143746552Y-51557494D02*
X143794171Y-51509875D01*
X143794171Y-51509875D02*
X143794171Y-51605113D01*
X142889410Y-51843208D02*
X142889410Y-52652732D01*
X142889410Y-52652732D02*
X142937029Y-52747970D01*
X142937029Y-52747970D02*
X142984648Y-52795589D01*
X142984648Y-52795589D02*
X143079886Y-52843208D01*
X143079886Y-52843208D02*
X143222743Y-52843208D01*
X143222743Y-52843208D02*
X143317981Y-52795589D01*
X142889410Y-52462256D02*
X142984648Y-52509875D01*
X142984648Y-52509875D02*
X143175124Y-52509875D01*
X143175124Y-52509875D02*
X143270362Y-52462256D01*
X143270362Y-52462256D02*
X143317981Y-52414636D01*
X143317981Y-52414636D02*
X143365600Y-52319398D01*
X143365600Y-52319398D02*
X143365600Y-52033684D01*
X143365600Y-52033684D02*
X143317981Y-51938446D01*
X143317981Y-51938446D02*
X143270362Y-51890827D01*
X143270362Y-51890827D02*
X143175124Y-51843208D01*
X143175124Y-51843208D02*
X142984648Y-51843208D01*
X142984648Y-51843208D02*
X142889410Y-51890827D01*
X142413219Y-51843208D02*
X142413219Y-52509875D01*
X142413219Y-51938446D02*
X142365600Y-51890827D01*
X142365600Y-51890827D02*
X142270362Y-51843208D01*
X142270362Y-51843208D02*
X142127505Y-51843208D01*
X142127505Y-51843208D02*
X142032267Y-51890827D01*
X142032267Y-51890827D02*
X141984648Y-51986065D01*
X141984648Y-51986065D02*
X141984648Y-52509875D01*
X140841790Y-51843208D02*
X140603695Y-52509875D01*
X140603695Y-52509875D02*
X140365600Y-51843208D01*
X140079885Y-51509875D02*
X139460838Y-51509875D01*
X139460838Y-51509875D02*
X139794171Y-51890827D01*
X139794171Y-51890827D02*
X139651314Y-51890827D01*
X139651314Y-51890827D02*
X139556076Y-51938446D01*
X139556076Y-51938446D02*
X139508457Y-51986065D01*
X139508457Y-51986065D02*
X139460838Y-52081303D01*
X139460838Y-52081303D02*
X139460838Y-52319398D01*
X139460838Y-52319398D02*
X139508457Y-52414636D01*
X139508457Y-52414636D02*
X139556076Y-52462256D01*
X139556076Y-52462256D02*
X139651314Y-52509875D01*
X139651314Y-52509875D02*
X139937028Y-52509875D01*
X139937028Y-52509875D02*
X140032266Y-52462256D01*
X140032266Y-52462256D02*
X140079885Y-52414636D01*
X155746554Y-54215057D02*
X155841792Y-54167438D01*
X155841792Y-54167438D02*
X155937030Y-54072200D01*
X155937030Y-54072200D02*
X156079887Y-53929342D01*
X156079887Y-53929342D02*
X156175125Y-53881723D01*
X156175125Y-53881723D02*
X156270363Y-53881723D01*
X156222744Y-54119819D02*
X156317982Y-54072200D01*
X156317982Y-54072200D02*
X156413220Y-53976961D01*
X156413220Y-53976961D02*
X156460839Y-53786485D01*
X156460839Y-53786485D02*
X156460839Y-53453152D01*
X156460839Y-53453152D02*
X156413220Y-53262676D01*
X156413220Y-53262676D02*
X156317982Y-53167438D01*
X156317982Y-53167438D02*
X156222744Y-53119819D01*
X156222744Y-53119819D02*
X156032268Y-53119819D01*
X156032268Y-53119819D02*
X155937030Y-53167438D01*
X155937030Y-53167438D02*
X155841792Y-53262676D01*
X155841792Y-53262676D02*
X155794173Y-53453152D01*
X155794173Y-53453152D02*
X155794173Y-53786485D01*
X155794173Y-53786485D02*
X155841792Y-53976961D01*
X155841792Y-53976961D02*
X155937030Y-54072200D01*
X155937030Y-54072200D02*
X156032268Y-54119819D01*
X156032268Y-54119819D02*
X156222744Y-54119819D01*
X155413220Y-53834104D02*
X154937030Y-53834104D01*
X155508458Y-54119819D02*
X155175125Y-53119819D01*
X155175125Y-53119819D02*
X154841792Y-54119819D01*
X154651315Y-53119819D02*
X154079887Y-53119819D01*
X154365601Y-54119819D02*
X154365601Y-53119819D01*
X153175125Y-54024580D02*
X153222744Y-54072200D01*
X153222744Y-54072200D02*
X153365601Y-54119819D01*
X153365601Y-54119819D02*
X153460839Y-54119819D01*
X153460839Y-54119819D02*
X153603696Y-54072200D01*
X153603696Y-54072200D02*
X153698934Y-53976961D01*
X153698934Y-53976961D02*
X153746553Y-53881723D01*
X153746553Y-53881723D02*
X153794172Y-53691247D01*
X153794172Y-53691247D02*
X153794172Y-53548390D01*
X153794172Y-53548390D02*
X153746553Y-53357914D01*
X153746553Y-53357914D02*
X153698934Y-53262676D01*
X153698934Y-53262676D02*
X153603696Y-53167438D01*
X153603696Y-53167438D02*
X153460839Y-53119819D01*
X153460839Y-53119819D02*
X153365601Y-53119819D01*
X153365601Y-53119819D02*
X153222744Y-53167438D01*
X153222744Y-53167438D02*
X153175125Y-53215057D01*
X152746553Y-54119819D02*
X152746553Y-53119819D01*
X152746553Y-53596009D02*
X152175125Y-53596009D01*
X152175125Y-54119819D02*
X152175125Y-53119819D01*
X151079886Y-53119819D02*
X150508458Y-53119819D01*
X150794172Y-54119819D02*
X150794172Y-53119819D01*
X149794172Y-54072200D02*
X149889410Y-54119819D01*
X149889410Y-54119819D02*
X150079886Y-54119819D01*
X150079886Y-54119819D02*
X150175124Y-54072200D01*
X150175124Y-54072200D02*
X150222743Y-53976961D01*
X150222743Y-53976961D02*
X150222743Y-53596009D01*
X150222743Y-53596009D02*
X150175124Y-53500771D01*
X150175124Y-53500771D02*
X150079886Y-53453152D01*
X150079886Y-53453152D02*
X149889410Y-53453152D01*
X149889410Y-53453152D02*
X149794172Y-53500771D01*
X149794172Y-53500771D02*
X149746553Y-53596009D01*
X149746553Y-53596009D02*
X149746553Y-53691247D01*
X149746553Y-53691247D02*
X150222743Y-53786485D01*
X148889410Y-54072200D02*
X148984648Y-54119819D01*
X148984648Y-54119819D02*
X149175124Y-54119819D01*
X149175124Y-54119819D02*
X149270362Y-54072200D01*
X149270362Y-54072200D02*
X149317981Y-54024580D01*
X149317981Y-54024580D02*
X149365600Y-53929342D01*
X149365600Y-53929342D02*
X149365600Y-53643628D01*
X149365600Y-53643628D02*
X149317981Y-53548390D01*
X149317981Y-53548390D02*
X149270362Y-53500771D01*
X149270362Y-53500771D02*
X149175124Y-53453152D01*
X149175124Y-53453152D02*
X148984648Y-53453152D01*
X148984648Y-53453152D02*
X148889410Y-53500771D01*
X148460838Y-54119819D02*
X148460838Y-53119819D01*
X148032267Y-54119819D02*
X148032267Y-53596009D01*
X148032267Y-53596009D02*
X148079886Y-53500771D01*
X148079886Y-53500771D02*
X148175124Y-53453152D01*
X148175124Y-53453152D02*
X148317981Y-53453152D01*
X148317981Y-53453152D02*
X148413219Y-53500771D01*
X148413219Y-53500771D02*
X148460838Y-53548390D01*
X147556076Y-53453152D02*
X147556076Y-54119819D01*
X147556076Y-53548390D02*
X147508457Y-53500771D01*
X147508457Y-53500771D02*
X147413219Y-53453152D01*
X147413219Y-53453152D02*
X147270362Y-53453152D01*
X147270362Y-53453152D02*
X147175124Y-53500771D01*
X147175124Y-53500771D02*
X147127505Y-53596009D01*
X147127505Y-53596009D02*
X147127505Y-54119819D01*
X146508457Y-54119819D02*
X146603695Y-54072200D01*
X146603695Y-54072200D02*
X146651314Y-54024580D01*
X146651314Y-54024580D02*
X146698933Y-53929342D01*
X146698933Y-53929342D02*
X146698933Y-53643628D01*
X146698933Y-53643628D02*
X146651314Y-53548390D01*
X146651314Y-53548390D02*
X146603695Y-53500771D01*
X146603695Y-53500771D02*
X146508457Y-53453152D01*
X146508457Y-53453152D02*
X146365600Y-53453152D01*
X146365600Y-53453152D02*
X146270362Y-53500771D01*
X146270362Y-53500771D02*
X146222743Y-53548390D01*
X146222743Y-53548390D02*
X146175124Y-53643628D01*
X146175124Y-53643628D02*
X146175124Y-53929342D01*
X146175124Y-53929342D02*
X146222743Y-54024580D01*
X146222743Y-54024580D02*
X146270362Y-54072200D01*
X146270362Y-54072200D02*
X146365600Y-54119819D01*
X146365600Y-54119819D02*
X146508457Y-54119819D01*
X145603695Y-54119819D02*
X145698933Y-54072200D01*
X145698933Y-54072200D02*
X145746552Y-53976961D01*
X145746552Y-53976961D02*
X145746552Y-53119819D01*
X145079885Y-54119819D02*
X145175123Y-54072200D01*
X145175123Y-54072200D02*
X145222742Y-54024580D01*
X145222742Y-54024580D02*
X145270361Y-53929342D01*
X145270361Y-53929342D02*
X145270361Y-53643628D01*
X145270361Y-53643628D02*
X145222742Y-53548390D01*
X145222742Y-53548390D02*
X145175123Y-53500771D01*
X145175123Y-53500771D02*
X145079885Y-53453152D01*
X145079885Y-53453152D02*
X144937028Y-53453152D01*
X144937028Y-53453152D02*
X144841790Y-53500771D01*
X144841790Y-53500771D02*
X144794171Y-53548390D01*
X144794171Y-53548390D02*
X144746552Y-53643628D01*
X144746552Y-53643628D02*
X144746552Y-53929342D01*
X144746552Y-53929342D02*
X144794171Y-54024580D01*
X144794171Y-54024580D02*
X144841790Y-54072200D01*
X144841790Y-54072200D02*
X144937028Y-54119819D01*
X144937028Y-54119819D02*
X145079885Y-54119819D01*
X143889409Y-53453152D02*
X143889409Y-54262676D01*
X143889409Y-54262676D02*
X143937028Y-54357914D01*
X143937028Y-54357914D02*
X143984647Y-54405533D01*
X143984647Y-54405533D02*
X144079885Y-54453152D01*
X144079885Y-54453152D02*
X144222742Y-54453152D01*
X144222742Y-54453152D02*
X144317980Y-54405533D01*
X143889409Y-54072200D02*
X143984647Y-54119819D01*
X143984647Y-54119819D02*
X144175123Y-54119819D01*
X144175123Y-54119819D02*
X144270361Y-54072200D01*
X144270361Y-54072200D02*
X144317980Y-54024580D01*
X144317980Y-54024580D02*
X144365599Y-53929342D01*
X144365599Y-53929342D02*
X144365599Y-53643628D01*
X144365599Y-53643628D02*
X144317980Y-53548390D01*
X144317980Y-53548390D02*
X144270361Y-53500771D01*
X144270361Y-53500771D02*
X144175123Y-53453152D01*
X144175123Y-53453152D02*
X143984647Y-53453152D01*
X143984647Y-53453152D02*
X143889409Y-53500771D01*
X143413218Y-54119819D02*
X143413218Y-53453152D01*
X143413218Y-53119819D02*
X143460837Y-53167438D01*
X143460837Y-53167438D02*
X143413218Y-53215057D01*
X143413218Y-53215057D02*
X143365599Y-53167438D01*
X143365599Y-53167438D02*
X143413218Y-53119819D01*
X143413218Y-53119819D02*
X143413218Y-53215057D01*
X142556076Y-54072200D02*
X142651314Y-54119819D01*
X142651314Y-54119819D02*
X142841790Y-54119819D01*
X142841790Y-54119819D02*
X142937028Y-54072200D01*
X142937028Y-54072200D02*
X142984647Y-53976961D01*
X142984647Y-53976961D02*
X142984647Y-53596009D01*
X142984647Y-53596009D02*
X142937028Y-53500771D01*
X142937028Y-53500771D02*
X142841790Y-53453152D01*
X142841790Y-53453152D02*
X142651314Y-53453152D01*
X142651314Y-53453152D02*
X142556076Y-53500771D01*
X142556076Y-53500771D02*
X142508457Y-53596009D01*
X142508457Y-53596009D02*
X142508457Y-53691247D01*
X142508457Y-53691247D02*
X142984647Y-53786485D01*
X142127504Y-54072200D02*
X142032266Y-54119819D01*
X142032266Y-54119819D02*
X141841790Y-54119819D01*
X141841790Y-54119819D02*
X141746552Y-54072200D01*
X141746552Y-54072200D02*
X141698933Y-53976961D01*
X141698933Y-53976961D02*
X141698933Y-53929342D01*
X141698933Y-53929342D02*
X141746552Y-53834104D01*
X141746552Y-53834104D02*
X141841790Y-53786485D01*
X141841790Y-53786485D02*
X141984647Y-53786485D01*
X141984647Y-53786485D02*
X142079885Y-53738866D01*
X142079885Y-53738866D02*
X142127504Y-53643628D01*
X142127504Y-53643628D02*
X142127504Y-53596009D01*
X142127504Y-53596009D02*
X142079885Y-53500771D01*
X142079885Y-53500771D02*
X141984647Y-53453152D01*
X141984647Y-53453152D02*
X141841790Y-53453152D01*
X141841790Y-53453152D02*
X141746552Y-53500771D01*
X140032266Y-54119819D02*
X140508456Y-54119819D01*
X140508456Y-54119819D02*
X140508456Y-53119819D01*
X139222742Y-54119819D02*
X139698932Y-54119819D01*
X139698932Y-54119819D02*
X139698932Y-53119819D01*
X138317980Y-54024580D02*
X138365599Y-54072200D01*
X138365599Y-54072200D02*
X138508456Y-54119819D01*
X138508456Y-54119819D02*
X138603694Y-54119819D01*
X138603694Y-54119819D02*
X138746551Y-54072200D01*
X138746551Y-54072200D02*
X138841789Y-53976961D01*
X138841789Y-53976961D02*
X138889408Y-53881723D01*
X138889408Y-53881723D02*
X138937027Y-53691247D01*
X138937027Y-53691247D02*
X138937027Y-53548390D01*
X138937027Y-53548390D02*
X138889408Y-53357914D01*
X138889408Y-53357914D02*
X138841789Y-53262676D01*
X138841789Y-53262676D02*
X138746551Y-53167438D01*
X138746551Y-53167438D02*
X138603694Y-53119819D01*
X138603694Y-53119819D02*
X138508456Y-53119819D01*
X138508456Y-53119819D02*
X138365599Y-53167438D01*
X138365599Y-53167438D02*
X138317980Y-53215057D01*
M02*
