%TF.GenerationSoftware,KiCad,Pcbnew,8.0.4*%
%TF.CreationDate,2024-08-25T20:41:52-04:00*%
%TF.ProjectId,UpperPOGO,55707065-7250-44f4-974f-2e6b69636164,v4*%
%TF.SameCoordinates,Original*%
%TF.FileFunction,Copper,L2,Bot*%
%TF.FilePolarity,Positive*%
%FSLAX46Y46*%
G04 Gerber Fmt 4.6, Leading zero omitted, Abs format (unit mm)*
G04 Created by KiCad (PCBNEW 8.0.4) date 2024-08-25 20:41:52*
%MOMM*%
%LPD*%
G01*
G04 APERTURE LIST*
%TA.AperFunction,ComponentPad*%
%ADD10C,3.250000*%
%TD*%
%TA.AperFunction,ComponentPad*%
%ADD11C,3.600000*%
%TD*%
%TA.AperFunction,ConnectorPad*%
%ADD12C,5.600000*%
%TD*%
%TA.AperFunction,ComponentPad*%
%ADD13O,1.700000X1.700000*%
%TD*%
%TA.AperFunction,ComponentPad*%
%ADD14R,1.700000X1.700000*%
%TD*%
%TA.AperFunction,Conductor*%
%ADD15C,0.400000*%
%TD*%
G04 APERTURE END LIST*
D10*
%TO.P,J20,1,Pin_1*%
%TO.N,Net-(J20-Pin_1)*%
X187500000Y-67500000D03*
%TD*%
%TO.P,J15,1,Pin_1*%
%TO.N,Net-(J15-Pin_1)*%
X122000000Y-67500000D03*
%TD*%
%TO.P,J16,1,Pin_1*%
%TO.N,Net-(J16-Pin_1)*%
X112000000Y-67500000D03*
%TD*%
%TO.P,J18,1,Pin_1*%
%TO.N,Net-(J18-Pin_1)*%
X94500000Y-67500000D03*
%TD*%
%TO.P,J24,1,Pin_1*%
%TO.N,Net-(J24-Pin_1)*%
X149750000Y-67500000D03*
%TD*%
%TO.P,J13,1,Pin_1*%
%TO.N,Net-(J13-Pin_1)*%
X142250000Y-67500000D03*
%TD*%
%TO.P,J5,1,Pin_1*%
%TO.N,Net-(J25-Pin_5)*%
X132250000Y-103000000D03*
%TD*%
%TO.P,J4,1,Pin_1*%
%TO.N,Net-(J25-Pin_4)*%
X122000000Y-103000000D03*
%TD*%
D11*
%TO.P,H1,1,1*%
%TO.N,Earth*%
X86500000Y-66000000D03*
D12*
X86500000Y-66000000D03*
%TD*%
D11*
%TO.P,H3,1,1*%
%TO.N,Earth*%
X86500000Y-101500000D03*
D12*
X86500000Y-101500000D03*
%TD*%
D10*
%TO.P,J10,1,Pin_1*%
%TO.N,Net-(J10-Pin_1)*%
X180000000Y-103000000D03*
%TD*%
D11*
%TO.P,H4,1,1*%
%TO.N,Earth*%
X205500000Y-101500000D03*
D12*
X205500000Y-101500000D03*
%TD*%
D10*
%TO.P,J11,1,Pin_1*%
%TO.N,Net-(J11-Pin_1)*%
X187500000Y-103000000D03*
%TD*%
%TO.P,J9,1,Pin_1*%
%TO.N,Net-(J25-Pin_9)*%
X170000000Y-103000000D03*
%TD*%
D11*
%TO.P,H2,1,1*%
%TO.N,Earth*%
X205500000Y-66000000D03*
D12*
X205500000Y-66000000D03*
%TD*%
D10*
%TO.P,J1,1,Pin_1*%
%TO.N,Net-(J1-Pin_1)*%
X94500000Y-103000000D03*
%TD*%
%TO.P,J14,1,Pin_1*%
%TO.N,Net-(J14-Pin_1)*%
X132250000Y-67500000D03*
%TD*%
%TO.P,J19,1,Pin_1*%
%TO.N,Net-(J19-Pin_1)*%
X197500000Y-67500000D03*
%TD*%
%TO.P,J21,1,Pin_1*%
%TO.N,Net-(J21-Pin_1)*%
X180000000Y-67500000D03*
%TD*%
%TO.P,J2,1,Pin_1*%
%TO.N,Net-(J2-Pin_1)*%
X104500000Y-103000000D03*
%TD*%
%TO.P,J12,1,Pin_1*%
%TO.N,Net-(J12-Pin_1)*%
X197500000Y-103000000D03*
%TD*%
%TO.P,J23,1,Pin_1*%
%TO.N,Net-(J23-Pin_1)*%
X159750000Y-67500000D03*
%TD*%
%TO.P,J8,1,Pin_1*%
%TO.N,Net-(J25-Pin_8)*%
X159750000Y-103000000D03*
%TD*%
%TO.P,J6,1,Pin_1*%
%TO.N,Net-(J25-Pin_6)*%
X142250000Y-103000000D03*
%TD*%
%TO.P,J7,1,Pin_1*%
%TO.N,Net-(J25-Pin_7)*%
X149750000Y-103000000D03*
%TD*%
%TO.P,J22,1,Pin_1*%
%TO.N,Net-(J22-Pin_1)*%
X170000000Y-67500000D03*
%TD*%
%TO.P,J3,1,Pin_1*%
%TO.N,Net-(J25-Pin_3)*%
X112000000Y-103000000D03*
%TD*%
%TO.P,J17,1,Pin_1*%
%TO.N,Net-(J17-Pin_1)*%
X104500000Y-67500000D03*
%TD*%
D13*
%TO.P,J25,24,Pin_24*%
%TO.N,Net-(J24-Pin_1)*%
X159990000Y-55460000D03*
%TO.P,J25,23,Pin_23*%
%TO.N,Net-(J23-Pin_1)*%
X157450000Y-55460000D03*
%TO.P,J25,22,Pin_22*%
%TO.N,Net-(J22-Pin_1)*%
X154910000Y-55460000D03*
%TO.P,J25,21,Pin_21*%
%TO.N,Net-(J21-Pin_1)*%
X152370000Y-55460000D03*
%TO.P,J25,20,Pin_20*%
%TO.N,Net-(J20-Pin_1)*%
X149830000Y-55460000D03*
%TO.P,J25,19,Pin_19*%
%TO.N,Net-(J19-Pin_1)*%
X147290000Y-55460000D03*
%TO.P,J25,18,Pin_18*%
%TO.N,Net-(J18-Pin_1)*%
X144750000Y-55460000D03*
%TO.P,J25,17,Pin_17*%
%TO.N,Net-(J17-Pin_1)*%
X142210000Y-55460000D03*
%TO.P,J25,16,Pin_16*%
%TO.N,Net-(J16-Pin_1)*%
X139670000Y-55460000D03*
%TO.P,J25,15,Pin_15*%
%TO.N,Net-(J15-Pin_1)*%
X137130000Y-55460000D03*
%TO.P,J25,14,Pin_14*%
%TO.N,Net-(J14-Pin_1)*%
X134590000Y-55460000D03*
%TO.P,J25,13,Pin_13*%
%TO.N,Net-(J13-Pin_1)*%
X132050000Y-55460000D03*
%TO.P,J25,12,Pin_12*%
%TO.N,Net-(J12-Pin_1)*%
X159990000Y-58000000D03*
%TO.P,J25,11,Pin_11*%
%TO.N,Net-(J11-Pin_1)*%
X157450000Y-58000000D03*
%TO.P,J25,10,Pin_10*%
%TO.N,Net-(J10-Pin_1)*%
X154910000Y-58000000D03*
%TO.P,J25,9,Pin_9*%
%TO.N,Net-(J25-Pin_9)*%
X152370000Y-58000000D03*
%TO.P,J25,8,Pin_8*%
%TO.N,Net-(J25-Pin_8)*%
X149830000Y-58000000D03*
%TO.P,J25,7,Pin_7*%
%TO.N,Net-(J25-Pin_7)*%
X147290000Y-58000000D03*
%TO.P,J25,6,Pin_6*%
%TO.N,Net-(J25-Pin_6)*%
X144750000Y-58000000D03*
%TO.P,J25,5,Pin_5*%
%TO.N,Net-(J25-Pin_5)*%
X142210000Y-58000000D03*
%TO.P,J25,4,Pin_4*%
%TO.N,Net-(J25-Pin_4)*%
X139670000Y-58000000D03*
%TO.P,J25,3,Pin_3*%
%TO.N,Net-(J25-Pin_3)*%
X137130000Y-58000000D03*
%TO.P,J25,2,Pin_2*%
%TO.N,Net-(J2-Pin_1)*%
X134590000Y-58000000D03*
D14*
%TO.P,J25,1,Pin_1*%
%TO.N,Net-(J1-Pin_1)*%
X132050000Y-58000000D03*
%TD*%
D15*
%TO.N,Net-(J11-Pin_1)*%
X157590862Y-58500000D02*
X157450000Y-58500000D01*
X164634138Y-60059138D02*
X159150000Y-60059138D01*
X159150000Y-60059138D02*
X157590862Y-58500000D01*
X167375000Y-62800000D02*
X164634138Y-60059138D01*
X182179899Y-62800000D02*
X167375000Y-62800000D01*
X184675000Y-100175000D02*
X184675000Y-65295101D01*
X187500000Y-103000000D02*
X184675000Y-100175000D01*
X184675000Y-65295101D02*
X182179899Y-62800000D01*
%TO.N,Net-(J12-Pin_1)*%
X200325000Y-66300000D02*
X200325000Y-100175000D01*
X195425000Y-61400000D02*
X200325000Y-66300000D01*
X200325000Y-100175000D02*
X197500000Y-103000000D01*
X165775000Y-58100000D02*
X169075000Y-61400000D01*
X160140000Y-58100000D02*
X165775000Y-58100000D01*
X159990000Y-58250000D02*
X160140000Y-58100000D01*
X169075000Y-61400000D02*
X195425000Y-61400000D01*
%TO.N,Net-(J1-Pin_1)*%
X127800000Y-58250000D02*
X122239950Y-58250000D01*
X95700000Y-61450000D02*
X91600000Y-65550000D01*
X91600000Y-65550000D02*
X91600000Y-100100000D01*
X132050000Y-58250000D02*
X127800000Y-58250000D01*
X91600000Y-100100000D02*
X94500000Y-103000000D01*
X119039950Y-61450000D02*
X95700000Y-61450000D01*
X129850000Y-58250000D02*
X127800000Y-58250000D01*
X132050000Y-58250000D02*
X129850000Y-58250000D01*
X122239950Y-58250000D02*
X119039950Y-61450000D01*
%TO.N,Net-(J2-Pin_1)*%
X122219849Y-60250000D02*
X119619849Y-62850000D01*
X122269849Y-60300000D02*
X122219849Y-60250000D01*
X133400000Y-60300000D02*
X122269849Y-60300000D01*
X134590000Y-59110000D02*
X133400000Y-60300000D01*
X119619849Y-62850000D02*
X109420101Y-62850000D01*
X107400000Y-100100000D02*
X104500000Y-103000000D01*
X134590000Y-58000000D02*
X134590000Y-59110000D01*
X107400000Y-64870101D02*
X107400000Y-100100000D01*
X109420101Y-62850000D02*
X107400000Y-64870101D01*
%TO.N,Net-(J25-Pin_3)*%
X108800000Y-99800000D02*
X112000000Y-103000000D01*
X137130000Y-58330000D02*
X137125000Y-58325000D01*
X108800000Y-65450000D02*
X108800000Y-99800000D01*
X137125000Y-60907081D02*
X136282081Y-61750000D01*
X109974999Y-64275000D02*
X109250000Y-65000000D01*
X122699748Y-61750000D02*
X120174748Y-64275000D01*
X109250000Y-65000000D02*
X108800000Y-65450000D01*
X136282081Y-61750000D02*
X122699748Y-61750000D01*
X137125000Y-58325000D02*
X137125000Y-60907081D01*
X120174748Y-64275000D02*
X109974999Y-64275000D01*
%TO.N,Net-(J25-Pin_5)*%
X130500000Y-64675000D02*
X127825000Y-67350000D01*
X142210000Y-61090000D02*
X138625000Y-64675000D01*
X132100000Y-103000000D02*
X132250000Y-103000000D01*
X127825000Y-98725000D02*
X132100000Y-103000000D01*
X142210000Y-58250000D02*
X142210000Y-61090000D01*
X127825000Y-67350000D02*
X127825000Y-98725000D01*
X138625000Y-64675000D02*
X130500000Y-64675000D01*
%TO.N,Net-(J25-Pin_6)*%
X144750000Y-58250000D02*
X144750000Y-66004846D01*
X145075000Y-66329846D02*
X145075000Y-100450000D01*
X142525000Y-103000000D02*
X142500000Y-103000000D01*
X144750000Y-66004846D02*
X145075000Y-66329846D01*
X145075000Y-100450000D02*
X142525000Y-103000000D01*
%TO.N,Net-(J25-Pin_7)*%
X147290000Y-58250000D02*
X147290000Y-65964846D01*
X147100000Y-58060000D02*
X147290000Y-58250000D01*
X149000000Y-102625000D02*
X149000000Y-103000000D01*
X146925000Y-100550000D02*
X149000000Y-102625000D01*
X147290000Y-65964846D02*
X146925000Y-66329846D01*
X146925000Y-66329846D02*
X146925000Y-100550000D01*
X147100000Y-57760000D02*
X147100000Y-58060000D01*
%TO.N,Net-(J25-Pin_8)*%
X149825000Y-60897081D02*
X153602919Y-64675000D01*
X163750000Y-67504846D02*
X163750000Y-99050000D01*
X149825000Y-58275000D02*
X149825000Y-60897081D01*
X163750000Y-99050000D02*
X159800000Y-103000000D01*
X153602919Y-64675000D02*
X160920154Y-64675000D01*
X160920154Y-64675000D02*
X163750000Y-67504846D01*
%TO.N,Net-(J25-Pin_9)*%
X165625000Y-98625000D02*
X170000000Y-103000000D01*
X152375000Y-58400000D02*
X152400000Y-58400000D01*
X152400000Y-58400000D02*
X156859138Y-62859138D01*
X161809138Y-62859138D02*
X165625000Y-66675000D01*
X156859138Y-62859138D02*
X161809138Y-62859138D01*
X165625000Y-66675000D02*
X165625000Y-98625000D01*
%TO.N,Net-(J10-Pin_1)*%
X157984138Y-61459138D02*
X163109138Y-61459138D01*
X163109138Y-61459138D02*
X165850000Y-64200000D01*
X182825000Y-65425000D02*
X182825000Y-100675000D01*
X165850000Y-64200000D02*
X181600000Y-64200000D01*
X181600000Y-64200000D02*
X182825000Y-65425000D01*
X182825000Y-100675000D02*
X180500000Y-103000000D01*
X154910000Y-58385000D02*
X157984138Y-61459138D01*
X154910000Y-58250000D02*
X154910000Y-58385000D01*
%TO.N,Net-(J25-Pin_4)*%
X126425000Y-98575000D02*
X122000000Y-103000000D01*
X126425000Y-65025000D02*
X126425000Y-68025000D01*
X128300000Y-63150000D02*
X126425000Y-65025000D01*
X126425000Y-68025000D02*
X126425000Y-98575000D01*
X137422081Y-63150000D02*
X128300000Y-63150000D01*
X139670000Y-60902081D02*
X137422081Y-63150000D01*
X139670000Y-58250000D02*
X139670000Y-60902081D01*
%TD*%
%TA.AperFunction,Conductor*%
%TO.N,Earth*%
G36*
X95206782Y-61272174D02*
G01*
X95228456Y-61324500D01*
X95206782Y-61376825D01*
X93113127Y-63470480D01*
X91279517Y-65304090D01*
X91226793Y-65395410D01*
X91226458Y-65396661D01*
X91226044Y-65398207D01*
X91199500Y-65497273D01*
X91199500Y-100047273D01*
X91199500Y-100152727D01*
X91199501Y-100152729D01*
X91226793Y-100254588D01*
X91226795Y-100254592D01*
X91279517Y-100345909D01*
X91279518Y-100345910D01*
X91279520Y-100345913D01*
X91809021Y-100875414D01*
X92334688Y-101401081D01*
X92356362Y-101453407D01*
X92340615Y-101499042D01*
X92335313Y-101505809D01*
X92335309Y-101505815D01*
X92170988Y-101777635D01*
X92170983Y-101777644D01*
X92040625Y-102067289D01*
X91946134Y-102370522D01*
X91888878Y-102682953D01*
X91869701Y-103000000D01*
X91888878Y-103317046D01*
X91946134Y-103629477D01*
X92040625Y-103932710D01*
X92040627Y-103932715D01*
X92040628Y-103932717D01*
X92170986Y-104222361D01*
X92335306Y-104494180D01*
X92531193Y-104744211D01*
X92755789Y-104968807D01*
X93005820Y-105164694D01*
X93277639Y-105329014D01*
X93342086Y-105358019D01*
X93380907Y-105399259D01*
X93379197Y-105455870D01*
X93337957Y-105494691D01*
X93311716Y-105499500D01*
X82574500Y-105499500D01*
X82522174Y-105477826D01*
X82500500Y-105425500D01*
X82500500Y-101500000D01*
X83294958Y-101500000D01*
X83315111Y-101858853D01*
X83315113Y-101858865D01*
X83375313Y-102213184D01*
X83474815Y-102558560D01*
X83612352Y-102890607D01*
X83612363Y-102890628D01*
X83786206Y-103205173D01*
X83786210Y-103205180D01*
X83994199Y-103498313D01*
X84100213Y-103616942D01*
X85235502Y-102481652D01*
X85279588Y-102542330D01*
X85457670Y-102720412D01*
X85518346Y-102764495D01*
X84383055Y-103899786D01*
X84501681Y-104005796D01*
X84794819Y-104213789D01*
X84794826Y-104213793D01*
X85109371Y-104387636D01*
X85109392Y-104387647D01*
X85441439Y-104525184D01*
X85786816Y-104624686D01*
X85786814Y-104624686D01*
X86141134Y-104684886D01*
X86141146Y-104684888D01*
X86500000Y-104705041D01*
X86858853Y-104684888D01*
X86858865Y-104684886D01*
X87213184Y-104624686D01*
X87558560Y-104525184D01*
X87890607Y-104387647D01*
X87890628Y-104387636D01*
X88205173Y-104213793D01*
X88205180Y-104213789D01*
X88498318Y-104005796D01*
X88616942Y-103899786D01*
X88616943Y-103899786D01*
X87481653Y-102764496D01*
X87542330Y-102720412D01*
X87720412Y-102542330D01*
X87764496Y-102481653D01*
X88899786Y-103616943D01*
X88899786Y-103616942D01*
X89005796Y-103498318D01*
X89213789Y-103205180D01*
X89213793Y-103205173D01*
X89387636Y-102890628D01*
X89387647Y-102890607D01*
X89525184Y-102558560D01*
X89624686Y-102213184D01*
X89684886Y-101858865D01*
X89684888Y-101858853D01*
X89705041Y-101500000D01*
X89684888Y-101141146D01*
X89684886Y-101141134D01*
X89624686Y-100786815D01*
X89525184Y-100441439D01*
X89387647Y-100109392D01*
X89387636Y-100109371D01*
X89213793Y-99794826D01*
X89213789Y-99794819D01*
X89005796Y-99501681D01*
X88899786Y-99383056D01*
X88899786Y-99383055D01*
X87764495Y-100518345D01*
X87720412Y-100457670D01*
X87542330Y-100279588D01*
X87481652Y-100235502D01*
X88616942Y-99100213D01*
X88498313Y-98994199D01*
X88205180Y-98786210D01*
X88205173Y-98786206D01*
X87890628Y-98612363D01*
X87890607Y-98612352D01*
X87558560Y-98474815D01*
X87213183Y-98375313D01*
X87213185Y-98375313D01*
X86858865Y-98315113D01*
X86858853Y-98315111D01*
X86500000Y-98294958D01*
X86141146Y-98315111D01*
X86141134Y-98315113D01*
X85786815Y-98375313D01*
X85441439Y-98474815D01*
X85109392Y-98612352D01*
X85109371Y-98612363D01*
X84794826Y-98786206D01*
X84794819Y-98786210D01*
X84501686Y-98994199D01*
X84383055Y-99100212D01*
X85518346Y-100235503D01*
X85457670Y-100279588D01*
X85279588Y-100457670D01*
X85235503Y-100518346D01*
X84100212Y-99383055D01*
X83994199Y-99501686D01*
X83786210Y-99794819D01*
X83786206Y-99794826D01*
X83612363Y-100109371D01*
X83612352Y-100109392D01*
X83474815Y-100441439D01*
X83375313Y-100786815D01*
X83315113Y-101141134D01*
X83315111Y-101141146D01*
X83294958Y-101500000D01*
X82500500Y-101500000D01*
X82500500Y-66000000D01*
X83294958Y-66000000D01*
X83315111Y-66358853D01*
X83315113Y-66358865D01*
X83375313Y-66713184D01*
X83474815Y-67058560D01*
X83612352Y-67390607D01*
X83612363Y-67390628D01*
X83786206Y-67705173D01*
X83786210Y-67705180D01*
X83994199Y-67998313D01*
X84100213Y-68116942D01*
X85235502Y-66981652D01*
X85279588Y-67042330D01*
X85457670Y-67220412D01*
X85518346Y-67264495D01*
X84383055Y-68399786D01*
X84501681Y-68505796D01*
X84794819Y-68713789D01*
X84794826Y-68713793D01*
X85109371Y-68887636D01*
X85109392Y-68887647D01*
X85441439Y-69025184D01*
X85786816Y-69124686D01*
X85786814Y-69124686D01*
X86141134Y-69184886D01*
X86141146Y-69184888D01*
X86500000Y-69205041D01*
X86858853Y-69184888D01*
X86858865Y-69184886D01*
X87213184Y-69124686D01*
X87558560Y-69025184D01*
X87890607Y-68887647D01*
X87890628Y-68887636D01*
X88205173Y-68713793D01*
X88205180Y-68713789D01*
X88498318Y-68505796D01*
X88616942Y-68399786D01*
X88616943Y-68399786D01*
X87481653Y-67264496D01*
X87542330Y-67220412D01*
X87720412Y-67042330D01*
X87764496Y-66981653D01*
X88899786Y-68116943D01*
X88899786Y-68116942D01*
X89005796Y-67998318D01*
X89213789Y-67705180D01*
X89213793Y-67705173D01*
X89387636Y-67390628D01*
X89387647Y-67390607D01*
X89525184Y-67058560D01*
X89624686Y-66713184D01*
X89684886Y-66358865D01*
X89684888Y-66358853D01*
X89705041Y-66000000D01*
X89684888Y-65641146D01*
X89684886Y-65641134D01*
X89624686Y-65286815D01*
X89525184Y-64941439D01*
X89387647Y-64609392D01*
X89387636Y-64609371D01*
X89213793Y-64294826D01*
X89213789Y-64294819D01*
X89005796Y-64001681D01*
X88899786Y-63883056D01*
X88899786Y-63883055D01*
X87764495Y-65018345D01*
X87720412Y-64957670D01*
X87542330Y-64779588D01*
X87481652Y-64735502D01*
X88616942Y-63600213D01*
X88498313Y-63494199D01*
X88205180Y-63286210D01*
X88205173Y-63286206D01*
X87890628Y-63112363D01*
X87890607Y-63112352D01*
X87558560Y-62974815D01*
X87213183Y-62875313D01*
X87213185Y-62875313D01*
X86858865Y-62815113D01*
X86858853Y-62815111D01*
X86500000Y-62794958D01*
X86141146Y-62815111D01*
X86141134Y-62815113D01*
X85786815Y-62875313D01*
X85441439Y-62974815D01*
X85109392Y-63112352D01*
X85109371Y-63112363D01*
X84794826Y-63286206D01*
X84794819Y-63286210D01*
X84501686Y-63494199D01*
X84383055Y-63600212D01*
X85518346Y-64735503D01*
X85457670Y-64779588D01*
X85279588Y-64957670D01*
X85235503Y-65018346D01*
X84100212Y-63883055D01*
X83994199Y-64001686D01*
X83786210Y-64294819D01*
X83786206Y-64294826D01*
X83612363Y-64609371D01*
X83612352Y-64609392D01*
X83474815Y-64941439D01*
X83375313Y-65286815D01*
X83315113Y-65641134D01*
X83315111Y-65641146D01*
X83294958Y-66000000D01*
X82500500Y-66000000D01*
X82500500Y-61324500D01*
X82522174Y-61272174D01*
X82574500Y-61250500D01*
X95154456Y-61250500D01*
X95206782Y-61272174D01*
G37*
%TD.AperFunction*%
%TA.AperFunction,Conductor*%
G36*
X209453143Y-61222174D02*
G01*
X209474816Y-61274458D01*
X209479854Y-70402238D01*
X209499182Y-105425459D01*
X209477537Y-105477797D01*
X209425223Y-105499500D01*
X198688284Y-105499500D01*
X198635958Y-105477826D01*
X198614284Y-105425500D01*
X198635958Y-105373174D01*
X198657914Y-105358019D01*
X198722361Y-105329014D01*
X198994180Y-105164694D01*
X199244211Y-104968807D01*
X199468807Y-104744211D01*
X199664694Y-104494180D01*
X199829014Y-104222361D01*
X199959372Y-103932717D01*
X200053867Y-103629472D01*
X200111121Y-103317048D01*
X200130299Y-103000000D01*
X200111121Y-102682952D01*
X200053867Y-102370528D01*
X199959372Y-102067283D01*
X199829014Y-101777639D01*
X199664694Y-101505820D01*
X199660134Y-101500000D01*
X202294958Y-101500000D01*
X202315111Y-101858853D01*
X202315113Y-101858865D01*
X202375313Y-102213184D01*
X202474815Y-102558560D01*
X202612352Y-102890607D01*
X202612363Y-102890628D01*
X202786206Y-103205173D01*
X202786210Y-103205180D01*
X202994199Y-103498313D01*
X203100213Y-103616942D01*
X204235502Y-102481652D01*
X204279588Y-102542330D01*
X204457670Y-102720412D01*
X204518346Y-102764495D01*
X203383055Y-103899786D01*
X203501681Y-104005796D01*
X203794819Y-104213789D01*
X203794826Y-104213793D01*
X204109371Y-104387636D01*
X204109392Y-104387647D01*
X204441439Y-104525184D01*
X204786816Y-104624686D01*
X204786814Y-104624686D01*
X205141134Y-104684886D01*
X205141146Y-104684888D01*
X205500000Y-104705041D01*
X205858853Y-104684888D01*
X205858865Y-104684886D01*
X206213184Y-104624686D01*
X206558560Y-104525184D01*
X206890607Y-104387647D01*
X206890628Y-104387636D01*
X207205173Y-104213793D01*
X207205180Y-104213789D01*
X207498318Y-104005796D01*
X207616942Y-103899786D01*
X207616943Y-103899786D01*
X206481653Y-102764496D01*
X206542330Y-102720412D01*
X206720412Y-102542330D01*
X206764496Y-102481653D01*
X207899786Y-103616943D01*
X207899786Y-103616942D01*
X208005796Y-103498318D01*
X208213789Y-103205180D01*
X208213793Y-103205173D01*
X208387636Y-102890628D01*
X208387647Y-102890607D01*
X208525184Y-102558560D01*
X208624686Y-102213184D01*
X208684886Y-101858865D01*
X208684888Y-101858853D01*
X208705041Y-101500000D01*
X208684888Y-101141146D01*
X208684886Y-101141134D01*
X208624686Y-100786815D01*
X208525184Y-100441439D01*
X208387647Y-100109392D01*
X208387636Y-100109371D01*
X208213793Y-99794826D01*
X208213789Y-99794819D01*
X208005796Y-99501681D01*
X207899786Y-99383056D01*
X207899786Y-99383055D01*
X206764495Y-100518345D01*
X206720412Y-100457670D01*
X206542330Y-100279588D01*
X206481652Y-100235502D01*
X207616942Y-99100213D01*
X207498313Y-98994199D01*
X207205180Y-98786210D01*
X207205173Y-98786206D01*
X206890628Y-98612363D01*
X206890607Y-98612352D01*
X206558560Y-98474815D01*
X206213183Y-98375313D01*
X206213185Y-98375313D01*
X205858865Y-98315113D01*
X205858853Y-98315111D01*
X205500000Y-98294958D01*
X205141146Y-98315111D01*
X205141134Y-98315113D01*
X204786815Y-98375313D01*
X204441439Y-98474815D01*
X204109392Y-98612352D01*
X204109371Y-98612363D01*
X203794826Y-98786206D01*
X203794819Y-98786210D01*
X203501686Y-98994199D01*
X203383055Y-99100212D01*
X204518346Y-100235503D01*
X204457670Y-100279588D01*
X204279588Y-100457670D01*
X204235503Y-100518346D01*
X203100212Y-99383055D01*
X202994199Y-99501686D01*
X202786210Y-99794819D01*
X202786206Y-99794826D01*
X202612363Y-100109371D01*
X202612352Y-100109392D01*
X202474815Y-100441439D01*
X202375313Y-100786815D01*
X202315113Y-101141134D01*
X202315111Y-101141146D01*
X202294958Y-101500000D01*
X199660134Y-101500000D01*
X199659385Y-101499044D01*
X199644175Y-101444490D01*
X199665309Y-101401083D01*
X200645480Y-100420913D01*
X200645730Y-100420480D01*
X200698207Y-100329587D01*
X200725499Y-100227729D01*
X200725500Y-100227729D01*
X200725500Y-66247271D01*
X200725499Y-66247270D01*
X200724660Y-66244140D01*
X200698207Y-66145413D01*
X200645480Y-66054087D01*
X200591393Y-66000000D01*
X202294958Y-66000000D01*
X202315111Y-66358853D01*
X202315113Y-66358865D01*
X202375313Y-66713184D01*
X202474815Y-67058560D01*
X202612352Y-67390607D01*
X202612363Y-67390628D01*
X202786206Y-67705173D01*
X202786210Y-67705180D01*
X202994199Y-67998313D01*
X203100213Y-68116942D01*
X204235502Y-66981652D01*
X204279588Y-67042330D01*
X204457670Y-67220412D01*
X204518346Y-67264495D01*
X203383055Y-68399786D01*
X203501681Y-68505796D01*
X203794819Y-68713789D01*
X203794826Y-68713793D01*
X204109371Y-68887636D01*
X204109392Y-68887647D01*
X204441439Y-69025184D01*
X204786816Y-69124686D01*
X204786814Y-69124686D01*
X205141134Y-69184886D01*
X205141146Y-69184888D01*
X205500000Y-69205041D01*
X205858853Y-69184888D01*
X205858865Y-69184886D01*
X206213184Y-69124686D01*
X206558560Y-69025184D01*
X206890607Y-68887647D01*
X206890628Y-68887636D01*
X207205173Y-68713793D01*
X207205180Y-68713789D01*
X207498318Y-68505796D01*
X207616942Y-68399786D01*
X207616943Y-68399786D01*
X206481653Y-67264496D01*
X206542330Y-67220412D01*
X206720412Y-67042330D01*
X206764496Y-66981653D01*
X207899786Y-68116943D01*
X207899786Y-68116942D01*
X208005796Y-67998318D01*
X208213789Y-67705180D01*
X208213793Y-67705173D01*
X208387636Y-67390628D01*
X208387647Y-67390607D01*
X208525184Y-67058560D01*
X208624686Y-66713184D01*
X208684886Y-66358865D01*
X208684888Y-66358853D01*
X208705041Y-66000000D01*
X208684888Y-65641146D01*
X208684886Y-65641134D01*
X208624686Y-65286815D01*
X208525184Y-64941439D01*
X208387647Y-64609392D01*
X208387636Y-64609371D01*
X208213793Y-64294826D01*
X208213789Y-64294819D01*
X208005796Y-64001681D01*
X207899786Y-63883056D01*
X207899786Y-63883055D01*
X206764495Y-65018345D01*
X206720412Y-64957670D01*
X206542330Y-64779588D01*
X206481652Y-64735502D01*
X207616942Y-63600213D01*
X207498313Y-63494199D01*
X207205180Y-63286210D01*
X207205173Y-63286206D01*
X206890628Y-63112363D01*
X206890607Y-63112352D01*
X206558560Y-62974815D01*
X206213183Y-62875313D01*
X206213185Y-62875313D01*
X205858865Y-62815113D01*
X205858853Y-62815111D01*
X205500000Y-62794958D01*
X205141146Y-62815111D01*
X205141134Y-62815113D01*
X204786815Y-62875313D01*
X204441439Y-62974815D01*
X204109392Y-63112352D01*
X204109371Y-63112363D01*
X203794826Y-63286206D01*
X203794819Y-63286210D01*
X203501686Y-63494199D01*
X203383055Y-63600212D01*
X204518346Y-64735503D01*
X204457670Y-64779588D01*
X204279588Y-64957670D01*
X204235503Y-65018346D01*
X203100212Y-63883055D01*
X202994199Y-64001686D01*
X202786210Y-64294819D01*
X202786206Y-64294826D01*
X202612363Y-64609371D01*
X202612352Y-64609392D01*
X202474815Y-64941439D01*
X202375313Y-65286815D01*
X202315113Y-65641134D01*
X202315111Y-65641146D01*
X202294958Y-66000000D01*
X200591393Y-66000000D01*
X200570913Y-65979520D01*
X195918219Y-61326826D01*
X195896545Y-61274500D01*
X195918219Y-61222174D01*
X195970545Y-61200500D01*
X209400817Y-61200500D01*
X209453143Y-61222174D01*
G37*
%TD.AperFunction*%
%TD*%
%TA.AperFunction,NonConductor*%
G36*
X170452826Y-47222174D02*
G01*
X170474500Y-47274500D01*
X170474500Y-57765894D01*
X170508606Y-57893181D01*
X170508610Y-57893190D01*
X170574500Y-58007314D01*
X173440360Y-60873174D01*
X173462034Y-60925500D01*
X173440360Y-60977826D01*
X173388034Y-60999500D01*
X169271544Y-60999500D01*
X169219218Y-60977826D01*
X167649808Y-59408416D01*
X166020913Y-57779520D01*
X166020910Y-57779518D01*
X166020909Y-57779517D01*
X165929592Y-57726795D01*
X165929588Y-57726793D01*
X165827727Y-57699500D01*
X165827726Y-57699500D01*
X161714400Y-57699500D01*
X161662074Y-57677826D01*
X161642255Y-57641966D01*
X161640461Y-57634108D01*
X161609925Y-57500319D01*
X161517358Y-57264463D01*
X161390673Y-57045037D01*
X161232699Y-56846944D01*
X161165125Y-56784245D01*
X161141511Y-56732767D01*
X161161213Y-56679667D01*
X161165126Y-56675754D01*
X161232699Y-56613056D01*
X161390673Y-56414963D01*
X161517358Y-56195537D01*
X161609925Y-55959681D01*
X161666306Y-55712662D01*
X161685240Y-55460000D01*
X161666306Y-55207338D01*
X161609925Y-54960319D01*
X161517358Y-54724463D01*
X161390673Y-54505037D01*
X161232699Y-54306944D01*
X161230900Y-54305275D01*
X161191104Y-54268350D01*
X161046965Y-54134608D01*
X160837620Y-53991879D01*
X160718547Y-53934537D01*
X160609346Y-53881948D01*
X160609342Y-53881946D01*
X160609341Y-53881946D01*
X160609336Y-53881944D01*
X160609332Y-53881943D01*
X160367226Y-53807262D01*
X160367227Y-53807262D01*
X160116691Y-53769500D01*
X160116685Y-53769500D01*
X159863315Y-53769500D01*
X159863308Y-53769500D01*
X159612773Y-53807262D01*
X159370667Y-53881943D01*
X159370653Y-53881948D01*
X159142382Y-53991878D01*
X159142380Y-53991879D01*
X158933035Y-54134608D01*
X158933034Y-54134609D01*
X158770333Y-54285573D01*
X158717233Y-54305275D01*
X158669667Y-54285573D01*
X158621303Y-54240698D01*
X158506965Y-54134608D01*
X158297620Y-53991879D01*
X158178547Y-53934537D01*
X158069346Y-53881948D01*
X158069342Y-53881946D01*
X158069341Y-53881946D01*
X158069336Y-53881944D01*
X158069332Y-53881943D01*
X157827226Y-53807262D01*
X157827227Y-53807262D01*
X157576691Y-53769500D01*
X157576685Y-53769500D01*
X157323315Y-53769500D01*
X157323308Y-53769500D01*
X157072773Y-53807262D01*
X156830667Y-53881943D01*
X156830653Y-53881948D01*
X156602382Y-53991878D01*
X156602380Y-53991879D01*
X156393035Y-54134608D01*
X156393034Y-54134609D01*
X156230333Y-54285573D01*
X156177233Y-54305275D01*
X156129667Y-54285573D01*
X156081303Y-54240698D01*
X155966965Y-54134608D01*
X155757620Y-53991879D01*
X155638547Y-53934537D01*
X155529346Y-53881948D01*
X155529342Y-53881946D01*
X155529341Y-53881946D01*
X155529336Y-53881944D01*
X155529332Y-53881943D01*
X155287226Y-53807262D01*
X155287227Y-53807262D01*
X155036691Y-53769500D01*
X155036685Y-53769500D01*
X154783315Y-53769500D01*
X154783308Y-53769500D01*
X154532773Y-53807262D01*
X154290667Y-53881943D01*
X154290653Y-53881948D01*
X154062382Y-53991878D01*
X154062380Y-53991879D01*
X153853035Y-54134608D01*
X153853034Y-54134609D01*
X153690333Y-54285573D01*
X153637233Y-54305275D01*
X153589667Y-54285573D01*
X153541303Y-54240698D01*
X153426965Y-54134608D01*
X153217620Y-53991879D01*
X153098547Y-53934537D01*
X152989346Y-53881948D01*
X152989342Y-53881946D01*
X152989341Y-53881946D01*
X152989336Y-53881944D01*
X152989332Y-53881943D01*
X152747226Y-53807262D01*
X152747227Y-53807262D01*
X152496691Y-53769500D01*
X152496685Y-53769500D01*
X152243315Y-53769500D01*
X152243308Y-53769500D01*
X151992773Y-53807262D01*
X151750667Y-53881943D01*
X151750653Y-53881948D01*
X151522382Y-53991878D01*
X151522380Y-53991879D01*
X151313035Y-54134608D01*
X151313034Y-54134609D01*
X151150333Y-54285573D01*
X151097233Y-54305275D01*
X151049667Y-54285573D01*
X151001303Y-54240698D01*
X150886965Y-54134608D01*
X150677620Y-53991879D01*
X150558547Y-53934537D01*
X150449346Y-53881948D01*
X150449342Y-53881946D01*
X150449341Y-53881946D01*
X150449336Y-53881944D01*
X150449332Y-53881943D01*
X150207226Y-53807262D01*
X150207227Y-53807262D01*
X149956691Y-53769500D01*
X149956685Y-53769500D01*
X149703315Y-53769500D01*
X149703308Y-53769500D01*
X149452773Y-53807262D01*
X149210667Y-53881943D01*
X149210653Y-53881948D01*
X148982382Y-53991878D01*
X148982380Y-53991879D01*
X148773035Y-54134608D01*
X148773034Y-54134609D01*
X148610333Y-54285573D01*
X148557233Y-54305275D01*
X148509667Y-54285573D01*
X148461303Y-54240698D01*
X148346965Y-54134608D01*
X148137620Y-53991879D01*
X148018547Y-53934537D01*
X147909346Y-53881948D01*
X147909342Y-53881946D01*
X147909341Y-53881946D01*
X147909336Y-53881944D01*
X147909332Y-53881943D01*
X147667226Y-53807262D01*
X147667227Y-53807262D01*
X147416691Y-53769500D01*
X147416685Y-53769500D01*
X147163315Y-53769500D01*
X147163308Y-53769500D01*
X146912773Y-53807262D01*
X146670667Y-53881943D01*
X146670653Y-53881948D01*
X146442382Y-53991878D01*
X146442380Y-53991879D01*
X146233035Y-54134608D01*
X146233034Y-54134609D01*
X146070333Y-54285573D01*
X146017233Y-54305275D01*
X145969667Y-54285573D01*
X145921303Y-54240698D01*
X145806965Y-54134608D01*
X145597620Y-53991879D01*
X145478547Y-53934537D01*
X145369346Y-53881948D01*
X145369342Y-53881946D01*
X145369341Y-53881946D01*
X145369336Y-53881944D01*
X145369332Y-53881943D01*
X145127226Y-53807262D01*
X145127227Y-53807262D01*
X144876691Y-53769500D01*
X144876685Y-53769500D01*
X144623315Y-53769500D01*
X144623308Y-53769500D01*
X144372773Y-53807262D01*
X144130667Y-53881943D01*
X144130653Y-53881948D01*
X143902382Y-53991878D01*
X143902380Y-53991879D01*
X143693035Y-54134608D01*
X143693034Y-54134609D01*
X143530333Y-54285573D01*
X143477233Y-54305275D01*
X143429667Y-54285573D01*
X143381303Y-54240698D01*
X143266965Y-54134608D01*
X143057620Y-53991879D01*
X142938547Y-53934537D01*
X142829346Y-53881948D01*
X142829342Y-53881946D01*
X142829341Y-53881946D01*
X142829336Y-53881944D01*
X142829332Y-53881943D01*
X142587226Y-53807262D01*
X142587227Y-53807262D01*
X142336691Y-53769500D01*
X142336685Y-53769500D01*
X142083315Y-53769500D01*
X142083308Y-53769500D01*
X141832773Y-53807262D01*
X141590667Y-53881943D01*
X141590653Y-53881948D01*
X141362382Y-53991878D01*
X141362380Y-53991879D01*
X141153035Y-54134608D01*
X141153034Y-54134609D01*
X140990333Y-54285573D01*
X140937233Y-54305275D01*
X140889667Y-54285573D01*
X140841303Y-54240698D01*
X140726965Y-54134608D01*
X140517620Y-53991879D01*
X140398547Y-53934537D01*
X140289346Y-53881948D01*
X140289342Y-53881946D01*
X140289341Y-53881946D01*
X140289336Y-53881944D01*
X140289332Y-53881943D01*
X140047226Y-53807262D01*
X140047227Y-53807262D01*
X139796691Y-53769500D01*
X139796685Y-53769500D01*
X139543315Y-53769500D01*
X139543308Y-53769500D01*
X139292773Y-53807262D01*
X139050667Y-53881943D01*
X139050653Y-53881948D01*
X138822382Y-53991878D01*
X138822380Y-53991879D01*
X138613035Y-54134608D01*
X138613034Y-54134609D01*
X138450333Y-54285573D01*
X138397233Y-54305275D01*
X138349667Y-54285573D01*
X138301303Y-54240698D01*
X138186965Y-54134608D01*
X137977620Y-53991879D01*
X137858547Y-53934537D01*
X137749346Y-53881948D01*
X137749342Y-53881946D01*
X137749341Y-53881946D01*
X137749336Y-53881944D01*
X137749332Y-53881943D01*
X137507226Y-53807262D01*
X137507227Y-53807262D01*
X137256691Y-53769500D01*
X137256685Y-53769500D01*
X137003315Y-53769500D01*
X137003308Y-53769500D01*
X136752773Y-53807262D01*
X136510667Y-53881943D01*
X136510653Y-53881948D01*
X136282382Y-53991878D01*
X136282380Y-53991879D01*
X136073035Y-54134608D01*
X136073034Y-54134609D01*
X135910333Y-54285573D01*
X135857233Y-54305275D01*
X135809667Y-54285573D01*
X135761303Y-54240698D01*
X135646965Y-54134608D01*
X135437620Y-53991879D01*
X135318547Y-53934537D01*
X135209346Y-53881948D01*
X135209342Y-53881946D01*
X135209341Y-53881946D01*
X135209336Y-53881944D01*
X135209332Y-53881943D01*
X134967226Y-53807262D01*
X134967227Y-53807262D01*
X134716691Y-53769500D01*
X134716685Y-53769500D01*
X134463315Y-53769500D01*
X134463308Y-53769500D01*
X134212773Y-53807262D01*
X133970667Y-53881943D01*
X133970653Y-53881948D01*
X133742382Y-53991878D01*
X133742380Y-53991879D01*
X133533035Y-54134608D01*
X133533034Y-54134609D01*
X133370333Y-54285573D01*
X133317233Y-54305275D01*
X133269667Y-54285573D01*
X133221303Y-54240698D01*
X133106965Y-54134608D01*
X132897620Y-53991879D01*
X132778547Y-53934537D01*
X132669346Y-53881948D01*
X132669342Y-53881946D01*
X132669341Y-53881946D01*
X132669336Y-53881944D01*
X132669332Y-53881943D01*
X132427226Y-53807262D01*
X132427227Y-53807262D01*
X132176691Y-53769500D01*
X132176685Y-53769500D01*
X131923315Y-53769500D01*
X131923308Y-53769500D01*
X131672773Y-53807262D01*
X131430667Y-53881943D01*
X131430653Y-53881948D01*
X131202382Y-53991878D01*
X131202380Y-53991879D01*
X130993035Y-54134608D01*
X130993034Y-54134609D01*
X130807304Y-54306940D01*
X130649324Y-54505040D01*
X130649323Y-54505042D01*
X130522641Y-54724464D01*
X130430076Y-54960315D01*
X130430075Y-54960318D01*
X130430075Y-54960319D01*
X130373694Y-55207338D01*
X130354760Y-55460000D01*
X130373694Y-55712662D01*
X130430075Y-55959681D01*
X130522642Y-56195537D01*
X130649327Y-56414963D01*
X130649329Y-56414966D01*
X130649330Y-56414967D01*
X130649332Y-56414971D01*
X130651620Y-56417839D01*
X130667304Y-56472261D01*
X130640132Y-56521658D01*
X130602172Y-56552171D01*
X130487634Y-56694663D01*
X130406405Y-56858447D01*
X130362283Y-57035867D01*
X130359500Y-57076912D01*
X130359500Y-57775500D01*
X130337826Y-57827826D01*
X130285500Y-57849500D01*
X122187221Y-57849500D01*
X122085367Y-57876791D01*
X122085358Y-57876795D01*
X122002732Y-57924500D01*
X121994036Y-57929520D01*
X118895731Y-61027826D01*
X118843405Y-61049500D01*
X118582584Y-61049500D01*
X118530258Y-61027826D01*
X118508584Y-60975500D01*
X118529611Y-60923829D01*
X119549892Y-59877826D01*
X121330899Y-58051918D01*
X121331305Y-58051507D01*
X121375500Y-58007314D01*
X121375503Y-58007307D01*
X121376844Y-58005561D01*
X121376937Y-58005453D01*
X121377053Y-58005299D01*
X121377672Y-58004481D01*
X121377887Y-58004200D01*
X121377979Y-58004061D01*
X121379286Y-58002312D01*
X121379293Y-58002306D01*
X121409824Y-57947870D01*
X121410187Y-57947234D01*
X121423313Y-57924500D01*
X121441392Y-57893186D01*
X121441393Y-57893180D01*
X121442235Y-57891150D01*
X121442299Y-57891018D01*
X121442398Y-57890771D01*
X121442747Y-57889914D01*
X121442894Y-57889557D01*
X121442947Y-57889399D01*
X121443757Y-57887372D01*
X121443757Y-57887370D01*
X121443760Y-57887366D01*
X121459185Y-57826787D01*
X121459318Y-57826280D01*
X121475500Y-57765892D01*
X121475500Y-57765884D01*
X121475788Y-57763701D01*
X121475817Y-57763550D01*
X121475852Y-57763260D01*
X121475972Y-57762305D01*
X121476009Y-57762019D01*
X121476019Y-57761862D01*
X121476281Y-57759656D01*
X121475506Y-57697386D01*
X121475500Y-57696464D01*
X121475500Y-47274500D01*
X121497174Y-47222174D01*
X121549500Y-47200500D01*
X170400500Y-47200500D01*
X170452826Y-47222174D01*
G37*
%TD.AperFunction*%
%TA.AperFunction,NonConductor*%
G36*
X148610331Y-59174425D02*
G01*
X148773035Y-59325392D01*
X148982380Y-59468121D01*
X149210659Y-59578054D01*
X149372312Y-59627917D01*
X149415924Y-59664051D01*
X149424500Y-59698629D01*
X149424500Y-60844354D01*
X149424500Y-60949808D01*
X149446717Y-61032726D01*
X149451793Y-61051669D01*
X149451795Y-61051673D01*
X149504517Y-61142990D01*
X149504518Y-61142991D01*
X149504520Y-61142994D01*
X153357006Y-64995480D01*
X153357008Y-64995481D01*
X153357009Y-64995482D01*
X153421200Y-65032542D01*
X153448331Y-65048207D01*
X153550192Y-65075500D01*
X158420141Y-65075500D01*
X158472467Y-65097174D01*
X158494141Y-65149500D01*
X158472467Y-65201826D01*
X158458424Y-65212828D01*
X158255819Y-65335306D01*
X158005788Y-65531193D01*
X157789626Y-65747355D01*
X157737300Y-65769029D01*
X157684974Y-65747355D01*
X157673214Y-65732028D01*
X157651384Y-65694218D01*
X157650500Y-65692686D01*
X157557314Y-65599500D01*
X157504864Y-65569218D01*
X157443190Y-65533610D01*
X157443181Y-65533606D01*
X157315894Y-65499500D01*
X157315892Y-65499500D01*
X152315892Y-65499500D01*
X152184108Y-65499500D01*
X152184106Y-65499500D01*
X152056818Y-65533606D01*
X152056809Y-65533610D01*
X151942685Y-65599500D01*
X151849500Y-65692685D01*
X151826785Y-65732029D01*
X151781851Y-65766508D01*
X151725699Y-65759115D01*
X151710373Y-65747355D01*
X151494211Y-65531193D01*
X151244180Y-65335306D01*
X151136834Y-65270413D01*
X150972361Y-65170986D01*
X150972357Y-65170984D01*
X150972355Y-65170983D01*
X150764977Y-65077650D01*
X150682717Y-65040628D01*
X150682715Y-65040627D01*
X150682710Y-65040625D01*
X150379477Y-64946134D01*
X150379466Y-64946132D01*
X150343009Y-64939450D01*
X150067046Y-64888878D01*
X149750000Y-64869701D01*
X149432953Y-64888878D01*
X149120522Y-64946134D01*
X148817289Y-65040625D01*
X148527644Y-65170983D01*
X148527635Y-65170988D01*
X148255819Y-65335306D01*
X148005788Y-65531193D01*
X147816826Y-65720156D01*
X147764500Y-65741830D01*
X147712174Y-65720156D01*
X147690500Y-65667830D01*
X147690500Y-59700171D01*
X147712174Y-59647845D01*
X147742687Y-59629459D01*
X147909341Y-59578054D01*
X148137620Y-59468121D01*
X148346965Y-59325392D01*
X148509668Y-59174425D01*
X148562767Y-59154724D01*
X148610331Y-59174425D01*
G37*
%TD.AperFunction*%
%TA.AperFunction,NonConductor*%
G36*
X143530331Y-59174425D02*
G01*
X143693035Y-59325392D01*
X143902380Y-59468121D01*
X144130659Y-59578054D01*
X144297312Y-59629459D01*
X144340924Y-59665593D01*
X144349500Y-59700171D01*
X144349500Y-65708188D01*
X144327826Y-65760514D01*
X144275500Y-65782188D01*
X144223174Y-65760514D01*
X144220116Y-65757266D01*
X144218808Y-65755790D01*
X143994211Y-65531193D01*
X143744180Y-65335306D01*
X143636834Y-65270413D01*
X143472361Y-65170986D01*
X143472357Y-65170984D01*
X143472355Y-65170983D01*
X143264977Y-65077650D01*
X143182717Y-65040628D01*
X143182715Y-65040627D01*
X143182710Y-65040625D01*
X142879477Y-64946134D01*
X142879466Y-64946132D01*
X142843009Y-64939450D01*
X142567046Y-64888878D01*
X142250000Y-64869701D01*
X141932953Y-64888878D01*
X141620522Y-64946134D01*
X141317289Y-65040625D01*
X141027644Y-65170983D01*
X141027635Y-65170988D01*
X140755819Y-65335306D01*
X140505788Y-65531193D01*
X140289626Y-65747355D01*
X140237300Y-65769029D01*
X140184974Y-65747355D01*
X140173214Y-65732028D01*
X140151384Y-65694218D01*
X140150500Y-65692686D01*
X140057314Y-65599500D01*
X140004864Y-65569218D01*
X139943190Y-65533610D01*
X139943181Y-65533606D01*
X139815894Y-65499500D01*
X139815892Y-65499500D01*
X134815892Y-65499500D01*
X134684108Y-65499500D01*
X134684106Y-65499500D01*
X134556818Y-65533606D01*
X134556809Y-65533610D01*
X134442685Y-65599500D01*
X134349500Y-65692685D01*
X134326785Y-65732029D01*
X134281851Y-65766508D01*
X134225699Y-65759115D01*
X134210373Y-65747355D01*
X133994211Y-65531193D01*
X133744180Y-65335306D01*
X133663966Y-65286815D01*
X133541575Y-65212827D01*
X133508009Y-65167209D01*
X133516531Y-65111217D01*
X133562150Y-65077650D01*
X133579859Y-65075500D01*
X138677726Y-65075500D01*
X138677727Y-65075500D01*
X138779588Y-65048207D01*
X138870913Y-64995480D01*
X142455910Y-61410481D01*
X142455913Y-61410480D01*
X142530480Y-61335913D01*
X142583207Y-61244587D01*
X142591610Y-61213226D01*
X142610501Y-61142727D01*
X142610501Y-61037273D01*
X142610501Y-61032744D01*
X142610500Y-61032726D01*
X142610500Y-59700171D01*
X142632174Y-59647845D01*
X142662687Y-59629459D01*
X142829341Y-59578054D01*
X143057620Y-59468121D01*
X143266965Y-59325392D01*
X143429668Y-59174425D01*
X143482767Y-59154724D01*
X143530331Y-59174425D01*
G37*
%TD.AperFunction*%
%TA.AperFunction,NonConductor*%
G36*
X165630781Y-58522174D02*
G01*
X168751931Y-61643323D01*
X168751936Y-61643329D01*
X168754520Y-61645913D01*
X168829087Y-61720480D01*
X168874748Y-61746842D01*
X168874750Y-61746844D01*
X168874750Y-61746843D01*
X168904474Y-61764005D01*
X168920408Y-61773205D01*
X168920410Y-61773205D01*
X168920412Y-61773207D01*
X168920413Y-61773207D01*
X168920415Y-61773208D01*
X168971342Y-61786854D01*
X169022270Y-61800500D01*
X169022271Y-61800501D01*
X169022273Y-61800501D01*
X169132257Y-61800501D01*
X169132273Y-61800500D01*
X195228455Y-61800500D01*
X195280781Y-61822174D01*
X198317050Y-64858443D01*
X198338724Y-64910769D01*
X198317050Y-64963095D01*
X198264724Y-64984769D01*
X198242709Y-64981418D01*
X198129477Y-64946134D01*
X198129466Y-64946132D01*
X198093009Y-64939450D01*
X197817046Y-64888878D01*
X197500000Y-64869701D01*
X197182953Y-64888878D01*
X196870522Y-64946134D01*
X196567289Y-65040625D01*
X196277644Y-65170983D01*
X196277635Y-65170988D01*
X196005819Y-65335306D01*
X195755788Y-65531193D01*
X195539626Y-65747355D01*
X195487300Y-65769029D01*
X195434974Y-65747355D01*
X195423214Y-65732028D01*
X195401384Y-65694218D01*
X195400500Y-65692686D01*
X195307314Y-65599500D01*
X195254864Y-65569218D01*
X195193190Y-65533610D01*
X195193181Y-65533606D01*
X195065894Y-65499500D01*
X195065892Y-65499500D01*
X190065892Y-65499500D01*
X189934108Y-65499500D01*
X189934106Y-65499500D01*
X189806818Y-65533606D01*
X189806809Y-65533610D01*
X189692685Y-65599500D01*
X189599500Y-65692685D01*
X189576785Y-65732029D01*
X189531851Y-65766508D01*
X189475699Y-65759115D01*
X189460373Y-65747355D01*
X189244211Y-65531193D01*
X188994180Y-65335306D01*
X188886834Y-65270413D01*
X188722361Y-65170986D01*
X188722357Y-65170984D01*
X188722355Y-65170983D01*
X188514977Y-65077650D01*
X188432717Y-65040628D01*
X188432715Y-65040627D01*
X188432710Y-65040625D01*
X188129477Y-64946134D01*
X188129466Y-64946132D01*
X188093009Y-64939450D01*
X187817046Y-64888878D01*
X187500000Y-64869701D01*
X187182953Y-64888878D01*
X186870522Y-64946134D01*
X186567289Y-65040625D01*
X186277644Y-65170983D01*
X186277635Y-65170988D01*
X186005819Y-65335306D01*
X185755788Y-65531193D01*
X185531193Y-65755788D01*
X185335306Y-66005819D01*
X185212828Y-66208423D01*
X185167209Y-66241990D01*
X185111217Y-66233468D01*
X185077650Y-66187849D01*
X185075500Y-66170140D01*
X185075500Y-65353799D01*
X185075501Y-65353786D01*
X185075501Y-65242372D01*
X185075500Y-65242371D01*
X185048208Y-65140517D01*
X185048206Y-65140512D01*
X185011957Y-65077727D01*
X184995479Y-65049187D01*
X184918334Y-64972042D01*
X184918323Y-64972032D01*
X183724117Y-63777826D01*
X182425812Y-62479520D01*
X182425809Y-62479518D01*
X182425808Y-62479517D01*
X182334491Y-62426795D01*
X182334487Y-62426793D01*
X182232626Y-62399500D01*
X182232625Y-62399500D01*
X167571545Y-62399500D01*
X167519219Y-62377826D01*
X166200031Y-61058638D01*
X164880051Y-59738658D01*
X164880048Y-59738656D01*
X164880047Y-59738655D01*
X164788730Y-59685933D01*
X164788726Y-59685931D01*
X164686865Y-59658638D01*
X164686864Y-59658638D01*
X160766222Y-59658638D01*
X160713896Y-59636964D01*
X160692222Y-59584638D01*
X160713896Y-59532312D01*
X160734115Y-59517966D01*
X160837620Y-59468121D01*
X161046965Y-59325392D01*
X161232699Y-59153056D01*
X161390673Y-58954963D01*
X161517358Y-58735537D01*
X161591171Y-58547464D01*
X161630464Y-58506674D01*
X161660056Y-58500500D01*
X165578455Y-58500500D01*
X165630781Y-58522174D01*
G37*
%TD.AperFunction*%
%TA.AperFunction,NonConductor*%
G36*
X130337827Y-58672174D02*
G01*
X130359501Y-58724500D01*
X130359501Y-58923082D01*
X130362284Y-58964137D01*
X130406405Y-59141552D01*
X130487634Y-59305336D01*
X130602172Y-59447828D01*
X130744664Y-59562366D01*
X130908448Y-59643595D01*
X131085863Y-59687716D01*
X131126917Y-59690500D01*
X132973082Y-59690499D01*
X133014137Y-59687716D01*
X133191552Y-59643595D01*
X133355336Y-59562366D01*
X133392108Y-59532808D01*
X133446470Y-59516918D01*
X133496146Y-59544122D01*
X133512036Y-59598484D01*
X133490796Y-59642810D01*
X133255781Y-59877826D01*
X133203455Y-59899500D01*
X122433595Y-59899500D01*
X122396595Y-59889586D01*
X122374440Y-59876795D01*
X122374437Y-59876793D01*
X122272576Y-59849500D01*
X122167122Y-59849500D01*
X122116191Y-59863146D01*
X122065260Y-59876793D01*
X122065256Y-59876795D01*
X121973939Y-59929517D01*
X119475630Y-62427826D01*
X119423304Y-62449500D01*
X109472828Y-62449500D01*
X109367374Y-62449500D01*
X109333270Y-62458638D01*
X109265512Y-62476793D01*
X109265508Y-62476795D01*
X109174191Y-62529517D01*
X107079517Y-64624191D01*
X107026795Y-64715508D01*
X107026791Y-64715517D01*
X107016456Y-64754087D01*
X107016457Y-64754088D01*
X107009625Y-64779588D01*
X106999500Y-64817375D01*
X106999500Y-66311715D01*
X106977826Y-66364041D01*
X106925500Y-66385715D01*
X106873174Y-66364041D01*
X106858019Y-66342086D01*
X106829016Y-66277644D01*
X106829014Y-66277639D01*
X106664694Y-66005820D01*
X106468807Y-65755789D01*
X106244211Y-65531193D01*
X105994180Y-65335306D01*
X105722361Y-65170986D01*
X105722357Y-65170984D01*
X105722355Y-65170983D01*
X105514977Y-65077650D01*
X105432717Y-65040628D01*
X105432715Y-65040627D01*
X105432710Y-65040625D01*
X105129477Y-64946134D01*
X105129466Y-64946132D01*
X105093009Y-64939450D01*
X104817046Y-64888878D01*
X104500000Y-64869701D01*
X104182953Y-64888878D01*
X103870522Y-64946134D01*
X103567289Y-65040625D01*
X103277644Y-65170983D01*
X103277635Y-65170988D01*
X103005819Y-65335306D01*
X102755788Y-65531193D01*
X102539626Y-65747355D01*
X102487300Y-65769029D01*
X102434974Y-65747355D01*
X102423214Y-65732028D01*
X102401384Y-65694218D01*
X102400500Y-65692686D01*
X102307314Y-65599500D01*
X102254864Y-65569218D01*
X102193190Y-65533610D01*
X102193181Y-65533606D01*
X102065894Y-65499500D01*
X102065892Y-65499500D01*
X97065892Y-65499500D01*
X96934108Y-65499500D01*
X96934106Y-65499500D01*
X96806818Y-65533606D01*
X96806809Y-65533610D01*
X96692685Y-65599500D01*
X96599500Y-65692685D01*
X96576785Y-65732029D01*
X96531851Y-65766508D01*
X96475699Y-65759115D01*
X96460373Y-65747355D01*
X96244211Y-65531193D01*
X95994180Y-65335306D01*
X95886834Y-65270413D01*
X95722361Y-65170986D01*
X95722357Y-65170984D01*
X95722355Y-65170983D01*
X95514977Y-65077650D01*
X95432717Y-65040628D01*
X95432715Y-65040627D01*
X95432710Y-65040625D01*
X95129477Y-64946134D01*
X95129466Y-64946132D01*
X95093009Y-64939450D01*
X94817046Y-64888878D01*
X94500000Y-64869701D01*
X94182953Y-64888878D01*
X93870522Y-64946134D01*
X93567289Y-65040625D01*
X93277644Y-65170983D01*
X93277635Y-65170988D01*
X93005819Y-65335306D01*
X92755788Y-65531193D01*
X92531193Y-65755788D01*
X92335306Y-66005819D01*
X92170988Y-66277635D01*
X92170986Y-66277638D01*
X92141981Y-66342086D01*
X92100741Y-66380906D01*
X92044129Y-66379196D01*
X92005309Y-66337956D01*
X92000500Y-66311715D01*
X92000500Y-65746544D01*
X92022174Y-65694218D01*
X95844218Y-61872174D01*
X95896544Y-61850500D01*
X119092676Y-61850500D01*
X119092677Y-61850500D01*
X119194538Y-61823207D01*
X119285863Y-61770480D01*
X122384169Y-58672174D01*
X122436495Y-58650500D01*
X127747273Y-58650500D01*
X129797273Y-58650500D01*
X130285501Y-58650500D01*
X130337827Y-58672174D01*
G37*
%TD.AperFunction*%
%TA.AperFunction,NonConductor*%
G36*
X199888783Y-68766531D02*
G01*
X199922350Y-68812150D01*
X199924500Y-68829859D01*
X199924500Y-99978455D01*
X199902826Y-100030781D01*
X199626826Y-100306781D01*
X199574500Y-100328455D01*
X199522174Y-100306781D01*
X199500500Y-100254455D01*
X199500500Y-69934106D01*
X199500499Y-69934105D01*
X199473951Y-69835027D01*
X199466392Y-69806814D01*
X199400500Y-69692686D01*
X199307314Y-69599500D01*
X199267969Y-69576784D01*
X199233492Y-69531852D01*
X199240884Y-69475699D01*
X199252640Y-69460377D01*
X199468807Y-69244211D01*
X199664694Y-68994180D01*
X199787172Y-68791575D01*
X199832791Y-68758009D01*
X199888783Y-68766531D01*
G37*
%TD.AperFunction*%
%TA.AperFunction,NonConductor*%
G36*
X185201826Y-68777533D02*
G01*
X185212828Y-68791576D01*
X185335306Y-68994180D01*
X185531193Y-69244211D01*
X185747355Y-69460373D01*
X185769029Y-69512699D01*
X185747355Y-69565025D01*
X185732029Y-69576785D01*
X185692685Y-69599500D01*
X185599500Y-69692685D01*
X185533610Y-69806809D01*
X185533606Y-69806818D01*
X185499500Y-69934105D01*
X185499500Y-84066910D01*
X185500000Y-84074540D01*
X185500000Y-86418924D01*
X185499811Y-86424203D01*
X185494390Y-86499993D01*
X185494390Y-86500005D01*
X185499811Y-86575794D01*
X185500000Y-86581074D01*
X185500000Y-88925460D01*
X185499500Y-88933097D01*
X185499500Y-100254455D01*
X185477826Y-100306781D01*
X185425500Y-100328455D01*
X185373174Y-100306781D01*
X185097174Y-100030781D01*
X185075500Y-99978455D01*
X185075500Y-68829859D01*
X185097174Y-68777533D01*
X185149500Y-68755859D01*
X185201826Y-68777533D01*
G37*
%TD.AperFunction*%
%TA.AperFunction,NonConductor*%
G36*
X155548715Y-59594758D02*
G01*
X155566464Y-59607857D01*
X157661069Y-61702461D01*
X157661074Y-61702467D01*
X157663658Y-61705051D01*
X157738225Y-61779618D01*
X157829551Y-61832345D01*
X157829552Y-61832345D01*
X157829554Y-61832346D01*
X157880481Y-61845992D01*
X157931408Y-61859638D01*
X157931409Y-61859639D01*
X157931411Y-61859639D01*
X158041395Y-61859639D01*
X158041411Y-61859638D01*
X162912593Y-61859638D01*
X162964919Y-61881312D01*
X165604087Y-64520480D01*
X165695412Y-64573207D01*
X165797273Y-64600500D01*
X181403455Y-64600500D01*
X181455781Y-64622174D01*
X182402826Y-65569218D01*
X182424500Y-65621544D01*
X182424500Y-66170140D01*
X182402826Y-66222466D01*
X182350500Y-66244140D01*
X182298174Y-66222466D01*
X182287172Y-66208423D01*
X182193872Y-66054086D01*
X182164694Y-66005820D01*
X181968807Y-65755789D01*
X181744211Y-65531193D01*
X181494180Y-65335306D01*
X181222361Y-65170986D01*
X181222357Y-65170984D01*
X181222355Y-65170983D01*
X181014977Y-65077650D01*
X180932717Y-65040628D01*
X180932715Y-65040627D01*
X180932710Y-65040625D01*
X180629477Y-64946134D01*
X180629466Y-64946132D01*
X180593009Y-64939450D01*
X180317046Y-64888878D01*
X180000000Y-64869701D01*
X179682953Y-64888878D01*
X179370522Y-64946134D01*
X179067289Y-65040625D01*
X178777644Y-65170983D01*
X178777635Y-65170988D01*
X178505819Y-65335306D01*
X178255788Y-65531193D01*
X178039626Y-65747355D01*
X177987300Y-65769029D01*
X177934974Y-65747355D01*
X177923214Y-65732028D01*
X177901384Y-65694218D01*
X177900500Y-65692686D01*
X177807314Y-65599500D01*
X177754864Y-65569218D01*
X177693190Y-65533610D01*
X177693181Y-65533606D01*
X177565894Y-65499500D01*
X177565892Y-65499500D01*
X172565892Y-65499500D01*
X172434108Y-65499500D01*
X172434106Y-65499500D01*
X172306818Y-65533606D01*
X172306809Y-65533610D01*
X172192685Y-65599500D01*
X172099500Y-65692685D01*
X172076785Y-65732029D01*
X172031851Y-65766508D01*
X171975699Y-65759115D01*
X171960373Y-65747355D01*
X171744211Y-65531193D01*
X171494180Y-65335306D01*
X171386834Y-65270413D01*
X171222361Y-65170986D01*
X171222357Y-65170984D01*
X171222355Y-65170983D01*
X171014977Y-65077650D01*
X170932717Y-65040628D01*
X170932715Y-65040627D01*
X170932710Y-65040625D01*
X170629477Y-64946134D01*
X170629466Y-64946132D01*
X170593009Y-64939450D01*
X170317046Y-64888878D01*
X170000000Y-64869701D01*
X169682953Y-64888878D01*
X169370522Y-64946134D01*
X169067289Y-65040625D01*
X168777644Y-65170983D01*
X168777635Y-65170988D01*
X168505819Y-65335306D01*
X168255788Y-65531193D01*
X168031193Y-65755788D01*
X167835306Y-66005819D01*
X167670988Y-66277635D01*
X167670983Y-66277644D01*
X167540625Y-66567289D01*
X167446134Y-66870522D01*
X167388878Y-67182953D01*
X167369701Y-67500000D01*
X167388878Y-67817046D01*
X167446134Y-68129477D01*
X167540625Y-68432710D01*
X167670983Y-68722355D01*
X167670988Y-68722364D01*
X167835306Y-68994180D01*
X168031193Y-69244211D01*
X168247355Y-69460373D01*
X168269029Y-69512699D01*
X168247355Y-69565025D01*
X168232029Y-69576785D01*
X168192685Y-69599500D01*
X168099500Y-69692685D01*
X168033610Y-69806809D01*
X168033606Y-69806818D01*
X167999500Y-69934105D01*
X167999500Y-100254455D01*
X167977826Y-100306781D01*
X167925500Y-100328455D01*
X167873174Y-100306781D01*
X166047174Y-98480781D01*
X166025500Y-98428455D01*
X166025500Y-66622274D01*
X166013037Y-66575759D01*
X166013037Y-66575758D01*
X165998208Y-66520415D01*
X165998205Y-66520408D01*
X165960202Y-66454587D01*
X165945480Y-66429087D01*
X165870913Y-66354520D01*
X165868334Y-66351941D01*
X165868323Y-66351931D01*
X164033613Y-64517221D01*
X162055051Y-62538658D01*
X162055048Y-62538656D01*
X162055047Y-62538655D01*
X161963730Y-62485933D01*
X161963726Y-62485931D01*
X161929629Y-62476795D01*
X161861865Y-62458638D01*
X161861864Y-62458638D01*
X157055683Y-62458638D01*
X157003357Y-62436964D01*
X154290218Y-59723825D01*
X154268544Y-59671499D01*
X154290218Y-59619173D01*
X154342544Y-59597499D01*
X154364356Y-59600787D01*
X154532773Y-59652737D01*
X154532772Y-59652737D01*
X154764844Y-59687716D01*
X154783315Y-59690500D01*
X154783317Y-59690500D01*
X155036683Y-59690500D01*
X155036685Y-59690500D01*
X155287226Y-59652737D01*
X155492327Y-59589471D01*
X155548715Y-59594758D01*
G37*
%TD.AperFunction*%
%TA.AperFunction,NonConductor*%
G36*
X138450331Y-59174425D02*
G01*
X138613035Y-59325392D01*
X138822380Y-59468121D01*
X139050659Y-59578054D01*
X139217312Y-59629459D01*
X139260924Y-59665593D01*
X139269500Y-59700171D01*
X139269500Y-60705536D01*
X139247826Y-60757862D01*
X137277862Y-62727826D01*
X137225536Y-62749500D01*
X128247273Y-62749500D01*
X128145413Y-62776793D01*
X128145412Y-62776793D01*
X128145410Y-62776794D01*
X128109941Y-62797273D01*
X128054086Y-62829520D01*
X126104517Y-64779090D01*
X126051795Y-64870407D01*
X126051791Y-64870416D01*
X126031503Y-64946131D01*
X126031504Y-64946132D01*
X126024500Y-64972272D01*
X126024500Y-98378455D01*
X126002826Y-98430781D01*
X124126826Y-100306781D01*
X124074500Y-100328455D01*
X124022174Y-100306781D01*
X124000500Y-100254455D01*
X124000500Y-69934106D01*
X124000499Y-69934105D01*
X123973951Y-69835027D01*
X123966392Y-69806814D01*
X123900500Y-69692686D01*
X123807314Y-69599500D01*
X123767969Y-69576784D01*
X123733492Y-69531852D01*
X123740884Y-69475699D01*
X123752640Y-69460377D01*
X123968807Y-69244211D01*
X124164694Y-68994180D01*
X124329014Y-68722361D01*
X124459372Y-68432717D01*
X124553867Y-68129472D01*
X124611121Y-67817048D01*
X124630299Y-67500000D01*
X124611121Y-67182952D01*
X124553867Y-66870528D01*
X124459372Y-66567283D01*
X124329014Y-66277639D01*
X124164694Y-66005820D01*
X123968807Y-65755789D01*
X123744211Y-65531193D01*
X123494180Y-65335306D01*
X123222361Y-65170986D01*
X123222357Y-65170984D01*
X123222355Y-65170983D01*
X123014977Y-65077650D01*
X122932717Y-65040628D01*
X122932715Y-65040627D01*
X122932710Y-65040625D01*
X122629477Y-64946134D01*
X122629466Y-64946132D01*
X122593009Y-64939450D01*
X122317046Y-64888878D01*
X122000000Y-64869701D01*
X121682953Y-64888878D01*
X121370522Y-64946134D01*
X121067289Y-65040625D01*
X120777644Y-65170983D01*
X120777635Y-65170988D01*
X120505819Y-65335306D01*
X120255788Y-65531193D01*
X120039626Y-65747355D01*
X119987300Y-65769029D01*
X119934974Y-65747355D01*
X119923214Y-65732028D01*
X119901384Y-65694218D01*
X119900500Y-65692686D01*
X119807314Y-65599500D01*
X119754864Y-65569218D01*
X119693190Y-65533610D01*
X119693181Y-65533606D01*
X119565894Y-65499500D01*
X119565892Y-65499500D01*
X114565892Y-65499500D01*
X114434108Y-65499500D01*
X114434106Y-65499500D01*
X114306818Y-65533606D01*
X114306809Y-65533610D01*
X114192685Y-65599500D01*
X114099500Y-65692685D01*
X114076785Y-65732029D01*
X114031851Y-65766508D01*
X113975699Y-65759115D01*
X113960373Y-65747355D01*
X113744211Y-65531193D01*
X113494180Y-65335306D01*
X113386834Y-65270413D01*
X113222361Y-65170986D01*
X113222357Y-65170984D01*
X113222355Y-65170983D01*
X113014977Y-65077650D01*
X112932717Y-65040628D01*
X112932715Y-65040627D01*
X112932710Y-65040625D01*
X112629477Y-64946134D01*
X112629466Y-64946132D01*
X112593009Y-64939450D01*
X112317046Y-64888878D01*
X112000000Y-64869701D01*
X111682953Y-64888878D01*
X111370522Y-64946134D01*
X111067289Y-65040625D01*
X110777644Y-65170983D01*
X110777635Y-65170988D01*
X110505819Y-65335306D01*
X110255788Y-65531193D01*
X110031193Y-65755788D01*
X109835306Y-66005819D01*
X109670988Y-66277635D01*
X109670983Y-66277644D01*
X109540625Y-66567289D01*
X109446134Y-66870522D01*
X109388878Y-67182953D01*
X109369701Y-67500000D01*
X109388878Y-67817046D01*
X109446134Y-68129477D01*
X109540625Y-68432710D01*
X109670983Y-68722355D01*
X109670988Y-68722364D01*
X109835306Y-68994180D01*
X110031193Y-69244211D01*
X110247355Y-69460373D01*
X110269029Y-69512699D01*
X110247355Y-69565025D01*
X110232029Y-69576785D01*
X110192685Y-69599500D01*
X110099500Y-69692685D01*
X110033610Y-69806809D01*
X110033606Y-69806818D01*
X109999500Y-69934105D01*
X109999500Y-84066910D01*
X110000000Y-84074540D01*
X110000000Y-86418924D01*
X109999811Y-86424203D01*
X109994390Y-86499993D01*
X109994390Y-86500005D01*
X109999811Y-86575794D01*
X110000000Y-86581074D01*
X110000000Y-88925460D01*
X109999500Y-88933097D01*
X109999500Y-100254455D01*
X109977826Y-100306781D01*
X109925500Y-100328455D01*
X109873174Y-100306781D01*
X109222174Y-99655781D01*
X109200500Y-99603455D01*
X109200500Y-65646545D01*
X109222174Y-65594219D01*
X109377074Y-65439319D01*
X109570480Y-65245913D01*
X109570480Y-65245912D01*
X110119218Y-64697174D01*
X110171544Y-64675500D01*
X120227474Y-64675500D01*
X120227475Y-64675500D01*
X120329336Y-64648207D01*
X120420661Y-64595480D01*
X122843967Y-62172174D01*
X122896293Y-62150500D01*
X136334807Y-62150500D01*
X136334808Y-62150500D01*
X136436669Y-62123207D01*
X136527994Y-62070480D01*
X137445480Y-61152994D01*
X137475787Y-61100500D01*
X137498207Y-61061668D01*
X137525500Y-60959808D01*
X137525500Y-59701714D01*
X137547174Y-59649388D01*
X137577688Y-59631002D01*
X137749341Y-59578054D01*
X137977620Y-59468121D01*
X138186965Y-59325392D01*
X138349668Y-59174425D01*
X138402767Y-59154724D01*
X138450331Y-59174425D01*
G37*
%TD.AperFunction*%
%TA.AperFunction,NonConductor*%
G36*
X106955870Y-68620803D02*
G01*
X106994691Y-68662043D01*
X106999500Y-68688284D01*
X106999500Y-99903455D01*
X106977826Y-99955781D01*
X106626826Y-100306781D01*
X106574500Y-100328455D01*
X106522174Y-100306781D01*
X106500500Y-100254455D01*
X106500500Y-88933097D01*
X106500000Y-88925460D01*
X106500000Y-86581074D01*
X106500189Y-86575794D01*
X106505610Y-86500005D01*
X106505610Y-86499993D01*
X106500189Y-86424203D01*
X106500000Y-86418924D01*
X106500000Y-84074540D01*
X106500500Y-84066910D01*
X106500500Y-69934106D01*
X106500499Y-69934105D01*
X106473951Y-69835027D01*
X106466392Y-69806814D01*
X106400500Y-69692686D01*
X106307314Y-69599500D01*
X106267969Y-69576784D01*
X106233492Y-69531852D01*
X106240884Y-69475699D01*
X106252640Y-69460377D01*
X106468807Y-69244211D01*
X106664694Y-68994180D01*
X106829014Y-68722361D01*
X106858019Y-68657913D01*
X106899259Y-68619093D01*
X106955870Y-68620803D01*
G37*
%TD.AperFunction*%
%TA.AperFunction,NonConductor*%
G36*
X92126826Y-68635958D02*
G01*
X92141981Y-68657914D01*
X92170983Y-68722355D01*
X92170988Y-68722364D01*
X92335306Y-68994180D01*
X92531193Y-69244211D01*
X92747355Y-69460373D01*
X92769029Y-69512699D01*
X92747355Y-69565025D01*
X92732029Y-69576785D01*
X92692685Y-69599500D01*
X92599500Y-69692685D01*
X92533610Y-69806809D01*
X92533606Y-69806818D01*
X92499500Y-69934105D01*
X92499500Y-100254455D01*
X92477826Y-100306781D01*
X92425500Y-100328455D01*
X92373174Y-100306781D01*
X92022174Y-99955781D01*
X92000500Y-99903455D01*
X92000500Y-68688284D01*
X92022174Y-68635958D01*
X92074500Y-68614284D01*
X92126826Y-68635958D01*
G37*
%TD.AperFunction*%
%TA.AperFunction,NonConductor*%
G36*
X162387129Y-66713107D02*
G01*
X162405066Y-66726305D01*
X163327826Y-67649064D01*
X163349500Y-67701390D01*
X163349500Y-98853455D01*
X163327826Y-98905781D01*
X161876826Y-100356781D01*
X161824500Y-100378455D01*
X161772174Y-100356781D01*
X161750500Y-100304455D01*
X161750500Y-69934106D01*
X161750499Y-69934105D01*
X161723951Y-69835027D01*
X161716392Y-69806814D01*
X161650500Y-69692686D01*
X161557314Y-69599500D01*
X161517969Y-69576784D01*
X161483492Y-69531852D01*
X161490884Y-69475699D01*
X161502640Y-69460377D01*
X161718807Y-69244211D01*
X161914694Y-68994180D01*
X162079014Y-68722361D01*
X162209372Y-68432717D01*
X162303867Y-68129472D01*
X162361121Y-67817048D01*
X162380299Y-67500000D01*
X162361121Y-67182952D01*
X162303867Y-66870528D01*
X162282091Y-66800646D01*
X162287216Y-66744242D01*
X162330724Y-66707982D01*
X162387129Y-66713107D01*
G37*
%TD.AperFunction*%
%TA.AperFunction,NonConductor*%
G36*
X130972467Y-65097174D02*
G01*
X130994141Y-65149500D01*
X130972467Y-65201826D01*
X130958424Y-65212828D01*
X130755819Y-65335306D01*
X130505788Y-65531193D01*
X130281193Y-65755788D01*
X130085306Y-66005819D01*
X129920988Y-66277635D01*
X129920983Y-66277644D01*
X129790625Y-66567289D01*
X129696134Y-66870522D01*
X129638878Y-67182953D01*
X129619701Y-67500000D01*
X129638878Y-67817046D01*
X129696134Y-68129477D01*
X129790625Y-68432710D01*
X129920983Y-68722355D01*
X129920988Y-68722364D01*
X130085306Y-68994180D01*
X130281193Y-69244211D01*
X130497355Y-69460373D01*
X130519029Y-69512699D01*
X130497355Y-69565025D01*
X130482029Y-69576785D01*
X130442685Y-69599500D01*
X130349500Y-69692685D01*
X130283610Y-69806809D01*
X130283606Y-69806818D01*
X130249500Y-69934105D01*
X130249500Y-100404455D01*
X130227826Y-100456781D01*
X130175500Y-100478455D01*
X130123174Y-100456781D01*
X128247174Y-98580781D01*
X128225500Y-98528455D01*
X128225500Y-67546545D01*
X128247174Y-67494219D01*
X130644219Y-65097174D01*
X130696545Y-65075500D01*
X130920141Y-65075500D01*
X130972467Y-65097174D01*
G37*
%TD.AperFunction*%
%TA.AperFunction,NonConductor*%
G36*
X144638783Y-68766531D02*
G01*
X144672350Y-68812150D01*
X144674500Y-68829859D01*
X144674500Y-100253455D01*
X144652826Y-100305781D01*
X144376826Y-100581781D01*
X144324500Y-100603455D01*
X144272174Y-100581781D01*
X144250500Y-100529455D01*
X144250500Y-88933097D01*
X144250000Y-88925460D01*
X144250000Y-86581074D01*
X144250189Y-86575794D01*
X144255610Y-86500005D01*
X144255610Y-86499993D01*
X144250189Y-86424203D01*
X144250000Y-86418924D01*
X144250000Y-84074540D01*
X144250500Y-84066910D01*
X144250500Y-69934106D01*
X144250499Y-69934105D01*
X144223951Y-69835027D01*
X144216392Y-69806814D01*
X144150500Y-69692686D01*
X144057314Y-69599500D01*
X144017969Y-69576784D01*
X143983492Y-69531852D01*
X143990884Y-69475699D01*
X144002640Y-69460377D01*
X144218807Y-69244211D01*
X144414694Y-68994180D01*
X144537172Y-68791575D01*
X144582791Y-68758009D01*
X144638783Y-68766531D01*
G37*
%TD.AperFunction*%
%TA.AperFunction,NonConductor*%
G36*
X147451826Y-68777533D02*
G01*
X147462828Y-68791576D01*
X147585306Y-68994180D01*
X147781193Y-69244211D01*
X147997355Y-69460373D01*
X148019029Y-69512699D01*
X147997355Y-69565025D01*
X147982029Y-69576785D01*
X147942685Y-69599500D01*
X147849500Y-69692685D01*
X147783610Y-69806809D01*
X147783606Y-69806818D01*
X147749500Y-69934105D01*
X147749500Y-84066910D01*
X147750000Y-84074540D01*
X147750000Y-86418924D01*
X147749811Y-86424203D01*
X147744390Y-86499993D01*
X147744390Y-86500005D01*
X147749811Y-86575794D01*
X147750000Y-86581074D01*
X147750000Y-88925460D01*
X147749500Y-88933097D01*
X147749500Y-88934108D01*
X147749500Y-100434108D01*
X147749500Y-100565892D01*
X147763389Y-100617726D01*
X147766678Y-100630002D01*
X147759285Y-100686154D01*
X147714351Y-100720633D01*
X147658199Y-100713240D01*
X147642873Y-100701480D01*
X147347174Y-100405781D01*
X147325500Y-100353455D01*
X147325500Y-68829859D01*
X147347174Y-68777533D01*
X147399500Y-68755859D01*
X147451826Y-68777533D01*
G37*
%TD.AperFunction*%
%TA.AperFunction,NonConductor*%
G36*
X182388783Y-68766531D02*
G01*
X182422350Y-68812150D01*
X182424500Y-68829859D01*
X182424500Y-100478454D01*
X182402826Y-100530780D01*
X181875638Y-101057968D01*
X181823312Y-101079642D01*
X181770986Y-101057968D01*
X181752644Y-101039626D01*
X181730970Y-100987300D01*
X181752644Y-100934974D01*
X181767961Y-100923220D01*
X181807314Y-100900500D01*
X181900500Y-100807314D01*
X181966392Y-100693186D01*
X182000499Y-100565894D01*
X182000500Y-100565894D01*
X182000500Y-88933097D01*
X182000000Y-88925460D01*
X182000000Y-86581074D01*
X182000189Y-86575794D01*
X182005610Y-86500005D01*
X182005610Y-86499993D01*
X182000189Y-86424203D01*
X182000000Y-86418924D01*
X182000000Y-84074540D01*
X182000500Y-84066910D01*
X182000500Y-69934106D01*
X182000499Y-69934105D01*
X181973951Y-69835027D01*
X181966392Y-69806814D01*
X181900500Y-69692686D01*
X181807314Y-69599500D01*
X181767969Y-69576784D01*
X181733492Y-69531852D01*
X181740884Y-69475699D01*
X181752640Y-69460377D01*
X181968807Y-69244211D01*
X182164694Y-68994180D01*
X182287172Y-68791575D01*
X182332791Y-68758009D01*
X182388783Y-68766531D01*
G37*
%TD.AperFunction*%
%TA.AperFunction,NonConductor*%
G36*
X189776722Y-104449019D02*
G01*
X189801586Y-104463373D01*
X189806814Y-104466392D01*
X189934105Y-104500499D01*
X189934106Y-104500500D01*
X189934108Y-104500500D01*
X195065894Y-104500500D01*
X195065894Y-104500499D01*
X195193186Y-104466392D01*
X195223275Y-104449019D01*
X195279426Y-104441626D01*
X195323602Y-104474821D01*
X195335304Y-104494177D01*
X195335306Y-104494180D01*
X195531193Y-104744211D01*
X195755789Y-104968807D01*
X196005820Y-105164694D01*
X196277639Y-105329014D01*
X196342086Y-105358019D01*
X196380907Y-105399259D01*
X196379197Y-105455870D01*
X196337957Y-105494691D01*
X196311716Y-105499500D01*
X188688284Y-105499500D01*
X188635958Y-105477826D01*
X188614284Y-105425500D01*
X188635958Y-105373174D01*
X188657914Y-105358019D01*
X188722361Y-105329014D01*
X188994180Y-105164694D01*
X189244211Y-104968807D01*
X189468807Y-104744211D01*
X189664694Y-104494180D01*
X189676395Y-104474822D01*
X189722012Y-104441256D01*
X189776722Y-104449019D01*
G37*
%TD.AperFunction*%
%TA.AperFunction,NonConductor*%
G36*
X158108480Y-59588661D02*
G01*
X158126229Y-59601760D01*
X158904087Y-60379618D01*
X158995412Y-60432345D01*
X159097273Y-60459638D01*
X159202727Y-60459638D01*
X164437593Y-60459638D01*
X164489919Y-60481312D01*
X167129087Y-63120480D01*
X167220412Y-63173207D01*
X167322273Y-63200500D01*
X181983354Y-63200500D01*
X182035680Y-63222174D01*
X184252826Y-65439319D01*
X184274500Y-65491645D01*
X184274500Y-100122273D01*
X184274500Y-100227727D01*
X184288396Y-100279588D01*
X184301793Y-100329588D01*
X184301795Y-100329592D01*
X184354517Y-100420909D01*
X184354518Y-100420910D01*
X184354520Y-100420913D01*
X184854520Y-100920913D01*
X185334688Y-101401081D01*
X185356362Y-101453407D01*
X185340615Y-101499042D01*
X185335313Y-101505809D01*
X185335309Y-101505815D01*
X185170988Y-101777635D01*
X185170983Y-101777644D01*
X185040625Y-102067289D01*
X184946134Y-102370522D01*
X184888878Y-102682953D01*
X184869701Y-103000000D01*
X184888878Y-103317046D01*
X184946134Y-103629477D01*
X185040625Y-103932710D01*
X185040627Y-103932715D01*
X185040628Y-103932717D01*
X185170986Y-104222361D01*
X185335306Y-104494180D01*
X185531193Y-104744211D01*
X185755789Y-104968807D01*
X186005820Y-105164694D01*
X186277639Y-105329014D01*
X186342086Y-105358019D01*
X186380907Y-105399259D01*
X186379197Y-105455870D01*
X186337957Y-105494691D01*
X186311716Y-105499500D01*
X181188284Y-105499500D01*
X181135958Y-105477826D01*
X181114284Y-105425500D01*
X181135958Y-105373174D01*
X181157914Y-105358019D01*
X181222361Y-105329014D01*
X181494180Y-105164694D01*
X181744211Y-104968807D01*
X181968807Y-104744211D01*
X182164694Y-104494180D01*
X182329014Y-104222361D01*
X182459372Y-103932717D01*
X182553867Y-103629472D01*
X182611121Y-103317048D01*
X182630299Y-103000000D01*
X182611121Y-102682952D01*
X182553867Y-102370528D01*
X182459372Y-102067283D01*
X182337479Y-101796449D01*
X182335770Y-101739840D01*
X182352633Y-101713757D01*
X183070910Y-100995481D01*
X183070913Y-100995480D01*
X183145480Y-100920913D01*
X183198207Y-100829587D01*
X183225500Y-100727729D01*
X183225501Y-100727729D01*
X183225501Y-100617744D01*
X183225500Y-100617726D01*
X183225500Y-65483698D01*
X183225501Y-65483685D01*
X183225501Y-65372271D01*
X183225500Y-65372270D01*
X183198208Y-65270416D01*
X183198207Y-65270415D01*
X183198207Y-65270413D01*
X183174597Y-65229520D01*
X183145480Y-65179087D01*
X183070913Y-65104520D01*
X183068334Y-65101941D01*
X183068323Y-65101931D01*
X182483613Y-64517221D01*
X181845913Y-63879520D01*
X181845910Y-63879518D01*
X181845909Y-63879517D01*
X181754592Y-63826795D01*
X181754588Y-63826793D01*
X181652727Y-63799500D01*
X181652726Y-63799500D01*
X166046545Y-63799500D01*
X165994219Y-63777826D01*
X164675031Y-62458638D01*
X163355051Y-61138658D01*
X163355048Y-61138656D01*
X163355047Y-61138655D01*
X163263730Y-61085933D01*
X163263726Y-61085931D01*
X163161865Y-61058638D01*
X163161864Y-61058638D01*
X158180682Y-61058638D01*
X158128356Y-61036964D01*
X157324893Y-60233501D01*
X156808525Y-59717132D01*
X156786852Y-59664808D01*
X156808526Y-59612482D01*
X156860852Y-59590808D01*
X156882664Y-59594096D01*
X157072773Y-59652737D01*
X157072772Y-59652737D01*
X157304844Y-59687716D01*
X157323315Y-59690500D01*
X157323317Y-59690500D01*
X157576683Y-59690500D01*
X157576685Y-59690500D01*
X157827226Y-59652737D01*
X158052093Y-59583374D01*
X158108480Y-59588661D01*
G37*
%TD.AperFunction*%
%TA.AperFunction,NonConductor*%
G36*
X172276722Y-104449019D02*
G01*
X172301586Y-104463373D01*
X172306814Y-104466392D01*
X172434105Y-104500499D01*
X172434106Y-104500500D01*
X172434108Y-104500500D01*
X177565894Y-104500500D01*
X177565894Y-104500499D01*
X177693186Y-104466392D01*
X177723275Y-104449019D01*
X177779426Y-104441626D01*
X177823602Y-104474821D01*
X177835304Y-104494177D01*
X177835306Y-104494180D01*
X178031193Y-104744211D01*
X178255789Y-104968807D01*
X178505820Y-105164694D01*
X178777639Y-105329014D01*
X178842086Y-105358019D01*
X178880907Y-105399259D01*
X178879197Y-105455870D01*
X178837957Y-105494691D01*
X178811716Y-105499500D01*
X171188284Y-105499500D01*
X171135958Y-105477826D01*
X171114284Y-105425500D01*
X171135958Y-105373174D01*
X171157914Y-105358019D01*
X171222361Y-105329014D01*
X171494180Y-105164694D01*
X171744211Y-104968807D01*
X171968807Y-104744211D01*
X172164694Y-104494180D01*
X172176395Y-104474822D01*
X172222012Y-104441256D01*
X172276722Y-104449019D01*
G37*
%TD.AperFunction*%
%TA.AperFunction,NonConductor*%
G36*
X151150331Y-59174425D02*
G01*
X151313035Y-59325392D01*
X151522380Y-59468121D01*
X151750659Y-59578054D01*
X151883963Y-59619173D01*
X151992773Y-59652737D01*
X151992772Y-59652737D01*
X152224844Y-59687716D01*
X152243315Y-59690500D01*
X152243317Y-59690500D01*
X152496683Y-59690500D01*
X152496685Y-59690500D01*
X152747226Y-59652737D01*
X152963791Y-59585935D01*
X153020179Y-59591222D01*
X153037928Y-59604321D01*
X156538657Y-63105050D01*
X156538658Y-63105051D01*
X156613225Y-63179618D01*
X156704551Y-63232345D01*
X156806408Y-63259637D01*
X156806409Y-63259638D01*
X156806411Y-63259638D01*
X161612593Y-63259638D01*
X161664919Y-63281312D01*
X165202826Y-66819218D01*
X165224500Y-66871544D01*
X165224500Y-98572273D01*
X165224500Y-98677727D01*
X165238396Y-98729588D01*
X165251793Y-98779588D01*
X165251795Y-98779592D01*
X165304517Y-98870909D01*
X165304518Y-98870910D01*
X165304520Y-98870913D01*
X166586332Y-100152725D01*
X167834688Y-101401081D01*
X167856362Y-101453407D01*
X167840615Y-101499042D01*
X167835313Y-101505809D01*
X167835309Y-101505815D01*
X167670988Y-101777635D01*
X167670983Y-101777644D01*
X167540625Y-102067289D01*
X167446134Y-102370522D01*
X167388878Y-102682953D01*
X167369701Y-103000000D01*
X167388878Y-103317046D01*
X167446134Y-103629477D01*
X167540625Y-103932710D01*
X167540627Y-103932715D01*
X167540628Y-103932717D01*
X167670986Y-104222361D01*
X167835306Y-104494180D01*
X168031193Y-104744211D01*
X168255789Y-104968807D01*
X168505820Y-105164694D01*
X168777639Y-105329014D01*
X168842086Y-105358019D01*
X168880907Y-105399259D01*
X168879197Y-105455870D01*
X168837957Y-105494691D01*
X168811716Y-105499500D01*
X160938284Y-105499500D01*
X160885958Y-105477826D01*
X160864284Y-105425500D01*
X160885958Y-105373174D01*
X160907914Y-105358019D01*
X160972361Y-105329014D01*
X161244180Y-105164694D01*
X161494211Y-104968807D01*
X161718807Y-104744211D01*
X161914694Y-104494180D01*
X162079014Y-104222361D01*
X162209372Y-103932717D01*
X162303867Y-103629472D01*
X162361121Y-103317048D01*
X162380299Y-103000000D01*
X162361121Y-102682952D01*
X162303867Y-102370528D01*
X162209372Y-102067283D01*
X162079014Y-101777639D01*
X161924294Y-101521701D01*
X161915773Y-101465711D01*
X161935295Y-101431096D01*
X163995910Y-99370481D01*
X163995913Y-99370480D01*
X164070480Y-99295913D01*
X164123207Y-99204587D01*
X164150500Y-99102729D01*
X164150501Y-99102729D01*
X164150501Y-98992744D01*
X164150500Y-98992726D01*
X164150500Y-67563544D01*
X164150501Y-67563531D01*
X164150501Y-67452117D01*
X164150500Y-67452116D01*
X164123208Y-67350262D01*
X164123206Y-67350257D01*
X164098124Y-67306814D01*
X164070480Y-67258933D01*
X163995913Y-67184366D01*
X163993334Y-67181787D01*
X163993323Y-67181777D01*
X162593734Y-65782188D01*
X161166067Y-64354520D01*
X161166064Y-64354518D01*
X161166063Y-64354517D01*
X161074746Y-64301795D01*
X161074742Y-64301793D01*
X161048714Y-64294819D01*
X160972881Y-64274500D01*
X160972880Y-64274500D01*
X153799464Y-64274500D01*
X153747138Y-64252826D01*
X150247174Y-60752862D01*
X150225500Y-60700536D01*
X150225500Y-59701714D01*
X150247174Y-59649388D01*
X150277688Y-59631002D01*
X150449341Y-59578054D01*
X150677620Y-59468121D01*
X150886965Y-59325392D01*
X151049668Y-59174425D01*
X151102767Y-59154724D01*
X151150331Y-59174425D01*
G37*
%TD.AperFunction*%
%TA.AperFunction,NonConductor*%
G36*
X152026722Y-104449019D02*
G01*
X152051586Y-104463373D01*
X152056814Y-104466392D01*
X152184105Y-104500499D01*
X152184106Y-104500500D01*
X152184108Y-104500500D01*
X157315894Y-104500500D01*
X157315894Y-104500499D01*
X157443186Y-104466392D01*
X157473275Y-104449019D01*
X157529426Y-104441626D01*
X157573602Y-104474821D01*
X157585304Y-104494177D01*
X157585306Y-104494180D01*
X157781193Y-104744211D01*
X158005789Y-104968807D01*
X158255820Y-105164694D01*
X158527639Y-105329014D01*
X158592086Y-105358019D01*
X158630907Y-105399259D01*
X158629197Y-105455870D01*
X158587957Y-105494691D01*
X158561716Y-105499500D01*
X150938284Y-105499500D01*
X150885958Y-105477826D01*
X150864284Y-105425500D01*
X150885958Y-105373174D01*
X150907914Y-105358019D01*
X150972361Y-105329014D01*
X151244180Y-105164694D01*
X151494211Y-104968807D01*
X151718807Y-104744211D01*
X151914694Y-104494180D01*
X151926395Y-104474822D01*
X151972012Y-104441256D01*
X152026722Y-104449019D01*
G37*
%TD.AperFunction*%
%TA.AperFunction,NonConductor*%
G36*
X146070331Y-59174425D02*
G01*
X146233035Y-59325392D01*
X146442380Y-59468121D01*
X146670659Y-59578054D01*
X146837312Y-59629459D01*
X146880924Y-59665593D01*
X146889500Y-59700171D01*
X146889500Y-65768301D01*
X146867826Y-65820627D01*
X146604517Y-66083936D01*
X146551795Y-66175253D01*
X146551791Y-66175262D01*
X146542280Y-66210757D01*
X146542281Y-66210758D01*
X146542281Y-66210759D01*
X146524500Y-66277119D01*
X146524500Y-100497273D01*
X146524500Y-100602727D01*
X146546854Y-100686154D01*
X146551793Y-100704588D01*
X146551795Y-100704592D01*
X146604517Y-100795909D01*
X146604518Y-100795910D01*
X146604520Y-100795913D01*
X147025763Y-101217156D01*
X147442254Y-101633647D01*
X147463928Y-101685973D01*
X147453256Y-101724255D01*
X147420989Y-101777632D01*
X147420988Y-101777633D01*
X147290625Y-102067290D01*
X147196134Y-102370522D01*
X147138878Y-102682953D01*
X147119701Y-103000000D01*
X147138878Y-103317046D01*
X147196134Y-103629477D01*
X147290625Y-103932710D01*
X147290627Y-103932715D01*
X147290628Y-103932717D01*
X147420986Y-104222361D01*
X147585306Y-104494180D01*
X147781193Y-104744211D01*
X148005789Y-104968807D01*
X148255820Y-105164694D01*
X148527639Y-105329014D01*
X148592086Y-105358019D01*
X148630907Y-105399259D01*
X148629197Y-105455870D01*
X148587957Y-105494691D01*
X148561716Y-105499500D01*
X143438284Y-105499500D01*
X143385958Y-105477826D01*
X143364284Y-105425500D01*
X143385958Y-105373174D01*
X143407914Y-105358019D01*
X143472361Y-105329014D01*
X143744180Y-105164694D01*
X143994211Y-104968807D01*
X144218807Y-104744211D01*
X144414694Y-104494180D01*
X144579014Y-104222361D01*
X144709372Y-103932717D01*
X144803867Y-103629472D01*
X144861121Y-103317048D01*
X144880299Y-103000000D01*
X144861121Y-102682952D01*
X144803867Y-102370528D01*
X144709372Y-102067283D01*
X144579014Y-101777639D01*
X144579010Y-101777633D01*
X144516750Y-101674642D01*
X144509065Y-101661930D01*
X144500544Y-101605940D01*
X144520066Y-101571325D01*
X145320910Y-100770481D01*
X145320913Y-100770480D01*
X145395480Y-100695913D01*
X145448207Y-100604587D01*
X145456001Y-100575500D01*
X145468339Y-100529455D01*
X145475501Y-100502728D01*
X145475501Y-100392744D01*
X145475500Y-100392726D01*
X145475500Y-66277117D01*
X145475499Y-66277116D01*
X145457718Y-66210757D01*
X145448207Y-66175259D01*
X145395480Y-66083933D01*
X145320913Y-66009366D01*
X145172174Y-65860627D01*
X145150500Y-65808301D01*
X145150500Y-59700171D01*
X145172174Y-59647845D01*
X145202687Y-59629459D01*
X145369341Y-59578054D01*
X145597620Y-59468121D01*
X145806965Y-59325392D01*
X145969668Y-59174425D01*
X146022767Y-59154724D01*
X146070331Y-59174425D01*
G37*
%TD.AperFunction*%
%TA.AperFunction,NonConductor*%
G36*
X134526722Y-104449019D02*
G01*
X134551586Y-104463373D01*
X134556814Y-104466392D01*
X134684105Y-104500499D01*
X134684106Y-104500500D01*
X134684108Y-104500500D01*
X139815894Y-104500500D01*
X139815894Y-104500499D01*
X139943186Y-104466392D01*
X139973275Y-104449019D01*
X140029426Y-104441626D01*
X140073602Y-104474821D01*
X140085304Y-104494177D01*
X140085306Y-104494180D01*
X140281193Y-104744211D01*
X140505789Y-104968807D01*
X140755820Y-105164694D01*
X141027639Y-105329014D01*
X141092086Y-105358019D01*
X141130907Y-105399259D01*
X141129197Y-105455870D01*
X141087957Y-105494691D01*
X141061716Y-105499500D01*
X133438284Y-105499500D01*
X133385958Y-105477826D01*
X133364284Y-105425500D01*
X133385958Y-105373174D01*
X133407914Y-105358019D01*
X133472361Y-105329014D01*
X133744180Y-105164694D01*
X133994211Y-104968807D01*
X134218807Y-104744211D01*
X134414694Y-104494180D01*
X134426395Y-104474822D01*
X134472012Y-104441256D01*
X134526722Y-104449019D01*
G37*
%TD.AperFunction*%
%TA.AperFunction,NonConductor*%
G36*
X140990331Y-59174425D02*
G01*
X141153035Y-59325392D01*
X141362380Y-59468121D01*
X141590659Y-59578054D01*
X141757312Y-59629459D01*
X141800924Y-59665593D01*
X141809500Y-59700171D01*
X141809500Y-60893455D01*
X141787826Y-60945781D01*
X138480781Y-64252826D01*
X138428455Y-64274500D01*
X130552727Y-64274500D01*
X130447273Y-64274500D01*
X130396342Y-64288146D01*
X130345411Y-64301793D01*
X130345407Y-64301795D01*
X130254090Y-64354517D01*
X127504517Y-67104090D01*
X127451792Y-67195412D01*
X127451793Y-67195413D01*
X127424500Y-67297273D01*
X127424500Y-98672273D01*
X127424500Y-98777727D01*
X127444791Y-98853455D01*
X127451793Y-98879588D01*
X127451795Y-98879592D01*
X127504517Y-98970909D01*
X127504518Y-98970910D01*
X127504520Y-98970913D01*
X128787062Y-100253455D01*
X130027025Y-101493418D01*
X130048699Y-101545744D01*
X130038027Y-101584027D01*
X129920988Y-101777635D01*
X129920983Y-101777644D01*
X129790625Y-102067289D01*
X129696134Y-102370522D01*
X129638878Y-102682953D01*
X129619701Y-103000000D01*
X129638878Y-103317046D01*
X129696134Y-103629477D01*
X129790625Y-103932710D01*
X129790627Y-103932715D01*
X129790628Y-103932717D01*
X129920986Y-104222361D01*
X130085306Y-104494180D01*
X130281193Y-104744211D01*
X130505789Y-104968807D01*
X130755820Y-105164694D01*
X131027639Y-105329014D01*
X131092086Y-105358019D01*
X131130907Y-105399259D01*
X131129197Y-105455870D01*
X131087957Y-105494691D01*
X131061716Y-105499500D01*
X123188284Y-105499500D01*
X123135958Y-105477826D01*
X123114284Y-105425500D01*
X123135958Y-105373174D01*
X123157914Y-105358019D01*
X123222361Y-105329014D01*
X123494180Y-105164694D01*
X123744211Y-104968807D01*
X123968807Y-104744211D01*
X124164694Y-104494180D01*
X124329014Y-104222361D01*
X124459372Y-103932717D01*
X124553867Y-103629472D01*
X124611121Y-103317048D01*
X124630299Y-103000000D01*
X124611121Y-102682952D01*
X124553867Y-102370528D01*
X124459372Y-102067283D01*
X124329014Y-101777639D01*
X124164694Y-101505820D01*
X124159385Y-101499044D01*
X124144175Y-101444490D01*
X124165309Y-101401082D01*
X126745480Y-98820913D01*
X126798207Y-98729588D01*
X126825500Y-98627727D01*
X126825500Y-98522273D01*
X126825500Y-67972273D01*
X126825500Y-65221545D01*
X126847174Y-65169219D01*
X128444219Y-63572174D01*
X128496545Y-63550500D01*
X137474807Y-63550500D01*
X137474808Y-63550500D01*
X137576669Y-63523207D01*
X137667994Y-63470480D01*
X139915910Y-61222562D01*
X139915913Y-61222561D01*
X139990480Y-61147994D01*
X140043207Y-61056668D01*
X140070500Y-60954810D01*
X140070501Y-60954810D01*
X140070501Y-60844825D01*
X140070500Y-60844807D01*
X140070500Y-59700171D01*
X140092174Y-59647845D01*
X140122687Y-59629459D01*
X140289341Y-59578054D01*
X140517620Y-59468121D01*
X140726965Y-59325392D01*
X140889668Y-59174425D01*
X140942767Y-59154724D01*
X140990331Y-59174425D01*
G37*
%TD.AperFunction*%
%TA.AperFunction,NonConductor*%
G36*
X114276722Y-104449019D02*
G01*
X114301586Y-104463373D01*
X114306814Y-104466392D01*
X114434105Y-104500499D01*
X114434106Y-104500500D01*
X114434108Y-104500500D01*
X119565894Y-104500500D01*
X119565894Y-104500499D01*
X119693186Y-104466392D01*
X119723275Y-104449019D01*
X119779426Y-104441626D01*
X119823602Y-104474821D01*
X119835304Y-104494177D01*
X119835306Y-104494180D01*
X120031193Y-104744211D01*
X120255789Y-104968807D01*
X120505820Y-105164694D01*
X120777639Y-105329014D01*
X120842086Y-105358019D01*
X120880907Y-105399259D01*
X120879197Y-105455870D01*
X120837957Y-105494691D01*
X120811716Y-105499500D01*
X113188284Y-105499500D01*
X113135958Y-105477826D01*
X113114284Y-105425500D01*
X113135958Y-105373174D01*
X113157914Y-105358019D01*
X113222361Y-105329014D01*
X113494180Y-105164694D01*
X113744211Y-104968807D01*
X113968807Y-104744211D01*
X114164694Y-104494180D01*
X114176395Y-104474822D01*
X114222012Y-104441256D01*
X114276722Y-104449019D01*
G37*
%TD.AperFunction*%
%TA.AperFunction,NonConductor*%
G36*
X135910331Y-59174425D02*
G01*
X136073035Y-59325392D01*
X136282380Y-59468121D01*
X136510659Y-59578054D01*
X136672312Y-59627917D01*
X136715924Y-59664051D01*
X136724500Y-59698629D01*
X136724500Y-60710536D01*
X136702826Y-60762862D01*
X136137862Y-61327826D01*
X136085536Y-61349500D01*
X122752475Y-61349500D01*
X122647021Y-61349500D01*
X122596090Y-61363146D01*
X122545159Y-61376793D01*
X122545155Y-61376795D01*
X122453838Y-61429517D01*
X120030529Y-63852826D01*
X119978203Y-63874500D01*
X110027725Y-63874500D01*
X109922272Y-63874500D01*
X109903537Y-63879520D01*
X109820410Y-63901793D01*
X109820406Y-63901795D01*
X109729089Y-63954517D01*
X108999867Y-64683739D01*
X108479517Y-65204090D01*
X108426795Y-65295407D01*
X108426791Y-65295416D01*
X108407046Y-65369104D01*
X108407047Y-65369105D01*
X108399999Y-65395412D01*
X108399500Y-65397273D01*
X108399500Y-99747273D01*
X108399500Y-99852727D01*
X108421305Y-99934107D01*
X108426793Y-99954588D01*
X108426795Y-99954592D01*
X108479517Y-100045909D01*
X108479518Y-100045910D01*
X108479520Y-100045913D01*
X109161334Y-100727727D01*
X109834688Y-101401081D01*
X109856362Y-101453407D01*
X109840615Y-101499042D01*
X109835313Y-101505809D01*
X109835309Y-101505815D01*
X109670988Y-101777635D01*
X109670983Y-101777644D01*
X109540625Y-102067289D01*
X109446134Y-102370522D01*
X109388878Y-102682953D01*
X109369701Y-103000000D01*
X109388878Y-103317046D01*
X109446134Y-103629477D01*
X109540625Y-103932710D01*
X109540627Y-103932715D01*
X109540628Y-103932717D01*
X109670986Y-104222361D01*
X109835306Y-104494180D01*
X110031193Y-104744211D01*
X110255789Y-104968807D01*
X110505820Y-105164694D01*
X110777639Y-105329014D01*
X110842086Y-105358019D01*
X110880907Y-105399259D01*
X110879197Y-105455870D01*
X110837957Y-105494691D01*
X110811716Y-105499500D01*
X105688284Y-105499500D01*
X105635958Y-105477826D01*
X105614284Y-105425500D01*
X105635958Y-105373174D01*
X105657914Y-105358019D01*
X105722361Y-105329014D01*
X105994180Y-105164694D01*
X106244211Y-104968807D01*
X106468807Y-104744211D01*
X106664694Y-104494180D01*
X106829014Y-104222361D01*
X106959372Y-103932717D01*
X107053867Y-103629472D01*
X107111121Y-103317048D01*
X107130299Y-103000000D01*
X107111121Y-102682952D01*
X107053867Y-102370528D01*
X106959372Y-102067283D01*
X106829014Y-101777639D01*
X106664694Y-101505820D01*
X106659385Y-101499044D01*
X106644175Y-101444490D01*
X106665309Y-101401083D01*
X107720480Y-100345913D01*
X107744628Y-100304087D01*
X107773207Y-100254587D01*
X107800499Y-100152729D01*
X107800500Y-100152729D01*
X107800500Y-65066646D01*
X107822174Y-65014320D01*
X109564320Y-63272174D01*
X109616646Y-63250500D01*
X119672575Y-63250500D01*
X119672576Y-63250500D01*
X119774437Y-63223207D01*
X119865762Y-63170480D01*
X122314068Y-60722174D01*
X122366394Y-60700500D01*
X133452726Y-60700500D01*
X133452727Y-60700500D01*
X133554588Y-60673207D01*
X133645913Y-60620480D01*
X134554219Y-59712174D01*
X134606545Y-59690500D01*
X134716683Y-59690500D01*
X134716685Y-59690500D01*
X134967226Y-59652737D01*
X135209341Y-59578054D01*
X135437620Y-59468121D01*
X135646965Y-59325392D01*
X135809668Y-59174425D01*
X135862767Y-59154724D01*
X135910331Y-59174425D01*
G37*
%TD.AperFunction*%
%TA.AperFunction,NonConductor*%
G36*
X96776722Y-104449019D02*
G01*
X96801586Y-104463373D01*
X96806814Y-104466392D01*
X96934105Y-104500499D01*
X96934106Y-104500500D01*
X96934108Y-104500500D01*
X102065894Y-104500500D01*
X102065894Y-104500499D01*
X102193186Y-104466392D01*
X102223275Y-104449019D01*
X102279426Y-104441626D01*
X102323602Y-104474821D01*
X102335304Y-104494177D01*
X102335306Y-104494180D01*
X102531193Y-104744211D01*
X102755789Y-104968807D01*
X103005820Y-105164694D01*
X103277639Y-105329014D01*
X103342086Y-105358019D01*
X103380907Y-105399259D01*
X103379197Y-105455870D01*
X103337957Y-105494691D01*
X103311716Y-105499500D01*
X95688284Y-105499500D01*
X95635958Y-105477826D01*
X95614284Y-105425500D01*
X95635958Y-105373174D01*
X95657914Y-105358019D01*
X95722361Y-105329014D01*
X95994180Y-105164694D01*
X96244211Y-104968807D01*
X96468807Y-104744211D01*
X96664694Y-104494180D01*
X96676395Y-104474822D01*
X96722012Y-104441256D01*
X96776722Y-104449019D01*
G37*
%TD.AperFunction*%
M02*
