%TF.GenerationSoftware,KiCad,Pcbnew,8.0.2*%
%TF.CreationDate,2024-05-23T18:59:23-04:00*%
%TF.ProjectId,UpperPOGO,55707065-7250-44f4-974f-2e6b69636164,rev?*%
%TF.SameCoordinates,Original*%
%TF.FileFunction,Legend,Top*%
%TF.FilePolarity,Positive*%
%FSLAX46Y46*%
G04 Gerber Fmt 4.6, Leading zero omitted, Abs format (unit mm)*
G04 Created by KiCad (PCBNEW 8.0.2) date 2024-05-23 18:59:23*
%MOMM*%
%LPD*%
G01*
G04 APERTURE LIST*
%ADD10C,0.150000*%
%ADD11C,0.120000*%
G04 APERTURE END LIST*
D10*
X87833402Y-74699873D02*
X87023879Y-74699873D01*
X87023879Y-74699873D02*
X86928641Y-74747492D01*
X86928641Y-74747492D02*
X86881022Y-74795111D01*
X86881022Y-74795111D02*
X86833402Y-74890349D01*
X86833402Y-74890349D02*
X86833402Y-75080825D01*
X86833402Y-75080825D02*
X86881022Y-75176063D01*
X86881022Y-75176063D02*
X86928641Y-75223682D01*
X86928641Y-75223682D02*
X87023879Y-75271301D01*
X87023879Y-75271301D02*
X87833402Y-75271301D01*
X87500069Y-75747492D02*
X86500069Y-75747492D01*
X87452450Y-75747492D02*
X87500069Y-75842730D01*
X87500069Y-75842730D02*
X87500069Y-76033206D01*
X87500069Y-76033206D02*
X87452450Y-76128444D01*
X87452450Y-76128444D02*
X87404831Y-76176063D01*
X87404831Y-76176063D02*
X87309593Y-76223682D01*
X87309593Y-76223682D02*
X87023879Y-76223682D01*
X87023879Y-76223682D02*
X86928641Y-76176063D01*
X86928641Y-76176063D02*
X86881022Y-76128444D01*
X86881022Y-76128444D02*
X86833402Y-76033206D01*
X86833402Y-76033206D02*
X86833402Y-75842730D01*
X86833402Y-75842730D02*
X86881022Y-75747492D01*
X87500069Y-76652254D02*
X86500069Y-76652254D01*
X87452450Y-76652254D02*
X87500069Y-76747492D01*
X87500069Y-76747492D02*
X87500069Y-76937968D01*
X87500069Y-76937968D02*
X87452450Y-77033206D01*
X87452450Y-77033206D02*
X87404831Y-77080825D01*
X87404831Y-77080825D02*
X87309593Y-77128444D01*
X87309593Y-77128444D02*
X87023879Y-77128444D01*
X87023879Y-77128444D02*
X86928641Y-77080825D01*
X86928641Y-77080825D02*
X86881022Y-77033206D01*
X86881022Y-77033206D02*
X86833402Y-76937968D01*
X86833402Y-76937968D02*
X86833402Y-76747492D01*
X86833402Y-76747492D02*
X86881022Y-76652254D01*
X86881022Y-77937968D02*
X86833402Y-77842730D01*
X86833402Y-77842730D02*
X86833402Y-77652254D01*
X86833402Y-77652254D02*
X86881022Y-77557016D01*
X86881022Y-77557016D02*
X86976260Y-77509397D01*
X86976260Y-77509397D02*
X87357212Y-77509397D01*
X87357212Y-77509397D02*
X87452450Y-77557016D01*
X87452450Y-77557016D02*
X87500069Y-77652254D01*
X87500069Y-77652254D02*
X87500069Y-77842730D01*
X87500069Y-77842730D02*
X87452450Y-77937968D01*
X87452450Y-77937968D02*
X87357212Y-77985587D01*
X87357212Y-77985587D02*
X87261974Y-77985587D01*
X87261974Y-77985587D02*
X87166736Y-77509397D01*
X86833402Y-78414159D02*
X87500069Y-78414159D01*
X87309593Y-78414159D02*
X87404831Y-78461778D01*
X87404831Y-78461778D02*
X87452450Y-78509397D01*
X87452450Y-78509397D02*
X87500069Y-78604635D01*
X87500069Y-78604635D02*
X87500069Y-78699873D01*
X86833402Y-79795112D02*
X87833402Y-79795112D01*
X87833402Y-79795112D02*
X87833402Y-80176064D01*
X87833402Y-80176064D02*
X87785783Y-80271302D01*
X87785783Y-80271302D02*
X87738164Y-80318921D01*
X87738164Y-80318921D02*
X87642926Y-80366540D01*
X87642926Y-80366540D02*
X87500069Y-80366540D01*
X87500069Y-80366540D02*
X87404831Y-80318921D01*
X87404831Y-80318921D02*
X87357212Y-80271302D01*
X87357212Y-80271302D02*
X87309593Y-80176064D01*
X87309593Y-80176064D02*
X87309593Y-79795112D01*
X87833402Y-80985588D02*
X87833402Y-81176064D01*
X87833402Y-81176064D02*
X87785783Y-81271302D01*
X87785783Y-81271302D02*
X87690545Y-81366540D01*
X87690545Y-81366540D02*
X87500069Y-81414159D01*
X87500069Y-81414159D02*
X87166736Y-81414159D01*
X87166736Y-81414159D02*
X86976260Y-81366540D01*
X86976260Y-81366540D02*
X86881022Y-81271302D01*
X86881022Y-81271302D02*
X86833402Y-81176064D01*
X86833402Y-81176064D02*
X86833402Y-80985588D01*
X86833402Y-80985588D02*
X86881022Y-80890350D01*
X86881022Y-80890350D02*
X86976260Y-80795112D01*
X86976260Y-80795112D02*
X87166736Y-80747493D01*
X87166736Y-80747493D02*
X87500069Y-80747493D01*
X87500069Y-80747493D02*
X87690545Y-80795112D01*
X87690545Y-80795112D02*
X87785783Y-80890350D01*
X87785783Y-80890350D02*
X87833402Y-80985588D01*
X87785783Y-82366540D02*
X87833402Y-82271302D01*
X87833402Y-82271302D02*
X87833402Y-82128445D01*
X87833402Y-82128445D02*
X87785783Y-81985588D01*
X87785783Y-81985588D02*
X87690545Y-81890350D01*
X87690545Y-81890350D02*
X87595307Y-81842731D01*
X87595307Y-81842731D02*
X87404831Y-81795112D01*
X87404831Y-81795112D02*
X87261974Y-81795112D01*
X87261974Y-81795112D02*
X87071498Y-81842731D01*
X87071498Y-81842731D02*
X86976260Y-81890350D01*
X86976260Y-81890350D02*
X86881022Y-81985588D01*
X86881022Y-81985588D02*
X86833402Y-82128445D01*
X86833402Y-82128445D02*
X86833402Y-82223683D01*
X86833402Y-82223683D02*
X86881022Y-82366540D01*
X86881022Y-82366540D02*
X86928641Y-82414159D01*
X86928641Y-82414159D02*
X87261974Y-82414159D01*
X87261974Y-82414159D02*
X87261974Y-82223683D01*
X87833402Y-83033207D02*
X87833402Y-83223683D01*
X87833402Y-83223683D02*
X87785783Y-83318921D01*
X87785783Y-83318921D02*
X87690545Y-83414159D01*
X87690545Y-83414159D02*
X87500069Y-83461778D01*
X87500069Y-83461778D02*
X87166736Y-83461778D01*
X87166736Y-83461778D02*
X86976260Y-83414159D01*
X86976260Y-83414159D02*
X86881022Y-83318921D01*
X86881022Y-83318921D02*
X86833402Y-83223683D01*
X86833402Y-83223683D02*
X86833402Y-83033207D01*
X86833402Y-83033207D02*
X86881022Y-82937969D01*
X86881022Y-82937969D02*
X86976260Y-82842731D01*
X86976260Y-82842731D02*
X87166736Y-82795112D01*
X87166736Y-82795112D02*
X87500069Y-82795112D01*
X87500069Y-82795112D02*
X87690545Y-82842731D01*
X87690545Y-82842731D02*
X87785783Y-82937969D01*
X87785783Y-82937969D02*
X87833402Y-83033207D01*
X86833402Y-84652255D02*
X87833402Y-84652255D01*
X87833402Y-84652255D02*
X87833402Y-84890350D01*
X87833402Y-84890350D02*
X87785783Y-85033207D01*
X87785783Y-85033207D02*
X87690545Y-85128445D01*
X87690545Y-85128445D02*
X87595307Y-85176064D01*
X87595307Y-85176064D02*
X87404831Y-85223683D01*
X87404831Y-85223683D02*
X87261974Y-85223683D01*
X87261974Y-85223683D02*
X87071498Y-85176064D01*
X87071498Y-85176064D02*
X86976260Y-85128445D01*
X86976260Y-85128445D02*
X86881022Y-85033207D01*
X86881022Y-85033207D02*
X86833402Y-84890350D01*
X86833402Y-84890350D02*
X86833402Y-84652255D01*
X86881022Y-86033207D02*
X86833402Y-85937969D01*
X86833402Y-85937969D02*
X86833402Y-85747493D01*
X86833402Y-85747493D02*
X86881022Y-85652255D01*
X86881022Y-85652255D02*
X86976260Y-85604636D01*
X86976260Y-85604636D02*
X87357212Y-85604636D01*
X87357212Y-85604636D02*
X87452450Y-85652255D01*
X87452450Y-85652255D02*
X87500069Y-85747493D01*
X87500069Y-85747493D02*
X87500069Y-85937969D01*
X87500069Y-85937969D02*
X87452450Y-86033207D01*
X87452450Y-86033207D02*
X87357212Y-86080826D01*
X87357212Y-86080826D02*
X87261974Y-86080826D01*
X87261974Y-86080826D02*
X87166736Y-85604636D01*
X86881022Y-86461779D02*
X86833402Y-86557017D01*
X86833402Y-86557017D02*
X86833402Y-86747493D01*
X86833402Y-86747493D02*
X86881022Y-86842731D01*
X86881022Y-86842731D02*
X86976260Y-86890350D01*
X86976260Y-86890350D02*
X87023879Y-86890350D01*
X87023879Y-86890350D02*
X87119117Y-86842731D01*
X87119117Y-86842731D02*
X87166736Y-86747493D01*
X87166736Y-86747493D02*
X87166736Y-86604636D01*
X87166736Y-86604636D02*
X87214355Y-86509398D01*
X87214355Y-86509398D02*
X87309593Y-86461779D01*
X87309593Y-86461779D02*
X87357212Y-86461779D01*
X87357212Y-86461779D02*
X87452450Y-86509398D01*
X87452450Y-86509398D02*
X87500069Y-86604636D01*
X87500069Y-86604636D02*
X87500069Y-86747493D01*
X87500069Y-86747493D02*
X87452450Y-86842731D01*
X86833402Y-87318922D02*
X87500069Y-87318922D01*
X87833402Y-87318922D02*
X87785783Y-87271303D01*
X87785783Y-87271303D02*
X87738164Y-87318922D01*
X87738164Y-87318922D02*
X87785783Y-87366541D01*
X87785783Y-87366541D02*
X87833402Y-87318922D01*
X87833402Y-87318922D02*
X87738164Y-87318922D01*
X87500069Y-88223683D02*
X86690545Y-88223683D01*
X86690545Y-88223683D02*
X86595307Y-88176064D01*
X86595307Y-88176064D02*
X86547688Y-88128445D01*
X86547688Y-88128445D02*
X86500069Y-88033207D01*
X86500069Y-88033207D02*
X86500069Y-87890350D01*
X86500069Y-87890350D02*
X86547688Y-87795112D01*
X86881022Y-88223683D02*
X86833402Y-88128445D01*
X86833402Y-88128445D02*
X86833402Y-87937969D01*
X86833402Y-87937969D02*
X86881022Y-87842731D01*
X86881022Y-87842731D02*
X86928641Y-87795112D01*
X86928641Y-87795112D02*
X87023879Y-87747493D01*
X87023879Y-87747493D02*
X87309593Y-87747493D01*
X87309593Y-87747493D02*
X87404831Y-87795112D01*
X87404831Y-87795112D02*
X87452450Y-87842731D01*
X87452450Y-87842731D02*
X87500069Y-87937969D01*
X87500069Y-87937969D02*
X87500069Y-88128445D01*
X87500069Y-88128445D02*
X87452450Y-88223683D01*
X87500069Y-88699874D02*
X86833402Y-88699874D01*
X87404831Y-88699874D02*
X87452450Y-88747493D01*
X87452450Y-88747493D02*
X87500069Y-88842731D01*
X87500069Y-88842731D02*
X87500069Y-88985588D01*
X87500069Y-88985588D02*
X87452450Y-89080826D01*
X87452450Y-89080826D02*
X87357212Y-89128445D01*
X87357212Y-89128445D02*
X86833402Y-89128445D01*
X87500069Y-90271303D02*
X86833402Y-90509398D01*
X86833402Y-90509398D02*
X87500069Y-90747493D01*
X87833402Y-91033208D02*
X87833402Y-91652255D01*
X87833402Y-91652255D02*
X87452450Y-91318922D01*
X87452450Y-91318922D02*
X87452450Y-91461779D01*
X87452450Y-91461779D02*
X87404831Y-91557017D01*
X87404831Y-91557017D02*
X87357212Y-91604636D01*
X87357212Y-91604636D02*
X87261974Y-91652255D01*
X87261974Y-91652255D02*
X87023879Y-91652255D01*
X87023879Y-91652255D02*
X86928641Y-91604636D01*
X86928641Y-91604636D02*
X86881022Y-91557017D01*
X86881022Y-91557017D02*
X86833402Y-91461779D01*
X86833402Y-91461779D02*
X86833402Y-91176065D01*
X86833402Y-91176065D02*
X86881022Y-91080827D01*
X86881022Y-91080827D02*
X86928641Y-91033208D01*
X85128220Y-75366539D02*
X85175839Y-75271301D01*
X85175839Y-75271301D02*
X85271078Y-75176063D01*
X85271078Y-75176063D02*
X85413935Y-75033206D01*
X85413935Y-75033206D02*
X85461554Y-74937968D01*
X85461554Y-74937968D02*
X85461554Y-74842730D01*
X85223458Y-74890349D02*
X85271078Y-74795111D01*
X85271078Y-74795111D02*
X85366316Y-74699873D01*
X85366316Y-74699873D02*
X85556792Y-74652254D01*
X85556792Y-74652254D02*
X85890125Y-74652254D01*
X85890125Y-74652254D02*
X86080601Y-74699873D01*
X86080601Y-74699873D02*
X86175839Y-74795111D01*
X86175839Y-74795111D02*
X86223458Y-74890349D01*
X86223458Y-74890349D02*
X86223458Y-75080825D01*
X86223458Y-75080825D02*
X86175839Y-75176063D01*
X86175839Y-75176063D02*
X86080601Y-75271301D01*
X86080601Y-75271301D02*
X85890125Y-75318920D01*
X85890125Y-75318920D02*
X85556792Y-75318920D01*
X85556792Y-75318920D02*
X85366316Y-75271301D01*
X85366316Y-75271301D02*
X85271078Y-75176063D01*
X85271078Y-75176063D02*
X85223458Y-75080825D01*
X85223458Y-75080825D02*
X85223458Y-74890349D01*
X85509173Y-75699873D02*
X85509173Y-76176063D01*
X85223458Y-75604635D02*
X86223458Y-75937968D01*
X86223458Y-75937968D02*
X85223458Y-76271301D01*
X86223458Y-76461778D02*
X86223458Y-77033206D01*
X85223458Y-76747492D02*
X86223458Y-76747492D01*
X85318697Y-77937968D02*
X85271078Y-77890349D01*
X85271078Y-77890349D02*
X85223458Y-77747492D01*
X85223458Y-77747492D02*
X85223458Y-77652254D01*
X85223458Y-77652254D02*
X85271078Y-77509397D01*
X85271078Y-77509397D02*
X85366316Y-77414159D01*
X85366316Y-77414159D02*
X85461554Y-77366540D01*
X85461554Y-77366540D02*
X85652030Y-77318921D01*
X85652030Y-77318921D02*
X85794887Y-77318921D01*
X85794887Y-77318921D02*
X85985363Y-77366540D01*
X85985363Y-77366540D02*
X86080601Y-77414159D01*
X86080601Y-77414159D02*
X86175839Y-77509397D01*
X86175839Y-77509397D02*
X86223458Y-77652254D01*
X86223458Y-77652254D02*
X86223458Y-77747492D01*
X86223458Y-77747492D02*
X86175839Y-77890349D01*
X86175839Y-77890349D02*
X86128220Y-77937968D01*
X85223458Y-78366540D02*
X86223458Y-78366540D01*
X85747268Y-78366540D02*
X85747268Y-78937968D01*
X85223458Y-78937968D02*
X86223458Y-78937968D01*
X86223458Y-80033207D02*
X86223458Y-80604635D01*
X85223458Y-80318921D02*
X86223458Y-80318921D01*
X85271078Y-81318921D02*
X85223458Y-81223683D01*
X85223458Y-81223683D02*
X85223458Y-81033207D01*
X85223458Y-81033207D02*
X85271078Y-80937969D01*
X85271078Y-80937969D02*
X85366316Y-80890350D01*
X85366316Y-80890350D02*
X85747268Y-80890350D01*
X85747268Y-80890350D02*
X85842506Y-80937969D01*
X85842506Y-80937969D02*
X85890125Y-81033207D01*
X85890125Y-81033207D02*
X85890125Y-81223683D01*
X85890125Y-81223683D02*
X85842506Y-81318921D01*
X85842506Y-81318921D02*
X85747268Y-81366540D01*
X85747268Y-81366540D02*
X85652030Y-81366540D01*
X85652030Y-81366540D02*
X85556792Y-80890350D01*
X85271078Y-82223683D02*
X85223458Y-82128445D01*
X85223458Y-82128445D02*
X85223458Y-81937969D01*
X85223458Y-81937969D02*
X85271078Y-81842731D01*
X85271078Y-81842731D02*
X85318697Y-81795112D01*
X85318697Y-81795112D02*
X85413935Y-81747493D01*
X85413935Y-81747493D02*
X85699649Y-81747493D01*
X85699649Y-81747493D02*
X85794887Y-81795112D01*
X85794887Y-81795112D02*
X85842506Y-81842731D01*
X85842506Y-81842731D02*
X85890125Y-81937969D01*
X85890125Y-81937969D02*
X85890125Y-82128445D01*
X85890125Y-82128445D02*
X85842506Y-82223683D01*
X85223458Y-82652255D02*
X86223458Y-82652255D01*
X85223458Y-83080826D02*
X85747268Y-83080826D01*
X85747268Y-83080826D02*
X85842506Y-83033207D01*
X85842506Y-83033207D02*
X85890125Y-82937969D01*
X85890125Y-82937969D02*
X85890125Y-82795112D01*
X85890125Y-82795112D02*
X85842506Y-82699874D01*
X85842506Y-82699874D02*
X85794887Y-82652255D01*
X85890125Y-83557017D02*
X85223458Y-83557017D01*
X85794887Y-83557017D02*
X85842506Y-83604636D01*
X85842506Y-83604636D02*
X85890125Y-83699874D01*
X85890125Y-83699874D02*
X85890125Y-83842731D01*
X85890125Y-83842731D02*
X85842506Y-83937969D01*
X85842506Y-83937969D02*
X85747268Y-83985588D01*
X85747268Y-83985588D02*
X85223458Y-83985588D01*
X85223458Y-84604636D02*
X85271078Y-84509398D01*
X85271078Y-84509398D02*
X85318697Y-84461779D01*
X85318697Y-84461779D02*
X85413935Y-84414160D01*
X85413935Y-84414160D02*
X85699649Y-84414160D01*
X85699649Y-84414160D02*
X85794887Y-84461779D01*
X85794887Y-84461779D02*
X85842506Y-84509398D01*
X85842506Y-84509398D02*
X85890125Y-84604636D01*
X85890125Y-84604636D02*
X85890125Y-84747493D01*
X85890125Y-84747493D02*
X85842506Y-84842731D01*
X85842506Y-84842731D02*
X85794887Y-84890350D01*
X85794887Y-84890350D02*
X85699649Y-84937969D01*
X85699649Y-84937969D02*
X85413935Y-84937969D01*
X85413935Y-84937969D02*
X85318697Y-84890350D01*
X85318697Y-84890350D02*
X85271078Y-84842731D01*
X85271078Y-84842731D02*
X85223458Y-84747493D01*
X85223458Y-84747493D02*
X85223458Y-84604636D01*
X85223458Y-85509398D02*
X85271078Y-85414160D01*
X85271078Y-85414160D02*
X85366316Y-85366541D01*
X85366316Y-85366541D02*
X86223458Y-85366541D01*
X85223458Y-86033208D02*
X85271078Y-85937970D01*
X85271078Y-85937970D02*
X85318697Y-85890351D01*
X85318697Y-85890351D02*
X85413935Y-85842732D01*
X85413935Y-85842732D02*
X85699649Y-85842732D01*
X85699649Y-85842732D02*
X85794887Y-85890351D01*
X85794887Y-85890351D02*
X85842506Y-85937970D01*
X85842506Y-85937970D02*
X85890125Y-86033208D01*
X85890125Y-86033208D02*
X85890125Y-86176065D01*
X85890125Y-86176065D02*
X85842506Y-86271303D01*
X85842506Y-86271303D02*
X85794887Y-86318922D01*
X85794887Y-86318922D02*
X85699649Y-86366541D01*
X85699649Y-86366541D02*
X85413935Y-86366541D01*
X85413935Y-86366541D02*
X85318697Y-86318922D01*
X85318697Y-86318922D02*
X85271078Y-86271303D01*
X85271078Y-86271303D02*
X85223458Y-86176065D01*
X85223458Y-86176065D02*
X85223458Y-86033208D01*
X85890125Y-87223684D02*
X85080601Y-87223684D01*
X85080601Y-87223684D02*
X84985363Y-87176065D01*
X84985363Y-87176065D02*
X84937744Y-87128446D01*
X84937744Y-87128446D02*
X84890125Y-87033208D01*
X84890125Y-87033208D02*
X84890125Y-86890351D01*
X84890125Y-86890351D02*
X84937744Y-86795113D01*
X85271078Y-87223684D02*
X85223458Y-87128446D01*
X85223458Y-87128446D02*
X85223458Y-86937970D01*
X85223458Y-86937970D02*
X85271078Y-86842732D01*
X85271078Y-86842732D02*
X85318697Y-86795113D01*
X85318697Y-86795113D02*
X85413935Y-86747494D01*
X85413935Y-86747494D02*
X85699649Y-86747494D01*
X85699649Y-86747494D02*
X85794887Y-86795113D01*
X85794887Y-86795113D02*
X85842506Y-86842732D01*
X85842506Y-86842732D02*
X85890125Y-86937970D01*
X85890125Y-86937970D02*
X85890125Y-87128446D01*
X85890125Y-87128446D02*
X85842506Y-87223684D01*
X85223458Y-87699875D02*
X85890125Y-87699875D01*
X86223458Y-87699875D02*
X86175839Y-87652256D01*
X86175839Y-87652256D02*
X86128220Y-87699875D01*
X86128220Y-87699875D02*
X86175839Y-87747494D01*
X86175839Y-87747494D02*
X86223458Y-87699875D01*
X86223458Y-87699875D02*
X86128220Y-87699875D01*
X85271078Y-88557017D02*
X85223458Y-88461779D01*
X85223458Y-88461779D02*
X85223458Y-88271303D01*
X85223458Y-88271303D02*
X85271078Y-88176065D01*
X85271078Y-88176065D02*
X85366316Y-88128446D01*
X85366316Y-88128446D02*
X85747268Y-88128446D01*
X85747268Y-88128446D02*
X85842506Y-88176065D01*
X85842506Y-88176065D02*
X85890125Y-88271303D01*
X85890125Y-88271303D02*
X85890125Y-88461779D01*
X85890125Y-88461779D02*
X85842506Y-88557017D01*
X85842506Y-88557017D02*
X85747268Y-88604636D01*
X85747268Y-88604636D02*
X85652030Y-88604636D01*
X85652030Y-88604636D02*
X85556792Y-88128446D01*
X85271078Y-88985589D02*
X85223458Y-89080827D01*
X85223458Y-89080827D02*
X85223458Y-89271303D01*
X85223458Y-89271303D02*
X85271078Y-89366541D01*
X85271078Y-89366541D02*
X85366316Y-89414160D01*
X85366316Y-89414160D02*
X85413935Y-89414160D01*
X85413935Y-89414160D02*
X85509173Y-89366541D01*
X85509173Y-89366541D02*
X85556792Y-89271303D01*
X85556792Y-89271303D02*
X85556792Y-89128446D01*
X85556792Y-89128446D02*
X85604411Y-89033208D01*
X85604411Y-89033208D02*
X85699649Y-88985589D01*
X85699649Y-88985589D02*
X85747268Y-88985589D01*
X85747268Y-88985589D02*
X85842506Y-89033208D01*
X85842506Y-89033208D02*
X85890125Y-89128446D01*
X85890125Y-89128446D02*
X85890125Y-89271303D01*
X85890125Y-89271303D02*
X85842506Y-89366541D01*
X85223458Y-91080827D02*
X85223458Y-90604637D01*
X85223458Y-90604637D02*
X86223458Y-90604637D01*
X85223458Y-91890351D02*
X85223458Y-91414161D01*
X85223458Y-91414161D02*
X86223458Y-91414161D01*
X85318697Y-92795113D02*
X85271078Y-92747494D01*
X85271078Y-92747494D02*
X85223458Y-92604637D01*
X85223458Y-92604637D02*
X85223458Y-92509399D01*
X85223458Y-92509399D02*
X85271078Y-92366542D01*
X85271078Y-92366542D02*
X85366316Y-92271304D01*
X85366316Y-92271304D02*
X85461554Y-92223685D01*
X85461554Y-92223685D02*
X85652030Y-92176066D01*
X85652030Y-92176066D02*
X85794887Y-92176066D01*
X85794887Y-92176066D02*
X85985363Y-92223685D01*
X85985363Y-92223685D02*
X86080601Y-92271304D01*
X86080601Y-92271304D02*
X86175839Y-92366542D01*
X86175839Y-92366542D02*
X86223458Y-92509399D01*
X86223458Y-92509399D02*
X86223458Y-92604637D01*
X86223458Y-92604637D02*
X86175839Y-92747494D01*
X86175839Y-92747494D02*
X86128220Y-92795113D01*
X188190476Y-64304819D02*
X188190476Y-65019104D01*
X188190476Y-65019104D02*
X188142857Y-65161961D01*
X188142857Y-65161961D02*
X188047619Y-65257200D01*
X188047619Y-65257200D02*
X187904762Y-65304819D01*
X187904762Y-65304819D02*
X187809524Y-65304819D01*
X189190476Y-65304819D02*
X188619048Y-65304819D01*
X188904762Y-65304819D02*
X188904762Y-64304819D01*
X188904762Y-64304819D02*
X188809524Y-64447676D01*
X188809524Y-64447676D02*
X188714286Y-64542914D01*
X188714286Y-64542914D02*
X188619048Y-64590533D01*
X189571429Y-64400057D02*
X189619048Y-64352438D01*
X189619048Y-64352438D02*
X189714286Y-64304819D01*
X189714286Y-64304819D02*
X189952381Y-64304819D01*
X189952381Y-64304819D02*
X190047619Y-64352438D01*
X190047619Y-64352438D02*
X190095238Y-64400057D01*
X190095238Y-64400057D02*
X190142857Y-64495295D01*
X190142857Y-64495295D02*
X190142857Y-64590533D01*
X190142857Y-64590533D02*
X190095238Y-64733390D01*
X190095238Y-64733390D02*
X189523810Y-65304819D01*
X189523810Y-65304819D02*
X190142857Y-65304819D01*
X121690476Y-64304819D02*
X121690476Y-65019104D01*
X121690476Y-65019104D02*
X121642857Y-65161961D01*
X121642857Y-65161961D02*
X121547619Y-65257200D01*
X121547619Y-65257200D02*
X121404762Y-65304819D01*
X121404762Y-65304819D02*
X121309524Y-65304819D01*
X122690476Y-65304819D02*
X122119048Y-65304819D01*
X122404762Y-65304819D02*
X122404762Y-64304819D01*
X122404762Y-64304819D02*
X122309524Y-64447676D01*
X122309524Y-64447676D02*
X122214286Y-64542914D01*
X122214286Y-64542914D02*
X122119048Y-64590533D01*
X123547619Y-64304819D02*
X123357143Y-64304819D01*
X123357143Y-64304819D02*
X123261905Y-64352438D01*
X123261905Y-64352438D02*
X123214286Y-64400057D01*
X123214286Y-64400057D02*
X123119048Y-64542914D01*
X123119048Y-64542914D02*
X123071429Y-64733390D01*
X123071429Y-64733390D02*
X123071429Y-65114342D01*
X123071429Y-65114342D02*
X123119048Y-65209580D01*
X123119048Y-65209580D02*
X123166667Y-65257200D01*
X123166667Y-65257200D02*
X123261905Y-65304819D01*
X123261905Y-65304819D02*
X123452381Y-65304819D01*
X123452381Y-65304819D02*
X123547619Y-65257200D01*
X123547619Y-65257200D02*
X123595238Y-65209580D01*
X123595238Y-65209580D02*
X123642857Y-65114342D01*
X123642857Y-65114342D02*
X123642857Y-64876247D01*
X123642857Y-64876247D02*
X123595238Y-64781009D01*
X123595238Y-64781009D02*
X123547619Y-64733390D01*
X123547619Y-64733390D02*
X123452381Y-64685771D01*
X123452381Y-64685771D02*
X123261905Y-64685771D01*
X123261905Y-64685771D02*
X123166667Y-64733390D01*
X123166667Y-64733390D02*
X123119048Y-64781009D01*
X123119048Y-64781009D02*
X123071429Y-64876247D01*
X112166666Y-64304819D02*
X112166666Y-65019104D01*
X112166666Y-65019104D02*
X112119047Y-65161961D01*
X112119047Y-65161961D02*
X112023809Y-65257200D01*
X112023809Y-65257200D02*
X111880952Y-65304819D01*
X111880952Y-65304819D02*
X111785714Y-65304819D01*
X113071428Y-64638152D02*
X113071428Y-65304819D01*
X112833333Y-64257200D02*
X112595238Y-64971485D01*
X112595238Y-64971485D02*
X113214285Y-64971485D01*
X95666666Y-64304819D02*
X95666666Y-65019104D01*
X95666666Y-65019104D02*
X95619047Y-65161961D01*
X95619047Y-65161961D02*
X95523809Y-65257200D01*
X95523809Y-65257200D02*
X95380952Y-65304819D01*
X95380952Y-65304819D02*
X95285714Y-65304819D01*
X96095238Y-64400057D02*
X96142857Y-64352438D01*
X96142857Y-64352438D02*
X96238095Y-64304819D01*
X96238095Y-64304819D02*
X96476190Y-64304819D01*
X96476190Y-64304819D02*
X96571428Y-64352438D01*
X96571428Y-64352438D02*
X96619047Y-64400057D01*
X96619047Y-64400057D02*
X96666666Y-64495295D01*
X96666666Y-64495295D02*
X96666666Y-64590533D01*
X96666666Y-64590533D02*
X96619047Y-64733390D01*
X96619047Y-64733390D02*
X96047619Y-65304819D01*
X96047619Y-65304819D02*
X96666666Y-65304819D01*
X150166666Y-64304819D02*
X150166666Y-65019104D01*
X150166666Y-65019104D02*
X150119047Y-65161961D01*
X150119047Y-65161961D02*
X150023809Y-65257200D01*
X150023809Y-65257200D02*
X149880952Y-65304819D01*
X149880952Y-65304819D02*
X149785714Y-65304819D01*
X150785714Y-64733390D02*
X150690476Y-64685771D01*
X150690476Y-64685771D02*
X150642857Y-64638152D01*
X150642857Y-64638152D02*
X150595238Y-64542914D01*
X150595238Y-64542914D02*
X150595238Y-64495295D01*
X150595238Y-64495295D02*
X150642857Y-64400057D01*
X150642857Y-64400057D02*
X150690476Y-64352438D01*
X150690476Y-64352438D02*
X150785714Y-64304819D01*
X150785714Y-64304819D02*
X150976190Y-64304819D01*
X150976190Y-64304819D02*
X151071428Y-64352438D01*
X151071428Y-64352438D02*
X151119047Y-64400057D01*
X151119047Y-64400057D02*
X151166666Y-64495295D01*
X151166666Y-64495295D02*
X151166666Y-64542914D01*
X151166666Y-64542914D02*
X151119047Y-64638152D01*
X151119047Y-64638152D02*
X151071428Y-64685771D01*
X151071428Y-64685771D02*
X150976190Y-64733390D01*
X150976190Y-64733390D02*
X150785714Y-64733390D01*
X150785714Y-64733390D02*
X150690476Y-64781009D01*
X150690476Y-64781009D02*
X150642857Y-64828628D01*
X150642857Y-64828628D02*
X150595238Y-64923866D01*
X150595238Y-64923866D02*
X150595238Y-65114342D01*
X150595238Y-65114342D02*
X150642857Y-65209580D01*
X150642857Y-65209580D02*
X150690476Y-65257200D01*
X150690476Y-65257200D02*
X150785714Y-65304819D01*
X150785714Y-65304819D02*
X150976190Y-65304819D01*
X150976190Y-65304819D02*
X151071428Y-65257200D01*
X151071428Y-65257200D02*
X151119047Y-65209580D01*
X151119047Y-65209580D02*
X151166666Y-65114342D01*
X151166666Y-65114342D02*
X151166666Y-64923866D01*
X151166666Y-64923866D02*
X151119047Y-64828628D01*
X151119047Y-64828628D02*
X151071428Y-64781009D01*
X151071428Y-64781009D02*
X150976190Y-64733390D01*
X143190476Y-64304819D02*
X143190476Y-65019104D01*
X143190476Y-65019104D02*
X143142857Y-65161961D01*
X143142857Y-65161961D02*
X143047619Y-65257200D01*
X143047619Y-65257200D02*
X142904762Y-65304819D01*
X142904762Y-65304819D02*
X142809524Y-65304819D01*
X144190476Y-65304819D02*
X143619048Y-65304819D01*
X143904762Y-65304819D02*
X143904762Y-64304819D01*
X143904762Y-64304819D02*
X143809524Y-64447676D01*
X143809524Y-64447676D02*
X143714286Y-64542914D01*
X143714286Y-64542914D02*
X143619048Y-64590533D01*
X144523810Y-64304819D02*
X145190476Y-64304819D01*
X145190476Y-64304819D02*
X144761905Y-65304819D01*
X130916666Y-104454819D02*
X130916666Y-105169104D01*
X130916666Y-105169104D02*
X130869047Y-105311961D01*
X130869047Y-105311961D02*
X130773809Y-105407200D01*
X130773809Y-105407200D02*
X130630952Y-105454819D01*
X130630952Y-105454819D02*
X130535714Y-105454819D01*
X131821428Y-104454819D02*
X131630952Y-104454819D01*
X131630952Y-104454819D02*
X131535714Y-104502438D01*
X131535714Y-104502438D02*
X131488095Y-104550057D01*
X131488095Y-104550057D02*
X131392857Y-104692914D01*
X131392857Y-104692914D02*
X131345238Y-104883390D01*
X131345238Y-104883390D02*
X131345238Y-105264342D01*
X131345238Y-105264342D02*
X131392857Y-105359580D01*
X131392857Y-105359580D02*
X131440476Y-105407200D01*
X131440476Y-105407200D02*
X131535714Y-105454819D01*
X131535714Y-105454819D02*
X131726190Y-105454819D01*
X131726190Y-105454819D02*
X131821428Y-105407200D01*
X131821428Y-105407200D02*
X131869047Y-105359580D01*
X131869047Y-105359580D02*
X131916666Y-105264342D01*
X131916666Y-105264342D02*
X131916666Y-105026247D01*
X131916666Y-105026247D02*
X131869047Y-104931009D01*
X131869047Y-104931009D02*
X131821428Y-104883390D01*
X131821428Y-104883390D02*
X131726190Y-104835771D01*
X131726190Y-104835771D02*
X131535714Y-104835771D01*
X131535714Y-104835771D02*
X131440476Y-104883390D01*
X131440476Y-104883390D02*
X131392857Y-104931009D01*
X131392857Y-104931009D02*
X131345238Y-105026247D01*
X118440476Y-104454819D02*
X118440476Y-105169104D01*
X118440476Y-105169104D02*
X118392857Y-105311961D01*
X118392857Y-105311961D02*
X118297619Y-105407200D01*
X118297619Y-105407200D02*
X118154762Y-105454819D01*
X118154762Y-105454819D02*
X118059524Y-105454819D01*
X119440476Y-105454819D02*
X118869048Y-105454819D01*
X119154762Y-105454819D02*
X119154762Y-104454819D01*
X119154762Y-104454819D02*
X119059524Y-104597676D01*
X119059524Y-104597676D02*
X118964286Y-104692914D01*
X118964286Y-104692914D02*
X118869048Y-104740533D01*
X120345238Y-104454819D02*
X119869048Y-104454819D01*
X119869048Y-104454819D02*
X119821429Y-104931009D01*
X119821429Y-104931009D02*
X119869048Y-104883390D01*
X119869048Y-104883390D02*
X119964286Y-104835771D01*
X119964286Y-104835771D02*
X120202381Y-104835771D01*
X120202381Y-104835771D02*
X120297619Y-104883390D01*
X120297619Y-104883390D02*
X120345238Y-104931009D01*
X120345238Y-104931009D02*
X120392857Y-105026247D01*
X120392857Y-105026247D02*
X120392857Y-105264342D01*
X120392857Y-105264342D02*
X120345238Y-105359580D01*
X120345238Y-105359580D02*
X120297619Y-105407200D01*
X120297619Y-105407200D02*
X120202381Y-105454819D01*
X120202381Y-105454819D02*
X119964286Y-105454819D01*
X119964286Y-105454819D02*
X119869048Y-105407200D01*
X119869048Y-105407200D02*
X119821429Y-105359580D01*
X85738095Y-62654819D02*
X85738095Y-61654819D01*
X85738095Y-62131009D02*
X86309523Y-62131009D01*
X86309523Y-62654819D02*
X86309523Y-61654819D01*
X87309523Y-62654819D02*
X86738095Y-62654819D01*
X87023809Y-62654819D02*
X87023809Y-61654819D01*
X87023809Y-61654819D02*
X86928571Y-61797676D01*
X86928571Y-61797676D02*
X86833333Y-61892914D01*
X86833333Y-61892914D02*
X86738095Y-61940533D01*
X85738095Y-98154819D02*
X85738095Y-97154819D01*
X85738095Y-97631009D02*
X86309523Y-97631009D01*
X86309523Y-98154819D02*
X86309523Y-97154819D01*
X86690476Y-97154819D02*
X87309523Y-97154819D01*
X87309523Y-97154819D02*
X86976190Y-97535771D01*
X86976190Y-97535771D02*
X87119047Y-97535771D01*
X87119047Y-97535771D02*
X87214285Y-97583390D01*
X87214285Y-97583390D02*
X87261904Y-97631009D01*
X87261904Y-97631009D02*
X87309523Y-97726247D01*
X87309523Y-97726247D02*
X87309523Y-97964342D01*
X87309523Y-97964342D02*
X87261904Y-98059580D01*
X87261904Y-98059580D02*
X87214285Y-98107200D01*
X87214285Y-98107200D02*
X87119047Y-98154819D01*
X87119047Y-98154819D02*
X86833333Y-98154819D01*
X86833333Y-98154819D02*
X86738095Y-98107200D01*
X86738095Y-98107200D02*
X86690476Y-98059580D01*
X177940476Y-104454819D02*
X177940476Y-105169104D01*
X177940476Y-105169104D02*
X177892857Y-105311961D01*
X177892857Y-105311961D02*
X177797619Y-105407200D01*
X177797619Y-105407200D02*
X177654762Y-105454819D01*
X177654762Y-105454819D02*
X177559524Y-105454819D01*
X178369048Y-104550057D02*
X178416667Y-104502438D01*
X178416667Y-104502438D02*
X178511905Y-104454819D01*
X178511905Y-104454819D02*
X178750000Y-104454819D01*
X178750000Y-104454819D02*
X178845238Y-104502438D01*
X178845238Y-104502438D02*
X178892857Y-104550057D01*
X178892857Y-104550057D02*
X178940476Y-104645295D01*
X178940476Y-104645295D02*
X178940476Y-104740533D01*
X178940476Y-104740533D02*
X178892857Y-104883390D01*
X178892857Y-104883390D02*
X178321429Y-105454819D01*
X178321429Y-105454819D02*
X178940476Y-105454819D01*
X179321429Y-104550057D02*
X179369048Y-104502438D01*
X179369048Y-104502438D02*
X179464286Y-104454819D01*
X179464286Y-104454819D02*
X179702381Y-104454819D01*
X179702381Y-104454819D02*
X179797619Y-104502438D01*
X179797619Y-104502438D02*
X179845238Y-104550057D01*
X179845238Y-104550057D02*
X179892857Y-104645295D01*
X179892857Y-104645295D02*
X179892857Y-104740533D01*
X179892857Y-104740533D02*
X179845238Y-104883390D01*
X179845238Y-104883390D02*
X179273810Y-105454819D01*
X179273810Y-105454819D02*
X179892857Y-105454819D01*
X204738095Y-98154819D02*
X204738095Y-97154819D01*
X204738095Y-97631009D02*
X205309523Y-97631009D01*
X205309523Y-98154819D02*
X205309523Y-97154819D01*
X206214285Y-97488152D02*
X206214285Y-98154819D01*
X205976190Y-97107200D02*
X205738095Y-97821485D01*
X205738095Y-97821485D02*
X206357142Y-97821485D01*
X185190476Y-104454819D02*
X185190476Y-105169104D01*
X185190476Y-105169104D02*
X185142857Y-105311961D01*
X185142857Y-105311961D02*
X185047619Y-105407200D01*
X185047619Y-105407200D02*
X184904762Y-105454819D01*
X184904762Y-105454819D02*
X184809524Y-105454819D01*
X186190476Y-105454819D02*
X185619048Y-105454819D01*
X185904762Y-105454819D02*
X185904762Y-104454819D01*
X185904762Y-104454819D02*
X185809524Y-104597676D01*
X185809524Y-104597676D02*
X185714286Y-104692914D01*
X185714286Y-104692914D02*
X185619048Y-104740533D01*
X187142857Y-105454819D02*
X186571429Y-105454819D01*
X186857143Y-105454819D02*
X186857143Y-104454819D01*
X186857143Y-104454819D02*
X186761905Y-104597676D01*
X186761905Y-104597676D02*
X186666667Y-104692914D01*
X186666667Y-104692914D02*
X186571429Y-104740533D01*
X167940476Y-104454819D02*
X167940476Y-105169104D01*
X167940476Y-105169104D02*
X167892857Y-105311961D01*
X167892857Y-105311961D02*
X167797619Y-105407200D01*
X167797619Y-105407200D02*
X167654762Y-105454819D01*
X167654762Y-105454819D02*
X167559524Y-105454819D01*
X168940476Y-105454819D02*
X168369048Y-105454819D01*
X168654762Y-105454819D02*
X168654762Y-104454819D01*
X168654762Y-104454819D02*
X168559524Y-104597676D01*
X168559524Y-104597676D02*
X168464286Y-104692914D01*
X168464286Y-104692914D02*
X168369048Y-104740533D01*
X169559524Y-104454819D02*
X169654762Y-104454819D01*
X169654762Y-104454819D02*
X169750000Y-104502438D01*
X169750000Y-104502438D02*
X169797619Y-104550057D01*
X169797619Y-104550057D02*
X169845238Y-104645295D01*
X169845238Y-104645295D02*
X169892857Y-104835771D01*
X169892857Y-104835771D02*
X169892857Y-105073866D01*
X169892857Y-105073866D02*
X169845238Y-105264342D01*
X169845238Y-105264342D02*
X169797619Y-105359580D01*
X169797619Y-105359580D02*
X169750000Y-105407200D01*
X169750000Y-105407200D02*
X169654762Y-105454819D01*
X169654762Y-105454819D02*
X169559524Y-105454819D01*
X169559524Y-105454819D02*
X169464286Y-105407200D01*
X169464286Y-105407200D02*
X169416667Y-105359580D01*
X169416667Y-105359580D02*
X169369048Y-105264342D01*
X169369048Y-105264342D02*
X169321429Y-105073866D01*
X169321429Y-105073866D02*
X169321429Y-104835771D01*
X169321429Y-104835771D02*
X169369048Y-104645295D01*
X169369048Y-104645295D02*
X169416667Y-104550057D01*
X169416667Y-104550057D02*
X169464286Y-104502438D01*
X169464286Y-104502438D02*
X169559524Y-104454819D01*
X204738095Y-62654819D02*
X204738095Y-61654819D01*
X204738095Y-62131009D02*
X205309523Y-62131009D01*
X205309523Y-62654819D02*
X205309523Y-61654819D01*
X205738095Y-61750057D02*
X205785714Y-61702438D01*
X205785714Y-61702438D02*
X205880952Y-61654819D01*
X205880952Y-61654819D02*
X206119047Y-61654819D01*
X206119047Y-61654819D02*
X206214285Y-61702438D01*
X206214285Y-61702438D02*
X206261904Y-61750057D01*
X206261904Y-61750057D02*
X206309523Y-61845295D01*
X206309523Y-61845295D02*
X206309523Y-61940533D01*
X206309523Y-61940533D02*
X206261904Y-62083390D01*
X206261904Y-62083390D02*
X205690476Y-62654819D01*
X205690476Y-62654819D02*
X206309523Y-62654819D01*
X92916666Y-104454819D02*
X92916666Y-105169104D01*
X92916666Y-105169104D02*
X92869047Y-105311961D01*
X92869047Y-105311961D02*
X92773809Y-105407200D01*
X92773809Y-105407200D02*
X92630952Y-105454819D01*
X92630952Y-105454819D02*
X92535714Y-105454819D01*
X93916666Y-105454819D02*
X93345238Y-105454819D01*
X93630952Y-105454819D02*
X93630952Y-104454819D01*
X93630952Y-104454819D02*
X93535714Y-104597676D01*
X93535714Y-104597676D02*
X93440476Y-104692914D01*
X93440476Y-104692914D02*
X93345238Y-104740533D01*
X133666666Y-64304819D02*
X133666666Y-65019104D01*
X133666666Y-65019104D02*
X133619047Y-65161961D01*
X133619047Y-65161961D02*
X133523809Y-65257200D01*
X133523809Y-65257200D02*
X133380952Y-65304819D01*
X133380952Y-65304819D02*
X133285714Y-65304819D01*
X134619047Y-64304819D02*
X134142857Y-64304819D01*
X134142857Y-64304819D02*
X134095238Y-64781009D01*
X134095238Y-64781009D02*
X134142857Y-64733390D01*
X134142857Y-64733390D02*
X134238095Y-64685771D01*
X134238095Y-64685771D02*
X134476190Y-64685771D01*
X134476190Y-64685771D02*
X134571428Y-64733390D01*
X134571428Y-64733390D02*
X134619047Y-64781009D01*
X134619047Y-64781009D02*
X134666666Y-64876247D01*
X134666666Y-64876247D02*
X134666666Y-65114342D01*
X134666666Y-65114342D02*
X134619047Y-65209580D01*
X134619047Y-65209580D02*
X134571428Y-65257200D01*
X134571428Y-65257200D02*
X134476190Y-65304819D01*
X134476190Y-65304819D02*
X134238095Y-65304819D01*
X134238095Y-65304819D02*
X134142857Y-65257200D01*
X134142857Y-65257200D02*
X134095238Y-65209580D01*
X198190476Y-64304819D02*
X198190476Y-65019104D01*
X198190476Y-65019104D02*
X198142857Y-65161961D01*
X198142857Y-65161961D02*
X198047619Y-65257200D01*
X198047619Y-65257200D02*
X197904762Y-65304819D01*
X197904762Y-65304819D02*
X197809524Y-65304819D01*
X198619048Y-64400057D02*
X198666667Y-64352438D01*
X198666667Y-64352438D02*
X198761905Y-64304819D01*
X198761905Y-64304819D02*
X199000000Y-64304819D01*
X199000000Y-64304819D02*
X199095238Y-64352438D01*
X199095238Y-64352438D02*
X199142857Y-64400057D01*
X199142857Y-64400057D02*
X199190476Y-64495295D01*
X199190476Y-64495295D02*
X199190476Y-64590533D01*
X199190476Y-64590533D02*
X199142857Y-64733390D01*
X199142857Y-64733390D02*
X198571429Y-65304819D01*
X198571429Y-65304819D02*
X199190476Y-65304819D01*
X199523810Y-64304819D02*
X200142857Y-64304819D01*
X200142857Y-64304819D02*
X199809524Y-64685771D01*
X199809524Y-64685771D02*
X199952381Y-64685771D01*
X199952381Y-64685771D02*
X200047619Y-64733390D01*
X200047619Y-64733390D02*
X200095238Y-64781009D01*
X200095238Y-64781009D02*
X200142857Y-64876247D01*
X200142857Y-64876247D02*
X200142857Y-65114342D01*
X200142857Y-65114342D02*
X200095238Y-65209580D01*
X200095238Y-65209580D02*
X200047619Y-65257200D01*
X200047619Y-65257200D02*
X199952381Y-65304819D01*
X199952381Y-65304819D02*
X199666667Y-65304819D01*
X199666667Y-65304819D02*
X199571429Y-65257200D01*
X199571429Y-65257200D02*
X199523810Y-65209580D01*
X181190476Y-64304819D02*
X181190476Y-65019104D01*
X181190476Y-65019104D02*
X181142857Y-65161961D01*
X181142857Y-65161961D02*
X181047619Y-65257200D01*
X181047619Y-65257200D02*
X180904762Y-65304819D01*
X180904762Y-65304819D02*
X180809524Y-65304819D01*
X181619048Y-64400057D02*
X181666667Y-64352438D01*
X181666667Y-64352438D02*
X181761905Y-64304819D01*
X181761905Y-64304819D02*
X182000000Y-64304819D01*
X182000000Y-64304819D02*
X182095238Y-64352438D01*
X182095238Y-64352438D02*
X182142857Y-64400057D01*
X182142857Y-64400057D02*
X182190476Y-64495295D01*
X182190476Y-64495295D02*
X182190476Y-64590533D01*
X182190476Y-64590533D02*
X182142857Y-64733390D01*
X182142857Y-64733390D02*
X181571429Y-65304819D01*
X181571429Y-65304819D02*
X182190476Y-65304819D01*
X183142857Y-65304819D02*
X182571429Y-65304819D01*
X182857143Y-65304819D02*
X182857143Y-64304819D01*
X182857143Y-64304819D02*
X182761905Y-64447676D01*
X182761905Y-64447676D02*
X182666667Y-64542914D01*
X182666667Y-64542914D02*
X182571429Y-64590533D01*
X101690476Y-104454819D02*
X101690476Y-105169104D01*
X101690476Y-105169104D02*
X101642857Y-105311961D01*
X101642857Y-105311961D02*
X101547619Y-105407200D01*
X101547619Y-105407200D02*
X101404762Y-105454819D01*
X101404762Y-105454819D02*
X101309524Y-105454819D01*
X102690476Y-105454819D02*
X102119048Y-105454819D01*
X102404762Y-105454819D02*
X102404762Y-104454819D01*
X102404762Y-104454819D02*
X102309524Y-104597676D01*
X102309524Y-104597676D02*
X102214286Y-104692914D01*
X102214286Y-104692914D02*
X102119048Y-104740533D01*
X103547619Y-104788152D02*
X103547619Y-105454819D01*
X103309524Y-104407200D02*
X103071429Y-105121485D01*
X103071429Y-105121485D02*
X103690476Y-105121485D01*
X194940476Y-104454819D02*
X194940476Y-105169104D01*
X194940476Y-105169104D02*
X194892857Y-105311961D01*
X194892857Y-105311961D02*
X194797619Y-105407200D01*
X194797619Y-105407200D02*
X194654762Y-105454819D01*
X194654762Y-105454819D02*
X194559524Y-105454819D01*
X195369048Y-104550057D02*
X195416667Y-104502438D01*
X195416667Y-104502438D02*
X195511905Y-104454819D01*
X195511905Y-104454819D02*
X195750000Y-104454819D01*
X195750000Y-104454819D02*
X195845238Y-104502438D01*
X195845238Y-104502438D02*
X195892857Y-104550057D01*
X195892857Y-104550057D02*
X195940476Y-104645295D01*
X195940476Y-104645295D02*
X195940476Y-104740533D01*
X195940476Y-104740533D02*
X195892857Y-104883390D01*
X195892857Y-104883390D02*
X195321429Y-105454819D01*
X195321429Y-105454819D02*
X195940476Y-105454819D01*
X196797619Y-104788152D02*
X196797619Y-105454819D01*
X196559524Y-104407200D02*
X196321429Y-105121485D01*
X196321429Y-105121485D02*
X196940476Y-105121485D01*
X159690476Y-64304819D02*
X159690476Y-65019104D01*
X159690476Y-65019104D02*
X159642857Y-65161961D01*
X159642857Y-65161961D02*
X159547619Y-65257200D01*
X159547619Y-65257200D02*
X159404762Y-65304819D01*
X159404762Y-65304819D02*
X159309524Y-65304819D01*
X160119048Y-64400057D02*
X160166667Y-64352438D01*
X160166667Y-64352438D02*
X160261905Y-64304819D01*
X160261905Y-64304819D02*
X160500000Y-64304819D01*
X160500000Y-64304819D02*
X160595238Y-64352438D01*
X160595238Y-64352438D02*
X160642857Y-64400057D01*
X160642857Y-64400057D02*
X160690476Y-64495295D01*
X160690476Y-64495295D02*
X160690476Y-64590533D01*
X160690476Y-64590533D02*
X160642857Y-64733390D01*
X160642857Y-64733390D02*
X160071429Y-65304819D01*
X160071429Y-65304819D02*
X160690476Y-65304819D01*
X161309524Y-64304819D02*
X161404762Y-64304819D01*
X161404762Y-64304819D02*
X161500000Y-64352438D01*
X161500000Y-64352438D02*
X161547619Y-64400057D01*
X161547619Y-64400057D02*
X161595238Y-64495295D01*
X161595238Y-64495295D02*
X161642857Y-64685771D01*
X161642857Y-64685771D02*
X161642857Y-64923866D01*
X161642857Y-64923866D02*
X161595238Y-65114342D01*
X161595238Y-65114342D02*
X161547619Y-65209580D01*
X161547619Y-65209580D02*
X161500000Y-65257200D01*
X161500000Y-65257200D02*
X161404762Y-65304819D01*
X161404762Y-65304819D02*
X161309524Y-65304819D01*
X161309524Y-65304819D02*
X161214286Y-65257200D01*
X161214286Y-65257200D02*
X161166667Y-65209580D01*
X161166667Y-65209580D02*
X161119048Y-65114342D01*
X161119048Y-65114342D02*
X161071429Y-64923866D01*
X161071429Y-64923866D02*
X161071429Y-64685771D01*
X161071429Y-64685771D02*
X161119048Y-64495295D01*
X161119048Y-64495295D02*
X161166667Y-64400057D01*
X161166667Y-64400057D02*
X161214286Y-64352438D01*
X161214286Y-64352438D02*
X161309524Y-64304819D01*
X156440476Y-104454819D02*
X156440476Y-105169104D01*
X156440476Y-105169104D02*
X156392857Y-105311961D01*
X156392857Y-105311961D02*
X156297619Y-105407200D01*
X156297619Y-105407200D02*
X156154762Y-105454819D01*
X156154762Y-105454819D02*
X156059524Y-105454819D01*
X157440476Y-105454819D02*
X156869048Y-105454819D01*
X157154762Y-105454819D02*
X157154762Y-104454819D01*
X157154762Y-104454819D02*
X157059524Y-104597676D01*
X157059524Y-104597676D02*
X156964286Y-104692914D01*
X156964286Y-104692914D02*
X156869048Y-104740533D01*
X157916667Y-105454819D02*
X158107143Y-105454819D01*
X158107143Y-105454819D02*
X158202381Y-105407200D01*
X158202381Y-105407200D02*
X158250000Y-105359580D01*
X158250000Y-105359580D02*
X158345238Y-105216723D01*
X158345238Y-105216723D02*
X158392857Y-105026247D01*
X158392857Y-105026247D02*
X158392857Y-104645295D01*
X158392857Y-104645295D02*
X158345238Y-104550057D01*
X158345238Y-104550057D02*
X158297619Y-104502438D01*
X158297619Y-104502438D02*
X158202381Y-104454819D01*
X158202381Y-104454819D02*
X158011905Y-104454819D01*
X158011905Y-104454819D02*
X157916667Y-104502438D01*
X157916667Y-104502438D02*
X157869048Y-104550057D01*
X157869048Y-104550057D02*
X157821429Y-104645295D01*
X157821429Y-104645295D02*
X157821429Y-104883390D01*
X157821429Y-104883390D02*
X157869048Y-104978628D01*
X157869048Y-104978628D02*
X157916667Y-105026247D01*
X157916667Y-105026247D02*
X158011905Y-105073866D01*
X158011905Y-105073866D02*
X158202381Y-105073866D01*
X158202381Y-105073866D02*
X158297619Y-105026247D01*
X158297619Y-105026247D02*
X158345238Y-104978628D01*
X158345238Y-104978628D02*
X158392857Y-104883390D01*
X139940476Y-104454819D02*
X139940476Y-105169104D01*
X139940476Y-105169104D02*
X139892857Y-105311961D01*
X139892857Y-105311961D02*
X139797619Y-105407200D01*
X139797619Y-105407200D02*
X139654762Y-105454819D01*
X139654762Y-105454819D02*
X139559524Y-105454819D01*
X140940476Y-105454819D02*
X140369048Y-105454819D01*
X140654762Y-105454819D02*
X140654762Y-104454819D01*
X140654762Y-104454819D02*
X140559524Y-104597676D01*
X140559524Y-104597676D02*
X140464286Y-104692914D01*
X140464286Y-104692914D02*
X140369048Y-104740533D01*
X141511905Y-104883390D02*
X141416667Y-104835771D01*
X141416667Y-104835771D02*
X141369048Y-104788152D01*
X141369048Y-104788152D02*
X141321429Y-104692914D01*
X141321429Y-104692914D02*
X141321429Y-104645295D01*
X141321429Y-104645295D02*
X141369048Y-104550057D01*
X141369048Y-104550057D02*
X141416667Y-104502438D01*
X141416667Y-104502438D02*
X141511905Y-104454819D01*
X141511905Y-104454819D02*
X141702381Y-104454819D01*
X141702381Y-104454819D02*
X141797619Y-104502438D01*
X141797619Y-104502438D02*
X141845238Y-104550057D01*
X141845238Y-104550057D02*
X141892857Y-104645295D01*
X141892857Y-104645295D02*
X141892857Y-104692914D01*
X141892857Y-104692914D02*
X141845238Y-104788152D01*
X141845238Y-104788152D02*
X141797619Y-104835771D01*
X141797619Y-104835771D02*
X141702381Y-104883390D01*
X141702381Y-104883390D02*
X141511905Y-104883390D01*
X141511905Y-104883390D02*
X141416667Y-104931009D01*
X141416667Y-104931009D02*
X141369048Y-104978628D01*
X141369048Y-104978628D02*
X141321429Y-105073866D01*
X141321429Y-105073866D02*
X141321429Y-105264342D01*
X141321429Y-105264342D02*
X141369048Y-105359580D01*
X141369048Y-105359580D02*
X141416667Y-105407200D01*
X141416667Y-105407200D02*
X141511905Y-105454819D01*
X141511905Y-105454819D02*
X141702381Y-105454819D01*
X141702381Y-105454819D02*
X141797619Y-105407200D01*
X141797619Y-105407200D02*
X141845238Y-105359580D01*
X141845238Y-105359580D02*
X141892857Y-105264342D01*
X141892857Y-105264342D02*
X141892857Y-105073866D01*
X141892857Y-105073866D02*
X141845238Y-104978628D01*
X141845238Y-104978628D02*
X141797619Y-104931009D01*
X141797619Y-104931009D02*
X141702381Y-104883390D01*
X147416666Y-104454819D02*
X147416666Y-105169104D01*
X147416666Y-105169104D02*
X147369047Y-105311961D01*
X147369047Y-105311961D02*
X147273809Y-105407200D01*
X147273809Y-105407200D02*
X147130952Y-105454819D01*
X147130952Y-105454819D02*
X147035714Y-105454819D01*
X147797619Y-104454819D02*
X148464285Y-104454819D01*
X148464285Y-104454819D02*
X148035714Y-105454819D01*
X171666666Y-64304819D02*
X171666666Y-65019104D01*
X171666666Y-65019104D02*
X171619047Y-65161961D01*
X171619047Y-65161961D02*
X171523809Y-65257200D01*
X171523809Y-65257200D02*
X171380952Y-65304819D01*
X171380952Y-65304819D02*
X171285714Y-65304819D01*
X172190476Y-65304819D02*
X172380952Y-65304819D01*
X172380952Y-65304819D02*
X172476190Y-65257200D01*
X172476190Y-65257200D02*
X172523809Y-65209580D01*
X172523809Y-65209580D02*
X172619047Y-65066723D01*
X172619047Y-65066723D02*
X172666666Y-64876247D01*
X172666666Y-64876247D02*
X172666666Y-64495295D01*
X172666666Y-64495295D02*
X172619047Y-64400057D01*
X172619047Y-64400057D02*
X172571428Y-64352438D01*
X172571428Y-64352438D02*
X172476190Y-64304819D01*
X172476190Y-64304819D02*
X172285714Y-64304819D01*
X172285714Y-64304819D02*
X172190476Y-64352438D01*
X172190476Y-64352438D02*
X172142857Y-64400057D01*
X172142857Y-64400057D02*
X172095238Y-64495295D01*
X172095238Y-64495295D02*
X172095238Y-64733390D01*
X172095238Y-64733390D02*
X172142857Y-64828628D01*
X172142857Y-64828628D02*
X172190476Y-64876247D01*
X172190476Y-64876247D02*
X172285714Y-64923866D01*
X172285714Y-64923866D02*
X172476190Y-64923866D01*
X172476190Y-64923866D02*
X172571428Y-64876247D01*
X172571428Y-64876247D02*
X172619047Y-64828628D01*
X172619047Y-64828628D02*
X172666666Y-64733390D01*
X109416666Y-104454819D02*
X109416666Y-105169104D01*
X109416666Y-105169104D02*
X109369047Y-105311961D01*
X109369047Y-105311961D02*
X109273809Y-105407200D01*
X109273809Y-105407200D02*
X109130952Y-105454819D01*
X109130952Y-105454819D02*
X109035714Y-105454819D01*
X109797619Y-104454819D02*
X110416666Y-104454819D01*
X110416666Y-104454819D02*
X110083333Y-104835771D01*
X110083333Y-104835771D02*
X110226190Y-104835771D01*
X110226190Y-104835771D02*
X110321428Y-104883390D01*
X110321428Y-104883390D02*
X110369047Y-104931009D01*
X110369047Y-104931009D02*
X110416666Y-105026247D01*
X110416666Y-105026247D02*
X110416666Y-105264342D01*
X110416666Y-105264342D02*
X110369047Y-105359580D01*
X110369047Y-105359580D02*
X110321428Y-105407200D01*
X110321428Y-105407200D02*
X110226190Y-105454819D01*
X110226190Y-105454819D02*
X109940476Y-105454819D01*
X109940476Y-105454819D02*
X109845238Y-105407200D01*
X109845238Y-105407200D02*
X109797619Y-105359580D01*
X105190476Y-64304819D02*
X105190476Y-65019104D01*
X105190476Y-65019104D02*
X105142857Y-65161961D01*
X105142857Y-65161961D02*
X105047619Y-65257200D01*
X105047619Y-65257200D02*
X104904762Y-65304819D01*
X104904762Y-65304819D02*
X104809524Y-65304819D01*
X106190476Y-65304819D02*
X105619048Y-65304819D01*
X105904762Y-65304819D02*
X105904762Y-64304819D01*
X105904762Y-64304819D02*
X105809524Y-64447676D01*
X105809524Y-64447676D02*
X105714286Y-64542914D01*
X105714286Y-64542914D02*
X105619048Y-64590533D01*
X106523810Y-64304819D02*
X107142857Y-64304819D01*
X107142857Y-64304819D02*
X106809524Y-64685771D01*
X106809524Y-64685771D02*
X106952381Y-64685771D01*
X106952381Y-64685771D02*
X107047619Y-64733390D01*
X107047619Y-64733390D02*
X107095238Y-64781009D01*
X107095238Y-64781009D02*
X107142857Y-64876247D01*
X107142857Y-64876247D02*
X107142857Y-65114342D01*
X107142857Y-65114342D02*
X107095238Y-65209580D01*
X107095238Y-65209580D02*
X107047619Y-65257200D01*
X107047619Y-65257200D02*
X106952381Y-65304819D01*
X106952381Y-65304819D02*
X106666667Y-65304819D01*
X106666667Y-65304819D02*
X106571429Y-65257200D01*
X106571429Y-65257200D02*
X106523810Y-65209580D01*
D11*
%TO.C,J12*%
X187150000Y-65650000D02*
X188480000Y-65650000D01*
X187150000Y-66980000D02*
X187150000Y-65650000D01*
X187670000Y-69340000D02*
X187670000Y-69400000D01*
X187670000Y-69340000D02*
X190330000Y-69340000D01*
X187670000Y-69400000D02*
X190330000Y-69400000D01*
X190330000Y-69340000D02*
X190330000Y-69400000D01*
%TO.C,J16*%
X120650000Y-65650000D02*
X121980000Y-65650000D01*
X120650000Y-66980000D02*
X120650000Y-65650000D01*
X121170000Y-69340000D02*
X121170000Y-69400000D01*
X121170000Y-69340000D02*
X123830000Y-69340000D01*
X121170000Y-69400000D02*
X123830000Y-69400000D01*
X123830000Y-69340000D02*
X123830000Y-69400000D01*
%TO.C,J4*%
X110650000Y-65650000D02*
X111980000Y-65650000D01*
X110650000Y-66980000D02*
X110650000Y-65650000D01*
X111170000Y-69340000D02*
X111170000Y-69400000D01*
X111170000Y-69340000D02*
X113830000Y-69340000D01*
X111170000Y-69400000D02*
X113830000Y-69400000D01*
X113830000Y-69340000D02*
X113830000Y-69400000D01*
%TO.C,J2*%
X94150000Y-65650000D02*
X95480000Y-65650000D01*
X94150000Y-66980000D02*
X94150000Y-65650000D01*
X94670000Y-69340000D02*
X94670000Y-69400000D01*
X94670000Y-69340000D02*
X97330000Y-69340000D01*
X94670000Y-69400000D02*
X97330000Y-69400000D01*
X97330000Y-69340000D02*
X97330000Y-69400000D01*
%TO.C,J8*%
X148650000Y-65650000D02*
X149980000Y-65650000D01*
X148650000Y-66980000D02*
X148650000Y-65650000D01*
X149170000Y-69340000D02*
X149170000Y-69400000D01*
X149170000Y-69340000D02*
X151830000Y-69340000D01*
X149170000Y-69400000D02*
X151830000Y-69400000D01*
X151830000Y-69340000D02*
X151830000Y-69400000D01*
%TO.C,J17*%
X142150000Y-65650000D02*
X143480000Y-65650000D01*
X142150000Y-66980000D02*
X142150000Y-65650000D01*
X142670000Y-69340000D02*
X142670000Y-69400000D01*
X142670000Y-69340000D02*
X145330000Y-69340000D01*
X142670000Y-69400000D02*
X145330000Y-69400000D01*
X145330000Y-69340000D02*
X145330000Y-69400000D01*
%TO.C,J6*%
X132150000Y-101150000D02*
X133480000Y-101150000D01*
X132150000Y-102480000D02*
X132150000Y-101150000D01*
X132670000Y-104840000D02*
X132670000Y-104900000D01*
X132670000Y-104840000D02*
X135330000Y-104840000D01*
X132670000Y-104900000D02*
X135330000Y-104900000D01*
X135330000Y-104840000D02*
X135330000Y-104900000D01*
%TO.C,J15*%
X120650000Y-101150000D02*
X121980000Y-101150000D01*
X120650000Y-102480000D02*
X120650000Y-101150000D01*
X121170000Y-104840000D02*
X121170000Y-104900000D01*
X121170000Y-104840000D02*
X123830000Y-104840000D01*
X121170000Y-104900000D02*
X123830000Y-104900000D01*
X123830000Y-104840000D02*
X123830000Y-104900000D01*
%TO.C,J22*%
X180150000Y-101150000D02*
X181480000Y-101150000D01*
X180150000Y-102480000D02*
X180150000Y-101150000D01*
X180670000Y-104840000D02*
X180670000Y-104900000D01*
X180670000Y-104840000D02*
X183330000Y-104840000D01*
X180670000Y-104900000D02*
X183330000Y-104900000D01*
X183330000Y-104840000D02*
X183330000Y-104900000D01*
%TO.C,J11*%
X187150000Y-101150000D02*
X188480000Y-101150000D01*
X187150000Y-102480000D02*
X187150000Y-101150000D01*
X187670000Y-104840000D02*
X187670000Y-104900000D01*
X187670000Y-104840000D02*
X190330000Y-104840000D01*
X187670000Y-104900000D02*
X190330000Y-104900000D01*
X190330000Y-104840000D02*
X190330000Y-104900000D01*
%TO.C,J10*%
X170150000Y-101150000D02*
X171480000Y-101150000D01*
X170150000Y-102480000D02*
X170150000Y-101150000D01*
X170670000Y-104840000D02*
X170670000Y-104900000D01*
X170670000Y-104840000D02*
X173330000Y-104840000D01*
X170670000Y-104900000D02*
X173330000Y-104900000D01*
X173330000Y-104840000D02*
X173330000Y-104900000D01*
%TO.C,J1*%
X94150000Y-101150000D02*
X95480000Y-101150000D01*
X94150000Y-102480000D02*
X94150000Y-101150000D01*
X94670000Y-104840000D02*
X94670000Y-104900000D01*
X94670000Y-104840000D02*
X97330000Y-104840000D01*
X94670000Y-104900000D02*
X97330000Y-104900000D01*
X97330000Y-104840000D02*
X97330000Y-104900000D01*
%TO.C,J5*%
X132150000Y-65650000D02*
X133480000Y-65650000D01*
X132150000Y-66980000D02*
X132150000Y-65650000D01*
X132670000Y-69340000D02*
X132670000Y-69400000D01*
X132670000Y-69340000D02*
X135330000Y-69340000D01*
X132670000Y-69400000D02*
X135330000Y-69400000D01*
X135330000Y-69340000D02*
X135330000Y-69400000D01*
%TO.C,J23*%
X197150000Y-65650000D02*
X198480000Y-65650000D01*
X197150000Y-66980000D02*
X197150000Y-65650000D01*
X197670000Y-69340000D02*
X197670000Y-69400000D01*
X197670000Y-69340000D02*
X200330000Y-69340000D01*
X197670000Y-69400000D02*
X200330000Y-69400000D01*
X200330000Y-69340000D02*
X200330000Y-69400000D01*
%TO.C,J21*%
X180150000Y-65650000D02*
X181480000Y-65650000D01*
X180150000Y-66980000D02*
X180150000Y-65650000D01*
X180670000Y-69340000D02*
X180670000Y-69400000D01*
X180670000Y-69340000D02*
X183330000Y-69340000D01*
X180670000Y-69400000D02*
X183330000Y-69400000D01*
X183330000Y-69340000D02*
X183330000Y-69400000D01*
%TO.C,J14*%
X104150000Y-101150000D02*
X105480000Y-101150000D01*
X104150000Y-102480000D02*
X104150000Y-101150000D01*
X104670000Y-104840000D02*
X104670000Y-104900000D01*
X104670000Y-104840000D02*
X107330000Y-104840000D01*
X104670000Y-104900000D02*
X107330000Y-104900000D01*
X107330000Y-104840000D02*
X107330000Y-104900000D01*
%TO.C,J24*%
X197150000Y-101150000D02*
X198480000Y-101150000D01*
X197150000Y-102480000D02*
X197150000Y-101150000D01*
X197670000Y-104840000D02*
X197670000Y-104900000D01*
X197670000Y-104840000D02*
X200330000Y-104840000D01*
X197670000Y-104900000D02*
X200330000Y-104900000D01*
X200330000Y-104840000D02*
X200330000Y-104900000D01*
%TO.C,J20*%
X158650000Y-65650000D02*
X159980000Y-65650000D01*
X158650000Y-66980000D02*
X158650000Y-65650000D01*
X159170000Y-69340000D02*
X159170000Y-69400000D01*
X159170000Y-69340000D02*
X161830000Y-69340000D01*
X159170000Y-69400000D02*
X161830000Y-69400000D01*
X161830000Y-69340000D02*
X161830000Y-69400000D01*
%TO.C,J19*%
X158650000Y-101150000D02*
X159980000Y-101150000D01*
X158650000Y-102480000D02*
X158650000Y-101150000D01*
X159170000Y-104840000D02*
X159170000Y-104900000D01*
X159170000Y-104840000D02*
X161830000Y-104840000D01*
X159170000Y-104900000D02*
X161830000Y-104900000D01*
X161830000Y-104840000D02*
X161830000Y-104900000D01*
%TO.C,J18*%
X142150000Y-101150000D02*
X143480000Y-101150000D01*
X142150000Y-102480000D02*
X142150000Y-101150000D01*
X142670000Y-104840000D02*
X142670000Y-104900000D01*
X142670000Y-104840000D02*
X145330000Y-104840000D01*
X142670000Y-104900000D02*
X145330000Y-104900000D01*
X145330000Y-104840000D02*
X145330000Y-104900000D01*
%TO.C,J7*%
X148650000Y-101150000D02*
X149980000Y-101150000D01*
X148650000Y-102480000D02*
X148650000Y-101150000D01*
X149170000Y-104840000D02*
X149170000Y-104900000D01*
X149170000Y-104840000D02*
X151830000Y-104840000D01*
X149170000Y-104900000D02*
X151830000Y-104900000D01*
X151830000Y-104840000D02*
X151830000Y-104900000D01*
%TO.C,J9*%
X170150000Y-65650000D02*
X171480000Y-65650000D01*
X170150000Y-66980000D02*
X170150000Y-65650000D01*
X170670000Y-69340000D02*
X170670000Y-69400000D01*
X170670000Y-69340000D02*
X173330000Y-69340000D01*
X170670000Y-69400000D02*
X173330000Y-69400000D01*
X173330000Y-69340000D02*
X173330000Y-69400000D01*
%TO.C,J3*%
X110650000Y-101150000D02*
X111980000Y-101150000D01*
X110650000Y-102480000D02*
X110650000Y-101150000D01*
X111170000Y-104840000D02*
X111170000Y-104900000D01*
X111170000Y-104840000D02*
X113830000Y-104840000D01*
X111170000Y-104900000D02*
X113830000Y-104900000D01*
X113830000Y-104840000D02*
X113830000Y-104900000D01*
%TO.C,J13*%
X104150000Y-65650000D02*
X105480000Y-65650000D01*
X104150000Y-66980000D02*
X104150000Y-65650000D01*
X104670000Y-69340000D02*
X104670000Y-69400000D01*
X104670000Y-69340000D02*
X107330000Y-69340000D01*
X104670000Y-69400000D02*
X107330000Y-69400000D01*
X107330000Y-69340000D02*
X107330000Y-69400000D01*
%TD*%
M02*
