M48
; DRILL file {KiCad 8.0.2} date 2024-05-21T13:11:11-0400
; FORMAT={-:-/ absolute / metric / decimal}
; #@! TF.CreationDate,2024-05-21T13:11:11-04:00
; #@! TF.GenerationSoftware,Kicad,Pcbnew,8.0.2
; #@! TF.FileFunction,Plated,1,2,PTH
FMAT,2
METRIC
; #@! TA.AperFunction,Plated,PTH,ComponentDrill
T1C1.000
; #@! TA.AperFunction,Plated,PTH,ComponentDrill
T2C2.530
; #@! TA.AperFunction,Plated,PTH,ComponentDrill
T3C3.200
%
G90
G05
T1
X133.5Y-58.25
X133.5Y-60.79
X136.04Y-58.25
X136.04Y-60.79
X138.58Y-58.25
X138.58Y-60.79
X141.12Y-58.25
X141.12Y-60.79
X143.66Y-58.25
X143.66Y-60.79
X146.2Y-58.25
X146.2Y-60.79
X148.74Y-58.25
X148.74Y-60.79
X151.28Y-58.25
X151.28Y-60.79
X153.82Y-58.25
X153.82Y-60.79
X156.36Y-58.25
X156.36Y-60.79
X158.9Y-58.25
X158.9Y-60.79
X161.44Y-58.25
X161.44Y-60.79
T2
X96.0Y-67.5
X96.0Y-103.0
X106.0Y-67.5
X106.0Y-103.0
X112.5Y-67.5
X112.5Y-103.0
X122.5Y-67.5
X122.5Y-103.0
X134.0Y-67.5
X134.0Y-103.0
X144.0Y-67.5
X144.0Y-103.0
X150.5Y-67.5
X150.5Y-103.0
X160.5Y-67.5
X160.5Y-103.0
X172.0Y-67.5
X172.0Y-103.0
X182.0Y-67.5
X182.0Y-103.0
X189.0Y-67.5
X189.0Y-103.0
X199.0Y-67.5
X199.0Y-103.0
T3
X86.5Y-66.0
X86.5Y-101.5
X205.5Y-66.0
X205.5Y-101.5
M30
