%TF.GenerationSoftware,KiCad,Pcbnew,8.0.4*%
%TF.CreationDate,2024-09-10T22:05:45-04:00*%
%TF.ProjectId,UpperPOGO,55707065-7250-44f4-974f-2e6b69636164,v4*%
%TF.SameCoordinates,Original*%
%TF.FileFunction,Drillmap*%
%TF.FilePolarity,Positive*%
%FSLAX45Y45*%
G04 Gerber Fmt 4.5, Leading zero omitted, Abs format (unit mm)*
G04 Created by KiCad (PCBNEW 8.0.4) date 2024-09-10 22:05:45*
%MOMM*%
%LPD*%
G01*
G04 APERTURE LIST*
%ADD10C,0.050000*%
%ADD11C,0.200000*%
G04 APERTURE END LIST*
D10*
X14975000Y-7000000D02*
X14825000Y-7000000D01*
X14975000Y-10050000D02*
G75*
G02*
X15225000Y-10300000I0J-250000D01*
G01*
X11950000Y-10300000D02*
X11950000Y-10400000D01*
X19500000Y-10400000D02*
X19500000Y-10300000D01*
X19500000Y-6600000D02*
X19000000Y-6600000D01*
X10450000Y-10050000D02*
X10600000Y-10050000D01*
X13075000Y-7000000D02*
X13075000Y-10050000D01*
X17750000Y-6600000D02*
X17750000Y-6750000D01*
X19750000Y-7000000D02*
X19900000Y-7000000D01*
X12200000Y-10050000D02*
X12350000Y-10050000D01*
X14225000Y-8900000D02*
G75*
G02*
X14225000Y-8400000I0J250000D01*
G01*
X11450000Y-6750000D02*
G75*
G02*
X11200000Y-7000000I-250000J0D01*
G01*
X16850000Y-7000000D02*
X16850000Y-10050000D01*
X17000000Y-10050000D02*
X16850000Y-10050000D01*
X18150000Y-8900000D02*
X18150000Y-10050000D01*
X18750000Y-10050000D02*
G75*
G02*
X19000000Y-10300000I0J-250000D01*
G01*
X15725000Y-6600000D02*
X15225000Y-6600000D01*
X10200000Y-6750000D02*
X10200000Y-6600000D01*
X9700000Y-10400000D02*
X9700000Y-10300000D01*
X10200000Y-10300000D02*
G75*
G02*
X10450000Y-10050000I250000J0D01*
G01*
X10600000Y-7000000D02*
X10600000Y-8400000D01*
X17250000Y-10300000D02*
X17250000Y-10400000D01*
X11200000Y-8900000D02*
X11050000Y-8900000D01*
X14975000Y-8400000D02*
X14825000Y-8400000D01*
X14825000Y-8900000D02*
X14825000Y-10050000D01*
X18750000Y-8900000D02*
X18600000Y-8900000D01*
X13475000Y-6750000D02*
G75*
G02*
X13225000Y-7000000I-250000J0D01*
G01*
X13225000Y-7000000D02*
X13075000Y-7000000D01*
X11200000Y-10050000D02*
G75*
G02*
X11450000Y-10300000I0J-250000D01*
G01*
X17097500Y-5770000D02*
X17397500Y-6070000D01*
X12350000Y-7000000D02*
X12350000Y-10050000D01*
X14975000Y-8400000D02*
G75*
G02*
X14975000Y-8900000I0J-250000D01*
G01*
X17750000Y-10300000D02*
X17750000Y-10400000D01*
X10600000Y-8650000D02*
G75*
G02*
X10300000Y-8650000I-150000J0D01*
G01*
X10300000Y-8650000D02*
G75*
G02*
X10600000Y-8650000I150000J0D01*
G01*
X9450000Y-7000000D02*
X9300000Y-7000000D01*
X18000000Y-7000000D02*
X18150000Y-7000000D01*
X17000000Y-7000000D02*
X16850000Y-7000000D01*
X10200000Y-10300000D02*
X10200000Y-10400000D01*
X11050000Y-8900000D02*
X11050000Y-10050000D01*
X11200000Y-8400000D02*
G75*
G02*
X11200000Y-8900000I0J-250000D01*
G01*
X19900000Y-7000000D02*
X19900000Y-10050000D01*
X18150000Y-7000000D02*
X18150000Y-8400000D01*
X11200000Y-10050000D02*
X11050000Y-10050000D01*
X13475000Y-6600000D02*
X13975000Y-6600000D01*
X9450000Y-10050000D02*
G75*
G02*
X9700000Y-10300000I0J-250000D01*
G01*
X15725000Y-10400000D02*
X15225000Y-10400000D01*
X17000000Y-10050000D02*
G75*
G02*
X17250000Y-10300000I0J-250000D01*
G01*
X18750000Y-8400000D02*
G75*
G02*
X18750000Y-8900000I0J-250000D01*
G01*
X12097500Y-4670000D02*
X17097500Y-4670000D01*
X14825000Y-7000000D02*
X14825000Y-8400000D01*
X19750000Y-10050000D02*
X19900000Y-10050000D01*
X9700000Y-10400000D02*
X10200000Y-10400000D01*
X18600000Y-7000000D02*
X18600000Y-8400000D01*
X13975000Y-10300000D02*
X13975000Y-10400000D01*
X11950000Y-6600000D02*
X11450000Y-6600000D01*
X9300000Y-7000000D02*
X9300000Y-10050000D01*
X17750000Y-10300000D02*
G75*
G02*
X18000000Y-10050000I250000J0D01*
G01*
X9700000Y-6750000D02*
G75*
G02*
X9450000Y-7000000I-250000J0D01*
G01*
X15225000Y-6750000D02*
G75*
G02*
X14975000Y-7000000I-250000J0D01*
G01*
X12200000Y-7000000D02*
X12350000Y-7000000D01*
X14975000Y-10050000D02*
X14825000Y-10050000D01*
X14375000Y-8900000D02*
X14375000Y-10050000D01*
X14975000Y-8900000D02*
X14825000Y-8900000D01*
X14225000Y-7000000D02*
G75*
G02*
X13975000Y-6750000I0J250000D01*
G01*
X10450000Y-7000000D02*
X10600000Y-7000000D01*
X14225000Y-10050000D02*
X14375000Y-10050000D01*
X15975000Y-7000000D02*
G75*
G02*
X15725000Y-6750000I0J250000D01*
G01*
X13225000Y-10050000D02*
X13075000Y-10050000D01*
X18000000Y-8900000D02*
G75*
G02*
X18000000Y-8400000I0J250000D01*
G01*
X19500000Y-6750000D02*
X19500000Y-6600000D01*
X11950000Y-6600000D02*
X11950000Y-6750000D01*
X15125000Y-8650000D02*
G75*
G02*
X14825000Y-8650000I-150000J0D01*
G01*
X14825000Y-8650000D02*
G75*
G02*
X15125000Y-8650000I150000J0D01*
G01*
X18900000Y-8650000D02*
G75*
G02*
X18600000Y-8650000I-150000J0D01*
G01*
X18600000Y-8650000D02*
G75*
G02*
X18900000Y-8650000I150000J0D01*
G01*
X14375000Y-7000000D02*
X14375000Y-8400000D01*
X18000000Y-10050000D02*
X18150000Y-10050000D01*
X15225000Y-6750000D02*
X15225000Y-6600000D01*
X18750000Y-8400000D02*
X18600000Y-8400000D01*
X15725000Y-10300000D02*
G75*
G02*
X15975000Y-10050000I250000J0D01*
G01*
X18750000Y-10050000D02*
X18600000Y-10050000D01*
X17250000Y-6600000D02*
X17750000Y-6600000D01*
X19500000Y-10400000D02*
X19000000Y-10400000D01*
X15725000Y-10300000D02*
X15725000Y-10400000D01*
X14225000Y-7000000D02*
X14375000Y-7000000D01*
X18600000Y-8900000D02*
X18600000Y-10050000D01*
X18150000Y-8650000D02*
G75*
G02*
X17850000Y-8650000I-150000J0D01*
G01*
X17850000Y-8650000D02*
G75*
G02*
X18150000Y-8650000I150000J0D01*
G01*
X15725000Y-6600000D02*
X15725000Y-6750000D01*
X8200000Y-6075000D02*
X11800000Y-6075000D01*
X10450000Y-7000000D02*
G75*
G02*
X10200000Y-6750000I0J250000D01*
G01*
X11200000Y-8400000D02*
X11050000Y-8400000D01*
X15225000Y-10300000D02*
X15225000Y-10400000D01*
X8200000Y-10600000D02*
X8200000Y-6075000D01*
X17250000Y-10400000D02*
X17750000Y-10400000D01*
X14225000Y-8400000D02*
X14375000Y-8400000D01*
X19750000Y-7000000D02*
G75*
G02*
X19500000Y-6750000I0J250000D01*
G01*
X17250000Y-6750000D02*
G75*
G02*
X17000000Y-7000000I-250000J0D01*
G01*
X11950000Y-10300000D02*
G75*
G02*
X12200000Y-10050000I250000J0D01*
G01*
X13975000Y-6600000D02*
X13975000Y-6750000D01*
X17397500Y-6070000D02*
X20997500Y-6070000D01*
X9700000Y-6600000D02*
X10200000Y-6600000D01*
X12200000Y-7000000D02*
G75*
G02*
X11950000Y-6750000I0J250000D01*
G01*
X17097500Y-4670000D02*
X17097500Y-5770000D01*
X19000000Y-6750000D02*
G75*
G02*
X18750000Y-7000000I-250000J0D01*
G01*
X9450000Y-10050000D02*
X9300000Y-10050000D01*
X15975000Y-10050000D02*
X16125000Y-10050000D01*
X13475000Y-10300000D02*
X13475000Y-10400000D01*
X18000000Y-7000000D02*
G75*
G02*
X17750000Y-6750000I0J250000D01*
G01*
X10450000Y-8400000D02*
X10600000Y-8400000D01*
X19000000Y-10300000D02*
X19000000Y-10400000D01*
X21000000Y-10600000D02*
X20997500Y-6070000D01*
X13475000Y-6600000D02*
X13475000Y-6750000D01*
X17250000Y-6600000D02*
X17250000Y-6750000D01*
X16125000Y-7000000D02*
X16125000Y-10050000D01*
X21000000Y-10600000D02*
X8200000Y-10600000D01*
X13225000Y-10050000D02*
G75*
G02*
X13475000Y-10300000I0J-250000D01*
G01*
X18750000Y-7000000D02*
X18600000Y-7000000D01*
X19000000Y-6600000D02*
X19000000Y-6750000D01*
X10450000Y-8900000D02*
X10600000Y-8900000D01*
X14225000Y-8900000D02*
X14375000Y-8900000D01*
X13475000Y-10400000D02*
X13975000Y-10400000D01*
X11200000Y-7000000D02*
X11050000Y-7000000D01*
X9700000Y-6750000D02*
X9700000Y-6600000D01*
X11950000Y-10400000D02*
X11450000Y-10400000D01*
X11450000Y-6750000D02*
X11450000Y-6600000D01*
X14375000Y-8650000D02*
G75*
G02*
X14075000Y-8650000I-150000J0D01*
G01*
X14075000Y-8650000D02*
G75*
G02*
X14375000Y-8650000I150000J0D01*
G01*
X11800000Y-6075000D02*
X12097500Y-5770000D01*
X10450000Y-8900000D02*
G75*
G02*
X10450000Y-8400000I0J250000D01*
G01*
X18000000Y-8400000D02*
X18150000Y-8400000D01*
X11350000Y-8650000D02*
G75*
G02*
X11050000Y-8650000I-150000J0D01*
G01*
X11050000Y-8650000D02*
G75*
G02*
X11350000Y-8650000I150000J0D01*
G01*
X12097500Y-5770000D02*
X12097500Y-4670000D01*
X10600000Y-8900000D02*
X10600000Y-10050000D01*
X18000000Y-8900000D02*
X18150000Y-8900000D01*
X13975000Y-10300000D02*
G75*
G02*
X14225000Y-10050000I250000J0D01*
G01*
X11050000Y-7000000D02*
X11050000Y-8400000D01*
X15975000Y-7000000D02*
X16125000Y-7000000D01*
X11450000Y-10300000D02*
X11450000Y-10400000D01*
X19500000Y-10300000D02*
G75*
G02*
X19750000Y-10050000I250000J0D01*
G01*
D11*
X8458277Y-10913984D02*
X8458277Y-10713984D01*
X8458277Y-10713984D02*
X8505896Y-10713984D01*
X8505896Y-10713984D02*
X8534467Y-10723508D01*
X8534467Y-10723508D02*
X8553515Y-10742555D01*
X8553515Y-10742555D02*
X8563039Y-10761603D01*
X8563039Y-10761603D02*
X8572563Y-10799698D01*
X8572563Y-10799698D02*
X8572563Y-10828270D01*
X8572563Y-10828270D02*
X8563039Y-10866365D01*
X8563039Y-10866365D02*
X8553515Y-10885412D01*
X8553515Y-10885412D02*
X8534467Y-10904460D01*
X8534467Y-10904460D02*
X8505896Y-10913984D01*
X8505896Y-10913984D02*
X8458277Y-10913984D01*
X8658277Y-10913984D02*
X8658277Y-10780650D01*
X8658277Y-10818746D02*
X8667801Y-10799698D01*
X8667801Y-10799698D02*
X8677324Y-10790174D01*
X8677324Y-10790174D02*
X8696372Y-10780650D01*
X8696372Y-10780650D02*
X8715420Y-10780650D01*
X8782086Y-10913984D02*
X8782086Y-10780650D01*
X8782086Y-10713984D02*
X8772563Y-10723508D01*
X8772563Y-10723508D02*
X8782086Y-10733031D01*
X8782086Y-10733031D02*
X8791610Y-10723508D01*
X8791610Y-10723508D02*
X8782086Y-10713984D01*
X8782086Y-10713984D02*
X8782086Y-10733031D01*
X8905896Y-10913984D02*
X8886848Y-10904460D01*
X8886848Y-10904460D02*
X8877324Y-10885412D01*
X8877324Y-10885412D02*
X8877324Y-10713984D01*
X9010658Y-10913984D02*
X8991610Y-10904460D01*
X8991610Y-10904460D02*
X8982086Y-10885412D01*
X8982086Y-10885412D02*
X8982086Y-10713984D01*
X9239229Y-10913984D02*
X9239229Y-10713984D01*
X9239229Y-10713984D02*
X9305896Y-10856841D01*
X9305896Y-10856841D02*
X9372563Y-10713984D01*
X9372563Y-10713984D02*
X9372563Y-10913984D01*
X9553515Y-10913984D02*
X9553515Y-10809222D01*
X9553515Y-10809222D02*
X9543991Y-10790174D01*
X9543991Y-10790174D02*
X9524944Y-10780650D01*
X9524944Y-10780650D02*
X9486848Y-10780650D01*
X9486848Y-10780650D02*
X9467801Y-10790174D01*
X9553515Y-10904460D02*
X9534467Y-10913984D01*
X9534467Y-10913984D02*
X9486848Y-10913984D01*
X9486848Y-10913984D02*
X9467801Y-10904460D01*
X9467801Y-10904460D02*
X9458277Y-10885412D01*
X9458277Y-10885412D02*
X9458277Y-10866365D01*
X9458277Y-10866365D02*
X9467801Y-10847317D01*
X9467801Y-10847317D02*
X9486848Y-10837793D01*
X9486848Y-10837793D02*
X9534467Y-10837793D01*
X9534467Y-10837793D02*
X9553515Y-10828270D01*
X9648753Y-10780650D02*
X9648753Y-10980650D01*
X9648753Y-10790174D02*
X9667801Y-10780650D01*
X9667801Y-10780650D02*
X9705896Y-10780650D01*
X9705896Y-10780650D02*
X9724944Y-10790174D01*
X9724944Y-10790174D02*
X9734467Y-10799698D01*
X9734467Y-10799698D02*
X9743991Y-10818746D01*
X9743991Y-10818746D02*
X9743991Y-10875889D01*
X9743991Y-10875889D02*
X9734467Y-10894936D01*
X9734467Y-10894936D02*
X9724944Y-10904460D01*
X9724944Y-10904460D02*
X9705896Y-10913984D01*
X9705896Y-10913984D02*
X9667801Y-10913984D01*
X9667801Y-10913984D02*
X9648753Y-10904460D01*
X9829705Y-10894936D02*
X9839229Y-10904460D01*
X9839229Y-10904460D02*
X9829705Y-10913984D01*
X9829705Y-10913984D02*
X9820182Y-10904460D01*
X9820182Y-10904460D02*
X9829705Y-10894936D01*
X9829705Y-10894936D02*
X9829705Y-10913984D01*
X9829705Y-10790174D02*
X9839229Y-10799698D01*
X9839229Y-10799698D02*
X9829705Y-10809222D01*
X9829705Y-10809222D02*
X9820182Y-10799698D01*
X9820182Y-10799698D02*
X9829705Y-10790174D01*
X9829705Y-10790174D02*
X9829705Y-10809222D01*
M02*
