M48
; DRILL file {KiCad 8.0.5} date 2025-04-11T09:34:37-0400
; FORMAT={-:-/ absolute / metric / decimal}
; #@! TF.CreationDate,2025-04-11T09:34:37-04:00
; #@! TF.GenerationSoftware,Kicad,Pcbnew,8.0.5
; #@! TF.FileFunction,Plated,1,2,PTH
FMAT,2
METRIC
; #@! TA.AperFunction,Plated,PTH,ComponentDrill
T1C1.000
; #@! TA.AperFunction,Plated,PTH,ComponentDrill
T2C2.490
; #@! TA.AperFunction,Plated,PTH,ComponentDrill
T3C3.200
%
G90
G05
T1
X95.705Y-62.0
X98.245Y-62.0
X100.785Y-62.0
X103.325Y-62.0
X113.38Y-62.0
X115.92Y-62.0
X118.46Y-62.0
X121.0Y-62.0
X133.505Y-62.0
X136.045Y-62.0
X138.585Y-62.0
X141.125Y-62.0
X151.055Y-61.925
X153.595Y-61.925
X156.135Y-61.925
X158.675Y-61.925
X171.43Y-62.0
X173.97Y-62.0
X176.51Y-62.0
X179.05Y-62.0
X188.675Y-62.0
X191.215Y-62.0
X193.755Y-62.0
X196.295Y-62.0
T2
X94.5Y-67.5
X94.5Y-103.0
X104.5Y-67.5
X104.5Y-103.0
X112.0Y-67.5
X112.0Y-103.0
X122.0Y-67.5
X122.0Y-103.0
X132.25Y-67.5
X132.25Y-103.0
X142.25Y-67.5
X142.25Y-103.0
X149.75Y-67.5
X149.75Y-103.0
X159.75Y-67.5
X159.75Y-103.0
X170.0Y-67.5
X170.0Y-103.0
X180.0Y-67.5
X180.0Y-103.0
X187.5Y-67.5
X187.5Y-103.0
X197.5Y-67.5
X197.5Y-103.0
T3
X86.5Y-66.0
X86.5Y-101.5
X205.5Y-66.0
X205.5Y-101.5
M30
