%TF.GenerationSoftware,KiCad,Pcbnew,8.0.4*%
%TF.CreationDate,2024-09-10T22:05:28-04:00*%
%TF.ProjectId,UpperPOGO,55707065-7250-44f4-974f-2e6b69636164,v4*%
%TF.SameCoordinates,Original*%
%TF.FileFunction,Soldermask,Bot*%
%TF.FilePolarity,Negative*%
%FSLAX46Y46*%
G04 Gerber Fmt 4.6, Leading zero omitted, Abs format (unit mm)*
G04 Created by KiCad (PCBNEW 8.0.4) date 2024-09-10 22:05:28*
%MOMM*%
%LPD*%
G01*
G04 APERTURE LIST*
%ADD10C,3.250000*%
%ADD11C,3.600000*%
%ADD12C,5.600000*%
%ADD13R,1.700000X1.700000*%
%ADD14O,1.700000X1.700000*%
G04 APERTURE END LIST*
D10*
%TO.C,J20*%
X187500000Y-67500000D03*
%TD*%
%TO.C,J15*%
X122000000Y-67500000D03*
%TD*%
%TO.C,J16*%
X112000000Y-67500000D03*
%TD*%
%TO.C,J18*%
X94500000Y-67500000D03*
%TD*%
%TO.C,J24*%
X149750000Y-67500000D03*
%TD*%
%TO.C,J13*%
X142250000Y-67500000D03*
%TD*%
%TO.C,J5*%
X132250000Y-103000000D03*
%TD*%
%TO.C,J4*%
X122000000Y-103000000D03*
%TD*%
D11*
%TO.C,H1*%
X86500000Y-66000000D03*
D12*
X86500000Y-66000000D03*
%TD*%
D11*
%TO.C,H3*%
X86500000Y-101500000D03*
D12*
X86500000Y-101500000D03*
%TD*%
D10*
%TO.C,J10*%
X180000000Y-103000000D03*
%TD*%
D11*
%TO.C,H4*%
X205500000Y-101500000D03*
D12*
X205500000Y-101500000D03*
%TD*%
D10*
%TO.C,J11*%
X187500000Y-103000000D03*
%TD*%
%TO.C,J9*%
X170000000Y-103000000D03*
%TD*%
D11*
%TO.C,H2*%
X205500000Y-66000000D03*
D12*
X205500000Y-66000000D03*
%TD*%
D10*
%TO.C,J1*%
X94500000Y-103000000D03*
%TD*%
%TO.C,J14*%
X132250000Y-67500000D03*
%TD*%
%TO.C,J19*%
X197500000Y-67500000D03*
%TD*%
%TO.C,J21*%
X180000000Y-67500000D03*
%TD*%
%TO.C,J2*%
X104500000Y-103000000D03*
%TD*%
%TO.C,J12*%
X197500000Y-103000000D03*
%TD*%
%TO.C,J23*%
X159750000Y-67500000D03*
%TD*%
%TO.C,J8*%
X159750000Y-103000000D03*
%TD*%
%TO.C,J6*%
X142250000Y-103000000D03*
%TD*%
%TO.C,J7*%
X149750000Y-103000000D03*
%TD*%
%TO.C,J22*%
X170000000Y-67500000D03*
%TD*%
%TO.C,J3*%
X112000000Y-103000000D03*
%TD*%
%TO.C,J17*%
X104500000Y-67500000D03*
%TD*%
D13*
%TO.C,J25*%
X132050000Y-58000000D03*
D14*
X134590000Y-58000000D03*
X137130000Y-58000000D03*
X139670000Y-58000000D03*
X142210000Y-58000000D03*
X144750000Y-58000000D03*
X147290000Y-58000000D03*
X149830000Y-58000000D03*
X152370000Y-58000000D03*
X154910000Y-58000000D03*
X157450000Y-58000000D03*
X159990000Y-58000000D03*
X132050000Y-55460000D03*
X134590000Y-55460000D03*
X137130000Y-55460000D03*
X139670000Y-55460000D03*
X142210000Y-55460000D03*
X144750000Y-55460000D03*
X147290000Y-55460000D03*
X149830000Y-55460000D03*
X152370000Y-55460000D03*
X154910000Y-55460000D03*
X157450000Y-55460000D03*
X159990000Y-55460000D03*
%TD*%
M02*
